<svg width="17" height="35" viewBox="0 0 17 35" fill="none" xmlns="http://www.w3.org/2000/svg">
<path d="M14.3645 30.5803L14.3645 20.3869L9.26775 20.3869L9.26775 16.7234C9.26775 15.9385 9.4757 15.1658 9.86712 14.4849C11.2983 12.0079 10.9436 8.8846 8.99457 6.79087C8.82128 6.60535 8.66634 6.40759 8.52771 6.19557C7.17402 4.12834 7.75097 1.35573 9.8182 -2.72243e-07L6.94161 -3.97983e-07C5.17406 2.51778 5.40852 5.9285 7.50225 8.18125C8.84167 9.62057 9.08427 11.7653 8.10162 13.4676C7.53079 14.4584 7.22906 15.5817 7.22906 16.7254L7.22906 20.3869L2.13234 20.3869L2.13234 30.5803C2.13234 31.3224 1.73072 32.0054 1.08038 32.3642C0.489158 32.6904 0.273059 33.4345 0.603326 34.0257C0.817388 34.413 1.2292 34.6577 1.6716 34.6577L14.8232 34.6577C15.498 34.6577 16.0464 34.1093 16.0464 33.4345C16.0464 32.988 15.8058 32.5782 15.4144 32.3642C14.7661 32.0054 14.3645 31.3224 14.3645 30.5803Z" fill="#17DC13"/>
</svg>
