<svg width="618" height="195" viewBox="0 0 618 195" fill="none" xmlns="http://www.w3.org/2000/svg">
<path d="M361.976 177.661L350.157 177.661L350.157 15.263L361.976 15.263L361.976 177.661Z" fill="#CCCCCC"/>
<path d="M362.582 24.7678L349.551 24.7678C348.007 24.7678 346.755 23.5132 346.755 21.9656C346.755 20.418 348.007 19.1636 349.551 19.1636L362.582 19.1636C364.126 19.1636 365.378 20.418 365.378 21.9656C365.378 23.5132 364.126 24.7678 362.582 24.7678Z" fill="#808080"/>
<path d="M362.582 169.557L349.551 169.557C348.007 169.557 346.755 168.302 346.755 166.755C346.755 165.207 348.007 163.953 349.551 163.953L362.582 163.953C364.126 163.953 365.378 165.207 365.378 166.755C365.378 168.302 364.126 169.557 362.582 169.557Z" fill="#808080"/>
<path d="M365.377 166.545L346.755 166.545L346.755 21.7329L365.377 21.7329L365.377 166.545Z" fill="#CCCCCC"/>
<path d="M395.415 177.619L383.596 177.619L383.596 15.1469L395.415 15.1469L395.415 177.619Z" fill="#CCCCCC"/>
<path d="M396.022 24.6514L382.99 24.6514C381.446 24.6514 380.195 23.3968 380.195 21.8492C380.195 20.3016 381.446 19.0472 382.99 19.0472L396.022 19.0472C397.566 19.0472 398.817 20.3016 398.817 21.8492C398.817 23.3968 397.566 24.6514 396.022 24.6514Z" fill="#808080"/>
<path d="M396.022 169.441L382.99 169.441C381.446 169.441 380.195 168.186 380.195 166.639C380.195 165.091 381.446 163.837 382.99 163.837L396.022 163.837C397.566 163.837 398.817 165.091 398.817 166.639C398.817 168.186 397.566 169.441 396.022 169.441Z" fill="#808080"/>
<path d="M398.817 166.429L380.195 166.429L380.195 21.6165L398.817 21.6165L398.817 166.429Z" fill="#CCCCCC"/>
<path d="M429.721 177.579L417.902 177.579L417.902 15.1466L429.721 15.1466L429.721 177.579Z" fill="#CCCCCC"/>
<path d="M430.328 24.6514L417.296 24.6514C415.752 24.6514 414.5 23.3968 414.5 21.8492C414.5 20.3016 415.752 19.0472 417.296 19.0472L430.328 19.0472C431.871 19.0472 433.123 20.3016 433.123 21.8492C433.123 23.3968 431.871 24.6514 430.328 24.6514Z" fill="#808080"/>
<path d="M430.328 169.44L417.296 169.44C415.752 169.44 414.5 168.186 414.5 166.638C414.5 165.091 415.752 163.836 417.296 163.836L430.328 163.836C431.871 163.836 433.123 165.091 433.123 166.638C433.123 168.186 431.871 169.44 430.328 169.44Z" fill="#808080"/>
<path d="M433.122 166.428L414.5 166.428L414.5 21.616L433.123 21.616L433.122 166.428Z" fill="#CCCCCC"/>
<path d="M463.356 177.655L451.537 177.655L451.537 15.1462L463.356 15.1462L463.356 177.655Z" fill="#CCCCCC"/>
<path d="M463.962 24.6509L450.93 24.6509C449.386 24.6509 448.135 23.3963 448.135 21.8487C448.135 20.3011 449.386 19.0467 450.93 19.0467L463.962 19.0467C465.506 19.0467 466.757 20.3011 466.757 21.8487C466.757 23.3963 465.506 24.6509 463.962 24.6509Z" fill="#808080"/>
<path d="M463.962 169.44L450.93 169.44C449.386 169.44 448.135 168.185 448.135 166.638C448.135 165.09 449.386 163.836 450.93 163.836L463.962 163.836C465.506 163.836 466.757 165.09 466.757 166.638C466.757 168.185 465.506 169.44 463.962 169.44Z" fill="#808080"/>
<path d="M466.757 166.428L448.135 166.428L448.135 21.6155L466.757 21.6155L466.757 166.428Z" fill="#CCCCCC"/>
<path d="M497.222 177.633L485.403 177.633L485.403 15.1467L497.222 15.1467L497.222 177.633Z" fill="#CCCCCC"/>
<path d="M497.829 24.6511L484.797 24.6511C483.253 24.6511 482.002 23.3965 482.002 21.8489C482.002 20.3013 483.253 19.0469 484.797 19.0469L497.829 19.0469C499.373 19.0469 500.624 20.3013 500.624 21.8489C500.624 23.3965 499.373 24.6511 497.829 24.6511Z" fill="#808080"/>
<path d="M497.829 169.441L484.797 169.441C483.253 169.441 482.002 168.186 482.002 166.639C482.002 165.091 483.253 163.837 484.797 163.837L497.829 163.837C499.373 163.837 500.624 165.091 500.624 166.639C500.624 168.186 499.373 169.441 497.829 169.441Z" fill="#808080"/>
<path d="M500.624 166.429L482.002 166.429L482.002 21.6165L500.624 21.6165L500.624 166.429Z" fill="#CCCCCC"/>
<path d="M531.73 177.588L519.911 177.588L519.911 15.1463L531.73 15.1463L531.73 177.588Z" fill="#CCCCCC"/>
<path d="M532.337 24.6506L519.305 24.6506C517.761 24.6506 516.51 23.396 516.51 21.8484C516.51 20.3009 517.761 19.0464 519.305 19.0464L532.337 19.0464C533.881 19.0464 535.132 20.3009 535.132 21.8484C535.132 23.396 533.881 24.6506 532.337 24.6506Z" fill="#808080"/>
<path d="M532.337 169.44L519.305 169.44C517.761 169.44 516.51 168.186 516.51 166.638C516.51 165.091 517.761 163.836 519.305 163.836L532.337 163.836C533.881 163.836 535.132 165.091 535.132 166.638C535.132 168.186 533.881 169.44 532.337 169.44Z" fill="#808080"/>
<path d="M535.132 166.428L516.51 166.428L516.51 21.616L535.132 21.616L535.132 166.428Z" fill="#CCCCCC"/>
<path d="M566.695 177.661L554.876 177.661L554.876 15.1463L566.695 15.1463L566.695 177.661Z" fill="#CCCCCC"/>
<path d="M567.301 24.6511L554.269 24.6511C552.726 24.6511 551.474 23.3965 551.474 21.8489C551.474 20.3013 552.726 19.0469 554.269 19.0469L567.301 19.0469C568.845 19.0469 570.096 20.3013 570.096 21.8489C570.096 23.3965 568.845 24.6511 567.301 24.6511Z" fill="#808080"/>
<path d="M567.301 169.441L554.269 169.441C552.726 169.441 551.474 168.186 551.474 166.638C551.474 165.091 552.726 163.836 554.269 163.836L567.301 163.836C568.845 163.836 570.096 165.091 570.096 166.638C570.096 168.186 568.845 169.441 567.301 169.441Z" fill="#808080"/>
<path d="M570.096 166.429L551.474 166.429L551.474 21.6162L570.096 21.6162L570.096 166.429Z" fill="#CCCCCC"/>
<path d="M598.617 177.604L586.798 177.604L586.798 15.146L598.617 15.146L598.617 177.604Z" fill="#CCCCCC"/>
<path d="M599.224 24.6504L586.192 24.6504C584.648 24.6504 583.396 23.3958 583.396 21.8482C583.396 20.3006 584.648 19.0462 586.192 19.0462L599.224 19.0462C600.767 19.0462 602.019 20.3006 602.019 21.8482C602.019 23.3958 600.767 24.6504 599.224 24.6504Z" fill="#808080"/>
<path d="M599.224 169.44L586.192 169.44C584.648 169.44 583.396 168.185 583.396 166.638C583.396 165.09 584.648 163.836 586.192 163.836L599.224 163.836C600.767 163.836 602.019 165.09 602.019 166.638C602.019 168.185 600.767 169.44 599.224 169.44Z" fill="#808080"/>
<path d="M602.018 166.428L583.396 166.428L583.396 21.6155L602.018 21.6155L602.018 166.428Z" fill="#CCCCCC"/>
<path d="M325.718 179.583L313.899 179.583L313.899 15.2629L325.718 15.2629L325.718 179.583Z" fill="#CCCCCC"/>
<path d="M326.324 24.7676L313.292 24.7676C311.749 24.7676 310.497 23.513 310.497 21.9654C310.497 20.4178 311.749 19.1634 313.292 19.1634L326.324 19.1634C327.868 19.1634 329.119 20.4178 329.119 21.9654C329.119 23.513 327.868 24.7676 326.324 24.7676Z" fill="#808080"/>
<path d="M326.324 169.557L313.292 169.557C311.749 169.557 310.497 168.303 310.497 166.755C310.497 165.207 311.749 163.953 313.292 163.953L326.324 163.953C327.868 163.953 329.119 165.207 329.119 166.755C329.119 168.303 327.868 169.557 326.324 169.557Z" fill="#808080"/>
<path d="M329.119 166.545L310.497 166.545L310.497 21.7324L329.119 21.7324L329.119 166.545Z" fill="#CCCCCC"/>
<path d="M617.092 16.3748L309.602 16.3748L309.602 11.2443L617.092 11.2443L617.092 16.3748Z" fill="#CCCCCC" stroke="#808080" stroke-opacity="0.99" stroke-width="0.772487"/>
<path d="M617.106 11.2583L309.587 11.2583L309.587 1.27358L617.106 1.2736L617.106 11.2583Z" fill="#EEEEEE" stroke="#808080" stroke-opacity="0.99" stroke-width="0.742312"/>
<path d="M358.845 10.7751L358.802 8.43408C359.91 7.51791 361.042 6.6128 362.922 8.43408L362.922 10.8013L358.845 10.7751Z" fill="#CCCCCC"/>
<path d="M358.805 8.59728L358.756 7.67194C359.875 7.30999 361.018 6.9521 362.916 7.67194L362.916 8.60742L358.805 8.59728Z" fill="#4D4D4D"/>
<path d="M370.172 10.7751L370.13 8.43408C371.238 7.51791 372.37 6.6128 374.249 8.43408L374.249 10.8013L370.172 10.7751Z" fill="#CCCCCC"/>
<path d="M370.132 8.59728L370.084 7.67194C371.202 7.30999 372.345 6.9521 374.243 7.67194L374.243 8.60742L370.132 8.59728Z" fill="#4D4D4D"/>
<path d="M381.599 10.7751L381.557 8.43408C382.664 7.51791 383.796 6.6128 385.676 8.43408L385.676 10.8013L381.599 10.7751Z" fill="#CCCCCC"/>
<path d="M381.559 8.59728L381.511 7.67194C382.63 7.30999 383.772 6.9521 385.67 7.67194L385.67 8.60742L381.559 8.59728Z" fill="#4D4D4D"/>
<path d="M392.722 10.7751L392.679 8.43408C393.787 7.51791 394.919 6.6128 396.799 8.43408L396.799 10.8013L392.722 10.7751Z" fill="#CCCCCC"/>
<path d="M392.682 8.59728L392.634 7.67194C393.753 7.30999 394.896 6.9521 396.793 7.67194L396.793 8.60742L392.682 8.59728Z" fill="#4D4D4D"/>
<path d="M404.226 10.7751L404.184 8.43408C405.291 7.51791 406.423 6.6128 408.303 8.43408L408.303 10.8013L404.226 10.7751Z" fill="#CCCCCC"/>
<path d="M404.186 8.59728L404.138 7.67194C405.256 7.30999 406.399 6.9521 408.297 7.67194L408.297 8.60742L404.186 8.59728Z" fill="#4D4D4D"/>
<path d="M415.554 10.7751L415.511 8.43408C416.619 7.51791 417.751 6.6128 419.631 8.43408L419.631 10.8013L415.554 10.7751Z" fill="#CCCCCC"/>
<path d="M415.514 8.59728L415.465 7.67194C416.584 7.30999 417.727 6.9521 419.624 7.67194L419.624 8.60742L415.514 8.59728Z" fill="#4D4D4D"/>
<path d="M426.981 10.7751L426.938 8.43408C428.046 7.51791 429.178 6.6128 431.058 8.43408L431.058 10.8013L426.981 10.7751Z" fill="#CCCCCC"/>
<path d="M426.941 8.59728L426.893 7.67194C428.011 7.30999 429.154 6.9521 431.052 7.67194L431.052 8.60742L426.941 8.59728Z" fill="#4D4D4D"/>
<path d="M438.104 10.7751L438.062 8.43408C439.169 7.51791 440.301 6.6128 442.181 8.43408L442.181 10.8013L438.104 10.7751Z" fill="#CCCCCC"/>
<path d="M438.064 8.59728L438.016 7.67194C439.134 7.30999 440.277 6.9521 442.175 7.67194L442.175 8.60742L438.064 8.59728Z" fill="#4D4D4D"/>
<path d="M449.388 10.7751L449.346 8.43408C450.454 7.51791 451.585 6.6128 453.465 8.43408L453.465 10.8013L449.388 10.7751Z" fill="#CCCCCC"/>
<path d="M449.348 8.59728L449.3 7.67194C450.418 7.30999 451.561 6.9521 453.459 7.67194L453.459 8.60742L449.348 8.59728Z" fill="#4D4D4D"/>
<path d="M460.891 10.7751L460.849 8.43408C461.956 7.51791 463.088 6.6128 464.968 8.43408L464.968 10.8013L460.891 10.7751Z" fill="#CCCCCC"/>
<path d="M460.851 8.59728L460.803 7.67194C461.922 7.30999 463.064 6.9521 464.962 7.67194L464.962 8.60742L460.851 8.59728Z" fill="#4D4D4D"/>
<path d="M472.219 10.7751L472.176 8.43408C473.284 7.51791 474.416 6.6128 476.296 8.43408L476.296 10.8013L472.219 10.7751Z" fill="#CCCCCC"/>
<path d="M472.179 8.59728L472.131 7.67194C473.249 7.30999 474.392 6.9521 476.29 7.67194L476.29 8.60742L472.179 8.59728Z" fill="#4D4D4D"/>
<path d="M483.646 10.7751L483.604 8.43408C484.712 7.51791 485.844 6.6128 487.724 8.43408L487.724 10.8013L483.646 10.7751Z" fill="#CCCCCC"/>
<path d="M483.606 8.59728L483.558 7.67194C484.677 7.30999 485.819 6.9521 487.717 7.67194L487.717 8.60742L483.606 8.59728Z" fill="#4D4D4D"/>
<path d="M494.769 10.7751L494.727 8.43408C495.834 7.51791 496.966 6.6128 498.846 8.43408L498.846 10.8013L494.769 10.7751Z" fill="#CCCCCC"/>
<path d="M494.729 8.59728L494.681 7.67194C495.799 7.30999 496.942 6.9521 498.84 7.67194L498.84 8.60742L494.729 8.59728Z" fill="#4D4D4D"/>
<path d="M506.583 10.7751L506.541 8.43408C507.649 7.51791 508.781 6.6128 510.661 8.43408L510.661 10.8013L506.583 10.7751Z" fill="#CCCCCC"/>
<path d="M506.543 8.59728L506.495 7.67194C507.614 7.30999 508.756 6.9521 510.654 7.67194L510.654 8.60742L506.543 8.59728Z" fill="#4D4D4D"/>
<path d="M518.012 10.7751L517.97 8.43408C519.078 7.51791 520.21 6.6128 522.089 8.43408L522.089 10.8013L518.012 10.7751Z" fill="#CCCCCC"/>
<path d="M517.972 8.59728L517.924 7.67194C519.042 7.30999 520.185 6.9521 522.083 7.67194L522.083 8.60742L517.972 8.59728Z" fill="#4D4D4D"/>
<path d="M529.135 10.7751L529.092 8.43408C530.2 7.51791 531.332 6.6128 533.212 8.43408L533.212 10.8013L529.135 10.7751Z" fill="#CCCCCC"/>
<path d="M529.095 8.59728L529.046 7.67194C530.165 7.30999 531.308 6.9521 533.206 7.67194L533.206 8.60742L529.095 8.59728Z" fill="#4D4D4D"/>
<path d="M563.241 10.7751L563.199 8.43408C564.307 7.51791 565.439 6.6128 567.318 8.43408L567.318 10.8013L563.241 10.7751Z" fill="#CCCCCC"/>
<path d="M563.201 8.59728L563.153 7.67194C564.271 7.30999 565.414 6.9521 567.312 7.67194L567.312 8.60742L563.201 8.59728Z" fill="#4D4D4D"/>
<path d="M574.668 10.7751L574.625 8.43408C575.733 7.51791 576.865 6.6128 578.745 8.43408L578.745 10.8013L574.668 10.7751Z" fill="#CCCCCC"/>
<path d="M574.628 8.59728L574.58 7.67194C575.699 7.30999 576.841 6.9521 578.739 7.67194L578.739 8.60742L574.628 8.59728Z" fill="#4D4D4D"/>
<path d="M585.791 10.7751L585.749 8.43408C586.856 7.51791 587.988 6.6128 589.868 8.43408L589.868 10.8013L585.791 10.7751Z" fill="#CCCCCC"/>
<path d="M585.751 8.59728L585.703 7.67194C586.822 7.30999 587.964 6.9521 589.862 7.67194L589.862 8.60742L585.751 8.59728Z" fill="#4D4D4D"/>
<path d="M597.606 10.7751L597.563 8.43408C598.671 7.51791 599.803 6.6128 601.683 8.43408L601.683 10.8013L597.606 10.7751Z" fill="#CCCCCC"/>
<path d="M597.566 8.59728L597.518 7.67194C598.636 7.30999 599.779 6.9521 601.677 7.67194L601.677 8.60742L597.566 8.59728Z" fill="#4D4D4D"/>
<path d="M609.033 10.7751L608.991 8.43408C610.099 7.51791 611.231 6.6128 613.11 8.43408L613.11 10.8013L609.033 10.7751Z" fill="#CCCCCC"/>
<path d="M608.993 8.59728L608.945 7.67194C610.063 7.30999 611.206 6.9521 613.104 7.67194L613.104 8.60742L608.993 8.59728Z" fill="#4D4D4D"/>
<path d="M556.809 12.4236L538.444 12.4236L538.444 1.64409L556.809 1.64409L556.809 12.4236Z" fill="#CCCCCC"/>
<path d="M351.136 11.1255L351.136 7.16598C350.474 4.97779 348.595 4.55214 346.317 4.70327L313.017 7.94084C310.701 8.11245 309.726 9.13884 309.956 10.9339L351.136 11.1255Z" fill="#CCCCCC"/>
<path d="M617.092 177.982L309.602 177.982L309.602 183.113L617.092 183.113L617.092 177.982Z" fill="#CCCCCC" stroke="#808080" stroke-opacity="0.99" stroke-width="0.772487"/>
<path d="M617.106 183.098L309.587 183.098L309.587 193.083L617.106 193.083L617.106 183.098Z" fill="#EEEEEE" stroke="#808080" stroke-opacity="0.99" stroke-width="0.742312"/>
<path d="M358.845 183.582L358.802 185.923C359.91 186.839 361.042 187.744 362.922 185.923L362.922 183.555L358.845 183.582Z" fill="#CCCCCC"/>
<path d="M358.805 185.759L358.756 186.685C359.875 187.047 361.018 187.405 362.916 186.685L362.916 185.749L358.805 185.759Z" fill="#4D4D4D"/>
<path d="M370.173 183.582L370.13 185.923C371.238 186.839 372.37 187.744 374.25 185.923L374.25 183.555L370.173 183.582Z" fill="#CCCCCC"/>
<path d="M370.133 185.759L370.084 186.685C371.203 187.047 372.346 187.405 374.244 186.685L374.244 185.749L370.133 185.759Z" fill="#4D4D4D"/>
<path d="M381.599 183.582L381.557 185.923C382.665 186.839 383.797 187.744 385.677 185.923L385.677 183.555L381.599 183.582Z" fill="#CCCCCC"/>
<path d="M381.56 185.759L381.512 186.685C382.63 187.047 383.773 187.405 385.671 186.685L385.671 185.749L381.56 185.759Z" fill="#4D4D4D"/>
<path d="M392.722 183.582L392.68 185.923C393.788 186.839 394.92 187.744 396.8 185.923L396.8 183.555L392.722 183.582Z" fill="#CCCCCC"/>
<path d="M392.683 185.759L392.635 186.685C393.753 187.047 394.896 187.405 396.794 186.685L396.794 185.749L392.683 185.759Z" fill="#4D4D4D"/>
<path d="M404.226 183.582L404.184 185.923C405.292 186.839 406.424 187.744 408.304 185.923L408.304 183.555L404.226 183.582Z" fill="#CCCCCC"/>
<path d="M404.186 185.759L404.138 186.685C405.257 187.047 406.399 187.405 408.297 186.685L408.297 185.749L404.186 185.759Z" fill="#4D4D4D"/>
<path d="M415.554 183.582L415.512 185.923C416.62 186.839 417.752 187.744 419.631 185.923L419.631 183.555L415.554 183.582Z" fill="#CCCCCC"/>
<path d="M415.514 185.759L415.466 186.685C416.584 187.047 417.727 187.405 419.625 186.685L419.625 185.749L415.514 185.759Z" fill="#4D4D4D"/>
<path d="M426.981 183.582L426.939 185.923C428.047 186.839 429.179 187.744 431.059 185.923L431.059 183.555L426.981 183.582Z" fill="#CCCCCC"/>
<path d="M426.941 185.759L426.893 186.685C428.012 187.047 429.154 187.405 431.052 186.685L431.052 185.749L426.941 185.759Z" fill="#4D4D4D"/>
<path d="M438.104 183.582L438.062 185.923C439.17 186.839 440.302 187.744 442.182 185.923L442.182 183.555L438.104 183.582Z" fill="#CCCCCC"/>
<path d="M438.064 185.759L438.016 186.685C439.135 187.047 440.277 187.405 442.175 186.685L442.175 185.749L438.064 185.759Z" fill="#4D4D4D"/>
<path d="M449.389 183.582L449.346 185.923C450.454 186.839 451.586 187.744 453.466 185.923L453.466 183.555L449.389 183.582Z" fill="#CCCCCC"/>
<path d="M449.348 185.759L449.3 186.685C450.419 187.047 451.562 187.405 453.459 186.685L453.459 185.749L449.348 185.759Z" fill="#4D4D4D"/>
<path d="M460.891 183.582L460.849 185.923C461.957 186.839 463.089 187.744 464.969 185.923L464.969 183.555L460.891 183.582Z" fill="#CCCCCC"/>
<path d="M460.852 185.759L460.804 186.685C461.922 187.047 463.065 187.405 464.963 186.685L464.963 185.749L460.852 185.759Z" fill="#4D4D4D"/>
<path d="M472.219 183.582L472.177 185.923C473.285 186.839 474.417 187.744 476.296 185.923L476.296 183.555L472.219 183.582Z" fill="#CCCCCC"/>
<path d="M472.18 185.759L472.131 186.685C473.25 187.047 474.393 187.405 476.291 186.685L476.291 185.749L472.18 185.759Z" fill="#4D4D4D"/>
<path d="M483.646 183.582L483.604 185.923C484.712 186.839 485.844 187.744 487.724 185.923L487.724 183.555L483.646 183.582Z" fill="#CCCCCC"/>
<path d="M483.606 185.759L483.558 186.685C484.677 187.047 485.819 187.405 487.717 186.685L487.717 185.749L483.606 185.759Z" fill="#4D4D4D"/>
<path d="M494.769 183.582L494.727 185.923C495.835 186.839 496.967 187.744 498.847 185.923L498.847 183.555L494.769 183.582Z" fill="#CCCCCC"/>
<path d="M494.729 185.759L494.681 186.685C495.8 187.047 496.942 187.405 498.84 186.685L498.84 185.749L494.729 185.759Z" fill="#4D4D4D"/>
<path d="M506.584 183.582L506.542 185.923C507.649 186.839 508.781 187.744 510.661 185.923L510.661 183.555L506.584 183.582Z" fill="#CCCCCC"/>
<path d="M506.544 185.759L506.496 186.685C507.614 187.047 508.757 187.405 510.655 186.685L510.655 185.749L506.544 185.759Z" fill="#4D4D4D"/>
<path d="M518.012 183.582L517.97 185.923C519.078 186.839 520.21 187.744 522.089 185.923L522.089 183.555L518.012 183.582Z" fill="#CCCCCC"/>
<path d="M517.972 185.759L517.924 186.685C519.042 187.047 520.185 187.405 522.083 186.685L522.083 185.749L517.972 185.759Z" fill="#4D4D4D"/>
<path d="M529.134 183.582L529.092 185.923C530.2 186.839 531.332 187.744 533.211 185.923L533.211 183.555L529.134 183.582Z" fill="#CCCCCC"/>
<path d="M529.094 185.759L529.046 186.685C530.164 187.047 531.307 187.405 533.205 186.685L533.205 185.749L529.094 185.759Z" fill="#4D4D4D"/>
<path d="M563.241 183.582L563.199 185.923C564.307 186.839 565.439 187.744 567.318 185.923L567.318 183.555L563.241 183.582Z" fill="#CCCCCC"/>
<path d="M563.201 185.759L563.153 186.685C564.271 187.047 565.414 187.405 567.312 186.685L567.312 185.749L563.201 185.759Z" fill="#4D4D4D"/>
<path d="M574.668 183.582L574.626 185.923C575.734 186.839 576.866 187.744 578.746 185.923L578.746 183.555L574.668 183.582Z" fill="#CCCCCC"/>
<path d="M574.629 185.759L574.581 186.685C575.699 187.047 576.842 187.405 578.74 186.685L578.74 185.749L574.629 185.759Z" fill="#4D4D4D"/>
<path d="M585.791 183.582L585.749 185.923C586.857 186.839 587.989 187.744 589.869 185.923L589.869 183.555L585.791 183.582Z" fill="#CCCCCC"/>
<path d="M585.752 185.759L585.704 186.685C586.822 187.047 587.965 187.405 589.863 186.685L589.863 185.749L585.752 185.759Z" fill="#4D4D4D"/>
<path d="M597.606 183.582L597.564 185.923C598.672 186.839 599.804 187.744 601.684 185.923L601.684 183.555L597.606 183.582Z" fill="#CCCCCC"/>
<path d="M597.566 185.759L597.518 186.685C598.637 187.047 599.779 187.405 601.677 186.685L601.677 185.749L597.566 185.759Z" fill="#4D4D4D"/>
<path d="M609.034 183.582L608.991 185.923C610.099 186.839 611.231 187.744 613.111 185.923L613.111 183.555L609.034 183.582Z" fill="#CCCCCC"/>
<path d="M608.994 185.759L608.945 186.685C610.064 187.047 611.207 187.405 613.104 186.685L613.104 185.749L608.994 185.759Z" fill="#4D4D4D"/>
<path d="M556.81 181.933L538.444 181.933L538.444 192.713L556.81 192.713L556.81 181.933Z" fill="#CCCCCC"/>
<path d="M351.137 183.232L351.137 187.191C350.474 189.379 348.595 189.805 346.317 189.654L313.017 186.416C310.701 186.245 309.726 185.218 309.956 183.423L351.137 183.232Z" fill="#CCCCCC"/>
<path d="M25.7281 177.566L13.9092 177.566L13.9092 15.094L25.7281 15.094L25.7281 177.566Z" fill="#CCCCCC"/>
<path d="M26.3344 24.5989L13.3027 24.5989C11.7589 24.5989 10.5073 23.3443 10.5073 21.7967C10.5073 20.2491 11.7589 18.9947 13.3027 18.9947L26.3344 18.9947C27.8782 18.9947 29.1297 20.2491 29.1297 21.7967C29.1297 23.3443 27.8782 24.5989 26.3344 24.5989Z" fill="#808080"/>
<path d="M26.3344 169.388L13.3027 169.388C11.7589 169.388 10.5073 168.133 10.5073 166.585C10.5073 165.038 11.7589 163.783 13.3027 163.783L26.3344 163.783C27.8782 163.783 29.1297 165.038 29.1297 166.585C29.1297 168.133 27.8782 169.388 26.3344 169.388Z" fill="#808080"/>
<path d="M29.1293 166.376L10.5073 166.376L10.5073 21.5632L29.1293 21.5632L29.1293 166.376Z" fill="#CCCCCC"/>
<path d="M60.0338 177.526L48.2148 177.526L48.2149 15.0939L60.0338 15.0939L60.0338 177.526Z" fill="#CCCCCC"/>
<path d="M60.64 24.5986L47.6083 24.5986C46.0645 24.5986 44.813 23.344 44.813 21.7964C44.813 20.2489 46.0645 18.9944 47.6083 18.9944L60.64 18.9944C62.1838 18.9944 63.4354 20.2489 63.4354 21.7964C63.4354 23.344 62.1838 24.5986 60.64 24.5986Z" fill="#808080"/>
<path d="M60.64 169.388L47.6083 169.388C46.0645 169.388 44.813 168.133 44.813 166.585C44.813 165.038 46.0645 163.783 47.6083 163.783L60.64 163.783C62.1838 163.783 63.4354 165.038 63.4354 166.585C63.4354 168.133 62.1838 169.388 60.64 169.388Z" fill="#808080"/>
<path d="M63.435 166.376L44.813 166.376L44.813 21.564L63.435 21.564L63.435 166.376Z" fill="#CCCCCC"/>
<path d="M93.668 177.603L81.8491 177.603L81.8491 15.094L93.668 15.094L93.668 177.603Z" fill="#CCCCCC"/>
<path d="M94.2748 24.5989L81.2431 24.5989C79.6993 24.5989 78.4478 23.3443 78.4478 21.7967C78.4478 20.2491 79.6993 18.9947 81.2431 18.9947L94.2748 18.9947C95.8186 18.9947 97.0701 20.2491 97.0701 21.7967C97.0701 23.3443 95.8186 24.5989 94.2748 24.5989Z" fill="#808080"/>
<path d="M94.2748 169.388L81.2431 169.388C79.6993 169.388 78.4478 168.134 78.4478 166.586C78.4478 165.039 79.6993 163.784 81.2431 163.784L94.2748 163.784C95.8186 163.784 97.0701 165.039 97.0701 166.586C97.0701 168.134 95.8186 169.388 94.2748 169.388Z" fill="#808080"/>
<path d="M97.0698 166.376L78.4478 166.376L78.4478 21.564L97.0698 21.564L97.0698 166.376Z" fill="#CCCCCC"/>
<path d="M127.535 177.58L115.716 177.58L115.716 15.0937L127.535 15.0937L127.535 177.58Z" fill="#CCCCCC"/>
<path d="M128.141 24.5981L115.109 24.5981C113.566 24.5981 112.314 23.3435 112.314 21.7959C112.314 20.2484 113.566 18.9939 115.109 18.9939L128.141 18.9939C129.685 18.9939 130.936 20.2484 130.936 21.7959C130.936 23.3435 129.685 24.5981 128.141 24.5981Z" fill="#808080"/>
<path d="M128.141 169.387L115.109 169.387C113.566 169.387 112.314 168.133 112.314 166.585C112.314 165.037 113.566 163.783 115.109 163.783L128.141 163.783C129.685 163.783 130.936 165.037 130.936 166.585C130.936 168.133 129.685 169.387 128.141 169.387Z" fill="#808080"/>
<path d="M130.936 166.376L112.314 166.376L112.314 21.5632L130.936 21.5632L130.936 166.376Z" fill="#CCCCCC"/>
<path d="M162.043 177.535L150.224 177.535L150.224 15.0938L162.043 15.0938L162.043 177.535Z" fill="#CCCCCC"/>
<path d="M162.649 24.5981L149.618 24.5981C148.074 24.5981 146.822 23.3435 146.822 21.7959C146.822 20.2484 148.074 18.9939 149.618 18.9939L162.649 18.9939C164.193 18.9939 165.445 20.2484 165.445 21.7959C165.445 23.3435 164.193 24.5981 162.649 24.5981Z" fill="#808080"/>
<path d="M162.649 169.388L149.618 169.388C148.074 169.388 146.822 168.133 146.822 166.585C146.822 165.038 148.074 163.783 149.618 163.783L162.649 163.783C164.193 163.783 165.445 165.038 165.445 166.585C165.445 168.133 164.193 169.388 162.649 169.388Z" fill="#808080"/>
<path d="M165.444 166.376L146.822 166.376L146.822 21.5632L165.444 21.5632L165.444 166.376Z" fill="#CCCCCC"/>
<path d="M197.007 177.609L185.188 177.609L185.188 15.0936L197.007 15.0936L197.007 177.609Z" fill="#CCCCCC"/>
<path d="M197.614 24.5981L184.582 24.5981C183.038 24.5981 181.787 23.3435 181.787 21.7959C181.787 20.2484 183.038 18.9939 184.582 18.9939L197.614 18.9939C199.157 18.9939 200.409 20.2484 200.409 21.7959C200.409 23.3435 199.157 24.5981 197.614 24.5981Z" fill="#808080"/>
<path d="M197.614 169.388L184.582 169.388C183.038 169.388 181.787 168.133 181.787 166.585C181.787 165.038 183.038 163.783 184.582 163.783L197.614 163.783C199.157 163.783 200.409 165.038 200.409 166.585C200.409 168.133 199.157 169.388 197.614 169.388Z" fill="#808080"/>
<path d="M200.409 166.376L181.787 166.376L181.787 21.5632L200.409 21.5632L200.409 166.376Z" fill="#CCCCCC"/>
<path d="M228.929 177.552L217.11 177.552L217.11 15.0937L228.929 15.0937L228.929 177.552Z" fill="#CCCCCC"/>
<path d="M229.536 24.5981L216.504 24.5981C214.96 24.5981 213.708 23.3435 213.708 21.7959C213.708 20.2484 214.96 18.9939 216.504 18.9939L229.536 18.9939C231.079 18.9939 232.331 20.2484 232.331 21.7959C232.331 23.3435 231.079 24.5981 229.536 24.5981Z" fill="#808080"/>
<path d="M229.536 169.388L216.504 169.388C214.96 169.388 213.708 168.133 213.708 166.585C213.708 165.038 214.96 163.783 216.504 163.783L229.536 163.783C231.079 163.783 232.331 165.038 232.331 166.585C232.331 168.133 231.079 169.388 229.536 169.388Z" fill="#808080"/>
<path d="M232.331 166.376L213.708 166.376L213.709 21.5632L232.331 21.5632L232.331 166.376Z" fill="#CCCCCC"/>
<path d="M260.311 177.552L248.492 177.552L248.492 15.0937L260.311 15.0937L260.311 177.552Z" fill="#CCCCCC"/>
<path d="M260.917 24.5981L247.886 24.5981C246.342 24.5981 245.09 23.3435 245.09 21.7959C245.09 20.2484 246.342 18.9939 247.886 18.9939L260.917 18.9939C262.461 18.9939 263.713 20.2484 263.713 21.7959C263.713 23.3435 262.461 24.5981 260.917 24.5981Z" fill="#808080"/>
<path d="M260.917 169.388L247.886 169.388C246.342 169.388 245.09 168.133 245.09 166.585C245.09 165.038 246.342 163.783 247.886 163.783L260.917 163.783C262.461 163.783 263.713 165.038 263.713 166.585C263.713 168.133 262.461 169.388 260.917 169.388Z" fill="#808080"/>
<path d="M263.712 166.376L245.09 166.376L245.09 21.5632L263.712 21.5632L263.712 166.376Z" fill="#CCCCCC"/>
<path d="M291.692 177.552L279.874 177.552L279.874 15.0937L291.692 15.0937L291.692 177.552Z" fill="#CCCCCC"/>
<path d="M292.299 24.5981L279.267 24.5981C277.723 24.5981 276.472 23.3435 276.472 21.7959C276.472 20.2484 277.723 18.9939 279.267 18.9939L292.299 18.9939C293.843 18.9939 295.094 20.2484 295.094 21.7959C295.094 23.3435 293.843 24.5981 292.299 24.5981Z" fill="#808080"/>
<path d="M292.299 169.388L279.267 169.388C277.723 169.388 276.472 168.133 276.472 166.585C276.472 165.038 277.723 163.783 279.267 163.783L292.299 163.783C293.843 163.783 295.094 165.038 295.094 166.585C295.094 168.133 293.843 169.388 292.299 169.388Z" fill="#808080"/>
<path d="M295.094 166.376L276.472 166.376L276.472 21.5632L295.094 21.5632L295.094 166.376Z" fill="#CCCCCC"/>
<path d="M310.03 15.2705L0.827637 15.2705L0.827637 10.5135L310.03 10.5136L310.03 15.2705Z" fill="#CCCCCC" stroke="#808080" stroke-opacity="0.99" stroke-width="0.826115"/>
<path d="M310.03 10.5137L0.827637 10.5137L0.827637 0.999738L310.03 0.999751L310.03 10.5137Z" fill="#EEEEEE" stroke="#808080" stroke-opacity="0.99" stroke-width="0.79647"/>
<path d="M23.0345 10.7231L22.9922 8.38208C24.1 7.46591 25.232 6.5608 27.1118 8.38208L27.1118 10.7493L23.0345 10.7231Z" fill="#CCCCCC"/>
<path d="M22.9955 8.54552L22.9473 7.62018C24.0658 7.25824 25.2085 6.90034 27.1064 7.62018L27.1064 8.55566L22.9955 8.54552Z" fill="#4D4D4D"/>
<path d="M34.5394 10.7231L34.4971 8.38208C35.6049 7.46591 36.7369 6.5608 38.6167 8.38208L38.6167 10.7493L34.5394 10.7231Z" fill="#CCCCCC"/>
<path d="M34.4994 8.54552L34.4512 7.62018C35.5697 7.25824 36.7124 6.90034 38.6103 7.62018L38.6103 8.55566L34.4994 8.54552Z" fill="#4D4D4D"/>
<path d="M45.8665 10.7231L45.8242 8.38208C46.9321 7.46591 48.064 6.5608 49.9438 8.38208L49.9438 10.7493L45.8665 10.7231Z" fill="#CCCCCC"/>
<path d="M45.827 8.54552L45.7788 7.62018C46.8973 7.25824 48.0401 6.90034 49.938 7.62018L49.938 8.55566L45.827 8.54552Z" fill="#4D4D4D"/>
<path d="M57.2933 10.7231L57.251 8.38208C58.3588 7.46591 59.4908 6.5608 61.3706 8.38208L61.3706 10.7493L57.2933 10.7231Z" fill="#CCCCCC"/>
<path d="M57.2533 8.54552L57.2051 7.62018C58.3236 7.25824 59.4663 6.90034 61.3642 7.62018L61.3642 8.55566L57.2533 8.54552Z" fill="#4D4D4D"/>
<path d="M68.4163 10.7231L68.374 8.38208C69.4819 7.46591 70.6138 6.5608 72.4936 8.38208L72.4936 10.7493L68.4163 10.7231Z" fill="#CCCCCC"/>
<path d="M68.3763 8.54552L68.3281 7.62018C69.4466 7.25824 70.5894 6.90034 72.4873 7.62018L72.4873 8.55566L68.3763 8.54552Z" fill="#4D4D4D"/>
<path d="M79.7005 10.7231L79.6582 8.38208C80.766 7.46591 81.898 6.5608 83.7778 8.38208L83.7778 10.7493L79.7005 10.7231Z" fill="#CCCCCC"/>
<path d="M79.6605 8.54552L79.6123 7.62018C80.7308 7.25824 81.8736 6.90034 83.7715 7.62018L83.7715 8.55566L79.6605 8.54552Z" fill="#4D4D4D"/>
<path d="M91.2039 10.7231L91.1616 8.38208C92.2695 7.46591 93.4014 6.5608 95.2812 8.38208L95.2812 10.7493L91.2039 10.7231Z" fill="#CCCCCC"/>
<path d="M91.1644 8.54552L91.1162 7.62018C92.2347 7.25824 93.3775 6.90034 95.2754 7.62018L95.2754 8.55566L91.1644 8.54552Z" fill="#4D4D4D"/>
<path d="M102.532 10.7231L102.489 8.38208C103.597 7.46591 104.729 6.5608 106.609 8.38208L106.609 10.7493L102.532 10.7231Z" fill="#CCCCCC"/>
<path d="M102.492 8.54552L102.443 7.62018C103.562 7.25824 104.705 6.90034 106.603 7.62018L106.603 8.55566L102.492 8.54552Z" fill="#4D4D4D"/>
<path d="M113.96 10.7231L113.917 8.38208C115.025 7.46591 116.157 6.5608 118.037 8.38208L118.037 10.7493L113.96 10.7231Z" fill="#CCCCCC"/>
<path d="M113.92 8.54552L113.872 7.62018C114.99 7.25824 116.133 6.90034 118.031 7.62018L118.031 8.55566L113.92 8.54552Z" fill="#4D4D4D"/>
<path d="M125.083 10.7231L125.041 8.38208C126.148 7.46591 127.28 6.5608 129.16 8.38208L129.16 10.7493L125.083 10.7231Z" fill="#CCCCCC"/>
<path d="M125.043 8.54552L124.995 7.62018C126.113 7.25824 127.256 6.90034 129.154 7.62018L129.154 8.55566L125.043 8.54552Z" fill="#4D4D4D"/>
<path d="M136.897 10.7231L136.855 8.38208C137.963 7.46591 139.095 6.5608 140.975 8.38208L140.975 10.7493L136.897 10.7231Z" fill="#CCCCCC"/>
<path d="M136.857 8.54552L136.809 7.62018C137.928 7.25824 139.07 6.90034 140.968 7.62018L140.968 8.55566L136.857 8.54552Z" fill="#4D4D4D"/>
<path d="M148.325 10.7231L148.283 8.38208C149.391 7.46591 150.523 6.5608 152.402 8.38208L152.402 10.7493L148.325 10.7231Z" fill="#CCCCCC"/>
<path d="M148.285 8.54552L148.237 7.62018C149.355 7.25824 150.498 6.90034 152.396 7.62018L152.396 8.55566L148.285 8.54552Z" fill="#4D4D4D"/>
<path d="M159.448 10.7231L159.405 8.38208C160.513 7.46591 161.645 6.5608 163.525 8.38208L163.525 10.7493L159.448 10.7231Z" fill="#CCCCCC"/>
<path d="M159.408 8.54552L159.359 7.62018C160.478 7.25824 161.621 6.90034 163.519 7.62018L163.519 8.55566L159.408 8.54552Z" fill="#4D4D4D"/>
<path d="M193.554 10.7231L193.511 8.38208C194.619 7.46591 195.751 6.5608 197.631 8.38208L197.631 10.7493L193.554 10.7231Z" fill="#CCCCCC"/>
<path d="M193.514 8.54552L193.465 7.62018C194.584 7.25824 195.727 6.90034 197.624 7.62018L197.624 8.55566L193.514 8.54552Z" fill="#4D4D4D"/>
<path d="M204.981 10.7231L204.939 8.38208C206.047 7.46591 207.179 6.5608 209.059 8.38208L209.059 10.7493L204.981 10.7231Z" fill="#CCCCCC"/>
<path d="M204.941 8.54552L204.893 7.62018C206.012 7.25824 207.154 6.90034 209.052 7.62018L209.052 8.55566L204.941 8.54552Z" fill="#4D4D4D"/>
<path d="M216.104 10.7231L216.062 8.38208C217.169 7.46591 218.301 6.5608 220.181 8.38208L220.181 10.7493L216.104 10.7231Z" fill="#CCCCCC"/>
<path d="M216.064 8.54552L216.016 7.62018C217.135 7.25824 218.277 6.90034 220.175 7.62018L220.175 8.55566L216.064 8.54552Z" fill="#4D4D4D"/>
<path d="M227.918 10.7231L227.875 8.38208C228.983 7.46591 230.115 6.5608 231.995 8.38208L231.995 10.7493L227.918 10.7231Z" fill="#CCCCCC"/>
<path d="M227.879 8.54552L227.831 7.62018C228.949 7.25824 230.092 6.90034 231.99 7.62018L231.99 8.55566L227.879 8.54552Z" fill="#4D4D4D"/>
<path d="M239.346 10.7231L239.304 8.38208C240.412 7.46591 241.544 6.5608 243.423 8.38208L243.423 10.7493L239.346 10.7231Z" fill="#CCCCCC"/>
<path d="M239.306 8.54552L239.258 7.62018C240.376 7.25824 241.519 6.90034 243.417 7.62018L243.417 8.55566L239.306 8.54552Z" fill="#4D4D4D"/>
<path d="M187.122 12.3718L168.756 12.3718L168.756 1.59233L187.122 1.59233L187.122 12.3718Z" fill="#CCCCCC"/>
<path d="M54.4814 11.074L54.4814 7.11446C53.819 4.92585 51.9394 4.49977 49.6615 4.65083L16.3615 7.88895C14.0456 8.05815 13.0702 9.08756 13.3005 10.8822L54.4814 11.074Z" fill="#CCCCCC"/>
<path d="M249.223 10.7573L249.181 8.41626C250.289 7.50009 251.421 6.59498 253.301 8.41626L253.301 10.7834L249.223 10.7573Z" fill="#CCCCCC"/>
<path d="M249.183 8.5797L249.135 7.65436C250.254 7.29242 251.397 6.93452 253.294 7.65436L253.294 8.58984L249.183 8.5797Z" fill="#4D4D4D"/>
<path d="M260.652 10.7573L260.609 8.41626C261.717 7.50009 262.849 6.59498 264.729 8.41626L264.729 10.7834L260.652 10.7573Z" fill="#CCCCCC"/>
<path d="M260.612 8.5797L260.563 7.65436C261.682 7.29242 262.825 6.93452 264.723 7.65436L264.723 8.58984L260.612 8.5797Z" fill="#4D4D4D"/>
<path d="M271.774 10.7573L271.731 8.41626C272.839 7.50009 273.971 6.59498 275.851 8.41626L275.851 10.7834L271.774 10.7573Z" fill="#CCCCCC"/>
<path d="M271.734 8.5797L271.686 7.65436C272.804 7.29242 273.947 6.93452 275.845 7.65436L275.845 8.58984L271.734 8.5797Z" fill="#4D4D4D"/>
<path d="M283.589 10.7573L283.547 8.41626C284.655 7.50009 285.787 6.59498 287.666 8.41626L287.666 10.7834L283.589 10.7573Z" fill="#CCCCCC"/>
<path d="M283.549 8.5797L283.501 7.65436C284.619 7.29242 285.762 6.93452 287.66 7.65436L287.66 8.58984L283.549 8.5797Z" fill="#4D4D4D"/>
<path d="M295.016 10.7573L294.974 8.41626C296.081 7.50009 297.213 6.59498 299.093 8.41626L299.093 10.7834L295.016 10.7573Z" fill="#CCCCCC"/>
<path d="M294.976 8.5797L294.928 7.65436C296.046 7.29242 297.189 6.93452 299.087 7.65436L299.087 8.58984L294.976 8.5797Z" fill="#4D4D4D"/>
<path d="M310.03 177.008L0.827637 177.008L0.827636 184.143L310.03 184.143L310.03 177.008Z" fill="#CCCCCC" stroke="#808080" stroke-opacity="0.99" stroke-width="0.826115"/>
<path d="M310.03 184.143L0.827637 184.143L0.827636 193.657L310.03 193.657L310.03 184.143Z" fill="#EEEEEE" stroke="#808080" stroke-opacity="0.99" stroke-width="0.79647"/>
<path d="M23.0223 183.46L22.98 185.801C24.0878 186.717 25.2198 187.622 27.0996 185.801L27.0996 183.434L23.0223 183.46Z" fill="#CCCCCC"/>
<path d="M22.9828 185.638L22.9346 186.563C24.0531 186.925 25.1958 187.283 27.0937 186.563L27.0937 185.628L22.9828 185.638Z" fill="#4D4D4D"/>
<path d="M34.5267 183.46L34.4844 185.801C35.5922 186.717 36.7242 187.622 38.604 185.801L38.604 183.434L34.5267 183.46Z" fill="#CCCCCC"/>
<path d="M34.4867 185.638L34.4385 186.563C35.557 186.925 36.6997 187.283 38.5976 186.563L38.5976 185.628L34.4867 185.638Z" fill="#4D4D4D"/>
<path d="M45.8538 183.46L45.8115 185.801C46.9194 186.717 48.0513 187.622 49.9311 185.801L49.9311 183.434L45.8538 183.46Z" fill="#CCCCCC"/>
<path d="M45.8138 185.638L45.7656 186.563C46.8841 186.925 48.0269 187.283 49.9248 186.563L49.9248 185.628L45.8138 185.638Z" fill="#4D4D4D"/>
<path d="M57.2806 183.46L57.2383 185.801C58.3461 186.717 59.4781 187.622 61.3579 185.801L61.3579 183.434L57.2806 183.46Z" fill="#CCCCCC"/>
<path d="M57.2411 185.638L57.1929 186.563C58.3114 186.925 59.4541 187.283 61.352 186.563L61.352 185.628L57.2411 185.638Z" fill="#4D4D4D"/>
<path d="M68.4041 183.46L68.3618 185.801C69.4697 186.717 70.6016 187.622 72.4814 185.801L72.4814 183.434L68.4041 183.46Z" fill="#CCCCCC"/>
<path d="M68.3641 185.638L68.3159 186.563C69.4344 186.925 70.5772 187.283 72.4751 186.563L72.4751 185.628L68.3641 185.638Z" fill="#4D4D4D"/>
<path d="M79.6878 183.46L79.6455 185.801C80.7533 186.717 81.8853 187.622 83.7651 185.801L83.7651 183.434L79.6878 183.46Z" fill="#CCCCCC"/>
<path d="M79.6478 185.638L79.5996 186.563C80.7181 186.925 81.8609 187.283 83.7588 186.563L83.7588 185.628L79.6478 185.638Z" fill="#4D4D4D"/>
<path d="M91.1912 183.46L91.1489 185.801C92.2568 186.717 93.3887 187.622 95.2685 185.801L95.2685 183.434L91.1912 183.46Z" fill="#CCCCCC"/>
<path d="M91.1517 185.638L91.1035 186.563C92.222 186.925 93.3648 187.283 95.2627 186.563L95.2627 185.628L91.1517 185.638Z" fill="#4D4D4D"/>
<path d="M102.519 183.46L102.477 185.801C103.584 186.717 104.716 187.622 106.596 185.801L106.596 183.434L102.519 183.46Z" fill="#CCCCCC"/>
<path d="M102.479 185.638L102.431 186.563C103.55 186.925 104.692 187.283 106.59 186.563L106.59 185.628L102.479 185.638Z" fill="#4D4D4D"/>
<path d="M113.947 183.46L113.904 185.801C115.012 186.717 116.144 187.622 118.024 185.801L118.024 183.434L113.947 183.46Z" fill="#CCCCCC"/>
<path d="M113.907 185.638L113.858 186.563C114.977 186.925 116.12 187.283 118.018 186.563L118.018 185.628L113.907 185.638Z" fill="#4D4D4D"/>
<path d="M125.07 183.46L125.027 185.801C126.135 186.717 127.267 187.622 129.147 185.801L129.147 183.434L125.07 183.46Z" fill="#CCCCCC"/>
<path d="M125.03 185.638L124.981 186.563C126.1 186.925 127.243 187.283 129.141 186.563L129.141 185.628L125.03 185.638Z" fill="#4D4D4D"/>
<path d="M136.885 183.46L136.842 185.801C137.95 186.717 139.082 187.622 140.962 185.801L140.962 183.434L136.885 183.46Z" fill="#CCCCCC"/>
<path d="M136.845 185.638L136.796 186.563C137.915 186.925 139.058 187.283 140.956 186.563L140.956 185.628L136.845 185.638Z" fill="#4D4D4D"/>
<path d="M148.312 183.46L148.27 185.801C149.378 186.717 150.51 187.622 152.39 185.801L152.39 183.434L148.312 183.46Z" fill="#CCCCCC"/>
<path d="M148.272 185.638L148.224 186.563C149.343 186.925 150.485 187.283 152.383 186.563L152.383 185.628L148.272 185.638Z" fill="#4D4D4D"/>
<path d="M159.435 183.46L159.393 185.801C160.5 186.717 161.632 187.622 163.512 185.801L163.512 183.434L159.435 183.46Z" fill="#CCCCCC"/>
<path d="M159.395 185.638L159.347 186.563C160.465 186.925 161.608 187.283 163.506 186.563L163.506 185.628L159.395 185.638Z" fill="#4D4D4D"/>
<path d="M193.541 183.46L193.499 185.801C194.606 186.717 195.738 187.622 197.618 185.801L197.618 183.434L193.541 183.46Z" fill="#CCCCCC"/>
<path d="M193.501 185.638L193.453 186.563C194.571 186.925 195.714 187.283 197.612 186.563L197.612 185.628L193.501 185.638Z" fill="#4D4D4D"/>
<path d="M204.969 183.46L204.926 185.801C206.034 186.717 207.166 187.622 209.046 185.801L209.046 183.434L204.969 183.46Z" fill="#CCCCCC"/>
<path d="M204.929 185.638L204.88 186.563C205.999 186.925 207.142 187.283 209.04 186.563L209.04 185.628L204.929 185.638Z" fill="#4D4D4D"/>
<path d="M216.091 183.46L216.049 185.801C217.157 186.717 218.289 187.622 220.168 185.801L220.168 183.434L216.091 183.46Z" fill="#CCCCCC"/>
<path d="M216.052 185.638L216.003 186.563C217.122 186.925 218.265 187.283 220.163 186.563L220.163 185.628L216.052 185.638Z" fill="#4D4D4D"/>
<path d="M227.906 183.46L227.863 185.801C228.971 186.717 230.103 187.622 231.983 185.801L231.983 183.434L227.906 183.46Z" fill="#CCCCCC"/>
<path d="M227.866 185.638L227.818 186.563C228.936 186.925 230.079 187.283 231.977 186.563L231.977 185.628L227.866 185.638Z" fill="#4D4D4D"/>
<path d="M239.333 183.46L239.291 185.801C240.399 186.717 241.531 187.622 243.411 185.801L243.411 183.434L239.333 183.46Z" fill="#CCCCCC"/>
<path d="M239.293 185.638L239.245 186.563C240.364 186.925 241.506 187.283 243.404 186.563L243.404 185.628L239.293 185.638Z" fill="#4D4D4D"/>
<path d="M187.109 181.81L168.744 181.81L168.744 192.59L187.109 192.59L187.109 181.81Z" fill="#CCCCCC"/>
<path d="M52.0898 183.109L52.0898 187.069C51.4274 189.257 49.5478 189.684 47.2699 189.533L13.9699 186.294C11.654 186.125 10.6786 185.096 10.9089 183.301L52.0898 183.109Z" fill="#CCCCCC"/>
<path d="M249.211 183.424L249.168 185.765C250.276 186.681 251.408 187.586 253.288 185.765L253.288 183.398L249.211 183.424Z" fill="#CCCCCC"/>
<path d="M249.171 185.602L249.123 186.527C250.241 186.889 251.384 187.247 253.282 186.527L253.282 185.592L249.171 185.602Z" fill="#4D4D4D"/>
<path d="M260.639 183.424L260.596 185.765C261.704 186.681 262.836 187.586 264.716 185.765L264.716 183.398L260.639 183.424Z" fill="#CCCCCC"/>
<path d="M260.598 185.602L260.55 186.527C261.669 186.889 262.812 187.247 264.709 186.527L264.709 185.592L260.598 185.602Z" fill="#4D4D4D"/>
<path d="M271.761 183.424L271.719 185.765C272.827 186.681 273.959 187.586 275.838 185.765L275.838 183.398L271.761 183.424Z" fill="#CCCCCC"/>
<path d="M271.721 185.602L271.673 186.527C272.791 186.889 273.934 187.247 275.832 186.527L275.832 185.592L271.721 185.602Z" fill="#4D4D4D"/>
<path d="M283.576 183.424L283.534 185.765C284.642 186.681 285.774 187.586 287.654 185.765L287.654 183.398L283.576 183.424Z" fill="#CCCCCC"/>
<path d="M283.536 185.602L283.488 186.527C284.607 186.889 285.75 187.247 287.647 186.527L287.647 185.592L283.536 185.602Z" fill="#4D4D4D"/>
<path d="M295.003 183.424L294.961 185.765C296.069 186.681 297.201 187.586 299.081 185.765L299.081 183.398L295.003 183.424Z" fill="#CCCCCC"/>
<path d="M294.963 185.602L294.915 186.527C296.034 186.889 297.176 187.247 299.074 186.527L299.074 185.592L294.963 185.602Z" fill="#4D4D4D"/>
</svg>
