<svg width="34" height="34" viewBox="0 0 34 34" fill="none" xmlns="http://www.w3.org/2000/svg">
<path d="M21.1172 1L27.0199 1L27.0199 31.9075L25.4403 31.9075C23.4894 32.1558 22.7338 32.4678 22.3226 33L21.1172 33L21.1172 1Z" stroke="white"/>
<path d="M22.125 1L26.086 1L26.086 3.43809L22.125 3.43809L22.125 1Z" stroke="white"/>
<path d="M24.6875 1.51172L25.0758 1.51172L25.0758 2.01966L24.6875 2.01966L24.6875 1.51172Z" stroke="white"/>
<path d="M23.9922 1.51172L24.3805 1.51172L24.3805 2.01966L23.9922 2.01966L23.9922 1.51172Z" stroke="white"/>
<path d="M23.2891 1.51172L23.7551 1.51172L23.7551 2.01966L23.2891 2.01966L23.2891 1.51172Z" stroke="white"/>
<path d="M21.7383 5.07421L22.0712 5.07421L22.0712 5.73165L21.7383 5.73165L21.7383 5.07421ZM26.0654 5.07421L26.3983 5.07421L26.3983 5.73165L26.0654 5.73165L26.0654 5.07421ZM22.4873 4.96484L25.6493 4.96484L25.6493 6.06017L22.4873 6.06017L22.4873 4.96484ZM21.7383 6.27889L22.0712 6.27889L22.0712 6.93634L21.7383 6.93634L21.7383 6.27889ZM26.0654 6.27889L26.3983 6.27889L26.3983 6.93634L26.0654 6.93634L26.0654 6.27889ZM22.4873 6.16953L25.6493 6.16953L25.6493 7.26485L22.4873 7.26485L22.4873 6.16953ZM21.7383 7.484L22.0712 7.484L22.0712 8.14144L21.7383 8.14144L21.7383 7.484ZM26.0654 7.484L26.3983 7.484L26.3983 8.14144L26.0654 8.14144L26.0654 7.484ZM22.4873 7.37463L25.6493 7.37463L25.6493 8.46996L22.4873 8.46996L22.4873 7.37463ZM21.7383 8.6891L22.0712 8.6891L22.0712 9.34655L21.7383 9.34655L21.7383 8.6891ZM26.0654 8.6891L26.3983 8.6891L26.3983 9.34655L26.0654 9.34655L26.0654 8.6891ZM22.4873 8.57932L25.6493 8.57932L25.6493 9.67464L22.4873 9.67464L22.4873 8.57932ZM21.7383 9.89379L22.0712 9.89379L22.0712 10.5512L21.7383 10.5512L21.7383 9.89379ZM26.0654 9.89379L26.3983 9.89379L26.3983 10.5512L26.0654 10.5512L26.0654 9.89379ZM22.4873 9.78443L25.6493 9.78443L25.6493 10.8797L22.4873 10.8797L22.4873 9.78443ZM21.7383 11.0989L22.0712 11.0989L22.0712 11.7563L21.7383 11.7563L21.7383 11.0989ZM26.0654 11.0989L26.3983 11.0989L26.3983 11.7563L26.0654 11.7563L26.0654 11.0989ZM22.4873 10.9891L25.6493 10.9891L25.6493 12.0844L22.4873 12.0844L22.4873 10.9891ZM21.7383 12.3036L22.0712 12.3036L22.0712 12.961L21.7383 12.961L21.7383 12.3036ZM26.0654 12.3036L26.3983 12.3036L26.3983 12.961L26.0654 12.961L26.0654 12.3036ZM22.4873 12.1942L25.6493 12.1942L25.6493 13.2895L22.4873 13.2895L22.4873 12.1942ZM21.7383 13.5087L22.0712 13.5087L22.0712 14.1661L21.7383 14.1661L21.7383 13.5087ZM26.0654 13.5087L26.3983 13.5087L26.3983 14.1661L26.0654 14.1661L26.0654 13.5087ZM22.4873 13.3993L25.6493 13.3993L25.6493 14.4946L22.4873 14.4946L22.4873 13.3993ZM21.7383 14.7138L22.0712 14.7138L22.0712 15.3712L21.7383 15.3712L21.7383 14.7138ZM26.0654 14.7138L26.3983 14.7138L26.3983 15.3712L26.0654 15.3712L26.0654 14.7138ZM22.4873 14.604L25.6493 14.604L25.6493 15.6993L22.4873 15.6993L22.4873 14.604ZM21.7383 15.9185L22.0712 15.9185L22.0712 16.5759L21.7383 16.5759L21.7383 15.9185ZM26.0654 15.9185L26.3983 15.9185L26.3983 16.5759L26.0654 16.5759L26.0654 15.9185ZM22.4873 15.8091L25.6493 15.8091L25.6493 16.9044L22.4873 16.9044L22.4873 15.8091ZM21.7383 17.1236L22.0712 17.1236L22.0712 17.781L21.7383 17.781L21.7383 17.1236ZM26.0654 17.1236L26.3983 17.1236L26.3983 17.781L26.0654 17.781L26.0654 17.1236ZM22.4873 17.0138L25.6493 17.0138L25.6493 18.1091L22.4873 18.1091L22.4873 17.0138ZM21.7383 18.3283L22.0712 18.3283L22.0712 18.9857L21.7383 18.9857L21.7383 18.3283ZM26.0654 18.3283L26.3983 18.3283L26.3983 18.9857L26.0654 18.9857L26.0654 18.3283ZM22.4873 18.2189L25.6493 18.2189L25.6493 19.3142L22.4873 19.3142L22.4873 18.2189ZM21.7383 19.5334L22.0712 19.5334L22.0712 20.1908L21.7383 20.1908L21.7383 19.5334ZM26.0654 19.5334L26.3983 19.5334L26.3983 20.1908L26.0654 20.1908L26.0654 19.5334ZM22.4873 19.424L25.6493 19.424L25.6493 20.5193L22.4873 20.5193L22.4873 19.424ZM21.7383 20.7381L22.0712 20.7381L22.0712 21.3955L21.7383 21.3955L21.7383 20.7381ZM26.0654 20.7381L26.3983 20.7381L26.3983 21.3955L26.0654 21.3955L26.0654 20.7381ZM22.4873 20.6287L25.6493 20.6287L25.6493 21.724L22.4873 21.724L22.4873 20.6287ZM21.7383 21.9432L22.0712 21.9432L22.0712 22.6006L21.7383 22.6006L21.7383 21.9432ZM26.0654 21.9432L26.3983 21.9432L26.3983 22.6006L26.0654 22.6006L26.0654 21.9432ZM22.4873 21.8338L25.6493 21.8338L25.6493 22.9291L22.4873 22.9291L22.4873 21.8338ZM21.7383 23.1483L22.0712 23.1483L22.0712 23.8057L21.7383 23.8057L21.7383 23.1483ZM26.0654 23.1483L26.3983 23.1483L26.3983 23.8057L26.0654 23.8057L26.0654 23.1483ZM22.4873 23.0385L25.6493 23.0385L25.6493 24.1338L22.4873 24.1338L22.4873 23.0385ZM21.7383 24.353L22.0712 24.353L22.0712 25.0104L21.7383 25.0104L21.7383 24.353ZM26.0654 24.353L26.3983 24.353L26.3983 25.0104L26.0654 25.0104L26.0654 24.353ZM22.4873 24.2436L25.6493 24.2436L25.6493 25.3389L22.4873 25.3389L22.4873 24.2436ZM21.7383 25.5581L22.0712 25.5581L22.0712 26.2155L21.7383 26.2155L21.7383 25.5581ZM26.0654 25.5581L26.3983 25.5581L26.3983 26.2155L26.0654 26.2155L26.0654 25.5581ZM22.4873 25.4483L25.6493 25.4483L25.6493 26.5436L22.4873 26.5436L22.4873 25.4483ZM21.7383 26.7627L22.0712 26.7627L22.0712 27.4202L21.7383 27.4202L21.7383 26.7627ZM26.0654 26.7627L26.3983 26.7627L26.3983 27.4202L26.0654 27.4202L26.0654 26.7627ZM22.4873 26.6534L25.6493 26.6534L25.6493 27.7487L22.4873 27.7487L22.4873 26.6534ZM21.7383 27.9679L22.0712 27.9679L22.0712 28.6253L21.7383 28.6253L21.7383 27.9679ZM26.0654 27.9679L26.3983 27.9679L26.3983 28.6253L26.0654 28.6253L26.0654 27.9679ZM22.4873 27.8585L25.6493 27.8585L25.6493 28.9538L22.4873 28.9538L22.4873 27.8585ZM21.7383 29.173L22.0712 29.173L22.0712 29.8304L21.7383 29.8304L21.7383 29.173ZM26.0654 29.173L26.3983 29.173L26.3983 29.8304L26.0654 29.8304L26.0654 29.173ZM22.4873 29.0632L25.6493 29.0632L25.6493 30.1585L22.4873 30.1585L22.4873 29.0632Z" stroke="white"/>
<path d="M27.0195 1L32.9999 1L32.9999 31.9075L31.3995 31.9075C29.4228 32.1558 28.6572 32.4678 28.2406 33L27.0195 33L27.0195 1Z" stroke="white"/>
<path d="M27.875 1L31.9914 1L31.9914 3.43809L27.875 3.43809L27.875 1Z" stroke="white"/>
<path d="M29.8906 1.51172L30.279 1.51172L30.279 2.01966L29.8906 2.01966L29.8906 1.51172Z" stroke="white"/>
<path d="M29.1953 1.51172L29.6613 1.51172L29.6613 2.01966L29.1953 2.01966L29.1953 1.51172Z" stroke="white"/>
<path d="M30.5156 1.51172L30.904 1.51172L30.904 2.01966L30.5156 2.01966L30.5156 1.51172Z" stroke="white"/>
<path d="M11.4844 1L21.1151 1L21.1151 33L11.4844 33L11.4844 1Z" stroke="white"/>
<path d="M12.1836 1.41016L17.3096 1.41016L17.3096 3.74666L12.1836 3.74666L12.1836 1.41016Z" stroke="white"/>
<path d="M13.5078 1.8125L14.0515 1.8125L14.0515 2.52361L13.5078 2.52361L13.5078 1.8125Z" stroke="white"/>
<path d="M14.2812 1.8125L14.8249 1.8125L14.8249 2.52361L14.2812 2.52361L14.2812 1.8125Z" stroke="white"/>
<path d="M15.0586 1.8125L15.6023 1.8125L15.6023 2.52361L15.0586 2.52361L15.0586 1.8125Z" stroke="white"/>
<path d="M12.3398 5.06641L20.3396 5.06641L20.3396 20.2029L12.3398 20.2029L12.3398 5.06641Z" stroke="white"/>
<path d="M19.4227 7.60156L13.3348 7.60156C13.1715 7.60156 13.0391 7.77089 13.0391 7.97977L13.0391 19.0075C13.0391 19.2164 13.1715 19.3857 13.3348 19.3857L19.4227 19.3857C19.586 19.3857 19.7185 19.2164 19.7185 19.0075L19.7185 7.97977C19.7185 7.77089 19.586 7.60156 19.4227 7.60156Z" stroke="white"/>
<path d="M15.3399 22.5138C15.3546 22.2544 15.4281 22.151 15.6366 22.0273L16.6957 22.0273C16.9176 22.2241 16.9478 22.3291 16.9498 22.5138L16.9498 25.2705L18.9833 25.2705C19.197 25.2788 19.3093 25.3597 19.4069 25.6486L19.4069 26.9458C19.3057 27.2284 19.2191 27.2994 19.0256 27.3243L16.9498 27.3243L16.9498 30.0805C16.885 30.2893 16.8235 30.3773 16.6534 30.4591L15.6366 30.4591C15.4772 30.3802 15.4121 30.298 15.3399 30.0809L15.3399 27.3239L13.1795 27.3239C12.9794 27.216 12.9108 27.1155 12.8828 26.8374L12.8828 25.7565C12.9098 25.4909 12.9648 25.3788 13.1795 25.27L15.3399 25.27L15.3399 22.5138Z" stroke="white"/>
<path d="M16.1685 22.7422L15.8011 23.6629L16.4952 23.6629L16.1685 22.7422ZM16.1685 29.7274L15.8011 28.8071L16.4952 28.8071L16.1685 29.7274ZM18.8627 26.3161L18.169 26.8035L18.169 25.8832L18.8627 26.3161ZM13.4336 26.3161L14.1277 26.8035L14.1277 25.8832L13.4336 26.3161ZM13.2226 30.335L13.2226 30.451L12.884 30.451L12.884 30.335L13.2226 30.335ZM12.915 29.6039L12.915 30.451L12.8047 30.451L12.8047 29.6039L12.915 29.6039ZM13.1784 29.9574L13.1784 30.0718L12.8837 30.0718L12.8837 29.9578L13.1784 29.9574ZM13.2207 29.6039L13.2207 29.7204L12.8837 29.7204L12.8837 29.6039L13.2207 29.6039ZM13.6486 30.2327C13.6488 30.2168 13.6467 30.201 13.6424 30.1861C13.638 30.1715 13.6309 30.1586 13.6217 30.1487C13.6089 30.1353 13.5948 30.1243 13.5797 30.1163C13.5574 30.1032 13.5346 30.0921 13.5113 30.083C13.4826 30.0715 13.4545 30.0578 13.427 30.0418C13.4033 30.0277 13.381 30.0098 13.3605 29.9886C13.3414 29.9698 13.3259 29.9452 13.3155 29.9168C13.305 29.8884 13.2998 29.8571 13.3003 29.8256C13.3001 29.793 13.3056 29.7608 13.3166 29.7317C13.3276 29.7026 13.3436 29.6773 13.3633 29.658C13.3851 29.6362 13.4096 29.6198 13.4358 29.6097C13.4656 29.5977 13.4967 29.5918 13.5279 29.5923C13.5753 29.5923 13.616 29.6039 13.6502 29.6272C13.6847 29.6505 13.7113 29.6817 13.7295 29.7208C13.7483 29.7603 13.7577 29.8035 13.7577 29.8505L13.6486 29.8505C13.6489 29.8248 13.6442 29.7994 13.6348 29.7769C13.6257 29.7548 13.6117 29.7369 13.5947 29.7258C13.5735 29.7123 13.5502 29.7059 13.5267 29.7071C13.5044 29.7061 13.4823 29.7115 13.4618 29.7229C13.4461 29.7317 13.4327 29.7464 13.4232 29.7653C13.4148 29.7834 13.4104 29.8043 13.4107 29.8256C13.4105 29.8408 13.4133 29.8559 13.4188 29.8692C13.4242 29.8817 13.4326 29.8942 13.4439 29.9054C13.4574 29.9178 13.4719 29.9281 13.4872 29.9362C13.5044 29.9458 13.5248 29.9553 13.548 29.9641C13.5834 29.9782 13.6145 29.9936 13.6405 30.0106C13.6668 30.0273 13.6888 30.0464 13.7063 30.0676C13.7236 30.0882 13.7373 30.1136 13.7464 30.142C13.7555 30.1704 13.7598 30.201 13.759 30.2319C13.7593 30.2653 13.7537 30.2983 13.7427 30.3283C13.7316 30.3569 13.7157 30.3817 13.6963 30.4007C13.6746 30.4218 13.6501 30.4374 13.6242 30.4469C13.5939 30.4578 13.5627 30.4631 13.5314 30.4627C13.5006 30.4626 13.4701 30.457 13.4405 30.446C13.4117 30.4357 13.3845 30.4192 13.3599 30.397C13.335 30.3749 13.3146 30.3448 13.3008 30.3096C13.2869 30.2743 13.28 30.235 13.2806 30.1953L13.3906 30.1953C13.3901 30.2195 13.3937 30.2435 13.4013 30.2656C13.4083 30.2844 13.4186 30.3006 13.4314 30.313C13.4442 30.3254 13.4593 30.3338 13.4762 30.34C13.5158 30.3525 13.5572 30.3505 13.596 30.3342C13.6119 30.3262 13.6257 30.312 13.6355 30.2934C13.6444 30.2754 13.649 30.2542 13.6486 30.2327ZM14.2336 30.1753L14.3433 30.1753C14.3405 30.2278 14.3284 30.2787 14.3079 30.3238C14.2876 30.3672 14.2586 30.4023 14.2242 30.4252C14.1834 30.4515 14.1385 30.4644 14.0932 30.4627C14.0566 30.4635 14.0202 30.454 13.9866 30.4348C13.9554 30.4163 13.9277 30.3889 13.9054 30.3545C13.882 30.3174 13.8644 30.2744 13.8537 30.2281C13.8415 30.1746 13.8356 30.1189 13.8361 30.063L13.8361 29.9923C13.8361 29.9316 13.8424 29.8767 13.8543 29.8272C13.8654 29.781 13.8833 29.7382 13.9069 29.7012C13.9292 29.6663 13.9572 29.6386 13.9888 29.6201C14.0231 29.601 14.06 29.5915 14.0972 29.5923C14.148 29.5923 14.191 29.6047 14.2258 29.6297C14.2612 29.6546 14.2885 29.6888 14.3073 29.7324C14.3276 29.7786 14.34 29.8301 14.3437 29.8834L14.2339 29.8834C14.2318 29.8509 14.2252 29.8192 14.2145 29.7898C14.2053 29.7644 14.1903 29.7436 14.1715 29.7303C14.1485 29.7152 14.1229 29.7081 14.0972 29.7095C14.0722 29.7095 14.0502 29.7154 14.0314 29.7278C14.0125 29.7405 13.9963 29.7594 13.9844 29.7827C13.9709 29.8098 13.9614 29.84 13.9562 29.8717C13.9499 29.9067 13.9468 29.9466 13.9468 29.9915L13.9468 30.063C13.9468 30.1054 13.9496 30.1445 13.9549 30.1795C13.9598 30.2109 13.9687 30.241 13.9812 30.2685C13.9931 30.2934 14.0097 30.3137 14.0293 30.3274C14.049 30.341 14.071 30.3475 14.0932 30.3462C14.1245 30.3462 14.1496 30.3396 14.169 30.3267C14.188 30.3142 14.2035 30.2939 14.2132 30.2689C14.2244 30.2396 14.2313 30.2079 14.2336 30.1753Z" stroke="white"/>
<path d="M12.3398 28.9375L12.3398 31.1724L14.5922 31.1724" stroke="white"/>
<path d="M18.9371 30.0292L18.9371 30.0723C18.9371 30.1321 18.9308 30.1857 18.918 30.2334C18.9066 30.2777 18.8879 30.3188 18.8632 30.3542C18.8401 30.3873 18.8111 30.4135 18.7784 30.431C18.7437 30.4488 18.7064 30.4576 18.6688 30.457C18.6321 30.4587 18.5957 30.4503 18.562 30.4326C18.5284 30.4149 18.4984 30.3882 18.4743 30.3545C18.4492 30.3189 18.4302 30.2776 18.4182 30.233C18.4046 30.1812 18.3979 30.1271 18.3985 30.0727L18.3985 30.0292C18.3985 29.9695 18.4048 29.9159 18.4182 29.8689C18.4299 29.8245 18.4486 29.7834 18.4734 29.7478C18.4967 29.7149 18.5258 29.6887 18.5585 29.6713C18.593 29.6532 18.6302 29.644 18.6678 29.6446C18.708 29.6446 18.7443 29.6535 18.7774 29.6713C18.8103 29.6885 18.8394 29.7147 18.8625 29.7478C18.8873 29.7833 18.906 29.8245 18.9174 29.8689C18.9304 29.9159 18.9371 29.9695 18.9371 30.0292ZM18.8253 30.0723L18.8253 30.0281C18.8253 29.9838 18.8218 29.945 18.8144 29.9116C18.8089 29.881 18.7985 29.852 18.7838 29.8262C18.7712 29.8038 18.7541 29.7858 18.7341 29.7738C18.7135 29.7616 18.6907 29.7555 18.6678 29.756C18.645 29.7555 18.6223 29.7616 18.6018 29.7738C18.5821 29.7859 18.5651 29.8038 18.5524 29.8258C18.5379 29.8517 18.5274 29.8807 18.5215 29.9112C18.514 29.9494 18.5105 29.9885 18.511 30.0277L18.511 30.0723C18.511 30.1166 18.5142 30.1558 18.5215 30.19C18.5275 30.2208 18.5381 30.25 18.5527 30.2761C18.5668 30.2994 18.5833 30.3169 18.6028 30.3289C18.6219 30.3406 18.6442 30.346 18.6688 30.346C18.6916 30.3466 18.7143 30.3408 18.7351 30.3289C18.7548 30.3165 18.7716 30.2984 18.7841 30.2761C18.7985 30.2499 18.8087 30.2207 18.8144 30.19C18.822 30.1516 18.8256 30.1118 18.8253 30.0723ZM19.1609 29.6554L19.1609 30.4462L19.049 30.4462L19.049 29.6554L19.1609 29.6554ZM19.551 29.6554L19.2881 30.0358L19.1383 30.2295L19.1185 30.0941L19.2256 29.9334L19.4146 29.6554L19.551 29.6554ZM19.4305 30.4462L19.217 30.0716L19.2941 29.9784L19.5634 30.4462L19.4305 30.4462Z" stroke="white"/>
<path d="M19.8732 28.8502L19.8732 31.1434L17.7856 31.1434M1 1L11.4355 1L11.4355 33L0.999999 33L1 1Z" stroke="white"/>
<path d="M1.77734 1.41016L6.90339 1.41016L6.90339 3.74666L1.77734 3.74666L1.77734 1.41016Z" stroke="white"/>
<path d="M4.65234 1.8125L5.11835 1.8125L5.11835 2.52361L4.65234 2.52361L4.65234 1.8125Z" stroke="white"/>
<path d="M4.65234 1.8125L5.11835 1.8125L5.11835 2.52361L4.65234 2.52361L4.65234 1.8125Z" stroke="white"/>
<path d="M3.25391 1.8125L3.71991 1.8125L3.71991 2.52361L3.25391 2.52361L3.25391 1.8125Z" stroke="white"/>
<path d="M3.95312 1.8125L4.41913 1.8125L4.41913 2.52361L3.95312 2.52361L3.95312 1.8125Z" stroke="white"/>
</svg>
