<svg width="1441" height="901" viewBox="0 0 1441 901" fill="none" xmlns="http://www.w3.org/2000/svg">
<path d="M1406.6 781.825V479.309L1376.95 460.788V71.8383H1287.98V20.9004H982.378L951.893 39.9404H577.913L513.964 0H0V623.579L47.4214 653.205V790.057L77.9065 809.089V855.911H441.171V882.664H744.31V900H1441V803.31L1406.6 781.825Z" fill="#00158E"/>
<path d="M121.932 825.598H138.851L156.911 810H128.684L88 845.138H99.3153L121.932 825.598Z" fill="#FFD700"/>
<path d="M158.62 825.598H175.532L193.592 810H165.365L124.688 845.138H135.996L158.62 825.598Z" fill="#FFD700"/>
<path d="M195.311 825.598H212.224L230.283 810H202.056L161.379 845.138H172.687L195.311 825.598Z" fill="#FFD700"/>
<path d="M231.999 825.598H248.918L266.978 810H238.75L198.066 845.138H209.375L231.999 825.598Z" fill="#FFD700"/>
<path d="M268.686 825.598H285.605L303.665 810H275.438L234.754 845.138H246.069L268.686 825.598Z" fill="#FFD700"/>
<path d="M305.382 825.598H322.294L340.354 810H312.126L271.449 845.138H282.758L305.382 825.598Z" fill="#FFD700"/>
<path d="M342.069 825.598H358.981L377.041 810H348.814L308.137 845.138H319.445L342.069 825.598Z" fill="#FFD700"/>
<path d="M378.753 825.598H395.672L413.732 810H385.504L344.82 845.138H356.129L378.753 825.598Z" fill="#FFD700"/>
<path d="M93.5937 67.2578H78.052L67 83.7946L78.052 100.326H93.5937L82.5349 83.7946L93.5937 67.2578Z" fill="#0751CF"/>
<path d="M133.294 67.2578H117.759L106.707 83.7946L117.759 100.326H133.294L122.242 83.7946L133.294 67.2578Z" fill="#0751CF"/>
<path d="M172.997 67.2578H157.462L146.41 83.7946L157.462 100.326H172.997L161.945 83.7946L172.997 67.2578Z" fill="#0751CF"/>
<path d="M212.7 67.2578H197.165L186.113 83.7946L197.165 100.326H212.7L201.648 83.7946L212.7 67.2578Z" fill="#0751CF"/>
<path d="M252.406 67.2578H236.871L225.812 83.7946L236.871 100.326H252.406L241.354 83.7946L252.406 67.2578Z" fill="#0751CF"/>
<path d="M292.113 67.2578H276.572L265.52 83.7946L276.572 100.326H292.113L281.054 83.7946L292.113 67.2578Z" fill="#0751CF"/>
<path d="M1201.38 86H1217.79L1188.41 111.377H1172L1201.38 86ZM1267.28 86H1250.87L1221.49 111.377H1237.89L1267.28 86ZM1242.53 86H1226.13L1196.74 111.377H1213.15L1242.53 86ZM1366.26 86H1349.85L1320.47 111.382H1336.88L1366.26 86ZM1292.02 86H1275.61L1246.23 111.377H1262.64L1292.02 86ZM1341.51 86H1325.1L1295.72 111.377H1312.12L1341.51 86ZM1316.76 86H1300.36L1270.98 111.377H1287.38L1316.76 86Z" fill="#FFD700"/>
<path d="M1220 211.932H1243.63V210.474V191.523H1220V211.932ZM1223.38 194.439H1240.25V209.017H1223.38V194.439Z" fill="#FFD700"/>
<path d="M1337.02 366.939V349.93H1315.64V368.397H1337.02V366.939ZM1319.02 352.851H1333.65V365.487H1319.02V352.851Z" fill="#FFD700"/>
<path d="M1313 512.702H1336.63V511.244V492.293H1313V512.702ZM1316.38 495.208H1333.25V509.786H1316.38V495.208Z" fill="#0751CF"/>
<path d="M88.3789 582.676H117.633V581.218V557.41H88.3789V582.676ZM91.7546 560.32H114.257V579.755H91.7546V560.32Z" fill="#FFD700"/>
<path d="M67 462.165H85.0059V460.707V446.613H67V462.165ZM70.3757 449.529H81.6302V459.249H70.3757V449.529Z" fill="#0751CF"/>
<path d="M1347.15 242.062V347.021H1366.28V345.563V242.062H1347.15ZM1350.52 244.978H1362.9V344.106H1350.52V244.978Z" fill="#FFD700"/>
<path d="M1355.02 200.756V175H1323.52V202.213H1355.02V200.756ZM1326.89 177.921H1351.65V199.304H1326.89V177.921Z" fill="#FFD700"/>
<path d="M219.444 43.7935V25.8164H196.941V45.2512H219.444V43.7935ZM200.317 28.7319H216.068V42.3357H200.317V28.7319Z" fill="#FFD700"/>
<path d="M303.836 39.419H331.969V37.9612V15.1211H303.836V39.419ZM307.212 18.0366H328.593V36.5035H307.212V18.0366Z" fill="#0751CF"/>
<path d="M108.805 234.078H92.5135V220.008H83.2911V234.078H67V242.043H83.2911V256.114H92.5135V242.043H108.805V234.078Z" fill="#FFD700"/>
<path d="M179.474 234.078H163.182V220.008H153.96V234.078H137.676V242.043H153.96V256.114H163.182V242.043H179.474V234.078Z" fill="#FFD700"/>
<path d="M250.144 234.078H233.853V220.008H224.631V234.078H208.34V242.043H224.631V256.114H233.853V242.043H250.144V234.078Z" fill="#FFD700"/>
<path d="M320.812 234.078H304.521V220.008H295.299V234.078H279.008V242.043H295.299V256.114H304.521V242.043H320.812V234.078Z" fill="#FFD700"/>
<path d="M47.5 653L0 623.5L1 900.5H78H441H745V883H441V856H78V809L48 790L47.5 653Z" fill="#FFD700"/>
<path d="M578 40L514 0H1441V804L1406.5 782V479L1377 461V72H1288V21H982.5L952 40H578Z" fill="#FFD700"/>
</svg>
