<svg width="400" height="300" viewBox="0 0 400 300" fill="none" xmlns="http://www.w3.org/2000/svg">
<g clip-path="url(#clip0_2968_1219)">
<rect width="400" height="300" fill="white"/>
<path d="M403 0H-1V300H403V0Z" fill="#00A19A"/>
<path d="M397.081 194.345H393.612C392.552 194.345 391.692 194.993 391.692 195.792V205.597C391.692 206.396 390.833 207.043 389.773 207.043H379.559C378.499 207.043 377.64 206.396 377.64 205.597V202.723C377.64 201.925 376.78 201.277 375.72 201.277H351.945C350.885 201.277 350.026 200.63 350.026 199.831V167.15C350.026 166.842 349.895 166.541 349.651 166.293L337.226 153.588C336.523 152.869 335.131 152.798 334.304 153.438L319.217 165.126C318.869 165.396 318.674 165.758 318.674 166.134V205.599C318.674 206.397 317.814 207.045 316.754 207.045H304.123C303.063 207.045 302.204 206.397 302.204 205.599V189.428C302.204 188.629 301.344 187.982 300.285 187.982H297.393C296.333 187.982 295.473 187.334 295.473 186.536V168.877C295.473 168.079 294.614 167.431 293.553 167.431C292.493 167.431 291.634 166.784 291.634 165.985V162.385C291.634 161.586 290.774 160.938 289.715 160.938H283.995C282.934 160.938 282.075 161.586 282.075 162.385V165.985C282.075 166.784 281.216 167.431 280.156 167.431C279.095 167.431 278.236 168.079 278.236 168.877V186.536C278.236 187.335 277.376 187.982 276.316 187.982H274.916C273.856 187.982 272.997 188.629 272.997 189.428V192.901C272.997 193.699 272.137 194.346 271.077 194.346H264.777C263.716 194.346 262.858 193.699 262.858 192.901V159.875C262.858 159.076 261.998 158.429 260.938 158.429H237.383C236.323 158.429 235.463 159.077 235.463 159.875V181.895C235.463 182.293 235.246 182.674 234.861 182.947L214.699 197.271C214.314 197.544 214.096 197.925 214.096 198.323V214.465C214.096 215.264 213.236 215.911 212.177 215.911H198.904C197.843 215.911 196.984 215.264 196.984 214.465V165.335C196.984 164.536 196.124 163.889 195.065 163.889H172.385C171.325 163.889 170.465 164.536 170.465 165.335V192.901C170.465 193.7 169.606 194.347 168.546 194.347H158.154C157.094 194.347 156.234 194.995 156.234 195.794V205.599C156.234 206.398 155.375 207.045 154.314 207.045H144.1C143.04 207.045 142.181 206.398 142.181 205.599V202.725C142.181 201.926 141.321 201.279 140.261 201.279H116.486C115.426 201.279 114.566 200.631 114.566 199.833V167.152C114.566 166.844 114.434 166.543 114.191 166.294L101.766 153.59C101.063 152.871 99.6711 152.8 98.8442 153.44L83.7572 165.128C83.409 165.398 83.2141 165.759 83.2141 166.136V205.6C83.2141 206.399 82.3547 207.046 81.2948 207.046H68.6631C67.6024 207.046 66.7429 206.399 66.7429 205.6V189.43C66.7429 188.631 65.8834 187.984 64.8235 187.984H61.9318C60.8711 187.984 60.0124 187.336 60.0124 186.538V168.879C60.0124 168.08 59.1529 167.433 58.093 167.433C57.0324 167.433 56.1737 166.785 56.1737 165.987V162.387C56.1737 161.588 55.3142 160.94 54.2535 160.94H48.5336C47.4737 160.94 46.6142 161.588 46.6142 162.387V165.987C46.6142 166.785 45.7547 167.433 44.6948 167.433C43.635 167.433 42.7755 168.08 42.7755 168.879V186.538C42.7755 187.337 41.916 187.984 40.8561 187.984H39.4559C38.3953 187.984 37.5358 188.631 37.5358 189.43V192.902C37.5358 193.701 36.6763 194.348 35.6164 194.348H29.3161C28.2562 194.348 27.3967 193.701 27.3967 192.902V159.877C27.3967 159.078 26.5372 158.431 25.4773 158.431H1.91937C0.859501 158.431 0 159.079 0 159.877V284.557C0 285.353 0.859501 286 1.91937 286H235.458H397.081C398.141 286 399 285.353 399 284.554V195.792C399.001 194.993 398.141 194.345 397.081 194.345Z" fill="#007F76"/>
<path d="M261.467 62.1248H247.422V52.2578" stroke="black" stroke-width="2" stroke-miterlimit="10"/>
<path d="M247.422 51.9219L261.467 62.1225" stroke="black" stroke-width="2" stroke-miterlimit="10"/>
<path d="M247.426 62.1248V52.2578H233.381V62.1248H247.426Z" stroke="black" stroke-width="2" stroke-miterlimit="10"/>
<path d="M234.293 52.9375L247.427 62.1211" stroke="black" stroke-width="2" stroke-miterlimit="10"/>
<path d="M233.379 62.1248V52.2578H219.334V62.1248H233.379Z" stroke="black" stroke-width="2" stroke-miterlimit="10"/>
<path d="M220.246 52.9375L233.38 62.1211" stroke="black" stroke-width="2" stroke-miterlimit="10"/>
<path d="M219.336 62.1248V52.2578H205.291V62.1248H219.336Z" stroke="black" stroke-width="2" stroke-miterlimit="10"/>
<path d="M206.203 52.9375L219.337 62.1211" stroke="black" stroke-width="2" stroke-miterlimit="10"/>
<path d="M205.289 62.1248V52.2578H191.244V62.1248H205.289Z" stroke="black" stroke-width="2" stroke-miterlimit="10"/>
<path d="M192.156 52.9453L205.29 62.1289" stroke="black" stroke-width="2" stroke-miterlimit="10"/>
<path d="M191.246 62.1248V52.2578H177.201V62.1248H191.246Z" stroke="black" stroke-width="2" stroke-miterlimit="10"/>
<path d="M178.113 52.9453L191.247 62.1289" stroke="black" stroke-width="2" stroke-miterlimit="10"/>
<path d="M148.218 41.3906H135.062V51.9242H148.218V41.3906Z" stroke="black" stroke-width="2" stroke-miterlimit="10"/>
<path d="M135.973 51.2408L148.217 41.3906" stroke="black" stroke-width="2" stroke-miterlimit="10"/>
<path d="M148.218 51.9219H135.062V62.4555H148.218V51.9219Z" stroke="black" stroke-width="2" stroke-miterlimit="10"/>
<path d="M135.973 61.7721L148.217 51.9219" stroke="black" stroke-width="2" stroke-miterlimit="10"/>
<path d="M148.218 62.4609H135.062V72.9945H148.218V62.4609Z" stroke="black" stroke-width="2" stroke-miterlimit="10"/>
<path d="M135.973 72.3111L148.217 62.4609" stroke="black" stroke-width="2" stroke-miterlimit="10"/>
<path d="M148.218 72.9922H135.062V83.5258H148.218V72.9922Z" stroke="black" stroke-width="2" stroke-miterlimit="10"/>
<path d="M135.973 82.8424L148.217 72.9922" stroke="black" stroke-width="2" stroke-miterlimit="10"/>
<path d="M148.218 83.5234H135.062V94.057H148.218V83.5234Z" stroke="black" stroke-width="2" stroke-miterlimit="10"/>
<path d="M135.973 93.3736L148.217 83.5234" stroke="black" stroke-width="2" stroke-miterlimit="10"/>
<path d="M148.218 94.0625H135.062V104.596H148.218V94.0625Z" stroke="black" stroke-width="2" stroke-miterlimit="10"/>
<path d="M135.973 103.913L148.217 94.0625" stroke="black" stroke-width="2" stroke-miterlimit="10"/>
<path d="M177.199 62.1248V52.2578H163.154V62.1248H177.199Z" stroke="black" stroke-width="2" stroke-miterlimit="10"/>
<path d="M164.066 52.9453L177.2 62.1289" stroke="black" stroke-width="2" stroke-miterlimit="10"/>
<path d="M163.156 62.1248V52.2578H149.111V62.1248H163.156Z" stroke="black" stroke-width="2" stroke-miterlimit="10"/>
<path d="M150.023 52.9453L163.157 62.1289" stroke="black" stroke-width="2" stroke-miterlimit="10"/>
<path d="M149.109 62.1248V52.2578H135.065V62.1248H149.109Z" stroke="black" stroke-width="2" stroke-miterlimit="10"/>
<path d="M135.977 52.9453L149.11 62.1289" stroke="black" stroke-width="2" stroke-miterlimit="10"/>
<path d="M135.066 62.1248V52.2578H121.022V62.1248H135.066Z" stroke="black" stroke-width="2" stroke-miterlimit="10"/>
<path d="M121.934 52.9453L135.068 62.1289" stroke="black" stroke-width="2" stroke-miterlimit="10"/>
<path d="M121.02 62.1248V52.2578H106.975V62.1248H121.02Z" stroke="black" stroke-width="2" stroke-miterlimit="10"/>
<path d="M107.887 52.9453L121.021 62.1289" stroke="black" stroke-width="2" stroke-miterlimit="10"/>
<path d="M106.977 62.1248V52.2578H92.9318V62.1248H106.977Z" stroke="black" stroke-width="2" stroke-miterlimit="10"/>
<path d="M93.8438 52.9453L106.978 62.1289" stroke="black" stroke-width="2" stroke-miterlimit="10"/>
<path d="M344.446 274.903H82.182C76.902 274.903 72.582 271.663 72.582 267.703V127.919C72.582 123.959 76.902 120.719 82.182 120.719H344.446C349.726 120.719 354.046 123.959 354.046 127.919V267.703C354.046 271.663 349.726 274.903 344.446 274.903Z" fill="#EDEDED"/>
<path d="M354.046 135.371H72.582V127.793C72.582 123.886 76.8052 120.719 82.014 120.719H344.613C349.823 120.719 354.045 123.886 354.045 127.793V135.371H354.046Z" fill="#DADADA"/>
<path d="M90.0373 126.826C90.0373 128.343 88.3973 129.573 86.3741 129.573C84.3509 129.573 82.7109 128.343 82.7109 126.826C82.7109 125.308 84.3509 124.078 86.3741 124.078C88.3973 124.078 90.0373 125.308 90.0373 126.826Z" fill="#FF6364"/>
<path d="M103.264 126.826C103.264 128.343 101.624 129.573 99.6007 129.573C97.5775 129.573 95.9375 128.343 95.9375 126.826C95.9375 125.308 97.5775 124.078 99.6007 124.078C101.624 124.078 103.264 125.308 103.264 126.826Z" fill="#F9D43B"/>
<path d="M116.494 126.826C116.494 128.343 114.854 129.573 112.831 129.573C110.808 129.573 109.168 128.343 109.168 126.826C109.168 125.308 110.808 124.078 112.831 124.078C114.854 124.078 116.494 125.308 116.494 126.826Z" fill="#55E271"/>
<path d="M72.582 132.676H127.704L134.133 126.854C135.239 125.853 136.882 125.273 138.616 125.273H201.48C203.295 125.273 205.006 125.909 206.107 126.991L211.89 132.676H354.047V145.466H72.582V132.676Z" fill="#B2B2B2"/>
<g opacity="0.41">
<path d="M204.536 129.021L203.676 128.477L200.389 131.398L201.25 131.942L204.536 129.021Z" fill="#575756"/>
<path d="M201.159 128.512L200.324 129.078L203.741 131.914L204.576 131.348L201.159 128.512Z" fill="#575756"/>
</g>
<path d="M337.524 142.364H89.107C88.3374 142.364 87.707 141.891 87.707 141.314V137.034C87.707 136.457 88.3374 135.984 89.107 135.984H337.524C338.293 135.984 338.924 136.457 338.924 137.034V141.314C338.924 141.891 338.293 142.364 337.524 142.364Z" fill="white"/>
<path d="M330.656 264.254H68.393C63.113 264.254 58.793 261.014 58.793 257.054V117.27C58.793 113.31 63.113 110.07 68.393 110.07H330.657C335.937 110.07 340.257 113.31 340.257 117.27V257.054C340.256 261.015 335.936 264.254 330.656 264.254Z" fill="#F6F6F6"/>
<path d="M340.256 124.723H58.793V117.144C58.793 113.237 63.0162 110.07 68.225 110.07H330.824C336.034 110.07 340.256 113.238 340.256 117.144V124.723Z" fill="#EDEDED"/>
<path d="M76.2483 116.177C76.2483 117.694 74.6083 118.924 72.5851 118.924C70.5619 118.924 68.9219 117.694 68.9219 116.177C68.9219 114.66 70.5619 113.43 72.5851 113.43C74.6083 113.43 76.2483 114.66 76.2483 116.177Z" fill="#FF6364"/>
<path d="M89.4748 116.177C89.4748 117.694 87.8348 118.924 85.8116 118.924C83.7884 118.924 82.1484 117.694 82.1484 116.177C82.1484 114.66 83.7884 113.43 85.8116 113.43C87.8348 113.43 89.4748 114.66 89.4748 116.177Z" fill="#F9D43B"/>
<path d="M102.705 116.177C102.705 117.694 101.065 118.924 99.0421 118.924C97.0189 118.924 95.3789 117.694 95.3789 116.177C95.3789 114.66 97.0189 113.43 99.0421 113.43C101.065 113.43 102.705 114.66 102.705 116.177Z" fill="#55E271"/>
<path d="M58.793 122.028H113.915L120.344 116.206C121.45 115.205 123.093 114.625 124.827 114.625H187.691C189.506 114.625 191.217 115.26 192.318 116.342L198.101 122.027H340.258V134.817H58.793V122.028Z" fill="#C6C6C6"/>
<g opacity="0.41">
<path d="M190.723 118.373L189.863 117.828L186.576 120.749L187.437 121.293L190.723 118.373Z" fill="#575756"/>
<path d="M187.386 117.856L186.551 118.422L189.968 121.257L190.803 120.691L187.386 117.856Z" fill="#575756"/>
</g>
<path d="M323.735 131.716H75.318C74.5476 131.716 73.918 131.243 73.918 130.666V126.386C73.918 125.809 74.5476 125.336 75.318 125.336H323.735C324.504 125.336 325.135 125.809 325.135 126.386V130.666C325.135 131.243 324.504 131.716 323.735 131.716Z" fill="white"/>
<path d="M316.864 253.005H54.6C49.32 253.005 45 249.765 45 245.805V106.02C45 102.06 49.32 98.8203 54.6 98.8203H316.864C322.144 98.8203 326.464 102.06 326.464 106.02V245.805C326.464 249.765 322.144 253.005 316.864 253.005Z" fill="white"/>
<path d="M326.464 113.473H45V105.894C45 101.988 49.2232 98.8203 54.432 98.8203H317.031C322.241 98.8203 326.463 101.988 326.463 105.894V113.473H326.464Z" fill="#EDEDED"/>
<path d="M62 105C62 106.657 60.4331 108 58.5 108C56.5669 108 55 106.657 55 105C55 103.343 56.5669 102 58.5 102C60.4331 102 62 103.344 62 105Z" fill="#FF6364"/>
<path d="M75 105C75 106.657 73.4331 108 71.5 108C69.5669 108 68 106.657 68 105C68 103.343 69.5669 102 71.5 102C73.4331 102 75 103.344 75 105Z" fill="#F9D43B"/>
<path d="M88 105C88 106.657 86.4331 108 84.5 108C82.5669 108 81 106.657 81 105C81 103.343 82.5669 102 84.5 102C86.4331 102 88 103.344 88 105Z" fill="#55E271"/>
<path d="M45 110.778H100.122L106.551 104.956C107.657 103.955 109.3 103.375 111.034 103.375H173.898C175.713 103.375 177.424 104.01 178.525 105.093L184.308 110.778H326.465V123.568H45V110.778Z" fill="#C6C6C6"/>
<g opacity="0.41">
<path d="M176.931 107.123L176.07 106.578L172.783 109.499L173.644 110.043L176.931 107.123Z" fill="#575756"/>
<path d="M173.577 106.614L172.742 107.18L176.159 110.015L176.994 109.449L173.577 106.614Z" fill="#575756"/>
</g>
<path d="M309.941 120.465H61.525C60.7546 120.465 60.125 119.992 60.125 119.415V115.136C60.125 114.558 60.7546 114.086 61.525 114.086H309.942C310.712 114.086 311.342 114.558 311.342 115.136V119.415C311.341 119.993 310.711 120.465 309.941 120.465Z" fill="white"/>
<path d="M169.352 242.598C223.01 242.598 266.509 238.466 266.509 233.369C266.509 228.272 223.01 224.141 169.352 224.141C115.694 224.141 72.1953 228.272 72.1953 233.369C72.1953 238.466 115.694 242.598 169.352 242.598Z" fill="#C6C6C6"/>
<path d="M168.164 232.813H176.518L191.889 166.859H183.534L168.164 232.813Z" fill="#B17F4A"/>
<path d="M195.457 232.813H200.575C201.534 232.813 202.28 232.187 202.173 231.472L192.681 167.932C192.59 167.321 191.901 166.859 191.082 166.859H185.964C185.005 166.859 184.259 167.485 184.366 168.2L193.858 231.74C193.949 232.351 194.638 232.813 195.457 232.813Z" fill="#CA9E67"/>
<path opacity="0.28" d="M193.408 184.059C194.165 183.998 194.717 183.484 194.637 182.917L193.157 172.497C193.076 171.93 192.391 171.515 191.635 171.576C190.879 171.637 190.325 172.151 190.406 172.718L191.886 183.138C191.966 183.705 192.651 184.119 193.408 184.059Z" fill="white"/>
<path opacity="0.28" d="M195.529 199.348C196.285 199.287 196.839 198.774 196.758 198.206L195.278 187.786C195.197 187.219 194.512 186.804 193.756 186.865C193 186.926 192.447 187.44 192.527 188.007L194.007 198.427C194.087 198.994 194.772 199.408 195.529 199.348Z" fill="white"/>
<path opacity="0.28" d="M201.126 232.81L201.146 232.809C201.897 232.749 202.446 232.239 202.366 231.676L200.883 221.241C200.803 220.678 200.123 220.266 199.373 220.326L199.352 220.328C198.602 220.388 198.053 220.898 198.133 221.461L199.615 231.896C199.695 232.459 200.374 232.87 201.126 232.81Z" fill="white"/>
<path d="M88.995 232.82H92.6822C93.799 232.82 94.755 232.217 94.947 231.392L109.513 168.889C109.759 167.833 108.677 166.867 107.249 166.867H103.561C102.445 166.867 101.489 167.47 101.297 168.295L86.7302 230.798C86.4846 231.853 87.567 232.82 88.995 232.82Z" fill="#B17F4A"/>
<path d="M109.212 232.82H114.356C115.308 232.82 116.048 232.199 115.942 231.49L106.446 167.93C106.356 167.325 105.674 166.867 104.861 166.867H99.7169C98.7649 166.867 98.0249 167.488 98.1313 168.197L107.626 231.757C107.716 232.361 108.399 232.82 109.212 232.82Z" fill="#CA9E67"/>
<path opacity="0.28" d="M107.174 184.067C107.93 184.006 108.483 183.492 108.402 182.925L106.922 172.505C106.841 171.938 106.157 171.523 105.401 171.584C104.645 171.645 104.091 172.158 104.172 172.726L105.652 183.146C105.733 183.713 106.418 184.127 107.174 184.067Z" fill="white"/>
<path opacity="0.28" d="M109.298 199.356C110.054 199.295 110.608 198.781 110.527 198.214L109.047 187.794C108.966 187.227 108.282 186.812 107.526 186.873C106.77 186.934 106.216 187.447 106.297 188.015L107.777 198.435C107.858 199.002 108.542 199.416 109.298 199.356Z" fill="white"/>
<path opacity="0.28" d="M114.694 232.834L115.118 232.8C115.758 232.749 116.226 232.314 116.158 231.834L114.632 221.097C114.564 220.617 113.985 220.266 113.345 220.317L112.921 220.351C112.281 220.402 111.814 220.836 111.882 221.316L113.407 232.054C113.475 232.535 114.054 232.885 114.694 232.834Z" fill="white"/>
<path d="M98.8121 174.748H192.161C193.975 174.748 195.446 173.645 195.446 172.285V167.784C195.446 166.423 193.975 165.32 192.161 165.32H98.8121C96.9977 165.32 95.5273 166.423 95.5273 167.784V172.285C95.5281 173.645 96.9985 174.748 98.8121 174.748Z" fill="#FFED00"/>
<path d="M187.789 174.748H192.623L190.206 165.32H185.371L187.789 174.748Z" fill="black"/>
<path d="M178.12 174.748H182.955L180.538 165.32H175.703L178.12 174.748Z" fill="black"/>
<path d="M168.452 174.748H173.287L170.87 165.32H166.035L168.452 174.748Z" fill="black"/>
<path d="M158.781 174.748H163.615L161.198 165.32H156.363L158.781 174.748Z" fill="black"/>
<path d="M149.113 174.748H153.947L151.53 165.32H146.695L149.113 174.748Z" fill="black"/>
<path d="M139.445 174.748H144.279L141.863 165.32H137.027L139.445 174.748Z" fill="black"/>
<path d="M129.773 174.748H134.607L132.191 165.32H127.355L129.773 174.748Z" fill="black"/>
<path d="M120.104 174.748H124.94L122.522 165.32H117.688L120.104 174.748Z" fill="black"/>
<path d="M110.436 174.748H115.272L112.854 165.32H108.02L110.436 174.748Z" fill="black"/>
<path d="M100.765 174.748H105.6L103.182 165.32H98.3477L100.765 174.748Z" fill="black"/>
<path d="M102.985 197.722H195.52C196.957 197.722 198.122 196.848 198.122 195.771V190.451C198.122 189.374 196.957 188.5 195.52 188.5H102.985C101.548 188.5 100.383 189.374 100.383 190.451V195.77C100.383 196.848 101.548 197.722 102.985 197.722Z" fill="#FFED00"/>
<path d="M190.634 197.722H195.363L192.999 188.5H188.27L190.634 197.722Z" fill="black"/>
<path d="M181.177 197.722H185.906L183.541 188.5H178.812L181.177 197.722Z" fill="black"/>
<path d="M171.716 197.722H176.446L174.081 188.5H169.352L171.716 197.722Z" fill="black"/>
<path d="M162.259 197.722H166.989L164.624 188.5H159.895L162.259 197.722Z" fill="black"/>
<path d="M152.798 197.722H157.527L155.163 188.5H150.434L152.798 197.722Z" fill="black"/>
<path d="M143.341 197.722H148.07L145.705 188.5H140.977L143.341 197.722Z" fill="black"/>
<path d="M133.884 197.722H138.613L136.248 188.5H131.52L133.884 197.722Z" fill="black"/>
<path d="M124.423 197.722H129.153L126.788 188.5H122.059L124.423 197.722Z" fill="black"/>
<path d="M114.966 197.722H119.696L117.331 188.5H112.602L114.966 197.722Z" fill="black"/>
<path d="M105.505 197.722H110.234L107.869 188.5H103.141L105.505 197.722Z" fill="black"/>
<path d="M154.689 174.194L129.633 234.657H157.092H184.55L159.494 174.194C158.761 172.425 155.422 172.425 154.689 174.194Z" fill="#E94E1B"/>
<path d="M189.273 236.664H124.913C124.177 236.664 123.574 236.212 123.574 235.66C123.574 235.108 124.177 234.656 124.913 234.656H189.273C190.009 234.656 190.612 235.108 190.612 235.66C190.612 236.212 190.009 236.664 189.273 236.664Z" fill="#F39200"/>
<path opacity="0.37" d="M147.327 199.592C145.707 199.21 144.797 197.904 145.305 196.688L150.411 184.482C150.919 183.266 152.661 182.584 154.282 182.965C155.903 183.347 156.812 184.653 156.304 185.869L151.199 198.075C150.691 199.291 148.948 199.973 147.327 199.592Z" fill="white"/>
<path opacity="0.37" d="M142.439 211.613C140.815 211.237 139.898 209.933 140.399 208.717L142.764 202.969C143.265 201.751 145.003 201.063 146.626 201.439C148.249 201.814 149.167 203.118 148.666 204.335L146.3 210.083C145.799 211.3 144.062 211.988 142.439 211.613Z" fill="white"/>
<path opacity="0.37" d="M139.595 235.661H125.584C125.216 235.661 124.914 235.434 124.914 235.158C124.914 234.882 125.215 234.656 125.584 234.656H139.595C139.963 234.656 140.264 234.882 140.264 235.158C140.264 235.435 139.963 235.661 139.595 235.661Z" fill="white"/>
<path opacity="0.37" d="M152.062 235.661H144.474C144.106 235.661 143.805 235.434 143.805 235.158C143.805 234.882 144.105 234.656 144.474 234.656H152.062C152.43 234.656 152.732 234.882 152.732 235.158C152.732 235.435 152.43 235.661 152.062 235.661Z" fill="white"/>
<path opacity="0.52" d="M159.531 174.281L170.133 234.659H184.552L159.531 174.281Z" fill="#E94E1B"/>
<path d="M257.373 224.313L226.978 205.242L222.587 219.7L218.195 234.157L256.605 226.842C257.728 226.629 258.263 224.871 257.373 224.313Z" fill="#E94E1B"/>
<path d="M211.869 238.892L186.73 234.597C183.294 234.01 181.123 231.421 181.906 228.844L191.309 197.886C192.091 195.309 195.543 193.681 198.979 194.268L224.118 198.563C227.554 199.15 229.724 201.739 228.942 204.315L219.539 235.273C218.756 237.851 215.304 239.479 211.869 238.892Z" fill="#F9B233"/>
<path d="M210.268 238.618L184.167 234.159C180.731 233.572 178.561 230.983 179.343 228.407L188.746 197.449C189.529 194.872 192.981 193.244 196.417 193.831L222.517 198.29C225.953 198.877 228.123 201.466 227.341 204.042L217.938 235C217.155 237.577 213.704 239.205 210.268 238.618Z" fill="#F39200"/>
<path d="M219.527 218.996C222.365 209.651 217.417 200.837 208.474 199.309C199.531 197.781 189.981 204.118 187.143 213.463C184.305 222.807 189.253 231.621 198.196 233.149C207.139 234.677 216.689 228.34 219.527 218.996Z" fill="#E94E1B"/>
<mask id="mask0_2968_1219" style="mask-type:luminance" maskUnits="userSpaceOnUse" x="189" y="214" width="44" height="29">
<path d="M219.88 216.373C209.199 212.672 196.641 215.064 191.833 221.714C187.025 228.364 191.786 236.755 202.468 240.456C213.149 244.156 225.706 241.765 230.515 235.115C235.323 228.465 230.562 220.074 219.88 216.373Z" fill="white"/>
</mask>
<g mask="url(#mask0_2968_1219)">
<path opacity="0.52" d="M231.021 220.651C234.138 211.961 230.581 204.015 223.076 202.903C215.572 201.792 206.962 207.935 203.846 216.625C200.729 225.315 204.287 233.261 211.791 234.372C219.295 235.484 227.905 229.341 231.021 220.651Z" fill="#E94E1B"/>
</g>
<path opacity="0.37" d="M231.449 211.137C232.013 210.589 233.073 210.486 233.803 210.909L241.14 215.156C241.87 215.579 242.007 216.373 241.443 216.921C240.879 217.469 239.82 217.572 239.089 217.149L231.753 212.902C231.022 212.479 230.885 211.684 231.449 211.137Z" fill="white"/>
<path opacity="0.52" d="M257.099 226.625L222.331 226.086L219.879 234.159L257.099 226.625Z" fill="#E94E1B"/>
<path d="M134.023 40.7194V32.713L140.023 25H143.22L149.299 32.104V40.7194H134.023Z" fill="black"/>
<path d="M106.974 62.125H92.9297V70.108H106.974V62.125Z" fill="black"/>
<path d="M96.0391 51.9223L140.375 25.5853C140.99 25.2199 141.81 25.1137 142.553 25.3033L245.768 51.9229" stroke="black" stroke-miterlimit="10"/>
<path d="M261.824 62.9766V127.705" stroke="black" stroke-miterlimit="10"/>
<path d="M262.186 80.7061C258.226 80.7061 255.016 78.2983 255.016 75.3283V61.5547H262.186V80.7061Z" fill="black"/>
<path d="M261.825 137.396C264.117 137.396 265.982 135.997 265.982 134.278C265.982 133.856 265.525 133.513 264.962 133.513C264.398 133.513 263.942 133.856 263.942 134.278C263.942 135.153 262.992 135.866 261.825 135.866C260.658 135.866 259.708 135.153 259.708 134.278C259.708 133.403 260.658 132.69 261.825 132.69C262.388 132.69 262.845 132.348 262.845 131.925V128.085C262.845 127.663 262.388 127.32 261.825 127.32C261.262 127.32 260.805 127.663 260.805 128.085V131.255C259.004 131.597 257.668 132.823 257.668 134.278C257.668 135.997 259.533 137.396 261.825 137.396Z" fill="#706F6F"/>
<path d="M220.336 155.494L263.535 135.211" stroke="black" stroke-miterlimit="10"/>
<path d="M306.091 154.682L265.953 135.211" stroke="black" stroke-miterlimit="10"/>
<path d="M308.873 178.042H217.766C216.238 178.042 215 177.113 215 175.968V156.074C215 154.928 216.238 154 217.766 154H308.873C310.4 154 311.638 154.929 311.638 156.074V175.968C311.638 177.113 310.401 178.042 308.873 178.042Z" fill="#FFED00"/>
<path d="M83.7825 210.174C83.7409 210.175 83.6985 210.171 83.6569 210.16C83.4449 210.106 78.4609 208.799 77.3921 206.426C76.9833 205.519 77.1993 204.583 78.0353 203.643C80.1249 201.294 79.0289 199.857 77.8689 198.335C77.2089 197.47 76.5265 196.575 76.4289 195.502C76.2817 193.869 77.0225 193.142 77.8801 192.301C78.5833 191.611 79.3793 190.829 79.8609 189.323C80.1265 188.493 80.2505 187.729 80.3609 187.054C80.6513 185.274 80.8801 183.868 83.4889 183.074C83.6665 183.02 83.8673 183.084 83.9385 183.216C84.0105 183.349 83.9257 183.499 83.7489 183.553C81.5169 184.233 81.3297 185.38 81.0465 187.117C80.9345 187.805 80.8073 188.585 80.5329 189.444C80.0169 191.057 79.1737 191.885 78.4289 192.615C77.6233 193.405 76.9881 194.029 77.1177 195.467C77.2041 196.422 77.8177 197.227 78.4673 198.079C79.6809 199.67 80.9353 201.316 78.6089 203.93C77.8985 204.73 77.7089 205.513 78.0457 206.261C79.0073 208.395 83.8321 209.659 83.8809 209.671C84.0609 209.717 84.1569 209.865 84.0953 210C84.0481 210.103 83.9201 210.17 83.7825 210.174Z" fill="#9D9D9C"/>
<path d="M83.4092 230.004C83.4044 230.004 83.3988 230.004 83.394 230.004C83.2036 230.003 83.05 229.887 83.0508 229.744L83.2732 183.312C83.274 183.225 83.3332 183.143 83.4316 183.096C83.53 183.048 83.654 183.041 83.7604 183.078C86.2428 183.921 86.3244 185.387 86.4276 187.243C86.466 187.928 86.5092 188.705 86.678 189.542C86.986 191.073 87.6908 191.903 88.3132 192.635C89.0724 193.529 89.7276 194.301 89.3948 195.918C89.1756 196.981 88.394 197.829 87.638 198.649C86.3084 200.091 85.0532 201.452 86.8676 203.927C87.786 205.178 87.998 206.358 87.4988 207.432C86.642 209.275 84.014 210.119 83.902 210.154C83.8796 210.161 83.8572 210.166 83.834 210.17L83.7404 229.747C83.7396 229.886 83.5924 229.998 83.4092 230.004ZM83.9604 183.739L83.8364 209.606C84.4396 209.378 86.2236 208.607 86.8476 207.26C87.278 206.33 87.0812 205.294 86.262 204.177C84.242 201.422 85.6796 199.864 87.07 198.356C87.814 197.548 88.5172 196.786 88.7124 195.839C89.006 194.415 88.4428 193.752 87.7308 192.914C87.0724 192.138 86.326 191.259 85.9956 189.62C85.822 188.756 85.778 187.964 85.7388 187.266C85.646 185.608 85.582 184.466 83.9604 183.739Z" fill="#9D9D9C"/>
<path d="M269.052 218.757C269.048 218.757 269.044 218.757 269.04 218.757C268.945 218.755 268.857 218.721 268.799 218.666C268.746 218.615 263.591 213.527 271.426 207.248C271.497 207.191 271.601 207.163 271.704 207.174C271.808 207.185 271.897 207.233 271.945 207.302C271.986 207.361 275.898 213.228 269.288 218.679C269.228 218.729 269.142 218.757 269.052 218.757ZM271.566 207.845C265.482 212.939 268.236 217.101 269.086 218.126C274.189 213.707 272.237 209.088 271.566 207.845Z" fill="#9D9D9C"/>
<path d="M272.149 219.155C270.266 219.155 269.009 218.775 268.977 218.765C268.89 218.738 268.824 218.683 268.796 218.616C268.768 218.548 268.781 218.475 268.831 218.415C274.093 212.192 282.671 213.471 282.757 213.485C282.859 213.501 282.944 213.553 282.985 213.625C283.026 213.697 283.018 213.779 282.964 213.845C279.338 218.271 275.018 219.155 272.149 219.155ZM269.591 218.42C271.137 218.784 277.16 219.725 282.158 213.903C280.383 213.748 273.918 213.564 269.591 218.42Z" fill="#9D9D9C"/>
<path d="M272.125 215.668C272.043 215.668 271.964 215.644 271.903 215.601C271.835 215.552 271.8 215.483 271.805 215.413C272.436 208.06 280.78 206.092 280.864 206.073C280.964 206.05 281.072 206.065 281.154 206.114C281.236 206.162 281.282 206.237 281.276 206.315C280.704 214.904 272.243 215.66 272.158 215.668C272.147 215.668 272.136 215.668 272.125 215.668ZM280.608 206.655C278.949 207.16 273.162 209.326 272.476 215.143C274.065 214.904 279.95 213.562 280.608 206.655Z" fill="#9D9D9C"/>
<path d="M260.329 214.706C258.152 214.706 252.122 214.086 249.312 207.525C249.28 207.451 249.299 207.37 249.361 207.307C249.424 207.245 249.536 207.204 249.627 207.212C249.713 207.214 258.302 207.497 261.386 214.359C261.416 214.426 261.405 214.499 261.356 214.56C261.308 214.621 261.226 214.662 261.132 214.673C261.118 214.675 260.822 214.706 260.329 214.706ZM250.076 207.726C252.998 214.056 259.052 214.282 260.644 214.223C258.03 208.852 251.831 207.891 250.076 207.726Z" fill="#9D9D9C"/>
<path d="M261.141 214.652C261.119 214.652 261.097 214.65 261.076 214.647C260.984 214.632 260.904 214.589 260.859 214.526C256.247 208.164 261.81 203.248 261.866 203.199C261.935 203.141 262.037 203.112 262.141 203.118C262.244 203.126 262.336 203.171 262.387 203.239C267.912 210.606 261.405 214.561 261.337 214.6C261.281 214.634 261.212 214.652 261.141 214.652ZM262.064 203.796C261.033 204.873 257.755 208.938 261.234 214.03C262.395 213.202 266.325 209.778 262.064 203.796Z" fill="#9D9D9C"/>
<path d="M259.017 211.22C258.956 211.22 258.896 211.208 258.844 211.182C250.725 207.262 252.457 200.946 252.476 200.883C252.498 200.807 252.568 200.744 252.664 200.714C252.76 200.684 252.869 200.69 252.958 200.731C262.52 205.203 259.344 211.016 259.311 211.074C259.274 211.139 259.2 211.189 259.11 211.209C259.08 211.217 259.048 211.22 259.017 211.22ZM253.03 201.336C252.816 202.653 252.543 207.398 258.854 210.612C259.343 209.467 260.598 205.049 253.03 201.336Z" fill="#9D9D9C"/>
<path d="M265.574 201.17C265.543 201.17 265.514 201.167 265.484 201.161C265.402 201.143 257.398 199.293 258.862 190.912C258.876 190.835 258.938 190.767 259.031 190.731C259.123 190.694 259.234 190.694 259.326 190.73C259.402 190.759 267.008 193.765 265.891 200.958C265.88 201.028 265.829 201.091 265.75 201.13C265.698 201.157 265.636 201.17 265.574 201.17ZM259.439 191.338C258.478 197.997 263.827 200.139 265.298 200.597C265.99 194.903 260.932 192.05 259.439 191.338Z" fill="#9D9D9C"/>
<path d="M265.636 201.175C265.567 201.175 265.499 201.158 265.444 201.127C265.369 201.084 265.322 201.019 265.317 200.948C264.767 193.718 272.595 191.054 272.674 191.028C272.769 190.997 272.879 191.002 272.969 191.042C273.058 191.083 273.115 191.154 273.122 191.231C273.926 199.662 265.79 201.155 265.707 201.169C265.684 201.173 265.66 201.175 265.636 201.175ZM272.513 191.63C270.966 192.274 265.69 194.9 265.938 200.619C267.459 200.242 272.961 198.404 272.513 191.63Z" fill="#9D9D9C"/>
<path d="M265.672 197.387C265.657 197.387 265.642 197.386 265.626 197.385C265.533 197.374 265.45 197.334 265.401 197.274C260.29 191.131 265.451 185.974 265.505 185.923C265.568 185.861 265.663 185.821 265.772 185.829C265.876 185.833 265.971 185.874 266.028 185.939C272.13 193.045 265.949 197.284 265.886 197.326C265.826 197.366 265.75 197.387 265.672 197.387ZM265.748 186.508C264.804 187.63 261.857 191.835 265.735 196.761C266.828 195.883 270.478 192.29 265.748 186.508Z" fill="#9D9D9C"/>
<path d="M265.593 233.136C265.417 233.136 265.273 233.028 265.273 232.896V200.396C265.273 200.264 265.417 200.156 265.593 200.156C265.77 200.156 265.913 200.264 265.913 200.396V232.896C265.914 233.028 265.771 233.136 265.593 233.136Z" fill="#9D9D9C"/>
<path d="M265.591 221.944C265.578 221.944 265.564 221.944 265.552 221.943C265.441 221.932 265.346 221.88 265.3 221.805L260.651 214.231C260.576 214.111 260.647 213.968 260.808 213.913C260.968 213.857 261.158 213.91 261.232 214.03L265.664 221.251L269.684 217.495C269.795 217.392 269.996 217.375 270.134 217.458C270.272 217.54 270.294 217.692 270.184 217.795L265.84 221.854C265.78 221.912 265.688 221.944 265.591 221.944Z" fill="#9D9D9C"/>
<path opacity="0.44" d="M13.6718 44.6734H112.43C112.43 44.6734 107.492 35.8408 101.32 35.47C95.1478 35.0998 93.419 37.9972 91.4438 37.72C89.4686 37.4422 86.259 30.0952 78.3582 29.725C70.4574 29.3548 67.3718 34.8934 63.051 35.9122C58.7302 36.9304 50.2126 36.367 43.5462 28.312C36.8798 20.257 24.239 28.8064 23.9182 35.0116C23.4238 44.5474 4.04297 38.6734 4.04297 44.6734H13.6718Z" fill="white"/>
<path opacity="0.44" d="M8.6288 144.276H107.387C107.387 144.276 102.449 135.532 96.2768 135.162C90.1048 134.792 88.376 137.734 86.4008 137.457C84.4256 137.179 81.216 129.855 73.3152 129.484C65.4144 129.114 62.3288 134.664 58.008 135.682C53.6872 136.701 45.1696 136.143 38.5032 128.088C31.8368 120.033 19.196 128.496 18.8752 134.7C18.3816 144.237 -1 138.876 -1 144.276H8.6288Z" fill="white"/>
<path opacity="0.44" d="M231.376 81.8733H330.134C330.134 81.8733 325.196 72.9081 319.024 72.5373C312.852 72.1671 311.123 74.9985 309.148 74.7207C307.172 74.4429 303.963 67.0629 296.062 66.6927C288.161 66.3225 285.076 71.8449 280.755 72.8631C276.434 73.8813 267.916 73.3095 261.25 65.2545C254.584 57.1995 241.943 65.8779 241.622 72.0825C241.128 81.6189 221.746 75.8733 221.746 81.8733H231.376Z" fill="white"/>
<path opacity="0.44" d="M256.062 150.275H354.821C354.821 150.275 349.883 141.509 343.71 141.139C337.538 140.769 335.81 143.701 333.834 143.423C331.859 143.145 328.65 135.815 320.749 135.445C312.848 135.074 309.762 140.621 305.442 141.64C301.121 142.658 292.603 142.099 285.937 134.044C279.27 125.989 266.63 134.473 266.309 140.678C265.815 150.215 246.434 144.875 246.434 150.275H256.062Z" fill="white"/>
<path opacity="0.44" d="M300.445 27.8766H399.204C399.204 27.8766 394.265 18.909 388.093 18.5388C381.921 18.1686 380.192 20.9988 378.217 20.721C376.242 20.4432 373.032 13.0626 365.132 12.6924C357.231 12.3222 354.145 17.844 349.824 18.8628C345.504 19.881 336.986 19.3092 330.32 11.2542C323.653 3.19918 311.012 11.8794 310.692 18.084C310.198 27.6204 290.816 21.8766 290.816 27.8766H300.445Z" fill="white"/>
<mask id="mask1_2968_1219" style="mask-type:luminance" maskUnits="userSpaceOnUse" x="0" y="204" width="400" height="98">
<path d="M400 204H0V301.616H400V204Z" fill="white"/>
</mask>
<g mask="url(#mask1_2968_1219)">
<path d="M437.159 278.296L-17.8281 240.773L-20.8932 261.68L434.094 299.202L437.159 278.296Z" fill="#FFCC00"/>
<path d="M-4.44841 263.035L-20.8828 261.68L-5.69161 241.773L10.7428 243.128L-4.44841 263.035Z" fill="black"/>
<path d="M28.3524 265.746L11.918 264.391L27.1092 244.484L43.5436 245.84L28.3524 265.746Z" fill="black"/>
<path d="M61.1571 268.449L44.7227 267.094L59.9147 247.188L76.3483 248.542L61.1571 268.449Z" fill="black"/>
<path d="M93.957 271.152L77.5234 269.797L92.7138 249.891L109.148 251.245L93.957 271.152Z" fill="black"/>
<path d="M126.763 273.855L110.328 272.501L125.519 252.594L141.954 253.949L126.763 273.855Z" fill="black"/>
<path d="M159.563 276.558L143.129 275.203L158.32 255.297L174.755 256.652L159.563 276.558Z" fill="black"/>
<path d="M192.364 279.262L175.93 277.907L191.121 258L207.555 259.355L192.364 279.262Z" fill="black"/>
<path d="M225.169 281.973L208.734 280.618L223.926 260.711L240.36 262.066L225.169 281.973Z" fill="black"/>
<path d="M257.97 284.676L241.535 283.32L256.726 263.414L273.16 264.769L257.97 284.676Z" fill="black"/>
<path d="M290.773 287.379L274.34 286.024L289.531 266.117L305.965 267.472L290.773 287.379Z" fill="black"/>
<path d="M323.575 290.082L307.141 288.727L322.332 268.82L338.766 270.176L323.575 290.082Z" fill="black"/>
<path d="M356.38 292.785L339.945 291.43L355.136 271.523L371.57 272.878L356.38 292.785Z" fill="black"/>
<path d="M389.18 295.488L372.746 294.133L387.937 274.227L404.372 275.581L389.18 295.488Z" fill="black"/>
</g>
<mask id="mask2_2968_1219" style="mask-type:luminance" maskUnits="userSpaceOnUse" x="0" y="204" width="400" height="98">
<path d="M400 204H0V301.616H400V204Z" fill="white"/>
</mask>
<g mask="url(#mask2_2968_1219)">
<path d="M431.994 237.297L-24 267.336L-21.5462 288.288L434.448 258.25L431.994 237.297Z" fill="#FFED00"/>
<path d="M340.647 254.704C340.647 255.892 339.364 256.854 337.78 256.854C336.197 256.854 334.914 255.892 334.914 254.704C334.914 253.517 336.197 252.555 337.78 252.555C339.363 252.555 340.647 253.517 340.647 254.704Z" fill="black"/>
<path d="M66.475 272.134C66.475 273.322 65.1918 274.284 63.6086 274.284C62.0254 274.284 60.7422 273.322 60.7422 272.134C60.7422 270.947 62.0254 269.984 63.6086 269.984C65.1918 269.984 66.475 270.947 66.475 272.134Z" fill="black"/>
<path d="M3.1432 265.55L0 286.87L11.476 286.114L14.9264 264.773L3.1432 265.55Z" fill="black"/>
<path d="M32.4791 263.565L29.3359 284.885L40.8119 284.129L44.2623 262.789L32.4791 263.565Z" fill="black"/>
<path d="M354.362 242.503L351.219 263.823L362.695 263.067L366.145 241.727L354.362 242.503Z" fill="black"/>
<path d="M383.694 240.518L380.551 261.838L392.027 261.082L395.476 239.742L383.694 240.518Z" fill="black"/>
</g>
<path d="M63.8699 129H62.0343C62.0343 130.156 62.0343 130.833 62.0343 131.989M63.8699 129H65.7449M63.8699 129V131.959M63.8699 145.252V131.959M62.0343 145.252C62.0343 140.092 62.0343 137.149 62.0343 131.989M62.0343 131.989L57.8047 131.959C57.8047 137.944 57.8047 141.299 57.8047 147.283V147.752M63.8699 131.959L66.0086 131.989" stroke="black"/>
<path d="M66.0156 144.767C69.5432 144.767 72.4029 141.907 72.4029 138.38C72.4029 134.852 69.5432 131.992 66.0156 131.992" stroke="black"/>
<path d="M65.7483 129H66.012C71.1902 129 75.3879 133.198 75.3879 138.376C75.3879 143.554 71.1902 147.752 66.012 147.752H57.8081H56V131.544" stroke="black"/>
<path d="M81.503 134.408C82.1217 134.408 82.6524 134.52 83.095 134.744C83.5377 134.968 83.8764 135.291 84.111 135.712C84.3457 136.133 84.463 136.635 84.463 137.216C84.463 137.792 84.3457 138.291 84.111 138.712C83.8764 139.128 83.5377 139.448 83.095 139.672C82.6524 139.891 82.1217 140 81.503 140H79.847V134.408H81.503ZM81.503 139.536C82.2817 139.536 82.8737 139.333 83.279 138.928C83.6897 138.517 83.895 137.947 83.895 137.216C83.895 136.48 83.6897 135.907 83.279 135.496C82.8737 135.08 82.2817 134.872 81.503 134.872H80.407V139.536H81.503ZM85.2395 137.808C85.2395 137.36 85.3275 136.968 85.5035 136.632C85.6848 136.291 85.9328 136.029 86.2475 135.848C86.5675 135.661 86.9275 135.568 87.3275 135.568C87.7435 135.568 88.1008 135.664 88.3995 135.856C88.7035 136.048 88.9221 136.293 89.0555 136.592V135.632H89.6155V140H89.0555V139.032C88.9168 139.331 88.6955 139.579 88.3915 139.776C88.0928 139.968 87.7355 140.064 87.3195 140.064C86.9248 140.064 86.5675 139.971 86.2475 139.784C85.9328 139.597 85.6848 139.333 85.5035 138.992C85.3275 138.651 85.2395 138.256 85.2395 137.808ZM89.0555 137.816C89.0555 137.464 88.9835 137.155 88.8395 136.888C88.6955 136.621 88.4981 136.416 88.2475 136.272C88.0021 136.128 87.7301 136.056 87.4315 136.056C87.1221 136.056 86.8448 136.125 86.5995 136.264C86.3541 136.403 86.1595 136.605 86.0155 136.872C85.8768 137.133 85.8075 137.445 85.8075 137.808C85.8075 138.165 85.8768 138.48 86.0155 138.752C86.1595 139.019 86.3541 139.224 86.5995 139.368C86.8448 139.507 87.1221 139.576 87.4315 139.576C87.7301 139.576 88.0021 139.504 88.2475 139.36C88.4981 139.216 88.6955 139.011 88.8395 138.744C88.9835 138.477 89.0555 138.168 89.0555 137.816ZM92.9419 135.552C93.4646 135.552 93.8912 135.715 94.2219 136.04C94.5526 136.36 94.7179 136.827 94.7179 137.44V140H94.1659V137.504C94.1659 137.029 94.0459 136.667 93.8059 136.416C93.5712 136.165 93.2486 136.04 92.8379 136.04C92.4166 136.04 92.0806 136.173 91.8299 136.44C91.5792 136.707 91.4539 137.099 91.4539 137.616V140H90.8939V135.632H91.4539V136.376C91.5926 136.109 91.7926 135.907 92.0539 135.768C92.3152 135.624 92.6112 135.552 92.9419 135.552ZM96.2364 134.808C96.1244 134.808 96.0284 134.768 95.9484 134.688C95.8684 134.608 95.8284 134.509 95.8284 134.392C95.8284 134.275 95.8684 134.179 95.9484 134.104C96.0284 134.024 96.1244 133.984 96.2364 133.984C96.3484 133.984 96.4444 134.024 96.5244 134.104C96.6044 134.179 96.6444 134.275 96.6444 134.392C96.6444 134.509 96.6044 134.608 96.5244 134.688C96.4444 134.768 96.3484 134.808 96.2364 134.808ZM96.5164 135.632V140H95.9564V135.632H96.5164ZM98.3445 134.08V140H97.7845V134.08H98.3445ZM101.525 140.064C101.114 140.064 100.743 139.973 100.413 139.792C100.087 139.605 99.8287 139.344 99.6367 139.008C99.45 138.667 99.3567 138.269 99.3567 137.816C99.3567 137.363 99.4527 136.968 99.6447 136.632C99.8367 136.291 100.098 136.029 100.429 135.848C100.759 135.661 101.13 135.568 101.541 135.568C101.951 135.568 102.322 135.661 102.653 135.848C102.989 136.029 103.25 136.291 103.437 136.632C103.629 136.968 103.725 137.363 103.725 137.816C103.725 138.264 103.629 138.659 103.437 139C103.245 139.341 102.981 139.605 102.645 139.792C102.309 139.973 101.935 140.064 101.525 140.064ZM101.525 139.576C101.813 139.576 102.079 139.512 102.325 139.384C102.57 139.251 102.767 139.053 102.917 138.792C103.071 138.525 103.149 138.2 103.149 137.816C103.149 137.432 103.074 137.109 102.925 136.848C102.775 136.581 102.578 136.384 102.333 136.256C102.087 136.123 101.821 136.056 101.533 136.056C101.245 136.056 100.978 136.123 100.733 136.256C100.487 136.384 100.29 136.581 100.141 136.848C99.9967 137.109 99.9247 137.432 99.9247 137.816C99.9247 138.2 99.9967 138.525 100.141 138.792C100.29 139.053 100.485 139.251 100.725 139.384C100.97 139.512 101.237 139.576 101.525 139.576ZM107.501 139.544H109.509V140H106.941V134.408H107.501V139.544ZM110.588 134.808C110.476 134.808 110.38 134.768 110.3 134.688C110.22 134.608 110.18 134.509 110.18 134.392C110.18 134.275 110.22 134.179 110.3 134.104C110.38 134.024 110.476 133.984 110.588 133.984C110.7 133.984 110.796 134.024 110.876 134.104C110.956 134.179 110.996 134.275 110.996 134.392C110.996 134.509 110.956 134.608 110.876 134.688C110.796 134.768 110.7 134.808 110.588 134.808ZM110.868 135.632V140H110.308V135.632H110.868ZM112.696 136.408C112.819 136.136 113.005 135.925 113.256 135.776C113.512 135.627 113.824 135.552 114.192 135.552V136.136H114.04C113.635 136.136 113.309 136.245 113.064 136.464C112.819 136.683 112.696 137.048 112.696 137.56V140H112.136V135.632H112.696V136.408ZM114.779 137.808C114.779 137.36 114.867 136.968 115.043 136.632C115.224 136.291 115.472 136.029 115.787 135.848C116.107 135.661 116.467 135.568 116.867 135.568C117.283 135.568 117.64 135.664 117.939 135.856C118.243 136.048 118.461 136.293 118.595 136.592V135.632H119.155V140H118.595V139.032C118.456 139.331 118.235 139.579 117.931 139.776C117.632 139.968 117.275 140.064 116.859 140.064C116.464 140.064 116.107 139.971 115.787 139.784C115.472 139.597 115.224 139.333 115.043 138.992C114.867 138.651 114.779 138.256 114.779 137.808ZM118.595 137.816C118.595 137.464 118.523 137.155 118.379 136.888C118.235 136.621 118.037 136.416 117.787 136.272C117.541 136.128 117.269 136.056 116.971 136.056C116.661 136.056 116.384 136.125 116.139 136.264C115.893 136.403 115.699 136.605 115.555 136.872C115.416 137.133 115.347 137.445 115.347 137.808C115.347 138.165 115.416 138.48 115.555 138.752C115.699 139.019 115.893 139.224 116.139 139.368C116.384 139.507 116.661 139.576 116.971 139.576C117.269 139.576 117.541 139.504 117.787 139.36C118.037 139.216 118.235 139.011 118.379 138.744C118.523 138.477 118.595 138.168 118.595 137.816Z" fill="black"/>
<path d="M84.8842 143.502H83.9302L83.7472 144H83.5252L84.2902 141.93H84.5272L85.2892 144H85.0672L84.8842 143.502ZM84.8212 143.328L84.4072 142.194L83.9932 143.328H84.8212ZM87.0452 142.362V144H86.8352V143.712C86.7872 143.814 86.7132 143.892 86.6132 143.946C86.5132 144 86.4012 144.027 86.2772 144.027C86.0812 144.027 85.9212 143.967 85.7972 143.847C85.6732 143.725 85.6112 143.549 85.6112 143.319V142.362H85.8182V143.295C85.8182 143.473 85.8622 143.609 85.9502 143.703C86.0402 143.797 86.1622 143.844 86.3162 143.844C86.4742 143.844 86.6002 143.794 86.6942 143.694C86.7882 143.594 86.8352 143.447 86.8352 143.253V142.362H87.0452ZM87.7977 142.539V143.556C87.7977 143.656 87.8167 143.725 87.8547 143.763C87.8927 143.801 87.9597 143.82 88.0557 143.82H88.2477V144H88.0227C87.8747 144 87.7647 143.966 87.6927 143.898C87.6207 143.828 87.5847 143.714 87.5847 143.556V142.539H87.3567V142.362H87.5847V141.951H87.7977V142.362H88.2477V142.539H87.7977ZM89.311 144.024C89.157 144.024 89.018 143.99 88.894 143.922C88.772 143.852 88.675 143.754 88.603 143.628C88.533 143.5 88.498 143.351 88.498 143.181C88.498 143.011 88.534 142.863 88.606 142.737C88.678 142.609 88.776 142.511 88.9 142.443C89.024 142.373 89.163 142.338 89.317 142.338C89.471 142.338 89.61 142.373 89.734 142.443C89.86 142.511 89.958 142.609 90.028 142.737C90.1 142.863 90.136 143.011 90.136 143.181C90.136 143.349 90.1 143.497 90.028 143.625C89.956 143.753 89.857 143.852 89.731 143.922C89.605 143.99 89.465 144.024 89.311 144.024ZM89.311 143.841C89.419 143.841 89.519 143.817 89.611 143.769C89.703 143.719 89.777 143.645 89.833 143.547C89.891 143.447 89.92 143.325 89.92 143.181C89.92 143.037 89.892 142.916 89.836 142.818C89.78 142.718 89.706 142.644 89.614 142.596C89.522 142.546 89.422 142.521 89.314 142.521C89.206 142.521 89.106 142.546 89.014 142.596C88.922 142.644 88.848 142.718 88.792 142.818C88.738 142.916 88.711 143.037 88.711 143.181C88.711 143.325 88.738 143.447 88.792 143.547C88.848 143.645 88.921 143.719 89.011 143.769C89.103 143.817 89.203 143.841 89.311 143.841ZM92.4688 142.332C92.6608 142.332 92.8168 142.393 92.9368 142.515C93.0588 142.635 93.1198 142.81 93.1198 143.04V144H92.9128V143.064C92.9128 142.886 92.8698 142.75 92.7838 142.656C92.6978 142.562 92.5808 142.515 92.4328 142.515C92.2788 142.515 92.1558 142.566 92.0638 142.668C91.9718 142.77 91.9258 142.918 91.9258 143.112V144H91.7188V143.064C91.7188 142.886 91.6758 142.75 91.5898 142.656C91.5038 142.562 91.3858 142.515 91.2358 142.515C91.0818 142.515 90.9588 142.566 90.8668 142.668C90.7748 142.77 90.7288 142.918 90.7288 143.112V144H90.5188V142.362H90.7288V142.644C90.7808 142.542 90.8548 142.465 90.9508 142.413C91.0468 142.359 91.1538 142.332 91.2718 142.332C91.4138 142.332 91.5378 142.366 91.6438 142.434C91.7518 142.502 91.8298 142.602 91.8778 142.734C91.9218 142.604 91.9968 142.505 92.1028 142.437C92.2108 142.367 92.3328 142.332 92.4688 142.332ZM93.4902 143.178C93.4902 143.01 93.5232 142.863 93.5892 142.737C93.6572 142.609 93.7502 142.511 93.8682 142.443C93.9882 142.373 94.1232 142.338 94.2732 142.338C94.4292 142.338 94.5632 142.374 94.6752 142.446C94.7892 142.518 94.8712 142.61 94.9212 142.722V142.362H95.1312V144H94.9212V143.637C94.8692 143.749 94.7862 143.842 94.6722 143.916C94.5602 143.988 94.4262 144.024 94.2702 144.024C94.1222 144.024 93.9882 143.989 93.8682 143.919C93.7502 143.849 93.6572 143.75 93.5892 143.622C93.5232 143.494 93.4902 143.346 93.4902 143.178ZM94.9212 143.181C94.9212 143.049 94.8942 142.933 94.8402 142.833C94.7862 142.733 94.7122 142.656 94.6182 142.602C94.5262 142.548 94.4242 142.521 94.3122 142.521C94.1962 142.521 94.0922 142.547 94.0002 142.599C93.9082 142.651 93.8352 142.727 93.7812 142.827C93.7292 142.925 93.7032 143.042 93.7032 143.178C93.7032 143.312 93.7292 143.43 93.7812 143.532C93.8352 143.632 93.9082 143.709 94.0002 143.763C94.0922 143.815 94.1962 143.841 94.3122 143.841C94.4242 143.841 94.5262 143.814 94.6182 143.76C94.7122 143.706 94.7862 143.629 94.8402 143.529C94.8942 143.429 94.9212 143.313 94.9212 143.181ZM96.3096 143.847C96.4476 143.847 96.5626 143.814 96.6546 143.748C96.7486 143.68 96.8096 143.586 96.8376 143.466H97.0626C97.0266 143.624 96.9486 143.753 96.8286 143.853C96.7106 143.953 96.5606 144.009 96.3786 144.021V144.201C96.4966 144.197 96.5896 144.219 96.6576 144.267C96.7276 144.317 96.7626 144.388 96.7626 144.48C96.7626 144.57 96.7306 144.641 96.6666 144.693C96.6026 144.747 96.5176 144.774 96.4116 144.774H96.1116V144.633H96.3696C96.4436 144.633 96.4976 144.62 96.5316 144.594C96.5676 144.57 96.5856 144.532 96.5856 144.48C96.5856 144.384 96.5136 144.336 96.3696 144.336H96.2316V144.021C96.0916 144.009 95.9676 143.968 95.8596 143.898C95.7516 143.826 95.6666 143.729 95.6046 143.607C95.5446 143.483 95.5146 143.341 95.5146 143.181C95.5146 143.011 95.5486 142.863 95.6166 142.737C95.6846 142.609 95.7786 142.511 95.8986 142.443C96.0186 142.373 96.1556 142.338 96.3096 142.338C96.5116 142.338 96.6776 142.388 96.8076 142.488C96.9396 142.588 97.0246 142.724 97.0626 142.896H96.8376C96.8096 142.778 96.7486 142.686 96.6546 142.62C96.5626 142.552 96.4476 142.518 96.3096 142.518C96.1996 142.518 96.1006 142.543 96.0126 142.593C95.9246 142.643 95.8546 142.718 95.8026 142.818C95.7526 142.916 95.7276 143.037 95.7276 143.181C95.7276 143.325 95.7526 143.447 95.8026 143.547C95.8546 143.647 95.9246 143.722 96.0126 143.772C96.1006 143.822 96.1996 143.847 96.3096 143.847ZM97.3544 143.178C97.3544 143.01 97.3874 142.863 97.4534 142.737C97.5214 142.609 97.6144 142.511 97.7324 142.443C97.8524 142.373 97.9874 142.338 98.1374 142.338C98.2934 142.338 98.4274 142.374 98.5394 142.446C98.6534 142.518 98.7354 142.61 98.7854 142.722V142.362H98.9954V144H98.7854V143.637C98.7334 143.749 98.6504 143.842 98.5364 143.916C98.4244 143.988 98.2904 144.024 98.1344 144.024C97.9864 144.024 97.8524 143.989 97.7324 143.919C97.6144 143.849 97.5214 143.75 97.4534 143.622C97.3874 143.494 97.3544 143.346 97.3544 143.178ZM98.7854 143.181C98.7854 143.049 98.7584 142.933 98.7044 142.833C98.6504 142.733 98.5764 142.656 98.4824 142.602C98.3904 142.548 98.2884 142.521 98.1764 142.521C98.0604 142.521 97.9564 142.547 97.8644 142.599C97.7724 142.651 97.6994 142.727 97.6454 142.827C97.5934 142.925 97.5674 143.042 97.5674 143.178C97.5674 143.312 97.5934 143.43 97.6454 143.532C97.6994 143.632 97.7724 143.709 97.8644 143.763C97.9564 143.815 98.0604 143.841 98.1764 143.841C98.2884 143.841 98.3904 143.814 98.4824 143.76C98.5764 143.706 98.6504 143.629 98.7044 143.529C98.7584 143.429 98.7854 143.313 98.7854 143.181ZM97.8314 142.182C97.8434 142.092 97.8724 142.023 97.9184 141.975C97.9644 141.927 98.0234 141.903 98.0954 141.903C98.1314 141.903 98.1624 141.91 98.1884 141.924C98.2144 141.936 98.2454 141.954 98.2814 141.978C98.3114 142 98.3374 142.017 98.3594 142.029C98.3814 142.039 98.4054 142.044 98.4314 142.044C98.4654 142.044 98.4944 142.033 98.5184 142.011C98.5424 141.987 98.5574 141.953 98.5634 141.909H98.6894C98.6814 141.997 98.6524 142.066 98.6024 142.116C98.5544 142.164 98.4944 142.188 98.4224 142.188C98.3844 142.188 98.3514 142.182 98.3234 142.17C98.2974 142.156 98.2664 142.136 98.2304 142.11C98.2024 142.088 98.1774 142.072 98.1554 142.062C98.1354 142.052 98.1124 142.047 98.0864 142.047C98.0144 142.047 97.9724 142.092 97.9604 142.182H97.8314ZM100.192 144.024C100.038 144.024 99.8989 143.99 99.7749 143.922C99.6529 143.852 99.5559 143.754 99.4839 143.628C99.4139 143.5 99.3789 143.351 99.3789 143.181C99.3789 143.011 99.4149 142.863 99.4869 142.737C99.5589 142.609 99.6569 142.511 99.7809 142.443C99.9049 142.373 100.044 142.338 100.198 142.338C100.352 142.338 100.491 142.373 100.615 142.443C100.741 142.511 100.839 142.609 100.909 142.737C100.981 142.863 101.017 143.011 101.017 143.181C101.017 143.349 100.981 143.497 100.909 143.625C100.837 143.753 100.738 143.852 100.612 143.922C100.486 143.99 100.346 144.024 100.192 144.024ZM100.192 143.841C100.3 143.841 100.4 143.817 100.492 143.769C100.584 143.719 100.658 143.645 100.714 143.547C100.772 143.447 100.801 143.325 100.801 143.181C100.801 143.037 100.773 142.916 100.717 142.818C100.661 142.718 100.587 142.644 100.495 142.596C100.403 142.546 100.303 142.521 100.195 142.521C100.087 142.521 99.9869 142.546 99.8949 142.596C99.8029 142.644 99.7289 142.718 99.6729 142.818C99.6189 142.916 99.5919 143.037 99.5919 143.181C99.5919 143.325 99.6189 143.447 99.6729 143.547C99.7289 143.645 99.8019 143.719 99.8919 143.769C99.9839 143.817 100.084 143.841 100.192 143.841ZM102.433 141.903V144H102.223V141.903H102.433ZM103.676 142.332C103.872 142.332 104.032 142.393 104.156 142.515C104.28 142.635 104.342 142.81 104.342 143.04V144H104.135V143.064C104.135 142.886 104.09 142.75 104 142.656C103.912 142.562 103.791 142.515 103.637 142.515C103.479 142.515 103.353 142.565 103.259 142.665C103.165 142.765 103.118 142.912 103.118 143.106V144H102.908V142.362H103.118V142.641C103.17 142.541 103.245 142.465 103.343 142.413C103.441 142.359 103.552 142.332 103.676 142.332ZM104.711 143.178C104.711 143.01 104.745 142.863 104.813 142.737C104.881 142.609 104.974 142.511 105.092 142.443C105.212 142.373 105.347 142.338 105.497 142.338C105.641 142.338 105.771 142.373 105.887 142.443C106.003 142.513 106.088 142.604 106.142 142.716V141.78H106.352V144H106.142V143.634C106.092 143.748 106.01 143.842 105.896 143.916C105.782 143.988 105.648 144.024 105.494 144.024C105.344 144.024 105.209 143.989 105.089 143.919C104.971 143.849 104.878 143.75 104.81 143.622C104.744 143.494 104.711 143.346 104.711 143.178ZM106.142 143.181C106.142 143.049 106.115 142.933 106.061 142.833C106.007 142.733 105.933 142.656 105.839 142.602C105.747 142.548 105.645 142.521 105.533 142.521C105.417 142.521 105.313 142.547 105.221 142.599C105.129 142.651 105.056 142.727 105.002 142.827C104.95 142.925 104.924 143.042 104.924 143.178C104.924 143.312 104.95 143.43 105.002 143.532C105.056 143.632 105.129 143.709 105.221 143.763C105.313 143.815 105.417 143.841 105.533 143.841C105.645 143.841 105.747 143.814 105.839 143.76C105.933 143.706 106.007 143.629 106.061 143.529C106.115 143.429 106.142 143.313 106.142 143.181ZM108.25 142.362V144H108.04V143.712C107.992 143.814 107.918 143.892 107.818 143.946C107.718 144 107.606 144.027 107.482 144.027C107.286 144.027 107.126 143.967 107.002 143.847C106.878 143.725 106.816 143.549 106.816 143.319V142.362H107.023V143.295C107.023 143.473 107.067 143.609 107.155 143.703C107.245 143.797 107.367 143.844 107.521 143.844C107.679 143.844 107.805 143.794 107.899 143.694C107.993 143.594 108.04 143.447 108.04 143.253V142.362H108.25ZM109.294 144.024C109.106 144.024 108.952 143.981 108.832 143.895C108.714 143.807 108.648 143.688 108.634 143.538H108.85C108.86 143.63 108.903 143.705 108.979 143.763C109.057 143.819 109.161 143.847 109.291 143.847C109.405 143.847 109.494 143.82 109.558 143.766C109.624 143.712 109.657 143.645 109.657 143.565C109.657 143.509 109.639 143.463 109.603 143.427C109.567 143.391 109.521 143.363 109.465 143.343C109.411 143.321 109.337 143.298 109.243 143.274C109.121 143.242 109.022 143.21 108.946 143.178C108.87 143.146 108.805 143.099 108.751 143.037C108.699 142.973 108.673 142.888 108.673 142.782C108.673 142.702 108.697 142.628 108.745 142.56C108.793 142.492 108.861 142.438 108.949 142.398C109.037 142.358 109.137 142.338 109.249 142.338C109.425 142.338 109.567 142.383 109.675 142.473C109.783 142.561 109.841 142.683 109.849 142.839H109.639C109.633 142.743 109.595 142.666 109.525 142.608C109.457 142.548 109.363 142.518 109.243 142.518C109.137 142.518 109.051 142.543 108.985 142.593C108.919 142.643 108.886 142.705 108.886 142.779C108.886 142.843 108.905 142.896 108.943 142.938C108.983 142.978 109.032 143.01 109.09 143.034C109.148 143.056 109.226 143.081 109.324 143.109C109.442 143.141 109.536 143.172 109.606 143.202C109.676 143.232 109.736 143.276 109.786 143.334C109.836 143.392 109.862 143.469 109.864 143.565C109.864 143.653 109.84 143.732 109.792 143.802C109.744 143.87 109.677 143.924 109.591 143.964C109.505 144.004 109.406 144.024 109.294 144.024ZM110.532 142.539V143.556C110.532 143.656 110.551 143.725 110.589 143.763C110.627 143.801 110.694 143.82 110.79 143.82H110.982V144H110.757C110.609 144 110.499 143.966 110.427 143.898C110.355 143.828 110.319 143.714 110.319 143.556V142.539H110.091V142.362H110.319V141.951H110.532V142.362H110.982V142.539H110.532ZM111.538 142.653C111.584 142.551 111.654 142.472 111.748 142.416C111.844 142.36 111.961 142.332 112.099 142.332V142.551H112.042C111.89 142.551 111.768 142.592 111.676 142.674C111.584 142.756 111.538 142.893 111.538 143.085V144H111.328V142.362H111.538V142.653ZM112.52 142.053C112.478 142.053 112.442 142.038 112.412 142.008C112.382 141.978 112.367 141.941 112.367 141.897C112.367 141.853 112.382 141.817 112.412 141.789C112.442 141.759 112.478 141.744 112.52 141.744C112.562 141.744 112.598 141.759 112.628 141.789C112.658 141.817 112.673 141.853 112.673 141.897C112.673 141.941 112.658 141.978 112.628 142.008C112.598 142.038 112.562 142.053 112.52 142.053ZM112.625 142.362V144H112.415V142.362H112.625ZM113.005 143.178C113.005 143.01 113.038 142.863 113.104 142.737C113.172 142.609 113.265 142.511 113.383 142.443C113.503 142.373 113.638 142.338 113.788 142.338C113.944 142.338 114.078 142.374 114.19 142.446C114.304 142.518 114.386 142.61 114.436 142.722V142.362H114.646V144H114.436V143.637C114.384 143.749 114.301 143.842 114.187 143.916C114.075 143.988 113.941 144.024 113.785 144.024C113.637 144.024 113.503 143.989 113.383 143.919C113.265 143.849 113.172 143.75 113.104 143.622C113.038 143.494 113.005 143.346 113.005 143.178ZM114.436 143.181C114.436 143.049 114.409 142.933 114.355 142.833C114.301 142.733 114.227 142.656 114.133 142.602C114.041 142.548 113.939 142.521 113.827 142.521C113.711 142.521 113.607 142.547 113.515 142.599C113.423 142.651 113.35 142.727 113.296 142.827C113.244 142.925 113.218 143.042 113.218 143.178C113.218 143.312 113.244 143.43 113.296 143.532C113.35 143.632 113.423 143.709 113.515 143.763C113.607 143.815 113.711 143.841 113.827 143.841C113.939 143.841 114.041 143.814 114.133 143.76C114.227 143.706 114.301 143.629 114.355 143.529C114.409 143.429 114.436 143.313 114.436 143.181ZM115.335 141.78V144H115.125V141.78H115.335Z" fill="black"/>
<path d="M104.667 267.755C104.713 268.314 104.62 268.848 104.391 269.358C104.171 269.867 103.789 270.295 103.245 270.64C102.711 270.984 102.016 271.19 101.159 271.26L99.4093 271.401L99.7334 275.408L97.6403 275.578L96.796 265.142L100.638 264.831C101.446 264.766 102.145 264.849 102.736 265.083C103.326 265.316 103.781 265.665 104.1 266.131C104.428 266.596 104.617 267.137 104.667 267.755ZM100.932 269.578C101.51 269.531 101.928 269.367 102.187 269.085C102.444 268.793 102.553 268.408 102.514 267.93C102.432 266.913 101.823 266.451 100.687 266.543L99.0271 266.677L99.2726 269.712L100.932 269.578ZM108.264 267.675C108.497 267.215 108.818 266.843 109.227 266.559C109.645 266.274 110.133 266.109 110.692 266.064L110.869 268.262L110.316 268.307C109.658 268.36 109.173 268.555 108.859 268.891C108.555 269.227 108.434 269.778 108.496 270.546L108.83 274.672L106.737 274.842L106.066 266.559L108.16 266.389L108.264 267.675ZM116.47 274.19C115.673 274.254 114.941 274.138 114.275 273.841C113.608 273.533 113.064 273.071 112.643 272.453C112.231 271.834 111.991 271.101 111.923 270.254C111.854 269.406 111.978 268.644 112.295 267.966C112.621 267.288 113.094 266.748 113.714 266.346C114.333 265.935 115.041 265.697 115.838 265.633C116.635 265.568 117.373 265.689 118.05 265.996C118.726 266.292 119.274 266.749 119.695 267.367C120.127 267.985 120.377 268.717 120.445 269.564C120.514 270.411 120.38 271.175 120.043 271.854C119.717 272.532 119.239 273.078 118.611 273.49C117.991 273.891 117.277 274.124 116.47 274.19ZM116.323 272.366C116.701 272.335 117.048 272.217 117.362 272.011C117.686 271.794 117.932 271.493 118.102 271.108C118.271 270.723 118.335 270.267 118.292 269.738C118.228 268.951 117.97 268.365 117.518 267.98C117.074 267.584 116.554 267.411 115.956 267.459C115.358 267.508 114.872 267.763 114.498 268.224C114.133 268.675 113.982 269.294 114.046 270.082C114.11 270.869 114.353 271.462 114.777 271.859C115.209 272.245 115.724 272.414 116.323 272.366ZM122.627 264.226C122.248 264.256 121.925 264.167 121.657 263.958C121.399 263.738 121.255 263.454 121.227 263.105C121.199 262.756 121.295 262.457 121.516 262.209C121.746 261.949 122.05 261.804 122.429 261.774C122.798 261.744 123.111 261.839 123.37 262.059C123.628 262.269 123.771 262.548 123.799 262.897C123.827 263.246 123.731 263.55 123.511 263.808C123.291 264.057 122.996 264.196 122.627 264.226ZM124.519 274.773C124.593 275.69 124.417 276.366 123.991 276.802C123.575 277.247 122.944 277.503 122.097 277.572L121.17 277.647L121.026 275.868L121.624 275.819C121.943 275.794 122.162 275.711 122.281 275.571C122.401 275.441 122.449 275.236 122.427 274.957L121.645 265.298L123.739 265.129L124.519 274.773ZM133.827 268.301C133.851 268.6 133.853 268.871 133.833 269.113L127.777 269.603C127.876 270.197 128.123 270.649 128.519 270.958C128.915 271.267 129.382 271.399 129.921 271.356C130.698 271.293 131.224 270.914 131.499 270.22L133.757 270.037C133.582 270.854 133.177 271.549 132.541 272.122C131.904 272.685 131.093 273.007 130.106 273.087C129.308 273.151 128.577 273.035 127.91 272.737C127.254 272.429 126.719 271.966 126.308 271.347C125.907 270.727 125.672 269.994 125.603 269.147C125.534 268.29 125.648 267.523 125.944 266.847C126.241 266.171 126.689 265.633 127.288 265.233C127.888 264.834 128.597 264.601 129.414 264.535C130.201 264.471 130.918 264.583 131.563 264.872C132.219 265.16 132.741 265.605 133.131 266.205C133.53 266.795 133.762 267.494 133.827 268.301ZM131.611 267.878C131.557 267.341 131.328 266.928 130.924 266.64C130.518 266.341 130.041 266.214 129.493 266.259C128.975 266.301 128.549 266.496 128.216 266.844C127.892 267.181 127.713 267.632 127.679 268.196L131.611 267.878ZM137.61 265.737L137.935 269.744C137.957 270.023 138.038 270.223 138.179 270.342C138.328 270.45 138.562 270.491 138.881 270.465L139.853 270.387L139.995 272.151L138.68 272.258C136.915 272.4 135.964 271.614 135.825 269.9L135.502 265.908L134.516 265.988L134.376 264.268L135.363 264.189L135.198 262.14L137.306 261.97L137.471 264.018L139.325 263.868L139.464 265.588L137.61 265.737ZM145.19 271.866C144.392 271.931 143.661 271.814 142.994 271.517C142.328 271.21 141.783 270.747 141.362 270.129C140.951 269.51 140.711 268.777 140.643 267.93C140.574 267.083 140.698 266.32 141.014 265.643C141.341 264.964 141.814 264.424 142.433 264.023C143.052 263.612 143.76 263.374 144.558 263.309C145.355 263.245 146.092 263.366 146.769 263.672C147.445 263.969 147.994 264.426 148.415 265.044C148.846 265.661 149.096 266.393 149.165 267.241C149.233 268.088 149.099 268.851 148.763 269.531C148.437 270.209 147.959 270.754 147.33 271.166C146.711 271.568 145.997 271.801 145.19 271.866ZM145.042 270.042C145.421 270.012 145.768 269.893 146.082 269.687C146.406 269.47 146.652 269.17 146.822 268.785C146.991 268.4 147.054 267.943 147.012 267.415C146.948 266.627 146.69 266.041 146.237 265.657C145.794 265.261 145.273 265.087 144.675 265.136C144.077 265.184 143.591 265.439 143.217 265.901C142.852 266.352 142.702 266.971 142.766 267.758C142.829 268.546 143.073 269.138 143.496 269.535C143.929 269.922 144.444 270.091 145.042 270.042ZM161.948 266.026C161.972 266.325 161.974 266.596 161.954 266.838L155.898 267.328C155.997 267.922 156.244 268.374 156.64 268.683C157.036 268.992 157.503 269.124 158.042 269.081C158.819 269.018 159.345 268.639 159.62 267.945L161.878 267.762C161.703 268.579 161.298 269.274 160.662 269.847C160.025 270.41 159.214 270.732 158.227 270.812C157.429 270.876 156.698 270.76 156.032 270.462C155.375 270.154 154.84 269.691 154.429 269.072C154.028 268.452 153.793 267.719 153.724 266.872C153.655 266.015 153.769 265.248 154.065 264.572C154.362 263.896 154.81 263.358 155.409 262.958C156.009 262.559 156.718 262.326 157.535 262.26C158.322 262.196 159.039 262.308 159.684 262.597C160.34 262.885 160.862 263.33 161.252 263.93C161.651 264.52 161.883 265.219 161.948 266.026ZM159.732 265.603C159.678 265.066 159.449 264.653 159.045 264.365C158.639 264.066 158.162 263.939 157.614 263.984C157.096 264.026 156.67 264.221 156.337 264.569C156.013 264.906 155.834 265.357 155.8 265.921L159.732 265.603ZM173.432 260.988C174.449 260.906 175.291 261.154 175.96 261.732C176.638 262.299 177.022 263.141 177.113 264.257L177.506 269.116L175.413 269.286L175.042 264.711C174.99 264.063 174.786 263.583 174.429 263.271C174.072 262.948 173.609 262.81 173.041 262.856C172.473 262.902 172.034 263.113 171.723 263.489C171.422 263.855 171.297 264.362 171.349 265.01L171.72 269.585L169.626 269.754L169.256 265.179C169.204 264.531 169 264.051 168.643 263.739C168.286 263.416 167.823 263.278 167.255 263.324C166.677 263.371 166.233 263.582 165.922 263.959C165.621 264.324 165.496 264.831 165.548 265.479L165.919 270.054L163.825 270.223L163.155 261.94L165.248 261.771L165.33 262.773C165.57 262.402 165.892 262.1 166.295 261.867C166.707 261.633 167.167 261.495 167.676 261.454C168.324 261.402 168.913 261.495 169.444 261.732C169.974 261.96 170.399 262.317 170.72 262.803C170.95 262.303 171.308 261.888 171.793 261.558C172.287 261.227 172.834 261.037 173.432 260.988ZM185.858 257.937C186.955 257.848 187.934 257.984 188.796 258.346C189.668 258.707 190.36 259.268 190.873 260.029C191.396 260.779 191.699 261.678 191.784 262.724C191.868 263.771 191.713 264.706 191.319 265.531C190.933 266.345 190.339 267 189.536 267.496C188.744 267.992 187.799 268.284 186.703 268.372L183.055 268.668L182.21 258.232L185.858 257.937ZM186.484 266.599C187.58 266.511 188.403 266.143 188.953 265.497C189.503 264.85 189.734 263.984 189.646 262.897C189.558 261.811 189.19 260.988 188.543 260.428C187.895 259.859 187.023 259.618 185.926 259.707L184.446 259.827L185.004 266.719L186.484 266.599ZM201.122 262.857C201.146 263.156 201.148 263.427 201.127 263.669L195.072 264.159C195.17 264.753 195.418 265.204 195.814 265.513C196.21 265.822 196.677 265.955 197.215 265.912C197.993 265.849 198.519 265.47 198.794 264.776L201.052 264.593C200.877 265.41 200.472 266.105 199.836 266.678C199.199 267.241 198.387 267.563 197.401 267.642C196.603 267.707 195.871 267.591 195.205 267.293C194.548 266.985 194.014 266.522 193.603 265.903C193.202 265.283 192.967 264.55 192.898 263.703C192.829 262.845 192.942 262.079 193.239 261.403C193.535 260.727 193.983 260.189 194.583 259.789C195.183 259.389 195.891 259.156 196.709 259.09C197.496 259.027 198.213 259.139 198.858 259.428C199.513 259.716 200.036 260.161 200.426 260.761C200.824 261.351 201.056 262.049 201.122 262.857ZM198.905 262.434C198.852 261.897 198.623 261.484 198.218 261.195C197.813 260.897 197.336 260.77 196.788 260.815C196.27 260.857 195.844 261.051 195.511 261.399C195.187 261.737 195.008 262.188 194.973 262.752L198.905 262.434ZM206.18 266.932C205.502 266.987 204.884 266.917 204.327 266.721C203.768 266.515 203.313 266.216 202.96 265.823C202.617 265.43 202.41 264.98 202.339 264.474L204.447 264.303C204.513 264.619 204.689 264.871 204.975 265.058C205.271 265.245 205.623 265.322 206.032 265.289C206.43 265.257 206.733 265.152 206.939 264.975C207.156 264.797 207.254 264.583 207.234 264.334C207.212 264.065 207.056 263.877 206.767 263.77C206.486 263.652 206.041 263.537 205.43 263.426C204.799 263.327 204.279 263.213 203.867 263.086C203.465 262.958 203.107 262.741 202.791 262.436C202.485 262.129 202.31 261.697 202.265 261.139C202.228 260.68 202.323 260.251 202.552 259.852C202.79 259.451 203.145 259.121 203.616 258.863C204.096 258.603 204.671 258.446 205.338 258.392C206.325 258.312 207.133 258.498 207.761 258.949C208.389 259.389 208.766 260.026 208.894 260.859L206.89 261.021C206.834 260.694 206.673 260.446 206.409 260.277C206.153 260.097 205.821 260.024 205.413 260.057C205.034 260.087 204.746 260.181 204.548 260.337C204.36 260.493 204.276 260.695 204.296 260.945C204.318 261.224 204.475 261.427 204.766 261.554C205.057 261.671 205.502 261.78 206.102 261.882C206.712 261.983 207.218 262.098 207.62 262.226C208.022 262.354 208.376 262.576 208.682 262.892C208.998 263.198 209.183 263.624 209.237 264.172C209.276 264.65 209.176 265.09 208.937 265.49C208.709 265.89 208.354 266.22 207.874 266.479C207.402 266.728 206.838 266.879 206.18 266.932ZM218.497 261.451C218.521 261.75 218.523 262.021 218.502 262.263L212.447 262.753C212.545 263.347 212.792 263.799 213.189 264.108C213.585 264.417 214.052 264.55 214.59 264.506C215.368 264.443 215.894 264.065 216.169 263.37L218.426 263.187C218.252 264.004 217.846 264.699 217.211 265.272C216.574 265.835 215.762 266.157 214.775 266.237C213.978 266.301 213.246 266.185 212.58 265.888C211.923 265.58 211.389 265.116 210.978 264.497C210.577 263.878 210.342 263.144 210.273 262.297C210.204 261.44 210.317 260.673 210.614 259.997C210.91 259.321 211.358 258.783 211.958 258.383C212.558 257.984 213.266 257.751 214.084 257.685C214.871 257.621 215.587 257.734 216.233 258.023C216.888 258.311 217.411 258.755 217.8 259.355C218.199 259.945 218.431 260.644 218.497 261.451ZM216.28 261.028C216.227 260.491 215.998 260.078 215.593 259.79C215.188 259.492 214.711 259.365 214.163 259.409C213.645 259.451 213.219 259.646 212.886 259.994C212.562 260.331 212.383 260.782 212.348 261.347L216.28 261.028ZM224.284 256.875C225.271 256.795 226.094 257.044 226.753 257.623C227.411 258.192 227.785 259.034 227.875 260.151L228.268 265.01L226.175 265.179L225.805 260.604C225.752 259.946 225.547 259.456 225.189 259.134C224.831 258.802 224.368 258.659 223.8 258.705C223.222 258.751 222.778 258.968 222.468 259.354C222.168 259.73 222.044 260.246 222.097 260.904L222.467 265.479L220.374 265.648L219.704 257.365L221.797 257.196L221.881 258.228C222.131 257.846 222.462 257.539 222.874 257.305C223.296 257.06 223.766 256.916 224.284 256.875ZM233.556 262.641L235.136 256.117L237.363 255.937L234.968 264.468L232.427 264.673L228.707 256.637L230.949 256.456L233.556 262.641ZM242.898 263.962C242.1 264.026 241.369 263.91 240.703 263.613C240.036 263.305 239.492 262.843 239.07 262.225C238.659 261.606 238.419 260.873 238.351 260.026C238.282 259.178 238.406 258.416 238.722 257.738C239.049 257.06 239.522 256.52 240.141 256.118C240.76 255.707 241.468 255.469 242.266 255.405C243.063 255.34 243.8 255.461 244.477 255.768C245.153 256.064 245.702 256.521 246.123 257.139C246.554 257.757 246.804 258.489 246.873 259.336C246.941 260.183 246.807 260.947 246.471 261.626C246.145 262.304 245.667 262.85 245.038 263.262C244.419 263.663 243.705 263.896 242.898 263.962ZM242.75 262.138C243.129 262.107 243.476 261.989 243.79 261.783C244.114 261.566 244.36 261.265 244.53 260.88C244.699 260.495 244.763 260.039 244.72 259.51C244.656 258.723 244.398 258.137 243.946 257.752C243.502 257.356 242.982 257.183 242.383 257.231C241.785 257.28 241.299 257.535 240.925 257.996C240.561 258.447 240.41 259.066 240.474 259.854C240.537 260.641 240.781 261.233 241.204 261.631C241.637 262.017 242.152 262.186 242.75 262.138ZM249.941 252.12L250.836 263.184L248.743 263.353L247.848 252.289L249.941 252.12ZM256.202 260.809L257.781 254.285L260.009 254.105L257.614 262.636L255.072 262.841L251.352 254.805L253.595 254.624L256.202 260.809ZM262.166 252.937C261.798 252.967 261.479 252.877 261.212 252.668C260.953 252.448 260.81 252.164 260.781 251.815C260.753 251.466 260.849 251.167 261.07 250.919C261.3 250.659 261.599 250.515 261.968 250.485C262.337 250.455 262.65 250.55 262.909 250.77C263.177 250.979 263.325 251.258 263.353 251.607C263.381 251.956 263.28 252.26 263.051 252.519C262.83 252.768 262.535 252.907 262.166 252.937ZM263.278 253.84L263.948 262.123L261.855 262.293L261.185 254.01L263.278 253.84ZM275.623 252.721C276.639 252.639 277.482 252.887 278.151 253.465C278.829 254.032 279.213 254.874 279.303 255.99L279.696 260.849L277.603 261.019L277.233 256.444C277.181 255.796 276.976 255.316 276.62 255.003C276.263 254.681 275.8 254.543 275.232 254.589C274.664 254.635 274.224 254.846 273.914 255.222C273.612 255.588 273.488 256.094 273.54 256.742L273.91 261.317L271.817 261.487L271.447 256.912C271.394 256.264 271.19 255.784 270.834 255.471C270.477 255.149 270.014 255.011 269.446 255.057C268.868 255.104 268.423 255.315 268.113 255.692C267.811 256.057 267.687 256.564 267.739 257.212L268.109 261.787L266.016 261.956L265.346 253.673L267.439 253.504L267.52 254.505C267.761 254.135 268.083 253.833 268.485 253.6C268.898 253.366 269.358 253.228 269.866 253.187C270.514 253.135 271.104 253.227 271.635 253.465C272.165 253.693 272.59 254.05 272.91 254.536C273.14 254.036 273.498 253.62 273.983 253.29C274.478 252.959 275.025 252.77 275.623 252.721ZM289.033 255.745C289.057 256.044 289.059 256.315 289.038 256.557L282.983 257.047C283.081 257.641 283.329 258.092 283.725 258.401C284.121 258.71 284.588 258.843 285.126 258.8C285.904 258.737 286.43 258.358 286.705 257.664L288.963 257.481C288.788 258.298 288.383 258.993 287.747 259.566C287.11 260.129 286.298 260.451 285.312 260.53C284.514 260.595 283.782 260.479 283.116 260.181C282.459 259.873 281.925 259.41 281.514 258.791C281.113 258.171 280.878 257.438 280.809 256.591C280.74 255.733 280.853 254.967 281.15 254.291C281.446 253.615 281.894 253.077 282.494 252.677C283.094 252.277 283.802 252.044 284.62 251.978C285.407 251.915 286.124 252.027 286.769 252.316C287.424 252.604 287.947 253.049 288.337 253.649C288.735 254.239 288.968 254.937 289.033 255.745ZM286.817 255.322C286.763 254.785 286.534 254.372 286.129 254.083C285.724 253.785 285.247 253.658 284.699 253.703C284.181 253.744 283.755 253.939 283.422 254.287C283.098 254.625 282.919 255.076 282.884 255.64L286.817 255.322ZM294.82 251.168C295.807 251.088 296.63 251.338 297.289 251.917C297.947 252.485 298.321 253.328 298.411 254.444L298.804 259.303L296.711 259.473L296.341 254.898C296.288 254.24 296.083 253.75 295.726 253.428C295.368 253.095 294.905 252.952 294.336 252.998C293.758 253.045 293.314 253.261 293.004 253.648C292.704 254.023 292.58 254.54 292.633 255.198L293.003 259.773L290.91 259.942L290.24 251.659L292.333 251.49L292.417 252.521C292.667 252.14 292.998 251.832 293.411 251.598C293.832 251.353 294.302 251.21 294.82 251.168ZM302.701 252.382L303.025 256.389C303.048 256.668 303.129 256.867 303.269 256.986C303.418 257.094 303.652 257.135 303.971 257.11L304.943 257.031L305.086 258.795L303.77 258.902C302.006 259.044 301.054 258.259 300.916 256.544L300.593 252.552L299.606 252.632L299.467 250.913L300.454 250.833L300.288 248.784L302.396 248.614L302.562 250.662L304.416 250.512L304.555 252.232L302.701 252.382ZM310.28 258.51C309.483 258.575 308.751 258.459 308.085 258.161C307.418 257.854 306.874 257.391 306.453 256.773C306.041 256.155 305.802 255.422 305.733 254.574C305.665 253.727 305.788 252.965 306.105 252.287C306.431 251.608 306.904 251.068 307.524 250.667C308.143 250.256 308.851 250.018 309.648 249.954C310.446 249.889 311.183 250.01 311.86 250.316C312.536 250.613 313.084 251.07 313.506 251.688C313.937 252.305 314.187 253.038 314.255 253.885C314.324 254.732 314.19 255.495 313.854 256.175C313.527 256.853 313.05 257.398 312.421 257.811C311.801 258.212 311.088 258.445 310.28 258.51ZM310.133 256.686C310.511 256.656 310.858 256.537 311.172 256.331C311.496 256.115 311.743 255.814 311.912 255.429C312.082 255.044 312.145 254.587 312.102 254.059C312.039 253.272 311.78 252.685 311.328 252.301C310.885 251.905 310.364 251.732 309.766 251.78C309.168 251.828 308.682 252.083 308.308 252.545C307.943 252.996 307.792 253.615 307.856 254.403C307.92 255.19 308.163 255.782 308.587 256.179C309.019 256.566 309.535 256.735 310.133 256.686Z" fill="black"/>
<path d="M222.628 166.108C222.628 166.332 222.574 166.542 222.466 166.738C222.362 166.934 222.196 167.092 221.968 167.212C221.744 167.332 221.46 167.392 221.116 167.392H220.414V169H219.574V164.812H221.116C221.44 164.812 221.716 164.868 221.944 164.98C222.172 165.092 222.342 165.246 222.454 165.442C222.57 165.638 222.628 165.86 222.628 166.108ZM221.08 166.714C221.312 166.714 221.484 166.662 221.596 166.558C221.708 166.45 221.764 166.3 221.764 166.108C221.764 165.7 221.536 165.496 221.08 165.496H220.414V166.714H221.08ZM224.065 166.192C224.173 166.016 224.313 165.878 224.485 165.778C224.661 165.678 224.861 165.628 225.085 165.628V166.51H224.863C224.599 166.51 224.399 166.572 224.263 166.696C224.131 166.82 224.065 167.036 224.065 167.344V169H223.225V165.676H224.065V166.192ZM227.126 169.054C226.806 169.054 226.518 168.984 226.262 168.844C226.006 168.7 225.804 168.498 225.656 168.238C225.512 167.978 225.44 167.678 225.44 167.338C225.44 166.998 225.514 166.698 225.662 166.438C225.814 166.178 226.02 165.978 226.28 165.838C226.54 165.694 226.83 165.622 227.15 165.622C227.47 165.622 227.76 165.694 228.02 165.838C228.28 165.978 228.484 166.178 228.632 166.438C228.784 166.698 228.86 166.998 228.86 167.338C228.86 167.678 228.782 167.978 228.626 168.238C228.474 168.498 228.266 168.7 228.002 168.844C227.742 168.984 227.45 169.054 227.126 169.054ZM227.126 168.322C227.278 168.322 227.42 168.286 227.552 168.214C227.688 168.138 227.796 168.026 227.876 167.878C227.956 167.73 227.996 167.55 227.996 167.338C227.996 167.022 227.912 166.78 227.744 166.612C227.58 166.44 227.378 166.354 227.138 166.354C226.898 166.354 226.696 166.44 226.532 166.612C226.372 166.78 226.292 167.022 226.292 167.338C226.292 167.654 226.37 167.898 226.526 168.07C226.686 168.238 226.886 168.322 227.126 168.322ZM229.903 165.28C229.751 165.28 229.625 165.234 229.525 165.142C229.429 165.046 229.381 164.928 229.381 164.788C229.381 164.648 229.429 164.532 229.525 164.44C229.625 164.344 229.751 164.296 229.903 164.296C230.051 164.296 230.173 164.344 230.269 164.44C230.365 164.532 230.413 164.648 230.413 164.788C230.413 164.928 230.365 165.046 230.269 165.142C230.173 165.234 230.051 165.28 229.903 165.28ZM230.317 169.546C230.317 169.914 230.225 170.178 230.041 170.338C229.861 170.502 229.601 170.584 229.26 170.584H228.888V169.87H229.129C229.257 169.87 229.347 169.844 229.399 169.792C229.451 169.744 229.477 169.664 229.477 169.552V165.676H230.317V169.546ZM234.236 167.266C234.236 167.386 234.228 167.494 234.212 167.59H231.782C231.802 167.83 231.886 168.018 232.034 168.154C232.182 168.29 232.364 168.358 232.58 168.358C232.892 168.358 233.114 168.224 233.246 167.956H234.152C234.056 168.276 233.872 168.54 233.6 168.748C233.328 168.952 232.994 169.054 232.598 169.054C232.278 169.054 231.99 168.984 231.734 168.844C231.482 168.7 231.284 168.498 231.14 168.238C231 167.978 230.93 167.678 230.93 167.338C230.93 166.994 231 166.692 231.14 166.432C231.28 166.172 231.476 165.972 231.728 165.832C231.98 165.692 232.27 165.622 232.598 165.622C232.914 165.622 233.196 165.69 233.444 165.826C233.696 165.962 233.89 166.156 234.026 166.408C234.166 166.656 234.236 166.942 234.236 167.266ZM233.366 167.026C233.362 166.81 233.284 166.638 233.132 166.51C232.98 166.378 232.794 166.312 232.574 166.312C232.366 166.312 232.19 166.376 232.046 166.504C231.906 166.628 231.82 166.802 231.788 167.026H233.366ZM235.828 166.366V167.974C235.828 168.086 235.854 168.168 235.906 168.22C235.962 168.268 236.054 168.292 236.182 168.292H236.572V169H236.044C235.336 169 234.982 168.656 234.982 167.968V166.366H234.586V165.676H234.982V164.854H235.828V165.676H236.572V166.366H235.828ZM238.652 169.054C238.332 169.054 238.044 168.984 237.788 168.844C237.532 168.7 237.33 168.498 237.182 168.238C237.038 167.978 236.966 167.678 236.966 167.338C236.966 166.998 237.04 166.698 237.188 166.438C237.34 166.178 237.546 165.978 237.806 165.838C238.066 165.694 238.356 165.622 238.676 165.622C238.996 165.622 239.286 165.694 239.546 165.838C239.806 165.978 240.01 166.178 240.158 166.438C240.31 166.698 240.386 166.998 240.386 167.338C240.386 167.678 240.308 167.978 240.152 168.238C240 168.498 239.792 168.7 239.528 168.844C239.268 168.984 238.976 169.054 238.652 169.054ZM238.652 168.322C238.804 168.322 238.946 168.286 239.078 168.214C239.214 168.138 239.322 168.026 239.402 167.878C239.482 167.73 239.522 167.55 239.522 167.338C239.522 167.022 239.438 166.78 239.27 166.612C239.106 166.44 238.904 166.354 238.664 166.354C238.424 166.354 238.222 166.44 238.058 166.612C237.898 166.78 237.818 167.022 237.818 167.338C237.818 167.654 237.896 167.898 238.052 168.07C238.212 168.238 238.412 168.322 238.652 168.322ZM245.522 167.266C245.522 167.386 245.514 167.494 245.498 167.59H243.068C243.088 167.83 243.172 168.018 243.32 168.154C243.468 168.29 243.65 168.358 243.866 168.358C244.178 168.358 244.4 168.224 244.532 167.956H245.438C245.342 168.276 245.158 168.54 244.886 168.748C244.614 168.952 244.28 169.054 243.884 169.054C243.564 169.054 243.276 168.984 243.02 168.844C242.768 168.7 242.57 168.498 242.426 168.238C242.286 167.978 242.216 167.678 242.216 167.338C242.216 166.994 242.286 166.692 242.426 166.432C242.566 166.172 242.762 165.972 243.014 165.832C243.266 165.692 243.556 165.622 243.884 165.622C244.2 165.622 244.482 165.69 244.73 165.826C244.982 165.962 245.176 166.156 245.312 166.408C245.452 166.656 245.522 166.942 245.522 167.266ZM244.652 167.026C244.648 166.81 244.57 166.638 244.418 166.51C244.266 166.378 244.08 166.312 243.86 166.312C243.652 166.312 243.476 166.376 243.332 166.504C243.192 166.628 243.106 166.802 243.074 167.026H244.652ZM250.263 165.628C250.671 165.628 250.999 165.754 251.247 166.006C251.499 166.254 251.625 166.602 251.625 167.05V169H250.785V167.164C250.785 166.904 250.719 166.706 250.587 166.57C250.455 166.43 250.275 166.36 250.047 166.36C249.819 166.36 249.637 166.43 249.501 166.57C249.369 166.706 249.303 166.904 249.303 167.164V169H248.463V167.164C248.463 166.904 248.397 166.706 248.265 166.57C248.133 166.43 247.953 166.36 247.725 166.36C247.493 166.36 247.309 166.43 247.173 166.57C247.041 166.706 246.975 166.904 246.975 167.164V169H246.135V165.676H246.975V166.078C247.083 165.938 247.221 165.828 247.389 165.748C247.561 165.668 247.749 165.628 247.953 165.628C248.213 165.628 248.445 165.684 248.649 165.796C248.853 165.904 249.011 166.06 249.123 166.264C249.231 166.072 249.387 165.918 249.591 165.802C249.799 165.686 250.023 165.628 250.263 165.628ZM255.316 164.812C255.756 164.812 256.142 164.898 256.474 165.07C256.81 165.242 257.068 165.488 257.248 165.808C257.432 166.124 257.524 166.492 257.524 166.912C257.524 167.332 257.432 167.7 257.248 168.016C257.068 168.328 256.81 168.57 256.474 168.742C256.142 168.914 255.756 169 255.316 169H253.852V164.812H255.316ZM255.286 168.286C255.726 168.286 256.066 168.166 256.306 167.926C256.546 167.686 256.666 167.348 256.666 166.912C256.666 166.476 256.546 166.136 256.306 165.892C256.066 165.644 255.726 165.52 255.286 165.52H254.692V168.286H255.286ZM261.242 167.266C261.242 167.386 261.234 167.494 261.218 167.59H258.788C258.808 167.83 258.892 168.018 259.04 168.154C259.188 168.29 259.37 168.358 259.586 168.358C259.898 168.358 260.12 168.224 260.252 167.956H261.158C261.062 168.276 260.878 168.54 260.606 168.748C260.334 168.952 260 169.054 259.604 169.054C259.284 169.054 258.996 168.984 258.74 168.844C258.488 168.7 258.29 168.498 258.146 168.238C258.006 167.978 257.936 167.678 257.936 167.338C257.936 166.994 258.006 166.692 258.146 166.432C258.286 166.172 258.482 165.972 258.734 165.832C258.986 165.692 259.276 165.622 259.604 165.622C259.92 165.622 260.202 165.69 260.45 165.826C260.702 165.962 260.896 166.156 261.032 166.408C261.172 166.656 261.242 166.942 261.242 167.266ZM260.372 167.026C260.368 166.81 260.29 166.638 260.138 166.51C259.986 166.378 259.8 166.312 259.58 166.312C259.372 166.312 259.196 166.376 259.052 166.504C258.912 166.628 258.826 166.802 258.794 167.026H260.372ZM263.127 169.054C262.855 169.054 262.611 169.006 262.395 168.91C262.179 168.81 262.007 168.676 261.879 168.508C261.755 168.34 261.687 168.154 261.675 167.95H262.521C262.537 168.078 262.599 168.184 262.707 168.268C262.819 168.352 262.957 168.394 263.121 168.394C263.281 168.394 263.405 168.362 263.493 168.298C263.585 168.234 263.631 168.152 263.631 168.052C263.631 167.944 263.575 167.864 263.463 167.812C263.355 167.756 263.181 167.696 262.941 167.632C262.693 167.572 262.489 167.51 262.329 167.446C262.173 167.382 262.037 167.284 261.921 167.152C261.809 167.02 261.753 166.842 261.753 166.618C261.753 166.434 261.805 166.266 261.909 166.114C262.017 165.962 262.169 165.842 262.365 165.754C262.565 165.666 262.799 165.622 263.067 165.622C263.463 165.622 263.779 165.722 264.015 165.922C264.251 166.118 264.381 166.384 264.405 166.72H263.601C263.589 166.588 263.533 166.484 263.433 166.408C263.337 166.328 263.207 166.288 263.043 166.288C262.891 166.288 262.773 166.316 262.689 166.372C262.609 166.428 262.569 166.506 262.569 166.606C262.569 166.718 262.625 166.804 262.737 166.864C262.849 166.92 263.023 166.978 263.259 167.038C263.499 167.098 263.697 167.16 263.853 167.224C264.009 167.288 264.143 167.388 264.255 167.524C264.371 167.656 264.431 167.832 264.435 168.052C264.435 168.244 264.381 168.416 264.273 168.568C264.169 168.72 264.017 168.84 263.817 168.928C263.621 169.012 263.391 169.054 263.127 169.054ZM268.215 167.266C268.215 167.386 268.207 167.494 268.191 167.59H265.761C265.781 167.83 265.865 168.018 266.013 168.154C266.161 168.29 266.343 168.358 266.559 168.358C266.871 168.358 267.093 168.224 267.225 167.956H268.131C268.035 168.276 267.851 168.54 267.579 168.748C267.307 168.952 266.973 169.054 266.577 169.054C266.257 169.054 265.969 168.984 265.713 168.844C265.461 168.7 265.263 168.498 265.119 168.238C264.979 167.978 264.909 167.678 264.909 167.338C264.909 166.994 264.979 166.692 265.119 166.432C265.259 166.172 265.455 165.972 265.707 165.832C265.959 165.692 266.249 165.622 266.577 165.622C266.893 165.622 267.175 165.69 267.423 165.826C267.675 165.962 267.869 166.156 268.005 166.408C268.145 166.656 268.215 166.942 268.215 167.266ZM267.345 167.026C267.341 166.81 267.263 166.638 267.111 166.51C266.959 166.378 266.773 166.312 266.553 166.312C266.345 166.312 266.169 166.376 266.025 166.504C265.885 166.628 265.799 166.802 265.767 167.026H267.345ZM270.67 165.628C271.066 165.628 271.386 165.754 271.63 166.006C271.874 166.254 271.996 166.602 271.996 167.05V169H271.156V167.164C271.156 166.9 271.09 166.698 270.958 166.558C270.826 166.414 270.646 166.342 270.418 166.342C270.186 166.342 270.002 166.414 269.866 166.558C269.734 166.698 269.668 166.9 269.668 167.164V169H268.828V165.676H269.668V166.09C269.78 165.946 269.922 165.834 270.094 165.754C270.27 165.67 270.462 165.628 270.67 165.628ZM274.181 168.226L275.021 165.676H275.915L274.685 169H273.665L272.441 165.676H273.341L274.181 168.226ZM277.863 169.054C277.543 169.054 277.255 168.984 276.999 168.844C276.743 168.7 276.541 168.498 276.393 168.238C276.249 167.978 276.177 167.678 276.177 167.338C276.177 166.998 276.251 166.698 276.399 166.438C276.551 166.178 276.757 165.978 277.017 165.838C277.277 165.694 277.567 165.622 277.887 165.622C278.207 165.622 278.497 165.694 278.757 165.838C279.017 165.978 279.221 166.178 279.369 166.438C279.521 166.698 279.597 166.998 279.597 167.338C279.597 167.678 279.519 167.978 279.363 168.238C279.211 168.498 279.003 168.7 278.739 168.844C278.479 168.984 278.187 169.054 277.863 169.054ZM277.863 168.322C278.015 168.322 278.157 168.286 278.289 168.214C278.425 168.138 278.533 168.026 278.613 167.878C278.693 167.73 278.733 167.55 278.733 167.338C278.733 167.022 278.649 166.78 278.481 166.612C278.317 166.44 278.115 166.354 277.875 166.354C277.635 166.354 277.433 166.44 277.269 166.612C277.109 166.78 277.029 167.022 277.029 167.338C277.029 167.654 277.107 167.898 277.263 168.07C277.423 168.238 277.623 168.322 277.863 168.322ZM281.053 164.56V169H280.213V164.56H281.053ZM283.269 168.226L284.109 165.676H285.003L283.773 169H282.753L281.529 165.676H282.429L283.269 168.226ZM285.901 165.28C285.753 165.28 285.629 165.234 285.529 165.142C285.433 165.046 285.385 164.928 285.385 164.788C285.385 164.648 285.433 164.532 285.529 164.44C285.629 164.344 285.753 164.296 285.901 164.296C286.049 164.296 286.171 164.344 286.267 164.44C286.367 164.532 286.417 164.648 286.417 164.788C286.417 164.928 286.367 165.046 286.267 165.142C286.171 165.234 286.049 165.28 285.901 165.28ZM286.315 165.676V169H285.475V165.676H286.315ZM291.272 165.628C291.68 165.628 292.008 165.754 292.256 166.006C292.508 166.254 292.634 166.602 292.634 167.05V169H291.794V167.164C291.794 166.904 291.728 166.706 291.596 166.57C291.464 166.43 291.284 166.36 291.056 166.36C290.828 166.36 290.646 166.43 290.51 166.57C290.378 166.706 290.312 166.904 290.312 167.164V169H289.472V167.164C289.472 166.904 289.406 166.706 289.274 166.57C289.142 166.43 288.962 166.36 288.734 166.36C288.502 166.36 288.318 166.43 288.182 166.57C288.05 166.706 287.984 166.904 287.984 167.164V169H287.144V165.676H287.984V166.078C288.092 165.938 288.23 165.828 288.398 165.748C288.57 165.668 288.758 165.628 288.962 165.628C289.222 165.628 289.454 165.684 289.658 165.796C289.862 165.904 290.02 166.06 290.132 166.264C290.24 166.072 290.396 165.918 290.6 165.802C290.808 165.686 291.032 165.628 291.272 165.628ZM296.522 167.266C296.522 167.386 296.514 167.494 296.498 167.59H294.068C294.088 167.83 294.172 168.018 294.32 168.154C294.468 168.29 294.65 168.358 294.866 168.358C295.178 168.358 295.4 168.224 295.532 167.956H296.438C296.342 168.276 296.158 168.54 295.886 168.748C295.614 168.952 295.28 169.054 294.884 169.054C294.564 169.054 294.276 168.984 294.02 168.844C293.768 168.7 293.57 168.498 293.426 168.238C293.286 167.978 293.216 167.678 293.216 167.338C293.216 166.994 293.286 166.692 293.426 166.432C293.566 166.172 293.762 165.972 294.014 165.832C294.266 165.692 294.556 165.622 294.884 165.622C295.2 165.622 295.482 165.69 295.73 165.826C295.982 165.962 296.176 166.156 296.312 166.408C296.452 166.656 296.522 166.942 296.522 167.266ZM295.652 167.026C295.648 166.81 295.57 166.638 295.418 166.51C295.266 166.378 295.08 166.312 294.86 166.312C294.652 166.312 294.476 166.376 294.332 166.504C294.192 166.628 294.106 166.802 294.074 167.026H295.652ZM298.977 165.628C299.373 165.628 299.693 165.754 299.937 166.006C300.181 166.254 300.303 166.602 300.303 167.05V169H299.463V167.164C299.463 166.9 299.397 166.698 299.265 166.558C299.133 166.414 298.953 166.342 298.725 166.342C298.493 166.342 298.309 166.414 298.173 166.558C298.041 166.698 297.975 166.9 297.975 167.164V169H297.135V165.676H297.975V166.09C298.087 165.946 298.229 165.834 298.401 165.754C298.577 165.67 298.769 165.628 298.977 165.628ZM302.08 166.366V167.974C302.08 168.086 302.106 168.168 302.158 168.22C302.214 168.268 302.306 168.292 302.434 168.292H302.824V169H302.296C301.588 169 301.234 168.656 301.234 167.968V166.366H300.838V165.676H301.234V164.854H302.08V165.676H302.824V166.366H302.08ZM304.904 169.054C304.584 169.054 304.296 168.984 304.04 168.844C303.784 168.7 303.582 168.498 303.434 168.238C303.29 167.978 303.218 167.678 303.218 167.338C303.218 166.998 303.292 166.698 303.44 166.438C303.592 166.178 303.798 165.978 304.058 165.838C304.318 165.694 304.608 165.622 304.928 165.622C305.248 165.622 305.538 165.694 305.798 165.838C306.058 165.978 306.262 166.178 306.41 166.438C306.562 166.698 306.638 166.998 306.638 167.338C306.638 167.678 306.56 167.978 306.404 168.238C306.252 168.498 306.044 168.7 305.78 168.844C305.52 168.984 305.228 169.054 304.904 169.054ZM304.904 168.322C305.056 168.322 305.198 168.286 305.33 168.214C305.466 168.138 305.574 168.026 305.654 167.878C305.734 167.73 305.774 167.55 305.774 167.338C305.774 167.022 305.69 166.78 305.522 166.612C305.358 166.44 305.156 166.354 304.916 166.354C304.676 166.354 304.474 166.44 304.31 166.612C304.15 166.78 304.07 167.022 304.07 167.338C304.07 167.654 304.148 167.898 304.304 168.07C304.464 168.238 304.664 168.322 304.904 168.322Z" fill="black"/>
<circle cx="350" cy="48" r="30" fill="#FFED00"/>
</g>
<defs>
<clipPath id="clip0_2968_1219">
<rect width="400" height="300" fill="white"/>
</clipPath>
</defs>
</svg>
