<svg width="320" height="53" viewBox="0 0 320 53" fill="none" xmlns="http://www.w3.org/2000/svg">
<rect width="320" height="53" rx="4" fill="#17DC13"/>
<path d="M115.898 34.1641C114.794 34.1641 113.833 33.9349 113.016 33.4766C112.198 33.013 111.565 32.3594 111.117 31.5156C110.674 30.6667 110.453 29.6641 110.453 28.5078V28.125C110.453 27.0208 110.667 26.0443 111.094 25.1953C111.526 24.3411 112.141 23.6719 112.938 23.1875C113.734 22.7031 114.682 22.4609 115.781 22.4609C116.552 22.4609 117.273 22.5703 117.945 22.7891C118.622 23.0078 119.227 23.3411 119.758 23.7891V26.5391H118.062L117.828 24.8125C117.656 24.6875 117.469 24.5807 117.266 24.4922C117.062 24.4036 116.841 24.3359 116.602 24.2891C116.367 24.2422 116.112 24.2188 115.836 24.2188C115.19 24.2188 114.635 24.3776 114.172 24.6953C113.708 25.013 113.352 25.4635 113.102 26.0469C112.857 26.625 112.734 27.3125 112.734 28.1094V28.5078C112.734 29.3047 112.865 29.9948 113.125 30.5781C113.385 31.1615 113.755 31.6146 114.234 31.9375C114.714 32.2552 115.281 32.4141 115.938 32.4141C116.266 32.4141 116.594 32.3776 116.922 32.3047C117.255 32.2266 117.557 32.1276 117.828 32.0078L118.062 30.4062H119.758V33.125C119.315 33.4167 118.763 33.6641 118.102 33.8672C117.44 34.0651 116.706 34.1641 115.898 34.1641ZM120.797 34V32.6328L121.898 32.3984V27.1562L120.68 26.9219V25.5469H124.18V32.3984L125.273 32.6328V34H120.797ZM121.82 23.7578V21.8125H124.18V23.7578H121.82ZM130.016 34.1641C129.203 34.1641 128.5 33.9818 127.906 33.6172C127.318 33.2526 126.865 32.75 126.547 32.1094C126.229 31.4635 126.07 30.7266 126.07 29.8984V29.6641C126.07 28.8307 126.232 28.0938 126.555 27.4531C126.878 26.8125 127.333 26.3099 127.922 25.9453C128.51 25.5755 129.203 25.3906 130 25.3906C130.76 25.3906 131.414 25.5104 131.961 25.75C132.513 25.9844 132.961 26.2578 133.305 26.5703L133.289 28.9922H131.57L131.266 27.4844C131.141 27.3594 130.982 27.2578 130.789 27.1797C130.596 27.1016 130.401 27.0625 130.203 27.0625C129.786 27.0625 129.44 27.1667 129.164 27.375C128.893 27.5833 128.69 27.8802 128.555 28.2656C128.419 28.651 128.352 29.1172 128.352 29.6641V29.8984C128.352 30.4766 128.427 30.9531 128.578 31.3281C128.729 31.6979 128.93 31.9714 129.18 32.1484C129.435 32.3255 129.719 32.4141 130.031 32.4141C130.432 32.4141 130.753 32.3099 130.992 32.1016C131.237 31.888 131.404 31.5885 131.492 31.2031H133.445L133.469 31.25C133.38 31.849 133.203 32.3672 132.938 32.8047C132.677 33.2422 132.307 33.5781 131.828 33.8125C131.354 34.0469 130.75 34.1641 130.016 34.1641ZM134.367 34V32.6328L135.469 32.3984V23.4219L134.25 23.1875V21.8125H137.75V32.3984L138.852 32.6328V34H134.367ZM143.477 34.1641C142.643 34.1641 141.927 33.9818 141.328 33.6172C140.729 33.2526 140.271 32.7474 139.953 32.1016C139.635 31.4505 139.477 30.7031 139.477 29.8594V29.6953C139.477 28.8568 139.635 28.1146 139.953 27.4688C140.271 26.8177 140.727 26.3099 141.32 25.9453C141.919 25.5755 142.633 25.3906 143.461 25.3906C144.299 25.3906 145.016 25.5755 145.609 25.9453C146.203 26.3099 146.659 26.8151 146.977 27.4609C147.294 28.1068 147.453 28.8516 147.453 29.6953V29.8594C147.453 30.7031 147.294 31.4505 146.977 32.1016C146.659 32.7474 146.203 33.2526 145.609 33.6172C145.016 33.9818 144.305 34.1641 143.477 34.1641ZM143.477 32.4141C143.872 32.4141 144.195 32.3073 144.445 32.0938C144.695 31.8802 144.88 31.5833 145 31.2031C145.12 30.8177 145.18 30.3698 145.18 29.8594V29.6953C145.18 29.1953 145.12 28.7552 145 28.375C144.88 27.9896 144.693 27.6901 144.438 27.4766C144.188 27.2578 143.862 27.1484 143.461 27.1484C143.07 27.1484 142.747 27.2578 142.492 27.4766C142.237 27.6901 142.049 27.9896 141.93 28.375C141.815 28.7552 141.758 29.1953 141.758 29.6953V29.8594C141.758 30.3698 141.815 30.8177 141.93 31.2031C142.049 31.5885 142.237 31.888 142.492 32.1016C142.747 32.3099 143.076 32.4141 143.477 32.4141ZM152.344 34V32.6328L153.555 32.3984V24.2344L152.344 24V22.625H157.047V24L155.836 24.2344V32.3984L157.047 32.6328V34H152.344ZM157.891 34V32.6328L158.984 32.3984V27.1562L157.773 26.9219V25.5469H161.109L161.211 26.7578C161.492 26.3255 161.839 25.9896 162.25 25.75C162.667 25.5104 163.141 25.3906 163.672 25.3906C164.51 25.3906 165.167 25.6589 165.641 26.1953C166.115 26.7318 166.352 27.5729 166.352 28.7188V32.3984L167.445 32.6328V34H163.086V32.6328L164.062 32.3984V28.7266C164.062 28.1589 163.951 27.7578 163.727 27.5234C163.503 27.2839 163.169 27.1641 162.727 27.1641C162.398 27.1641 162.112 27.2344 161.867 27.375C161.628 27.5104 161.427 27.7057 161.266 27.9609V32.3984L162.188 32.6328V34H157.891ZM168.125 34V32.6328L169.227 32.3984V27.1562L168.008 26.9219V25.5469H171.508V32.3984L172.602 32.6328V34H168.125ZM169.148 23.7578V21.8125H171.508V23.7578H169.148ZM177.344 34.1641C176.531 34.1641 175.828 33.9818 175.234 33.6172C174.646 33.2526 174.193 32.75 173.875 32.1094C173.557 31.4635 173.398 30.7266 173.398 29.8984V29.6641C173.398 28.8307 173.56 28.0938 173.883 27.4531C174.206 26.8125 174.661 26.3099 175.25 25.9453C175.839 25.5755 176.531 25.3906 177.328 25.3906C178.089 25.3906 178.742 25.5104 179.289 25.75C179.841 25.9844 180.289 26.2578 180.633 26.5703L180.617 28.9922H178.898L178.594 27.4844C178.469 27.3594 178.31 27.2578 178.117 27.1797C177.924 27.1016 177.729 27.0625 177.531 27.0625C177.115 27.0625 176.768 27.1667 176.492 27.375C176.221 27.5833 176.018 27.8802 175.883 28.2656C175.747 28.651 175.68 29.1172 175.68 29.6641V29.8984C175.68 30.4766 175.755 30.9531 175.906 31.3281C176.057 31.6979 176.258 31.9714 176.508 32.1484C176.763 32.3255 177.047 32.4141 177.359 32.4141C177.76 32.4141 178.081 32.3099 178.32 32.1016C178.565 31.888 178.732 31.5885 178.82 31.2031H180.773L180.797 31.25C180.708 31.849 180.531 32.3672 180.266 32.8047C180.005 33.2422 179.635 33.5781 179.156 33.8125C178.682 34.0469 178.078 34.1641 177.344 34.1641ZM181.75 34V32.6328L182.852 32.3984V27.1562L181.633 26.9219V25.5469H185.133V32.3984L186.227 32.6328V34H181.75ZM182.773 23.7578V21.8125H185.133V23.7578H182.773ZM189.82 34.1641C188.982 34.1641 188.315 33.9401 187.82 33.4922C187.326 33.0391 187.078 32.4245 187.078 31.6484C187.078 30.8516 187.401 30.2057 188.047 29.7109C188.693 29.2109 189.638 28.9609 190.883 28.9609H192V28.3359C192 27.9297 191.88 27.6016 191.641 27.3516C191.406 27.0964 191.052 26.9688 190.578 26.9688C190.333 26.9688 190.115 27 189.922 27.0625C189.729 27.1198 189.552 27.2031 189.391 27.3125L189.211 28.4297H187.57L187.539 26.2344C187.982 25.9844 188.461 25.7812 188.977 25.625C189.492 25.4688 190.068 25.3906 190.703 25.3906C191.807 25.3906 192.68 25.6484 193.32 26.1641C193.961 26.6745 194.281 27.4062 194.281 28.3594V31.8438C194.281 31.9583 194.281 32.0729 194.281 32.1875C194.286 32.2969 194.297 32.4036 194.312 32.5078L195.195 32.6328V34H192.367C192.31 33.8542 192.253 33.6979 192.195 33.5312C192.138 33.3646 192.096 33.1979 192.07 33.0312C191.799 33.375 191.479 33.651 191.109 33.8594C190.745 34.0625 190.315 34.1641 189.82 34.1641ZM190.43 32.4766C190.747 32.4766 191.049 32.4062 191.336 32.2656C191.622 32.1198 191.844 31.9297 192 31.6953V30.3594H190.875C190.375 30.3594 189.995 30.474 189.734 30.7031C189.479 30.9323 189.352 31.2083 189.352 31.5312C189.352 31.8333 189.445 32.0677 189.633 32.2344C189.826 32.3958 190.091 32.4766 190.43 32.4766ZM195.883 34V32.6328L196.984 32.3984V23.4219L195.766 23.1875V21.8125H199.266V32.3984L200.367 32.6328V34H195.883ZM201.047 34V32.6328L202.148 32.3984V27.1562L200.93 26.9219V25.5469H204.43V32.3984L205.523 32.6328V34H201.047ZM202.07 23.7578V21.8125H204.43V23.7578H202.07ZM206.484 34V32.6562L210.883 27.1406H208.602L208.344 28.5859H206.672V25.5469H213.617V27.0078L209.469 32.3672H211.859L212.195 30.8125H213.797V34H206.484ZM217.773 34.1641C216.935 34.1641 216.268 33.9401 215.773 33.4922C215.279 33.0391 215.031 32.4245 215.031 31.6484C215.031 30.8516 215.354 30.2057 216 29.7109C216.646 29.2109 217.591 28.9609 218.836 28.9609H219.953V28.3359C219.953 27.9297 219.833 27.6016 219.594 27.3516C219.359 27.0964 219.005 26.9688 218.531 26.9688C218.286 26.9688 218.068 27 217.875 27.0625C217.682 27.1198 217.505 27.2031 217.344 27.3125L217.164 28.4297H215.523L215.492 26.2344C215.935 25.9844 216.414 25.7812 216.93 25.625C217.445 25.4688 218.021 25.3906 218.656 25.3906C219.76 25.3906 220.633 25.6484 221.273 26.1641C221.914 26.6745 222.234 27.4062 222.234 28.3594V31.8438C222.234 31.9583 222.234 32.0729 222.234 32.1875C222.24 32.2969 222.25 32.4036 222.266 32.5078L223.148 32.6328V34H220.32C220.263 33.8542 220.206 33.6979 220.148 33.5312C220.091 33.3646 220.049 33.1979 220.023 33.0312C219.753 33.375 219.432 33.651 219.062 33.8594C218.698 34.0625 218.268 34.1641 217.773 34.1641ZM218.383 32.4766C218.701 32.4766 219.003 32.4062 219.289 32.2656C219.576 32.1198 219.797 31.9297 219.953 31.6953V30.3594H218.828C218.328 30.3594 217.948 30.474 217.688 30.7031C217.432 30.9323 217.305 31.2083 217.305 31.5312C217.305 31.8333 217.398 32.0677 217.586 32.2344C217.779 32.3958 218.044 32.4766 218.383 32.4766ZM227.211 34.1641C226.539 34.1641 225.961 33.9922 225.477 33.6484C224.997 33.2995 224.63 32.8151 224.375 32.1953C224.12 31.5703 223.992 30.8411 223.992 30.0078V29.8438C223.992 28.9531 224.12 28.1745 224.375 27.5078C224.635 26.8411 225.005 26.3229 225.484 25.9531C225.964 25.5781 226.536 25.3906 227.203 25.3906C227.667 25.3906 228.073 25.4844 228.422 25.6719C228.771 25.8542 229.073 26.1146 229.328 26.4531V23.4219L228.109 23.1875V21.8125H229.328H231.609V32.3984L232.703 32.6328V34H229.633L229.461 32.9688C229.195 33.3594 228.878 33.6562 228.508 33.8594C228.143 34.0625 227.711 34.1641 227.211 34.1641ZM227.891 32.3906C228.208 32.3906 228.487 32.3229 228.727 32.1875C228.966 32.0521 229.167 31.8568 229.328 31.6016V28.0156C229.172 27.7448 228.974 27.5365 228.734 27.3906C228.495 27.2396 228.219 27.1641 227.906 27.1641C227.526 27.1641 227.214 27.2786 226.969 27.5078C226.729 27.7318 226.552 28.0443 226.438 28.4453C226.328 28.8464 226.273 29.3125 226.273 29.8438V30.0078C226.273 30.7474 226.398 31.3307 226.648 31.7578C226.898 32.1797 227.312 32.3906 227.891 32.3906ZM237.445 34.1641C236.612 34.1641 235.896 33.9818 235.297 33.6172C234.698 33.2526 234.24 32.7474 233.922 32.1016C233.604 31.4505 233.445 30.7031 233.445 29.8594V29.6953C233.445 28.8568 233.604 28.1146 233.922 27.4688C234.24 26.8177 234.695 26.3099 235.289 25.9453C235.888 25.5755 236.602 25.3906 237.43 25.3906C238.268 25.3906 238.984 25.5755 239.578 25.9453C240.172 26.3099 240.628 26.8151 240.945 27.4609C241.263 28.1068 241.422 28.8516 241.422 29.6953V29.8594C241.422 30.7031 241.263 31.4505 240.945 32.1016C240.628 32.7474 240.172 33.2526 239.578 33.6172C238.984 33.9818 238.273 34.1641 237.445 34.1641ZM237.445 32.4141C237.841 32.4141 238.164 32.3073 238.414 32.0938C238.664 31.8802 238.849 31.5833 238.969 31.2031C239.089 30.8177 239.148 30.3698 239.148 29.8594V29.6953C239.148 29.1953 239.089 28.7552 238.969 28.375C238.849 27.9896 238.661 27.6901 238.406 27.4766C238.156 27.2578 237.831 27.1484 237.43 27.1484C237.039 27.1484 236.716 27.2578 236.461 27.4766C236.206 27.6901 236.018 27.9896 235.898 28.375C235.784 28.7552 235.727 29.1953 235.727 29.6953V29.8594C235.727 30.3698 235.784 30.8177 235.898 31.2031C236.018 31.5885 236.206 31.888 236.461 32.1016C236.716 32.3099 237.044 32.4141 237.445 32.4141Z" fill="white"/>
<path d="M21.5568 8.27196C21.9952 8.10405 22.4866 8.32326 22.6546 8.76159C22.8225 9.19993 22.6033 9.69139 22.1649 9.8593C21.6157 10.0697 21.0777 10.3071 20.5527 10.5707C14.5622 13.5775 10.6998 19.7094 10.6998 26.5324C10.6998 27.3983 10.7614 28.2563 10.8833 29.1019C10.9502 29.5665 10.6279 29.9974 10.1633 30.0643C9.69871 30.1313 9.2678 29.8089 9.20085 29.3443C9.06742 28.4185 9 27.4795 9 26.5324C9 19.0603 13.2305 12.344 19.7901 9.0515C20.3654 8.76273 20.955 8.50252 21.5568 8.27196ZM16.5076 41.9332C16.138 41.6439 16.0729 41.1097 16.3622 40.7401C16.6516 40.3705 17.1858 40.3054 17.5554 40.5948C20.6713 43.0341 24.5059 44.3806 28.548 44.3806C32.6425 44.3806 36.5235 42.9988 39.6592 40.5011C40.0263 40.2086 40.5611 40.2692 40.8535 40.6364C41.146 41.0035 41.0854 41.5382 40.7183 41.8307C37.2843 44.566 33.0307 46.0804 28.548 46.0804C24.1226 46.0804 19.92 44.6047 16.5076 41.9332ZM21.2213 40.2403C21.3086 40.7015 21.0055 41.1462 20.5443 41.2334L17.6261 41.7855L17.8897 44.919C17.9291 45.3867 17.5818 45.7978 17.1141 45.8372C16.6464 45.8765 16.2353 45.5292 16.1959 45.0615L15.8679 41.1642C15.8314 40.7302 16.1289 40.3388 16.5569 40.2579L20.2282 39.5632C20.6895 39.476 21.1341 39.7791 21.2213 40.2403ZM35.2014 8.14618C42.8777 10.9245 48.096 18.2344 48.096 26.5324C48.096 27.021 48.078 27.5073 48.0424 27.9907L49.6408 26.794C50.0166 26.5128 50.5493 26.5894 50.8305 26.9653C51.1117 27.3411 51.0351 27.8737 50.6593 28.155L47.528 30.4983C47.1793 30.7593 46.6897 30.7144 46.3943 30.3944L43.8597 27.649C43.5412 27.3041 43.5627 26.7664 43.9076 26.448C44.2525 26.1296 44.7902 26.151 45.1086 26.4959L46.3491 27.8391C46.3804 27.406 46.3961 26.9702 46.3961 26.5324C46.3961 18.9558 41.6314 12.2812 34.6229 9.74454C34.1815 9.58479 33.9532 9.09748 34.113 8.65611C34.2727 8.21474 34.7601 7.98643 35.2014 8.14618ZM17.7445 7.11949C17.9258 6.6865 18.4237 6.48242 18.8567 6.66367L22.3035 8.10646C22.7052 8.27464 22.9148 8.71932 22.7889 9.13625L21.6578 12.8802C21.522 13.3295 21.0477 13.5837 20.5984 13.448C20.1491 13.3122 19.8949 12.8379 20.0306 12.3886L20.94 9.37846L18.2004 8.23166C17.7674 8.05042 17.5633 7.55248 17.7445 7.11949Z" fill="white"/>
<path d="M28.5464 12.3659C30.5805 12.3659 32.2294 10.717 32.2294 8.68295C32.2294 6.64891 30.5805 5 28.5464 5C26.5124 5 24.8635 6.64891 24.8635 8.68295C24.8635 10.717 26.5124 12.3659 28.5464 12.3659ZM44.6948 31.9139C46.7288 31.9139 48.3777 33.5628 48.3777 35.5968C48.3777 37.6309 46.7288 39.2798 44.6948 39.2798C42.6607 39.2798 41.0118 37.6309 41.0118 35.5968C41.0118 33.5628 42.6607 31.9139 44.6948 31.9139ZM12.9647 31.9139C14.9987 31.9139 16.6476 33.5628 16.6476 35.5968C16.6476 37.6309 14.9987 39.2798 12.9647 39.2798C10.9307 39.2798 9.28174 37.6309 9.28174 35.5968C9.28174 33.5628 10.9307 31.9139 12.9647 31.9139ZM44.6948 33.6137C43.5995 33.6137 42.7116 34.5016 42.7116 35.5968C42.7116 36.6921 43.5995 37.58 44.6948 37.58C45.79 37.58 46.6779 36.6921 46.6779 35.5968C46.6779 34.5016 45.79 33.6137 44.6948 33.6137ZM12.9647 33.6137C11.8694 33.6137 10.9816 34.5016 10.9816 35.5968C10.9816 36.6921 11.8694 37.58 12.9647 37.58C14.0599 37.58 14.9478 36.6921 14.9478 35.5968C14.9478 34.5016 14.0599 33.6137 12.9647 33.6137ZM28.5464 6.69982C29.6417 6.69982 30.5295 7.5877 30.5295 8.68295C30.5295 9.7782 29.6417 10.6661 28.5464 10.6661C27.4512 10.6661 26.5633 9.7782 26.5633 8.68295C26.5633 7.5877 27.4512 6.69982 28.5464 6.69982Z" fill="white"/>
<path d="M21.5033 31.0213L19.6858 30.8683C19.3601 30.8409 19.0789 30.6291 18.9627 30.3236C18.6417 29.48 18.4354 28.5945 18.3513 27.6858C18.3209 27.3579 18.4828 27.0419 18.7667 26.8749L20.323 25.9597C20.3916 25.2547 20.5517 24.5673 20.7979 23.911L19.8013 22.424C19.6166 22.1484 19.6092 21.7906 19.7822 21.5075C20.2573 20.7305 20.8361 20.0197 21.5016 19.3946C21.7385 19.1721 22.0817 19.1042 22.3855 19.2198L24.0942 19.8696C24.6649 19.5081 25.2789 19.2169 25.9234 19.0038L26.4724 17.2878C26.5725 16.9748 26.844 16.7476 27.1697 16.7043C27.6236 16.6438 28.0833 16.6133 28.5466 16.6133C29.0099 16.6133 29.4696 16.6438 29.9235 16.7043C30.2492 16.7476 30.5207 16.9748 30.6208 17.2878L31.1698 19.0038C31.8143 19.2169 32.4284 19.5081 32.999 19.8696L34.7077 19.2198C35.0115 19.1042 35.3547 19.1721 35.5917 19.3946C36.2571 20.0197 36.8359 20.7305 37.311 21.5075C37.4841 21.7906 37.4766 22.1484 37.2919 22.424L36.2953 23.911C36.5415 24.5673 36.7016 25.2547 36.7702 25.9597L38.3265 26.8749C38.6104 27.0419 38.7723 27.3579 38.7419 27.6858C38.6579 28.5945 38.4516 29.48 38.1305 30.3236C38.0143 30.6291 37.7332 30.8409 37.4075 30.8683L35.5899 31.0213C35.2253 31.6078 34.7869 32.1466 34.2863 32.6247L34.5372 34.3981C34.5835 34.7253 34.436 35.0497 34.1589 35.2298C33.3895 35.7299 32.5549 36.1257 31.676 36.4047C31.3657 36.5032 31.0263 36.4158 30.8022 36.1796L29.548 34.8578C29.2175 34.8973 28.8832 34.9172 28.5466 34.9172C28.21 34.9172 27.8758 34.8973 27.5452 34.8578L26.291 36.1796C26.0669 36.4158 25.7275 36.5032 25.4172 36.4047C24.5383 36.1257 23.7037 35.7299 22.9343 35.2298C22.6573 35.0497 22.5097 34.7253 22.556 34.3981L22.807 32.6247C22.3063 32.1466 21.868 31.6078 21.5033 31.0213ZM22.086 29.3645C22.3707 29.3885 22.6243 29.5539 22.761 29.8048C23.1421 30.5042 23.6519 31.1299 24.2624 31.649C24.4844 31.8378 24.5942 32.1271 24.5533 32.4156L24.3176 34.0817C24.6769 34.2845 25.0508 34.4613 25.4366 34.6105L26.6158 33.3677C26.8122 33.1607 27.0993 33.0661 27.3802 33.1157C27.7622 33.1832 28.152 33.2174 28.5466 33.2174C28.9412 33.2174 29.331 33.1832 29.713 33.1157C29.994 33.0661 30.2811 33.1607 30.4774 33.3677L31.6566 34.6105C32.0424 34.4613 32.4164 34.2845 32.7757 34.0817L32.5399 32.4156C32.4991 32.1271 32.6089 31.8378 32.8309 31.649C33.4414 31.1299 33.9511 30.5042 34.3322 29.8048C34.4689 29.5539 34.7225 29.3885 35.0072 29.3645L36.7135 29.2209C36.8311 28.841 36.9214 28.4523 36.9835 28.0571L35.5222 27.1977C35.2727 27.051 35.115 26.7873 35.1038 26.4981C35.0721 25.6824 34.8869 24.8925 34.5608 24.1587C34.4422 23.8919 34.4689 23.5829 34.6315 23.3404L35.5664 21.9455C35.3335 21.614 35.0769 21.2993 34.7986 21.0038L33.192 21.6148C32.926 21.716 32.6271 21.6773 32.3956 21.5117C31.7569 21.0551 31.04 20.715 30.2763 20.5099C29.9972 20.435 29.7753 20.2233 29.6872 19.948L29.1713 18.3353C28.9642 18.3205 28.7559 18.3131 28.5466 18.3131C28.3373 18.3131 28.129 18.3205 27.922 18.3353L27.406 19.948C27.3179 20.2233 27.096 20.435 26.8169 20.5099C26.0533 20.715 25.3363 21.0551 24.6977 21.5117C24.4662 21.6773 24.1672 21.716 23.9012 21.6148L22.2946 21.0038C22.0163 21.2993 21.7597 21.614 21.5269 21.9455L22.4618 23.3404C22.6243 23.5829 22.651 23.8919 22.5324 24.1587C22.2064 24.8925 22.0211 25.6824 21.9894 26.4981C21.9782 26.7873 21.8205 27.051 21.571 27.1977L20.1097 28.0571C20.1719 28.4523 20.2622 28.841 20.3797 29.2209L22.086 29.3645ZM28.6883 31.9117C25.9436 31.9117 23.7304 29.6223 23.7304 26.8122C23.7304 24.0022 25.9436 21.7128 28.6883 21.7128C31.433 21.7128 33.6461 24.0022 33.6461 26.8122C33.6461 29.6223 31.433 31.9117 28.6883 31.9117ZM28.6883 30.2119C30.481 30.2119 31.9463 28.6961 31.9463 26.8122C31.9463 24.9283 30.481 23.4126 28.6883 23.4126C26.8955 23.4126 25.4303 24.9283 25.4303 26.8122C25.4303 28.6961 26.8955 30.2119 28.6883 30.2119Z" fill="white"/>
</svg>
