<svg width="320" height="53" viewBox="0 0 320 53" fill="none" xmlns="http://www.w3.org/2000/svg">
<rect width="320" height="53" rx="4" fill="#0275B1"/>
<path d="M87.6953 33.1641C86.8568 33.1641 86.0938 33.0703 85.4062 32.8828C84.7188 32.6953 84.0417 32.3698 83.375 31.9062V29.1562H85.1406L85.3828 30.7734C85.6172 30.9714 85.9401 31.1328 86.3516 31.2578C86.763 31.3776 87.2109 31.4375 87.6953 31.4375C88.1068 31.4375 88.4531 31.3802 88.7344 31.2656C89.0208 31.151 89.237 30.9896 89.3828 30.7812C89.5339 30.5677 89.6094 30.3177 89.6094 30.0312C89.6094 29.7604 89.5417 29.5208 89.4062 29.3125C89.276 29.099 89.0573 28.9062 88.75 28.7344C88.4479 28.5573 88.0365 28.388 87.5156 28.2266C86.6146 27.9609 85.8672 27.6719 85.2734 27.3594C84.6849 27.0417 84.2422 26.6641 83.9453 26.2266C83.6536 25.7839 83.5078 25.2526 83.5078 24.6328C83.5078 24.0182 83.6771 23.4766 84.0156 23.0078C84.3594 22.5339 84.8333 22.1615 85.4375 21.8906C86.0417 21.6198 86.7396 21.4792 87.5312 21.4688C88.4062 21.4583 89.1797 21.5625 89.8516 21.7812C90.5286 22 91.112 22.3047 91.6016 22.6953V25.2578H89.8906L89.5938 23.6953C89.3958 23.5703 89.1276 23.4609 88.7891 23.3672C88.4557 23.2734 88.0755 23.2266 87.6484 23.2266C87.2839 23.2266 86.9609 23.2812 86.6797 23.3906C86.4036 23.5 86.1849 23.6589 86.0234 23.8672C85.862 24.0755 85.7812 24.3281 85.7812 24.625C85.7812 24.8802 85.8516 25.1042 85.9922 25.2969C86.1328 25.4844 86.3672 25.6641 86.6953 25.8359C87.0286 26.0026 87.487 26.1823 88.0703 26.375C89.3255 26.724 90.276 27.1849 90.9219 27.7578C91.5729 28.3307 91.8984 29.0833 91.8984 30.0156C91.8984 30.6615 91.724 31.2214 91.375 31.6953C91.026 32.1641 90.5365 32.526 89.9062 32.7812C89.276 33.0365 88.5391 33.1641 87.6953 33.1641ZM96.9062 33.1641C96.099 33.1641 95.3932 32.987 94.7891 32.6328C94.1849 32.2734 93.7161 31.7812 93.3828 31.1562C93.0547 30.5312 92.8906 29.8177 92.8906 29.0156V28.7031C92.8906 27.8646 93.0469 27.1224 93.3594 26.4766C93.6719 25.8255 94.112 25.3151 94.6797 24.9453C95.2526 24.5755 95.9271 24.3906 96.7031 24.3906C97.4688 24.3906 98.112 24.5417 98.6328 24.8438C99.1536 25.1458 99.5495 25.5807 99.8203 26.1484C100.091 26.7161 100.227 27.4036 100.227 28.2109V29.4531H95.2578L95.2422 29.5C95.2734 29.8698 95.3646 30.2005 95.5156 30.4922C95.6719 30.7786 95.8906 31.0052 96.1719 31.1719C96.4531 31.3333 96.7943 31.4141 97.1953 31.4141C97.612 31.4141 98 31.362 98.3594 31.2578C98.724 31.1484 99.0781 30.9896 99.4219 30.7812L100.039 32.1875C99.6901 32.4688 99.25 32.7031 98.7188 32.8906C98.1927 33.0729 97.5885 33.1641 96.9062 33.1641ZM95.2734 27.9453H98.0938V27.7422C98.0938 27.3984 98.0469 27.1042 97.9531 26.8594C97.8646 26.6094 97.7188 26.4167 97.5156 26.2812C97.3177 26.1458 97.0599 26.0781 96.7422 26.0781C96.4401 26.0781 96.1849 26.1589 95.9766 26.3203C95.7682 26.4766 95.6042 26.6927 95.4844 26.9688C95.3698 27.2448 95.2917 27.5573 95.25 27.9062L95.2734 27.9453ZM101.195 33V31.6328L102.289 31.3984V26.1562L101.078 25.9219V24.5469H104.414L104.516 25.7578C104.797 25.3255 105.143 24.9896 105.555 24.75C105.971 24.5104 106.445 24.3906 106.977 24.3906C107.815 24.3906 108.471 24.6589 108.945 25.1953C109.419 25.7318 109.656 26.5729 109.656 27.7188V31.3984L110.75 31.6328V33H106.391V31.6328L107.367 31.3984V27.7266C107.367 27.1589 107.255 26.7578 107.031 26.5234C106.807 26.2839 106.474 26.1641 106.031 26.1641C105.703 26.1641 105.417 26.2344 105.172 26.375C104.932 26.5104 104.732 26.7057 104.57 26.9609V31.3984L105.492 31.6328V33H101.195ZM115.125 33.1641C114.495 33.1641 113.906 33.1042 113.359 32.9844C112.818 32.8646 112.297 32.6927 111.797 32.4688L111.773 30.0781H113.359L113.664 31.2969C113.841 31.3854 114.034 31.4557 114.242 31.5078C114.456 31.5599 114.698 31.5859 114.969 31.5859C115.479 31.5859 115.839 31.5026 116.047 31.3359C116.255 31.1693 116.359 30.9609 116.359 30.7109C116.359 30.4766 116.247 30.2708 116.023 30.0938C115.805 29.9115 115.365 29.7526 114.703 29.6172C113.703 29.4089 112.966 29.0859 112.492 28.6484C112.018 28.2109 111.781 27.651 111.781 26.9688C111.781 26.5 111.898 26.0729 112.133 25.6875C112.372 25.3021 112.734 24.9922 113.219 24.7578C113.708 24.5234 114.333 24.4062 115.094 24.4062C115.729 24.4062 116.31 24.4688 116.836 24.5938C117.367 24.7135 117.812 24.8724 118.172 25.0703L118.195 27.3828H116.617L116.375 26.2734C116.234 26.1693 116.068 26.0911 115.875 26.0391C115.688 25.987 115.474 25.9609 115.234 25.9609C114.833 25.9609 114.526 26.0417 114.312 26.2031C114.099 26.3646 113.992 26.5729 113.992 26.8281C113.992 26.974 114.029 27.1094 114.102 27.2344C114.18 27.3594 114.331 27.4766 114.555 27.5859C114.779 27.6953 115.104 27.7995 115.531 27.8984C116.578 28.138 117.341 28.4583 117.82 28.8594C118.299 29.2552 118.539 29.8125 118.539 30.5312C118.539 31.3177 118.253 31.9531 117.68 32.4375C117.112 32.9219 116.26 33.1641 115.125 33.1641ZM123.609 33.1641C122.776 33.1641 122.06 32.9818 121.461 32.6172C120.862 32.2526 120.404 31.7474 120.086 31.1016C119.768 30.4505 119.609 29.7031 119.609 28.8594V28.6953C119.609 27.8568 119.768 27.1146 120.086 26.4688C120.404 25.8177 120.859 25.3099 121.453 24.9453C122.052 24.5755 122.766 24.3906 123.594 24.3906C124.432 24.3906 125.148 24.5755 125.742 24.9453C126.336 25.3099 126.792 25.8151 127.109 26.4609C127.427 27.1068 127.586 27.8516 127.586 28.6953V28.8594C127.586 29.7031 127.427 30.4505 127.109 31.1016C126.792 31.7474 126.336 32.2526 125.742 32.6172C125.148 32.9818 124.438 33.1641 123.609 33.1641ZM123.609 31.4141C124.005 31.4141 124.328 31.3073 124.578 31.0938C124.828 30.8802 125.013 30.5833 125.133 30.2031C125.253 29.8177 125.312 29.3698 125.312 28.8594V28.6953C125.312 28.1953 125.253 27.7552 125.133 27.375C125.013 26.9896 124.826 26.6901 124.57 26.4766C124.32 26.2578 123.995 26.1484 123.594 26.1484C123.203 26.1484 122.88 26.2578 122.625 26.4766C122.37 26.6901 122.182 26.9896 122.062 27.375C121.948 27.7552 121.891 28.1953 121.891 28.6953V28.8594C121.891 29.3698 121.948 29.8177 122.062 30.2031C122.182 30.5885 122.37 30.888 122.625 31.1016C122.88 31.3099 123.208 31.4141 123.609 31.4141ZM128.781 33V31.6328L129.875 31.3984V26.1562L128.664 25.9219V24.5469H132L132.086 25.5938L132.102 25.7812C132.31 25.3229 132.568 24.9766 132.875 24.7422C133.182 24.5078 133.549 24.3906 133.977 24.3906C134.112 24.3906 134.26 24.4036 134.422 24.4297C134.583 24.4505 134.727 24.4792 134.852 24.5156L134.609 26.6172L133.477 26.5547C133.154 26.5391 132.891 26.5938 132.688 26.7188C132.49 26.8438 132.312 27.0234 132.156 27.2578V31.3984L133.25 31.6328V33H128.781ZM139.68 33V31.5078L143.359 27.5625C143.714 27.151 143.997 26.7865 144.211 26.4688C144.43 26.151 144.586 25.8568 144.68 25.5859C144.779 25.3099 144.828 25.0417 144.828 24.7812C144.828 24.3333 144.701 23.9609 144.445 23.6641C144.195 23.3672 143.852 23.2188 143.414 23.2188C142.852 23.2188 142.43 23.3984 142.148 23.7578C141.872 24.112 141.734 24.5859 141.734 25.1797H139.516L139.5 25.1328C139.484 24.4453 139.633 23.8255 139.945 23.2734C140.258 22.7161 140.708 22.276 141.297 21.9531C141.891 21.625 142.591 21.4609 143.398 21.4609C144.164 21.4609 144.823 21.599 145.375 21.875C145.927 22.151 146.354 22.5391 146.656 23.0391C146.958 23.5391 147.109 24.1302 147.109 24.8125C147.109 25.1562 147.062 25.4818 146.969 25.7891C146.88 26.0911 146.737 26.401 146.539 26.7188C146.346 27.0312 146.094 27.3724 145.781 27.7422C145.474 28.112 145.104 28.5312 144.672 29L142.648 31.2109L142.664 31.25H147.445V33H139.68ZM155.578 33.1641C154.906 33.1641 154.328 32.9922 153.844 32.6484C153.365 32.2995 152.997 31.8151 152.742 31.1953C152.487 30.5703 152.359 29.8411 152.359 29.0078V28.8438C152.359 27.9531 152.487 27.1745 152.742 26.5078C153.003 25.8411 153.372 25.3229 153.852 24.9531C154.331 24.5781 154.904 24.3906 155.57 24.3906C156.034 24.3906 156.44 24.4844 156.789 24.6719C157.138 24.8542 157.44 25.1146 157.695 25.4531V22.4219L156.477 22.1875V20.8125H157.695H159.977V31.3984L161.07 31.6328V33H158L157.828 31.9688C157.562 32.3594 157.245 32.6562 156.875 32.8594C156.51 33.0625 156.078 33.1641 155.578 33.1641ZM156.258 31.3906C156.576 31.3906 156.854 31.3229 157.094 31.1875C157.333 31.0521 157.534 30.8568 157.695 30.6016V27.0156C157.539 26.7448 157.341 26.5365 157.102 26.3906C156.862 26.2396 156.586 26.1641 156.273 26.1641C155.893 26.1641 155.581 26.2786 155.336 26.5078C155.096 26.7318 154.919 27.0443 154.805 27.4453C154.695 27.8464 154.641 28.3125 154.641 28.8438V29.0078C154.641 29.7474 154.766 30.3307 155.016 30.7578C155.266 31.1797 155.68 31.3906 156.258 31.3906ZM165.828 33.1641C165.021 33.1641 164.315 32.987 163.711 32.6328C163.107 32.2734 162.638 31.7812 162.305 31.1562C161.977 30.5312 161.812 29.8177 161.812 29.0156V28.7031C161.812 27.8646 161.969 27.1224 162.281 26.4766C162.594 25.8255 163.034 25.3151 163.602 24.9453C164.174 24.5755 164.849 24.3906 165.625 24.3906C166.391 24.3906 167.034 24.5417 167.555 24.8438C168.076 25.1458 168.471 25.5807 168.742 26.1484C169.013 26.7161 169.148 27.4036 169.148 28.2109V29.4531H164.18L164.164 29.5C164.195 29.8698 164.286 30.2005 164.438 30.4922C164.594 30.7786 164.812 31.0052 165.094 31.1719C165.375 31.3333 165.716 31.4141 166.117 31.4141C166.534 31.4141 166.922 31.362 167.281 31.2578C167.646 31.1484 168 30.9896 168.344 30.7812L168.961 32.1875C168.612 32.4688 168.172 32.7031 167.641 32.8906C167.115 33.0729 166.51 33.1641 165.828 33.1641ZM164.195 27.9453H167.016V27.7422C167.016 27.3984 166.969 27.1042 166.875 26.8594C166.786 26.6094 166.641 26.4167 166.438 26.2812C166.24 26.1458 165.982 26.0781 165.664 26.0781C165.362 26.0781 165.107 26.1589 164.898 26.3203C164.69 26.4766 164.526 26.6927 164.406 26.9688C164.292 27.2448 164.214 27.5573 164.172 27.9062L164.195 27.9453ZM173.523 33.1641C172.737 33.1641 172.13 32.9479 171.703 32.5156C171.281 32.0833 171.07 31.3984 171.07 30.4609V26.1484H169.906V24.5469H171.07V22.4766H173.344V24.5469H174.898V26.1484H173.344V30.4531C173.344 30.7812 173.411 31.0156 173.547 31.1562C173.688 31.2969 173.878 31.3672 174.117 31.3672C174.247 31.3672 174.383 31.3594 174.523 31.3438C174.669 31.3229 174.794 31.3021 174.898 31.2812L175.094 32.9297C174.859 32.9974 174.604 33.0521 174.328 33.0938C174.057 33.1406 173.789 33.1641 173.523 33.1641ZM179.812 33.1641C179.005 33.1641 178.299 32.987 177.695 32.6328C177.091 32.2734 176.622 31.7812 176.289 31.1562C175.961 30.5312 175.797 29.8177 175.797 29.0156V28.7031C175.797 27.8646 175.953 27.1224 176.266 26.4766C176.578 25.8255 177.018 25.3151 177.586 24.9453C178.159 24.5755 178.833 24.3906 179.609 24.3906C180.375 24.3906 181.018 24.5417 181.539 24.8438C182.06 25.1458 182.456 25.5807 182.727 26.1484C182.997 26.7161 183.133 27.4036 183.133 28.2109V29.4531H178.164L178.148 29.5C178.18 29.8698 178.271 30.2005 178.422 30.4922C178.578 30.7786 178.797 31.0052 179.078 31.1719C179.359 31.3333 179.701 31.4141 180.102 31.4141C180.518 31.4141 180.906 31.362 181.266 31.2578C181.63 31.1484 181.984 30.9896 182.328 30.7812L182.945 32.1875C182.596 32.4688 182.156 32.7031 181.625 32.8906C181.099 33.0729 180.495 33.1641 179.812 33.1641ZM178.18 27.9453H181V27.7422C181 27.3984 180.953 27.1042 180.859 26.8594C180.771 26.6094 180.625 26.4167 180.422 26.2812C180.224 26.1458 179.966 26.0781 179.648 26.0781C179.346 26.0781 179.091 26.1589 178.883 26.3203C178.674 26.4766 178.51 26.6927 178.391 26.9688C178.276 27.2448 178.198 27.5573 178.156 27.9062L178.18 27.9453ZM188.164 33.1641C187.352 33.1641 186.648 32.9818 186.055 32.6172C185.466 32.2526 185.013 31.75 184.695 31.1094C184.378 30.4635 184.219 29.7266 184.219 28.8984V28.6641C184.219 27.8307 184.38 27.0938 184.703 26.4531C185.026 25.8125 185.482 25.3099 186.07 24.9453C186.659 24.5755 187.352 24.3906 188.148 24.3906C188.909 24.3906 189.562 24.5104 190.109 24.75C190.661 24.9844 191.109 25.2578 191.453 25.5703L191.438 27.9922H189.719L189.414 26.4844C189.289 26.3594 189.13 26.2578 188.938 26.1797C188.745 26.1016 188.549 26.0625 188.352 26.0625C187.935 26.0625 187.589 26.1667 187.312 26.375C187.042 26.5833 186.839 26.8802 186.703 27.2656C186.568 27.651 186.5 28.1172 186.5 28.6641V28.8984C186.5 29.4766 186.576 29.9531 186.727 30.3281C186.878 30.6979 187.078 30.9714 187.328 31.1484C187.583 31.3255 187.867 31.4141 188.18 31.4141C188.581 31.4141 188.901 31.3099 189.141 31.1016C189.385 30.888 189.552 30.5885 189.641 30.2031H191.594L191.617 30.25C191.529 30.849 191.352 31.3672 191.086 31.8047C190.826 32.2422 190.456 32.5781 189.977 32.8125C189.503 33.0469 188.898 33.1641 188.164 33.1641ZM195.961 33.1641C195.174 33.1641 194.568 32.9479 194.141 32.5156C193.719 32.0833 193.508 31.3984 193.508 30.4609V26.1484H192.344V24.5469H193.508V22.4766H195.781V24.5469H197.336V26.1484H195.781V30.4531C195.781 30.7812 195.849 31.0156 195.984 31.1562C196.125 31.2969 196.315 31.3672 196.555 31.3672C196.685 31.3672 196.82 31.3594 196.961 31.3438C197.107 31.3229 197.232 31.3021 197.336 31.2812L197.531 32.9297C197.297 32.9974 197.042 33.0521 196.766 33.0938C196.495 33.1406 196.227 33.1641 195.961 33.1641ZM201.219 33.1641C200.38 33.1641 199.714 32.9401 199.219 32.4922C198.724 32.0391 198.477 31.4245 198.477 30.6484C198.477 29.8516 198.799 29.2057 199.445 28.7109C200.091 28.2109 201.036 27.9609 202.281 27.9609H203.398V27.3359C203.398 26.9297 203.279 26.6016 203.039 26.3516C202.805 26.0964 202.451 25.9688 201.977 25.9688C201.732 25.9688 201.513 26 201.32 26.0625C201.128 26.1198 200.951 26.2031 200.789 26.3125L200.609 27.4297H198.969L198.938 25.2344C199.38 24.9844 199.859 24.7812 200.375 24.625C200.891 24.4688 201.466 24.3906 202.102 24.3906C203.206 24.3906 204.078 24.6484 204.719 25.1641C205.359 25.6745 205.68 26.4062 205.68 27.3594V30.8438C205.68 30.9583 205.68 31.0729 205.68 31.1875C205.685 31.2969 205.695 31.4036 205.711 31.5078L206.594 31.6328V33H203.766C203.708 32.8542 203.651 32.6979 203.594 32.5312C203.536 32.3646 203.495 32.1979 203.469 32.0312C203.198 32.375 202.878 32.651 202.508 32.8594C202.143 33.0625 201.714 33.1641 201.219 33.1641ZM201.828 31.4766C202.146 31.4766 202.448 31.4062 202.734 31.2656C203.021 31.1198 203.242 30.9297 203.398 30.6953V29.3594H202.273C201.773 29.3594 201.393 29.474 201.133 29.7031C200.878 29.9323 200.75 30.2083 200.75 30.5312C200.75 30.8333 200.844 31.0677 201.031 31.2344C201.224 31.3958 201.49 31.4766 201.828 31.4766ZM210.656 33.1641C209.984 33.1641 209.406 32.9922 208.922 32.6484C208.443 32.2995 208.076 31.8151 207.82 31.1953C207.565 30.5703 207.438 29.8411 207.438 29.0078V28.8438C207.438 27.9531 207.565 27.1745 207.82 26.5078C208.081 25.8411 208.451 25.3229 208.93 24.9531C209.409 24.5781 209.982 24.3906 210.648 24.3906C211.112 24.3906 211.518 24.4844 211.867 24.6719C212.216 24.8542 212.518 25.1146 212.773 25.4531V22.4219L211.555 22.1875V20.8125H212.773H215.055V31.3984L216.148 31.6328V33H213.078L212.906 31.9688C212.641 32.3594 212.323 32.6562 211.953 32.8594C211.589 33.0625 211.156 33.1641 210.656 33.1641ZM211.336 31.3906C211.654 31.3906 211.932 31.3229 212.172 31.1875C212.411 31.0521 212.612 30.8568 212.773 30.6016V27.0156C212.617 26.7448 212.419 26.5365 212.18 26.3906C211.94 26.2396 211.664 26.1641 211.352 26.1641C210.971 26.1641 210.659 26.2786 210.414 26.5078C210.174 26.7318 209.997 27.0443 209.883 27.4453C209.773 27.8464 209.719 28.3125 209.719 28.8438V29.0078C209.719 29.7474 209.844 30.3307 210.094 30.7578C210.344 31.1797 210.758 31.3906 211.336 31.3906ZM220.891 33.1641C220.057 33.1641 219.341 32.9818 218.742 32.6172C218.143 32.2526 217.685 31.7474 217.367 31.1016C217.049 30.4505 216.891 29.7031 216.891 28.8594V28.6953C216.891 27.8568 217.049 27.1146 217.367 26.4688C217.685 25.8177 218.141 25.3099 218.734 24.9453C219.333 24.5755 220.047 24.3906 220.875 24.3906C221.714 24.3906 222.43 24.5755 223.023 24.9453C223.617 25.3099 224.073 25.8151 224.391 26.4609C224.708 27.1068 224.867 27.8516 224.867 28.6953V28.8594C224.867 29.7031 224.708 30.4505 224.391 31.1016C224.073 31.7474 223.617 32.2526 223.023 32.6172C222.43 32.9818 221.719 33.1641 220.891 33.1641ZM220.891 31.4141C221.286 31.4141 221.609 31.3073 221.859 31.0938C222.109 30.8802 222.294 30.5833 222.414 30.2031C222.534 29.8177 222.594 29.3698 222.594 28.8594V28.6953C222.594 28.1953 222.534 27.7552 222.414 27.375C222.294 26.9896 222.107 26.6901 221.852 26.4766C221.602 26.2578 221.276 26.1484 220.875 26.1484C220.484 26.1484 220.161 26.2578 219.906 26.4766C219.651 26.6901 219.464 26.9896 219.344 27.375C219.229 27.7552 219.172 28.1953 219.172 28.6953V28.8594C219.172 29.3698 219.229 29.8177 219.344 30.2031C219.464 30.5885 219.651 30.888 219.906 31.1016C220.161 31.3099 220.49 31.4141 220.891 31.4141ZM229.758 36.25V34.875L230.859 34.6406V26.1562L229.641 25.9219V24.5469H232.953L233.062 25.5312C233.312 25.1667 233.615 24.8854 233.969 24.6875C234.323 24.4896 234.745 24.3906 235.234 24.3906C235.917 24.3906 236.5 24.5781 236.984 24.9531C237.469 25.3229 237.839 25.8411 238.094 26.5078C238.354 27.1745 238.484 27.9531 238.484 28.8438V29.0078C238.484 29.8411 238.354 30.5703 238.094 31.1953C237.839 31.8151 237.466 32.2995 236.977 32.6484C236.492 32.9922 235.906 33.1641 235.219 33.1641C234.766 33.1641 234.365 33.0833 234.016 32.9219C233.672 32.7552 233.378 32.513 233.133 32.1953V34.6406L234.234 34.875V36.25H229.758ZM234.539 31.4141C235.122 31.4141 235.544 31.1979 235.805 30.7656C236.07 30.3333 236.203 29.7474 236.203 29.0078V28.8438C236.203 28.3073 236.143 27.8411 236.023 27.4453C235.904 27.0443 235.719 26.7318 235.469 26.5078C235.224 26.2786 234.909 26.1641 234.523 26.1641C234.211 26.1641 233.935 26.2344 233.695 26.375C233.461 26.5156 233.273 26.7161 233.133 26.9766V30.6797C233.273 30.9193 233.461 31.1016 233.695 31.2266C233.935 31.3516 234.216 31.4141 234.539 31.4141ZM242.328 33.1641C241.49 33.1641 240.823 32.9401 240.328 32.4922C239.833 32.0391 239.586 31.4245 239.586 30.6484C239.586 29.8516 239.909 29.2057 240.555 28.7109C241.201 28.2109 242.146 27.9609 243.391 27.9609H244.508V27.3359C244.508 26.9297 244.388 26.6016 244.148 26.3516C243.914 26.0964 243.56 25.9688 243.086 25.9688C242.841 25.9688 242.622 26 242.43 26.0625C242.237 26.1198 242.06 26.2031 241.898 26.3125L241.719 27.4297H240.078L240.047 25.2344C240.49 24.9844 240.969 24.7812 241.484 24.625C242 24.4688 242.576 24.3906 243.211 24.3906C244.315 24.3906 245.188 24.6484 245.828 25.1641C246.469 25.6745 246.789 26.4062 246.789 27.3594V30.8438C246.789 30.9583 246.789 31.0729 246.789 31.1875C246.794 31.2969 246.805 31.4036 246.82 31.5078L247.703 31.6328V33H244.875C244.818 32.8542 244.76 32.6979 244.703 32.5312C244.646 32.3646 244.604 32.1979 244.578 32.0312C244.307 32.375 243.987 32.651 243.617 32.8594C243.253 33.0625 242.823 33.1641 242.328 33.1641ZM242.938 31.4766C243.255 31.4766 243.557 31.4062 243.844 31.2656C244.13 31.1198 244.352 30.9297 244.508 30.6953V29.3594H243.383C242.883 29.3594 242.503 29.474 242.242 29.7031C241.987 29.9323 241.859 30.2083 241.859 30.5312C241.859 30.8333 241.953 31.0677 242.141 31.2344C242.333 31.3958 242.599 31.4766 242.938 31.4766ZM248.391 33V31.6328L249.492 31.3984V22.4219L248.273 22.1875V20.8125H251.773V31.3984L252.875 31.6328V33H248.391ZM257.516 33.1641C256.708 33.1641 256.003 32.987 255.398 32.6328C254.794 32.2734 254.326 31.7812 253.992 31.1562C253.664 30.5312 253.5 29.8177 253.5 29.0156V28.7031C253.5 27.8646 253.656 27.1224 253.969 26.4766C254.281 25.8255 254.721 25.3151 255.289 24.9453C255.862 24.5755 256.536 24.3906 257.312 24.3906C258.078 24.3906 258.721 24.5417 259.242 24.8438C259.763 25.1458 260.159 25.5807 260.43 26.1484C260.701 26.7161 260.836 27.4036 260.836 28.2109V29.4531H255.867L255.852 29.5C255.883 29.8698 255.974 30.2005 256.125 30.4922C256.281 30.7786 256.5 31.0052 256.781 31.1719C257.062 31.3333 257.404 31.4141 257.805 31.4141C258.221 31.4141 258.609 31.362 258.969 31.2578C259.333 31.1484 259.688 30.9896 260.031 30.7812L260.648 32.1875C260.299 32.4688 259.859 32.7031 259.328 32.8906C258.802 33.0729 258.198 33.1641 257.516 33.1641ZM255.883 27.9453H258.703V27.7422C258.703 27.3984 258.656 27.1042 258.562 26.8594C258.474 26.6094 258.328 26.4167 258.125 26.2812C257.927 26.1458 257.669 26.0781 257.352 26.0781C257.049 26.0781 256.794 26.1589 256.586 26.3203C256.378 26.4766 256.214 26.6927 256.094 26.9688C255.979 27.2448 255.901 27.5573 255.859 27.9062L255.883 27.9453ZM265.211 33.1641C264.424 33.1641 263.818 32.9479 263.391 32.5156C262.969 32.0833 262.758 31.3984 262.758 30.4609V26.1484H261.594V24.5469H262.758V22.4766H265.031V24.5469H266.586V26.1484H265.031V30.4531C265.031 30.7812 265.099 31.0156 265.234 31.1562C265.375 31.2969 265.565 31.3672 265.805 31.3672C265.935 31.3672 266.07 31.3594 266.211 31.3438C266.357 31.3229 266.482 31.3021 266.586 31.2812L266.781 32.9297C266.547 32.9974 266.292 33.0521 266.016 33.0938C265.745 33.1406 265.477 33.1641 265.211 33.1641ZM271.5 33.1641C270.693 33.1641 269.987 32.987 269.383 32.6328C268.779 32.2734 268.31 31.7812 267.977 31.1562C267.648 30.5312 267.484 29.8177 267.484 29.0156V28.7031C267.484 27.8646 267.641 27.1224 267.953 26.4766C268.266 25.8255 268.706 25.3151 269.273 24.9453C269.846 24.5755 270.521 24.3906 271.297 24.3906C272.062 24.3906 272.706 24.5417 273.227 24.8438C273.747 25.1458 274.143 25.5807 274.414 26.1484C274.685 26.7161 274.82 27.4036 274.82 28.2109V29.4531H269.852L269.836 29.5C269.867 29.8698 269.958 30.2005 270.109 30.4922C270.266 30.7786 270.484 31.0052 270.766 31.1719C271.047 31.3333 271.388 31.4141 271.789 31.4141C272.206 31.4141 272.594 31.362 272.953 31.2578C273.318 31.1484 273.672 30.9896 274.016 30.7812L274.633 32.1875C274.284 32.4688 273.844 32.7031 273.312 32.8906C272.786 33.0729 272.182 33.1641 271.5 33.1641ZM269.867 27.9453H272.688V27.7422C272.688 27.3984 272.641 27.1042 272.547 26.8594C272.458 26.6094 272.312 26.4167 272.109 26.2812C271.911 26.1458 271.654 26.0781 271.336 26.0781C271.034 26.0781 270.779 26.1589 270.57 26.3203C270.362 26.4766 270.198 26.6927 270.078 26.9688C269.964 27.2448 269.885 27.5573 269.844 27.9062L269.867 27.9453Z" fill="white"/>
<path d="M52.8853 23.2539C52.5117 22.7565 51.8073 22.6552 51.3099 23.0288C50.8125 23.4002 50.7113 24.1068 51.0849 24.602C51.9828 25.8038 51.9828 27.4534 51.0849 28.6552C50.7113 29.1526 50.8125 29.857 51.3099 30.2283C51.8095 30.6019 52.5117 30.5006 52.8853 30.0033C54.3842 28.0048 54.3842 25.2546 52.8853 23.2539Z" fill="white"/>
<path d="M56.487 20.5527C56.1134 20.0553 55.409 19.9541 54.9139 20.3277C54.4165 20.699 54.3153 21.4057 54.6866 21.903C56.7886 24.7027 56.7886 28.5534 54.6866 31.3531C54.3153 31.8527 54.4165 32.5571 54.9139 32.9285C55.4113 33.3021 56.1134 33.2008 56.487 32.7034C59.1877 29.1048 59.1877 24.1536 56.487 20.5527Z" fill="white"/>
<path d="M60.0874 17.8527C59.7139 17.3553 59.0094 17.2541 58.5121 17.6276C58.0147 18.0012 57.9134 18.7057 58.287 19.203C61.5886 23.6028 61.5886 29.6568 58.287 34.0566C57.9134 34.554 58.0147 35.2584 58.5121 35.632C59.0094 36.0056 59.7139 35.9043 60.0874 35.407C63.9899 30.2059 63.9899 23.0537 60.0874 17.8527Z" fill="white"/>
<path d="M63.6885 15.1517C63.3172 14.6521 62.6105 14.553 62.1131 14.9244C61.6158 15.298 61.5145 16.0024 61.8881 16.4998C66.3892 22.502 66.3892 30.7525 61.8881 36.7547C61.5145 37.2521 61.6158 37.9565 62.1131 38.3301C62.6105 38.7014 63.3172 38.6024 63.6885 38.1028C68.7883 31.3061 68.7883 21.9528 63.6885 15.1517Z" fill="white"/>
<path d="M67.2897 12.451C66.9161 11.9536 66.2117 11.8524 65.7144 12.2237C65.2147 12.5973 65.1135 13.3017 65.487 13.7991C71.1877 21.4014 71.1877 31.853 65.487 39.4553C65.1135 39.9527 65.2147 40.6571 65.7144 41.0307C66.2117 41.402 66.9161 41.3008 67.2897 40.8034C73.5913 32.4044 73.5913 20.8545 67.2897 12.451Z" fill="white"/>
<path d="M42.7582 19.8776L31.5055 19.8776V25.5039H27.4612C26.5948 25.5039 25.7418 25.2744 24.9901 24.8423C22.2557 23.2624 18.8079 23.654 16.4966 25.8055C16.2918 25.9968 16.0735 26.1679 15.8394 26.3209C13.5574 27.8153 10.4966 27.1783 9 24.8963V28.0718C11.7794 30.023 15.5446 29.7642 18.0314 27.4529C19.6203 25.9743 21.9879 25.7065 23.8671 26.7913C24.9609 27.4214 26.2009 27.7545 27.4635 27.7545H31.5055L31.5055 33.3809L42.7582 33.3809C43.5774 33.3809 44.3313 33.8242 44.7274 34.5421C45.0875 35.1948 45.909 35.4333 46.5616 35.0688C46.9892 34.8325 47.2593 34.3778 47.2593 33.8895V19.3712C47.2593 18.6263 46.6539 18.0209 45.909 18.0209C45.4161 18.0209 44.9637 18.2864 44.7274 18.7185C44.3313 19.4342 43.5774 19.8776 42.7582 19.8776Z" fill="white"/>
</svg>
