<svg width="32" height="32" viewBox="0 0 32 32" fill="none" xmlns="http://www.w3.org/2000/svg">
<circle cx="16" cy="16" r="16" fill="#061019"/>
<path opacity="0.2" d="M5.6083 13.11C5.65133 13.1845 5.72893 13.2321 5.81475 13.2367C5.8194 13.237 5.82392 13.2371 5.82845 13.2371C5.89556 13.2371 5.95862 13.2093 6.00594 13.1626C6.01178 13.1577 6.01666 13.1517 6.02214 13.1464C6.02798 13.1415 6.03287 13.1357 6.03824 13.1303C6.04408 13.1254 6.04896 13.1194 6.05445 13.1141C6.06029 13.1092 6.06518 13.1032 6.07066 13.0979C6.0765 13.093 6.08139 13.087 6.08687 13.0817C6.09271 13.0768 6.0976 13.0708 6.10308 13.0655C6.10892 13.0606 6.1138 13.0546 6.11929 13.0492C6.12513 13.0443 6.13002 13.0384 6.1355 13.033C6.14134 13.0281 6.14623 13.0222 6.15171 13.0168C6.15755 13.0119 6.16244 13.0061 6.16781 13.0007C6.17365 12.9958 6.17853 12.9899 6.18401 12.9845C6.18985 12.9797 6.19474 12.9738 6.20011 12.9684C6.20595 12.9635 6.21083 12.9576 6.21632 12.9523C6.22216 12.9474 6.22704 12.9415 6.23252 12.9361C6.23836 12.9312 6.24325 12.9253 6.24873 12.92C6.25457 12.9151 6.25947 12.9092 6.26495 12.9038C6.27079 12.8989 6.27567 12.893 6.28116 12.8877C6.287 12.8828 6.29188 12.8769 6.29737 12.8715C6.30321 12.8666 6.30809 12.8607 6.31357 12.8554C6.31942 12.8505 6.3243 12.8446 6.32967 12.8393C6.33551 12.8344 6.34039 12.8285 6.34588 12.8231C6.35172 12.8184 6.3566 12.8124 6.36197 12.807C6.36781 12.8021 6.37269 12.7962 6.37818 12.7908C6.38402 12.7859 6.38891 12.78 6.39439 12.7746C6.40023 12.7697 6.40512 12.7638 6.4106 12.7584C6.41644 12.7535 6.42133 12.7476 6.42681 12.7422C6.43265 12.7373 6.43754 12.7314 6.44302 12.726C6.44886 12.7211 6.45375 12.7151 6.45923 12.7098C6.46507 12.7049 6.46996 12.6989 6.47544 12.6936C6.48128 12.6887 6.48617 12.6828 6.49154 12.6775C6.49738 12.6726 6.50226 12.6666 6.50775 12.6613C6.51359 12.6564 6.51847 12.6504 6.52384 12.6452C6.52968 12.6403 6.53456 12.6343 6.54005 12.629C6.54589 12.6241 6.55077 12.6181 6.55626 12.6129C6.5621 12.608 6.56698 12.602 6.57246 12.5967C6.5783 12.5918 6.5832 12.5858 6.58868 12.5806C6.59452 12.5757 6.59941 12.5697 6.60489 12.5643C6.61073 12.5595 6.61561 12.5535 6.6211 12.5483C6.62694 12.5434 6.63183 12.5374 6.63719 12.532C6.64303 12.5272 6.64792 12.5213 6.65328 12.516C6.65912 12.5111 6.66401 12.5051 6.66949 12.4997C6.67533 12.4949 6.68022 12.489 6.68558 12.4837C6.69142 12.4788 6.69631 12.4728 6.70179 12.4674C6.70763 12.4626 6.71252 12.4566 6.718 12.4512C6.72384 12.4464 6.72873 12.4404 6.73421 12.435C6.74005 12.4301 6.74494 12.4242 6.75043 12.4188C6.75627 12.4139 6.76115 12.408 6.76663 12.4026C6.76938 12.4005 6.77164 12.398 6.77426 12.3956C6.92707 12.2958 7.0943 12.2039 7.27583 12.1214C7.27213 12.1248 7.26928 12.1289 7.26582 12.1325C7.26427 12.1338 7.26261 12.1347 7.26118 12.136C7.25689 12.1398 7.25366 12.1446 7.24961 12.1487C7.24818 12.15 7.24639 12.1509 7.24496 12.1522C7.24067 12.156 7.23745 12.1608 7.23352 12.1649C7.23209 12.1662 7.2303 12.1671 7.22887 12.1684C7.22458 12.1722 7.22136 12.177 7.21743 12.1811C7.21588 12.1825 7.21421 12.1833 7.21278 12.1846C7.20849 12.1884 7.20527 12.1932 7.20133 12.1974C7.19978 12.1987 7.19811 12.1995 7.19668 12.2008C7.19239 12.2046 7.18917 12.2094 7.18524 12.2136C7.18369 12.2149 7.18202 12.2157 7.18059 12.217C7.1763 12.2208 7.17309 12.2256 7.16916 12.2298C7.16761 12.2311 7.16594 12.2319 7.16451 12.2332C7.16022 12.237 7.15699 12.2418 7.15294 12.246C7.15151 12.2472 7.14972 12.2481 7.14829 12.2494C7.144 12.2533 7.14079 12.258 7.13685 12.2621C7.1353 12.2634 7.13364 12.2642 7.13221 12.2655C7.12791 12.2693 7.12469 12.2741 7.12064 12.2783C7.11909 12.2796 7.11742 12.2804 7.11599 12.2817C7.1117 12.2856 7.10848 12.2903 7.10455 12.2945C7.103 12.2957 7.10133 12.2966 7.0999 12.298C7.09561 12.3018 7.09239 12.3065 7.08846 12.3107C7.08691 12.312 7.08524 12.3129 7.08381 12.3142C7.07952 12.318 7.0763 12.3227 7.07237 12.3269C7.07094 12.3281 7.06915 12.3291 7.06772 12.3304C7.06343 12.3342 7.06021 12.339 7.05616 12.3431C7.05473 12.3444 7.05294 12.3453 7.05151 12.3466C7.04722 12.3504 7.044 12.3552 7.04007 12.3593C7.03852 12.3605 7.03685 12.3615 7.03542 12.3628C7.03113 12.3666 7.02791 12.3714 7.02397 12.3755C7.02243 12.3769 7.02076 12.3777 7.01933 12.379C7.01503 12.3828 7.01182 12.3876 7.00788 12.3918C7.00633 12.3929 7.00466 12.3939 7.00323 12.3952C6.99894 12.399 6.99573 12.4038 6.99167 12.408C6.99024 12.4092 6.98846 12.4101 6.98702 12.4114C6.98273 12.4152 6.97951 12.42 6.97558 12.4241C6.97403 12.4254 6.97236 12.4262 6.97093 12.4275C6.96664 12.4313 6.96342 12.4361 6.95949 12.4403C6.95806 12.4416 6.95627 12.4424 6.95484 12.4437C6.95055 12.4475 6.94733 12.4523 6.9434 12.4565C6.94185 12.4578 6.94018 12.4586 6.93875 12.4599C6.93446 12.4638 6.93124 12.4685 6.9273 12.4727C6.92575 12.474 6.92409 12.4748 6.92266 12.4761C6.91836 12.48 6.91515 12.4847 6.9111 12.4889C6.90966 12.4902 6.90788 12.491 6.90645 12.4924C6.90216 12.4962 6.89894 12.5009 6.895 12.5051C6.89357 12.5064 6.89178 12.5073 6.89035 12.5086C6.88606 12.5124 6.88285 12.5172 6.87892 12.5213C6.87737 12.5226 6.8757 12.5235 6.87427 12.5248C6.86998 12.5286 6.86676 12.5334 6.86283 12.5375C6.86128 12.5388 6.85961 12.5397 6.85818 12.541C6.85389 12.5448 6.85067 12.5496 6.84673 12.5537C6.84518 12.5551 6.84351 12.5559 6.84208 12.5572C6.83779 12.561 6.83458 12.5658 6.83052 12.57C6.82909 12.5713 6.82731 12.5721 6.82588 12.5734C6.82158 12.5772 6.81837 12.582 6.81443 12.586C6.81288 12.5874 6.81121 12.5882 6.80978 12.5895C6.80549 12.5933 6.80227 12.5981 6.79834 12.6023C6.79691 12.6034 6.79512 12.6044 6.79369 12.6057C6.7894 12.6095 6.78618 12.6143 6.78225 12.6185C6.7807 12.6198 6.77903 12.6206 6.7776 12.6219C6.77331 12.6257 6.77009 12.6305 6.76615 12.6347C6.76461 12.6359 6.76294 12.6368 6.76151 12.6381C6.75722 12.6419 6.754 12.6467 6.75006 12.6509C6.74851 12.6522 6.74684 12.653 6.74541 12.6543C6.74112 12.6582 6.73791 12.6629 6.73398 12.6671C6.73255 12.6683 6.73076 12.6692 6.72933 12.6706C6.72504 12.6744 6.72181 12.6791 6.71776 12.6833C6.71633 12.6846 6.71454 12.6855 6.71311 12.6868C6.70882 12.6906 6.70561 12.6953 6.70168 12.6995C6.70013 12.7007 6.69846 12.7017 6.69703 12.703C6.69274 12.7068 6.68952 12.7116 6.68558 12.7157C6.68403 12.717 6.68237 12.7179 6.68094 12.7192C6.67664 12.723 6.67342 12.7278 6.66937 12.7319C6.66794 12.7332 6.66616 12.7341 6.66473 12.7354C6.66044 12.7392 6.65722 12.744 6.65328 12.748C6.65173 12.7493 6.65006 12.7502 6.64863 12.7515C6.59535 12.7992 6.5646 12.8672 6.564 12.9386C6.53885 15.8424 6.62372 18.8242 6.81467 21.8198C6.74602 21.8213 6.67712 21.8238 6.60882 21.8238C6.3988 21.8238 6.18819 21.8163 5.98282 21.8014C5.97674 21.801 5.97054 21.8007 5.96446 21.8007C5.89259 21.8007 5.82369 21.8312 5.77518 21.8851C5.77399 21.8864 5.77327 21.8882 5.77208 21.8895C5.76791 21.8936 5.76302 21.8969 5.75909 21.9012C5.75789 21.9025 5.75718 21.9043 5.75599 21.9056C5.75182 21.9096 5.74693 21.9129 5.74299 21.9173C5.7418 21.9186 5.74109 21.9204 5.73989 21.9217C5.73572 21.9257 5.73084 21.9291 5.7269 21.9334C5.72571 21.9347 5.72499 21.9365 5.7238 21.9378C5.71963 21.9418 5.71474 21.9451 5.71081 21.9495C5.70962 21.9508 5.7089 21.9526 5.70771 21.9539C5.70354 21.9579 5.69866 21.9613 5.69472 21.9656C5.69353 21.9669 5.69282 21.9687 5.69163 21.97C5.68745 21.974 5.68257 21.9772 5.67863 21.9816C5.67744 21.983 5.67672 21.9847 5.67553 21.9861C5.67136 21.9901 5.66647 21.9934 5.66254 21.9977C5.66135 21.9991 5.66063 22.0008 5.65944 22.0021C5.65527 22.0062 5.65038 22.0094 5.64645 22.0138C5.64526 22.0153 5.64454 22.0169 5.64335 22.0182C5.63918 22.0223 5.63429 22.0255 5.63035 22.0299C5.62916 22.0312 5.62845 22.0329 5.62726 22.0343C5.62308 22.0384 5.6182 22.0417 5.61426 22.046C5.61307 22.0473 5.61236 22.0491 5.61116 22.0504C5.60699 22.0545 5.6021 22.0577 5.59817 22.0621C5.59698 22.0634 5.59626 22.0652 5.59507 22.0665C5.5909 22.0706 5.58602 22.0739 5.58208 22.0782C5.58089 22.0795 5.58018 22.0813 5.57899 22.0826C5.57481 22.0867 5.56993 22.0899 5.56599 22.0943C5.5648 22.0956 5.56409 22.0974 5.56289 22.0987C5.55872 22.1027 5.55383 22.1061 5.5499 22.1104C5.54871 22.1117 5.54799 22.1135 5.5468 22.1148C5.54263 22.1188 5.53774 22.1221 5.53381 22.1265C5.53262 22.1278 5.5319 22.1296 5.53071 22.1309C5.52654 22.1349 5.52165 22.1383 5.51772 22.1426C5.51652 22.1439 5.51581 22.1457 5.51462 22.147C5.51044 22.151 5.50556 22.1542 5.50162 22.1587C5.50043 22.16 5.49972 22.1617 5.49852 22.1631C5.49435 22.1671 5.48947 22.1705 5.48554 22.1747C5.48435 22.1762 5.48363 22.1778 5.48244 22.1792C5.47827 22.1832 5.47338 22.1865 5.46945 22.1908C5.46825 22.1921 5.46754 22.1938 5.46635 22.1952C5.46217 22.1993 5.45729 22.2026 5.45335 22.207C5.45216 22.2084 5.45145 22.2101 5.45025 22.2115C5.44608 22.2155 5.44119 22.2187 5.43726 22.2231C5.43607 22.2244 5.43535 22.2262 5.43416 22.2275C5.42999 22.2316 5.4251 22.2349 5.42117 22.2392C5.41998 22.2405 5.41926 22.2423 5.41807 22.2436C5.4139 22.2477 5.40901 22.2509 5.40508 22.2553C5.40388 22.2566 5.40317 22.2584 5.40198 22.2597C5.39781 22.2638 5.39292 22.2671 5.38899 22.2714C5.3878 22.2727 5.38708 22.2745 5.38589 22.2758C5.38172 22.2799 5.37683 22.2831 5.3729 22.2875C5.37171 22.2888 5.37099 22.2906 5.3698 22.2919C5.36563 22.296 5.36074 22.2993 5.35681 22.3036C5.35561 22.3049 5.3549 22.3067 5.35371 22.308C5.34954 22.3121 5.34465 22.3153 5.34071 22.3197C5.33952 22.321 5.33881 22.3228 5.33761 22.3241C5.33344 22.3282 5.32855 22.3315 5.32462 22.3358C5.32343 22.3371 5.32271 22.3389 5.32152 22.3402C5.31735 22.3442 5.31246 22.3475 5.30853 22.3519C5.30734 22.3532 5.30662 22.355 5.30543 22.3563C5.30126 22.3603 5.29638 22.3637 5.29244 22.3681C5.29125 22.3694 5.29054 22.3712 5.28934 22.3725C5.28517 22.3765 5.28029 22.3799 5.27635 22.3842C5.27516 22.3855 5.27444 22.3873 5.27325 22.3886C5.26908 22.3926 5.26419 22.3958 5.26026 22.4003C5.25907 22.4016 5.25835 22.4034 5.25716 22.4047C5.25299 22.4087 5.2481 22.4121 5.24417 22.4163C5.24297 22.4177 5.24226 22.4194 5.24107 22.4208C5.2369 22.4248 5.23201 22.428 5.22807 22.4324C5.22688 22.4337 5.22617 22.4355 5.22498 22.4368C5.2208 22.4409 5.21592 22.4442 5.21198 22.4485C5.21079 22.4498 5.21007 22.4516 5.20888 22.4529C5.20471 22.457 5.19982 22.4602 5.19589 22.4646C5.1947 22.4659 5.19398 22.4677 5.19279 22.469C5.18862 22.4731 5.18374 22.4764 5.1798 22.4807C5.17861 22.482 5.1779 22.4838 5.17671 22.4851C5.17253 22.4892 5.16765 22.4924 5.16371 22.4968C5.16252 22.4981 5.16168 22.4999 5.16049 22.5012C5.15632 22.5053 5.15144 22.5085 5.1475 22.5129C5.14631 22.5142 5.1456 22.516 5.1444 22.5173C5.14023 22.5214 5.13534 22.5247 5.13141 22.5291C5.13022 22.5304 5.1295 22.5322 5.12831 22.5335C5.12414 22.5376 5.11925 22.5409 5.11532 22.5452C5.11413 22.5465 5.11341 22.5483 5.11222 22.5496C5.10805 22.5537 5.10316 22.5569 5.09923 22.5613C5.09803 22.5626 5.09732 22.5644 5.09613 22.5657C5.09196 22.5698 5.08707 22.5731 5.08313 22.5774C5.08194 22.5787 5.08123 22.5805 5.08003 22.5818C5.07586 22.5858 5.07098 22.5891 5.06704 22.5935C5.06585 22.5948 5.06513 22.5966 5.06394 22.5979C5.05977 22.6019 5.05489 22.6053 5.05096 22.6096C5.04976 22.6109 5.04905 22.6127 5.04786 22.614C5.04369 22.618 5.0388 22.6212 5.03486 22.6256C5.03367 22.627 5.03296 22.6287 5.03176 22.6301C5.02759 22.6341 5.02271 22.6375 5.01877 22.6417C5.01758 22.6431 5.01686 22.6448 5.01567 22.6462C5.0115 22.6502 5.00661 22.6534 5.00268 22.6578C5.00149 22.6593 5.00077 22.6609 4.99946 22.6622C4.99529 22.6663 4.9904 22.6695 4.98647 22.6739C4.98528 22.6752 4.98456 22.6769 4.98337 22.6783C4.9792 22.6824 4.97431 22.6857 4.97038 22.69C4.96919 22.6913 4.96847 22.6931 4.96728 22.6944C4.96311 22.6985 4.95822 22.7017 4.95429 22.7061C4.95309 22.7074 4.95238 22.7092 4.95119 22.7105C4.94701 22.7146 4.94213 22.7179 4.93819 22.7222C4.937 22.7235 4.93629 22.7253 4.93509 22.7266C4.93092 22.7307 4.92603 22.7339 4.9221 22.7383C4.92091 22.7396 4.92019 22.7414 4.919 22.7427C4.91483 22.7468 4.90995 22.7501 4.90602 22.7544C4.90482 22.7557 4.90411 22.7575 4.90292 22.7588C4.89875 22.7628 4.89386 22.7661 4.88992 22.7705C4.88873 22.7718 4.88802 22.7736 4.88682 22.7749C4.88265 22.7789 4.87776 22.7823 4.87383 22.7866C4.87264 22.7879 4.87192 22.7897 4.87073 22.791C4.86656 22.795 4.86167 22.7982 4.85774 22.8027C4.85655 22.804 4.85583 22.8058 4.85464 22.8071C4.85047 22.8111 4.84558 22.8145 4.84165 22.8187C4.84045 22.8202 4.83974 22.8218 4.83855 22.8232C4.83438 22.8272 4.82949 22.8305 4.82555 22.8348C4.82436 22.8361 4.82365 22.8378 4.82246 22.8392C4.81828 22.8433 4.8134 22.8466 4.80947 22.851C4.80828 22.8524 4.80756 22.8541 4.80637 22.8555C4.8022 22.8595 4.79731 22.8627 4.79338 22.8671C4.79218 22.8684 4.79147 22.8702 4.79028 22.8715C4.78611 22.8756 4.78122 22.8789 4.77728 22.8832C4.77609 22.8845 4.77538 22.8863 4.77419 22.8876C4.77001 22.8917 4.76513 22.8949 4.76119 22.8993C4.76 22.9006 4.75928 22.9024 4.75809 22.9037C4.75392 22.9078 4.74903 22.9111 4.7451 22.9154C4.74391 22.9167 4.74319 22.9185 4.742 22.9198C4.73783 22.9239 4.73294 22.9271 4.72901 22.9315C4.72782 22.9328 4.7271 22.9346 4.72591 22.9359C4.72174 22.94 4.71686 22.9433 4.71292 22.9476C4.71173 22.9489 4.71101 22.9507 4.70982 22.952C4.70565 22.9561 4.70076 22.9593 4.69683 22.9637C4.69564 22.965 4.69492 22.9668 4.69373 22.9681C4.68956 22.9722 4.68467 22.9755 4.68074 22.9798C4.67955 22.9811 4.67883 22.9829 4.67764 22.9842C4.67347 22.9882 4.66858 22.9915 4.66464 22.9959C4.66345 22.9972 4.66274 22.999 4.66155 23.0003C4.65737 23.0043 4.65249 23.0077 4.64855 23.0121C4.59599 23.0706 4.57358 23.1501 4.58765 23.2275C4.80851 24.4411 5.13964 25.6366 5.57183 26.781C5.60926 26.8803 5.70426 26.9454 5.80963 26.9454C5.81392 26.9454 5.81833 26.9452 5.82262 26.945C8.87459 26.7893 11.6911 25.6485 13.7573 23.7293C13.8402 23.6491 13.9196 23.5706 13.9962 23.4936C14.0017 23.4881 14.0073 23.4825 14.0127 23.4771C14.0179 23.4717 14.0234 23.4663 14.0287 23.4611C14.034 23.4557 14.0395 23.4502 14.0449 23.4449C14.0502 23.4395 14.0557 23.434 14.061 23.4287C14.0663 23.4233 14.0718 23.4178 14.0772 23.4125C14.0825 23.4071 14.088 23.4016 14.0933 23.3962C14.0986 23.3909 14.1041 23.3854 14.1095 23.38C14.1148 23.3747 14.1203 23.3692 14.1256 23.3638C14.1309 23.3585 14.1364 23.353 14.1418 23.3476C14.147 23.3422 14.1525 23.3369 14.1577 23.3316C14.1632 23.3262 14.1688 23.3206 14.1743 23.3151C14.1796 23.3098 14.185 23.3043 14.1903 23.2991C14.1956 23.2937 14.2011 23.2883 14.2065 23.283C14.2119 23.2776 14.2173 23.2722 14.2227 23.2668C14.2281 23.2614 14.2335 23.2559 14.2388 23.2507C14.2442 23.2453 14.2496 23.2399 14.255 23.2345C14.2604 23.2291 14.2658 23.2236 14.2712 23.2184C14.2766 23.213 14.2821 23.2076 14.2874 23.2022C14.2928 23.1968 14.2983 23.1913 14.3036 23.1861C14.3089 23.1807 14.3144 23.1754 14.3196 23.1701C14.3251 23.1646 14.3307 23.1591 14.3362 23.1536C14.3414 23.1482 14.3469 23.1428 14.3522 23.1376C14.3575 23.1322 14.363 23.1267 14.3682 23.1214C14.3736 23.116 14.3791 23.1105 14.3845 23.1052C14.3898 23.0998 14.3953 23.0943 14.4005 23.089C14.4059 23.0836 14.4114 23.0781 14.4168 23.0728C14.4221 23.0674 14.4276 23.0619 14.4328 23.0565C14.4382 23.0512 14.4437 23.0457 14.4491 23.0403C14.4544 23.035 14.4599 23.0295 14.4651 23.0241C14.4704 23.0189 14.4759 23.0134 14.4811 23.0081C14.4866 23.0027 14.4922 22.9971 14.4977 22.9916C14.5029 22.9862 14.5084 22.9809 14.5137 22.9756C14.519 22.9702 14.5245 22.9648 14.5299 22.9594C14.5352 22.954 14.5407 22.9486 14.5461 22.9433C14.5514 22.9379 14.5569 22.9325 14.5623 22.9271C14.5676 22.9217 14.5731 22.9162 14.5784 22.911C14.5837 22.9056 14.5892 22.9002 14.5946 22.8948C14.5999 22.8894 14.6054 22.8839 14.6108 22.8787C14.6162 22.8733 14.6217 22.8679 14.627 22.8625C14.6323 22.8573 14.6377 22.8518 14.643 22.8465C14.6485 22.841 14.6541 22.8354 14.6596 22.8299C14.6648 22.8246 14.6703 22.8192 14.6755 22.814C14.6809 22.8086 14.6864 22.8031 14.6917 22.7978C14.6971 22.7924 14.7026 22.7869 14.7078 22.7816C14.7132 22.7762 14.7187 22.7707 14.724 22.7653C14.7294 22.76 14.7349 22.7545 14.7401 22.7491C14.7455 22.7438 14.751 22.7383 14.7563 22.7329C14.7617 22.7276 14.7672 22.7221 14.7724 22.7167C14.7778 22.7114 14.7833 22.7059 14.7886 22.7005C14.7939 22.6951 14.7994 22.6898 14.8046 22.6845C14.8101 22.6791 14.8157 22.6734 14.8212 22.668C14.8264 22.6627 14.8319 22.6572 14.8371 22.652C14.8425 22.6466 14.848 22.6412 14.8534 22.6359C14.8587 22.6305 14.8642 22.6251 14.8696 22.6197C14.8749 22.6143 14.8804 22.6089 14.8858 22.6036C14.8911 22.5982 14.8966 22.5928 14.902 22.5874C14.9073 22.582 14.9128 22.5765 14.9181 22.5713C14.9234 22.5659 14.9289 22.5605 14.9343 22.5551C14.9397 22.5497 14.9451 22.5442 14.9505 22.539C14.9558 22.5336 14.9612 22.5283 14.9665 22.523C14.972 22.5175 14.9776 22.5119 14.983 22.5065C14.9883 22.5011 14.9938 22.4957 14.999 22.4905C15.0044 22.4851 15.0099 22.4796 15.0151 22.4743C15.0205 22.4689 15.026 22.4634 15.0313 22.4581C15.0367 22.4527 15.0422 22.4472 15.0474 22.4419C15.0528 22.4365 15.0583 22.431 15.0636 22.4256C15.069 22.4203 15.0745 22.4148 15.0797 22.4094C15.0851 22.4041 15.0906 22.3986 15.0959 22.3932C15.1013 22.3879 15.1068 22.3824 15.112 22.377C15.6404 21.8473 16.0265 21.3865 16.3426 20.9108C16.7999 20.2399 17.1518 19.563 17.3863 18.9044C17.8996 17.5593 18.0975 16.0476 17.9587 14.5325C17.8945 13.8431 17.7387 13.1335 17.479 12.3539C17.1885 11.5827 16.8488 10.9279 16.441 10.3531C15.5366 9.06684 14.2068 8.0873 12.7917 7.6644C12.5206 7.56392 12.2458 7.50695 11.98 7.45176C11.8906 7.43329 11.8013 7.41469 11.7124 7.39467C11.7026 7.3924 11.6927 7.39085 11.6827 7.38978C11.5873 7.37977 11.492 7.36761 11.3968 7.35569C11.1552 7.32529 10.9054 7.2937 10.6506 7.2937C10.6292 7.2937 10.6079 7.29395 10.5864 7.29443C10.5 7.29086 10.4135 7.28906 10.3272 7.28906C9.72491 7.28906 9.09461 7.37285 8.40138 7.54509C7.74092 7.70647 7.05163 8.00471 6.34802 8.435C6.01678 8.64728 5.68983 8.90998 5.37623 9.21571C5.37432 9.2175 5.37301 9.21965 5.37123 9.22156C5.36753 9.22513 5.36372 9.22834 5.36015 9.23192C5.35824 9.23371 5.35692 9.23586 5.35513 9.23777C5.35144 9.24134 5.34763 9.24457 5.34405 9.24814C5.34215 9.24993 5.34084 9.25207 5.33905 9.25398C5.33535 9.25755 5.33154 9.26077 5.32796 9.26435C5.32605 9.26614 5.32474 9.26828 5.32296 9.27019C5.31926 9.27376 5.31544 9.27698 5.31187 9.28056C5.30996 9.28235 5.30865 9.28449 5.30686 9.28639C5.30317 9.28997 5.29935 9.29319 5.29578 9.29677C5.29387 9.29856 5.29256 9.3007 5.29077 9.3026C5.28708 9.30618 5.28326 9.3094 5.27968 9.31298C5.27778 9.31476 5.27647 9.3169 5.27468 9.31881C5.27098 9.32239 5.26717 9.32561 5.2636 9.32919C5.26169 9.33097 5.26037 9.33313 5.25859 9.33503C5.25489 9.33861 5.25108 9.34182 5.24751 9.34539C5.2456 9.34718 5.24429 9.34934 5.2425 9.35124C5.23881 9.35482 5.23511 9.35803 5.23141 9.3616C5.22951 9.36339 5.2282 9.36555 5.22641 9.36734C5.22271 9.37091 5.2189 9.37412 5.21521 9.3777C5.2133 9.37948 5.21199 9.38164 5.2102 9.38354C5.2065 9.38712 5.20269 9.39033 5.19911 9.3939C5.19721 9.39569 5.1959 9.39785 5.19411 9.39975C5.19041 9.40333 5.1866 9.40655 5.18302 9.41013C5.18111 9.41192 5.1798 9.41406 5.17802 9.41596C5.17432 9.41954 5.1705 9.42276 5.16693 9.42634C5.16502 9.42812 5.16371 9.43026 5.16192 9.43217C5.15823 9.43575 5.15441 9.43897 5.15084 9.44255C5.14893 9.44433 5.14762 9.44647 5.14583 9.44838C5.14214 9.45196 5.13832 9.45518 5.13474 9.45875C5.13284 9.46054 5.13153 9.46268 5.12974 9.46459C5.12604 9.46816 5.12223 9.47139 5.11866 9.47496C5.11675 9.47675 5.11544 9.47889 5.11365 9.4808C5.10996 9.48437 5.10614 9.4876 5.10257 9.49117C5.10066 9.49296 5.09935 9.4951 5.09756 9.49701C5.09387 9.50058 5.09005 9.5038 5.08647 9.50738C5.08457 9.50917 5.08326 9.51132 5.08147 9.51323C5.07777 9.51681 5.07408 9.52001 5.07038 9.52359C5.06847 9.52538 5.06716 9.52753 5.06538 9.52932C5.06168 9.5329 5.05787 9.53611 5.05417 9.53968C5.05226 9.54147 5.05095 9.54362 5.04917 9.54553C5.04547 9.54911 5.04166 9.55231 5.03808 9.55589C5.03617 9.55768 5.03486 9.55983 5.03307 9.56174C5.02938 9.56532 5.02556 9.56852 5.02199 9.5721C5.02008 9.57389 5.01877 9.57604 5.01698 9.57795C5.01329 9.58152 5.00947 9.58475 5.00589 9.58832C5.00399 9.59011 5.00268 9.59225 5.00089 9.59416C4.99719 9.59773 4.99339 9.60096 4.98981 9.60453C4.9879 9.60632 4.98659 9.60846 4.9848 9.61037C4.9811 9.61394 4.97729 9.61716 4.97372 9.62074C4.97181 9.62253 4.9705 9.62467 4.96871 9.62657C4.96502 9.63015 4.9612 9.63337 4.95763 9.63695C4.95572 9.63874 4.95441 9.64088 4.95262 9.64278C4.94892 9.64636 4.94511 9.64958 4.94153 9.65316C4.93963 9.65495 4.93832 9.65709 4.93653 9.65899C4.93283 9.66257 4.92902 9.66579 4.92544 9.66937C4.92353 9.67115 4.92223 9.67331 4.92032 9.67522C4.91662 9.67879 4.91293 9.682 4.90923 9.68558C4.90732 9.68736 4.90601 9.68951 4.90423 9.69129C4.90053 9.69487 4.89672 9.69809 4.89302 9.70167C4.89112 9.70346 4.88981 9.70561 4.88802 9.70752C4.88432 9.71109 4.88051 9.7143 4.87693 9.71788C4.87502 9.71966 4.87371 9.72182 4.87193 9.72373C4.86823 9.7273 4.86441 9.73051 4.86084 9.73409C4.85893 9.73587 4.85762 9.73803 4.85583 9.73993C4.85214 9.74351 4.84832 9.74672 4.84475 9.75029C4.84284 9.75208 4.84153 9.75424 4.83974 9.75614C4.83605 9.75972 4.83223 9.76294 4.82865 9.76652C4.82675 9.76831 4.82544 9.77044 4.82365 9.77235C4.81995 9.77593 4.81614 9.77915 4.81257 9.78273C4.81066 9.78451 4.80934 9.78665 4.80756 9.78856C4.80386 9.79214 4.80005 9.79536 4.79648 9.79893C4.79457 9.80072 4.79326 9.80286 4.79147 9.80477C4.78778 9.80835 4.78396 9.81157 4.78038 9.81514C4.77848 9.81693 4.77717 9.81907 4.77538 9.82098C4.77168 9.82455 4.76787 9.82778 4.76429 9.83135C4.76238 9.83314 4.76107 9.83528 4.75916 9.83719C4.75547 9.84076 4.75178 9.84399 4.74808 9.84756C4.74618 9.84935 4.74487 9.85149 4.74308 9.85328C4.73938 9.85686 4.73557 9.86008 4.73187 9.86365C4.72997 9.86544 4.72865 9.86758 4.72686 9.86949C4.72317 9.87306 4.71936 9.87629 4.71578 9.87986C4.71387 9.88165 4.71256 9.8838 4.71078 9.88571C4.70708 9.88929 4.70326 9.8925 4.69969 9.89607C4.69778 9.89786 4.69647 9.90001 4.69468 9.90192C4.69099 9.9055 4.68717 9.9087 4.6836 9.91228C4.68169 9.91407 4.68038 9.91622 4.67859 9.91813C4.6749 9.9217 4.67108 9.92493 4.6675 9.9285C4.6656 9.93029 4.66429 9.93243 4.6625 9.93434C4.6588 9.93791 4.65499 9.94114 4.65141 9.94471C4.6495 9.9465 4.64819 9.94864 4.64641 9.95055C4.64271 9.95412 4.6389 9.95734 4.63533 9.96092C4.63342 9.96271 4.6321 9.96485 4.63031 9.96676C4.62662 9.97033 4.62281 9.97355 4.61923 9.97713C4.61733 9.97892 4.61602 9.98106 4.61423 9.98296C4.61053 9.98654 4.60672 9.98976 4.60314 9.99334C4.60123 9.99513 4.59992 9.99727 4.59814 9.99917C4.59444 10.0027 4.59074 10.006 4.58705 10.0095C4.58514 10.0113 4.58383 10.0135 4.58204 10.0153C4.57835 10.0188 4.57454 10.0221 4.57084 10.0256C4.56893 10.0274 4.56762 10.0296 4.56584 10.0315C4.56214 10.035 4.55832 10.0383 4.55475 10.0418C4.55284 10.0436 4.55153 10.0458 4.54974 10.0477C4.54605 10.0513 4.54223 10.0545 4.53866 10.0581C4.53675 10.0598 4.53544 10.062 4.53365 10.0639C4.52996 10.0675 4.52614 10.0707 4.52256 10.0743C4.52066 10.0761 4.51935 10.0782 4.51756 10.0801C4.51386 10.0837 4.51005 10.0869 4.50647 10.0905C4.50456 10.0923 4.50325 10.0944 4.50147 10.0963C4.49777 10.0999 4.49396 10.1031 4.49039 10.1067C4.48848 10.1085 4.48716 10.1106 4.48537 10.1125C4.48168 10.1161 4.47787 10.1193 4.47429 10.1229C4.47239 10.1247 4.47108 10.1268 4.46929 10.1287C4.46559 10.1323 4.46178 10.1355 4.4582 10.1391C4.45629 10.1409 4.45498 10.143 4.4532 10.1449C4.4495 10.1485 4.44568 10.1517 4.44211 10.1553C4.4402 10.1571 4.43889 10.1593 4.4371 10.1612C4.43341 10.1647 4.42971 10.168 4.42602 10.1715C4.42411 10.1733 4.4228 10.1755 4.42101 10.1773C4.41732 10.1808 4.4135 10.184 4.40981 10.1876C4.4079 10.1894 4.40659 10.1916 4.4048 10.1935C4.40111 10.197 4.39729 10.2003 4.39372 10.2038C4.39181 10.2056 4.3905 10.2078 4.38871 10.2097C4.38502 10.2132 4.3812 10.2165 4.37762 10.22C4.37572 10.2218 4.37441 10.224 4.37262 10.2259C4.36892 10.2295 4.36511 10.2327 4.36153 10.2363C4.35962 10.238 4.35831 10.2402 4.35653 10.2421C4.35283 10.2457 4.34902 10.2489 4.34545 10.2525C4.34354 10.2542 4.34223 10.2564 4.34044 10.2583C4.33675 10.2619 4.33293 10.2651 4.32935 10.2687C4.32745 10.2705 4.32614 10.2726 4.32435 10.2745C4.32065 10.2781 4.31684 10.2813 4.31326 10.2849C4.31135 10.2867 4.31004 10.2888 4.30826 10.2907C4.30456 10.2943 4.30074 10.2975 4.29717 10.3011C4.29526 10.3029 4.29395 10.305 4.29216 10.3069C4.28847 10.3105 4.28465 10.3137 4.28108 10.3173C4.27917 10.3191 4.27786 10.3212 4.27595 10.3231C4.27226 10.3267 4.26856 10.3299 4.26487 10.3335C4.26296 10.3353 4.26165 10.3374 4.25986 10.3392C4.25617 10.3428 4.25235 10.346 4.24866 10.3496C4.16534 10.4308 4.14782 10.5581 4.20598 10.6588L5.6083 13.11ZM11.5464 12.5106C11.8383 12.7265 12.1413 13.0501 12.4187 13.4414C12.9101 14.1744 13.2066 15.118 13.2538 16.098C13.2998 17.0699 13.1032 18.0865 12.7008 18.9592C12.533 19.3181 12.3171 19.6664 12.0312 20.0412C12.0113 20.0573 11.992 20.0735 11.9716 20.0896C11.8801 20.1602 11.7841 20.2305 11.6843 20.2997C11.3178 17.5871 11.0425 14.8364 10.8645 12.1164C11.0934 12.2214 11.3195 12.3521 11.5464 12.5106Z" fill="black"/>
<path d="M5.44418 10.6846C5.45705 10.707 5.47397 10.7259 5.49245 10.7431C5.49757 10.7488 5.50306 10.7541 5.50866 10.7592C5.51378 10.7649 5.51927 10.7701 5.52487 10.7754C5.53 10.7811 5.53536 10.7864 5.54096 10.7915C5.54608 10.7972 5.55145 10.8024 5.55718 10.8077C5.5623 10.8134 5.56767 10.8187 5.57327 10.8238C5.57839 10.8295 5.58387 10.8348 5.58948 10.84C5.5946 10.8457 5.59996 10.851 5.60569 10.8562C5.61081 10.8619 5.61629 10.8672 5.62189 10.8724C5.62702 10.8781 5.6325 10.8834 5.6381 10.8886C5.64323 10.8944 5.6486 10.8996 5.65432 10.9048C5.65944 10.9106 5.66481 10.9158 5.67053 10.9211C5.67565 10.9268 5.68113 10.932 5.68674 10.9373C5.69186 10.943 5.69723 10.9482 5.70283 10.9534C5.70795 10.9591 5.71344 10.9643 5.71904 10.9694C5.72416 10.9752 5.72953 10.9804 5.73513 10.9855C5.74026 10.9913 5.74574 10.9965 5.75134 11.0017C5.75646 11.0075 5.76195 11.0127 5.76755 11.018C5.77267 11.0237 5.77804 11.0289 5.78376 11.034C5.78889 11.0398 5.79425 11.045 5.79997 11.0503C5.8051 11.056 5.81046 11.0612 5.81618 11.0663C5.82131 11.0721 5.82679 11.0773 5.83239 11.0826C5.83752 11.0883 5.843 11.0935 5.84861 11.0988C5.85373 11.1045 5.85909 11.1097 5.86469 11.1149C5.86982 11.1206 5.87519 11.1258 5.88091 11.1311C5.88603 11.1368 5.89139 11.142 5.89699 11.1472C5.90212 11.1529 5.90761 11.1581 5.91321 11.1634C5.91833 11.1691 5.9237 11.1743 5.92942 11.1796C5.93454 11.1853 5.9399 11.1906 5.94563 11.1958C5.95075 11.2015 5.95623 11.2068 5.96183 11.212C5.96696 11.2177 5.97245 11.223 5.97805 11.2282C5.98318 11.2339 5.98854 11.2392 5.99426 11.2444C5.99938 11.2501 6.00487 11.2554 6.01047 11.2606C6.01559 11.2664 6.02096 11.2716 6.02656 11.2767C6.03169 11.2824 6.03717 11.2877 6.04277 11.2929C6.04789 11.2987 6.05326 11.3039 6.05886 11.309C6.06399 11.3148 6.06947 11.32 6.07507 11.3252C6.0802 11.331 6.08568 11.3362 6.09128 11.3413C6.0964 11.3471 6.10189 11.3523 6.1075 11.3575C6.11262 11.3633 6.11798 11.3685 6.1237 11.3736C6.12883 11.3794 6.13419 11.3846 6.13991 11.3898C6.14504 11.3956 6.1504 11.4008 6.15612 11.4059C6.16125 11.4117 6.16673 11.4169 6.17233 11.4221C6.17746 11.4279 6.18282 11.4331 6.18842 11.4382C6.19355 11.444 6.19892 11.4492 6.20464 11.4544C6.20976 11.4602 6.21512 11.4654 6.22072 11.4705C6.22585 11.4763 6.23134 11.4815 6.23694 11.4867C6.24207 11.4925 6.24743 11.4977 6.25315 11.503C6.25827 11.5087 6.26364 11.5139 6.26936 11.5192C6.27448 11.5249 6.27984 11.5301 6.28557 11.5354C6.29069 11.5411 6.29618 11.5463 6.30178 11.5516C6.30691 11.5573 6.31239 11.5626 6.31799 11.5678C6.32312 11.5735 6.3286 11.5788 6.3342 11.584C6.33933 11.5897 6.34469 11.595 6.35029 11.6001C6.35542 11.6058 6.36078 11.6111 6.3665 11.6162C6.37163 11.6219 6.37699 11.6272 6.38259 11.6323C6.38653 11.6367 6.39034 11.6411 6.39463 11.6452C6.39773 14.5237 6.50584 17.4695 6.71788 20.4219C6.24564 20.4932 5.77363 20.5292 5.31175 20.5292C5.10173 20.5292 4.89112 20.5217 4.68563 20.5068C4.67955 20.5063 4.67335 20.5061 4.66727 20.5061C4.5954 20.5061 4.5265 20.5366 4.47811 20.5904C4.42566 20.649 4.40313 20.7285 4.4172 20.8058C4.63795 22.0195 4.96919 23.215 5.40139 24.3594C5.41331 24.391 5.4325 24.4173 5.45455 24.441C5.45931 24.4471 5.46551 24.4515 5.47076 24.4571C5.47552 24.4632 5.48172 24.4677 5.48696 24.4733C5.49173 24.4794 5.49794 24.4838 5.50318 24.4894C5.50795 24.4955 5.51414 24.4999 5.51939 24.5056C5.52416 24.5117 5.53036 24.5161 5.53548 24.5217C5.54025 24.5278 5.54645 24.5323 5.55169 24.5379C5.55646 24.544 5.56265 24.5485 5.5679 24.5541C5.57267 24.5602 5.57886 24.5646 5.58411 24.5703C5.58888 24.5764 5.59508 24.5809 5.60032 24.5865C5.60509 24.5926 5.61129 24.597 5.61653 24.6028C5.6213 24.6088 5.6275 24.6134 5.63274 24.619C5.63751 24.625 5.64371 24.6296 5.64895 24.6352C5.65372 24.6413 5.65992 24.6457 5.66504 24.6513C5.66981 24.6573 5.67601 24.6618 5.68125 24.6674C5.68602 24.6734 5.69222 24.6779 5.69734 24.6835C5.70211 24.6895 5.70831 24.6941 5.71355 24.6997C5.71832 24.7057 5.72452 24.7103 5.72977 24.7159C5.73454 24.7219 5.74073 24.7264 5.74598 24.732C5.75074 24.738 5.75694 24.7426 5.76219 24.7482C5.76695 24.7543 5.77315 24.7587 5.77839 24.7643C5.78316 24.7703 5.78937 24.7749 5.79461 24.7805C5.79938 24.7866 5.80557 24.7911 5.81082 24.7967C5.81559 24.8028 5.82178 24.8072 5.82703 24.8128C5.8318 24.8189 5.83799 24.8234 5.84324 24.829C5.848 24.8351 5.8542 24.8395 5.85945 24.8451C5.86421 24.8512 5.87042 24.8557 5.87566 24.8613C5.88043 24.8674 5.88663 24.8718 5.89187 24.8775C5.89664 24.8836 5.90283 24.8881 5.90808 24.8937C5.91285 24.8998 5.91904 24.9042 5.92429 24.9099C5.92906 24.916 5.93526 24.9205 5.9405 24.9261C5.94527 24.9322 5.95147 24.9366 5.95671 24.9423C5.96148 24.9484 5.96768 24.9529 5.97292 24.9586C5.97769 24.9646 5.98389 24.969 5.98913 24.9746C5.9939 24.9807 6.0001 24.9852 6.00535 24.9909C6.01011 24.9969 6.01631 25.0013 6.02143 25.0069C6.0262 25.013 6.0324 25.0174 6.03765 25.0232C6.04242 25.0292 6.04861 25.0336 6.05386 25.0392C6.05862 25.0453 6.06482 25.0499 6.07007 25.0555C6.07483 25.0615 6.08103 25.0659 6.08627 25.0715C6.09104 25.0776 6.09724 25.0822 6.10248 25.0878C6.10725 25.0938 6.11345 25.0982 6.1187 25.1038C6.12347 25.1099 6.12966 25.1145 6.13491 25.1201C6.13968 25.1261 6.14587 25.1305 6.15112 25.1361C6.15588 25.1422 6.16208 25.1466 6.16732 25.1524C6.17209 25.1584 6.17829 25.1628 6.18342 25.1684C6.18819 25.1745 6.19438 25.1791 6.19963 25.1847C6.20439 25.1907 6.2106 25.1953 6.21584 25.2009C6.22061 25.2069 6.22681 25.2114 6.23205 25.2171C6.23682 25.2232 6.24302 25.2277 6.24826 25.2333C6.25303 25.2394 6.25922 25.2438 6.26447 25.2495C6.26924 25.2556 6.27544 25.2601 6.28068 25.2657C6.28545 25.2718 6.29165 25.2763 6.29689 25.2819C6.30166 25.288 6.30786 25.2924 6.3131 25.298C6.31787 25.3041 6.32407 25.3085 6.32931 25.3141C6.33408 25.3202 6.34028 25.3246 6.3454 25.3302C6.35017 25.3363 6.35637 25.3408 6.36161 25.3464C6.36638 25.3525 6.37258 25.357 6.37783 25.3626C6.3826 25.3687 6.38879 25.3731 6.39404 25.3787C6.3988 25.3848 6.405 25.3893 6.41025 25.3949C6.41501 25.401 6.42121 25.4054 6.42645 25.411C6.43122 25.4171 6.43742 25.4216 6.44266 25.4272C6.44743 25.4333 6.45363 25.4378 6.45888 25.4434C6.46365 25.4495 6.46984 25.4539 6.47496 25.4595C6.47973 25.4656 6.48594 25.4701 6.49118 25.4757C6.49595 25.4818 6.50214 25.4862 6.50739 25.4918C6.51216 25.4979 6.51835 25.5024 6.5236 25.508C6.52837 25.5141 6.53456 25.5185 6.53981 25.5242C6.54457 25.5303 6.55078 25.5348 6.55602 25.5405C6.56079 25.5465 6.56699 25.5509 6.57223 25.5567C6.577 25.5627 6.5832 25.5673 6.58844 25.5729C6.59321 25.5789 6.5994 25.5834 6.60465 25.5891C6.60942 25.5952 6.61561 25.5997 6.62086 25.6053C6.62551 25.6114 6.63182 25.6158 6.63695 25.6214C6.6416 25.6275 6.64792 25.632 6.65317 25.6376C6.65793 25.6437 6.66413 25.6481 6.66937 25.6537C6.67414 25.6598 6.68034 25.6642 6.68558 25.6699C6.69035 25.676 6.69655 25.6804 6.70179 25.686C6.70656 25.6921 6.71276 25.6966 6.718 25.7022C6.72277 25.7083 6.72897 25.7127 6.73422 25.7183C6.78166 25.7797 6.8552 25.8172 6.93506 25.8172C6.93935 25.8172 6.94376 25.8171 6.94805 25.8169C10 25.6612 12.8166 24.5204 14.8827 22.6011C15.5284 21.9764 15.9772 21.4557 16.3361 20.9152C16.7935 20.2443 17.1454 19.5674 17.3799 18.9089C17.8932 17.5637 18.091 16.052 17.9523 14.5369C17.8881 13.8475 17.7323 13.1379 17.4725 12.3583C17.1821 11.5871 16.8424 10.9324 16.4346 10.3575C16.2053 10.0313 15.9483 9.72506 15.6697 9.44233C15.6644 9.43685 15.6589 9.4316 15.6536 9.42612C15.6483 9.42064 15.6428 9.41539 15.6374 9.40991C15.6321 9.40443 15.6266 9.39918 15.6213 9.3937C15.6161 9.38834 15.6106 9.38297 15.6052 9.37761C15.5999 9.37213 15.5944 9.36688 15.589 9.3614C15.5837 9.35592 15.5782 9.35067 15.5728 9.34519C15.5675 9.33971 15.562 9.33447 15.5566 9.32898C15.5514 9.32362 15.5459 9.31837 15.5405 9.31289C15.5352 9.30741 15.5297 9.30215 15.5244 9.29667C15.5192 9.29118 15.5136 9.28595 15.5082 9.28059C15.5029 9.27511 15.4974 9.26985 15.492 9.26437C15.4866 9.25888 15.4812 9.25365 15.4758 9.24829C15.4704 9.24281 15.4649 9.23755 15.4596 9.23207C15.4543 9.2267 15.4489 9.22135 15.4435 9.21599C15.4381 9.2105 15.4326 9.20513 15.4273 9.19976C15.4219 9.19428 15.4164 9.18904 15.4112 9.18367C15.4058 9.17819 15.4003 9.17283 15.395 9.16746C15.3897 9.1621 15.3842 9.15685 15.3789 9.15137C15.3735 9.14589 15.368 9.14064 15.3627 9.13516C15.3573 9.12968 15.3518 9.12444 15.3466 9.11895C15.3413 9.11347 15.3357 9.10823 15.3304 9.10274C15.325 9.09726 15.3195 9.09202 15.3143 9.08654C15.3089 9.08105 15.3034 9.07581 15.2981 9.07033C15.2928 9.06484 15.2873 9.0596 15.282 9.05423C15.2766 9.04875 15.2711 9.04339 15.2658 9.03803C15.2604 9.03254 15.2549 9.0273 15.2496 9.02182C15.2442 9.01633 15.2387 9.01097 15.2334 9.00561C15.2281 9.00012 15.2226 8.995 15.2173 8.98952C15.2119 8.98403 15.2064 8.97879 15.2011 8.97342C15.1957 8.96794 15.1902 8.9627 15.185 8.95721C15.1797 8.95173 15.1741 8.94649 15.1688 8.94112C15.1634 8.93564 15.1579 8.9304 15.1525 8.92491C15.1472 8.91943 15.1417 8.91418 15.1363 8.90882C15.1311 8.90334 15.1256 8.89809 15.1202 8.89273C15.1149 8.88725 15.1094 8.882 15.104 8.87652C15.0987 8.87104 15.0932 8.86579 15.0878 8.86031C15.0824 8.85483 15.077 8.84957 15.0716 8.84409C15.0664 8.8386 15.0609 8.83337 15.0555 8.82801C15.0501 8.82253 15.0448 8.81727 15.0394 8.81179C15.0341 8.8063 15.0286 8.80106 15.0232 8.79558C15.0178 8.79009 15.0124 8.78485 15.0071 8.77937C15.0019 8.77389 14.9963 8.76864 14.9909 8.76316C14.9855 8.75768 14.9801 8.75243 14.9748 8.74695C14.9695 8.74159 14.9641 8.73622 14.9587 8.73086C14.9534 8.72538 14.9479 8.72013 14.9425 8.71465C14.9371 8.70917 14.9317 8.70392 14.9264 8.69844C14.9211 8.69296 14.9156 8.68772 14.9102 8.68223C14.905 8.67687 14.8995 8.67162 14.8941 8.66614C14.8888 8.66066 14.8833 8.65541 14.8779 8.64993C14.8725 8.64445 14.8671 8.6392 14.8617 8.63384C14.8563 8.62836 14.8509 8.62311 14.8456 8.61763C14.8404 8.61215 14.8348 8.6069 14.8294 8.60154C14.824 8.59605 14.8186 8.59081 14.8132 8.58533C14.8078 8.57997 14.8025 8.5746 14.7971 8.56924C14.7917 8.56375 14.7863 8.55839 14.7808 8.55303C14.7754 8.54754 14.7699 8.5423 14.7647 8.53694C14.7593 8.53145 14.7538 8.52609 14.7485 8.52073C14.7432 8.51536 14.7377 8.51012 14.7324 8.50463C14.727 8.49915 14.7215 8.49391 14.7162 8.48843C14.7108 8.48294 14.7054 8.47769 14.7001 8.4722C14.6947 8.46672 14.6892 8.46148 14.6839 8.45599C14.6785 8.45051 14.673 8.44527 14.6678 8.43978C14.6625 8.4343 14.6569 8.42906 14.6516 8.42358C14.6462 8.41809 14.6408 8.41285 14.6355 8.40748C14.6301 8.402 14.6246 8.39664 14.6193 8.39127C14.6139 8.38579 14.6084 8.38055 14.6031 8.37507C14.5977 8.36958 14.5922 8.36422 14.5868 8.35886C14.5815 8.35337 14.5761 8.34825 14.5708 8.34276C14.5654 8.33728 14.5599 8.33204 14.5545 8.32667C14.5492 8.32119 14.5437 8.31595 14.5383 8.31046C14.533 8.30498 14.5275 8.29974 14.5221 8.29437C14.5168 8.28889 14.5113 8.28365 14.506 8.27816C14.5008 8.27268 14.4952 8.26743 14.4898 8.26207C14.4845 8.25659 14.4791 8.25134 14.4737 8.24598C14.4684 8.24049 14.4629 8.23525 14.4575 8.22977C14.4522 8.22429 14.4467 8.21904 14.4413 8.21356C14.4359 8.20808 14.4305 8.20283 14.4251 8.19735C14.4197 8.19187 14.4144 8.18662 14.409 8.18126C14.4036 8.17578 14.3982 8.17053 14.3929 8.16505C13.5702 7.32497 12.5554 6.69312 11.4922 6.37535C11.2212 6.27487 10.9463 6.21789 10.6805 6.1627C10.5911 6.14422 10.5018 6.12563 10.4129 6.1056C10.4031 6.10334 10.3932 6.10179 10.3832 6.10072C10.2879 6.0907 10.1925 6.07854 10.0974 6.06662C9.85579 6.03623 9.60596 6.00466 9.35113 6.00466C9.32979 6.00466 9.30844 6.00489 9.28699 6.00537C9.20057 6.00179 9.11405 6 9.02775 6C8.42546 6 7.79516 6.0838 7.10193 6.25604C6.44147 6.41743 5.75217 6.71564 5.04857 7.14593C4.71733 7.35822 4.39026 7.62093 4.07678 7.92666C3.99346 8.00783 3.97594 8.13513 4.03411 8.23585L5.44418 10.6846ZM10.0175 11.1336C10.0124 11.1278 10.0069 11.1226 10.0014 11.1175C9.99632 11.1118 9.99083 11.1065 9.98535 11.1014C9.98022 11.0957 9.97474 11.0904 9.96914 11.0852C9.96402 11.0795 9.95853 11.0742 9.95293 11.0691C9.94781 11.0634 9.94233 11.0581 9.93672 11.0529C9.9316 11.0472 9.92612 11.0419 9.92051 11.0368C9.91539 11.0311 9.9099 11.0258 9.90442 11.0207C9.8993 11.015 9.89382 11.0097 9.88821 11.0045C9.88309 10.9988 9.8776 10.9935 9.87212 10.9883C9.867 10.9826 9.86151 10.9773 9.85591 10.9721C9.85079 10.9663 9.8453 10.9611 9.83982 10.956C9.83469 10.9503 9.82921 10.945 9.82361 10.9398C9.81849 10.934 9.813 10.9288 9.80752 10.9236C9.80239 10.9178 9.79691 10.9126 9.79131 10.9073C9.78618 10.9016 9.7807 10.8964 9.77522 10.8911C9.77009 10.8854 9.76461 10.8802 9.75901 10.8749C9.75388 10.8692 9.74852 10.864 9.74292 10.8588C9.73779 10.8531 9.73231 10.8479 9.72671 10.8426C9.72158 10.8369 9.7161 10.8317 9.7105 10.8264C9.70537 10.8207 9.69988 10.8155 9.69428 10.8102C9.68915 10.8045 9.68368 10.7992 9.6782 10.7941C9.67307 10.7884 9.66758 10.7831 9.66197 10.7779C9.65685 10.7722 9.65138 10.7669 9.6459 10.7618C9.64077 10.7561 9.63528 10.7508 9.62967 10.7456C9.62455 10.7399 9.61907 10.7346 9.61346 10.7295C9.60834 10.7238 9.60286 10.7185 9.59726 10.7133C9.59213 10.7076 9.58665 10.7023 9.58116 10.6972C9.57604 10.6915 9.57056 10.6862 9.56495 10.681C9.55983 10.6753 9.55435 10.67 9.54875 10.6649C9.54767 10.6637 9.54684 10.6623 9.54565 10.6611C9.7509 10.6334 9.96927 10.6164 10.2042 10.611H10.2179C10.6309 10.611 11.0653 10.6768 11.5401 10.8103C11.8145 10.8945 12.0823 11.014 12.3491 11.1699C12.7824 11.8793 13.0454 12.7589 13.0894 13.6725C13.1354 14.6444 12.9389 15.661 12.5365 16.5338C12.3486 16.9353 12.1014 17.3234 11.7623 17.7505C11.6529 17.882 11.5357 18.0111 11.4104 18.1387C11.1746 16.1149 10.9893 14.0802 10.8582 12.0625C10.8539 11.9956 10.8233 11.9363 10.777 11.8934C10.7719 11.8877 10.7664 11.8825 10.761 11.8772C10.7558 11.8715 10.7503 11.8663 10.7447 11.861C10.7396 11.8553 10.7341 11.8501 10.7287 11.8448C10.7235 11.8391 10.718 11.8338 10.7126 11.8287C10.7074 11.823 10.702 11.8177 10.6964 11.8125C10.6912 11.8068 10.6857 11.8015 10.6801 11.7963C10.675 11.7906 10.6695 11.7853 10.6639 11.7801C10.6588 11.7744 10.6534 11.7691 10.6478 11.764C10.6427 11.7583 10.6372 11.753 10.6316 11.7479C10.6265 11.7422 10.621 11.7369 10.6154 11.7317C10.6103 11.726 10.6048 11.7207 10.5992 11.7156C10.5941 11.7099 10.5886 11.7046 10.5831 11.6994C10.578 11.6937 10.5725 11.6884 10.5669 11.6833C10.5618 11.6776 10.5563 11.6723 10.5508 11.6672C10.5457 11.6615 10.5402 11.6562 10.5346 11.651C10.5295 11.6453 10.524 11.64 10.5185 11.6348C10.5134 11.6291 10.5079 11.6238 10.5023 11.6186C10.4972 11.6129 10.4917 11.6076 10.4862 11.6025C10.4811 11.5968 10.4756 11.5915 10.47 11.5863C10.4649 11.5806 10.4594 11.5753 10.4539 11.5701C10.4488 11.5644 10.4433 11.5591 10.4377 11.5538C10.4326 11.5481 10.4271 11.5429 10.4216 11.5376C10.4165 11.5319 10.411 11.5267 10.4054 11.5214C10.4003 11.5157 10.3949 11.5105 10.3893 11.5053C10.3842 11.4996 10.3787 11.4944 10.3731 11.4891C10.368 11.4834 10.3625 11.4782 10.3569 11.4729C10.3518 11.4672 10.3463 11.462 10.3407 11.4567C10.3356 11.451 10.3301 11.4457 10.3246 11.4406C10.3195 11.4349 10.314 11.4297 10.3084 11.4244C10.3033 11.4187 10.2978 11.4134 10.2922 11.4083C10.287 11.4026 10.2815 11.3974 10.2759 11.3921C10.2708 11.3864 10.2653 11.3811 10.2597 11.376C10.2546 11.3703 10.2491 11.3651 10.2436 11.3598C10.2385 11.3541 10.233 11.3488 10.2275 11.3437C10.2224 11.338 10.2169 11.3328 10.2113 11.3275C10.2062 11.3218 10.2007 11.3165 10.1951 11.3114C10.19 11.3057 10.1845 11.3005 10.1789 11.2952C10.1738 11.2895 10.1683 11.2842 10.1628 11.2791C10.1577 11.2734 10.1522 11.2681 10.1467 11.2629C10.1416 11.2572 10.1361 11.2519 10.1305 11.2467C10.1254 11.241 10.1199 11.2357 10.1144 11.2305C10.1093 11.2248 10.1038 11.2195 10.0982 11.2143C10.0931 11.2085 10.0876 11.2033 10.0821 11.1981C10.077 11.1923 10.0715 11.1871 10.066 11.182C10.0609 11.1762 10.0554 11.171 10.0498 11.1658C10.0447 11.16 10.0392 11.1548 10.0336 11.1495C10.0286 11.1441 10.0231 11.1388 10.0175 11.1336Z" fill="#0D0087"/>
<path d="M16.4017 13.2669C16.3349 12.5497 16.1662 11.8423 15.9371 11.1543C15.6806 10.4728 15.3564 9.81232 14.9292 9.21003C14.0901 8.01678 12.8055 7.03212 11.407 6.61637C11.0633 6.48788 10.7044 6.43328 10.3523 6.3533C9.99456 6.31564 9.639 6.2508 9.28023 6.25938C8.56459 6.22851 7.85061 6.33066 7.15798 6.50278C6.46236 6.67263 5.79964 6.98193 5.1815 7.35978C4.84645 7.57456 4.53678 7.8288 4.25 8.10843L5.66388 10.5574C5.84577 10.3085 6.05031 10.0744 6.3036 9.8724C6.6489 9.61625 7.05977 9.41838 7.50078 9.27154C7.94729 9.13101 8.42977 9.07451 8.90977 9.06354C9.3931 9.06176 9.86953 9.14686 10.3212 9.27392C10.7712 9.41195 11.1733 9.62935 11.5329 9.88073C11.8728 10.132 12.1968 10.4957 12.4651 10.8742C12.9903 11.6577 13.2939 12.6399 13.343 13.6604C13.3912 14.6814 13.1881 15.7266 12.7664 16.6412C12.5524 17.0988 12.2832 17.5029 11.9573 17.9129C11.6269 18.3099 11.244 18.6681 10.8308 18.9966C10.6265 19.1544 10.4123 19.3015 10.1909 19.4393C9.79384 16.5741 9.49932 13.687 9.31087 10.7855L6.65081 10.5144C6.6216 13.8908 6.73842 17.2678 6.98646 20.6352C6.22004 20.7691 5.43622 20.8159 4.66551 20.7601C4.87887 21.9325 5.20367 23.1208 5.63742 24.2691C8.46804 24.1248 11.276 23.1052 13.4082 21.1246C13.9279 20.6217 14.4241 20.0867 14.8284 19.4783C15.2418 18.8717 15.6006 18.2096 15.8446 17.5243C16.366 16.1591 16.5327 14.6975 16.4017 13.2669Z" fill="#FFD700"/>
<path d="M5.78284 24.2622C5.39546 23.2208 5.09318 22.1368 4.88316 21.0363C5.04241 21.0447 5.20368 21.0489 5.36459 21.0489C5.92266 21.0489 6.49443 20.9984 7.06418 20.8989C7.13188 20.8871 7.17968 20.8259 7.17455 20.7573C6.92723 17.3997 6.81411 14.0487 6.83807 10.7943L9.23935 11.0391C9.42673 13.8824 9.72066 16.7584 10.1129 19.5895C10.1191 19.6344 10.1477 19.6731 10.1887 19.6923C10.2067 19.7007 10.2262 19.7049 10.2455 19.7049C10.2701 19.7049 10.2947 19.698 10.3161 19.6847C10.5487 19.5398 10.7678 19.3883 10.9672 19.2343C11.4227 18.8721 11.7976 18.5113 12.1147 18.1302C12.4788 17.6719 12.741 17.2594 12.9421 16.8297C13.3709 15.8995 13.5799 14.8188 13.5311 13.7859C13.4805 12.736 13.1608 11.7224 12.6308 10.9315C12.4164 10.6289 12.077 10.208 11.6669 9.90488C11.2491 9.61286 10.8405 9.40844 10.4148 9.2778C9.89658 9.13191 9.4278 9.06147 8.97879 9.06147H8.96378C8.40583 9.07423 7.93274 9.14419 7.51508 9.27566C7.0333 9.43622 6.61791 9.64492 6.27833 9.89678C6.08344 10.0522 5.90811 10.2296 5.73373 10.4484L4.47266 8.26417C4.7443 8.00755 5.02501 7.78574 5.30809 7.60433C5.97045 7.19942 6.62257 6.91645 7.24404 6.76471C7.90784 6.59975 8.5075 6.51953 9.07785 6.51953C9.1614 6.51953 9.24519 6.52132 9.32887 6.5249C9.35902 6.52454 9.38013 6.5243 9.40122 6.5243C9.63174 6.5243 9.85869 6.55279 10.099 6.58319C10.1942 6.59523 10.2896 6.60715 10.3849 6.61728C10.4736 6.6373 10.5626 6.65578 10.6518 6.67437C10.906 6.72706 11.1689 6.78152 11.4148 6.87353C12.74 7.26771 14.03 8.21805 14.8743 9.41881C15.2635 9.96758 15.588 10.5936 15.8664 11.3333C16.1116 12.0703 16.2616 12.7515 16.3231 13.4113C16.4564 14.8672 16.2668 16.3187 15.7745 17.6088C15.5481 18.2443 15.2113 18.8914 14.7726 19.5351C14.427 20.055 13.9947 20.5558 13.3699 21.1605C11.3981 22.992 8.70631 24.0923 5.78284 24.2622Z" fill="white"/>
<path d="M5.63775 24.3323C5.61022 24.3323 5.58531 24.3153 5.57542 24.2893C5.14727 23.1556 4.81913 21.9711 4.60029 20.7685C4.59659 20.7483 4.60256 20.7274 4.61626 20.7122C4.62997 20.6968 4.6494 20.6881 4.67073 20.6901C5.39984 20.7431 6.15482 20.7044 6.91599 20.5763C6.66771 17.1831 6.55627 13.7965 6.58463 10.5103C6.58475 10.4916 6.59286 10.4737 6.6068 10.4613C6.62075 10.4488 6.6391 10.4429 6.65805 10.4447L9.31811 10.7158C9.35041 10.719 9.37568 10.7453 9.37783 10.7778C9.56234 13.6188 9.85341 16.4935 10.2432 19.3243C10.4377 19.1999 10.6214 19.071 10.7905 18.9403C11.233 18.5885 11.5983 18.2372 11.9065 17.8667C12.2578 17.4245 12.5122 17.0248 12.7064 16.6094C13.1216 15.709 13.3242 14.6613 13.2768 13.6599C13.228 12.6462 12.9203 11.6688 12.4101 10.9077C12.2071 10.6214 11.8823 10.218 11.4935 9.93057C11.0976 9.65392 10.7072 9.45844 10.3018 9.33401C9.8061 9.19455 9.35507 9.12648 8.9249 9.12648C8.91989 9.12648 8.915 9.12648 8.91023 9.12648C8.37529 9.13875 7.92044 9.20575 7.52102 9.3315C7.06248 9.48419 6.66604 9.68311 6.3435 9.92234C6.12252 10.0986 5.92322 10.3122 5.71785 10.5932C5.70462 10.6113 5.6846 10.6213 5.66052 10.6205C5.638 10.6192 5.61773 10.6068 5.6064 10.5872L4.19252 8.13824C4.17727 8.11178 4.18192 8.07853 4.20373 8.05719C4.50827 7.7604 4.82521 7.50568 5.14584 7.30007C5.82954 6.88205 6.50084 6.59122 7.14235 6.43448C7.9214 6.24091 8.62214 6.1607 9.28331 6.18918C9.5453 6.18263 9.81194 6.21648 10.0698 6.24878C10.1663 6.26106 10.2627 6.27309 10.3595 6.28334C10.4573 6.30503 10.5477 6.32375 10.6383 6.34258C10.8999 6.39682 11.1705 6.45295 11.4307 6.55021C12.8049 6.95845 14.1017 7.9132 14.984 9.16796C15.3828 9.7302 15.7151 10.3711 15.9998 11.127C16.2525 11.8861 16.4054 12.5819 16.4683 13.257C16.6046 14.7434 16.4106 16.226 15.9075 17.5446C15.6769 18.192 15.3323 18.8545 14.884 19.5122C14.5314 20.0428 14.0906 20.5539 13.4551 21.1688C11.424 23.0556 8.64943 24.1788 5.64133 24.3322C5.64002 24.3323 5.63882 24.3323 5.63775 24.3323ZM4.74689 20.8289C4.96109 21.9785 5.27588 23.1108 5.68293 24.1966C8.64109 24.0352 11.3668 22.9268 13.3632 21.0722C13.9906 20.4651 14.4258 19.9608 14.7733 19.4379C15.2156 18.789 15.555 18.1366 15.7824 17.4984C16.2787 16.1974 16.4699 14.7354 16.3356 13.2693C16.2736 12.6046 16.1227 11.9184 15.8742 11.1716C15.5944 10.429 15.2673 9.7979 14.8751 9.24484C14.0222 8.03204 12.7188 7.07205 11.3883 6.67657C11.1332 6.58133 10.8678 6.52626 10.6111 6.47298C10.5197 6.45415 10.4285 6.4352 10.3378 6.41458C10.248 6.40564 10.1506 6.39336 10.0532 6.38108C9.80001 6.34914 9.5385 6.31635 9.28211 6.32243C8.62893 6.2949 7.94107 6.37345 7.17429 6.5638C6.54578 6.71733 5.88723 7.00304 5.21652 7.41295C4.91758 7.60449 4.62055 7.84132 4.33389 8.11654L5.67125 10.4329C5.86267 10.1817 6.05232 9.9842 6.26234 9.81673C6.59799 9.56762 7.00717 9.36224 7.48002 9.20467C7.89267 9.07475 8.35967 9.00574 8.90856 8.99334C9.35863 8.99048 9.82468 9.06129 10.3395 9.20623C10.7599 9.33519 11.1623 9.5365 11.5714 9.82245C11.9758 10.1214 12.3102 10.5363 12.5198 10.8322C13.0441 11.6144 13.3599 12.616 13.4098 13.6536C13.4582 14.676 13.2513 15.7458 12.8273 16.6658C12.6284 17.0909 12.3688 17.4992 12.0099 17.9509C11.6948 18.3296 11.3232 18.6872 10.8726 19.0453C10.6743 19.1986 10.4571 19.3489 10.2265 19.4924C10.2074 19.5044 10.1836 19.5057 10.163 19.4961C10.1426 19.4866 10.1283 19.4674 10.1253 19.445C9.73064 16.5967 9.43564 13.7027 9.2485 10.8426L6.71718 10.5846C6.69096 13.864 6.80395 17.2421 7.05331 20.6268C7.05581 20.6609 7.03197 20.6914 6.99836 20.6974C6.23611 20.8305 5.4791 20.8746 4.74689 20.8289Z" fill="white"/>
<path d="M5.63775 24.3323C5.61022 24.3323 5.58531 24.3153 5.57542 24.2893C5.14727 23.1556 4.81913 21.9711 4.60029 20.7685C4.59659 20.7483 4.60256 20.7274 4.61626 20.7122C4.62997 20.6968 4.6494 20.6881 4.67073 20.6901C5.39984 20.7431 6.15482 20.7044 6.91599 20.5763C6.66771 17.1831 6.55627 13.7965 6.58463 10.5103C6.58475 10.4916 6.59286 10.4737 6.6068 10.4613C6.62075 10.4488 6.6391 10.4429 6.65805 10.4447L9.31811 10.7158C9.35041 10.719 9.37568 10.7453 9.37783 10.7778C9.56234 13.6188 9.85341 16.4935 10.2432 19.3243C10.4377 19.1999 10.6214 19.071 10.7905 18.9403C11.233 18.5885 11.5983 18.2372 11.9065 17.8667C12.2578 17.4245 12.5122 17.0248 12.7064 16.6094C13.1216 15.709 13.3242 14.6613 13.2768 13.6599C13.228 12.6462 12.9203 11.6688 12.4101 10.9077C12.2071 10.6214 11.8823 10.218 11.4935 9.93057C11.0976 9.65392 10.7072 9.45844 10.3018 9.33401C9.8061 9.19455 9.35507 9.12648 8.9249 9.12648C8.91989 9.12648 8.915 9.12648 8.91023 9.12648C8.37529 9.13875 7.92044 9.20575 7.52102 9.3315C7.06248 9.48419 6.66604 9.68311 6.3435 9.92234C6.12252 10.0986 5.92322 10.3122 5.71785 10.5932C5.70462 10.6113 5.6846 10.6213 5.66052 10.6205C5.638 10.6192 5.61773 10.6068 5.6064 10.5872L4.19252 8.13824C4.17727 8.11178 4.18192 8.07853 4.20373 8.05719C4.50827 7.7604 4.82521 7.50568 5.14584 7.30007C5.82954 6.88205 6.50084 6.59122 7.14235 6.43448C7.9214 6.24091 8.62214 6.1607 9.28331 6.18918C9.5453 6.18263 9.81194 6.21648 10.0698 6.24878C10.1663 6.26106 10.2627 6.27309 10.3595 6.28334C10.4573 6.30503 10.5477 6.32375 10.6383 6.34258C10.8999 6.39682 11.1705 6.45295 11.4307 6.55021C12.8049 6.95845 14.1017 7.9132 14.984 9.16796C15.3828 9.7302 15.7151 10.3711 15.9998 11.127C16.2525 11.8861 16.4054 12.5819 16.4683 13.257C16.6046 14.7434 16.4106 16.226 15.9075 17.5446C15.6769 18.192 15.3323 18.8545 14.884 19.5122C14.5314 20.0428 14.0906 20.5539 13.4551 21.1688C11.424 23.0556 8.64943 24.1788 5.64133 24.3322C5.64002 24.3323 5.63882 24.3323 5.63775 24.3323ZM4.74689 20.8289C4.96109 21.9785 5.27588 23.1108 5.68293 24.1966C8.64109 24.0352 11.3668 22.9268 13.3632 21.0722C13.9906 20.4651 14.4258 19.9608 14.7733 19.4379C15.2156 18.789 15.555 18.1366 15.7824 17.4984C16.2787 16.1974 16.4699 14.7354 16.3356 13.2693C16.2736 12.6046 16.1227 11.9184 15.8742 11.1716C15.5944 10.429 15.2673 9.7979 14.8751 9.24484C14.0222 8.03204 12.7188 7.07205 11.3883 6.67657C11.1332 6.58133 10.8678 6.52626 10.6111 6.47298C10.5197 6.45415 10.4285 6.4352 10.3378 6.41458C10.248 6.40564 10.1506 6.39336 10.0532 6.38108C9.80001 6.34914 9.5385 6.31635 9.28211 6.32243C8.62893 6.2949 7.94107 6.37345 7.17429 6.5638C6.54578 6.71733 5.88723 7.00304 5.21652 7.41295C4.91758 7.60449 4.62055 7.84132 4.33389 8.11654L5.67125 10.4329C5.86267 10.1817 6.05232 9.9842 6.26234 9.81673C6.59799 9.56762 7.00717 9.36224 7.48002 9.20467C7.89267 9.07475 8.35967 9.00574 8.90856 8.99334C9.35863 8.99048 9.82468 9.06129 10.3395 9.20623C10.7599 9.33519 11.1623 9.5365 11.5714 9.82245C11.9758 10.1214 12.3102 10.5363 12.5198 10.8322C13.0441 11.6144 13.3599 12.616 13.4098 13.6536C13.4582 14.676 13.2513 15.7458 12.8273 16.6658C12.6284 17.0909 12.3688 17.4992 12.0099 17.9509C11.6948 18.3296 11.3232 18.6872 10.8726 19.0453C10.6743 19.1986 10.4571 19.3489 10.2265 19.4924C10.2074 19.5044 10.1836 19.5057 10.163 19.4961C10.1426 19.4866 10.1283 19.4674 10.1253 19.445C9.73064 16.5967 9.43564 13.7027 9.2485 10.8426L6.71718 10.5846C6.69096 13.864 6.80395 17.2421 7.05331 20.6268C7.05581 20.6609 7.03197 20.6914 6.99836 20.6974C6.23611 20.8305 5.4791 20.8746 4.74689 20.8289Z" fill="white"/>
<path opacity="0.2" d="M26.6709 20.1595C26.6272 20.1233 26.5724 20.1037 26.5162 20.1037C26.5077 20.1037 26.499 20.1042 26.4904 20.1051L22.0471 20.5807V7.48059C22.0471 7.41035 22.0166 7.34341 21.9634 7.2975C21.9191 7.25897 21.8626 7.23828 21.8048 7.23828C21.7933 7.23828 21.7818 7.23908 21.7703 7.24067L18.4395 7.71882C18.3783 7.72757 18.3254 7.75871 18.2882 7.80303C18.2831 7.80815 18.2774 7.81292 18.2727 7.81849C18.2676 7.8236 18.262 7.82838 18.2574 7.83395C18.2523 7.83906 18.2466 7.84383 18.2419 7.8494C18.2368 7.85452 18.2312 7.85929 18.2266 7.86486C18.2215 7.86997 18.2158 7.87474 18.2111 7.88031C18.206 7.88543 18.2004 7.89021 18.1958 7.89578C18.1907 7.9009 18.185 7.90567 18.1803 7.91124C18.1752 7.91635 18.1696 7.92112 18.1649 7.92669C18.1598 7.93181 18.1542 7.93647 18.1495 7.94204C18.1444 7.94715 18.1387 7.95192 18.1341 7.95749C18.129 7.96261 18.1234 7.96738 18.1186 7.97295C18.1135 7.97806 18.1078 7.98284 18.1032 7.98829C18.0981 7.99341 18.0925 7.99818 18.0877 8.00375C18.0826 8.00886 18.077 8.01364 18.0724 8.01909C18.0673 8.02421 18.0616 8.02898 18.0569 8.03455C18.0518 8.03966 18.0461 8.04444 18.0415 8.04989C18.0363 8.05501 18.0308 8.05978 18.026 8.06535C18.0209 8.07046 18.0152 8.07524 18.0105 8.08081C18.0054 8.08592 17.9999 8.09058 17.9952 8.09615C17.9901 8.10126 17.9845 8.10604 17.9797 8.11161C17.9746 8.11672 17.9691 8.12149 17.9644 8.12706C17.9593 8.13218 17.9536 8.13695 17.9489 8.14252C17.9438 8.14763 17.9382 8.1524 17.9336 8.15797C17.9285 8.16309 17.9228 8.16787 17.9181 8.17344C17.913 8.17856 17.9074 8.18333 17.9028 8.1889C17.8977 8.19401 17.892 8.19878 17.8873 8.20435C17.8822 8.20947 17.8766 8.21424 17.872 8.21981C17.8669 8.22492 17.8612 8.22969 17.8565 8.23526C17.8514 8.24038 17.8458 8.24504 17.8412 8.25061C17.8361 8.25572 17.8304 8.2605 17.8257 8.26606C17.8206 8.27118 17.8149 8.27595 17.8103 8.28141C17.8052 8.28652 17.7996 8.2913 17.7948 8.29686C17.7897 8.30198 17.784 8.30675 17.7794 8.31221C17.7742 8.31732 17.7687 8.3221 17.7639 8.32766C17.7588 8.33278 17.7532 8.33755 17.7486 8.34301C17.7435 8.34812 17.7378 8.3529 17.7331 8.35846C17.728 8.36358 17.7223 8.36835 17.7177 8.37381C17.7125 8.37892 17.7069 8.3837 17.7022 8.38926C17.6971 8.39438 17.6915 8.39904 17.6869 8.40461C17.6816 8.40972 17.6761 8.4145 17.6714 8.42007C17.6663 8.42518 17.6607 8.42995 17.6559 8.43552C17.6508 8.44064 17.6452 8.44541 17.6406 8.45098C17.6355 8.45609 17.6298 8.46088 17.6251 8.46645C17.62 8.47156 17.6144 8.47633 17.6098 8.4819C17.6047 8.48702 17.599 8.49179 17.5943 8.49736C17.5892 8.50247 17.5836 8.50724 17.579 8.51281C17.5739 8.51793 17.5682 8.5227 17.5635 8.52827C17.5584 8.53338 17.5527 8.53815 17.5481 8.54372C17.543 8.54884 17.5374 8.5535 17.5327 8.55907C17.5275 8.56418 17.5219 8.56895 17.5173 8.57452C17.5122 8.57964 17.5066 8.58441 17.5019 8.58998C17.4968 8.59509 17.4911 8.59987 17.4865 8.60532C17.4814 8.61044 17.4758 8.61521 17.471 8.62078C17.4659 8.62589 17.4602 8.63067 17.4556 8.63612C17.4504 8.64124 17.4449 8.64601 17.4401 8.65158C17.435 8.65669 17.4294 8.66147 17.4248 8.66692C17.4196 8.67204 17.4141 8.67681 17.4093 8.68238C17.4042 8.68749 17.3985 8.69227 17.3939 8.69784C17.3887 8.70295 17.3832 8.70761 17.3785 8.71318C17.3734 8.71829 17.3678 8.72307 17.3631 8.72864C17.3579 8.73375 17.3524 8.73854 17.3477 8.74411C17.3426 8.74922 17.337 8.75399 17.3323 8.75956C17.3271 8.76468 17.3216 8.76945 17.3169 8.77502C17.3118 8.78013 17.3061 8.7849 17.3015 8.79047C17.2963 8.79559 17.2908 8.80036 17.2861 8.80593C17.281 8.81104 17.2753 8.81581 17.2707 8.82138C17.2655 8.8265 17.26 8.83127 17.2553 8.83684C17.2502 8.84195 17.2445 8.84673 17.2399 8.85229C17.2347 8.85741 17.2292 8.86207 17.2245 8.86764C17.1785 8.91344 17.1504 8.97676 17.1524 9.04609L17.6254 24.7644C17.6292 24.8953 17.7366 24.9994 17.8677 24.9994H25.7017C25.7694 24.9994 25.8339 24.9713 25.8797 24.9215C25.8812 24.9198 25.8822 24.9178 25.8837 24.9161C25.8873 24.9126 25.8917 24.9099 25.8951 24.9061C25.8967 24.9044 25.8976 24.9024 25.8992 24.9007C25.9028 24.8972 25.9071 24.8944 25.9105 24.8907C25.9121 24.889 25.913 24.887 25.9146 24.8853C25.9183 24.8818 25.9226 24.8791 25.926 24.8753C25.9275 24.8736 25.9285 24.8717 25.93 24.87C25.9336 24.8665 25.9379 24.8637 25.9413 24.86C25.9429 24.8583 25.9438 24.8563 25.9453 24.8546C25.9489 24.8511 25.9533 24.8484 25.9567 24.8447C25.9582 24.843 25.9592 24.841 25.9607 24.8393C25.9643 24.8358 25.9686 24.8331 25.972 24.8293C25.9736 24.8276 25.9745 24.8257 25.9761 24.824C25.9797 24.8204 25.9841 24.8177 25.9875 24.814C25.989 24.8123 25.99 24.8103 25.9915 24.8086C25.9951 24.8051 25.9994 24.8024 26.0028 24.7986C26.0044 24.7969 26.0053 24.795 26.0068 24.7933C26.0104 24.7898 26.0148 24.787 26.0182 24.7833C26.0197 24.7816 26.0207 24.7796 26.0221 24.7779C26.0258 24.7744 26.0301 24.7717 26.0335 24.7679C26.0351 24.7662 26.036 24.7643 26.0375 24.7626C26.0411 24.7591 26.0454 24.7563 26.0488 24.7526C26.0504 24.7509 26.0514 24.7488 26.0529 24.7471C26.0566 24.7436 26.0608 24.7409 26.0643 24.7371C26.0658 24.7354 26.0668 24.7335 26.0683 24.7318C26.0719 24.7283 26.0762 24.7255 26.0796 24.7218C26.0812 24.7201 26.0822 24.7182 26.0837 24.7164C26.0874 24.7129 26.0917 24.7102 26.0951 24.7064C26.0967 24.7047 26.0976 24.7028 26.0991 24.7011C26.1027 24.6976 26.107 24.6948 26.1104 24.6911C26.1119 24.6894 26.113 24.6875 26.1144 24.6858C26.1181 24.6822 26.1224 24.6795 26.1258 24.6758C26.1273 24.674 26.1283 24.6721 26.1298 24.6704C26.1334 24.6669 26.1377 24.6642 26.1411 24.6604C26.1427 24.6587 26.1436 24.6568 26.1452 24.6551C26.1489 24.6515 26.1532 24.6488 26.1566 24.6451C26.1582 24.6434 26.1591 24.6414 26.1606 24.6397C26.1642 24.6362 26.1685 24.6335 26.1719 24.6297C26.1734 24.628 26.1744 24.6261 26.1759 24.6244C26.1796 24.6209 26.1839 24.6181 26.1873 24.6144C26.1887 24.6127 26.1898 24.6108 26.1913 24.609C26.1949 24.6055 26.1992 24.6028 26.2026 24.599C26.2042 24.5973 26.2051 24.5954 26.2067 24.5936C26.2104 24.5901 26.2147 24.5873 26.2181 24.5836C26.2195 24.5819 26.2206 24.5799 26.2221 24.5782C26.2257 24.5747 26.23 24.572 26.2334 24.5682C26.235 24.5665 26.2359 24.5646 26.2374 24.5629C26.241 24.5594 26.2453 24.5567 26.2488 24.5529C26.2502 24.5512 26.2513 24.5493 26.2528 24.5476C26.2564 24.544 26.2607 24.5413 26.2641 24.5376C26.2657 24.5359 26.2666 24.5339 26.2682 24.5322C26.2718 24.5287 26.2761 24.526 26.2796 24.5222C26.281 24.5205 26.2821 24.5186 26.2836 24.5169C26.2872 24.5133 26.2915 24.5106 26.2949 24.5069C26.2965 24.5052 26.2974 24.5032 26.2989 24.5015C26.3025 24.498 26.3068 24.4953 26.3102 24.4915C26.3117 24.4898 26.3128 24.4879 26.3142 24.4862C26.3179 24.4827 26.3222 24.4799 26.3256 24.4762C26.3272 24.4745 26.3281 24.4725 26.3297 24.4708C26.3333 24.4673 26.3376 24.4646 26.341 24.4608C26.3425 24.4591 26.3436 24.4572 26.345 24.4555C26.3487 24.452 26.353 24.4492 26.3564 24.4455C26.358 24.4438 26.3589 24.4419 26.3605 24.44C26.3641 24.4365 26.3684 24.4338 26.3718 24.43C26.3734 24.4283 26.3744 24.4264 26.376 24.4247C26.3796 24.4212 26.3839 24.4184 26.3873 24.4147C26.3889 24.413 26.3898 24.4111 26.3913 24.4093C26.3949 24.4058 26.3992 24.4031 26.4026 24.3993C26.4041 24.3976 26.4052 24.3957 26.4066 24.394C26.4103 24.3905 26.4146 24.3877 26.418 24.384C26.4195 24.3823 26.4205 24.3804 26.422 24.3787C26.4256 24.3751 26.4299 24.3724 26.4333 24.3687C26.4349 24.3669 26.4359 24.365 26.4374 24.3633C26.4411 24.3598 26.4454 24.3571 26.4488 24.3533C26.4504 24.3516 26.4513 24.3497 26.4528 24.348C26.4564 24.3444 26.4607 24.3417 26.4641 24.338C26.4656 24.3363 26.4667 24.3343 26.4681 24.3326C26.4718 24.3291 26.4761 24.3264 26.4795 24.3226C26.481 24.3209 26.482 24.319 26.4835 24.3173C26.4871 24.3138 26.4914 24.311 26.4948 24.3073C26.4964 24.3056 26.4973 24.3037 26.4988 24.3019C26.5024 24.2984 26.5068 24.2957 26.5102 24.2919C26.5118 24.2902 26.5127 24.2882 26.5143 24.2865C26.5179 24.283 26.5221 24.2802 26.5256 24.2765C26.5272 24.2748 26.5281 24.2729 26.5296 24.2711C26.5333 24.2676 26.5376 24.2649 26.541 24.2611C26.5424 24.2594 26.5435 24.2575 26.5449 24.2558C26.5486 24.2523 26.5529 24.2496 26.5563 24.2458C26.5579 24.2441 26.5588 24.2422 26.5604 24.2405C26.5641 24.2369 26.5684 24.2342 26.5718 24.2305C26.5732 24.2288 26.5743 24.2268 26.5757 24.2251C26.5794 24.2216 26.5837 24.2189 26.5871 24.2151C26.5887 24.2134 26.5896 24.2115 26.5911 24.2098C26.5947 24.2062 26.599 24.2035 26.6025 24.1998C26.6039 24.1981 26.6049 24.1961 26.6064 24.1944C26.6101 24.1909 26.6144 24.1882 26.6178 24.1844C26.6194 24.1827 26.6203 24.1808 26.6219 24.1791C26.6255 24.1756 26.6298 24.1728 26.6333 24.1691C26.6347 24.1674 26.6357 24.1654 26.6372 24.1637C26.6409 24.1602 26.6452 24.1575 26.6486 24.1537C26.6501 24.152 26.6511 24.1501 26.6526 24.1484C26.6562 24.1449 26.6605 24.1421 26.6639 24.1384C26.6654 24.1367 26.6664 24.1346 26.6679 24.1329C26.6716 24.1294 26.6759 24.1267 26.6793 24.1229C26.6809 24.1212 26.6818 24.1193 26.6833 24.1176C26.6869 24.1141 26.6912 24.1113 26.6946 24.1076C26.6961 24.1059 26.6971 24.104 26.6986 24.1022C26.7022 24.0987 26.7066 24.096 26.71 24.0922C26.7115 24.0905 26.7125 24.0886 26.7139 24.0869C26.7176 24.0834 26.7219 24.0807 26.7253 24.0769C26.7269 24.0752 26.7278 24.0733 26.7294 24.0716C26.733 24.068 26.7374 24.0653 26.7408 24.0616C26.7424 24.0599 26.7433 24.0579 26.7447 24.0562C26.7484 24.0527 26.7527 24.05 26.7561 24.0462C26.7576 24.0445 26.7586 24.0426 26.7601 24.0409C26.7637 24.0374 26.7681 24.0346 26.7715 24.0309C26.7729 24.0292 26.774 24.0272 26.7754 24.0255C26.7791 24.022 26.7834 24.0193 26.7868 24.0155C26.7884 24.0138 26.7893 24.0119 26.7909 24.0102C26.7945 24.0067 26.7989 24.0039 26.8023 24.0002C26.8037 23.9985 26.8048 23.9966 26.8062 23.9948C26.8099 23.9913 26.8142 23.9886 26.8176 23.9848C26.8191 23.9831 26.8201 23.9812 26.8216 23.9794C26.8252 23.9759 26.8295 23.9731 26.833 23.9694C26.8344 23.9677 26.8354 23.9658 26.8369 23.964C26.8406 23.9605 26.8449 23.9578 26.8483 23.954C26.8499 23.9523 26.8508 23.9504 26.8524 23.9487C26.856 23.9452 26.8603 23.9425 26.8638 23.9387C26.8652 23.937 26.8662 23.9351 26.8677 23.9334C26.8714 23.9298 26.8757 23.9271 26.8791 23.9234C26.8807 23.9217 26.8816 23.9197 26.8831 23.918C26.8867 23.9145 26.891 23.9118 26.8944 23.908C26.8959 23.9063 26.8969 23.9044 26.8984 23.9027C26.9021 23.8991 26.9064 23.8964 26.9098 23.8927C26.9114 23.891 26.9123 23.889 26.9139 23.8873C26.9175 23.8838 26.9218 23.8811 26.9252 23.8773C26.9267 23.8756 26.9277 23.8737 26.9292 23.872C26.9329 23.8685 26.9372 23.8657 26.9406 23.862C26.9422 23.8603 26.9431 23.8583 26.9446 23.8566C26.9482 23.8531 26.9525 23.8504 26.9559 23.8466C27.0019 23.7969 27.0248 23.7304 27.0196 23.663L26.7549 20.3321C26.7526 20.2616 26.7213 20.2013 26.6709 20.1595Z" fill="black"/>
<path d="M26.6719 20.1561C26.6716 20.156 26.6714 20.1558 26.6712 20.1557C26.6662 20.1508 26.6619 20.1452 26.6564 20.1408C26.6562 20.1406 26.656 20.1405 26.6557 20.1403C26.6507 20.1355 26.6464 20.1299 26.641 20.1253C26.6407 20.1252 26.6405 20.125 26.6403 20.1249C26.6353 20.12 26.6309 20.1144 26.6255 20.11C26.6253 20.1098 26.625 20.1097 26.6248 20.1095C26.6198 20.1047 26.6155 20.0991 26.61 20.0945C26.6098 20.0944 26.6096 20.0943 26.6094 20.0941C26.6044 20.0892 26.6 20.0836 26.5946 20.0791C26.5943 20.0788 26.5941 20.0787 26.5939 20.0786C26.5889 20.0737 26.5846 20.0682 26.5791 20.0636C26.5789 20.0635 26.5787 20.0633 26.5784 20.0632C26.5734 20.0583 26.5691 20.0527 26.5637 20.0483C26.5634 20.048 26.5632 20.0479 26.563 20.0478C26.558 20.0429 26.5537 20.0374 26.5482 20.0329C26.548 20.0328 26.5478 20.0327 26.5475 20.0325C26.5425 20.0276 26.5382 20.022 26.5327 20.0176C26.5325 20.0174 26.5323 20.0173 26.5321 20.0171C26.5271 20.0123 26.5227 20.0067 26.5173 20.0021C26.5171 20.002 26.5169 20.0019 26.5166 20.0017C26.5116 19.9968 26.5073 19.9912 26.5018 19.9868C26.5016 19.9866 26.5014 19.9864 26.5011 19.9863C26.4961 19.9814 26.4918 19.9759 26.4864 19.9713C26.4862 19.9712 26.4859 19.9711 26.4857 19.9709C26.4807 19.966 26.4764 19.9604 26.4709 19.956C26.4707 19.9558 26.4705 19.9556 26.4702 19.9555C26.4652 19.9506 26.4609 19.9451 26.4555 19.9405C26.4552 19.9404 26.455 19.9403 26.4548 19.9401C26.4498 19.9352 26.4455 19.9296 26.44 19.9251C26.4398 19.9248 26.4395 19.9247 26.4393 19.9246C26.4343 19.9197 26.43 19.9142 26.4246 19.9096C26.4243 19.9095 26.4241 19.9094 26.4239 19.9092C26.4189 19.9043 26.4146 19.8987 26.4091 19.8943C26.4089 19.894 26.4086 19.8939 26.4084 19.8938C26.4034 19.8889 26.3991 19.8834 26.3938 19.8789C26.3935 19.8787 26.3933 19.8786 26.3931 19.8785C26.3881 19.8736 26.3838 19.868 26.3783 19.8635C26.3781 19.8634 26.3778 19.8631 26.3776 19.863C26.3726 19.8581 26.3683 19.8526 26.3628 19.8481C26.3626 19.8479 26.3624 19.8478 26.3622 19.8477C26.3572 19.8428 26.3528 19.8372 26.3474 19.8327C26.3472 19.8326 26.3469 19.8323 26.3467 19.8322C26.3417 19.8273 26.3374 19.8218 26.3319 19.8173C26.3317 19.8171 26.3315 19.817 26.3312 19.8169C26.3262 19.812 26.3219 19.8064 26.3165 19.8019C26.3162 19.8018 26.316 19.8015 26.3158 19.8014C26.3108 19.7965 26.3065 19.791 26.301 19.7865C26.3008 19.7863 26.3006 19.7863 26.3003 19.7861C26.2953 19.7812 26.291 19.7756 26.2855 19.7711C26.2853 19.771 26.2851 19.7707 26.2849 19.7706C26.2799 19.7657 26.2755 19.7602 26.2701 19.7557C26.2699 19.7555 26.2696 19.7554 26.2694 19.7553C26.2644 19.7504 26.2601 19.7448 26.2546 19.7403C26.2544 19.74 26.2542 19.7399 26.254 19.7398C26.249 19.7349 26.2446 19.7294 26.2393 19.7249C26.2391 19.7247 26.2388 19.7246 26.2386 19.7245C26.2336 19.7196 26.2293 19.714 26.2238 19.7095C26.2236 19.7094 26.2234 19.7092 26.2232 19.709C26.2182 19.7041 26.2138 19.6986 26.2084 19.6941C26.2081 19.6939 26.2079 19.6938 26.2077 19.6937C26.2027 19.6888 26.1984 19.6832 26.1929 19.6787C26.1927 19.6786 26.1925 19.6784 26.1923 19.6782C26.1873 19.6733 26.1829 19.6678 26.1775 19.6633C26.1772 19.6631 26.177 19.663 26.1768 19.6629C26.1718 19.658 26.1675 19.6524 26.162 19.6479C26.1618 19.6478 26.1615 19.6476 26.1613 19.6474C26.1563 19.6425 26.152 19.637 26.1466 19.6325C26.1463 19.6323 26.1461 19.6323 26.1459 19.6321C26.1409 19.6272 26.1366 19.6216 26.1311 19.6171C26.1309 19.617 26.1306 19.6168 26.1304 19.6166C26.1254 19.6117 26.1211 19.6062 26.1156 19.6017C26.1154 19.6015 26.1152 19.6014 26.115 19.6013C26.11 19.5964 26.1056 19.5908 26.1002 19.5863C26.1 19.5862 26.0997 19.5859 26.0995 19.5858C26.0945 19.5809 26.0902 19.5754 26.0848 19.5709C26.0846 19.5708 26.0844 19.5706 26.0842 19.5705C26.0792 19.5656 26.0748 19.56 26.0694 19.5556C26.0692 19.5554 26.0689 19.5552 26.0687 19.5551C26.0637 19.5502 26.0594 19.5447 26.0539 19.5401C26.0537 19.54 26.0535 19.5398 26.0532 19.5397C26.0482 19.5348 26.0439 19.5292 26.0385 19.5248C26.0383 19.5246 26.038 19.5244 26.0378 19.5243C26.0328 19.5194 26.0285 19.5139 26.023 19.5093C26.0228 19.5092 26.0226 19.509 26.0223 19.5089C26.0173 19.504 26.013 19.4984 26.0076 19.494C26.0073 19.4938 26.0071 19.4936 26.0069 19.4935C26.0019 19.4886 25.9975 19.4831 25.9921 19.4785C25.9919 19.4784 25.9916 19.4783 25.9914 19.4781C25.9864 19.4732 25.9821 19.4676 25.9766 19.4631C25.9764 19.4628 25.9762 19.4627 25.976 19.4626C25.971 19.4577 25.9666 19.4521 25.9612 19.4476C25.9609 19.4475 25.9607 19.4473 25.9605 19.4472C25.9555 19.4423 25.9512 19.4367 25.9457 19.4323C25.9455 19.432 25.9453 19.4319 25.9451 19.4318C25.9401 19.4269 25.9357 19.4214 25.9303 19.4169C25.93 19.4168 25.9298 19.4167 25.9296 19.4165C25.9246 19.4116 25.9203 19.406 25.9148 19.4016C25.9146 19.4014 25.9144 19.4012 25.9141 19.4011C25.9091 19.3962 25.9048 19.3907 25.8994 19.3861C25.8991 19.386 25.8989 19.3859 25.8987 19.3857C25.8937 19.3808 25.8894 19.3752 25.8839 19.3708C25.8837 19.3706 25.8834 19.3704 25.8832 19.3703C25.8782 19.3654 25.8739 19.3599 25.8684 19.3553C25.8682 19.3552 25.868 19.3551 25.8677 19.3549C25.8627 19.35 25.8584 19.3444 25.853 19.34C25.8528 19.3398 25.8525 19.3396 25.8523 19.3395C25.8473 19.3346 25.843 19.3291 25.8375 19.3245C25.8373 19.3244 25.8371 19.3243 25.8368 19.3241C25.8318 19.3192 25.8275 19.3136 25.8221 19.3091C25.8218 19.3088 25.8216 19.3087 25.8214 19.3086C25.8164 19.3037 25.8121 19.2981 25.8066 19.2936C25.8064 19.2935 25.8062 19.2934 25.8059 19.2931C25.8009 19.2883 25.7966 19.2827 25.7912 19.2783C25.7909 19.278 25.7907 19.2779 25.7905 19.2778C25.7855 19.2729 25.7812 19.2673 25.7757 19.2629C25.7755 19.2627 25.7752 19.2626 25.775 19.2625C25.77 19.2576 25.7657 19.252 25.7603 19.2475C25.76 19.2473 25.7598 19.2471 25.7596 19.247C25.7546 19.2421 25.7503 19.2365 25.7448 19.2321C25.7446 19.2319 25.7443 19.2318 25.7441 19.2317C25.7391 19.2268 25.7348 19.2212 25.7293 19.2167C25.7291 19.2165 25.7289 19.2163 25.7286 19.2162C25.7236 19.2113 25.7193 19.2057 25.7139 19.2013C25.7136 19.2011 25.7134 19.201 25.7132 19.2009C25.7082 19.196 25.7039 19.1904 25.6984 19.1859C25.6982 19.1857 25.698 19.1855 25.6977 19.1854C25.6927 19.1805 25.6884 19.1749 25.6829 19.1705C25.6827 19.1703 25.6825 19.1703 25.6823 19.1701C25.6773 19.1652 25.6729 19.1596 25.6675 19.1551C25.6673 19.1549 25.6671 19.1547 25.6668 19.1546C25.6618 19.1497 25.6575 19.1441 25.652 19.1397C25.6518 19.1395 25.6516 19.1394 25.6514 19.1393C25.6464 19.1344 25.642 19.1288 25.6366 19.1243C25.6364 19.124 25.6361 19.1239 25.6359 19.1238C25.6309 19.1189 25.6266 19.1133 25.6212 19.1089C25.621 19.1087 25.6208 19.1086 25.6206 19.1085C25.6156 19.1036 25.6112 19.098 25.6058 19.0935C25.6056 19.0933 25.6053 19.0932 25.6051 19.093C25.6001 19.0881 25.5958 19.0825 25.5903 19.0781C25.5901 19.0779 25.5899 19.0778 25.5897 19.0777C25.5847 19.0728 25.5803 19.0672 25.5749 19.0627C25.5746 19.0625 25.5744 19.0624 25.5742 19.0622C25.5692 19.0573 25.5649 19.0517 25.5594 19.0473C25.5592 19.0471 25.5589 19.047 25.5587 19.0469C25.5537 19.042 25.5494 19.0364 25.544 19.0319C25.5437 19.0317 25.5435 19.0316 25.5433 19.0314C25.5383 19.0265 25.534 19.0209 25.5285 19.0165C25.5283 19.0163 25.528 19.0163 25.5278 19.0161C25.5228 19.0112 25.5185 19.0056 25.513 19.0011C25.5128 19.0009 25.5126 19.0008 25.5124 19.0006C25.5074 18.9957 25.503 18.9901 25.4976 18.9857C25.4974 18.9855 25.4971 18.9854 25.4969 18.9853C25.4919 18.9804 25.4876 18.9748 25.4821 18.9703C25.4819 18.9701 25.4817 18.9699 25.4814 18.9698C25.4764 18.9649 25.4721 18.9593 25.4667 18.9549C25.4665 18.9548 25.4662 18.9546 25.466 18.9545C25.461 18.9496 25.4567 18.944 25.4512 18.9396C25.451 18.9393 25.4508 18.9392 25.4505 18.9391C25.4455 18.9342 25.4412 18.9287 25.4358 18.9241C25.3921 18.8879 25.3373 18.8683 25.2811 18.8683C25.2726 18.8683 25.2639 18.8688 25.2553 18.8697L22.045 19.2132V7.4782C22.045 7.40796 22.0145 7.34102 21.9614 7.29511C21.9603 7.2942 21.9592 7.29363 21.9582 7.29272C21.954 7.28852 21.9506 7.28363 21.946 7.27965C21.945 7.27874 21.9438 7.27817 21.9427 7.27726C21.9385 7.27306 21.9351 7.26817 21.9306 7.2642C21.9295 7.26329 21.9284 7.26272 21.9274 7.26181C21.9232 7.2576 21.9198 7.25272 21.9152 7.24874C21.9142 7.24783 21.913 7.24726 21.912 7.24635C21.9078 7.24215 21.9044 7.23726 21.8999 7.23328C21.8988 7.23238 21.8977 7.2318 21.8967 7.23101C21.8925 7.2268 21.8891 7.22192 21.8845 7.21794C21.8835 7.21703 21.8824 7.21646 21.8813 7.21555C21.8771 7.21135 21.8737 7.20646 21.8692 7.20248C21.8682 7.20157 21.867 7.20099 21.866 7.20008C21.8618 7.19588 21.8584 7.19099 21.8538 7.18701C21.8528 7.18611 21.8516 7.18554 21.8505 7.18463C21.8463 7.18042 21.8429 7.17554 21.8384 7.17156C21.8374 7.17065 21.8362 7.17008 21.8352 7.16917C21.831 7.16497 21.8276 7.16008 21.823 7.1561C21.822 7.15519 21.8209 7.15463 21.8199 7.15372C21.8157 7.14951 21.8122 7.14451 21.8077 7.14065C21.8067 7.13974 21.8055 7.13917 21.8045 7.13826C21.8003 7.13406 21.7969 7.12917 21.7923 7.12519C21.7913 7.12428 21.7902 7.12372 21.7892 7.12281C21.785 7.1186 21.7815 7.1136 21.777 7.10974C21.776 7.10883 21.7748 7.10826 21.7738 7.10735C21.7696 7.10315 21.7662 7.09826 21.7617 7.09428C21.7606 7.09337 21.7594 7.0928 21.7584 7.09189C21.7542 7.08769 21.7507 7.08269 21.7462 7.07883C21.7452 7.07792 21.744 7.07735 21.743 7.07655C21.7388 7.07235 21.7354 7.06735 21.7309 7.06348C21.7298 7.06257 21.7287 7.062 21.7277 7.06109C21.7235 7.05689 21.7201 7.05189 21.7155 7.04803C21.7145 7.04712 21.7134 7.04655 21.7123 7.04564C21.7081 7.04143 21.7047 7.03653 21.7002 7.03256C21.6991 7.03165 21.6979 7.03108 21.6969 7.03017C21.6927 7.02596 21.6893 7.02108 21.6847 7.0171C21.6837 7.01619 21.6824 7.01562 21.6814 7.01471C21.6772 7.01051 21.6738 7.00562 21.6693 7.00164C21.6682 7.00074 21.6671 7.00017 21.6661 6.99926C21.6619 6.99505 21.6585 6.99017 21.6539 6.98619C21.6529 6.98528 21.6518 6.98471 21.6507 6.9838C21.6465 6.9796 21.6431 6.97471 21.6386 6.97073C21.6375 6.96982 21.6364 6.96926 21.6354 6.96835C21.6312 6.96414 21.6278 6.95926 21.6232 6.95528C21.6222 6.95437 21.6211 6.9538 21.6199 6.95289C21.6157 6.94869 21.6123 6.9438 21.6078 6.93982C21.6067 6.93891 21.6056 6.93835 21.6046 6.93744C21.6004 6.93323 21.597 6.92834 21.5924 6.92437C21.5914 6.92346 21.5903 6.92289 21.5892 6.92209C21.585 6.91789 21.5816 6.91289 21.5771 6.90902C21.5761 6.90811 21.5749 6.90755 21.5739 6.90664C21.5697 6.90243 21.5663 6.89754 21.5617 6.89357C21.5607 6.89266 21.5596 6.89209 21.5586 6.89118C21.5544 6.88697 21.5509 6.88209 21.5464 6.87811C21.5454 6.8772 21.5441 6.87663 21.5431 6.87572C21.5389 6.87152 21.5355 6.86662 21.5309 6.86264C21.5299 6.86173 21.5288 6.86116 21.5276 6.86026C21.5234 6.85605 21.52 6.85105 21.5155 6.84719C21.5145 6.84628 21.5133 6.84571 21.5123 6.8448C21.5081 6.84059 21.5047 6.83571 21.5001 6.83173C21.4991 6.83082 21.498 6.83025 21.497 6.82934C21.4928 6.82514 21.4893 6.82014 21.4848 6.81627C21.4838 6.81537 21.4826 6.8148 21.4816 6.81389C21.4774 6.80968 21.474 6.8048 21.4695 6.80082C21.4684 6.79991 21.4673 6.79934 21.4663 6.79843C21.4621 6.79423 21.4587 6.78923 21.4541 6.78536C21.4531 6.78445 21.4519 6.78389 21.4509 6.78298C21.4467 6.77877 21.4433 6.77389 21.4388 6.76991C21.4377 6.769 21.4366 6.76843 21.4356 6.76752C21.4314 6.76332 21.428 6.75843 21.4234 6.75445C21.4224 6.75354 21.4213 6.75298 21.4202 6.75207C21.416 6.74786 21.4126 6.74297 21.4081 6.739C21.4071 6.73809 21.4059 6.73751 21.4049 6.7366C21.4007 6.73239 21.3973 6.72739 21.3927 6.72353C21.3917 6.72262 21.3905 6.72205 21.3894 6.72114C21.3852 6.71694 21.3818 6.71205 21.3773 6.70807C21.3763 6.70716 21.3751 6.70659 21.3741 6.70569C21.3699 6.70148 21.3665 6.69659 21.3619 6.69262C21.3609 6.69171 21.3597 6.69114 21.3586 6.69023C21.3544 6.68602 21.351 6.68114 21.3465 6.67716C21.3455 6.67625 21.3443 6.67568 21.3433 6.67477C21.3391 6.67057 21.3357 6.66568 21.3311 6.6617C21.3301 6.6608 21.329 6.66023 21.328 6.65932C21.3238 6.65511 21.3203 6.65023 21.3158 6.64625C21.3148 6.64534 21.3136 6.64477 21.3126 6.64386C21.3084 6.63966 21.305 6.63477 21.3004 6.63079C21.2994 6.62988 21.2983 6.62932 21.2972 6.62841C21.293 6.6242 21.2895 6.61932 21.285 6.61534C21.284 6.61443 21.2828 6.61386 21.2818 6.61306C21.2776 6.60886 21.2742 6.60397 21.2696 6.59999C21.2686 6.59908 21.2675 6.59852 21.2664 6.59761C21.2622 6.5934 21.2587 6.58852 21.2542 6.58454C21.2532 6.58363 21.252 6.58306 21.251 6.58215C21.2468 6.57795 21.2434 6.57305 21.2388 6.56907C21.2378 6.56816 21.2367 6.56759 21.2357 6.56668C21.2315 6.56248 21.228 6.55759 21.2235 6.55361C21.2225 6.5527 21.2213 6.55214 21.2203 6.55123C21.2161 6.54702 21.2127 6.54214 21.2082 6.53816C21.2071 6.53725 21.206 6.53668 21.2049 6.53577C21.2007 6.53157 21.1972 6.52657 21.1927 6.5227C21.1917 6.52179 21.1905 6.52122 21.1895 6.52032C21.1853 6.51611 21.1819 6.51122 21.1774 6.50725C21.1763 6.50634 21.1752 6.50577 21.1742 6.50486C21.17 6.50065 21.1666 6.49565 21.162 6.49179C21.161 6.49088 21.1599 6.49031 21.1588 6.4894C21.1546 6.4852 21.1512 6.48031 21.1467 6.47633C21.1456 6.47543 21.1445 6.47486 21.1435 6.47395C21.1393 6.46974 21.1359 6.46474 21.1313 6.46088C21.1303 6.45997 21.1292 6.4594 21.1281 6.4586C21.1239 6.4544 21.1205 6.4494 21.116 6.44553C21.115 6.44463 21.1138 6.44406 21.1128 6.44315C21.1086 6.43894 21.1052 6.43394 21.1007 6.43008C21.0996 6.42917 21.0985 6.4286 21.0975 6.42769C21.0933 6.42349 21.0899 6.4186 21.0853 6.41462C21.0843 6.41371 21.0831 6.41315 21.0821 6.41224C21.0779 6.40803 21.0745 6.40313 21.07 6.39915C21.0689 6.39824 21.0678 6.39768 21.0668 6.39677C21.0626 6.39256 21.0592 6.38768 21.0546 6.3837C21.0536 6.38279 21.0524 6.38222 21.0514 6.38131C21.0472 6.37711 21.0438 6.37222 21.0393 6.36824C21.0383 6.36733 21.037 6.36677 21.036 6.36586C21.0318 6.36165 21.0284 6.35677 21.0238 6.35279C21.0228 6.35188 21.0216 6.35131 21.0206 6.3504C21.0164 6.3462 21.013 6.34131 21.0085 6.33733C21.0075 6.33642 21.0063 6.33585 21.0053 6.33495C21.0011 6.33074 20.9977 6.32585 20.9931 6.32188C20.9921 6.32097 20.991 6.3204 20.99 6.31949C20.9857 6.31528 20.9823 6.3104 20.9778 6.30642C20.9768 6.30551 20.9756 6.30494 20.9746 6.30415C20.9704 6.29994 20.967 6.29494 20.9624 6.29108C20.9614 6.29017 20.9603 6.2896 20.9593 6.28869C20.9551 6.28448 20.9516 6.2796 20.9471 6.27562C20.9461 6.27471 20.9448 6.27414 20.9438 6.27323C20.9396 6.26903 20.9362 6.26414 20.9316 6.26016C20.9306 6.25926 20.9295 6.25869 20.9285 6.25778C20.9243 6.25357 20.9208 6.24869 20.9163 6.24471C20.9153 6.2438 20.9141 6.24322 20.9131 6.24231C20.9089 6.2381 20.9055 6.2331 20.901 6.22924C20.8999 6.22833 20.8988 6.22776 20.8978 6.22685C20.8936 6.22265 20.8902 6.21776 20.8856 6.21378C20.8846 6.21287 20.8835 6.21231 20.8823 6.2114C20.8781 6.20719 20.8747 6.20219 20.8702 6.19833C20.8691 6.19742 20.868 6.19685 20.867 6.19594C20.8628 6.19174 20.8594 6.18685 20.8548 6.18287C20.8538 6.18196 20.8527 6.1814 20.8516 6.18049C20.8474 6.17628 20.844 6.17128 20.8395 6.16742C20.8384 6.16651 20.8373 6.16594 20.8363 6.16503C20.8321 6.16083 20.8287 6.15594 20.8241 6.15196C20.8231 6.15105 20.822 6.15048 20.8209 6.14958C20.8167 6.14537 20.8133 6.14048 20.8088 6.13651C20.8078 6.1356 20.8066 6.13503 20.8055 6.13412C20.8013 6.12991 20.7979 6.12503 20.7933 6.12105C20.7923 6.12014 20.7912 6.11957 20.7901 6.11866C20.7859 6.11446 20.7825 6.10946 20.778 6.10559C20.777 6.10469 20.7757 6.1041 20.7748 6.10319C20.7706 6.09899 20.7672 6.0941 20.7626 6.09013C20.7616 6.08922 20.7605 6.08865 20.7595 6.08774C20.7552 6.08353 20.7518 6.07865 20.7473 6.07467C20.7463 6.07376 20.7451 6.07319 20.7441 6.07228C20.7399 6.06808 20.7365 6.06319 20.732 6.05921C20.6876 6.02068 20.6311 6 20.5733 6C20.5618 6 20.5503 6.0008 20.5389 6.00239L17.208 6.48054C17.0859 6.49804 16.9965 6.60454 17.0001 6.72786L17.473 22.4462C17.4751 22.5149 17.5061 22.5759 17.5536 22.6186C17.5586 22.6239 17.5636 22.6292 17.5691 22.6341C17.5741 22.6394 17.5791 22.6446 17.5845 22.6495C17.5895 22.6548 17.5945 22.6601 17.5999 22.6649C17.6049 22.6702 17.6099 22.6754 17.6152 22.6803C17.6202 22.6856 17.6252 22.6909 17.6305 22.6957C17.6355 22.701 17.6406 22.7062 17.646 22.7111C17.651 22.7164 17.656 22.7217 17.6614 22.7266C17.6664 22.7319 17.6714 22.7371 17.6768 22.742C17.6818 22.7474 17.6868 22.7526 17.6923 22.7575C17.6973 22.7628 17.7023 22.7681 17.7077 22.7729C17.7127 22.7783 17.7177 22.7835 17.7232 22.7884C17.7282 22.7937 17.7332 22.799 17.7386 22.8039C17.7435 22.8092 17.7486 22.8144 17.754 22.8192C17.759 22.8245 17.764 22.8298 17.7694 22.8347C17.7744 22.84 17.7794 22.8452 17.7848 22.85C17.7898 22.8553 17.7948 22.8606 17.8002 22.8655C17.8052 22.8708 17.8102 22.876 17.8156 22.8808C17.8206 22.8861 17.8256 22.8914 17.831 22.8963C17.836 22.9016 17.841 22.9068 17.8464 22.9116C17.8514 22.9169 17.8564 22.9222 17.8618 22.9271C17.8668 22.9324 17.8718 22.9376 17.8772 22.9424C17.8822 22.9477 17.8872 22.953 17.8926 22.9579C17.8976 22.9632 17.9026 22.9684 17.908 22.9732C17.913 22.9785 17.918 22.9838 17.9234 22.9887C17.9284 22.994 17.9334 22.9992 17.9388 23.004C17.9438 23.0093 17.9488 23.0146 17.9542 23.0195C17.9592 23.0248 17.9642 23.03 17.9697 23.0349C17.9747 23.0403 17.9797 23.0455 17.985 23.0504C17.99 23.0557 17.995 23.0609 18.0005 23.0658C18.0055 23.0712 18.0105 23.0764 18.016 23.0813C18.021 23.0866 18.026 23.0919 18.0314 23.0967C18.0364 23.1021 18.0414 23.1073 18.0469 23.1122C18.0519 23.1175 18.0569 23.1228 18.0622 23.1275C18.0672 23.1329 18.0722 23.1381 18.0777 23.1429C18.0827 23.1482 18.0877 23.1535 18.093 23.1582C18.098 23.1636 18.103 23.1688 18.1085 23.1737C18.1135 23.179 18.1185 23.1843 18.1239 23.1891C18.1289 23.1945 18.1339 23.1997 18.1393 23.2045C18.1443 23.2098 18.1493 23.2151 18.1547 23.2199C18.1597 23.2253 18.1647 23.2305 18.1701 23.2353C18.1751 23.2406 18.1801 23.2459 18.1855 23.2507C18.1905 23.2561 18.1955 23.2613 18.201 23.2662C18.206 23.2715 18.211 23.2768 18.2163 23.2815C18.2213 23.2869 18.2263 23.2921 18.2317 23.297C18.2367 23.3023 18.2417 23.3076 18.247 23.3123C18.252 23.3177 18.257 23.3229 18.2625 23.3278C18.2675 23.3331 18.2725 23.3384 18.2779 23.3433C18.2829 23.3486 18.2879 23.3538 18.2934 23.3587C18.2984 23.3641 18.3034 23.3693 18.3087 23.3742C18.3137 23.3795 18.3187 23.3848 18.3242 23.3896C18.3292 23.395 18.3342 23.4002 18.3396 23.4051C18.3446 23.4104 18.3496 23.4157 18.3551 23.4206C18.3601 23.4259 18.3651 23.4311 18.3704 23.4359C18.3754 23.4412 18.3804 23.4465 18.3858 23.4514C18.3908 23.4567 18.3958 23.4619 18.4011 23.4667C18.4061 23.472 18.4111 23.4773 18.4166 23.4822C18.4216 23.4875 18.4266 23.4927 18.4319 23.4975C18.4369 23.5028 18.4419 23.5081 18.4474 23.513C18.4524 23.5183 18.4574 23.5235 18.4627 23.5283C18.4677 23.5336 18.4727 23.5389 18.4782 23.5438C18.4832 23.5491 18.4882 23.5543 18.4935 23.5591C18.4985 23.5644 18.5035 23.5697 18.509 23.5746C18.514 23.5799 18.519 23.5851 18.5243 23.5899C18.5293 23.5952 18.5343 23.6005 18.5398 23.6054C18.5448 23.6107 18.5498 23.6159 18.5551 23.6207C18.5601 23.626 18.5651 23.6313 18.5706 23.6362C18.5756 23.6415 18.5806 23.6467 18.5861 23.6516C18.5911 23.657 18.5961 23.6622 18.6015 23.6671C18.6065 23.6724 18.6115 23.6776 18.617 23.6825C18.622 23.6879 18.627 23.6931 18.6323 23.698C18.6373 23.7033 18.6423 23.7086 18.6478 23.7134C18.6528 23.7188 18.6578 23.724 18.6632 23.7289C18.6682 23.7342 18.6732 23.7395 18.6786 23.7442C18.6836 23.7496 18.6886 23.7548 18.694 23.7596C18.699 23.7649 18.704 23.7702 18.7094 23.7749C18.7144 23.7803 18.7194 23.7855 18.7248 23.7904C18.7298 23.7957 18.7348 23.801 18.7403 23.8058C18.7453 23.8112 18.7503 23.8164 18.7556 23.8212C18.7606 23.8265 18.7656 23.8318 18.7711 23.8366C18.8154 23.8844 18.878 23.9147 18.9481 23.9147H26.7822C26.8499 23.9147 26.9144 23.8865 26.9602 23.8368C27.0061 23.787 27.0291 23.7205 27.0239 23.6531L26.7591 20.3222C26.7535 20.2583 26.7222 20.198 26.6719 20.1561Z" fill="#0D0087"/>
<path d="M17.7151 22.4387H25.5492L25.2845 19.1078L20.5731 19.6119V6.24219L17.2422 6.72021L17.7151 22.4387Z" fill="#FFD700"/>
<path d="M17.8915 22.4451L17.4258 6.96453L20.498 6.52344V19.7461C20.498 19.7823 20.5134 19.8168 20.5404 19.841C20.5639 19.8623 20.5944 19.8738 20.6256 19.8738C20.6302 19.8738 20.6346 19.8734 20.6391 19.873L25.2203 19.3828L25.4637 22.4451H17.8915Z" fill="white"/>
<path d="M25.5502 22.5108H17.7162C17.6819 22.5108 17.6537 22.4836 17.6526 22.4492L17.1797 6.73081C17.1787 6.69853 17.2021 6.67069 17.2342 6.66603L20.565 6.18788C20.5836 6.18606 20.6017 6.19072 20.6156 6.20277C20.6295 6.21481 20.6374 6.23244 20.6374 6.25085V19.55L25.2786 19.0533C25.2957 19.0518 25.3128 19.0566 25.3259 19.0676C25.3391 19.0786 25.3473 19.0944 25.3487 19.1115L25.6134 22.4424C25.6148 22.4601 25.6088 22.4776 25.5967 22.4905C25.5849 22.5035 25.5681 22.5108 25.5502 22.5108ZM17.7779 22.3838H25.4815L25.2275 19.1866L20.5809 19.6838C20.5631 19.6855 20.545 19.6799 20.5316 19.6679C20.5183 19.6558 20.5106 19.6386 20.5106 19.6206V6.32404L17.3085 6.78378L17.7779 22.3838Z" fill="white"/>
<path d="M25.5502 22.5108H17.7162C17.6819 22.5108 17.6537 22.4836 17.6526 22.4492L17.1797 6.73081C17.1787 6.69853 17.2021 6.67069 17.2342 6.66603L20.565 6.18788C20.5836 6.18606 20.6017 6.19072 20.6156 6.20277C20.6295 6.21481 20.6374 6.23244 20.6374 6.25085V19.55L25.2786 19.0533C25.2957 19.0518 25.3128 19.0566 25.3259 19.0676C25.3391 19.0786 25.3473 19.0944 25.3487 19.1115L25.6134 22.4424C25.6148 22.4601 25.6088 22.4776 25.5967 22.4905C25.5849 22.5035 25.5681 22.5108 25.5502 22.5108ZM17.7779 22.3838H25.4815L25.2275 19.1866L20.5809 19.6838C20.5631 19.6855 20.545 19.6799 20.5316 19.6679C20.5183 19.6558 20.5106 19.6386 20.5106 19.6206V6.32404L17.3085 6.78378L17.7779 22.3838Z" fill="white"/>
</svg>
