<svg width="34" height="34" viewBox="0 0 34 34" fill="none" xmlns="http://www.w3.org/2000/svg">
<path d="M13.9912 1H10.9615C10.9615 2.97215 10.9615 4.12785 10.9615 6.1M13.9912 1H17.0859M13.9912 1V6.05M13.9912 28.7349V6.05M10.9615 28.7349C10.9615 19.9286 10.9615 14.9063 10.9615 6.1M10.9615 6.1L3.98047 6.05C3.98047 16.2622 3.98047 21.9878 3.98047 32.2V33M13.9912 6.05L17.5211 6.1" stroke="white"/>
<path d="M17.5312 27.9094C23.3536 27.9094 28.0736 23.0293 28.0736 17.0094C28.0736 10.9895 23.3536 6.10938 17.5312 6.10938" stroke="white"/>
<path d="M17.0897 1H17.525C26.0716 1 33 8.16344 33 17C33 25.8366 26.0716 33 17.525 33H3.98433H1V5.34102" stroke="white"/>
</svg>
