<svg width="392" height="151" viewBox="0 0 392 151" fill="none" xmlns="http://www.w3.org/2000/svg">
<path fill-rule="evenodd" clip-rule="evenodd" d="M28.6674 98.7519C49.2141 88.8155 55.3789 122.066 41.7862 130.665C29.5352 138.386 16.7736 124.665 21.6728 107.236C23.2146 101.772 25.229 100.433 28.6661 98.7912L28.6674 98.7519ZM47.8116 85.3949C39.3563 76.5658 23.767 76.8534 13.4531 84.3433C-4.2482 97.262 -4.87912 131.966 13.9294 145.342C27.009 154.629 37.6561 150.263 49.2724 143.996L49.3839 149.585L68.6282 149.392L68.4711 80.0232L49.3864 80.1752C48.8733 81.2445 49.1102 85.1047 48.8327 85.7547C47.1731 89.1943 49.7817 86.5756 47.8256 85.3923L47.8116 85.3949Z" fill="#00448C"/>
<path d="M48.0703 87.2373C48.1595 87.2157 48.2486 87.3453 48.3378 87.3237C48.3824 87.3237 48.4048 87.28 48.4494 87.2584H48.6278C48.7839 87.28 48.8061 87.3236 48.7169 87.4965L48.5161 87.5182C48.3823 87.5182 48.4719 87.5399 48.3827 87.4318H48.3378C48.3378 87.367 48.3822 87.3018 48.4045 87.2802C48.4045 87.2369 48.4048 87.1936 48.4494 87.172C48.494 87.1288 48.7172 87.172 48.7618 87.172L48.7394 87.3883H48.5835C48.5612 87.3883 48.5384 87.4315 48.5161 87.3883L48.427 87.3455H48.3603H48.3827V87.3883L48.4494 87.3237H48.6053C48.6276 87.583 48.5612 87.4534 48.6727 87.5182H48.4719C48.4273 87.4966 48.4049 87.4529 48.3603 87.4529C48.2711 87.4313 48.182 87.5614 48.0928 87.5182V87.3019L48.0703 87.2373ZM48.2711 86.8047C48.2711 86.8047 48.3155 86.805 48.3378 86.8482H48.7618C48.8511 86.8482 48.8953 86.8264 48.8061 86.9992H48.6278C48.5385 87.0425 48.4714 86.8911 48.4045 86.8911L48.3153 86.9129L48.2262 86.9346C48.1147 86.8482 48.0481 86.6971 48.1819 86.5891C48.2042 86.5891 48.2488 86.5888 48.2711 86.5455H48.3603C48.3826 86.5672 48.4492 86.6751 48.5161 86.6319C48.6277 86.5671 48.5383 86.5023 48.6945 86.5455C48.9175 86.632 48.6503 86.8267 48.5611 86.7618L48.4937 86.6755C48.4268 86.6322 48.3376 86.762 48.3153 86.7836C48.1592 86.7836 48.0032 86.6539 48.137 86.5027L48.2037 86.4592L48.3827 86.4163C48.4273 86.4379 48.4268 86.5243 48.4937 86.5027C48.5383 86.5027 48.5388 86.4161 48.5611 86.3945H48.7394C48.9624 86.3945 49.1185 86.6108 48.8286 86.6972H48.5611C48.4495 86.4811 48.5609 86.6105 48.5386 86.5673V86.4592L48.851 86.4809L48.8061 86.6972C48.7311 86.7002 48.6565 86.6927 48.5835 86.6755C48.5835 86.6538 48.5832 86.6105 48.5386 86.5673C48.5609 86.6105 48.5389 86.5457 48.5835 86.4809H48.8061C48.8507 86.4809 48.7618 86.481 48.7618 86.5891L48.8061 86.6537C48.8061 86.6105 48.7842 86.5891 48.7618 86.5891L48.6278 86.6102C48.5832 86.567 48.5832 86.4809 48.5386 86.4809C48.494 86.4809 48.5165 86.567 48.4719 86.6102L48.3827 86.6319C48.3381 86.6319 48.4269 86.5238 48.3153 86.5238H48.3603C48.3603 86.5454 48.494 86.6751 48.5386 86.6319C48.5386 86.6319 48.5389 86.567 48.5835 86.5238C48.6281 86.4806 48.94 86.524 48.6278 86.7401V86.6972L48.5611 86.5891C48.4941 86.5242 48.4493 86.6756 48.427 86.6972L48.3827 86.7183C48.3827 86.7831 48.3822 86.8914 48.4937 86.8482L48.5611 86.8047H48.8061C48.8953 86.9776 48.8511 86.9564 48.7618 86.9564H48.5161H48.3378L48.2711 86.9992V86.8047Z" fill="#00448C"/>
<path d="M48.5386 86.5673C48.5609 86.6105 48.4495 86.4811 48.5611 86.6972H48.8286C49.1185 86.6108 48.9624 86.3945 48.7394 86.3945H48.5611C48.5388 86.4161 48.5383 86.5027 48.4937 86.5027C48.4268 86.5243 48.4273 86.4379 48.3827 86.4163L48.2037 86.4592L48.137 86.5027C48.0032 86.6539 48.1592 86.7836 48.3153 86.7836C48.3376 86.762 48.4268 86.6322 48.4937 86.6755L48.5611 86.7618C48.6503 86.8267 48.9175 86.632 48.6945 86.5455C48.5383 86.5023 48.6277 86.5671 48.5161 86.6319C48.4492 86.6751 48.3826 86.5672 48.3603 86.5455H48.2711C48.2488 86.5888 48.2042 86.5891 48.1819 86.5891C48.0481 86.6971 48.1147 86.8482 48.2262 86.9346L48.3153 86.9129L48.4045 86.8911C48.4714 86.8911 48.5385 87.0425 48.6278 86.9992H48.8061C48.8953 86.8264 48.8511 86.8482 48.7618 86.8482H48.3378C48.3155 86.805 48.2711 86.8047 48.2711 86.8047V86.9992L48.3378 86.9564H48.5161H48.7618C48.8511 86.9564 48.8953 86.9776 48.8061 86.8047H48.5611L48.4937 86.8482C48.3822 86.8914 48.3827 86.7831 48.3827 86.7183L48.427 86.6972C48.4493 86.6756 48.4941 86.5242 48.5611 86.5891L48.6278 86.6972V86.7401C48.94 86.524 48.6281 86.4806 48.5835 86.5238C48.5389 86.567 48.5386 86.6319 48.5386 86.6319C48.494 86.6751 48.3603 86.5454 48.3603 86.5238H48.3153C48.4269 86.5238 48.3381 86.6319 48.3827 86.6319L48.4719 86.6102C48.5165 86.567 48.494 86.4809 48.5386 86.4809C48.5832 86.4809 48.5832 86.567 48.6278 86.6102L48.7618 86.5891M48.5386 86.5673V86.4592L48.851 86.4809L48.8061 86.6972C48.7311 86.7002 48.6565 86.6927 48.5835 86.6755C48.5835 86.6538 48.5832 86.6105 48.5386 86.5673ZM48.5386 86.5673C48.5609 86.6105 48.5389 86.5457 48.5835 86.4809H48.8061C48.8507 86.4809 48.7618 86.481 48.7618 86.5891M48.7618 86.5891L48.8061 86.6537C48.8061 86.6105 48.7842 86.5891 48.7618 86.5891ZM48.0703 87.2373C48.1595 87.2157 48.2486 87.3453 48.3378 87.3237C48.3824 87.3237 48.4048 87.28 48.4494 87.2584H48.6278C48.7839 87.28 48.8061 87.3236 48.7169 87.4965L48.5161 87.5182C48.3823 87.5182 48.4719 87.5399 48.3827 87.4318H48.3378C48.3378 87.367 48.3822 87.3018 48.4045 87.2802C48.4045 87.2369 48.4048 87.1936 48.4494 87.172C48.494 87.1288 48.7172 87.172 48.7618 87.172L48.7394 87.3883H48.5835C48.5612 87.3883 48.5384 87.4315 48.5161 87.3883L48.427 87.3455H48.3603H48.3827V87.3883L48.4494 87.3237H48.6053C48.6276 87.583 48.5612 87.4534 48.6727 87.5182H48.4719C48.4273 87.4966 48.4049 87.4529 48.3603 87.4529C48.2711 87.4313 48.182 87.5614 48.0928 87.5182V87.3019L48.0703 87.2373Z" stroke="#273386" stroke-width="0.917882"/>
<path fill-rule="evenodd" clip-rule="evenodd" d="M97.5009 149.43C98.9236 137.43 91.1385 91.8338 110.066 96.8786C124.884 100.854 109.395 136.894 121.921 149.583L141.993 149.201C135.316 136.551 136.975 138.002 136.936 121.759C136.936 112.282 135.118 96.7253 147.012 96.7253C165.939 96.7253 146.657 137.009 162.344 149.545L182.535 149.35C169.496 135.974 180.44 113.271 174.672 93.7417C172.499 86.4038 165.979 79.8678 156.455 78.9506C143.338 77.6888 140.216 81.8936 133.063 87.6264C128.401 84.1867 126.228 79.4852 116.231 78.9126C107.103 78.3767 100.887 81.188 96.6584 85.8514L96.5026 81.1018C96.4139 80.6052 96.2733 80.4063 96.0364 80.0629L77.5078 80.3265L77.9829 149.618L97.5034 149.467L97.5009 149.43ZM214.183 98.9424C234.968 87.9735 240.459 124.319 226.353 131.198C215.882 136.282 208.73 128.218 206.636 120.918C204.502 113.541 205.806 103.375 214.183 98.9424ZM205.948 144.908C215.227 152.069 233.072 152.334 242.317 143.965C261.639 126.384 257.885 94.9288 239.867 83.234C226.116 74.3289 216.356 80.0237 206.636 85.6791L206.48 55.4102L186.248 55.7535L186.762 149.62L205.442 149.729C205.956 144.882 205.448 149.772 205.442 149.792L205.948 144.908Z" fill="#00448C"/>
<path fill-rule="evenodd" clip-rule="evenodd" d="M280.57 107.545C283.692 90.8051 302.184 91.1117 304.555 107.589L280.57 107.545ZM321.507 127.229C308.27 131.853 285.747 140.797 280.531 122.031L324.746 121.229C325.616 101.47 319.491 86.3735 305.068 80.7167C267.017 65.8115 243.623 119.662 271.837 142.555C283.692 152.187 306.61 154.02 319.017 143.854C320.993 139.918 321.387 133.038 321.467 127.229H321.507ZM391.961 80.1035L370.622 80.4861L356.912 125.47L343.634 80.0655L322.534 80.1086C323.205 86.0327 343.319 144.47 346.322 149.553L368.528 149.662L392 80.1403L391.961 80.1035Z" fill="#00448C"/>
<path d="M304.571 16.9487C304.554 16.9487 304.545 16.95 304.542 16.9538C304.029 17.4859 291.588 36.074 291.685 36.1627C291.755 36.226 292.775 36.5744 293.95 36.9355L296.345 37.6703C296.535 37.7286 296.901 37.2725 297.75 35.9219C298.381 34.916 298.95 34.0621 299.012 34.0216C299.117 33.9582 305.455 35.8839 305.579 36.0195C305.61 36.0512 305.567 37.071 305.496 38.286C305.42 39.4997 305.374 40.5069 305.394 40.5234C305.415 40.5398 306.571 40.9148 307.965 41.3557C309.358 41.7966 310.58 42.1627 310.68 42.1665C310.904 42.1767 310.976 40.6146 311.309 28.4231C311.45 23.2668 311.502 19.1265 311.426 19.0543C311.188 18.8263 305.061 16.9538 304.571 16.9487ZM306.415 22.442C306.453 22.4788 306.36 24.4919 306.21 26.918C306.061 29.3429 305.895 31.3725 305.843 31.4282C305.717 31.56 301.554 30.2589 301.553 30.0853C301.553 29.8889 306.338 22.3635 306.415 22.442ZM89.342 39.1754C85.4779 38.6559 82.2625 35.6977 80.8081 31.3281C79.9821 28.8425 79.8098 26.8876 80.2253 24.7136C81.1362 19.9551 85.407 16.5598 91.3234 15.8921C93.7648 15.6172 93.7077 15.602 94.0675 16.5598L94.777 18.4411L95.1736 19.4889L93.5443 19.6726C89.6308 20.1134 87.2642 21.3322 86.233 23.4416C84.9965 25.9691 85.9923 30.4198 88.3234 32.7787C89.1659 33.6314 89.4357 33.8011 90.4442 34.1077C91.8555 34.5359 93.0882 34.4739 94.9683 33.8771C96.4633 33.4046 97.8417 32.6014 99.1529 31.4447L100.097 30.6098L100.202 31.1698C100.557 33.0575 99.799 35.2365 98.3269 36.5668C96.3176 38.3823 92.2394 39.5643 89.342 39.1754ZM282.519 33.6466C281.239 33.3298 280.155 33.0296 280.108 32.9814C280.026 32.8966 285.143 11.4972 285.277 11.3616C285.353 11.2856 290.276 12.4778 290.4 12.6032C290.445 12.6476 289.312 17.5201 287.882 23.4315C286.042 31.0329 285.218 34.185 285.063 34.2015C284.943 34.2141 283.797 33.9646 282.519 33.6466ZM107.343 23.1553C105.881 17.2236 104.712 12.3435 104.746 12.3106C104.914 12.1408 120.296 8.45408 120.394 8.55924C120.608 8.78855 121.371 12.4284 121.233 12.5576C121.157 12.6273 118.833 13.2341 116.067 13.9069C112.402 14.7975 111.039 15.1902 111.039 15.3537C111.039 15.5716 111.999 19.5598 112.075 19.6574C112.096 19.6827 113.849 19.2811 115.971 18.7617C118.093 18.2422 119.966 17.7937 120.132 17.7633C120.398 17.7152 120.499 17.9597 120.945 19.7296C121.226 20.8407 121.397 21.7858 121.325 21.8301C121.255 21.8745 119.434 22.3407 117.277 22.8652C115.121 23.3897 113.311 23.8508 113.251 23.8876C113.165 23.9408 114.129 28.3775 114.252 28.4953C114.271 28.5118 116.673 27.9379 119.591 27.2208C122.508 26.5025 124.917 25.9286 124.941 25.9476C124.965 25.9653 125.151 26.9142 125.355 28.0557C125.69 29.9358 125.701 30.1385 125.469 30.2056C124.694 30.4274 110.298 33.9405 110.162 33.9405C110.074 33.9405 108.805 29.0882 107.343 23.1553ZM269.727 30.7606C269.151 30.6451 268.589 30.4693 268.05 30.2361C266.292 29.4316 265.509 28.1241 264.281 23.942C263.363 20.8217 263.044 19.9703 262.368 18.8465L261.825 17.947H262.903C265.677 17.947 267.344 16.4939 267.344 14.0792C267.344 12.9453 266.804 12.1332 265.667 11.5593C265.066 11.2552 262.079 10.6408 261.934 10.7903C261.876 10.8498 261.111 14.8114 260.234 19.594C259.357 24.3766 258.605 28.323 258.563 28.3636C258.478 28.4484 253.943 27.6465 253.552 27.4767C253.329 27.3817 253.54 26.0591 255.301 16.4863C256.403 10.5014 257.335 5.5782 257.375 5.54526C257.529 5.41857 266.707 7.19224 267.947 7.59005C270.097 8.27925 271.731 9.53476 272.603 11.1691C272.921 11.7645 272.966 12.0749 272.966 13.6699C272.966 15.3093 272.925 15.5779 272.551 16.3621C271.646 18.2574 269.939 19.4813 267.932 19.6726L266.949 19.7676L267.454 20.1274C268.23 20.681 269.319 22.456 270.419 24.9543C271.797 28.0912 272.57 29.2593 273.751 29.9953L274.219 30.2867L273.596 30.5477C272.839 30.8644 270.905 30.9696 269.727 30.7606ZM134.715 28.1837C134.634 27.9227 130.999 7.17451 130.952 6.70955C130.914 6.32441 130.923 6.32061 135.585 5.48825C140.996 4.52287 142.88 4.41138 144.643 4.95615C146.695 5.5896 147.98 6.84384 148.592 8.81262C149.473 11.6556 148.382 14.5619 145.956 15.8288C145.067 16.2937 144.874 16.5192 145.365 16.5218C146.036 16.5256 147.525 17.6594 149.838 19.9297C152.41 22.4534 153.432 23.2313 154.551 23.5151C154.92 23.6076 155.223 23.7431 155.223 23.8166C155.223 23.9991 154.009 24.7959 153.244 25.1139C152.126 25.5776 151.217 25.755 149.918 25.7575C147.632 25.7639 146.73 25.0696 143.55 20.8673C141.735 18.4677 140.89 17.5366 139.783 16.7219C139.522 16.5294 139.394 16.3697 139.499 16.3672C140.085 16.352 141.535 15.6185 142.252 14.9736C143.236 14.088 143.506 13.5091 143.501 12.289C143.488 10.1061 142.154 8.91397 139.955 9.13188C137.994 9.32572 137.011 9.5677 137.011 9.85782C137.011 10.0073 137.688 13.9461 138.516 18.6122C139.343 23.2795 140.02 27.1676 140.02 27.2537C140.02 27.3399 139.325 27.5337 138.477 27.6845C137.628 27.8365 136.446 28.0519 135.851 28.1621C135.047 28.3142 134.757 28.3192 134.715 28.1837ZM235.029 2.33238C234.835 2.28044 233.787 4.60395 230.229 12.9744C227.725 18.863 225.708 23.7127 225.748 23.752C225.873 23.8787 230.839 24.4019 230.942 24.3006C230.995 24.2461 231.387 23.2921 231.811 22.1823C232.334 20.8128 232.66 20.1654 232.821 20.1717C233.512 20.1958 239.316 20.904 239.386 20.9737C239.43 21.018 239.605 22.0011 239.775 23.1578C239.945 24.3158 240.123 25.3002 240.17 25.3471C240.217 25.3939 241.308 25.5561 242.595 25.7081C245.568 26.0591 245.806 26.0667 245.806 25.8247C245.806 25.6194 242.219 4.02877 242.088 3.44346C242.02 3.13687 241.78 3.08872 238.645 2.75679C236.791 2.56042 235.164 2.36912 235.029 2.33238ZM237.698 7.33667C237.719 7.33667 237.724 7.39368 237.726 7.50644C237.726 7.64326 237.98 9.65385 238.285 11.9736C238.589 14.2933 238.838 16.2658 238.838 16.3571C238.838 16.4457 238.679 16.5116 238.484 16.5015C237.872 16.4686 234.336 16.0289 234.288 15.9808C234.235 15.9276 237.354 7.88524 237.573 7.50897C237.64 7.39495 237.677 7.33794 237.697 7.33667H237.698ZM164.829 23.847C164.232 22.665 155.979 2.88475 156.054 2.81C156.1 2.76313 157.473 2.57563 159.102 2.39192C161.362 2.13981 162.092 2.1056 162.18 2.25003C162.244 2.35392 163.645 6.17745 165.292 10.7485C167.251 16.1822 168.325 18.9618 168.396 18.7794C168.455 18.6261 169.046 14.6227 169.708 9.88316C170.372 5.14365 170.944 1.2175 170.98 1.15795C171.066 1.01859 176.419 0.448486 176.538 0.567575C176.629 0.658793 172.33 23.0717 172.172 23.3187C172.127 23.3922 170.664 23.6063 168.922 23.7938C167.18 23.9813 165.596 24.1676 165.402 24.2094C165.139 24.2651 164.997 24.1764 164.829 23.847ZM211.661 22.8525C210.17 22.2621 209.221 20.9978 209.007 19.3128C208.913 18.5716 208.922 18.5463 209.265 18.6438C211.611 19.3128 212.013 19.3419 212.962 18.9112C214.119 18.3867 214.12 18.3791 214.489 8.91904C214.666 4.3455 214.82 0.597981 214.831 0.589113C214.917 0.510564 219.996 0.791818 220.086 0.880502C220.293 1.08954 219.551 17.7481 219.284 18.8617C218.823 20.7836 217.865 22.0924 216.469 22.7081C215.275 23.2338 212.811 23.3073 211.661 22.8525ZM185.409 21.2321C185.36 20.5138 185.277 15.4892 185.224 10.0669L185.128 0.210307H189.153C191.367 0.210307 195.009 0.162164 197.243 0.105153L201.308 0V4.32649H199.036C197.787 4.32649 195.365 4.37337 193.652 4.43038L190.539 4.53553V6.52965C190.539 7.62553 190.583 8.67959 190.634 8.86963L190.726 9.2155L194.986 9.12175L199.246 9.02799V13.3532H195.943C194.127 13.3532 192.204 13.3988 191.668 13.4546L190.695 13.5559V18.3144L196.237 18.208L201.78 18.1029V22.3293L198.335 22.4332C196.441 22.4914 192.777 22.5383 190.194 22.5383H185.497L185.409 21.2321Z" fill="#00448C"/>
</svg>
