<svg width="105" height="81" viewBox="0 0 105 81" fill="none" xmlns="http://www.w3.org/2000/svg">
<path d="M65.7539 1L84.7542 1L84.7542 77.0626L79.6696 77.0626C73.39 77.6736 70.9577 78.4415 69.6341 79.7512L65.7539 79.7512L65.7539 1Z" stroke="#00448C" stroke-width="0.6"/>
<path d="M69 1L81.7502 1L81.7502 7.00009L69 7.00009L69 1Z" stroke="#00448C" stroke-width="0.6"/>
<path d="M77.2539 2.24609L78.5039 2.24609L78.5039 3.49611L77.2539 3.49611L77.2539 2.24609Z" fill="black" stroke="#00448C" stroke-width="0.6"/>
<path d="M75 2.24609L76.25 2.24609L76.25 3.49611L75 3.49611L75 2.24609Z" fill="black" stroke="#00448C" stroke-width="0.6"/>
<path d="M72.75 2.24609L74.25 2.24609L74.25 3.49611L72.75 3.49611L72.75 2.24609Z" fill="black" stroke="#00448C" stroke-width="0.6"/>
<path d="M67.75 11.0191L68.8217 11.0191L68.8217 12.6371L67.75 12.6371L67.75 11.0191ZM81.6785 11.0191L82.7502 11.0191L82.7502 12.6371L81.6785 12.6371L81.6785 11.0191ZM70.1609 10.75L80.3393 10.75L80.3393 13.4456L70.1609 13.4456L70.1609 10.75ZM67.75 13.9838L68.8217 13.9838L68.8217 15.6018L67.75 15.6018L67.75 13.9838ZM81.6785 13.9838L82.7502 13.9838L82.7502 15.6018L81.6785 15.6018L81.6785 13.9838ZM70.1609 13.7147L80.3393 13.7147L80.3393 16.4103L70.1609 16.4103L70.1609 13.7147ZM67.75 16.9496L68.8217 16.9496L68.8217 18.5675L67.75 18.5675L67.75 16.9496ZM81.6785 16.9496L82.7502 16.9496L82.7502 18.5675L81.6785 18.5675L81.6785 16.9496ZM70.1609 16.6804L80.3393 16.6804L80.3393 19.376L70.1609 19.376L70.1609 16.6804ZM67.75 19.9153L68.8217 19.9153L68.8217 21.5333L67.75 21.5333L67.75 19.9153ZM81.6785 19.9153L82.7502 19.9153L82.7502 21.5333L81.6785 21.5333L81.6785 19.9153ZM70.1609 19.6451L80.3393 19.6451L80.3393 22.3407L70.1609 22.3407L70.1609 19.6451ZM67.75 22.88L68.8217 22.88L68.8217 24.498L67.75 24.498L67.75 22.88ZM81.6785 22.88L82.7502 22.88L82.7502 24.498L81.6785 24.498L81.6785 22.88ZM70.1609 22.6109L80.3393 22.6109L80.3393 25.3064L70.1609 25.3064L70.1609 22.6109ZM67.75 25.8457L68.8217 25.8457L68.8217 27.4637L67.75 27.4637L67.75 25.8457ZM81.6785 25.8457L82.7502 25.8457L82.7502 27.4637L81.6785 27.4637L81.6785 25.8457ZM70.1609 25.5756L80.3393 25.5756L80.3393 28.2711L70.1609 28.2711L70.1609 25.5756ZM67.75 28.8104L68.8217 28.8104L68.8217 30.4284L67.75 30.4284L67.75 28.8104ZM81.6785 28.8104L82.7502 28.8104L82.7502 30.4284L81.6785 30.4284L81.6785 28.8104ZM70.1609 28.5413L80.3393 28.5413L80.3393 31.2369L70.1609 31.2369L70.1609 28.5413ZM67.75 31.7762L68.8217 31.7762L68.8217 33.3941L67.75 33.3941L67.75 31.7762ZM81.6785 31.7762L82.7502 31.7762L82.7502 33.3941L81.6785 33.3941L81.6785 31.7762ZM70.1609 31.507L80.3393 31.507L80.3393 34.2026L70.1609 34.2026L70.1609 31.507ZM67.75 34.7419L68.8217 34.7419L68.8217 36.3599L67.75 36.3599L67.75 34.7419ZM81.6785 34.7419L82.7502 34.7419L82.7502 36.3599L81.6785 36.3599L81.6785 34.7419ZM70.1609 34.4717L80.3393 34.4717L80.3393 37.1673L70.1609 37.1673L70.1609 34.4717ZM67.75 37.7066L68.8217 37.7066L68.8217 39.3246L67.75 39.3246L67.75 37.7066ZM81.6785 37.7066L82.7502 37.7066L82.7502 39.3246L81.6785 39.3246L81.6785 37.7066ZM70.1609 37.4375L80.3393 37.4375L80.3393 40.133L70.1609 40.133L70.1609 37.4375ZM67.75 40.6724L68.8217 40.6724L68.8217 42.2903L67.75 42.2903L67.75 40.6724ZM81.6785 40.6724L82.7502 40.6724L82.7502 42.2903L81.6785 42.2903L81.6785 40.6724ZM70.1609 40.4022L80.3393 40.4022L80.3393 43.0977L70.1609 43.0977L70.1609 40.4022ZM67.75 43.6371L68.8217 43.6371L68.8217 45.255L67.75 45.255L67.75 43.6371ZM81.6785 43.6371L82.7502 43.6371L82.7502 45.255L81.6785 45.255L81.6785 43.6371ZM70.1609 43.3679L80.3393 43.3679L80.3393 46.0635L70.1609 46.0635L70.1609 43.3679ZM67.75 46.6028L68.8217 46.6028L68.8217 48.2207L67.75 48.2207L67.75 46.6028ZM81.6785 46.6028L82.7502 46.6028L82.7502 48.2207L81.6785 48.2207L81.6785 46.6028ZM70.1609 46.3336L80.3393 46.3336L80.3393 49.0292L70.1609 49.0292L70.1609 46.3336ZM67.75 49.5675L68.8217 49.5675L68.8217 51.1854L67.75 51.1854L67.75 49.5675ZM81.6785 49.5675L82.7502 49.5675L82.7502 51.1855L81.6785 51.1855L81.6785 49.5675ZM70.1609 49.2983L80.3393 49.2983L80.3393 51.9939L70.1609 51.9939L70.1609 49.2983ZM67.75 52.5332L68.8217 52.5332L68.8217 54.1512L67.75 54.1512L67.75 52.5332ZM81.6785 52.5332L82.7502 52.5332L82.7502 54.1512L81.6785 54.1512L81.6785 52.5332ZM70.1609 52.2641L80.3393 52.2641L80.3393 54.9596L70.1609 54.9596L70.1609 52.2641ZM67.75 55.499L68.8217 55.499L68.8217 57.1169L67.75 57.1169L67.75 55.499ZM81.6785 55.499L82.7502 55.499L82.7502 57.1169L81.6785 57.1169L81.6785 55.499ZM70.1609 55.2288L80.3393 55.2288L80.3393 57.9243L70.1609 57.9243L70.1609 55.2288ZM67.75 58.4637L68.8217 58.4637L68.8217 60.0816L67.75 60.0816L67.75 58.4637ZM81.6785 58.4637L82.7502 58.4637L82.7502 60.0816L81.6785 60.0816L81.6785 58.4637ZM70.1609 58.1945L80.3393 58.1945L80.3393 60.8901L70.1609 60.8901L70.1609 58.1945ZM67.75 61.4294L68.8217 61.4294L68.8217 63.0474L67.75 63.0474L67.75 61.4294ZM81.6785 61.4294L82.7502 61.4294L82.7502 63.0474L81.6785 63.0474L81.6785 61.4294ZM70.1609 61.1592L80.3393 61.1592L80.3393 63.8548L70.1609 63.8548L70.1609 61.1592ZM67.75 64.3941L68.8217 64.3941L68.8217 66.0121L67.75 66.0121L67.75 64.3941ZM81.6785 64.3941L82.7502 64.3941L82.7502 66.0121L81.6785 66.0121L81.6785 64.3941ZM70.1609 64.125L80.3393 64.125L80.3393 66.8205L70.1609 66.8205L70.1609 64.125ZM67.75 67.3598L68.8217 67.3598L68.8217 68.9778L67.75 68.9778L67.75 67.3598ZM81.6785 67.3598L82.7502 67.3598L82.7502 68.9778L81.6785 68.9778L81.6785 67.3598ZM70.1609 67.0907L80.3393 67.0907L80.3393 69.7862L70.1609 69.7862L70.1609 67.0907ZM67.75 70.3256L68.8217 70.3256L68.8217 71.9435L67.75 71.9435L67.75 70.3256ZM81.6785 70.3256L82.7502 70.3256L82.7502 71.9435L81.6785 71.9435L81.6785 70.3256ZM70.1609 70.0554L80.3393 70.0554L80.3393 72.7509L70.1609 72.7509L70.1609 70.0554Z" fill="#00E7F9" fill-opacity="0.2" stroke="#00448C" stroke-width="0.6"/>
<path d="M84.75 1L104 1L104 77.0626L98.8486 77.0626C92.4859 77.6736 90.0215 78.4415 88.6804 79.7512L84.75 79.7512L84.75 1Z" stroke="#00448C" stroke-width="0.6"/>
<path d="M87.5 1L100.75 1L100.75 7.00009L87.5 7.00009L87.5 1Z" stroke="#00448C" stroke-width="0.6"/>
<path d="M94 2.24609L95.25 2.24609L95.25 3.49611L94 3.49611L94 2.24609Z" fill="black" stroke="#00448C" stroke-width="0.6"/>
<path d="M91.7539 2.24609L93.2539 2.24609L93.2539 3.49611L91.7539 3.49611L91.7539 2.24609Z" fill="black" stroke="#00448C" stroke-width="0.6"/>
<path d="M96 2.24609L97.25 2.24609L97.25 3.49611L96 3.49611L96 2.24609Z" fill="black" stroke="#00448C" stroke-width="0.6"/>
<path d="M34.75 1L65.7505 1L65.7505 79.7512L34.75 79.7512L34.75 1Z" stroke="#00448C" stroke-width="0.6"/>
<path d="M37 1.99609L53.5003 1.99609L53.5003 7.74618L37 7.74618L37 1.99609Z" stroke="#00448C" stroke-width="0.6"/>
<path d="M41.25 3L43 3L43 4.75003L41.25 4.75003L41.25 3Z" fill="black" stroke="#00448C" stroke-width="0.6"/>
<path d="M43.75 3L45.5 3L45.5 4.75003L43.75 4.75003L43.75 3Z" fill="black" stroke="#00448C" stroke-width="0.6"/>
<path d="M46.25 3L48 3L48 4.75003L46.25 4.75003L46.25 3Z" fill="black" stroke="#00448C" stroke-width="0.6"/>
<path d="M37.5 11L63.2504 11L63.2504 48.2506L37.5 48.2506L37.5 11Z" stroke="#00448C" stroke-width="0.6"/>
<path d="M60.3022 17.25L40.706 17.25C40.1802 17.25 39.7539 17.6667 39.7539 18.1808L39.7539 45.3197C39.7539 45.8337 40.1802 46.2504 40.706 46.2504L60.3022 46.2504C60.828 46.2504 61.2542 45.8337 61.2542 45.3197L61.2542 18.1808C61.2542 17.6667 60.828 17.25 60.3022 17.25Z" stroke="#00448C" stroke-width="0.6"/>
<path d="M47.1592 53.9472C47.2063 53.3088 47.443 53.0544 48.1143 52.75L51.5232 52.75C52.2375 53.2342 52.3349 53.4927 52.3412 53.9472L52.3412 60.7312L58.8867 60.7312C59.5748 60.7516 59.9361 60.9508 60.2503 61.6618L60.2503 64.8541C59.9246 65.5498 59.646 65.7244 59.0229 65.7857L52.3412 65.7857L52.3412 72.5687C52.1328 73.0825 51.9348 73.2991 51.3871 73.5003L48.1143 73.5003C47.6011 73.3062 47.3917 73.104 47.1592 72.5697L47.1592 65.7847L40.2051 65.7847C39.561 65.5191 39.3401 65.2719 39.25 64.5875L39.25 61.9274C39.3369 61.2736 39.5139 60.9978 40.2051 60.7302L47.1592 60.7302L47.1592 53.9472Z" stroke="#00448C" stroke-width="0.6"/>
<path d="M49.8279 54.4961L48.6452 56.762L50.8794 56.762L49.8279 54.4961ZM49.8279 71.6866L48.6452 69.4218L50.8794 69.4218L49.8279 71.6866ZM58.5003 63.2914L56.2671 64.4909L56.2671 62.226L58.5003 63.2914ZM41.0243 63.2914L43.2585 64.4909L43.2585 62.226L41.0243 63.2914ZM40.3452 73.1818L40.3452 73.4674L39.2553 73.4674L39.2553 73.1818L40.3452 73.1818ZM39.3552 71.3826L39.3552 73.4674L39 73.4674L39 71.3826L39.3552 71.3826ZM40.2029 72.2525L40.2029 72.534L39.2543 72.534L39.2543 72.2536L40.2029 72.2525ZM40.3391 71.3826L40.3391 71.6692L39.2543 71.6692L39.2543 71.3826L40.3391 71.3826ZM41.7166 72.9301C41.7171 72.8909 41.7103 72.852 41.6964 72.8154C41.6824 72.7794 41.6595 72.7476 41.6298 72.7233C41.5887 72.6903 41.5432 72.6634 41.4946 72.6435C41.423 72.6114 41.3496 72.5841 41.2746 72.5616C41.1822 72.5334 41.0915 72.4995 41.0031 72.4603C40.9268 72.4256 40.855 72.3816 40.7892 72.3293C40.7276 72.283 40.6779 72.2224 40.6442 72.1526C40.6105 72.0828 40.5937 72.0058 40.5954 71.9281C40.5946 71.848 40.6125 71.7688 40.6478 71.6971C40.6831 71.6254 40.7346 71.5632 40.7983 71.5157C40.8682 71.4621 40.9472 71.4218 41.0314 71.397C41.1275 71.3673 41.2276 71.3528 41.328 71.354C41.4804 71.354 41.6116 71.3826 41.7216 71.4399C41.8326 71.4973 41.9184 71.574 41.9769 71.6702C42.0375 71.7674 42.0677 71.8739 42.0677 71.9895L41.7166 71.9895C41.7175 71.9263 41.7022 71.8638 41.6722 71.8084C41.6429 71.7539 41.5978 71.71 41.543 71.6825C41.4747 71.6495 41.3996 71.6337 41.324 71.6364C41.2524 71.6341 41.1812 71.6474 41.1151 71.6753C41.0645 71.697 41.0214 71.7333 40.991 71.7797C40.9638 71.8242 40.9498 71.8758 40.9506 71.9281C40.95 71.9657 40.959 72.0027 40.9769 72.0356C40.994 72.0663 41.0213 72.097 41.0576 72.1246C41.1011 72.155 41.1478 72.1804 41.1969 72.2004C41.2524 72.2239 41.318 72.2474 41.3926 72.2689C41.5067 72.3037 41.6066 72.3416 41.6903 72.3835C41.7751 72.4245 41.8457 72.4716 41.9022 72.5238C41.9579 72.5745 42.002 72.6369 42.0313 72.7068C42.0606 72.7766 42.0744 72.8522 42.0718 72.928C42.0729 73.0102 42.0549 73.0916 42.0193 73.1654C41.9837 73.2357 41.9326 73.2966 41.8699 73.3435C41.8 73.3953 41.7214 73.4338 41.6378 73.4571C41.5405 73.484 41.44 73.4971 41.3391 73.496C41.2402 73.4958 41.1418 73.482 41.0465 73.4551C40.954 73.4297 40.8664 73.3889 40.7872 73.3343C40.7069 73.28 40.6415 73.206 40.5968 73.1193C40.5522 73.0325 40.5299 72.9358 40.5318 72.8379L40.8861 72.8379C40.8843 72.8975 40.896 72.9567 40.9204 73.0109C40.9429 73.0572 40.9761 73.0972 41.0172 73.1276C41.0586 73.1583 41.107 73.1787 41.1615 73.1941C41.2889 73.2249 41.4222 73.22 41.547 73.1798C41.5984 73.16 41.6427 73.1251 41.6742 73.0795C41.7029 73.0352 41.7177 72.9831 41.7166 72.9301ZM43.5996 72.7888L43.9528 72.7888C43.9437 72.918 43.9046 73.0432 43.8387 73.1542C43.7734 73.261 43.6801 73.3475 43.5693 73.4039C43.4381 73.4686 43.2934 73.5002 43.1475 73.496C43.0296 73.498 42.9127 73.4746 42.8044 73.4274C42.7041 73.3818 42.6148 73.3144 42.543 73.2299C42.4676 73.1385 42.411 73.0327 42.3765 72.9188C42.3374 72.7871 42.3183 72.6501 42.32 72.5125L42.32 72.3385C42.32 72.1891 42.3402 72.054 42.3785 71.9322C42.4142 71.8185 42.4718 71.713 42.5481 71.6221C42.6198 71.5362 42.7099 71.4679 42.8115 71.4226C42.9219 71.3754 43.0408 71.352 43.1606 71.354C43.3241 71.354 43.4623 71.3847 43.5744 71.4461C43.6884 71.5075 43.7762 71.5914 43.8367 71.6989C43.9021 71.8125 43.9421 71.9393 43.9538 72.0704L43.6006 72.0704C43.5936 71.9904 43.5724 71.9124 43.538 71.8401C43.5085 71.7776 43.4601 71.7263 43.3998 71.6938C43.3256 71.6566 43.2433 71.639 43.1606 71.6426C43.0799 71.6426 43.0092 71.6569 42.9487 71.6876C42.8877 71.7188 42.8356 71.7653 42.7973 71.8227C42.754 71.8894 42.7232 71.9637 42.7065 72.0417C42.6863 72.1277 42.6762 72.2259 42.6762 72.3365L42.6762 72.5125C42.6762 72.6169 42.6853 72.7131 42.7025 72.7991C42.7183 72.8764 42.747 72.9505 42.7872 73.0181C42.8253 73.0794 42.8787 73.1294 42.9419 73.163C43.0052 73.1966 43.0761 73.2126 43.1475 73.2095C43.2484 73.2095 43.3291 73.1931 43.3917 73.1614C43.4529 73.1306 43.5028 73.0807 43.534 73.0191C43.5698 72.9471 43.592 72.8691 43.5996 72.7888Z" fill="black" stroke="#00448C" stroke-width="0.6"/>
<path d="M37.5 69.75L37.5 75.2501L44.7501 75.2501" stroke="#00448C" stroke-width="0.6"/>
<path d="M58.734 72.4468L58.734 72.5528C58.734 72.6999 58.7135 72.8318 58.6725 72.9493C58.6356 73.0583 58.5756 73.1593 58.496 73.2464C58.4216 73.3278 58.3282 73.3925 58.2231 73.4355C58.1114 73.4792 57.9913 73.501 57.8701 73.4995C57.7522 73.5036 57.6348 73.4831 57.5265 73.4394C57.4182 73.3958 57.3218 73.3302 57.2443 73.2473C57.1635 73.1597 57.1022 73.0581 57.0637 72.9483C57.0198 72.8209 56.9983 72.6876 57.0001 72.5538L57.0001 72.4468C57.0001 72.2996 57.0206 72.1678 57.0637 72.0522C57.1012 71.9429 57.1615 71.8416 57.2412 71.7542C57.3162 71.6731 57.4098 71.6088 57.5152 71.566C57.6262 71.5212 57.7461 71.4988 57.8671 71.5001C57.9963 71.5001 58.1133 71.522 58.22 71.566C58.3256 71.6083 58.4193 71.6727 58.4939 71.7542C58.5737 71.8414 58.6338 71.9428 58.6704 72.0522C58.7125 72.1678 58.734 72.2996 58.734 72.4468ZM58.3739 72.5528L58.3739 72.4439C58.3739 72.335 58.3626 72.2395 58.339 72.1573C58.3212 72.0819 58.2877 72.0106 58.2405 71.9471C58.2 71.892 58.1449 71.8476 58.0805 71.8182C58.014 71.7882 57.9409 71.7731 57.8671 71.7742C57.7935 71.773 57.7207 71.788 57.6547 71.8182C57.5911 71.8479 57.5364 71.8919 57.4957 71.9462C57.4488 72.0099 57.4151 72.0812 57.3961 72.1563C57.372 72.2502 57.3607 72.3465 57.3623 72.4429L57.3623 72.5528C57.3623 72.6617 57.3725 72.7582 57.3961 72.8423C57.4154 72.9181 57.4495 72.99 57.4967 73.0543C57.5418 73.1117 57.5952 73.1547 57.6578 73.1843C57.7193 73.2129 57.7911 73.2263 57.8701 73.2263C57.9438 73.2278 58.0168 73.2134 58.0835 73.1843C58.1469 73.1538 58.2012 73.1092 58.2415 73.0543C58.2876 72.9898 58.3206 72.9179 58.339 72.8423C58.3634 72.7478 58.3751 72.6499 58.3739 72.5528ZM59.4542 71.5268L59.4542 73.4728L59.0941 73.4728L59.0941 71.5268L59.4542 71.5268ZM60.71 71.5268L59.8636 72.463L59.3814 72.9397L59.3178 72.6063L59.6625 72.2108L60.2709 71.5268L60.71 71.5268ZM60.3222 73.4728L59.6348 72.5509L59.8831 72.3216L60.7501 73.4728L60.3222 73.4728Z" fill="black" stroke="#00448C" stroke-width="0.6"/>
<path d="M61.7509 69.5386L61.7509 75.1821L55.0311 75.1821M1 1L34.5909 1L34.5909 79.7512L0.999998 79.7512L1 1Z" stroke="#00448C" stroke-width="0.6"/>
<path d="M3.5 1.99609L20.0003 1.99609L20.0003 7.74618L3.5 7.74618L3.5 1.99609Z" stroke="#00448C" stroke-width="0.6"/>
<path d="M12.7539 3L14.2539 3L14.2539 4.75003L12.7539 4.75003L12.7539 3Z" fill="black" stroke="#00448C" stroke-width="0.6"/>
<path d="M12.7539 3L14.2539 3L14.2539 4.75003L12.7539 4.75003L12.7539 3Z" fill="black" stroke="#00448C" stroke-width="0.6"/>
<path d="M8.25 3L9.75002 3L9.75002 4.75003L8.25 4.75003L8.25 3Z" fill="black" stroke="#00448C" stroke-width="0.6"/>
<path d="M10.5 3L12 3L12 4.75003L10.5 4.75003L10.5 3Z" fill="black" stroke="#00448C" stroke-width="0.6"/>
</svg>
