<svg width="1920" height="1120" viewBox="0 0 1920 1120" fill="none" xmlns="http://www.w3.org/2000/svg">
<g clip-path="url(#clip0_2566_209)">
<mask id="mask0_2566_209" style="mask-type:luminance" maskUnits="userSpaceOnUse" x="0" y="0" width="1920" height="1120">
<path d="M1920 0H0V1120H1920V0Z" fill="white"/>
</mask>
<g mask="url(#mask0_2566_209)">
<path d="M1920 0H0V1120H1920V0Z" fill="url(#paint0_linear_2566_209)"/>
</g>
<mask id="mask1_2566_209" style="mask-type:luminance" maskUnits="userSpaceOnUse" x="155" y="270" width="652" height="753">
<path d="M481.03 270.973L643.603 364.884L806.177 458.795V646.616V834.438L643.603 928.348L481.03 1022.26L318.456 928.348L155.883 834.438V646.616V458.795L318.456 364.884L481.03 270.973Z" fill="white"/>
</mask>
<g mask="url(#mask1_2566_209)">
<path d="M806.177 270.973H155.883V1022.26H806.177V270.973Z" fill="url(#paint1_linear_2566_209)"/>
</g>
<mask id="mask2_2566_209" style="mask-type:luminance" maskUnits="userSpaceOnUse" x="0" y="0" width="603" height="654">
<path d="M0 0H537.956L602.173 37.0945V242.671V448.247L424.232 551.035L246.29 653.823L68.3487 551.035L0 511.553V0Z" fill="white"/>
</mask>
<g mask="url(#mask2_2566_209)">
<path d="M602.173 0H0V653.823H602.173V0Z" fill="url(#paint2_linear_2566_209)"/>
</g>
<mask id="mask3_2566_209" style="mask-type:luminance" maskUnits="userSpaceOnUse" x="0" y="348" width="383" height="752">
<path d="M0 1066.53V381.769L57.5866 348.504L220.16 442.415L382.733 536.326V724.147V911.969L220.16 1005.88L57.5866 1099.79L0 1066.53Z" fill="white"/>
</mask>
<g mask="url(#mask3_2566_209)">
<path d="M382.733 348.504H0V1099.79H382.733V348.504Z" fill="url(#paint3_linear_2566_209)"/>
</g>
<mask id="mask4_2566_209" style="mask-type:luminance" maskUnits="userSpaceOnUse" x="0" y="763" width="647" height="357">
<path d="M646.747 1120H0V949.374L159.026 857.513L321.6 763.602L484.173 857.513L646.747 951.423V1120Z" fill="white"/>
</mask>
<g mask="url(#mask4_2566_209)">
<path d="M646.747 763.602H0V1120H646.747V763.602Z" fill="url(#paint4_linear_2566_209)"/>
</g>
<path fill-rule="evenodd" clip-rule="evenodd" d="M564.458 37.0945V242.671V319.163V448.247L386.517 551.035L382.734 553.22V575.007L424.233 551.035L602.174 448.247V340.95V242.671V37.0945L537.957 0H500.241L564.458 37.0945Z" fill="#39D5FF"/>
<path fill-rule="evenodd" clip-rule="evenodd" d="M768.459 458.793V646.614V834.436L606.342 928.083L625.2 938.976L643.602 928.346L806.176 834.436V646.614V458.793L643.602 364.882L602.172 340.949V362.736L605.886 364.882L768.459 458.793Z" fill="#39D5FF"/>
<path fill-rule="evenodd" clip-rule="evenodd" d="M37.0143 382.809L162.217 455.133L199.588 476.72L362.161 570.631V586.888V758.452V787.029L382.733 798.913V724.147V575.005V553.218V536.326L220.16 442.415L202.197 432.038L57.5866 348.504L0 381.769V404.19L37.0143 382.809Z" fill="#39D5FF"/>
<path fill-rule="evenodd" clip-rule="evenodd" d="M177.428 846.883L159.026 857.512L0 949.374V979.91L159.026 888.048L203.858 862.15L321.6 794.137L382.733 829.451L484.173 888.048L598.771 954.245L646.747 981.959V951.423L625.201 938.978L606.343 928.084L484.173 857.512L382.733 798.915L362.161 787.032L321.6 763.602L177.428 846.883Z" fill="#5EFAF7"/>
<path d="M626.797 566L686.011 566L686.011 803.05L670.165 803.05C650.595 804.954 643.014 807.347 638.89 811.429L626.797 811.429L626.797 566Z" stroke="white" stroke-width="2"/>
<path d="M636.926 566L676.662 566L676.662 584.699L636.926 584.699L636.926 566Z" stroke="white" stroke-width="2"/>
<path d="M662.637 569.895L666.532 569.895L666.532 573.79L662.637 573.79L662.637 569.895Z" fill="black" stroke="white" stroke-width="2"/>
<path d="M655.625 569.895L659.521 569.895L659.521 573.79L655.625 573.79L655.625 569.895Z" fill="black" stroke="white" stroke-width="2"/>
<path d="M648.613 569.895L653.288 569.895L653.288 573.79L648.613 573.79L648.613 569.895Z" fill="black" stroke="white" stroke-width="2"/>
<path d="M633.027 597.222L636.367 597.222L636.367 602.264L633.027 602.264L633.027 597.222ZM676.436 597.222L679.776 597.222L679.776 602.264L676.436 602.264L676.436 597.222ZM640.541 596.383L672.262 596.383L672.262 604.784L640.541 604.784L640.541 596.383ZM633.027 606.461L636.367 606.461L636.367 611.503L633.027 611.503L633.027 606.461ZM676.436 606.461L679.776 606.461L679.776 611.503L676.436 611.503L676.436 606.461ZM640.541 605.622L672.262 605.622L672.262 614.023L640.541 614.023L640.541 605.622ZM633.027 615.704L636.367 615.704L636.367 620.746L633.027 620.746L633.027 615.704ZM676.436 615.704L679.776 615.704L679.776 620.746L676.436 620.746L676.436 615.704ZM640.541 614.865L672.262 614.865L672.262 623.266L640.541 623.266L640.541 614.865ZM633.027 624.947L636.367 624.947L636.367 629.989L633.027 629.989L633.027 624.947ZM676.436 624.947L679.776 624.947L679.776 629.989L676.436 629.989L676.436 624.947ZM640.541 624.105L672.262 624.105L672.262 632.505L640.541 632.505L640.541 624.105ZM633.027 634.186L636.367 634.186L636.367 639.228L633.027 639.228L633.027 634.186ZM676.436 634.186L679.776 634.186L679.776 639.228L676.436 639.228L676.436 634.186ZM640.541 633.347L672.262 633.347L672.262 641.748L640.541 641.748L640.541 633.347ZM633.027 643.429L636.367 643.429L636.367 648.471L633.027 648.471L633.027 643.429ZM676.436 643.429L679.776 643.429L679.776 648.471L676.436 648.471L676.436 643.429ZM640.541 642.587L672.262 642.587L672.262 650.988L640.541 650.988L640.541 642.587ZM633.027 652.668L636.367 652.668L636.367 657.711L633.027 657.711L633.027 652.668ZM676.436 652.668L679.776 652.668L679.776 657.711L676.436 657.711L676.436 652.668ZM640.541 651.83L672.262 651.83L672.262 660.23L640.541 660.23L640.541 651.83ZM633.027 661.911L636.367 661.911L636.367 666.953L633.027 666.953L633.027 661.911ZM676.436 661.911L679.776 661.911L679.776 666.953L676.436 666.953L676.436 661.911ZM640.541 661.072L672.262 661.072L672.262 669.473L640.541 669.473L640.541 661.072ZM633.027 671.154L636.367 671.154L636.367 676.196L633.027 676.196L633.027 671.154ZM676.436 671.154L679.776 671.154L679.776 676.196L676.436 676.196L676.436 671.154ZM640.541 670.312L672.262 670.312L672.262 678.713L640.541 678.713L640.541 670.312ZM633.027 680.393L636.367 680.393L636.367 685.436L633.027 685.436L633.027 680.393ZM676.436 680.393L679.776 680.393L679.776 685.436L676.436 685.436L676.436 680.393ZM640.541 679.555L672.262 679.555L672.262 687.955L640.541 687.955L640.541 679.555ZM633.027 689.636L636.367 689.636L636.367 694.678L633.027 694.678L633.027 689.636ZM676.436 689.636L679.776 689.636L679.776 694.678L676.436 694.678L676.436 689.636ZM640.541 688.794L672.262 688.794L672.262 697.195L640.541 697.195L640.541 688.794ZM633.027 698.876L636.367 698.876L636.367 703.918L633.027 703.918L633.027 698.876ZM676.436 698.876L679.776 698.876L679.776 703.918L676.436 703.918L676.436 698.876ZM640.541 698.037L672.262 698.037L672.262 706.438L640.541 706.438L640.541 698.037ZM633.027 708.118L636.367 708.118L636.367 713.161L633.027 713.161L633.027 708.118ZM676.436 708.118L679.776 708.118L679.776 713.161L676.436 713.161L676.436 708.118ZM640.541 707.28L672.262 707.28L672.262 715.68L640.541 715.68L640.541 707.28ZM633.027 717.358L636.367 717.358L636.367 722.4L633.027 722.4L633.027 717.358ZM676.436 717.358L679.776 717.358L679.776 722.4L676.436 722.4L676.436 717.358ZM640.541 716.519L672.262 716.519L672.262 724.92L640.541 724.92L640.541 716.519ZM633.027 726.601L636.367 726.601L636.367 731.643L633.027 731.643L633.027 726.601ZM676.436 726.601L679.776 726.601L679.776 731.643L676.436 731.643L676.436 726.601ZM640.541 725.762L672.262 725.762L672.262 734.163L640.541 734.163L640.541 725.762ZM633.027 735.843L636.367 735.843L636.367 740.886L633.027 740.886L633.027 735.843ZM676.436 735.843L679.776 735.843L679.776 740.886L676.436 740.886L676.436 735.843ZM640.541 735.001L672.262 735.001L672.262 743.402L640.541 743.402L640.541 735.001ZM633.027 745.083L636.367 745.083L636.367 750.125L633.027 750.125L633.027 745.083ZM676.436 745.083L679.776 745.083L679.776 750.125L676.436 750.125L676.436 745.083ZM640.541 744.244L672.262 744.244L672.262 752.645L640.541 752.645L640.541 744.244ZM633.027 754.326L636.367 754.326L636.367 759.368L633.027 759.368L633.027 754.326ZM676.436 754.326L679.776 754.326L679.776 759.368L676.436 759.368L676.436 754.326ZM640.541 753.484L672.262 753.484L672.262 761.884L640.541 761.884L640.541 753.484ZM633.027 763.565L636.367 763.565L636.367 768.608L633.027 768.608L633.027 763.565ZM676.436 763.565L679.776 763.565L679.776 768.608L676.436 768.608L676.436 763.565ZM640.541 762.726L672.262 762.726L672.262 771.127L640.541 771.127L640.541 762.726ZM633.027 772.808L636.367 772.808L636.367 777.85L633.027 777.85L633.027 772.808ZM676.436 772.808L679.776 772.808L679.776 777.85L676.436 777.85L676.436 772.808ZM640.541 771.969L672.262 771.969L672.262 780.37L640.541 780.37L640.541 771.969ZM633.027 782.051L636.367 782.051L636.367 787.093L633.027 787.093L633.027 782.051ZM676.436 782.051L679.776 782.051L679.776 787.093L676.436 787.093L676.436 782.051ZM640.541 781.209L672.262 781.209L672.262 789.609L640.541 789.609L640.541 781.209Z" fill="#00E7F9" fill-opacity="0.2" stroke="white" stroke-width="2"/>
<path d="M686.008 566L746.002 566L746.002 803.05L729.946 803.05C710.117 804.954 702.436 807.347 698.257 811.429L686.008 811.429L686.008 566Z" stroke="white" stroke-width="2"/>
<path d="M694.582 566L735.876 566L735.876 584.699L694.582 584.699L694.582 566Z" stroke="white" stroke-width="2"/>
<path d="M714.84 569.895L718.736 569.895L718.736 573.79L714.84 573.79L714.84 569.895Z" fill="black" stroke="white" stroke-width="2"/>
<path d="M707.828 569.895L712.503 569.895L712.503 573.79L707.828 573.79L707.828 569.895Z" fill="black" stroke="white" stroke-width="2"/>
<path d="M721.074 569.895L724.97 569.895L724.97 573.79L721.074 573.79L721.074 569.895Z" fill="black" stroke="white" stroke-width="2"/>
<path d="M530.184 566L626.797 566L626.797 811.429L530.184 811.429L530.184 566Z" stroke="white" stroke-width="2"/>
<path d="M537.199 569.113L588.622 569.113L588.622 587.033L537.199 587.033L537.199 569.113Z" stroke="white" stroke-width="2"/>
<path d="M550.441 572.234L555.895 572.234L555.895 577.688L550.441 577.688L550.441 572.234Z" fill="black" stroke="white" stroke-width="2"/>
<path d="M558.23 572.234L563.684 572.234L563.684 577.688L558.23 577.688L558.23 572.234Z" fill="black" stroke="white" stroke-width="2"/>
<path d="M566.02 572.234L571.474 572.234L571.474 577.688L566.02 577.688L566.02 572.234Z" fill="black" stroke="white" stroke-width="2"/>
<path d="M538.75 597.164L619.001 597.164L619.001 713.256L538.75 713.256L538.75 597.164Z" stroke="white" stroke-width="2"/>
<path d="M609.808 616.645L548.737 616.645C547.098 616.645 545.77 617.943 545.77 619.545L545.77 704.124C545.77 705.726 547.098 707.025 548.737 707.025L609.808 707.025C611.447 707.025 612.776 705.726 612.776 704.124L612.776 619.545C612.776 617.943 611.447 616.645 609.808 616.645Z" stroke="white" stroke-width="2"/>
<path d="M568.856 731.012C569.003 729.023 569.741 728.23 571.833 727.281L582.457 727.281C584.683 728.79 584.986 729.596 585.006 731.012L585.006 752.155L605.405 752.155C607.55 752.218 608.676 752.839 609.655 755.055L609.655 765.004C608.64 767.172 607.771 767.716 605.829 767.907L585.006 767.907L585.006 789.046C584.356 790.648 583.739 791.323 582.032 791.95L571.833 791.95C570.233 791.345 569.581 790.715 568.856 789.05L568.856 767.904L547.184 767.904C545.176 767.076 544.488 766.306 544.207 764.173L544.207 755.883C544.478 753.845 545.03 752.986 547.184 752.152L568.856 752.152L568.856 731.012Z" stroke="white" stroke-width="2"/>
<path d="M577.171 732.73L573.485 739.792L580.448 739.792L577.171 732.73ZM577.171 786.305L573.485 779.246L580.448 779.246L577.171 786.305ZM604.199 760.141L597.239 763.879L597.239 756.821L604.199 760.141ZM549.735 760.141L556.697 763.879L556.697 756.821L549.735 760.141ZM547.618 790.965L547.618 791.855L544.221 791.855L544.221 790.965L547.618 790.965ZM544.533 785.358L544.533 791.855L543.426 791.855L543.426 785.358L544.533 785.358ZM547.175 788.069L547.175 788.946L544.218 788.946L544.218 788.072L547.175 788.069ZM547.599 785.358L547.599 786.251L544.218 786.251L544.218 785.358L547.599 785.358ZM551.892 790.18C551.894 790.058 551.872 789.937 551.829 789.823C551.786 789.711 551.714 789.612 551.621 789.536C551.494 789.433 551.352 789.349 551.2 789.287C550.977 789.187 550.748 789.102 550.514 789.032C550.227 788.944 549.944 788.838 549.668 788.716C549.431 788.608 549.207 788.471 549.002 788.308C548.81 788.164 548.655 787.975 548.55 787.757C548.445 787.54 548.393 787.3 548.398 787.058C548.395 786.808 548.451 786.561 548.561 786.338C548.671 786.114 548.832 785.92 549.03 785.772C549.248 785.605 549.494 785.48 549.757 785.402C550.056 785.31 550.368 785.265 550.681 785.268C551.156 785.268 551.565 785.358 551.908 785.536C552.254 785.715 552.521 785.954 552.703 786.254C552.892 786.557 552.986 786.889 552.986 787.249L551.892 787.249C551.895 787.052 551.847 786.857 551.754 786.684C551.662 786.515 551.522 786.378 551.351 786.292C551.138 786.189 550.904 786.14 550.669 786.149C550.446 786.141 550.224 786.183 550.018 786.27C549.86 786.337 549.725 786.45 549.631 786.595C549.546 786.734 549.502 786.894 549.505 787.058C549.503 787.175 549.531 787.29 549.587 787.392C549.64 787.488 549.725 787.584 549.838 787.67C549.974 787.765 550.12 787.844 550.272 787.906C550.445 787.979 550.65 788.053 550.882 788.12C551.238 788.228 551.549 788.346 551.81 788.477C552.074 788.604 552.295 788.751 552.471 788.914C552.644 789.072 552.781 789.267 552.873 789.484C552.964 789.702 553.007 789.937 552.999 790.174C553.002 790.43 552.946 790.683 552.835 790.914C552.725 791.133 552.565 791.323 552.37 791.469C552.152 791.63 551.907 791.75 551.647 791.823C551.343 791.907 551.03 791.947 550.716 791.944C550.407 791.943 550.101 791.9 549.804 791.816C549.516 791.737 549.242 791.61 548.995 791.44C548.745 791.271 548.541 791.04 548.402 790.77C548.263 790.499 548.194 790.198 548.2 789.893L549.304 789.893C549.298 790.079 549.335 790.263 549.411 790.432C549.481 790.576 549.584 790.701 549.713 790.796C549.841 790.891 549.992 790.955 550.162 791.003C550.559 791.099 550.975 791.084 551.364 790.958C551.524 790.897 551.662 790.788 551.76 790.646C551.849 790.508 551.895 790.345 551.892 790.18ZM557.76 789.74L558.861 789.74C558.833 790.143 558.711 790.533 558.506 790.879C558.302 791.212 558.011 791.481 557.666 791.657C557.257 791.858 556.806 791.957 556.351 791.944C555.984 791.95 555.62 791.877 555.282 791.73C554.97 791.588 554.691 791.378 554.468 791.115C554.233 790.83 554.056 790.5 553.949 790.145C553.827 789.735 553.767 789.307 553.773 788.879L553.773 788.337C553.773 787.871 553.836 787.45 553.955 787.07C554.066 786.716 554.246 786.387 554.483 786.104C554.707 785.836 554.988 785.623 555.304 785.482C555.648 785.335 556.019 785.262 556.392 785.268C556.902 785.268 557.333 785.364 557.682 785.555C558.037 785.747 558.311 786.008 558.499 786.343C558.703 786.697 558.828 787.093 558.864 787.501L557.764 787.501C557.742 787.252 557.676 787.009 557.569 786.783C557.477 786.588 557.326 786.429 557.138 786.327C556.906 786.211 556.65 786.156 556.392 786.168C556.141 786.168 555.921 786.212 555.732 786.308C555.542 786.405 555.379 786.55 555.26 786.729C555.125 786.937 555.029 787.168 554.977 787.412C554.914 787.68 554.883 787.986 554.883 788.33L554.883 788.879C554.883 789.204 554.911 789.504 554.965 789.772C555.014 790.013 555.103 790.244 555.229 790.454C555.347 790.645 555.514 790.801 555.711 790.906C555.908 791.011 556.129 791.061 556.351 791.051C556.666 791.051 556.918 791 557.113 790.901C557.303 790.805 557.459 790.65 557.556 790.458C557.667 790.233 557.737 789.99 557.76 789.74Z" fill="black" stroke="white" stroke-width="2"/>
<path d="M538.75 780.262L538.75 797.403L561.345 797.403" stroke="white" stroke-width="2"/>
<path d="M604.931 788.669L604.931 789C604.931 789.458 604.867 789.869 604.74 790.235C604.625 790.575 604.438 790.89 604.19 791.161C603.958 791.415 603.667 791.617 603.339 791.751C602.991 791.887 602.617 791.955 602.239 791.95C601.872 791.963 601.506 791.899 601.168 791.763C600.831 791.627 600.53 791.422 600.289 791.164C600.037 790.891 599.846 790.575 599.726 790.232C599.589 789.835 599.522 789.42 599.528 789.003L599.528 788.669C599.528 788.211 599.592 787.8 599.726 787.44C599.843 787.099 600.031 786.783 600.279 786.511C600.513 786.258 600.805 786.058 601.133 785.924C601.479 785.785 601.853 785.715 602.23 785.719C602.632 785.719 602.997 785.787 603.329 785.924C603.659 786.056 603.951 786.257 604.183 786.511C604.432 786.783 604.619 787.099 604.733 787.44C604.864 787.8 604.931 788.211 604.931 788.669ZM603.809 789L603.809 788.66C603.809 788.321 603.774 788.023 603.7 787.767C603.645 787.532 603.541 787.31 603.393 787.112C603.267 786.94 603.095 786.802 602.895 786.71C602.687 786.617 602.46 786.57 602.23 786.573C602 786.57 601.774 786.616 601.568 786.71C601.369 786.803 601.199 786.94 601.072 787.109C600.926 787.308 600.821 787.53 600.762 787.764C600.687 788.057 600.651 788.357 600.656 788.657L600.656 789C600.656 789.339 600.688 789.64 600.762 789.902C600.822 790.138 600.928 790.362 601.075 790.563C601.216 790.742 601.382 790.875 601.577 790.968C601.769 791.057 601.993 791.099 602.239 791.099C602.469 791.104 602.696 791.059 602.904 790.968C603.102 790.873 603.271 790.734 603.397 790.563C603.54 790.362 603.643 790.138 603.7 789.902C603.776 789.608 603.813 789.303 603.809 789ZM607.176 785.802L607.176 791.867L606.054 791.867L606.054 785.802L607.176 785.802ZM611.09 785.802L608.452 788.72L606.949 790.206L606.751 789.167L607.825 787.934L609.721 785.802L611.09 785.802ZM609.881 791.867L607.739 788.994L608.513 788.279L611.214 791.867L609.881 791.867Z" fill="black" stroke="white" stroke-width="2"/>
<path d="M614.331 779.601L614.331 797.189L593.388 797.189M425 566L529.686 566L529.686 811.429L425 811.429L425 566Z" stroke="white" stroke-width="2"/>
<path d="M432.793 569.113L484.216 569.113L484.216 587.033L432.793 587.033L432.793 569.113Z" stroke="white" stroke-width="2"/>
<path d="M461.621 572.234L466.296 572.234L466.296 577.688L461.621 577.688L461.621 572.234Z" fill="black" stroke="white" stroke-width="2"/>
<path d="M461.621 572.234L466.296 572.234L466.296 577.688L461.621 577.688L461.621 572.234Z" fill="black" stroke="white" stroke-width="2"/>
<path d="M447.598 572.234L452.272 572.234L452.272 577.688L447.598 577.688L447.598 572.234Z" fill="black" stroke="white" stroke-width="2"/>
<path d="M454.605 572.234L459.28 572.234L459.28 577.688L454.605 577.688L454.605 572.234Z" fill="black" stroke="white" stroke-width="2"/>
<path d="M230.562 308.764H529.555M486.517 71V401.605M414.034 134.402V405" stroke="white" stroke-width="2" stroke-miterlimit="10"/>
<path d="M466.378 238.242V246.976M466.378 226.595V235.329M466.378 214.966V223.702M466.378 203.3V212.034M502.785 238.242V246.976M502.785 226.595V235.329M502.785 214.966V223.702M502.785 203.3V212.034M404.466 246.981H430.68M404.466 241.167H430.68M397.188 233.88H436.511M443.071 187.297H473.656V197.489H443.071V187.297ZM443.071 198.944H473.656V277.566H443.071V198.944ZM479.478 187.297H510.063V197.489H479.478V187.297ZM479.478 198.944H510.063V277.566H479.478V198.944ZM422.677 194.564H428.501V200.386H422.677V194.564Z" stroke="white" stroke-width="2"/>
<path d="M397.93 187.297H437.251V277.563H397.93V187.297Z" stroke="white" stroke-width="2"/>
<path d="M250.294 325.957L246.449 323.738V328.176L250.294 325.957ZM67.293 326.34H68.8178V325.572H67.293V326.34ZM71.8699 326.34H74.9196V325.572H71.8699V326.34ZM77.9694 326.34H81.0191V325.572H77.9694V326.34ZM84.0689 326.34H87.1186V325.572H84.0689V326.34ZM90.1684 326.34H93.2181V325.572H90.1684V326.34ZM96.2679 326.34H99.3176V325.572H96.2679V326.34ZM102.37 326.34H105.419V325.572H102.37V326.34ZM108.469 326.34H111.519V325.572H108.469V326.34ZM114.569 326.34H117.618V325.572H114.569V326.34ZM120.668 326.34H123.718V325.572H120.668V326.34ZM126.768 326.34H129.817V325.572H126.768V326.34ZM132.869 326.34H135.919V325.572H132.869V326.34ZM138.969 326.34H142.019V325.572H138.969V326.34ZM145.068 326.34H148.118V325.572H145.068V326.34ZM151.168 326.34H154.218V325.572H151.168V326.34ZM157.267 326.34H160.317V325.572H157.267V326.34ZM163.369 326.34H166.419V325.572H163.369V326.34ZM169.469 326.34H172.518V325.572H169.469V326.34ZM175.568 326.34H178.618V325.572H175.568V326.34ZM181.668 326.34H184.717V325.572H181.668V326.34ZM187.767 326.34H190.819V325.572H187.767V326.34ZM193.869 326.34H196.919V325.572H193.869V326.34ZM199.969 326.34H203.018V325.572H199.969V326.34ZM206.068 326.34H209.118V325.572H206.068V326.34ZM212.167 326.34H215.217V325.572H212.167V326.34ZM218.267 326.34H221.319V325.572H218.267V326.34ZM224.369 326.34H227.419V325.572H224.369V326.34ZM230.468 326.34H233.518V325.572H230.468V326.34ZM236.568 326.34H239.618V325.572H236.568V326.34ZM242.667 326.34H245.717V325.572H242.667V326.34Z" fill="white"/>
<path d="M196.468 186.46V178.773H225.303V186.46L235.298 192.993L234.913 240.266L211.462 271.784L186.473 240.266V192.993L196.468 186.46Z" fill="#D9D9D9" stroke="white" stroke-width="2"/>
<path d="M314.304 186.46V178.773H343.139V186.46L353.134 192.993L352.749 240.266L329.298 271.784L304.309 240.266V192.993L314.304 186.46Z" fill="#D9D9D9" stroke="white" stroke-width="2"/>
<path d="M81.9016 186.46V178.773H110.734V186.46L120.73 192.993L120.347 240.266L96.8935 271.784L71.9062 240.266V192.993L81.9016 186.46Z" fill="#D9D9D9" stroke="white" stroke-width="2"/>
<path d="M47.6836 178.773H61.5244V240.268H47.6836V178.773Z" stroke="white" stroke-width="2"/>
<path d="M49.6055 186.07H51.9123V232.19H49.6055V186.07ZM52.6827 186.07H56.5282V232.19H52.6827V186.07ZM57.294 186.07H59.6008V232.19H57.294V186.07Z" fill="white"/>
<path d="M166.246 178.773H180.087V240.268H166.246V178.773Z" stroke="white" stroke-width="2"/>
<path d="M168.164 186.07H170.471V232.19H168.164V186.07ZM171.241 186.07H175.087V232.19H171.241V186.07ZM175.853 186.07H178.159V232.19H175.853V186.07Z" fill="white"/>
<path d="M282.199 178.773H296.04V240.268H282.199V178.773Z" stroke="white" stroke-width="2"/>
<path d="M284.121 186.07H286.428V232.19H284.121V186.07ZM287.196 186.07H291.041V232.19H287.196V186.07ZM291.81 186.07H294.116V232.19H291.81V186.07Z" fill="white"/>
<mask id="path-56-inside-1_2566_209" fill="white">
<path d="M53.8368 253.671H53.4516V254.054H53.8368V253.671ZM53.8368 240.987L51.6172 244.832H56.0565L53.8368 240.987ZM81.5162 253.286H53.8368V254.054H81.5162V253.286ZM54.2198 253.671V244.446H53.4516V253.671H54.2198ZM170.323 254.054H169.941V254.439H170.323V254.054ZM170.323 241.372L168.106 245.214H172.543L170.323 241.372ZM198.005 253.671H170.323V254.439H198.005V253.671ZM170.709 254.054V244.832H169.941V254.054H170.709ZM288.736 254.054H288.351V254.439H288.736V254.054ZM288.736 241.372L286.517 245.214H290.956L288.736 241.372ZM315.395 253.671H288.736V254.439H316.006L315.395 253.671ZM289.119 254.054V244.832H288.351V254.054H289.119ZM79.2094 166.811L75.3639 169.03V164.592L79.2094 166.811ZM54.2198 166.811H53.8368V166.426H54.2198V166.811ZM54.2198 176.418L52.0001 172.576H56.4395L54.2198 176.418ZM53.8368 172.815V170.412H54.605V172.815H53.8368ZM53.8368 168.012V166.811H54.605V168.012H53.8368ZM54.2198 166.426H55.7813V167.194H54.2198V166.426ZM58.9068 166.426H62.0299V167.194H58.9068V166.426ZM65.153 166.426H68.2762V167.194H65.153V166.426ZM71.3993 166.426H74.5247V167.194H71.3993V166.426ZM128.803 183.722H129.189V183.337H128.803V183.722ZM128.803 275.194H128.42V275.577H128.803V275.194ZM183.396 275.194V275.577H183.781V275.194H183.396ZM183.396 255.592L181.176 259.436H185.616L183.396 255.592ZM110.734 184.105H128.803V183.337H110.734V184.105ZM128.42 183.722V275.194H129.189V183.722H128.42ZM128.803 275.577H183.396V274.809H128.803V275.577ZM183.781 275.194V259.049H183.011V275.192L183.781 275.194ZM242.985 183.722H243.371V183.337H242.985V183.722ZM242.985 275.194H242.6V275.577H242.985V275.194ZM300.653 275.194V275.577H301.038V275.194H300.653ZM300.653 255.207L298.434 259.051H302.873L300.653 255.207ZM225.461 184.105H242.985V183.337H225.461V184.105ZM242.6 183.722V275.194H243.371V183.722H242.6ZM242.985 275.577H300.653V274.809H242.985V275.577ZM301.038 275.194V258.666H300.268V275.194H301.038ZM96.1252 97.2445V96.8594H95.7399V97.2445H96.1252ZM143.027 97.2445H143.412V96.8594H143.027V97.2445ZM143.027 191.791H142.642V192.176H143.027V191.791ZM159.943 191.791L156.1 189.572V194.012L159.943 191.791ZM96.5081 124.148V97.2445H95.7399V124.148H96.5081ZM96.1252 97.6296H143.027V96.8594H96.1252V97.6296ZM142.642 97.2445V191.791H143.412V97.2445H142.642ZM143.027 192.176H156.483V191.408H143.027V192.176Z"/>
</mask>
<path d="M53.8368 253.671H55.8368V251.671H53.8368V253.671ZM53.4516 254.054H51.4516V256.054H53.4516V254.054ZM53.8368 240.987L55.5689 239.987L53.8368 236.988L52.1048 239.987L53.8368 240.987ZM51.6172 244.832L49.8852 243.832L48.153 246.832H51.6172V244.832ZM56.0565 244.832V246.832H59.5208L57.7885 243.832L56.0565 244.832ZM81.5162 253.286H83.5162V251.286H81.5162V253.286ZM53.8368 253.286V251.286H51.8368V253.286H53.8368ZM81.5162 254.054V256.054H83.5162V254.054H81.5162ZM54.2198 253.671V255.671H56.2198V253.671H54.2198ZM54.2198 244.446H56.2198V242.446H54.2198V244.446ZM53.4516 244.446V242.446H51.4516V244.446H53.4516ZM170.323 254.054H172.323V252.054H170.323V254.054ZM169.941 254.439H167.941V256.439H169.941V254.439ZM170.323 241.372L172.055 240.372L170.323 237.373L168.591 240.373L170.323 241.372ZM168.106 245.214L166.374 244.215L164.643 247.214H168.106V245.214ZM172.543 245.214V247.214H176.008L174.275 244.214L172.543 245.214ZM198.005 253.671H200.005V251.671H198.005V253.671ZM170.323 253.671V251.671H168.323V253.671H170.323ZM198.005 254.439V256.439H200.005V254.439H198.005ZM170.709 254.054V256.054H172.709V254.054H170.709ZM170.709 244.832H172.709V242.832H170.709V244.832ZM169.941 244.832V242.832H167.941V244.832H169.941ZM288.736 254.054H290.736V252.054H288.736V254.054ZM288.351 254.439H286.351V256.439H288.351V254.439ZM288.736 241.372L290.468 240.372L288.736 237.374L287.005 240.372L288.736 241.372ZM286.517 245.214L284.785 244.214L283.051 247.214H286.517V245.214ZM290.956 245.214V247.214H294.421L292.688 244.214L290.956 245.214ZM315.395 253.671L316.961 252.426L316.36 251.671H315.395V253.671ZM288.736 253.671V251.671H286.736V253.671H288.736ZM316.006 254.439V256.439H320.151L317.571 253.194L316.006 254.439ZM289.119 254.054V256.054H291.119V254.054H289.119ZM289.119 244.832H291.119V242.832H289.119V244.832ZM288.351 244.832V242.832H286.351V244.832H288.351ZM79.2094 166.811L80.209 168.543L83.2109 166.811L80.209 165.079L79.2094 166.811ZM75.3639 169.03H73.3639V172.493L76.3635 170.762L75.3639 169.03ZM75.3639 164.592L76.3636 162.86L73.3639 161.129V164.592H75.3639ZM54.2198 166.811V168.811H56.2198V166.811H54.2198ZM53.8368 166.426V164.426H51.8368V166.426H53.8368ZM54.2198 176.418L52.488 177.419L54.2198 180.416L55.9515 177.419L54.2198 176.418ZM52.0001 172.576V170.576H48.5349L50.2684 173.577L52.0001 172.576ZM56.4395 172.576L58.1712 173.577L59.9047 170.576H56.4395V172.576ZM53.8368 172.815H51.8368V174.815H53.8368V172.815ZM53.8368 170.412V168.412H51.8368V170.412H53.8368ZM54.605 170.412H56.605V168.412H54.605V170.412ZM54.605 172.815V174.815H56.605V172.815H54.605ZM53.8368 168.012H51.8368V170.012H53.8368V168.012ZM54.605 166.811H56.605V164.811H54.605V166.811ZM54.605 168.012V170.012H56.605V168.012H54.605ZM55.7813 166.426H57.7813V164.426H55.7813V166.426ZM55.7813 167.194V169.194H57.7813V167.194H55.7813ZM54.2198 167.194H52.2198V169.194H54.2198V167.194ZM58.9068 166.426V164.426H56.9068V166.426H58.9068ZM62.0299 166.426H64.0299V164.426H62.0299V166.426ZM62.0299 167.194V169.194H64.0299V167.194H62.0299ZM58.9068 167.194H56.9068V169.194H58.9068V167.194ZM65.153 166.426V164.426H63.153V166.426H65.153ZM68.2762 166.426H70.2762V164.426H68.2762V166.426ZM68.2762 167.194V169.194H70.2762V167.194H68.2762ZM65.153 167.194H63.153V169.194H65.153V167.194ZM71.3993 166.426V164.426H69.3993V166.426H71.3993ZM74.5247 166.426H76.5247V164.426H74.5247V166.426ZM74.5247 167.194V169.194H76.5247V167.194H74.5247ZM71.3993 167.194H69.3993V169.194H71.3993V167.194ZM128.803 183.722H126.803V185.722H128.803V183.722ZM129.189 183.337H131.189V181.337H129.189V183.337ZM128.803 275.194H130.803V273.194H128.803V275.194ZM128.42 275.577H126.42V277.577H128.42V275.577ZM183.396 275.194V273.194H181.396V275.194H183.396ZM183.781 275.577V277.577H185.781V275.577H183.781ZM183.396 255.592L185.128 254.592L183.396 251.592L181.664 254.592L183.396 255.592ZM181.176 259.436L179.444 258.436L177.712 261.436H181.176V259.436ZM185.616 259.436V261.436H189.08L187.348 258.436L185.616 259.436ZM110.734 184.105H108.734V186.105H110.734V184.105ZM128.803 184.105V186.105H130.803V184.105H128.803ZM110.734 183.337V181.337H108.734V183.337H110.734ZM128.42 183.722V181.722H126.42V183.722H128.42ZM129.189 275.194V277.194H131.189V275.194H129.189ZM183.396 274.809H185.396V272.809H183.396V274.809ZM128.803 274.809V272.809H126.803V274.809H128.803ZM183.781 259.049H185.781V257.049H183.781V259.049ZM183.011 259.049V257.049H181.011V259.049H183.011ZM183.011 275.192H181.011V277.186L183.005 277.192L183.011 275.192ZM242.985 183.722H240.985V185.722H242.985V183.722ZM243.371 183.337H245.371V181.337H243.371V183.337ZM242.985 275.194H244.985V273.194H242.985V275.194ZM242.6 275.577H240.6V277.577H242.6V275.577ZM300.653 275.194V273.194H298.653V275.194H300.653ZM301.038 275.577V277.577H303.038V275.577H301.038ZM300.653 255.207L302.385 254.207L300.653 251.207L298.921 254.207L300.653 255.207ZM298.434 259.051L296.702 258.051L294.969 261.051H298.434V259.051ZM302.873 259.051V261.051H306.337L304.605 258.051L302.873 259.051ZM225.461 184.105H223.461V186.105H225.461V184.105ZM242.985 184.105V186.105H244.985V184.105H242.985ZM225.461 183.337V181.337H223.461V183.337H225.461ZM242.6 183.722V181.722H240.6V183.722H242.6ZM243.371 275.194V277.194H245.371V275.194H243.371ZM300.653 274.809H302.653V272.809H300.653V274.809ZM242.985 274.809V272.809H240.985V274.809H242.985ZM301.038 258.666H303.038V256.666H301.038V258.666ZM300.268 258.666V256.666H298.268V258.666H300.268ZM300.268 275.194H298.268V277.194H300.268V275.194ZM96.1252 97.2445V99.2445H98.1252V97.2445H96.1252ZM95.7399 96.8594V94.8594H93.7399V96.8594H95.7399ZM143.027 97.2445H141.027V99.2445H143.027V97.2445ZM143.412 96.8594H145.412V94.8594H143.412V96.8594ZM143.027 191.791H145.027V189.791H143.027V191.791ZM142.642 192.176H140.642V194.176H142.642V192.176ZM159.943 191.791L160.944 193.522L163.941 191.79L160.943 190.059L159.943 191.791ZM156.1 189.572L157.1 187.84L154.1 186.108V189.572H156.1ZM156.1 194.012H154.1V197.478L157.101 195.744L156.1 194.012ZM96.5081 124.148V126.148H98.5081V124.148H96.5081ZM96.5081 97.2445H98.5081V95.2445H96.5081V97.2445ZM95.7399 124.148H93.7399V126.148H95.7399V124.148ZM96.1252 97.6296H94.1252V99.6296H96.1252V97.6296ZM143.027 97.6296V99.6296H145.027V97.6296H143.027ZM142.642 97.2445V95.2445H140.642V97.2445H142.642ZM143.412 191.791V193.791H145.412V191.791H143.412ZM156.483 192.176V194.176H158.483V192.176H156.483ZM156.483 191.408H158.483V189.408H156.483V191.408ZM143.027 191.408V189.408H141.027V191.408H143.027ZM53.8368 253.671V251.671H53.4516V253.671V255.671H53.8368V253.671ZM53.4516 253.671H51.4516V254.054H53.4516H55.4516V253.671H53.4516ZM53.4516 254.054V256.054H53.8368V254.054V252.054H53.4516V254.054ZM53.8368 254.054H55.8368V253.671H53.8368H51.8368V254.054H53.8368ZM53.8368 240.987L52.1048 239.987L49.8852 243.832L51.6172 244.832L53.3492 245.832L55.5689 241.987L53.8368 240.987ZM51.6172 244.832V246.832H56.0565V244.832V242.832H51.6172V244.832ZM56.0565 244.832L57.7885 243.832L55.5689 239.987L53.8368 240.987L52.1048 241.987L54.3245 245.832L56.0565 244.832ZM81.5162 253.286V251.286H53.8368V253.286V255.286H81.5162V253.286ZM53.8368 253.286H51.8368V254.054H53.8368H55.8368V253.286H53.8368ZM53.8368 254.054V256.054H81.5162V254.054V252.054H53.8368V254.054ZM81.5162 254.054H83.5162V253.286H81.5162H79.5162V254.054H81.5162ZM54.2198 253.671H56.2198V244.446H54.2198H52.2198V253.671H54.2198ZM54.2198 244.446V242.446H53.4516V244.446V246.446H54.2198V244.446ZM53.4516 244.446H51.4516V253.671H53.4516H55.4516V244.446H53.4516ZM53.4516 253.671V255.671H54.2198V253.671V251.671H53.4516V253.671ZM170.323 254.054V252.054H169.941V254.054V256.054H170.323V254.054ZM169.941 254.054H167.941V254.439H169.941H171.941V254.054H169.941ZM169.941 254.439V256.439H170.323V254.439V252.439H169.941V254.439ZM170.323 254.439H172.323V254.054H170.323H168.323V254.439H170.323ZM170.323 241.372L168.591 240.373L166.374 244.215L168.106 245.214L169.838 246.214L172.056 242.372L170.323 241.372ZM168.106 245.214V247.214H172.543V245.214V243.214H168.106V245.214ZM172.543 245.214L174.275 244.214L172.055 240.372L170.323 241.372L168.592 242.373L170.811 246.215L172.543 245.214ZM198.005 253.671V251.671H170.323V253.671V255.671H198.005V253.671ZM170.323 253.671H168.323V254.439H170.323H172.323V253.671H170.323ZM170.323 254.439V256.439H198.005V254.439V252.439H170.323V254.439ZM198.005 254.439H200.005V253.671H198.005H196.005V254.439H198.005ZM170.709 254.054H172.709V244.832H170.709H168.709V254.054H170.709ZM170.709 244.832V242.832H169.941V244.832V246.832H170.709V244.832ZM169.941 244.832H167.941V254.054H169.941H171.941V244.832H169.941ZM169.941 254.054V256.054H170.709V254.054V252.054H169.941V254.054ZM288.736 254.054V252.054H288.351V254.054V256.054H288.736V254.054ZM288.351 254.054H286.351V254.439H288.351H290.351V254.054H288.351ZM288.351 254.439V256.439H288.736V254.439V252.439H288.351V254.439ZM288.736 254.439H290.736V254.054H288.736H286.736V254.439H288.736ZM288.736 241.372L287.005 240.372L284.785 244.214L286.517 245.214L288.248 246.215L290.468 242.373L288.736 241.372ZM286.517 245.214V247.214H290.956V245.214V243.214H286.517V245.214ZM290.956 245.214L292.688 244.214L290.468 240.372L288.736 241.372L287.005 242.373L289.224 246.215L290.956 245.214ZM315.395 253.671V251.671H288.736V253.671V255.671H315.395V253.671ZM288.736 253.671H286.736V254.439H288.736H290.736V253.671H288.736ZM288.736 254.439V256.439H316.006V254.439V252.439H288.736V254.439ZM316.006 254.439L317.571 253.194L316.961 252.426L315.395 253.671L313.83 254.916L314.44 255.683L316.006 254.439ZM289.119 254.054H291.119V244.832H289.119H287.119V254.054H289.119ZM289.119 244.832V242.832H288.351V244.832V246.832H289.119V244.832ZM288.351 244.832H286.351V254.054H288.351H290.351V244.832H288.351ZM288.351 254.054V256.054H289.119V254.054V252.054H288.351V254.054ZM79.2094 166.811L78.2098 165.079L74.3643 167.298L75.3639 169.03L76.3635 170.762L80.209 168.543L79.2094 166.811ZM75.3639 169.03H77.3639V164.592H75.3639H73.3639V169.03H75.3639ZM75.3639 164.592L74.3643 166.324L78.2098 168.543L79.2094 166.811L80.209 165.079L76.3636 162.86L75.3639 164.592ZM54.2198 166.811V164.811H53.8368V166.811V168.811H54.2198V166.811ZM53.8368 166.811H55.8368V166.426H53.8368H51.8368V166.811H53.8368ZM53.8368 166.426V168.426H54.2198V166.426V164.426H53.8368V166.426ZM54.2198 166.426H52.2198V166.811H54.2198H56.2198V166.426H54.2198ZM54.2198 176.418L55.9515 175.418L53.7319 171.576L52.0001 172.576L50.2684 173.577L52.488 177.419L54.2198 176.418ZM52.0001 172.576V174.576H56.4395V172.576V170.576H52.0001V172.576ZM56.4395 172.576L54.7077 171.576L52.488 175.418L54.2198 176.418L55.9515 177.419L58.1712 173.577L56.4395 172.576ZM53.8368 172.815H55.8368V170.412H53.8368H51.8368V172.815H53.8368ZM53.8368 170.412V172.412H54.605V170.412V168.412H53.8368V170.412ZM54.605 170.412H52.605V172.815H54.605H56.605V170.412H54.605ZM54.605 172.815V170.815H53.8368V172.815V174.815H54.605V172.815ZM53.8368 168.012H55.8368V166.811H53.8368H51.8368V168.012H53.8368ZM53.8368 166.811V168.811H54.605V166.811V164.811H53.8368V166.811ZM54.605 166.811H52.605V168.012H54.605H56.605V166.811H54.605ZM54.605 168.012V166.012H53.8368V168.012V170.012H54.605V168.012ZM54.2198 166.426V168.426H55.7813V166.426V164.426H54.2198V166.426ZM55.7813 166.426H53.7813V167.194H55.7813H57.7813V166.426H55.7813ZM55.7813 167.194V165.194H54.2198V167.194V169.194H55.7813V167.194ZM54.2198 167.194H56.2198V166.426H54.2198H52.2198V167.194H54.2198ZM58.9068 166.426V168.426H62.0299V166.426V164.426H58.9068V166.426ZM62.0299 166.426H60.0299V167.194H62.0299H64.0299V166.426H62.0299ZM62.0299 167.194V165.194H58.9068V167.194V169.194H62.0299V167.194ZM58.9068 167.194H60.9068V166.426H58.9068H56.9068V167.194H58.9068ZM65.153 166.426V168.426H68.2762V166.426V164.426H65.153V166.426ZM68.2762 166.426H66.2762V167.194H68.2762H70.2762V166.426H68.2762ZM68.2762 167.194V165.194H65.153V167.194V169.194H68.2762V167.194ZM65.153 167.194H67.153V166.426H65.153H63.153V167.194H65.153ZM71.3993 166.426V168.426H74.5247V166.426V164.426H71.3993V166.426ZM74.5247 166.426H72.5247V167.194H74.5247H76.5247V166.426H74.5247ZM74.5247 167.194V165.194H71.3993V167.194V169.194H74.5247V167.194ZM71.3993 167.194H73.3993V166.426H71.3993H69.3993V167.194H71.3993ZM128.803 183.722V185.722H129.189V183.722V181.722H128.803V183.722ZM129.189 183.722H131.189V183.337H129.189H127.189V183.722H129.189ZM129.189 183.337V181.337H128.803V183.337V185.337H129.189V183.337ZM128.803 183.337H126.803V183.722H128.803H130.803V183.337H128.803ZM128.803 275.194V273.194H128.42V275.194V277.194H128.803V275.194ZM128.42 275.194H126.42V275.577H128.42H130.42V275.194H128.42ZM128.42 275.577V277.577H128.803V275.577V273.577H128.42V275.577ZM128.803 275.577H130.803V275.194H128.803H126.803V275.577H128.803ZM183.396 275.194H181.396V275.577H183.396H185.396V275.194H183.396ZM183.396 275.577V277.577H183.781V275.577V273.577H183.396V275.577ZM183.781 275.577H185.781V275.194H183.781H181.781V275.577H183.781ZM183.781 275.194V273.194H183.396V275.194V277.194H183.781V275.194ZM183.396 255.592L181.664 254.592L179.444 258.436L181.176 259.436L182.908 260.436L185.128 256.592L183.396 255.592ZM181.176 259.436V261.436H185.616V259.436V257.436H181.176V259.436ZM185.616 259.436L187.348 258.436L185.128 254.592L183.396 255.592L181.664 256.592L183.884 260.436L185.616 259.436ZM110.734 184.105V186.105H128.803V184.105V182.105H110.734V184.105ZM128.803 184.105H130.803V183.337H128.803H126.803V184.105H128.803ZM128.803 183.337V181.337H110.734V183.337V185.337H128.803V183.337ZM110.734 183.337H108.734V184.105H110.734H112.734V183.337H110.734ZM128.42 183.722H126.42V275.194H128.42H130.42V183.722H128.42ZM128.42 275.194V277.194H129.189V275.194V273.194H128.42V275.194ZM129.189 275.194H131.189V183.722H129.189H127.189V275.194H129.189ZM129.189 183.722V181.722H128.42V183.722V185.722H129.189V183.722ZM128.803 275.577V277.577H183.396V275.577V273.577H128.803V275.577ZM183.396 275.577H185.396V274.809H183.396H181.396V275.577H183.396ZM183.396 274.809V272.809H128.803V274.809V276.809H183.396V274.809ZM128.803 274.809H126.803V275.577H128.803H130.803V274.809H128.803ZM183.781 275.194H185.781V259.049H183.781H181.781V275.194H183.781ZM183.781 259.049V257.049H183.011V259.049V261.049H183.781V259.049ZM183.011 259.049H181.011V275.192H183.011H185.011V259.049H183.011ZM183.011 275.192L183.005 277.192L183.775 277.194L183.781 275.194L183.787 273.194L183.017 273.192L183.011 275.192ZM242.985 183.722V185.722H243.371V183.722V181.722H242.985V183.722ZM243.371 183.722H245.371V183.337H243.371H241.371V183.722H243.371ZM243.371 183.337V181.337H242.985V183.337V185.337H243.371V183.337ZM242.985 183.337H240.985V183.722H242.985H244.985V183.337H242.985ZM242.985 275.194V273.194H242.6V275.194V277.194H242.985V275.194ZM242.6 275.194H240.6V275.577H242.6H244.6V275.194H242.6ZM242.6 275.577V277.577H242.985V275.577V273.577H242.6V275.577ZM242.985 275.577H244.985V275.194H242.985H240.985V275.577H242.985ZM300.653 275.194H298.653V275.577H300.653H302.653V275.194H300.653ZM300.653 275.577V277.577H301.038V275.577V273.577H300.653V275.577ZM301.038 275.577H303.038V275.194H301.038H299.038V275.577H301.038ZM301.038 275.194V273.194H300.653V275.194V277.194H301.038V275.194ZM300.653 255.207L298.921 254.207L296.702 258.051L298.434 259.051L300.166 260.051L302.385 256.207L300.653 255.207ZM298.434 259.051V261.051H302.873V259.051V257.051H298.434V259.051ZM302.873 259.051L304.605 258.051L302.385 254.207L300.653 255.207L298.921 256.207L301.141 260.051L302.873 259.051ZM225.461 184.105V186.105H242.985V184.105V182.105H225.461V184.105ZM242.985 184.105H244.985V183.337H242.985H240.985V184.105H242.985ZM242.985 183.337V181.337H225.461V183.337V185.337H242.985V183.337ZM225.461 183.337H223.461V184.105H225.461H227.461V183.337H225.461ZM242.6 183.722H240.6V275.194H242.6H244.6V183.722H242.6ZM242.6 275.194V277.194H243.371V275.194V273.194H242.6V275.194ZM243.371 275.194H245.371V183.722H243.371H241.371V275.194H243.371ZM243.371 183.722V181.722H242.6V183.722V185.722H243.371V183.722ZM242.985 275.577V277.577H300.653V275.577V273.577H242.985V275.577ZM300.653 275.577H302.653V274.809H300.653H298.653V275.577H300.653ZM300.653 274.809V272.809H242.985V274.809V276.809H300.653V274.809ZM242.985 274.809H240.985V275.577H242.985H244.985V274.809H242.985ZM301.038 275.194H303.038V258.666H301.038H299.038V275.194H301.038ZM301.038 258.666V256.666H300.268V258.666V260.666H301.038V258.666ZM300.268 258.666H298.268V275.194H300.268H302.268V258.666H300.268ZM300.268 275.194V277.194H301.038V275.194V273.194H300.268V275.194ZM96.1252 97.2445H98.1252V96.8594H96.1252H94.1252V97.2445H96.1252ZM96.1252 96.8594V94.8594H95.7399V96.8594V98.8594H96.1252V96.8594ZM95.7399 96.8594H93.7399V97.2445H95.7399H97.7399V96.8594H95.7399ZM95.7399 97.2445V99.2445H96.1252V97.2445V95.2445H95.7399V97.2445ZM143.027 97.2445V99.2445H143.412V97.2445V95.2445H143.027V97.2445ZM143.412 97.2445H145.412V96.8594H143.412H141.412V97.2445H143.412ZM143.412 96.8594V94.8594H143.027V96.8594V98.8594H143.412V96.8594ZM143.027 96.8594H141.027V97.2445H143.027H145.027V96.8594H143.027ZM143.027 191.791V189.791H142.642V191.791V193.791H143.027V191.791ZM142.642 191.791H140.642V192.176H142.642H144.642V191.791H142.642ZM142.642 192.176V194.176H143.027V192.176V190.176H142.642V192.176ZM143.027 192.176H145.027V191.791H143.027H141.027V192.176H143.027ZM159.943 191.791L160.943 190.059L157.1 187.84L156.1 189.572L155.1 191.304L158.943 193.523L159.943 191.791ZM156.1 189.572H154.1V194.012H156.1H158.1V189.572H156.1ZM156.1 194.012L157.101 195.744L160.944 193.522L159.943 191.791L158.942 190.059L155.099 192.281L156.1 194.012ZM96.5081 124.148H98.5081V97.2445H96.5081H94.5081V124.148H96.5081ZM96.5081 97.2445V95.2445H95.7399V97.2445V99.2445H96.5081V97.2445ZM95.7399 97.2445H93.7399V124.148H95.7399H97.7399V97.2445H95.7399ZM95.7399 124.148V126.148H96.5081V124.148V122.148H95.7399V124.148ZM96.1252 97.6296V99.6296H143.027V97.6296V95.6296H96.1252V97.6296ZM143.027 97.6296H145.027V96.8594H143.027H141.027V97.6296H143.027ZM143.027 96.8594V94.8594H96.1252V96.8594V98.8594H143.027V96.8594ZM96.1252 96.8594H94.1252V97.6296H96.1252H98.1252V96.8594H96.1252ZM142.642 97.2445H140.642V191.791H142.642H144.642V97.2445H142.642ZM142.642 191.791V193.791H143.412V191.791V189.791H142.642V191.791ZM143.412 191.791H145.412V97.2445H143.412H141.412V191.791H143.412ZM143.412 97.2445V95.2445H142.642V97.2445V99.2445H143.412V97.2445ZM143.027 192.176V194.176H156.483V192.176V190.176H143.027V192.176ZM156.483 192.176H158.483V191.408H156.483H154.483V192.176H156.483ZM156.483 191.408V189.408H143.027V191.408V193.408H156.483V191.408ZM143.027 191.408H141.027V192.176H143.027H145.027V191.408H143.027Z" fill="white" mask="url(#path-56-inside-1_2566_209)"/>
<path d="M96.1273 124.582L84.0117 140.723V186.511M96.1273 124.582L108.43 140.723L108.43 186.511" stroke="white" stroke-width="2"/>
<path d="M342.865 97.6758L342.406 97.9404V97.4102L342.865 97.6758Z" stroke="white" stroke-width="2"/>
<path d="M329.105 124.195L316.418 140.338V186.509M329.105 124.195L341.408 140.338V186.509" stroke="white" stroke-width="2"/>
<path d="M273.275 192.22L272.817 192.484V191.955L273.275 192.22Z" fill="white" stroke="white" stroke-width="2"/>
<path d="M211.458 124.195L198.219 140.338V186.509M211.458 124.195L223.763 140.338V186.509" stroke="white" stroke-width="2"/>
<path d="M62.2129 309.062L61.3701 309.549V308.574L62.2129 309.062ZM27.8457 227.301L27.001 226.813L27.8457 226.326V227.301ZM145.487 227.301L144.643 226.813L145.487 226.326V227.301ZM43.7607 193.761L42.916 194.249V193.273L43.7607 193.761ZM362.854 183L362.395 183.266V182.734L362.854 183Z" stroke="white" stroke-width="2"/>
<mask id="path-64-inside-2_2566_209" fill="white">
<path d="M67.3074 254.219L65.9531 257.24H68.6617L67.3074 254.219ZM67.3074 325.544L68.6617 322.521H65.9531L67.3074 325.544ZM67.0738 256.937V322.824H67.5425V256.939L67.0738 256.937Z"/>
</mask>
<path d="M67.3074 254.219L69.1324 253.401L67.3074 249.329L65.4824 253.401L67.3074 254.219ZM65.9531 257.24L64.1281 256.422L62.8648 259.24H65.9531V257.24ZM68.6617 257.24V259.24H71.75L70.4867 256.422L68.6617 257.24ZM67.3074 325.544L65.4822 326.362L67.3074 330.436L69.1326 326.362L67.3074 325.544ZM68.6617 322.521L70.4869 323.339L71.7492 320.521H68.6617V322.521ZM65.9531 322.521V320.521H62.8656L64.1279 323.339L65.9531 322.521ZM67.0738 256.937L67.0815 254.937L65.0738 254.929V256.937H67.0738ZM67.0738 322.824H65.0738V324.824H67.0738V322.824ZM67.5425 322.824V324.824H69.5425V322.824H67.5425ZM67.5425 256.939H69.5425V254.947L67.5501 254.939L67.5425 256.939ZM67.3074 254.219L65.4824 253.401L64.1281 256.422L65.9531 257.24L67.7782 258.058L69.1324 255.037L67.3074 254.219ZM65.9531 257.24V259.24H68.6617V257.24V255.24H65.9531V257.24ZM68.6617 257.24L70.4867 256.422L69.1324 253.401L67.3074 254.219L65.4824 255.037L66.8367 258.058L68.6617 257.24ZM67.3074 325.544L69.1326 326.362L70.4869 323.339L68.6617 322.521L66.8365 321.704L65.4822 324.727L67.3074 325.544ZM68.6617 322.521V320.521H65.9531V322.521V324.521H68.6617V322.521ZM65.9531 322.521L64.1279 323.339L65.4822 326.362L67.3074 325.544L69.1326 324.727L67.7783 321.704L65.9531 322.521ZM67.0738 256.937H65.0738V322.824H67.0738H69.0738V256.937H67.0738ZM67.0738 322.824V324.824H67.5425V322.824V320.824H67.0738V322.824ZM67.5425 322.824H69.5425V256.939H67.5425H65.5425V322.824H67.5425ZM67.5425 256.939L67.5501 254.939L67.0815 254.937L67.0738 256.937L67.0661 258.937L67.5348 258.939L67.5425 256.939Z" fill="white" mask="url(#path-64-inside-2_2566_209)"/>
<path d="M96.8945 271.398V299.457H329.134V271.832M211.46 271.398V299.457" stroke="white" stroke-width="2"/>
<g filter="url(#filter0_d_2566_209)">
<g filter="url(#filter1_d_2566_209)">
<path d="M267.081 766.175H232.562C232.055 766.171 231.554 766.079 231.088 765.906C230.621 765.733 230.199 765.482 229.844 765.167C229.49 764.852 229.21 764.479 229.021 764.069C228.832 763.66 228.737 763.222 228.743 762.78C228.743 760.91 230.444 759.389 232.562 759.389H267.081C269.009 759.376 286.325 758.796 286.325 742.383V563.799C286.287 562.067 285.644 546.789 267.081 546.789H44.9194C42.9534 546.802 25.6373 547.385 25.6373 563.799V742.383C25.6751 744.111 26.3178 759.396 44.9194 759.396H144.695C146.813 759.396 148.514 760.913 148.514 762.787C148.514 764.657 146.813 766.178 144.695 766.178H44.9194C23.5956 766.178 18 750.614 18 742.386V563.795C18 544.975 35.5808 540 44.9194 540H267.081C288.367 540 294 555.564 294 563.795V742.38C294 761.197 276.381 766.168 267.081 766.168V766.175Z" fill="white"/>
</g>
<g filter="url(#filter2_d_2566_209)">
<path d="M262.434 699.368H239.446C237.329 699.368 235.628 697.85 235.628 695.976C235.628 694.106 237.329 692.585 239.446 692.585H258.577V572.009H53.3164V692.592H92.2969C94.4142 692.592 96.1152 694.109 96.1152 695.983C96.1152 697.853 94.4142 699.374 92.2969 699.374L49.4978 699.371C47.3805 699.371 45.6791 697.853 45.6791 695.976V568.614C45.6791 566.744 47.3805 565.223 49.4978 565.223H262.434C264.551 565.223 266.252 566.741 266.252 568.614V695.976C266.252 697.85 264.551 699.368 262.434 699.368ZM258.426 743.392C250.789 743.392 244.588 737.9 244.588 731.147C244.588 724.388 250.789 718.892 258.426 718.892C266.101 718.892 272.302 724.388 272.302 731.147C272.302 737.9 266.101 743.392 258.426 743.392ZM258.426 725.675C255.023 725.675 252.263 728.131 252.263 731.151C252.263 734.163 255.023 736.613 258.426 736.613C261.867 736.613 264.627 734.163 264.627 731.151C264.633 730.436 264.478 729.728 264.169 729.066C263.861 728.404 263.406 727.802 262.83 727.293C262.254 726.784 261.569 726.38 260.813 726.102C260.057 725.825 259.246 725.679 258.426 725.675ZM118.082 733.413H46.8135C44.6963 733.413 42.957 731.891 42.957 730.018C42.957 728.148 44.6963 726.627 46.8135 726.627H118.082C120.199 726.627 121.938 728.144 121.938 730.018C121.901 731.891 120.199 733.413 118.082 733.413Z" fill="white"/>
</g>
<g filter="url(#filter3_d_2566_209)">
<path d="M216.448 784.196C215.941 784.192 215.44 784.101 214.974 783.928C214.508 783.755 214.085 783.504 213.731 783.188C213.376 782.873 213.096 782.5 212.907 782.09C212.718 781.681 212.624 781.243 212.629 780.802V738.891C212.629 737.992 213.008 737.129 213.726 736.491C217.469 733.201 219.51 728.756 219.51 723.979V679.684C219.51 679.526 219.51 679.368 219.548 679.213C219.51 678.838 218.944 677.439 217.998 676.609C217.167 675.76 215.843 675.302 214.558 675.302C213.877 675.302 212.024 675.819 211.117 676.626C210.468 677.353 209.969 678.173 209.642 679.049V685.347C209.642 687.797 207.487 689.796 204.841 689.796C204.174 689.796 203.514 689.68 202.898 689.456C202.283 689.232 201.725 688.903 201.257 688.489C200.789 688.075 200.42 687.584 200.172 687.045C199.924 686.505 199.802 685.928 199.812 685.347V673.172C199.812 673.03 199.85 672.895 199.85 672.757C199.926 672.246 199.283 670.85 198.565 670.284C197.355 669.24 196.22 668.799 194.897 668.799C194.746 668.799 194.595 668.793 194.406 668.773C193.876 668.74 192.516 669.168 191.457 670.11C190.474 670.87 189.945 672.026 189.945 673.168V683.665C189.945 685.953 187.789 687.889 185.181 687.889C182.421 687.889 180.152 685.996 180.152 683.665V668.763C180.152 667.433 179.699 666.396 178.678 665.503C177.714 664.796 176.498 664.401 175.237 664.387C175.085 664.387 174.934 664.378 174.783 664.361C174.292 664.341 172.78 664.739 171.57 665.665C170.776 666.392 170.322 667.377 170.284 667.63V680.31C170.284 682.799 168.091 684.752 165.294 684.752C162.647 684.752 160.492 682.76 160.492 680.31V634.122C160.492 632.957 160 631.926 159.017 631.063C158.574 630.645 158.036 630.312 157.437 630.084C156.839 629.856 156.193 629.739 155.539 629.74C155.387 629.741 155.236 629.732 155.085 629.713C154.518 629.651 153.157 630.122 152.098 631.06C151.115 631.932 150.624 632.966 150.624 634.125V704.043C150.624 706.532 148.431 708.484 145.596 708.484C144.348 708.484 143.403 707.997 142.836 707.595L125.481 697.415C122.759 695.768 117.769 695.215 115.16 696.233C114.955 696.318 114.739 696.384 114.517 696.427C114.403 696.49 113.534 697.029 113.043 697.546C112.967 697.648 112.853 697.744 112.778 697.836C112.513 698.07 112.022 698.877 111.946 699.357C111.833 700.743 112.853 702.495 115.046 704.293L155.01 735.299C156.447 736.557 159.622 738.69 162.382 739.803C163.743 740.356 164.613 741.561 164.613 742.885V780.805C164.613 782.675 162.874 784.196 160.757 784.196C158.639 784.196 156.938 782.678 156.938 780.805V744.933C154.065 743.487 151.267 741.587 149.754 740.241L109.904 709.321C104.838 705.152 104.082 701.139 104.347 698.498C104.725 696.476 105.859 694.428 107.182 693.177C108.392 691.903 110.434 690.464 112.324 689.931C117.353 688.08 124.952 688.877 129.754 691.788L142.949 699.532V634.129C142.949 631.188 144.272 628.396 146.692 626.269C148.809 624.409 152.363 622.697 155.766 622.97C159.017 623.02 162.08 624.188 164.424 626.263C166.844 628.386 168.167 631.182 168.167 634.129V659.508C170.246 658.319 172.931 657.397 175.426 657.608C178.489 657.657 181.476 658.691 183.895 660.541C185.294 661.76 186.315 663.11 186.958 664.572C188.961 663.093 192.1 661.773 195.124 662.026C198.376 662.079 201.438 663.248 203.782 665.335C205.408 666.573 206.693 668.644 207.261 670.732C209.68 669.244 212.554 668.526 214.558 668.526C218.112 668.526 221.515 669.833 223.632 672.016C225.522 673.672 227.45 677.057 227.186 679.875V723.986C227.186 730.08 224.728 735.796 220.305 740.238V780.805C220.305 782.678 218.565 784.2 216.448 784.2V784.196Z" fill="white"/>
</g>
<g filter="url(#filter4_d_2566_209)">
<path d="M182.8 634.635C180.682 634.635 178.943 633.114 178.943 631.241C178.943 620.02 168.622 610.893 155.956 610.893C143.252 610.893 132.931 620.02 132.931 631.241C132.936 631.682 132.841 632.12 132.652 632.529C132.463 632.939 132.184 633.312 131.829 633.627C131.474 633.942 131.052 634.194 130.586 634.367C130.119 634.54 129.619 634.631 129.112 634.635C128.605 634.631 128.104 634.54 127.638 634.367C127.172 634.194 126.749 633.942 126.394 633.627C126.04 633.312 125.76 632.939 125.571 632.529C125.382 632.12 125.288 631.682 125.293 631.241C125.293 616.283 139.056 604.113 155.956 604.113C172.856 604.113 186.618 616.283 186.618 631.241C186.618 633.117 184.917 634.635 182.8 634.635Z" fill="white"/>
</g>
</g>
<path d="M425.029 1069H220.961C220.701 1069 220.444 1068.94 220.204 1068.81C219.964 1068.69 219.747 1068.51 219.565 1068.28C219.381 1068.05 219.237 1067.78 219.14 1067.48C219.043 1067.19 218.995 1066.87 219 1066.55V930.468C219.001 926.631 220.239 922.952 222.442 920.239C224.645 917.525 227.633 916.001 230.749 916H300.664C301.185 916 301.685 916.255 302.054 916.709C302.423 917.163 302.63 917.779 302.63 918.421C302.63 919.063 302.423 919.679 302.054 920.133C301.685 920.587 301.185 920.842 300.664 920.842H230.749C228.68 920.84 226.695 921.848 225.23 923.646C223.765 925.444 222.938 927.884 222.932 930.432V1063.16C222.932 1063.71 223.38 1064.16 223.932 1064.16H422.098C422.65 1064.16 423.098 1063.71 423.098 1063.16V930.468C423.089 927.922 422.262 925.484 420.797 923.686C419.332 921.889 417.349 920.88 415.281 920.879H345.336C344.813 920.878 344.312 920.622 343.942 920.166C343.573 919.711 343.365 919.093 343.365 918.449C343.369 917.807 343.578 917.194 343.947 916.741C344.316 916.289 344.815 916.035 345.336 916.034H415.281C418.388 916.041 421.365 917.564 423.562 920.27C425.758 922.975 426.994 926.643 427 930.468V1066.55C427.004 1066.87 426.957 1067.19 426.86 1067.49C426.762 1067.79 426.618 1068.06 426.434 1068.29C426.25 1068.52 426.031 1068.7 425.79 1068.82C425.549 1068.94 425.29 1069 425.029 1069Z" fill="white"/>
<path d="M425.211 1086H220.789C216.335 1085.99 212.065 1083.62 208.918 1079.43C205.771 1075.23 204.002 1069.54 204 1063.61C204.006 1062.92 204.213 1062.27 204.577 1061.78C204.942 1061.29 205.435 1061.01 205.951 1061H440.049C441.118 1061.02 441.99 1062.17 442 1063.61C441.997 1069.54 440.229 1075.23 437.081 1079.43C433.934 1083.62 429.665 1085.99 425.211 1086ZM209.747 1066.25C208.852 1066.25 208.151 1067.03 208.32 1067.91C208.969 1071.3 210.388 1074.37 212.398 1076.67C214.732 1079.35 217.708 1080.82 220.787 1080.83H425.208C428.289 1080.82 431.266 1079.34 433.603 1076.67C435.616 1074.37 437.041 1071.31 437.7 1067.91C437.871 1067.03 437.17 1066.25 436.273 1066.25H209.747Z" fill="white"/>
<path d="M258.976 1064C258.577 1064.01 258.186 1063.87 257.856 1063.6C257.525 1063.34 257.272 1062.97 257.13 1062.53C257.035 1062.24 256.992 1061.93 257.001 1061.62C257.008 1061.41 257.04 1061.2 257.095 1061C257.145 1060.81 257.207 1060.64 257.268 1060.46C258.199 1057.73 267.145 1034.76 286.302 1040.05C287.04 1040.26 287.838 1039.92 288.215 1039.25C289.248 1037.43 290.604 1035.88 292.194 1034.71C293.763 1033.55 295.517 1032.8 297.341 1032.5C298.064 1032.37 298.655 1031.82 298.796 1031.1C299.263 1028.73 300.277 1026.54 301.736 1024.78C303.26 1023.11 305.191 1022.06 307.244 1021.76C307.845 1021.68 308.384 1021.31 308.618 1020.75C313.306 1009.54 320.207 1009.33 323.595 1009C324.649 1009 325.674 1009 325.914 1010.36C326.156 1011.72 325.915 1013.2 324.838 1013.2C324.835 1013.2 324.832 1013.2 324.832 1013.2V1013.2C324.832 1013.19 324.83 1013.19 324.827 1013.19C322.017 1013.2 319.278 1014.23 316.991 1016.14C314.76 1018.01 313.066 1020.63 312.132 1023.64C312.084 1023.8 312.068 1023.96 312.06 1024.12C312.048 1024.37 312.004 1024.61 311.929 1024.84C311.829 1025.15 311.676 1025.43 311.48 1025.67C311.272 1025.89 311.026 1026.07 310.758 1026.17C310.489 1026.28 310.205 1026.31 309.923 1026.28C308.956 1026.09 307.965 1026.14 307.016 1026.43C306.104 1026.71 305.253 1027.21 304.514 1027.9C304.454 1027.95 304.399 1028.01 304.35 1028.08C303.011 1029.93 302.287 1032.28 302.315 1034.7C302.325 1035.05 302.269 1035.4 302.151 1035.72C302.032 1036.04 301.854 1036.33 301.63 1036.56C301.396 1036.78 301.123 1036.93 300.832 1037.01C300.541 1037.09 300.239 1037.1 299.947 1037.03C293.895 1035.39 290.492 1043.69 290.336 1044.06C290.139 1044.57 289.786 1044.98 289.347 1045.19C288.908 1045.41 288.416 1045.42 287.968 1045.23C269.069 1037.85 261.082 1061.66 260.793 1062.46C260.66 1062.9 260.415 1063.29 260.09 1063.56C259.766 1063.84 259.377 1063.99 258.976 1064Z" fill="white"/>
<path d="M391.987 1064C392.394 1064 392.791 1063.85 393.126 1063.58C393.461 1063.31 393.718 1062.93 393.863 1062.49C393.963 1062.19 394.009 1061.87 393.999 1061.55C393.992 1061.33 393.959 1061.12 393.9 1060.91C393.848 1060.72 393.784 1060.55 393.721 1060.37C392.763 1057.56 383.511 1033.91 363.691 1039.4C362.954 1039.6 362.157 1039.26 361.781 1038.6C360.728 1036.73 359.346 1035.13 357.721 1033.93C356.115 1032.74 354.316 1031.95 352.443 1031.63C351.724 1031.5 351.141 1030.94 351.005 1030.23C350.539 1027.76 349.484 1025.49 347.953 1023.68C346.389 1021.95 344.391 1020.87 342.266 1020.58C341.663 1020.49 341.12 1020.12 340.884 1019.56C336.023 1008.02 328.882 1007.8 325.388 1007.47C324.301 1007.47 323.271 1007.47 322.993 1008.86C322.722 1010.26 322.992 1011.78 324.104 1011.79C324.107 1011.79 324.11 1011.78 324.11 1011.78V1011.78C324.11 1011.78 324.112 1011.77 324.116 1011.77C327.019 1011.79 329.847 1012.85 332.211 1014.82C334.512 1016.73 336.263 1019.41 337.239 1022.5C337.294 1022.67 337.308 1022.85 337.314 1023.03C337.322 1023.28 337.365 1023.53 337.441 1023.76C337.545 1024.08 337.709 1024.37 337.92 1024.6C338.129 1024.83 338.377 1025.01 338.65 1025.12C338.922 1025.23 339.211 1025.26 339.497 1025.23C340.498 1025.03 341.524 1025.08 342.506 1025.38C343.452 1025.67 344.336 1026.19 345.101 1026.9C345.159 1026.95 345.211 1027.01 345.258 1027.07C346.656 1028.96 347.404 1031.39 347.355 1033.89C347.344 1034.25 347.406 1034.61 347.534 1034.94C347.662 1035.27 347.853 1035.57 348.094 1035.8C348.333 1036.02 348.611 1036.17 348.908 1036.25C349.204 1036.34 349.512 1036.34 349.811 1036.27C356.061 1034.6 359.596 1043.12 359.737 1043.51C359.944 1044.03 360.313 1044.45 360.77 1044.67C361.226 1044.89 361.738 1044.91 362.203 1044.71C381.722 1037.13 389.97 1061.59 390.269 1062.42C390.391 1062.85 390.619 1063.23 390.924 1063.51C391.23 1063.79 391.599 1063.96 391.987 1064ZM333.025 981.694H314.913C314.397 981.664 313.911 981.403 313.555 980.966C313.199 980.53 313 979.95 313 979.347C313 978.744 313.199 978.165 313.555 977.728C313.911 977.291 314.397 977.03 314.913 977H333.025C334.132 977 335.042 978.062 335.042 979.356C335.039 979.977 334.825 980.572 334.447 981.01C334.069 981.448 333.558 981.694 333.025 981.694Z" fill="white"/>
<path d="M334.527 981.743C334.134 981.732 333.751 981.596 333.419 981.349C332.998 980.999 332.706 980.47 332.605 979.872C332.503 979.275 332.599 978.653 332.872 978.137C339.633 966.334 344.012 941.034 344.012 913.777C344.012 883.695 332.445 857.726 326.795 847.071C326.245 846.034 324.793 846.042 324.25 847.083C318.69 857.753 307.011 883.769 307.011 913.777C307.011 941.091 311.378 966.388 318.117 978.132C318.119 978.135 318.122 978.137 318.125 978.137V978.137C318.128 978.137 318.131 978.138 318.133 978.141C318.481 978.661 318.63 979.318 318.539 979.982C318.499 980.304 318.403 980.613 318.257 980.889C318.111 981.165 317.918 981.402 317.691 981.585C317.462 981.77 317.203 981.897 316.93 981.958C316.657 982.019 316.377 982.013 316.106 981.94C315.836 981.867 315.581 981.728 315.357 981.533C315.134 981.337 314.947 981.09 314.809 980.805C307.529 967.904 303 942.159 303 913.611C303 872.812 323.048 840.307 323.916 838.924C324.106 838.636 324.349 838.404 324.626 838.243C324.904 838.083 325.208 838 325.517 838C325.825 838 326.13 838.083 326.407 838.243C326.684 838.404 326.927 838.636 327.117 838.924C327.955 840.307 348 872.812 348 913.608C348 942.156 343.494 967.904 336.191 980.772C336.001 981.081 335.75 981.33 335.46 981.499C335.17 981.668 334.85 981.753 334.527 981.743Z" fill="white"/>
<path d="M341.704 881.636C341.576 881.652 341.448 881.658 341.32 881.651C341.209 881.645 341.102 881.616 340.998 881.578L330.142 877.587C330.139 877.585 330.137 877.582 330.137 877.578V877.578C330.137 877.575 330.134 877.571 330.131 877.57C327.416 876.536 324.511 876.536 321.796 877.572L310.787 881.621C310.784 881.623 310.781 881.626 310.781 881.63V881.63C310.781 881.633 310.779 881.637 310.776 881.638C310.527 881.768 310.258 881.831 309.987 881.823C309.715 881.815 309.447 881.736 309.201 881.59C308.953 881.447 308.733 881.239 308.555 880.982C308.377 880.725 308.246 880.423 308.17 880.098C308.091 879.778 308.068 879.44 308.103 879.107C308.138 878.775 308.23 878.455 308.372 878.17C308.514 877.88 308.704 877.632 308.93 877.44C309.156 877.249 309.412 877.119 309.682 877.06L320.719 872.939C324.145 871.687 327.79 871.687 331.216 872.939L342.234 877.026C342.655 877.205 343.013 877.56 343.246 878.03C343.478 878.501 343.571 879.056 343.508 879.602C343.446 880.148 343.231 880.649 342.902 881.02C342.572 881.392 342.149 881.609 341.704 881.636ZM295.516 988.694C295.09 988.665 294.683 988.462 294.361 988.116C294.038 987.771 293.817 987.302 293.733 986.784C283.63 924.511 304.721 914.06 305.616 913.633C306.09 913.447 306.602 913.494 307.049 913.762C307.495 914.031 307.841 914.502 308.016 915.077C308.19 915.652 308.179 916.288 307.985 916.854C307.838 917.283 307.595 917.647 307.287 917.904C307.097 918.064 306.862 918.156 306.651 918.287C304.429 919.66 291.733 929.991 295.626 971.244C295.774 972.818 298.007 973.124 298.639 971.674C301.351 965.447 305.142 958.895 309.701 956.114C309.929 955.968 310.179 955.88 310.435 955.855C310.692 955.83 310.949 955.87 311.193 955.971C311.686 956.174 312.093 956.61 312.326 957.184C312.559 957.758 312.598 958.424 312.435 959.034C312.353 959.337 312.221 959.617 312.049 959.857C311.877 960.096 311.668 960.29 311.434 960.428C303.277 965.421 297.557 986.845 297.508 987.071C297.369 987.577 297.097 988.011 296.736 988.304C296.376 988.598 295.946 988.737 295.516 988.694ZM356.415 988.612C356.381 988.663 356.323 988.695 356.262 988.692C355.888 988.671 355.526 988.514 355.223 988.239C354.935 987.977 354.712 987.62 354.581 987.211C354.544 987.095 354.524 986.988 354.494 986.87C353.988 984.857 348.355 965.153 340.577 960.391C340.156 960.082 339.845 959.587 339.707 959.006C339.569 958.424 339.615 957.8 339.835 957.258C340.055 956.716 340.432 956.298 340.891 956.085C341.35 955.873 341.857 955.884 342.31 956.114C346.882 958.9 350.647 965.482 353.358 971.723C353.986 973.171 356.204 972.866 356.353 971.295C360.619 926.318 345.163 918.204 345.007 918.114C344.759 917.996 344.532 917.817 344.341 917.587C344.15 917.358 343.999 917.083 343.896 916.779C343.793 916.475 343.741 916.148 343.743 915.819C343.745 915.489 343.801 915.164 343.908 914.862C344.088 914.275 344.448 913.8 344.91 913.539C345.371 913.279 345.897 913.253 346.373 913.468C347.288 913.883 368.379 924.334 358.259 986.62C358.174 987.14 357.953 987.611 357.628 987.958C357.327 988.28 356.953 988.478 356.558 988.527C356.501 988.534 356.448 988.564 356.415 988.612V988.612ZM325.968 1012C325.452 1012 324.958 1011.74 324.594 1011.29C324.229 1010.84 324.024 1010.23 324.022 1009.59V986.296C324.022 985.658 324.227 985.046 324.592 984.594C324.957 984.143 325.452 983.889 325.968 983.889C326.484 983.889 326.978 984.143 327.343 984.594C327.708 985.046 327.913 985.658 327.913 986.296V1009.59C327.913 1010.91 327.038 1012 325.968 1012ZM318.784 1000.9C318.529 1000.9 318.276 1000.84 318.04 1000.72C317.804 1000.6 317.589 1000.42 317.409 1000.2C317.228 999.974 317.085 999.71 316.987 999.418C316.889 999.127 316.838 998.814 316.838 998.498V986.296C316.838 985.66 317.043 985.049 317.407 984.599C317.771 984.148 318.264 983.895 318.779 983.895C319.293 983.895 319.787 984.148 320.151 984.599C320.515 985.049 320.719 985.66 320.719 986.296V998.498C320.719 999.133 320.515 999.743 320.152 1000.19C319.789 1000.64 319.297 1000.9 318.784 1000.9ZM332.814 1000.9C332.299 1000.9 331.805 1000.64 331.44 1000.2C331.076 999.746 330.87 999.135 330.869 998.498V986.296C330.836 985.959 330.861 985.618 330.942 985.294C331.024 984.97 331.16 984.672 331.342 984.418C331.525 984.164 331.748 983.962 331.999 983.823C332.249 983.685 332.52 983.614 332.794 983.615C333.07 983.611 333.342 983.681 333.594 983.818C333.846 983.956 334.071 984.159 334.255 984.413C334.438 984.668 334.575 984.967 334.657 985.293C334.739 985.618 334.764 985.961 334.729 986.299V998.501C334.729 999.81 333.874 1000.88 332.814 1000.9ZM325.968 906.818C324.217 906.823 322.505 906.186 321.047 904.986C319.59 903.787 318.453 902.079 317.78 900.079C317.108 898.079 316.93 895.877 317.27 893.752C317.61 891.627 318.451 889.675 319.688 888.142C320.927 886.611 322.504 885.569 324.222 885.149C325.939 884.728 327.718 884.948 329.335 885.78C330.951 886.612 332.331 888.019 333.3 889.823C334.269 891.627 334.784 893.746 334.779 895.912C334.777 898.803 333.849 901.575 332.197 903.62C330.545 905.664 328.304 906.816 325.968 906.818ZM325.968 889.774C324.986 889.768 324.025 890.122 323.206 890.792C322.387 891.462 321.748 892.417 321.368 893.537C320.989 894.658 320.886 895.892 321.075 897.084C321.263 898.276 321.732 899.372 322.424 900.234C323.116 901.095 323.999 901.683 324.962 901.923C325.924 902.163 326.922 902.044 327.83 901.581C328.737 901.118 329.513 900.332 330.06 899.323C330.606 898.314 330.898 897.127 330.898 895.912C330.896 894.292 330.377 892.738 329.454 891.589C328.53 890.44 327.277 889.786 325.968 889.774Z" fill="white"/>
</g>
<defs>
<filter id="filter0_d_2566_209" x="14" y="540" width="284" height="252.199" filterUnits="userSpaceOnUse" color-interpolation-filters="sRGB">
<feFlood flood-opacity="0" result="BackgroundImageFix"/>
<feColorMatrix in="SourceAlpha" type="matrix" values="0 0 0 0 0 0 0 0 0 0 0 0 0 0 0 0 0 0 127 0" result="hardAlpha"/>
<feOffset dy="4"/>
<feGaussianBlur stdDeviation="2"/>
<feComposite in2="hardAlpha" operator="out"/>
<feColorMatrix type="matrix" values="0 0 0 0 0 0 0 0 0 0 0 0 0 0 0 0 0 0 0.25 0"/>
<feBlend mode="normal" in2="BackgroundImageFix" result="effect1_dropShadow_2566_209"/>
<feBlend mode="normal" in="SourceGraphic" in2="effect1_dropShadow_2566_209" result="shape"/>
</filter>
<filter id="filter1_d_2566_209" x="14" y="540" width="284" height="234.18" filterUnits="userSpaceOnUse" color-interpolation-filters="sRGB">
<feFlood flood-opacity="0" result="BackgroundImageFix"/>
<feColorMatrix in="SourceAlpha" type="matrix" values="0 0 0 0 0 0 0 0 0 0 0 0 0 0 0 0 0 0 127 0" result="hardAlpha"/>
<feOffset dy="4"/>
<feGaussianBlur stdDeviation="2"/>
<feComposite in2="hardAlpha" operator="out"/>
<feColorMatrix type="matrix" values="0 0 0 0 0 0 0 0 0 0 0 0 0 0 0 0 0 0 0.25 0"/>
<feBlend mode="normal" in2="BackgroundImageFix" result="effect1_dropShadow_2566_209"/>
<feBlend mode="normal" in="SourceGraphic" in2="effect1_dropShadow_2566_209" result="shape"/>
</filter>
<filter id="filter2_d_2566_209" x="38.957" y="565.223" width="237.344" height="186.168" filterUnits="userSpaceOnUse" color-interpolation-filters="sRGB">
<feFlood flood-opacity="0" result="BackgroundImageFix"/>
<feColorMatrix in="SourceAlpha" type="matrix" values="0 0 0 0 0 0 0 0 0 0 0 0 0 0 0 0 0 0 127 0" result="hardAlpha"/>
<feOffset dy="4"/>
<feGaussianBlur stdDeviation="2"/>
<feComposite in2="hardAlpha" operator="out"/>
<feColorMatrix type="matrix" values="0 0 0 0 0 0 0 0 0 0 0 0 0 0 0 0 0 0 0.25 0"/>
<feBlend mode="normal" in2="BackgroundImageFix" result="effect1_dropShadow_2566_209"/>
<feBlend mode="normal" in="SourceGraphic" in2="effect1_dropShadow_2566_209" result="shape"/>
</filter>
<filter id="filter3_d_2566_209" x="100.301" y="622.941" width="130.91" height="169.258" filterUnits="userSpaceOnUse" color-interpolation-filters="sRGB">
<feFlood flood-opacity="0" result="BackgroundImageFix"/>
<feColorMatrix in="SourceAlpha" type="matrix" values="0 0 0 0 0 0 0 0 0 0 0 0 0 0 0 0 0 0 127 0" result="hardAlpha"/>
<feOffset dy="4"/>
<feGaussianBlur stdDeviation="2"/>
<feComposite in2="hardAlpha" operator="out"/>
<feColorMatrix type="matrix" values="0 0 0 0 0 0 0 0 0 0 0 0 0 0 0 0 0 0 0.25 0"/>
<feBlend mode="normal" in2="BackgroundImageFix" result="effect1_dropShadow_2566_209"/>
<feBlend mode="normal" in="SourceGraphic" in2="effect1_dropShadow_2566_209" result="shape"/>
</filter>
<filter id="filter4_d_2566_209" x="121.293" y="604.113" width="69.3242" height="38.5234" filterUnits="userSpaceOnUse" color-interpolation-filters="sRGB">
<feFlood flood-opacity="0" result="BackgroundImageFix"/>
<feColorMatrix in="SourceAlpha" type="matrix" values="0 0 0 0 0 0 0 0 0 0 0 0 0 0 0 0 0 0 127 0" result="hardAlpha"/>
<feOffset dy="4"/>
<feGaussianBlur stdDeviation="2"/>
<feComposite in2="hardAlpha" operator="out"/>
<feColorMatrix type="matrix" values="0 0 0 0 0 0 0 0 0 0 0 0 0 0 0 0 0 0 0.25 0"/>
<feBlend mode="normal" in2="BackgroundImageFix" result="effect1_dropShadow_2566_209"/>
<feBlend mode="normal" in="SourceGraphic" in2="effect1_dropShadow_2566_209" result="shape"/>
</filter>
<linearGradient id="paint0_linear_2566_209" x1="294.443" y1="997.337" x2="1749.25" y2="42.4788" gradientUnits="userSpaceOnUse">
<stop/>
<stop offset="1" stop-color="#001E87"/>
</linearGradient>
<linearGradient id="paint1_linear_2566_209" x1="215.542" y1="717.004" x2="1406.34" y2="401.651" gradientUnits="userSpaceOnUse">
<stop stop-color="#000E3E"/>
<stop offset="1" stop-color="#19B5FE"/>
</linearGradient>
<linearGradient id="paint2_linear_2566_209" x1="230.868" y1="448.601" x2="581.094" y2="-157.651" gradientUnits="userSpaceOnUse">
<stop stop-color="#004790"/>
<stop offset="1" stop-color="#19B5FE"/>
</linearGradient>
<linearGradient id="paint3_linear_2566_209" x1="138.774" y1="813.135" x2="482.68" y2="231.906" gradientUnits="userSpaceOnUse">
<stop stop-color="#003C78"/>
<stop offset="1" stop-color="#19B5FE"/>
</linearGradient>
<linearGradient id="paint4_linear_2566_209" x1="197.681" y1="1088.8" x2="578.516" y2="643.914" gradientUnits="userSpaceOnUse">
<stop stop-color="#004790"/>
<stop offset="1" stop-color="#19B5FE"/>
</linearGradient>
<clipPath id="clip0_2566_209">
<rect width="1920" height="1120" fill="white"/>
</clipPath>
</defs>
</svg>
