<svg width="294" height="297" viewBox="0 0 294 297" fill="none" xmlns="http://www.w3.org/2000/svg">
<path d="M284.304 215.51V167.609C285.813 167.31 286.972 166.044 286.972 164.452C286.972 162.637 285.498 161.167 283.679 161.167C281.86 161.167 280.386 162.637 280.386 164.452C280.386 166.044 281.544 167.31 283.053 167.609V216.027L292.749 225.699V295.331H126.357V284.722H1.25106V3.90892H41.708C42.0082 5.41408 43.2793 6.56979 44.8732 6.56979C46.6922 6.56979 48.166 5.09957 48.166 3.28489C48.166 1.47021 46.6922 0 44.8732 0C43.2768 0 42.0082 1.1557 41.708 2.66086H0V285.97H125.106V296.579H294V225.18L284.304 215.51Z" fill="#FFD700"/>
<path d="M168.23 15.4727L198.676 15.4727L198.676 137.354L190.529 137.354C180.466 138.333 176.569 139.564 174.448 141.662L168.23 141.662L168.23 15.4727Z" stroke="white" stroke-width="0.7"/>
<path d="M173.438 15.4727L193.868 15.4727L193.868 25.0871L173.437 25.0871L173.438 15.4727Z" stroke="white" stroke-width="0.7"/>
<path d="M186.656 17.4805L188.659 17.4805L188.659 19.4835L186.656 19.4835L186.656 17.4805Z" fill="black" stroke="white" stroke-width="0.7"/>
<path d="M183.055 17.4805L185.058 17.4805L185.058 19.4835L183.055 19.4835L183.055 17.4805Z" fill="black" stroke="white" stroke-width="0.7"/>
<path d="M179.449 17.4805L181.853 17.4805L181.853 19.4835L179.449 19.4835L179.449 17.4805Z" fill="black" stroke="white" stroke-width="0.7"/>
<path d="M171.434 31.5328L173.151 31.5328L173.151 34.1254L171.434 34.1254L171.434 31.5328ZM193.752 31.5328L195.47 31.5328L195.47 34.1254L193.752 34.1254L193.752 31.5328ZM175.297 31.1016L191.607 31.1016L191.607 35.4209L175.297 35.4209L175.297 31.1016ZM171.434 36.2834L173.151 36.2834L173.151 38.876L171.434 38.876L171.434 36.2834ZM193.752 36.2834L195.47 36.2834L195.47 38.876L193.752 38.876L193.752 36.2834ZM175.297 35.8522L191.607 35.8522L191.607 40.1715L175.297 40.1715L175.297 35.8522ZM171.434 41.0357L173.151 41.0357L173.151 43.6283L171.434 43.6283L171.434 41.0357ZM193.752 41.0357L195.47 41.0357L195.47 43.6283L193.752 43.6283L193.752 41.0357ZM175.297 40.6044L191.607 40.6044L191.607 44.9237L175.297 44.9237L175.297 40.6044ZM171.434 45.7879L173.151 45.7879L173.151 48.3805L171.434 48.3805L171.434 45.7879ZM193.752 45.7879L195.47 45.7879L195.47 48.3805L193.752 48.3805L193.752 45.7879ZM175.297 45.355L191.607 45.355L191.607 49.6743L175.297 49.6743L175.297 45.355ZM171.434 50.5385L173.151 50.5385L173.151 53.1311L171.434 53.1311L171.434 50.5385ZM193.752 50.5385L195.47 50.5385L195.47 53.1311L193.752 53.1311L193.752 50.5385ZM175.297 50.1072L191.607 50.1072L191.607 54.4266L175.297 54.4266L175.297 50.1072ZM171.434 55.2908L173.151 55.2908L173.151 57.8833L171.434 57.8833L171.434 55.2908ZM193.752 55.2908L195.47 55.2908L195.47 57.8833L193.752 57.8833L193.752 55.2908ZM175.297 54.8578L191.607 54.8578L191.607 59.1771L175.297 59.1771L175.297 54.8578ZM171.434 60.0413L173.151 60.0413L173.151 62.6339L171.434 62.6339L171.434 60.0413ZM193.752 60.0413L195.47 60.0413L195.47 62.6339L193.752 62.6339L193.752 60.0413ZM175.297 59.6101L191.607 59.6101L191.607 63.9294L175.297 63.9294L175.297 59.6101ZM171.434 64.7936L173.151 64.7936L173.151 67.3862L171.434 67.3862L171.434 64.7936ZM193.752 64.7936L195.47 64.7936L195.47 67.3862L193.752 67.3862L193.752 64.7936ZM175.297 64.3623L191.607 64.3623L191.607 68.6816L175.297 68.6816L175.297 64.3623ZM171.434 69.5458L173.151 69.5458L173.151 72.1384L171.434 72.1384L171.434 69.5458ZM193.752 69.5458L195.47 69.5458L195.47 72.1384L193.752 72.1384L193.752 69.5458ZM175.297 69.1129L191.607 69.1129L191.607 73.4322L175.297 73.4322L175.297 69.1129ZM171.434 74.2964L173.151 74.2964L173.151 76.889L171.434 76.889L171.434 74.2964ZM193.752 74.2964L195.47 74.2964L195.47 76.889L193.752 76.889L193.752 74.2964ZM175.297 73.8652L191.607 73.8652L191.607 78.1845L175.297 78.1845L175.297 73.8652ZM171.434 79.0487L173.151 79.0487L173.151 81.6413L171.434 81.6413L171.434 79.0487ZM193.752 79.0487L195.47 79.0487L195.47 81.6413L193.752 81.6413L193.752 79.0487ZM175.297 78.6157L191.607 78.6157L191.607 82.9351L175.297 82.9351L175.297 78.6157ZM171.434 83.7993L173.151 83.7993L173.151 86.3919L171.434 86.3919L171.434 83.7993ZM193.752 83.7993L195.47 83.7993L195.47 86.3919L193.752 86.3919L193.752 83.7993ZM175.297 83.368L191.607 83.368L191.607 87.6873L175.297 87.6873L175.297 83.368ZM171.434 88.5515L173.151 88.5515L173.151 91.1441L171.434 91.1441L171.434 88.5515ZM193.752 88.5515L195.47 88.5515L195.47 91.1441L193.752 91.1441L193.752 88.5515ZM175.297 88.1202L191.607 88.1202L191.607 92.4396L175.297 92.4396L175.297 88.1202ZM171.434 93.3021L173.151 93.3021L173.151 95.8947L171.434 95.8947L171.434 93.3021ZM193.752 93.3021L195.47 93.3021L195.47 95.8947L193.752 95.8947L193.752 93.3021ZM175.297 92.8708L191.607 92.8708L191.607 97.1902L175.297 97.1902L175.297 92.8708ZM171.434 98.0544L173.151 98.0544L173.151 100.647L171.434 100.647L171.434 98.0544ZM193.752 98.0544L195.47 98.0544L195.47 100.647L193.752 100.647L193.752 98.0544ZM175.297 97.6231L191.607 97.6231L191.607 101.942L175.297 101.942L175.297 97.6231ZM171.434 102.807L173.151 102.807L173.151 105.399L171.434 105.399L171.434 102.807ZM193.752 102.807L195.47 102.807L195.47 105.399L193.752 105.399L193.752 102.807ZM175.297 102.374L191.607 102.374L191.607 106.693L175.297 106.693L175.297 102.374ZM171.434 107.557L173.151 107.557L173.151 110.15L171.434 110.15L171.434 107.557ZM193.752 107.557L195.47 107.557L195.47 110.15L193.752 110.15L193.752 107.557ZM175.297 107.126L191.607 107.126L191.607 111.445L175.297 111.445L175.297 107.126ZM171.434 112.309L173.151 112.309L173.151 114.902L171.434 114.902L171.434 112.309ZM193.752 112.309L195.47 112.309L195.47 114.902L193.752 114.902L193.752 112.309ZM175.297 111.877L191.607 111.877L191.607 116.196L175.297 116.196L175.297 111.877ZM171.434 117.06L173.151 117.06L173.151 119.653L171.434 119.653L171.434 117.06ZM193.752 117.06L195.47 117.06L195.47 119.653L193.752 119.653L193.752 117.06ZM175.297 116.629L191.607 116.629L191.607 120.948L175.297 120.948L175.297 116.629ZM171.434 121.812L173.151 121.812L173.151 124.405L171.434 124.405L171.434 121.812ZM193.752 121.812L195.47 121.812L195.47 124.405L193.752 124.405L193.752 121.812ZM175.297 121.381L191.607 121.381L191.607 125.7L175.297 125.7L175.297 121.381ZM171.434 126.565L173.151 126.565L173.151 129.157L171.434 129.157L171.434 126.565ZM193.752 126.565L195.47 126.565L195.47 129.157L193.752 129.157L193.752 126.565ZM175.297 126.132L191.607 126.132L191.607 130.451L175.297 130.451L175.297 126.132Z" fill="#00E7F9" fill-opacity="0.2" stroke="white" stroke-width="0.7"/>
<path d="M198.68 15.4727L229.526 15.4727L229.526 137.354L221.271 137.354C211.076 138.333 207.127 139.564 204.978 141.662L198.68 141.662L198.68 15.4727Z" stroke="white" stroke-width="0.7"/>
<path d="M203.082 15.4727L224.314 15.4727L224.314 25.0871L203.082 25.0871L203.082 15.4727Z" stroke="white" stroke-width="0.7"/>
<path d="M213.496 17.4805L215.499 17.4805L215.499 19.4835L213.496 19.4835L213.496 17.4805Z" fill="black" stroke="white" stroke-width="0.7"/>
<path d="M209.887 17.4805L212.29 17.4805L212.29 19.4835L209.887 19.4835L209.887 17.4805Z" fill="black" stroke="white" stroke-width="0.7"/>
<path d="M216.707 17.4805L218.71 17.4805L218.71 19.4835L216.707 19.4835L216.707 17.4805Z" fill="black" stroke="white" stroke-width="0.7"/>
<path d="M118.559 15.4727L168.233 15.4727L168.233 141.662L118.559 141.662L118.559 15.4727Z" stroke="white" stroke-width="0.7"/>
<path d="M122.152 17.082L148.592 17.082L148.592 26.2959L122.152 26.2959L122.152 17.082Z" stroke="white" stroke-width="0.7"/>
<path d="M128.973 18.6758L131.777 18.6758L131.777 21.48L128.973 21.48L128.973 18.6758Z" fill="black" stroke="white" stroke-width="0.7"/>
<path d="M132.98 18.6758L135.785 18.6758L135.785 21.48L132.98 21.48L132.98 18.6758Z" fill="black" stroke="white" stroke-width="0.7"/>
<path d="M136.98 18.6758L139.785 18.6758L139.785 21.48L136.98 21.48L136.98 18.6758Z" fill="black" stroke="white" stroke-width="0.7"/>
<path d="M122.957 31.5039L164.219 31.5039L164.219 91.1936L122.957 91.1936L122.957 31.5039Z" stroke="white" stroke-width="0.7"/>
<path d="M159.497 41.5078L128.096 41.5078C127.253 41.5078 126.57 42.1755 126.57 42.9992L126.57 86.4862C126.57 87.3099 127.253 87.9777 128.096 87.9777L159.497 87.9777C160.339 87.9777 161.022 87.3099 161.022 86.4862L161.022 42.9992C161.022 42.1755 160.339 41.5078 159.497 41.5078Z" stroke="white" stroke-width="0.7"/>
<path d="M138.439 100.317C138.515 99.2938 138.894 98.8862 139.97 98.3984L145.432 98.3984C146.577 99.1743 146.733 99.5885 146.743 100.317L146.743 111.187L157.231 111.187C158.334 111.22 158.913 111.539 159.416 112.679L159.416 117.794C158.894 118.909 158.448 119.188 157.449 119.287L146.743 119.287L146.743 130.156C146.409 130.979 146.092 131.326 145.214 131.648L139.97 131.648C139.147 131.337 138.812 131.013 138.439 130.157L138.439 119.285L127.296 119.285C126.264 118.859 125.91 118.463 125.766 117.367L125.766 113.104C125.905 112.057 126.189 111.615 127.296 111.186L138.439 111.186L138.439 100.317Z" stroke="white" stroke-width="0.7"/>
<path d="M142.718 101.203L140.823 104.834L144.403 104.834L142.718 101.203ZM142.718 128.749L140.823 125.12L144.403 125.12L142.718 128.749ZM156.614 115.297L153.036 117.219L153.036 113.589L156.614 115.297ZM128.611 115.297L132.191 117.219L132.191 113.589L128.611 115.297ZM127.523 131.145L127.523 131.602L125.776 131.602L125.776 131.145L127.523 131.145ZM125.936 128.262L125.936 131.602L125.367 131.602L125.367 128.262L125.936 128.262ZM127.295 129.656L127.295 130.107L125.775 130.107L125.775 129.657L127.295 129.656ZM127.513 128.262L127.513 128.721L125.775 128.721L125.775 128.262L127.513 128.262ZM129.72 130.741C129.721 130.679 129.71 130.616 129.688 130.558C129.665 130.5 129.629 130.449 129.581 130.41C129.515 130.357 129.442 130.314 129.364 130.282C129.25 130.231 129.132 130.187 129.012 130.151C128.864 130.106 128.719 130.052 128.577 129.989C128.455 129.933 128.34 129.863 128.234 129.779C128.135 129.705 128.056 129.608 128.002 129.496C127.948 129.384 127.921 129.26 127.924 129.136C127.922 129.008 127.951 128.881 128.008 128.766C128.064 128.651 128.147 128.551 128.249 128.475C128.361 128.389 128.487 128.325 128.622 128.285C128.776 128.237 128.937 128.214 129.098 128.216C129.342 128.216 129.552 128.262 129.728 128.354C129.906 128.446 130.044 128.569 130.137 128.723C130.234 128.878 130.283 129.049 130.283 129.234L129.72 129.234C129.722 129.133 129.697 129.033 129.649 128.944C129.602 128.857 129.53 128.786 129.442 128.742C129.333 128.689 129.212 128.664 129.091 128.669C128.976 128.665 128.862 128.686 128.756 128.731C128.675 128.766 128.606 128.824 128.558 128.898C128.514 128.969 128.491 129.052 128.493 129.136C128.492 129.196 128.506 129.255 128.535 129.308C128.562 129.357 128.606 129.407 128.664 129.451C128.734 129.499 128.809 129.54 128.887 129.572C128.976 129.61 129.081 129.648 129.201 129.682C129.384 129.738 129.544 129.798 129.678 129.866C129.814 129.931 129.927 130.007 130.018 130.09C130.107 130.172 130.178 130.272 130.224 130.384C130.271 130.496 130.294 130.617 130.289 130.738C130.291 130.87 130.262 131 130.205 131.119C130.148 131.231 130.066 131.329 129.966 131.404C129.854 131.487 129.728 131.549 129.594 131.586C129.438 131.629 129.277 131.65 129.115 131.648C128.957 131.648 128.799 131.626 128.646 131.583C128.498 131.542 128.358 131.477 128.231 131.389C128.102 131.302 127.997 131.184 127.926 131.045C127.854 130.906 127.819 130.751 127.822 130.594L128.389 130.594C128.387 130.689 128.405 130.784 128.444 130.871C128.48 130.945 128.534 131.009 128.6 131.058C128.666 131.107 128.743 131.14 128.831 131.165C129.035 131.214 129.248 131.206 129.449 131.142C129.531 131.11 129.602 131.054 129.652 130.981C129.698 130.91 129.722 130.826 129.72 130.741ZM132.737 130.515L133.303 130.515C133.289 130.722 133.226 130.923 133.121 131.101C133.016 131.272 132.867 131.41 132.689 131.501C132.479 131.604 132.247 131.655 132.013 131.648C131.824 131.651 131.637 131.614 131.463 131.538C131.303 131.465 131.16 131.357 131.044 131.222C130.924 131.075 130.833 130.906 130.778 130.723C130.715 130.512 130.684 130.293 130.687 130.072L130.687 129.794C130.687 129.554 130.719 129.338 130.781 129.143C130.838 128.96 130.93 128.791 131.053 128.646C131.168 128.508 131.312 128.399 131.475 128.326C131.652 128.25 131.842 128.213 132.034 128.216C132.296 128.216 132.518 128.265 132.697 128.364C132.88 128.462 133.02 128.596 133.117 128.769C133.222 128.951 133.286 129.154 133.305 129.364L132.739 129.364C132.728 129.236 132.694 129.111 132.639 128.995C132.592 128.895 132.514 128.813 132.417 128.76C132.298 128.701 132.167 128.673 132.034 128.678C131.905 128.678 131.792 128.701 131.695 128.751C131.597 128.8 131.513 128.875 131.452 128.967C131.383 129.074 131.333 129.193 131.306 129.318C131.274 129.456 131.258 129.613 131.258 129.79L131.258 130.072C131.258 130.24 131.272 130.394 131.3 130.532C131.325 130.655 131.371 130.774 131.436 130.882C131.497 130.981 131.582 131.061 131.684 131.115C131.785 131.169 131.899 131.194 132.013 131.189C132.175 131.189 132.304 131.163 132.404 131.112C132.502 131.063 132.582 130.983 132.632 130.884C132.69 130.769 132.725 130.644 132.737 130.515Z" fill="black" stroke="white" stroke-width="0.7"/>
<path d="M122.957 125.637L122.957 134.45L134.574 134.45" stroke="white" stroke-width="0.7"/>
<path d="M156.989 129.955L156.989 130.124C156.989 130.36 156.957 130.571 156.891 130.76C156.832 130.934 156.736 131.096 156.608 131.236C156.489 131.366 156.339 131.47 156.171 131.539C155.992 131.609 155.799 131.644 155.605 131.642C155.416 131.648 155.228 131.615 155.055 131.545C154.881 131.475 154.727 131.37 154.602 131.237C154.473 131.097 154.375 130.934 154.313 130.758C154.243 130.554 154.208 130.341 154.211 130.126L154.211 129.955C154.211 129.719 154.244 129.508 154.313 129.322C154.373 129.147 154.47 128.985 154.597 128.845C154.718 128.715 154.868 128.612 155.036 128.543C155.214 128.472 155.406 128.436 155.6 128.438C155.807 128.438 155.995 128.473 156.166 128.543C156.335 128.611 156.485 128.714 156.605 128.845C156.733 128.985 156.829 129.147 156.888 129.322C156.955 129.508 156.989 129.719 156.989 129.955ZM156.412 130.124L156.412 129.95C156.412 129.775 156.394 129.622 156.357 129.491C156.328 129.37 156.274 129.256 156.199 129.154C156.134 129.066 156.045 128.994 155.942 128.947C155.836 128.899 155.719 128.875 155.6 128.877C155.482 128.875 155.366 128.899 155.26 128.947C155.158 128.995 155.071 129.065 155.005 129.152C154.93 129.255 154.876 129.369 154.846 129.489C154.807 129.64 154.789 129.794 154.791 129.948L154.791 130.124C154.791 130.299 154.808 130.454 154.846 130.588C154.877 130.71 154.931 130.825 155.007 130.928C155.079 131.02 155.165 131.089 155.265 131.136C155.364 131.182 155.479 131.204 155.605 131.204C155.723 131.206 155.84 131.183 155.947 131.136C156.049 131.088 156.136 131.016 156.2 130.928C156.274 130.825 156.327 130.71 156.357 130.588C156.396 130.437 156.414 130.28 156.412 130.124ZM158.144 128.48L158.144 131.599L157.567 131.599L157.567 128.48L158.144 128.48ZM160.156 128.48L158.8 129.981L158.027 130.744L157.925 130.21L158.477 129.576L159.452 128.48L160.156 128.48ZM159.534 131.599L158.433 130.121L158.831 129.754L160.22 131.599L159.534 131.599Z" fill="black" stroke="white" stroke-width="0.7"/>
<path d="M161.819 125.298L161.819 134.341L151.051 134.341M64.4727 15.4727L118.298 15.4727L118.298 141.662L64.4727 141.662L64.4727 15.4727Z" stroke="white" stroke-width="0.7"/>
<path d="M68.4805 17.082L94.9202 17.082L94.9202 26.2959L68.4805 26.2959L68.4805 17.082Z" stroke="white" stroke-width="0.7"/>
<path d="M83.3086 18.6758L85.7122 18.6758L85.7122 21.48L83.3086 21.48L83.3086 18.6758Z" fill="black" stroke="white" stroke-width="0.7"/>
<path d="M83.3086 18.6758L85.7122 18.6758L85.7122 21.48L83.3086 21.48L83.3086 18.6758Z" fill="black" stroke="white" stroke-width="0.7"/>
<path d="M76.0938 18.6758L78.4974 18.6758L78.4974 21.48L76.0937 21.48L76.0938 18.6758Z" fill="black" stroke="white" stroke-width="0.7"/>
<path d="M79.6953 18.6758L82.0989 18.6758L82.0989 21.48L79.6953 21.48L79.6953 18.6758Z" fill="black" stroke="white" stroke-width="0.7"/>
</svg>
