<svg width="509" height="497" viewBox="0 0 509 497" fill="none" xmlns="http://www.w3.org/2000/svg">
<path d="M361.498 24.7461H358.56H32.3904H19.7188V471.515H466.487V24.7461H361.498Z" fill="#00158E"/>
<path d="M247.574 463.98H82.0781V472.153H247.574V463.98Z" fill="#FFD700"/>
<path d="M471.195 137.544L471.195 303.039L479.368 303.039L479.368 137.544L471.195 137.544Z" fill="#FFD700"/>
<path d="M480.05 372.375H471.195V333.555H480.05V372.375ZM473.243 370.331H478.011V335.598H473.243V370.331Z" fill="#0751CF"/>
<path d="M336.689 473.379H277.438V460.438H336.689V473.379ZM279.481 471.336H334.646V462.481H279.481V471.336Z" fill="#0751CF"/>
<path d="M47.8263 471.985H25.3516V463.812H47.8263V471.985ZM27.3947 469.942H45.7831V465.856H27.3947V469.942Z" fill="#FFD700"/>
<path d="M471.195 71.4122L471.195 48.9375L479.367 48.9375L479.367 71.4122L471.195 71.4122ZM473.238 50.9807L473.238 69.3691L477.324 69.3691L477.324 50.9807L473.238 50.9807Z" fill="#FFD700"/>
<path d="M493.088 363.023V285.06C495.538 284.572 497.419 282.513 497.419 279.921C497.419 276.967 495.026 274.574 492.072 274.574C489.118 274.574 486.726 276.967 486.726 279.921C486.726 282.513 488.607 284.572 491.056 285.06V363.864L506.799 379.606V492.939L205.165 494.97V477.704H2.03133L3.61442 14.745H69.3038C69.7913 17.1947 71.8551 19.0758 74.443 19.0758C77.3966 19.0758 79.7895 16.6829 79.7895 13.7293C79.7895 10.7757 77.3966 8.38281 74.443 8.38281C71.851 8.38281 69.7913 10.2638 69.3038 12.7136H1.58309L0 479.735H203.134V497.001L508.831 494.97V378.761L493.088 363.023Z" fill="#FFD700"/>
<path d="M113.553 19.9744V7.44922H100.012V20.9901H113.553V19.9744ZM102.043 9.48055H111.521V18.9588H102.043V9.48055Z" fill="#FFD700"/>
<path d="M164.34 16.9292H181.269V15.9135V0H164.34V16.9292ZM166.371 2.03134H179.238V14.8978H166.371V2.03134Z" fill="#0751CF"/>
</svg>
