<svg width="505" height="334" viewBox="0 0 505 334" fill="none" xmlns="http://www.w3.org/2000/svg">
<path d="M205.562 237.764H504.555M461.517 0V330.605M389.034 63.4023V334" stroke="white" stroke-width="2" stroke-miterlimit="10"/>
<path d="M441.378 167.242V175.976M441.378 155.595V164.329M441.378 143.966V152.702M441.378 132.3V141.034M477.785 167.242V175.976M477.785 155.595V164.329M477.785 143.966V152.702M477.785 132.3V141.034M379.466 175.981H405.68M379.466 170.167H405.68M372.188 162.88H411.511M418.071 116.297H448.656V126.489H418.071V116.297ZM418.071 127.944H448.656V206.566H418.071V127.944ZM454.478 116.297H485.063V126.489H454.478V116.297ZM454.478 127.944H485.063V206.566H454.478V127.944ZM397.677 123.564H403.501V129.386H397.677V123.564Z" stroke="white" stroke-width="2"/>
<path d="M372.93 116.297H412.251V206.563H372.93V116.297Z" stroke="white" stroke-width="2"/>
<path d="M225.294 254.957L221.449 252.738V257.176L225.294 254.957ZM42.293 255.34H43.8178V254.572H42.293V255.34ZM46.8699 255.34H49.9196V254.572H46.8699V255.34ZM52.9694 255.34H56.0191V254.572H52.9694V255.34ZM59.0689 255.34H62.1186V254.572H59.0689V255.34ZM65.1684 255.34H68.2181V254.572H65.1684V255.34ZM71.2679 255.34H74.3176V254.572H71.2679V255.34ZM77.3697 255.34H80.4194V254.572H77.3697V255.34ZM83.4692 255.34H86.5189V254.572H83.4692V255.34ZM89.5687 255.34H92.6184V254.572H89.5687V255.34ZM95.6681 255.34H98.7179V254.572H95.6681V255.34ZM101.768 255.34H104.817V254.572H101.768V255.34ZM107.869 255.34H110.919V254.572H107.869V255.34ZM113.969 255.34H117.019V254.572H113.969V255.34ZM120.068 255.34H123.118V254.572H120.068V255.34ZM126.168 255.34H129.218V254.572H126.168V255.34ZM132.267 255.34H135.317V254.572H132.267V255.34ZM138.369 255.34H141.419V254.572H138.369V255.34ZM144.469 255.34H147.518V254.572H144.469V255.34ZM150.568 255.34H153.618V254.572H150.568V255.34ZM156.668 255.34H159.717V254.572H156.668V255.34ZM162.767 255.34H165.819V254.572H162.767V255.34ZM168.869 255.34H171.919V254.572H168.869V255.34ZM174.969 255.34H178.018V254.572H174.969V255.34ZM181.068 255.34H184.118V254.572H181.068V255.34ZM187.167 255.34H190.217V254.572H187.167V255.34ZM193.267 255.34H196.319V254.572H193.267V255.34ZM199.369 255.34H202.419V254.572H199.369V255.34ZM205.468 255.34H208.518V254.572H205.468V255.34ZM211.568 255.34H214.618V254.572H211.568V255.34ZM217.667 255.34H220.717V254.572H217.667V255.34Z" fill="white"/>
<path d="M171.468 115.46V107.773H200.303V115.46L210.298 121.993L209.913 169.266L186.462 200.784L161.473 169.266V121.993L171.468 115.46Z" fill="#D9D9D9" stroke="white" stroke-width="2"/>
<path d="M289.304 115.46V107.773H318.139V115.46L328.134 121.993L327.749 169.266L304.298 200.784L279.309 169.266V121.993L289.304 115.46Z" fill="#D9D9D9" stroke="white" stroke-width="2"/>
<path d="M56.9016 115.46V107.773H85.7344V115.46L95.7297 121.993L95.3468 169.266L71.8935 200.784L46.9062 169.266V121.993L56.9016 115.46Z" fill="#D9D9D9" stroke="white" stroke-width="2"/>
<path d="M22.6836 107.773H36.5244V169.268H22.6836V107.773Z" stroke="white" stroke-width="2"/>
<path d="M24.6055 115.07H26.9123V161.19H24.6055V115.07ZM27.6827 115.07H31.5282V161.19H27.6827V115.07ZM32.294 115.07H34.6008V161.19H32.294V115.07Z" fill="white"/>
<path d="M141.246 107.773H155.087V169.268H141.246V107.773Z" stroke="white" stroke-width="2"/>
<path d="M143.164 115.07H145.471V161.19H143.164V115.07ZM146.241 115.07H150.087V161.19H146.241V115.07ZM150.853 115.07H153.159V161.19H150.853V115.07Z" fill="white"/>
<path d="M257.199 107.773H271.04V169.268H257.199V107.773Z" stroke="white" stroke-width="2"/>
<path d="M259.121 115.07H261.428V161.19H259.121V115.07ZM262.196 115.07H266.041V161.19H262.196V115.07ZM266.81 115.07H269.116V161.19H266.81V115.07Z" fill="white"/>
<mask id="path-14-inside-1_2566_218" fill="white">
<path d="M28.8368 182.671H28.4516V183.054H28.8368V182.671ZM28.8368 169.987L26.6172 173.832H31.0565L28.8368 169.987ZM56.5162 182.286H28.8368V183.054H56.5162V182.286ZM29.2198 182.671V173.446H28.4516V182.671H29.2198ZM145.323 183.054H144.941V183.439H145.323V183.054ZM145.323 170.372L143.106 174.214H147.543L145.323 170.372ZM173.005 182.671H145.323V183.439H173.005V182.671ZM145.709 183.054V173.832H144.941V183.054H145.709ZM263.736 183.054H263.351V183.439H263.736V183.054ZM263.736 170.372L261.517 174.214H265.956L263.736 170.372ZM290.395 182.671H263.736V183.439H291.006L290.395 182.671ZM264.119 183.054V173.832H263.351V183.054H264.119ZM54.2094 95.8109L50.3639 98.0299V93.5919L54.2094 95.8109ZM29.2198 95.8109H28.8368V95.4258H29.2198V95.8109ZM29.2198 105.418L27.0001 101.576H31.4395L29.2198 105.418ZM28.8368 101.815V99.4122H29.605V101.815H28.8368ZM28.8368 97.0121V95.8109H29.605V97.0121H28.8368ZM29.2198 95.4258H30.7813V96.1937H29.2198V95.4258ZM33.9068 95.4258H37.0299V96.1937H33.9068V95.4258ZM40.153 95.4258H43.2761V96.1937H40.153V95.4258ZM46.3993 95.4258H49.5247V96.1937H46.3993V95.4258ZM103.803 112.722H104.189V112.337H103.803V112.722ZM103.803 204.194H103.42V204.577H103.803V204.194ZM158.396 204.194V204.577H158.781V204.194H158.396ZM158.396 184.592L156.176 188.436H160.616L158.396 184.592ZM85.7341 113.105H103.803V112.337H85.7341V113.105ZM103.42 112.722V204.194H104.189V112.722H103.42ZM103.803 204.577H158.396V203.809H103.803V204.577ZM158.781 204.194V188.049H158.011V204.192L158.781 204.194ZM217.985 112.722H218.371V112.337H217.985V112.722ZM217.985 204.194H217.6V204.577H217.985V204.194ZM275.653 204.194V204.577H276.038V204.194H275.653ZM275.653 184.207L273.434 188.051H277.873L275.653 184.207ZM200.461 113.105H217.985V112.337H200.461V113.105ZM217.6 112.722V204.194H218.371V112.722H217.6ZM217.985 204.577H275.653V203.809H217.985V204.577ZM276.038 204.194V187.666H275.268V204.194H276.038ZM71.1252 26.2445V25.8594H70.7399V26.2445H71.1252ZM118.027 26.2445H118.412V25.8594H118.027V26.2445ZM118.027 120.791H117.642V121.176H118.027V120.791ZM134.943 120.791L131.1 118.572V123.012L134.943 120.791ZM71.5081 53.1477V26.2445H70.7399V53.1477H71.5081ZM71.1252 26.6296H118.027V25.8594H71.1252V26.6296ZM117.642 26.2445V120.791H118.412V26.2445H117.642ZM118.027 121.176H131.483V120.408H118.027V121.176Z"/>
</mask>
<path d="M28.8368 182.671H30.8368V180.671H28.8368V182.671ZM28.4516 183.054H26.4516V185.054H28.4516V183.054ZM28.8368 169.987L30.5689 168.987L28.8368 165.988L27.1048 168.987L28.8368 169.987ZM26.6172 173.832L24.8852 172.832L23.153 175.832H26.6172V173.832ZM31.0565 173.832V175.832H34.5208L32.7885 172.831L31.0565 173.832ZM56.5162 182.286H58.5162V180.286H56.5162V182.286ZM28.8368 182.286V180.286H26.8368V182.286H28.8368ZM56.5162 183.054V185.054H58.5162V183.054H56.5162ZM29.2198 182.671V184.671H31.2198V182.671H29.2198ZM29.2198 173.446H31.2198V171.446H29.2198V173.446ZM28.4516 173.446V171.446H26.4516V173.446H28.4516ZM145.323 183.054H147.323V181.054H145.323V183.054ZM144.941 183.439H142.941V185.439H144.941V183.439ZM145.323 170.372L147.055 169.372L145.323 166.373L143.591 169.373L145.323 170.372ZM143.106 174.214L141.374 173.215L139.643 176.214H143.106V174.214ZM147.543 174.214V176.214H151.008L149.275 173.214L147.543 174.214ZM173.005 182.671H175.005V180.671H173.005V182.671ZM145.323 182.671V180.671H143.323V182.671H145.323ZM173.005 183.439V185.439H175.005V183.439H173.005ZM145.709 183.054V185.054H147.709V183.054H145.709ZM145.709 173.832H147.709V171.832H145.709V173.832ZM144.941 173.832V171.832H142.941V173.832H144.941ZM263.736 183.054H265.736V181.054H263.736V183.054ZM263.351 183.439H261.351V185.439H263.351V183.439ZM263.736 170.372L265.468 169.372L263.736 166.374L262.005 169.372L263.736 170.372ZM261.517 174.214L259.785 173.214L258.051 176.214H261.517V174.214ZM265.956 174.214V176.214H269.421L267.688 173.214L265.956 174.214ZM290.395 182.671L291.961 181.426L291.36 180.671H290.395V182.671ZM263.736 182.671V180.671H261.736V182.671H263.736ZM291.006 183.439V185.439H295.151L292.571 182.194L291.006 183.439ZM264.119 183.054V185.054H266.119V183.054H264.119ZM264.119 173.832H266.119V171.832H264.119V173.832ZM263.351 173.832V171.832H261.351V173.832H263.351ZM54.2094 95.8109L55.209 97.5432L58.2109 95.8109L55.209 94.0786L54.2094 95.8109ZM50.3639 98.0299H48.3639V101.493L51.3635 99.7622L50.3639 98.0299ZM50.3639 93.5919L51.3636 91.8596L48.3639 90.1287V93.5919H50.3639ZM29.2198 95.8109V97.8109H31.2198V95.8109H29.2198ZM28.8368 95.4258V93.4258H26.8368V95.4258H28.8368ZM29.2198 105.418L27.488 106.419L29.2198 109.416L30.9515 106.419L29.2198 105.418ZM27.0001 101.576V99.5762H23.5349L25.2684 102.577L27.0001 101.576ZM31.4395 101.576L33.1712 102.577L34.9047 99.5762H31.4395V101.576ZM28.8368 101.815H26.8368V103.815H28.8368V101.815ZM28.8368 99.4122V97.4122H26.8368V99.4122H28.8368ZM29.605 99.4122H31.605V97.4122H29.605V99.4122ZM29.605 101.815V103.815H31.605V101.815H29.605ZM28.8368 97.0121H26.8368V99.0121H28.8368V97.0121ZM29.605 95.8109H31.605V93.8109H29.605V95.8109ZM29.605 97.0121V99.0121H31.605V97.0121H29.605ZM30.7813 95.4258H32.7813V93.4258H30.7813V95.4258ZM30.7813 96.1937V98.1937H32.7813V96.1937H30.7813ZM29.2198 96.1937H27.2198V98.1937H29.2198V96.1937ZM33.9068 95.4258V93.4258H31.9068V95.4258H33.9068ZM37.0299 95.4258H39.0299V93.4258H37.0299V95.4258ZM37.0299 96.1937V98.1937H39.0299V96.1937H37.0299ZM33.9068 96.1937H31.9068V98.1937H33.9068V96.1937ZM40.153 95.4258V93.4258H38.153V95.4258H40.153ZM43.2761 95.4258H45.2761V93.4258H43.2761V95.4258ZM43.2761 96.1937V98.1937H45.2761V96.1937H43.2761ZM40.153 96.1937H38.153V98.1937H40.153V96.1937ZM46.3993 95.4258V93.4258H44.3993V95.4258H46.3993ZM49.5247 95.4258H51.5247V93.4258H49.5247V95.4258ZM49.5247 96.1937V98.1937H51.5247V96.1937H49.5247ZM46.3993 96.1937H44.3993V98.1937H46.3993V96.1937ZM103.803 112.722H101.803V114.722H103.803V112.722ZM104.189 112.337H106.189V110.337H104.189V112.337ZM103.803 204.194H105.803V202.194H103.803V204.194ZM103.42 204.577H101.42V206.577H103.42V204.577ZM158.396 204.194V202.194H156.396V204.194H158.396ZM158.781 204.577V206.577H160.781V204.577H158.781ZM158.396 184.592L160.128 183.592L158.396 180.592L156.664 183.592L158.396 184.592ZM156.176 188.436L154.444 187.436L152.712 190.436H156.176V188.436ZM160.616 188.436V190.436H164.08L162.348 187.436L160.616 188.436ZM85.7341 113.105H83.7341V115.105H85.7341V113.105ZM103.803 113.105V115.105H105.803V113.105H103.803ZM85.7341 112.337V110.337H83.7341V112.337H85.7341ZM103.42 112.722V110.722H101.42V112.722H103.42ZM104.189 204.194V206.194H106.189V204.194H104.189ZM158.396 203.809H160.396V201.809H158.396V203.809ZM103.803 203.809V201.809H101.803V203.809H103.803ZM158.781 188.049H160.781V186.049H158.781V188.049ZM158.011 188.049V186.049H156.011V188.049H158.011ZM158.011 204.192H156.011V206.186L158.005 206.192L158.011 204.192ZM217.985 112.722H215.985V114.722H217.985V112.722ZM218.371 112.337H220.371V110.337H218.371V112.337ZM217.985 204.194H219.985V202.194H217.985V204.194ZM217.6 204.577H215.6V206.577H217.6V204.577ZM275.653 204.194V202.194H273.653V204.194H275.653ZM276.038 204.577V206.577H278.038V204.577H276.038ZM275.653 184.207L277.385 183.207L275.653 180.207L273.921 183.207L275.653 184.207ZM273.434 188.051L271.702 187.051L269.969 190.051H273.434V188.051ZM277.873 188.051V190.051H281.337L279.605 187.051L277.873 188.051ZM200.461 113.105H198.461V115.105H200.461V113.105ZM217.985 113.105V115.105H219.985V113.105H217.985ZM200.461 112.337V110.337H198.461V112.337H200.461ZM217.6 112.722V110.722H215.6V112.722H217.6ZM218.371 204.194V206.194H220.371V204.194H218.371ZM275.653 203.809H277.653V201.809H275.653V203.809ZM217.985 203.809V201.809H215.985V203.809H217.985ZM276.038 187.666H278.038V185.666H276.038V187.666ZM275.268 187.666V185.666H273.268V187.666H275.268ZM275.268 204.194H273.268V206.194H275.268V204.194ZM71.1252 26.2445V28.2445H73.1252V26.2445H71.1252ZM70.7399 25.8594V23.8594H68.7399V25.8594H70.7399ZM118.027 26.2445H116.027V28.2445H118.027V26.2445ZM118.412 25.8594H120.412V23.8594H118.412V25.8594ZM118.027 120.791H120.027V118.791H118.027V120.791ZM117.642 121.176H115.642V123.176H117.642V121.176ZM134.943 120.791L135.944 122.522L138.941 120.79L135.943 119.059L134.943 120.791ZM131.1 118.572L132.1 116.84L129.1 115.108V118.572H131.1ZM131.1 123.012H129.1V126.478L132.101 124.744L131.1 123.012ZM71.5081 53.1477V55.1477H73.5081V53.1477H71.5081ZM71.5081 26.2445H73.5081V24.2445H71.5081V26.2445ZM70.7399 53.1477H68.7399V55.1477H70.7399V53.1477ZM71.1252 26.6296H69.1252V28.6296H71.1252V26.6296ZM118.027 26.6296V28.6296H120.027V26.6296H118.027ZM117.642 26.2445V24.2445H115.642V26.2445H117.642ZM118.412 120.791V122.791H120.412V120.791H118.412ZM131.483 121.176V123.176H133.483V121.176H131.483ZM131.483 120.408H133.483V118.408H131.483V120.408ZM118.027 120.408V118.408H116.027V120.408H118.027ZM28.8368 182.671V180.671H28.4516V182.671V184.671H28.8368V182.671ZM28.4516 182.671H26.4516V183.054H28.4516H30.4516V182.671H28.4516ZM28.4516 183.054V185.054H28.8368V183.054V181.054H28.4516V183.054ZM28.8368 183.054H30.8368V182.671H28.8368H26.8368V183.054H28.8368ZM28.8368 169.987L27.1048 168.987L24.8852 172.832L26.6172 173.832L28.3492 174.832L30.5689 170.987L28.8368 169.987ZM26.6172 173.832V175.832H31.0565V173.832V171.832H26.6172V173.832ZM31.0565 173.832L32.7885 172.831L30.5689 168.987L28.8368 169.987L27.1048 170.987L29.3245 174.832L31.0565 173.832ZM56.5162 182.286V180.286H28.8368V182.286V184.286H56.5162V182.286ZM28.8368 182.286H26.8368V183.054H28.8368H30.8368V182.286H28.8368ZM28.8368 183.054V185.054H56.5162V183.054V181.054H28.8368V183.054ZM56.5162 183.054H58.5162V182.286H56.5162H54.5162V183.054H56.5162ZM29.2198 182.671H31.2198V173.446H29.2198H27.2198V182.671H29.2198ZM29.2198 173.446V171.446H28.4516V173.446V175.446H29.2198V173.446ZM28.4516 173.446H26.4516V182.671H28.4516H30.4516V173.446H28.4516ZM28.4516 182.671V184.671H29.2198V182.671V180.671H28.4516V182.671ZM145.323 183.054V181.054H144.941V183.054V185.054H145.323V183.054ZM144.941 183.054H142.941V183.439H144.941H146.941V183.054H144.941ZM144.941 183.439V185.439H145.323V183.439V181.439H144.941V183.439ZM145.323 183.439H147.323V183.054H145.323H143.323V183.439H145.323ZM145.323 170.372L143.591 169.373L141.374 173.215L143.106 174.214L144.838 175.214L147.056 171.372L145.323 170.372ZM143.106 174.214V176.214H147.543V174.214V172.214H143.106V174.214ZM147.543 174.214L149.275 173.214L147.055 169.372L145.323 170.372L143.592 171.373L145.811 175.215L147.543 174.214ZM173.005 182.671V180.671H145.323V182.671V184.671H173.005V182.671ZM145.323 182.671H143.323V183.439H145.323H147.323V182.671H145.323ZM145.323 183.439V185.439H173.005V183.439V181.439H145.323V183.439ZM173.005 183.439H175.005V182.671H173.005H171.005V183.439H173.005ZM145.709 183.054H147.709V173.832H145.709H143.709V183.054H145.709ZM145.709 173.832V171.832H144.941V173.832V175.832H145.709V173.832ZM144.941 173.832H142.941V183.054H144.941H146.941V173.832H144.941ZM144.941 183.054V185.054H145.709V183.054V181.054H144.941V183.054ZM263.736 183.054V181.054H263.351V183.054V185.054H263.736V183.054ZM263.351 183.054H261.351V183.439H263.351H265.351V183.054H263.351ZM263.351 183.439V185.439H263.736V183.439V181.439H263.351V183.439ZM263.736 183.439H265.736V183.054H263.736H261.736V183.439H263.736ZM263.736 170.372L262.005 169.372L259.785 173.214L261.517 174.214L263.248 175.215L265.468 171.373L263.736 170.372ZM261.517 174.214V176.214H265.956V174.214V172.214H261.517V174.214ZM265.956 174.214L267.688 173.214L265.468 169.372L263.736 170.372L262.005 171.373L264.224 175.215L265.956 174.214ZM290.395 182.671V180.671H263.736V182.671V184.671H290.395V182.671ZM263.736 182.671H261.736V183.439H263.736H265.736V182.671H263.736ZM263.736 183.439V185.439H291.006V183.439V181.439H263.736V183.439ZM291.006 183.439L292.571 182.194L291.961 181.426L290.395 182.671L288.83 183.916L289.44 184.683L291.006 183.439ZM264.119 183.054H266.119V173.832H264.119H262.119V183.054H264.119ZM264.119 173.832V171.832H263.351V173.832V175.832H264.119V173.832ZM263.351 173.832H261.351V183.054H263.351H265.351V173.832H263.351ZM263.351 183.054V185.054H264.119V183.054V181.054H263.351V183.054ZM54.2094 95.8109L53.2098 94.0786L49.3643 96.2976L50.3639 98.0299L51.3635 99.7622L55.209 97.5432L54.2094 95.8109ZM50.3639 98.0299H52.3639V93.5919H50.3639H48.3639V98.0299H50.3639ZM50.3639 93.5919L49.3643 95.3242L53.2098 97.5432L54.2094 95.8109L55.209 94.0786L51.3636 91.8596L50.3639 93.5919ZM29.2198 95.8109V93.8109H28.8368V95.8109V97.8109H29.2198V95.8109ZM28.8368 95.8109H30.8368V95.4258H28.8368H26.8368V95.8109H28.8368ZM28.8368 95.4258V97.4258H29.2198V95.4258V93.4258H28.8368V95.4258ZM29.2198 95.4258H27.2198V95.8109H29.2198H31.2198V95.4258H29.2198ZM29.2198 105.418L30.9515 104.418L28.7319 100.576L27.0001 101.576L25.2684 102.577L27.488 106.419L29.2198 105.418ZM27.0001 101.576V103.576H31.4395V101.576V99.5762H27.0001V101.576ZM31.4395 101.576L29.7077 100.576L27.488 104.418L29.2198 105.418L30.9515 106.419L33.1712 102.577L31.4395 101.576ZM28.8368 101.815H30.8368V99.4122H28.8368H26.8368V101.815H28.8368ZM28.8368 99.4122V101.412H29.605V99.4122V97.4122H28.8368V99.4122ZM29.605 99.4122H27.605V101.815H29.605H31.605V99.4122H29.605ZM29.605 101.815V99.8146H28.8368V101.815V103.815H29.605V101.815ZM28.8368 97.0121H30.8368V95.8109H28.8368H26.8368V97.0121H28.8368ZM28.8368 95.8109V97.8109H29.605V95.8109V93.8109H28.8368V95.8109ZM29.605 95.8109H27.605V97.0121H29.605H31.605V95.8109H29.605ZM29.605 97.0121V95.0121H28.8368V97.0121V99.0121H29.605V97.0121ZM29.2198 95.4258V97.4258H30.7813V95.4258V93.4258H29.2198V95.4258ZM30.7813 95.4258H28.7813V96.1937H30.7813H32.7813V95.4258H30.7813ZM30.7813 96.1937V94.1937H29.2198V96.1937V98.1937H30.7813V96.1937ZM29.2198 96.1937H31.2198V95.4258H29.2198H27.2198V96.1937H29.2198ZM33.9068 95.4258V97.4258H37.0299V95.4258V93.4258H33.9068V95.4258ZM37.0299 95.4258H35.0299V96.1937H37.0299H39.0299V95.4258H37.0299ZM37.0299 96.1937V94.1937H33.9068V96.1937V98.1937H37.0299V96.1937ZM33.9068 96.1937H35.9068V95.4258H33.9068H31.9068V96.1937H33.9068ZM40.153 95.4258V97.4258H43.2761V95.4258V93.4258H40.153V95.4258ZM43.2761 95.4258H41.2762V96.1937H43.2761H45.2761V95.4258H43.2761ZM43.2761 96.1937V94.1937H40.153V96.1937V98.1937H43.2761V96.1937ZM40.153 96.1937H42.153V95.4258H40.153H38.153V96.1937H40.153ZM46.3993 95.4258V97.4258H49.5247V95.4258V93.4258H46.3993V95.4258ZM49.5247 95.4258H47.5247V96.1937H49.5247H51.5247V95.4258H49.5247ZM49.5247 96.1937V94.1937H46.3993V96.1937V98.1937H49.5247V96.1937ZM46.3993 96.1937H48.3993V95.4258H46.3993H44.3993V96.1937H46.3993ZM103.803 112.722V114.722H104.189V112.722V110.722H103.803V112.722ZM104.189 112.722H106.189V112.337H104.189H102.189V112.722H104.189ZM104.189 112.337V110.337H103.803V112.337V114.337H104.189V112.337ZM103.803 112.337H101.803V112.722H103.803H105.803V112.337H103.803ZM103.803 204.194V202.194H103.42V204.194V206.194H103.803V204.194ZM103.42 204.194H101.42V204.577H103.42H105.42V204.194H103.42ZM103.42 204.577V206.577H103.803V204.577V202.577H103.42V204.577ZM103.803 204.577H105.803V204.194H103.803H101.803V204.577H103.803ZM158.396 204.194H156.396V204.577H158.396H160.396V204.194H158.396ZM158.396 204.577V206.577H158.781V204.577V202.577H158.396V204.577ZM158.781 204.577H160.781V204.194H158.781H156.781V204.577H158.781ZM158.781 204.194V202.194H158.396V204.194V206.194H158.781V204.194ZM158.396 184.592L156.664 183.592L154.444 187.436L156.176 188.436L157.908 189.436L160.128 185.592L158.396 184.592ZM156.176 188.436V190.436H160.616V188.436V186.436H156.176V188.436ZM160.616 188.436L162.348 187.436L160.128 183.592L158.396 184.592L156.664 185.592L158.884 189.436L160.616 188.436ZM85.7341 113.105V115.105H103.803V113.105V111.105H85.7341V113.105ZM103.803 113.105H105.803V112.337H103.803H101.803V113.105H103.803ZM103.803 112.337V110.337H85.7341V112.337V114.337H103.803V112.337ZM85.7341 112.337H83.7341V113.105H85.7341H87.7341V112.337H85.7341ZM103.42 112.722H101.42V204.194H103.42H105.42V112.722H103.42ZM103.42 204.194V206.194H104.189V204.194V202.194H103.42V204.194ZM104.189 204.194H106.189V112.722H104.189H102.189V204.194H104.189ZM104.189 112.722V110.722H103.42V112.722V114.722H104.189V112.722ZM103.803 204.577V206.577H158.396V204.577V202.577H103.803V204.577ZM158.396 204.577H160.396V203.809H158.396H156.396V204.577H158.396ZM158.396 203.809V201.809H103.803V203.809V205.809H158.396V203.809ZM103.803 203.809H101.803V204.577H103.803H105.803V203.809H103.803ZM158.781 204.194H160.781V188.049H158.781H156.781V204.194H158.781ZM158.781 188.049V186.049H158.011V188.049V190.049H158.781V188.049ZM158.011 188.049H156.011V204.192H158.011H160.011V188.049H158.011ZM158.011 204.192L158.005 206.192L158.775 206.194L158.781 204.194L158.787 202.194L158.017 202.192L158.011 204.192ZM217.985 112.722V114.722H218.371V112.722V110.722H217.985V112.722ZM218.371 112.722H220.371V112.337H218.371H216.371V112.722H218.371ZM218.371 112.337V110.337H217.985V112.337V114.337H218.371V112.337ZM217.985 112.337H215.985V112.722H217.985H219.985V112.337H217.985ZM217.985 204.194V202.194H217.6V204.194V206.194H217.985V204.194ZM217.6 204.194H215.6V204.577H217.6H219.6V204.194H217.6ZM217.6 204.577V206.577H217.985V204.577V202.577H217.6V204.577ZM217.985 204.577H219.985V204.194H217.985H215.985V204.577H217.985ZM275.653 204.194H273.653V204.577H275.653H277.653V204.194H275.653ZM275.653 204.577V206.577H276.038V204.577V202.577H275.653V204.577ZM276.038 204.577H278.038V204.194H276.038H274.038V204.577H276.038ZM276.038 204.194V202.194H275.653V204.194V206.194H276.038V204.194ZM275.653 184.207L273.921 183.207L271.702 187.051L273.434 188.051L275.166 189.051L277.385 185.207L275.653 184.207ZM273.434 188.051V190.051H277.873V188.051V186.051H273.434V188.051ZM277.873 188.051L279.605 187.051L277.385 183.207L275.653 184.207L273.921 185.207L276.141 189.051L277.873 188.051ZM200.461 113.105V115.105H217.985V113.105V111.105H200.461V113.105ZM217.985 113.105H219.985V112.337H217.985H215.985V113.105H217.985ZM217.985 112.337V110.337H200.461V112.337V114.337H217.985V112.337ZM200.461 112.337H198.461V113.105H200.461H202.461V112.337H200.461ZM217.6 112.722H215.6V204.194H217.6H219.6V112.722H217.6ZM217.6 204.194V206.194H218.371V204.194V202.194H217.6V204.194ZM218.371 204.194H220.371V112.722H218.371H216.371V204.194H218.371ZM218.371 112.722V110.722H217.6V112.722V114.722H218.371V112.722ZM217.985 204.577V206.577H275.653V204.577V202.577H217.985V204.577ZM275.653 204.577H277.653V203.809H275.653H273.653V204.577H275.653ZM275.653 203.809V201.809H217.985V203.809V205.809H275.653V203.809ZM217.985 203.809H215.985V204.577H217.985H219.985V203.809H217.985ZM276.038 204.194H278.038V187.666H276.038H274.038V204.194H276.038ZM276.038 187.666V185.666H275.268V187.666V189.666H276.038V187.666ZM275.268 187.666H273.268V204.194H275.268H277.268V187.666H275.268ZM275.268 204.194V206.194H276.038V204.194V202.194H275.268V204.194ZM71.1252 26.2445H73.1252V25.8594H71.1252H69.1252V26.2445H71.1252ZM71.1252 25.8594V23.8594H70.7399V25.8594V27.8594H71.1252V25.8594ZM70.7399 25.8594H68.7399V26.2445H70.7399H72.7399V25.8594H70.7399ZM70.7399 26.2445V28.2445H71.1252V26.2445V24.2445H70.7399V26.2445ZM118.027 26.2445V28.2445H118.412V26.2445V24.2445H118.027V26.2445ZM118.412 26.2445H120.412V25.8594H118.412H116.412V26.2445H118.412ZM118.412 25.8594V23.8594H118.027V25.8594V27.8594H118.412V25.8594ZM118.027 25.8594H116.027V26.2445H118.027H120.027V25.8594H118.027ZM118.027 120.791V118.791H117.642V120.791V122.791H118.027V120.791ZM117.642 120.791H115.642V121.176H117.642H119.642V120.791H117.642ZM117.642 121.176V123.176H118.027V121.176V119.176H117.642V121.176ZM118.027 121.176H120.027V120.791H118.027H116.027V121.176H118.027ZM134.943 120.791L135.943 119.059L132.1 116.84L131.1 118.572L130.1 120.304L133.943 122.523L134.943 120.791ZM131.1 118.572H129.1V123.012H131.1H133.1V118.572H131.1ZM131.1 123.012L132.101 124.744L135.944 122.522L134.943 120.791L133.942 119.059L130.099 121.281L131.1 123.012ZM71.5081 53.1477H73.5081V26.2445H71.5081H69.5081V53.1477H71.5081ZM71.5081 26.2445V24.2445H70.7399V26.2445V28.2445H71.5081V26.2445ZM70.7399 26.2445H68.7399V53.1477H70.7399H72.7399V26.2445H70.7399ZM70.7399 53.1477V55.1477H71.5081V53.1477V51.1477H70.7399V53.1477ZM71.1252 26.6296V28.6296H118.027V26.6296V24.6296H71.1252V26.6296ZM118.027 26.6296H120.027V25.8594H118.027H116.027V26.6296H118.027ZM118.027 25.8594V23.8594H71.1252V25.8594V27.8594H118.027V25.8594ZM71.1252 25.8594H69.1252V26.6296H71.1252H73.1252V25.8594H71.1252ZM117.642 26.2445H115.642V120.791H117.642H119.642V26.2445H117.642ZM117.642 120.791V122.791H118.412V120.791V118.791H117.642V120.791ZM118.412 120.791H120.412V26.2445H118.412H116.412V120.791H118.412ZM118.412 26.2445V24.2445H117.642V26.2445V28.2445H118.412V26.2445ZM118.027 121.176V123.176H131.483V121.176V119.176H118.027V121.176ZM131.483 121.176H133.483V120.408H131.483H129.483V121.176H131.483ZM131.483 120.408V118.408H118.027V120.408V122.408H131.483V120.408ZM118.027 120.408H116.027V121.176H118.027H120.027V120.408H118.027Z" fill="white" mask="url(#path-14-inside-1_2566_218)"/>
<path d="M71.1273 53.582L59.0117 69.7226V115.511M71.1273 53.582L83.4295 69.7226L83.4295 115.511" stroke="white" stroke-width="2"/>
<path d="M317.865 26.6758L317.406 26.9404V26.4102L317.865 26.6758Z" stroke="white" stroke-width="2"/>
<path d="M304.105 53.1953L291.418 69.3381V115.509M304.105 53.1953L316.408 69.3381V115.509" stroke="white" stroke-width="2"/>
<path d="M248.275 121.22L247.817 121.484V120.955L248.275 121.22Z" fill="white" stroke="white" stroke-width="2"/>
<path d="M186.458 53.1953L173.219 69.3381V115.509M186.458 53.1953L198.763 69.3381V115.509" stroke="white" stroke-width="2"/>
<path d="M37.2129 238.062L36.3701 238.549V237.574L37.2129 238.062ZM2.8457 156.301L2.00098 155.813L2.8457 155.326V156.301ZM120.487 156.301L119.643 155.813L120.487 155.326V156.301ZM18.7607 122.761L17.916 123.249V122.273L18.7607 122.761ZM337.854 112L337.395 112.266V111.734L337.854 112Z" stroke="white" stroke-width="2"/>
<mask id="path-22-inside-2_2566_218" fill="white">
<path d="M42.3074 183.219L40.9531 186.24H43.6617L42.3074 183.219ZM42.3074 254.544L43.6617 251.521H40.9531L42.3074 254.544ZM42.0738 185.937V251.824H42.5425V185.939L42.0738 185.937Z"/>
</mask>
<path d="M42.3074 183.219L44.1324 182.401L42.3074 178.329L40.4824 182.401L42.3074 183.219ZM40.9531 186.24L39.1281 185.422L37.8648 188.24H40.9531V186.24ZM43.6617 186.24V188.24H46.75L45.4867 185.422L43.6617 186.24ZM42.3074 254.544L40.4822 255.362L42.3074 259.436L44.1326 255.362L42.3074 254.544ZM43.6617 251.521L45.4869 252.339L46.7492 249.521H43.6617V251.521ZM40.9531 251.521V249.521H37.8656L39.1279 252.339L40.9531 251.521ZM42.0738 185.937L42.0815 183.937L40.0738 183.929V185.937H42.0738ZM42.0738 251.824H40.0738V253.824H42.0738V251.824ZM42.5425 251.824V253.824H44.5425V251.824H42.5425ZM42.5425 185.939H44.5425V183.947L42.5501 183.939L42.5425 185.939ZM42.3074 183.219L40.4824 182.401L39.1281 185.422L40.9531 186.24L42.7782 187.058L44.1324 184.037L42.3074 183.219ZM40.9531 186.24V188.24H43.6617V186.24V184.24H40.9531V186.24ZM43.6617 186.24L45.4867 185.422L44.1324 182.401L42.3074 183.219L40.4824 184.037L41.8367 187.058L43.6617 186.24ZM42.3074 254.544L44.1326 255.362L45.4869 252.339L43.6617 251.521L41.8365 250.704L40.4822 253.727L42.3074 254.544ZM43.6617 251.521V249.521H40.9531V251.521V253.521H43.6617V251.521ZM40.9531 251.521L39.1279 252.339L40.4822 255.362L42.3074 254.544L44.1326 253.727L42.7783 250.704L40.9531 251.521ZM42.0738 185.937H40.0738V251.824H42.0738H44.0738V185.937H42.0738ZM42.0738 251.824V253.824H42.5425V251.824V249.824H42.0738V251.824ZM42.5425 251.824H44.5425V185.939H42.5425H40.5425V251.824H42.5425ZM42.5425 185.939L42.5501 183.939L42.0815 183.937L42.0738 185.937L42.0661 187.937L42.5348 187.939L42.5425 185.939Z" fill="white" mask="url(#path-22-inside-2_2566_218)"/>
<path d="M71.8945 200.398V228.457H304.134V200.832M186.46 200.398V228.457" stroke="white" stroke-width="2"/>
</svg>
