<svg width="458" height="134" viewBox="0 0 458 134" fill="none" xmlns="http://www.w3.org/2000/svg">
<g clip-path="url(#clip0_2606_215)">
<path d="M82.3213 108.538V34.7483C82.3213 28.2062 77.146 24.9726 72.0999 24.9726H46.0334V86.8435C46.0334 88.5623 45.483 90.0364 44.6878 90.7871C41.6907 93.7218 34.4427 99.289 34.4427 99.289C34.4427 99.289 65.1237 111.436 72.8543 114.438C78.3557 116.507 82.3213 112.75 82.3213 108.538ZM107.929 29.1064L107.98 103.732C107.98 108.253 107.623 110.512 105.618 112.591C103.563 114.724 73.1975 131.884 68.8038 133.052C63.6524 134.448 60.2033 134.265 56.197 132.747C51.297 130.97 41.3305 126.561 30.8373 122.135C24.9077 119.669 21.2073 119.632 17.6767 119.632C8.30145 119.632 1.70582 124.955 1.70582 124.955C1.70582 124.955 6.2864 116.561 18.081 109.625C20.1607 108.423 20.7757 106.915 20.7757 102.93V40.8657C20.7757 40.8657 35.5878 28.8992 37.5859 27.0615C39.2475 25.533 38.3267 24.8503 37.0592 24.8503C33.0053 24.8503 29.6548 24.8842 25.482 24.8842C19.8107 24.8842 14.8359 21.209 12.8039 18.8211C5.87184 10.7438 0 -1.26269e-05 0 -1.26269e-05C0 -1.26269e-05 10.1636 5.5604 21.4383 5.5604H81.5125C96.9805 5.5604 107.929 17.0616 107.929 29.1064ZM138.532 33.9433C138.532 33.9433 141.4 37.5336 148.094 37.5336H175.866C180.613 37.5336 185.571 39.4697 185.571 45.1082V97.7164C185.571 104.832 191.983 106.008 198.875 104.591C193.954 112.268 185.031 122.94 180.386 122.94C173.98 122.94 162.094 113.226 162.094 100.617C162.094 100.617 140.02 117.968 133.605 122.567C131.994 123.711 130.771 123.902 129.534 122.444C126.017 118.355 115.119 106.144 115.119 89.5201C115.119 64.4355 134.991 56.0252 162.094 55.2915C162.094 51.083 161.051 47.9649 155.271 47.9649C145.42 47.9649 143.558 48.7936 136.364 48.7936C127.257 48.7936 119.938 41.022 119.938 41.022L138.532 33.9433ZM162.094 61.9491C143.959 63.233 137.074 75.3253 137.074 87.5806C137.074 97.9338 143.592 102.173 143.592 102.173C148.512 98.6403 159.926 90.8482 161.19 90.0364C162.437 89.2959 162.07 87.2613 162.07 85.2165L162.094 61.9491ZM270.961 47.0172C266.516 42.4011 259.404 37.4487 254.433 35.9303C252.149 35.2238 250.702 35.3699 247.66 36.5044C240.766 39.0349 228.788 46.8337 228.788 46.8337C228.788 46.8337 224.703 39.1878 217.703 37.6457C215.009 36.9731 212.858 36.3108 210.825 38.0431C208.726 39.7754 195.062 52.7372 195.062 52.7372C195.062 52.7372 205.562 51.8099 205.562 62.9715V100.556C205.562 114.224 220.507 123.47 223.014 123.47C225.199 123.47 235.587 114.734 241.483 106.69C235.23 107.635 229.131 106.891 229.131 100.176L229.073 58.3723C229.073 54.0008 235.115 50.3018 238.241 50.3018C242.665 50.3018 249.054 57.8696 249.054 63.43C249.054 63.43 249.101 99.0649 249.101 100.556C249.101 114.224 263.961 123.47 266.448 123.47C268.64 123.47 279.028 114.734 284.93 106.69C278.674 107.635 272.602 106.891 272.602 100.176L272.568 58.5354C272.568 53.6102 279.181 50.4954 281.736 50.4954C286.137 50.4954 292.508 57.676 292.508 63.43C292.508 63.43 292.484 99.0649 292.484 100.556C292.484 114.224 307.5 123.47 309.954 123.47C312.166 123.47 322.533 114.734 328.453 106.69C322.193 107.635 316.094 106.891 316.094 100.176L316.053 57.3533C316.053 51.1917 314.534 48.4404 312.257 46.151C307.986 41.8474 302.328 37.5438 297.187 35.7945C295.019 35.0166 293.16 35.3699 290.119 36.5044C283.177 39.0349 270.961 47.0172 270.961 47.0172ZM400.505 47.0172C400.505 47.0172 412.758 39.0349 419.677 36.5044C422.691 35.3699 424.563 35.0166 426.751 35.7945C431.893 37.5438 437.537 41.8474 441.808 46.151C444.068 48.4404 445.56 51.1917 445.56 57.3533L445.638 100.176C445.638 106.891 451.714 107.635 458 106.69C452.091 114.734 441.723 123.446 439.487 123.446C437.01 123.446 422.018 114.224 422.018 100.556C422.018 99.0547 422.076 63.43 422.076 63.43C422.076 57.676 415.667 50.4954 411.263 50.4954C408.779 50.4954 402.099 53.6102 402.099 58.5354L402.143 100.176C402.143 106.891 408.252 107.635 414.501 106.69C408.589 114.734 398.181 123.47 396.006 123.47C393.539 123.47 378.655 114.224 378.655 100.556C378.655 99.0649 378.591 63.43 378.591 63.43C378.591 57.8696 372.23 50.3018 367.812 50.3018C364.703 50.3018 358.651 54.0008 358.651 58.3723L358.668 100.176C358.668 106.891 364.754 107.635 371.064 106.69C365.172 114.734 354.74 123.47 352.558 123.47C350.074 123.47 335.072 114.224 335.072 100.556L335.038 62.9715C335.038 51.8099 324.606 52.7372 324.606 52.7372C324.606 52.7372 338.307 39.7754 340.339 38.0431C342.442 36.3108 344.525 36.9731 347.291 37.6457C354.278 39.1878 358.325 46.8337 358.325 46.8337C358.325 46.8337 370.313 39.0349 377.194 36.5044C380.249 35.3699 381.741 35.2238 383.97 35.9303C388.969 37.4487 396.098 42.4011 400.505 47.0172Z" fill="#DE252A"/>
</g>
<defs>
<clipPath id="clip0_2606_215">
<rect width="458" height="134" fill="white"/>
</clipPath>
</defs>
</svg>
