<svg width="528" height="95" viewBox="0 0 528 95" fill="none" xmlns="http://www.w3.org/2000/svg">
<path d="M50.4666 0.597656L61.3289 33.6489H61.6393L50.7769 0.597656H50.4666ZM97.8735 38.0708L97.5631 38.3042L69.4775 58.7874L80.1834 91.995L80.2604 92.2284L80.4938 92.0745L69.8673 58.8644L97.948 38.3067L97.8735 38.0708ZM48.1427 74.382L19.9727 94.7112L20.211 94.8652L48.2966 74.4564L48.1427 74.382Z" fill="black"/>
<path d="M208.56 50.3443C208.56 53.5348 207.182 54.4857 202.011 56.2907C197.872 57.8474 194.686 58.5352 193.735 58.5352C192.01 58.5352 191.238 57.2416 191.238 54.5676C191.238 48.1917 193.045 40.4329 199.771 40.4329C205.978 40.4329 208.56 47.1564 208.56 50.3443ZM141.321 78.1891C141.321 77.6677 141.239 77.3301 140.983 77.0694C140.29 76.3742 137.706 75.9496 136.415 74.6536C135.471 73.7027 134.86 72.069 134.86 68.2777V53.7036C134.86 52.5838 135.121 51.8961 136.241 51.8961H151.071C152.19 51.8961 152.449 52.5814 152.449 53.7061V68.2777C152.449 72.069 151.848 73.7052 150.897 74.6536C149.606 75.9447 147.019 76.3742 146.329 77.0694C146.068 77.3301 145.983 77.6702 145.983 78.1866C145.983 80.4261 146.331 82.6756 146.671 83.0132C147.019 83.3608 147.535 83.4452 148.657 83.4452H172.877C173.997 83.4452 174.516 83.3633 174.859 83.0132C175.206 82.6731 175.554 80.4261 175.554 78.1891C175.554 77.6677 175.459 77.3301 175.206 77.0694C174.6 76.4685 171.929 75.9496 170.633 74.6536C169.689 73.7027 169.17 71.8952 169.17 68.963V28.7066C169.17 26.6384 169.692 25.2555 170.461 24.4858C171.842 23.1054 174.6 22.8447 175.204 22.2389C175.462 21.9807 175.551 21.4667 175.551 21.0347C175.551 19.483 175.204 17.1566 174.859 16.8114C174.511 16.4639 174.171 16.377 172.877 16.377H149.514C148.571 16.377 148.223 16.4663 147.965 16.7246C147.706 16.9852 147.446 18.7952 147.446 21.1191C147.446 21.5487 147.533 22.0676 147.706 22.2364C148.134 22.6734 150.294 23.3636 151.158 24.2227C152.101 25.1736 152.449 26.2089 152.449 29.1386V40.6018C152.449 41.0338 152.014 41.6346 151.413 41.6346H135.896C135.29 41.6346 134.86 41.0338 134.86 40.6018V29.1386C134.86 26.2089 135.208 25.1736 136.154 24.2227C137.018 23.3611 139.171 22.6734 139.605 22.2364C139.779 22.0701 139.863 21.5511 139.863 21.1191C139.863 18.7927 139.603 16.9828 139.344 16.7246C139.086 16.4663 138.739 16.377 137.793 16.377H114.432C113.141 16.377 112.793 16.4663 112.446 16.8114C112.105 17.1566 111.758 19.483 111.758 21.0322C111.758 21.4667 111.845 21.9807 112.105 22.2389C112.709 22.8447 115.467 23.1054 116.848 24.4858C117.62 25.2555 118.139 26.6384 118.139 28.7066V68.963C118.139 71.8927 117.62 73.7027 116.674 74.6536C115.383 75.9447 112.709 76.466 112.105 77.0694C111.845 77.3301 111.758 77.6702 111.758 78.1866C111.758 80.4261 112.105 82.6756 112.446 83.0132C112.793 83.3608 113.141 83.4452 114.432 83.4452H138.654C139.774 83.4452 140.293 83.3633 140.64 83.0132C140.983 82.6731 141.321 80.4261 141.321 78.1891ZM221.409 76.98C223.907 74.4823 224.515 73.0124 224.515 71.8058C224.515 70.5123 224.167 69.4769 223.134 68.4441C222.01 67.3243 221.066 67.1505 220.2 67.1505C218.993 67.1505 218.474 67.4956 217.702 68.2752C213.908 72.0665 209.079 74.1322 203.217 74.1322C197.271 74.1322 193.562 70.1696 193.562 67.6669C193.562 66.9817 194.167 66.3734 195.714 65.9439C212.27 60.7722 219.164 57.326 221.749 54.7364C223.214 53.3585 223.817 51.7198 223.817 50.255C223.817 43.7003 214.34 32.0683 199.769 32.0683C193.735 32.0683 187.615 34.4767 183.047 39.0451C178.479 43.6184 175.633 50.0787 175.633 58.8753C175.633 67.3218 178.307 73.1862 182.962 77.8415C187.618 82.4968 194.341 84.8232 201.67 84.8232C209.169 84.8232 216.24 82.1542 221.409 76.9775M248.392 34.9981C248.392 33.8808 247.786 33.4463 246.84 33.4463H230.201C229.252 33.4463 228.909 33.4463 228.646 33.7939C228.304 34.139 227.964 36.4654 227.964 38.0197C227.964 38.4492 228.137 38.7893 228.304 39.05C228.909 39.8247 230.201 40.0854 231.323 41.0338C232.097 41.8084 232.445 43.4496 232.445 45.9473V68.963C232.445 71.8977 232.097 73.7921 231.233 74.6561C229.942 75.9471 227.785 76.5529 227.186 77.1538C227.015 77.3325 226.926 77.6727 226.926 78.2785C226.926 80.518 227.273 82.6731 227.613 83.0157C227.874 83.2739 228.301 83.4477 229.252 83.4477H251.409C252.355 83.4477 252.787 83.2739 253.047 83.0157C253.39 82.6756 253.648 80.518 253.648 78.2785C253.648 77.6727 253.564 77.3325 253.39 77.1538C252.787 76.5529 250.803 75.9521 249.512 74.6561C248.653 73.7921 248.395 71.8977 248.395 68.9655L248.392 34.9981ZM239.166 13.2734C234.426 13.2734 230.546 16.9852 230.546 21.6405C230.546 26.3802 234.426 30.0895 239.166 30.0895C243.995 30.0895 247.876 26.3802 247.876 21.6405C247.876 16.9828 243.998 13.2734 239.166 13.2734ZM305.979 46.8088C305.979 37.1507 300.978 32.2421 293.132 32.2421C289.423 32.2421 285.461 33.4463 281.493 35.8621C280.113 36.7261 279.683 36.9794 279.338 36.9794C277.957 36.9794 278.906 33.4438 276.408 33.4438H261.238C260.285 33.4438 260.029 33.4438 259.684 33.7914C259.252 34.2234 258.909 36.4629 258.909 38.0172C258.909 38.4467 258.996 38.7868 259.257 39.0475C259.942 39.7402 261.238 39.9985 262.271 41.0313C263.051 41.8059 263.388 43.4471 263.388 45.9448V68.9605C263.388 71.8952 263.13 73.7896 262.271 74.6536C261.064 75.8578 258.996 76.5505 258.393 77.1538C258.222 77.3276 258.132 77.6702 258.132 78.276C258.132 80.5155 258.393 82.6706 258.74 83.0132C258.999 83.2714 259.513 83.4452 260.464 83.4452H282.188C283.221 83.4452 283.564 83.2714 283.819 83.0132C284.256 82.5837 284.599 80.5155 284.599 78.276C284.599 77.6702 284.512 77.3301 284.338 77.1538C283.653 76.4685 281.669 75.8602 280.46 74.6536C279.599 73.7896 279.169 71.8952 279.169 68.963V51.9805C279.169 45.0013 283.042 42.8438 285.89 42.8438C288.822 42.8438 290.461 45.0013 290.461 49.5672V73.4519C290.461 79.8278 294.513 84.051 301.84 84.051C309.941 84.051 313.387 78.1916 313.387 76.9825C313.387 75.9496 311.754 73.879 310.718 73.879C309.509 73.879 307.788 75.4307 306.924 75.4307C306.324 75.4307 305.981 74.9987 305.981 73.6183V46.8113L305.979 46.8088ZM465.715 76.98C468.216 74.4823 468.819 73.0124 468.819 71.8058C468.819 70.5123 468.471 69.4769 467.438 68.4441C466.321 67.3243 465.363 67.1505 464.509 67.1505C463.3 67.1505 462.783 67.4956 462.006 68.2752C458.212 72.0665 453.383 74.1322 447.521 74.1322C441.575 74.1322 437.866 70.1696 437.866 67.6669C437.866 66.9817 438.469 66.3734 440.021 65.9439C456.574 60.7722 463.468 57.326 466.056 54.7364C467.52 53.3585 468.124 51.7198 468.124 50.255C468.124 43.7003 458.642 32.0683 444.07 32.0683C438.032 32.0683 431.914 34.4767 427.346 39.05C422.778 43.6184 419.935 50.0812 419.935 58.8778C419.935 67.3243 422.606 73.1887 427.262 77.844C431.917 82.4993 438.64 84.8257 445.967 84.8257C453.473 84.8257 460.544 82.1542 465.715 76.98ZM452.869 50.3443C452.869 53.5348 451.489 54.4857 446.317 56.2907C442.178 57.8474 438.988 58.5352 438.037 58.5352C436.316 58.5352 435.539 57.2416 435.539 54.5676C435.539 48.1868 437.352 40.4305 444.075 40.4305C450.282 40.4305 452.869 47.1564 452.869 50.3443ZM359.766 76.98C362.264 74.4823 362.875 73.0124 362.875 71.8058C362.875 70.5123 362.527 69.4769 361.492 68.4441C360.375 67.3243 359.426 67.1505 358.562 67.1505C357.348 67.1505 356.837 67.4956 356.059 68.2752C352.268 72.0665 347.437 74.1322 341.575 74.1322C335.628 74.1322 331.919 70.1696 331.919 67.6669C331.919 66.9817 332.525 66.3734 334.079 65.9439C350.627 60.7722 357.522 57.326 360.106 54.7364C361.576 53.3585 362.177 51.7198 362.177 50.255C362.177 43.7003 352.698 32.0683 338.124 32.0683C332.09 32.0683 325.97 34.4767 321.404 39.05C316.838 43.6234 313.991 50.0812 313.991 58.8778C313.991 67.3243 316.662 73.1887 321.315 77.844C325.973 82.4993 332.699 84.8257 340.025 84.8257C347.526 84.8257 354.599 82.1542 359.766 76.98ZM346.925 50.3443C346.925 53.5348 345.542 54.4857 340.373 56.2907C336.232 57.8474 333.049 58.5352 332.095 58.5352C330.37 58.5352 329.598 57.2416 329.598 54.5676C329.598 48.1868 331.41 40.4305 338.129 40.4305C344.336 40.4305 346.925 47.1564 346.925 50.3443ZM519.501 46.8088C519.501 37.1507 514.505 32.2397 506.664 32.2397C502.955 32.2397 498.988 33.4438 495.025 35.8621C493.642 36.7236 493.208 36.9794 492.87 36.9794C491.49 36.9794 492.435 33.4438 489.94 33.4438H474.765C473.817 33.4438 473.559 33.4438 473.213 33.7914C472.781 34.2234 472.439 36.4654 472.439 38.0197C472.439 38.4467 472.526 38.7893 472.786 39.05C473.474 39.7427 474.768 40.0009 475.803 41.0338C476.578 41.8084 476.923 43.4496 476.923 45.9473V68.963C476.923 71.8977 476.665 73.7921 475.806 74.6561C474.594 75.8602 472.528 76.5529 471.925 77.1538C471.754 77.3325 471.667 77.6727 471.667 78.2785C471.667 80.518 471.925 82.6731 472.263 83.0157C472.528 83.2739 473.045 83.4477 473.993 83.4477H495.713C496.751 83.4477 497.096 83.2739 497.356 83.0157C497.788 82.5837 498.129 80.518 498.129 78.2785C498.129 77.6727 498.047 77.3325 497.87 77.1538C497.183 76.471 495.199 75.8602 493.992 74.6561C493.128 73.7921 492.694 71.8977 492.694 68.963V51.9855C492.694 45.0038 496.577 42.8487 499.425 42.8487C502.359 42.8487 503.993 45.0038 503.993 49.5672V73.4519C503.993 79.8303 508.047 84.0535 515.374 84.0535C523.478 84.0535 526.924 78.1941 526.924 76.985C526.924 75.9521 525.286 73.8814 524.253 73.8814C523.046 73.8814 521.323 75.4332 520.461 75.4332C519.856 75.4332 519.506 75.0012 519.506 73.6207V46.8063H519.501V46.8088ZM384.162 14.8277H367.612C366.574 14.8277 366.142 14.8277 365.891 15.2622C365.544 15.6892 365.281 17.8443 365.281 19.3092C365.281 19.8281 365.372 20.1732 365.541 20.5158C366.142 21.1216 368.476 21.7225 369.509 22.7578C370.368 23.6218 370.802 25.3449 370.802 31.8921V66.3759C370.802 72.1559 370.202 73.9659 369.511 74.6536C368.302 75.8578 366.236 76.5505 365.631 77.1513C365.462 77.3301 365.372 77.6702 365.372 78.276C365.372 80.5155 365.631 82.6706 365.973 83.0132C366.234 83.2714 366.574 83.4452 367.699 83.4452H389.337C390.456 83.4452 390.801 83.2714 391.057 83.0132C391.405 82.6731 391.832 80.5155 391.832 78.276C391.832 77.6702 391.75 77.3301 391.487 77.1513C390.886 76.5505 388.815 75.8578 387.693 74.6536C386.749 73.7896 386.402 71.8952 386.402 68.9605V66.9817C386.402 65.8619 386.749 65.5119 388.644 63.6175C389.503 62.8453 390.278 62.2445 390.883 62.2445C391.747 62.2445 392.433 62.8453 401.914 81.9804C402.515 83.187 402.776 83.4452 404.328 83.4452H418.381C419.413 83.4452 419.761 83.2714 420.019 83.0132C420.362 82.6731 420.707 80.5155 420.707 78.276C420.707 77.6702 420.622 77.3301 420.449 77.1513C419.845 76.5505 416.228 76.1185 415.448 74.6536C402.952 53.5348 402.602 52.8421 402.602 51.551C402.602 50.4312 408.122 44.9144 412.687 41.2945C415.622 38.9656 417.514 40.5149 417.514 37.759C417.514 34.5685 417.084 33.4438 416.479 33.4438H395.623C393.811 33.4438 393.639 34.4792 393.639 38.3598C393.639 39.6509 397.257 39.8247 397.257 41.6321C397.257 43.1839 388.468 51.6354 387.003 51.6354C386.481 51.6354 386.394 51.2878 386.394 49.823V17.2385C386.404 15.8605 385.453 14.8277 384.16 14.8277" fill="#00A650"/>
<path d="M48.0797 1.30469L59.5255 36.1088L96.1594 36.2379L66.5941 57.8756L77.7941 92.7592L48.0797 71.33L18.3654 92.7567L29.5654 57.8731L0 36.2404L36.6364 36.1113L48.0797 1.30469Z" fill="#FF0000"/>
<path d="M519.547 13.0117C520.994 13.0117 522.387 13.3767 523.72 14.1042C525.042 14.8187 526.13 15.8987 526.854 17.2151C527.618 18.5683 528.001 19.9835 528.001 21.4607C527.999 22.9411 527.61 24.3952 526.873 25.679C526.148 26.9934 525.065 28.0754 523.75 28.7999C522.468 29.5312 521.018 29.9158 519.542 29.9158C518.066 29.9158 516.615 29.5312 515.333 28.7999C514.023 28.0691 512.942 26.9886 512.21 25.679C511.482 24.3931 511.099 22.9409 511.098 21.4632C511.098 19.9835 511.478 18.5683 512.235 17.2151C513.004 15.862 514.047 14.8242 515.378 14.1042C516.653 13.3905 518.086 13.0145 519.547 13.0117ZM519.559 14.6678C518.389 14.6685 517.239 14.9676 516.217 15.5367C515.15 16.1202 514.305 16.9519 513.687 18.0444C513.093 19.0795 512.778 20.2516 512.774 21.4454C512.77 22.6391 513.077 23.8133 513.665 24.8523C514.266 25.9273 515.105 26.764 516.182 27.3674C517.208 27.9601 518.372 28.2722 519.557 28.2722C520.741 28.2722 521.905 27.9601 522.931 27.3674C523.989 26.7815 524.861 25.91 525.448 24.8523C526.052 23.7772 526.355 22.65 526.355 21.4657C526.355 20.274 526.044 19.1319 525.426 18.0444C524.844 16.9815 523.966 16.1104 522.898 15.5367C521.877 14.9677 520.728 14.6686 519.559 14.6678ZM515.731 25.9869V17.0165H517.55C519.259 17.0165 520.212 17.0239 520.418 17.0388C521.021 17.0885 521.488 17.2126 521.818 17.4038C522.175 17.605 522.466 17.9039 522.658 18.2654C522.887 18.652 523.006 19.0944 523 19.544C523.011 20.1608 522.782 20.7576 522.36 21.2075C521.94 21.6668 521.347 21.9499 520.584 22.0591C520.81 22.1384 521.022 22.2541 521.21 22.4017C521.362 22.5209 521.56 22.7493 521.818 23.087C521.883 23.1764 522.106 23.5389 522.481 24.1794L523.542 25.9894H521.29L520.54 24.5345C520.033 23.5562 519.611 22.943 519.281 22.6922C518.918 22.4246 518.475 22.2888 518.025 22.3074H517.553V25.9919H515.731M517.55 20.8897H518.288C519.341 20.8897 519.994 20.8475 520.242 20.7655C520.482 20.6951 520.693 20.5485 520.842 20.3479C520.992 20.1472 521.072 19.9035 521.071 19.6532C521.076 19.4131 520.997 19.1788 520.848 18.9903C520.7 18.7845 520.486 18.6355 520.242 18.5683C519.979 18.4838 519.326 18.4392 518.288 18.4392H517.55V20.8897Z" fill="#00A650"/>
</svg>
