<svg width="284" height="253" viewBox="0 0 284 253" fill="none" xmlns="http://www.w3.org/2000/svg">
<g filter="url(#filter0_d_2567_246)">
<g filter="url(#filter1_d_2567_246)">
<path d="M253.081 226.175H218.562C218.055 226.171 217.554 226.079 217.088 225.906C216.621 225.733 216.199 225.482 215.844 225.167C215.49 224.852 215.21 224.479 215.021 224.069C214.832 223.66 214.737 223.222 214.743 222.78C214.743 220.91 216.444 219.389 218.562 219.389H253.081C255.009 219.376 272.325 218.796 272.325 202.383V23.7985C272.287 22.0666 271.644 6.78917 253.081 6.78917H30.9194C28.9534 6.80234 11.6373 7.38517 11.6373 23.7985V202.383C11.6751 204.111 12.3178 219.396 30.9194 219.396H130.695C132.813 219.396 134.514 220.913 134.514 222.787C134.514 224.657 132.813 226.178 130.695 226.178H30.9194C9.5956 226.178 4 210.614 4 202.386V23.7952C4 4.975 21.5808 0 30.9194 0H253.081C274.367 0 280 15.5638 280 23.7952V202.38C280 221.197 262.381 226.168 253.081 226.168V226.175Z" fill="white"/>
</g>
<g filter="url(#filter2_d_2567_246)">
<path d="M248.434 159.368H225.446C223.329 159.368 221.628 157.85 221.628 155.976C221.628 154.106 223.329 152.585 225.446 152.585H244.577V32.0086H39.3164V152.592H78.2969C80.4142 152.592 82.1152 154.109 82.1152 155.983C82.1152 157.853 80.4142 159.374 78.2969 159.374L35.4978 159.371C33.3805 159.371 31.6791 157.853 31.6791 155.976V28.614C31.6791 26.7438 33.3805 25.2227 35.4978 25.2227H248.434C250.551 25.2227 252.252 26.7405 252.252 28.614V155.976C252.252 157.85 250.551 159.368 248.434 159.368ZM244.426 203.392C236.789 203.392 230.588 197.9 230.588 191.147C230.588 184.388 236.789 178.892 244.426 178.892C252.101 178.892 258.302 184.388 258.302 191.147C258.302 197.9 252.101 203.392 244.426 203.392ZM244.426 185.675C241.023 185.675 238.263 188.131 238.263 191.151C238.263 194.163 241.023 196.613 244.426 196.613C247.867 196.613 250.627 194.163 250.627 191.151C250.633 190.436 250.478 189.728 250.169 189.066C249.861 188.404 249.406 187.802 248.83 187.293C248.254 186.784 247.569 186.38 246.813 186.102C246.057 185.825 245.246 185.679 244.426 185.675ZM104.082 193.413H32.8135C30.6963 193.413 28.957 191.891 28.957 190.018C28.957 188.148 30.6963 186.627 32.8135 186.627H104.082C106.199 186.627 107.938 188.144 107.938 190.018C107.901 191.891 106.199 193.413 104.082 193.413Z" fill="white"/>
</g>
<g filter="url(#filter3_d_2567_246)">
<path d="M202.448 244.196C201.941 244.192 201.44 244.101 200.974 243.928C200.508 243.755 200.085 243.504 199.731 243.188C199.376 242.873 199.096 242.5 198.907 242.09C198.718 241.681 198.624 241.243 198.629 240.802V198.891C198.629 197.992 199.008 197.129 199.726 196.491C203.469 193.201 205.51 188.756 205.51 183.979V139.684C205.51 139.526 205.51 139.368 205.548 139.213C205.51 138.838 204.944 137.439 203.998 136.609C203.167 135.76 201.843 135.302 200.558 135.302C199.877 135.302 198.024 135.819 197.117 136.626C196.468 137.353 195.969 138.173 195.642 139.049V145.347C195.642 147.797 193.487 149.796 190.841 149.796C190.174 149.796 189.514 149.68 188.898 149.456C188.283 149.232 187.725 148.903 187.257 148.489C186.789 148.075 186.42 147.584 186.172 147.045C185.924 146.505 185.802 145.928 185.812 145.347V133.172C185.812 133.03 185.85 132.895 185.85 132.757C185.926 132.246 185.283 130.85 184.565 130.284C183.355 129.24 182.22 128.799 180.897 128.799C180.746 128.799 180.595 128.793 180.406 128.773C179.876 128.74 178.516 129.168 177.457 130.11C176.474 130.87 175.945 132.026 175.945 133.168V143.665C175.945 145.953 173.789 147.889 171.181 147.889C168.421 147.889 166.152 145.996 166.152 143.665V128.763C166.152 127.433 165.699 126.396 164.678 125.503C163.714 124.796 162.498 124.401 161.237 124.387C161.085 124.387 160.934 124.378 160.783 124.361C160.292 124.341 158.78 124.739 157.57 125.665C156.776 126.392 156.322 127.377 156.284 127.63V140.31C156.284 142.799 154.091 144.752 151.294 144.752C148.647 144.752 146.492 142.76 146.492 140.31V94.1221C146.492 92.9565 146 91.9259 145.017 91.0633C144.574 90.6452 144.036 90.3118 143.437 90.084C142.839 89.8562 142.193 89.739 141.539 89.7397C141.387 89.7408 141.236 89.7319 141.085 89.7133C140.518 89.6507 139.157 90.1216 138.098 91.0599C137.115 91.9325 136.624 92.9664 136.624 94.1254V164.043C136.624 166.532 134.431 168.484 131.596 168.484C130.348 168.484 129.403 167.997 128.836 167.595L111.481 157.415C108.759 155.768 103.769 155.215 101.16 156.233C100.955 156.318 100.739 156.384 100.517 156.427C100.403 156.49 99.5343 157.029 99.0428 157.546C98.9671 157.648 98.8535 157.744 98.7778 157.836C98.5132 158.07 98.0218 158.877 97.9462 159.357C97.8328 160.743 98.8534 162.495 101.046 164.293L141.01 195.299C142.447 196.557 145.622 198.69 148.382 199.803C149.743 200.356 150.613 201.561 150.613 202.885V240.805C150.613 242.675 148.874 244.196 146.757 244.196C144.639 244.196 142.938 242.678 142.938 240.805V204.933C140.065 203.487 137.267 201.587 135.754 200.241L95.9044 169.321C90.8381 165.152 90.082 161.139 90.3467 158.498C90.7248 156.476 91.859 154.428 93.1823 153.177C94.3922 151.903 96.4338 150.464 98.3242 149.931C103.353 148.08 110.952 148.877 115.754 151.788L128.949 159.532V94.1286C128.949 91.1884 130.272 88.3963 132.692 86.2693C134.809 84.409 138.363 82.697 141.766 82.9702C145.017 83.0196 148.08 84.1885 150.424 86.2628C152.844 88.3865 154.167 91.1818 154.167 94.1286V119.508C156.246 118.319 158.931 117.397 161.426 117.608C164.489 117.657 167.476 118.691 169.895 120.541C171.294 121.76 172.315 123.11 172.958 124.572C174.961 123.093 178.1 121.773 181.124 122.026C184.376 122.079 187.438 123.248 189.783 125.335C191.408 126.573 192.693 128.644 193.261 130.732C195.68 129.244 198.554 128.526 200.558 128.526C204.112 128.526 207.515 129.833 209.632 132.016C211.522 133.672 213.45 137.057 213.186 139.875V183.986C213.186 190.08 210.728 195.796 206.305 200.238V240.805C206.305 242.678 204.565 244.2 202.448 244.2V244.196Z" fill="white"/>
</g>
<g filter="url(#filter4_d_2567_246)">
<path d="M168.8 94.6353C166.682 94.6353 164.943 93.1141 164.943 91.2406C164.943 80.0196 154.622 70.8927 141.956 70.8927C129.252 70.8927 118.931 80.0196 118.931 91.2406C118.936 91.6819 118.841 92.1199 118.652 92.5294C118.463 92.9389 118.184 93.3119 117.829 93.6271C117.474 93.9424 117.052 94.1937 116.586 94.3667C116.119 94.5396 115.619 94.631 115.112 94.6353C114.605 94.631 114.104 94.5396 113.638 94.3667C113.172 94.1937 112.749 93.9424 112.394 93.6271C112.04 93.3119 111.76 92.9389 111.571 92.5294C111.382 92.1199 111.288 91.6819 111.293 91.2406C111.293 76.2826 125.056 64.1133 141.956 64.1133C158.856 64.1133 172.618 76.2826 172.618 91.2406C172.618 93.1174 170.917 94.6353 168.8 94.6353Z" fill="white"/>
</g>
</g>
<defs>
<filter id="filter0_d_2567_246" x="0" y="0" width="284" height="252.199" filterUnits="userSpaceOnUse" color-interpolation-filters="sRGB">
<feFlood flood-opacity="0" result="BackgroundImageFix"/>
<feColorMatrix in="SourceAlpha" type="matrix" values="0 0 0 0 0 0 0 0 0 0 0 0 0 0 0 0 0 0 127 0" result="hardAlpha"/>
<feOffset dy="4"/>
<feGaussianBlur stdDeviation="2"/>
<feComposite in2="hardAlpha" operator="out"/>
<feColorMatrix type="matrix" values="0 0 0 0 0 0 0 0 0 0 0 0 0 0 0 0 0 0 0.25 0"/>
<feBlend mode="normal" in2="BackgroundImageFix" result="effect1_dropShadow_2567_246"/>
<feBlend mode="normal" in="SourceGraphic" in2="effect1_dropShadow_2567_246" result="shape"/>
</filter>
<filter id="filter1_d_2567_246" x="0" y="0" width="284" height="234.18" filterUnits="userSpaceOnUse" color-interpolation-filters="sRGB">
<feFlood flood-opacity="0" result="BackgroundImageFix"/>
<feColorMatrix in="SourceAlpha" type="matrix" values="0 0 0 0 0 0 0 0 0 0 0 0 0 0 0 0 0 0 127 0" result="hardAlpha"/>
<feOffset dy="4"/>
<feGaussianBlur stdDeviation="2"/>
<feComposite in2="hardAlpha" operator="out"/>
<feColorMatrix type="matrix" values="0 0 0 0 0 0 0 0 0 0 0 0 0 0 0 0 0 0 0.25 0"/>
<feBlend mode="normal" in2="BackgroundImageFix" result="effect1_dropShadow_2567_246"/>
<feBlend mode="normal" in="SourceGraphic" in2="effect1_dropShadow_2567_246" result="shape"/>
</filter>
<filter id="filter2_d_2567_246" x="24.957" y="25.2227" width="237.344" height="186.168" filterUnits="userSpaceOnUse" color-interpolation-filters="sRGB">
<feFlood flood-opacity="0" result="BackgroundImageFix"/>
<feColorMatrix in="SourceAlpha" type="matrix" values="0 0 0 0 0 0 0 0 0 0 0 0 0 0 0 0 0 0 127 0" result="hardAlpha"/>
<feOffset dy="4"/>
<feGaussianBlur stdDeviation="2"/>
<feComposite in2="hardAlpha" operator="out"/>
<feColorMatrix type="matrix" values="0 0 0 0 0 0 0 0 0 0 0 0 0 0 0 0 0 0 0.25 0"/>
<feBlend mode="normal" in2="BackgroundImageFix" result="effect1_dropShadow_2567_246"/>
<feBlend mode="normal" in="SourceGraphic" in2="effect1_dropShadow_2567_246" result="shape"/>
</filter>
<filter id="filter3_d_2567_246" x="86.3008" y="82.9414" width="130.91" height="169.258" filterUnits="userSpaceOnUse" color-interpolation-filters="sRGB">
<feFlood flood-opacity="0" result="BackgroundImageFix"/>
<feColorMatrix in="SourceAlpha" type="matrix" values="0 0 0 0 0 0 0 0 0 0 0 0 0 0 0 0 0 0 127 0" result="hardAlpha"/>
<feOffset dy="4"/>
<feGaussianBlur stdDeviation="2"/>
<feComposite in2="hardAlpha" operator="out"/>
<feColorMatrix type="matrix" values="0 0 0 0 0 0 0 0 0 0 0 0 0 0 0 0 0 0 0.25 0"/>
<feBlend mode="normal" in2="BackgroundImageFix" result="effect1_dropShadow_2567_246"/>
<feBlend mode="normal" in="SourceGraphic" in2="effect1_dropShadow_2567_246" result="shape"/>
</filter>
<filter id="filter4_d_2567_246" x="107.293" y="64.1133" width="69.3242" height="38.5234" filterUnits="userSpaceOnUse" color-interpolation-filters="sRGB">
<feFlood flood-opacity="0" result="BackgroundImageFix"/>
<feColorMatrix in="SourceAlpha" type="matrix" values="0 0 0 0 0 0 0 0 0 0 0 0 0 0 0 0 0 0 127 0" result="hardAlpha"/>
<feOffset dy="4"/>
<feGaussianBlur stdDeviation="2"/>
<feComposite in2="hardAlpha" operator="out"/>
<feColorMatrix type="matrix" values="0 0 0 0 0 0 0 0 0 0 0 0 0 0 0 0 0 0 0.25 0"/>
<feBlend mode="normal" in2="BackgroundImageFix" result="effect1_dropShadow_2567_246"/>
<feBlend mode="normal" in="SourceGraphic" in2="effect1_dropShadow_2567_246" result="shape"/>
</filter>
</defs>
</svg>
