<svg width="99" height="87" viewBox="0 0 99 87" fill="none" xmlns="http://www.w3.org/2000/svg">
<path d="M75.7819 72.2464C75.8669 71.7474 75.9128 71.2514 75.9208 70.7604L79.8298 69.1624L79.0018 65.8404L74.8398 66.0714C74.3938 65.1964 73.8178 64.3884 73.1348 63.6794L74.7698 59.7874L71.8358 58.0234L69.0558 61.1294C68.6018 60.9804 68.1319 60.8654 67.6469 60.7824C67.1459 60.6974 66.6498 60.6504 66.1588 60.6434L64.5628 56.7344L61.2408 57.5624L61.4718 61.7244C60.5948 62.1704 59.7888 62.7464 59.0798 63.4294L55.1859 61.7944L53.4218 64.7284L56.5278 67.5084C56.3808 67.9624 56.2638 68.4324 56.1808 68.9174C56.0958 69.4184 56.0508 69.9154 56.0418 70.4054L52.1328 72.0014L52.9608 75.3234L57.1228 75.0924C57.5688 75.9694 58.1448 76.7754 58.8278 77.4844L57.1928 81.3784L60.1268 83.1424L62.9069 80.0364C63.3609 80.1834 63.8318 80.2984 64.3178 80.3814C64.8168 80.4664 65.3128 80.5124 65.8038 80.5224L67.4028 84.4294L70.7238 83.6034L70.4929 79.4414C71.3679 78.9934 72.1758 78.4194 72.8828 77.7364L76.7769 79.3714L78.5408 76.4374L75.4348 73.6574C75.5828 73.2034 75.6999 72.7314 75.7819 72.2464ZM65.3588 74.2524C63.3318 73.9084 61.9678 71.9854 62.3118 69.9584C62.6558 67.9334 64.5778 66.5694 66.6058 66.9134C68.6308 67.2574 69.9948 69.1794 69.6508 71.2044C69.3068 73.2324 67.3838 74.5964 65.3588 74.2524Z" stroke="white" stroke-width="4" stroke-miterlimit="10" stroke-linecap="round"/>
<path d="M28.0168 16.3365C27.9608 15.8255 27.8688 15.3265 27.7398 14.8445L31.1198 12.1945L29.3868 9.17453L25.3788 10.5575C24.6988 9.82553 23.9108 9.19453 23.0458 8.69153L23.5628 4.42953L20.2018 3.51953L18.3458 7.33154C17.8598 7.31254 17.3678 7.32952 16.8708 7.38452C16.3578 7.44052 15.8588 7.53353 15.3758 7.66153L12.7278 4.28152L9.70776 6.01453L11.0908 10.0225C10.3568 10.7025 9.72779 11.4905 9.22479 12.3555L4.96082 11.8385L4.05078 15.1995L7.86279 17.0555C7.84579 17.5405 7.86077 18.0335 7.91577 18.5305C7.97177 19.0435 8.06681 19.5425 8.19281 20.0255L4.81281 22.6735L6.54578 25.6935L10.5538 24.3105C11.2338 25.0445 12.0218 25.6735 12.8868 26.1765L12.3698 30.4406L15.7308 31.3505L17.5868 27.5385C18.0718 27.5555 18.5648 27.5375 19.0628 27.4835C19.5738 27.4275 20.0728 27.3356 20.5558 27.2086L23.2058 30.5865L26.2258 28.8555L24.8428 24.8475C25.5748 24.1655 26.2058 23.3795 26.7068 22.5155L30.9708 23.0325L31.8808 19.6715L28.0688 17.8155C28.0888 17.3275 28.0708 16.8335 28.0168 16.3365ZM18.3778 21.1965C16.2988 21.4235 14.4298 19.9215 14.2038 17.8425C13.9768 15.7655 15.4788 13.8965 17.5578 13.6705C19.6348 13.4445 21.5038 14.9455 21.7298 17.0225C21.9558 19.1005 20.4548 20.9695 18.3778 21.1965Z" stroke="white" stroke-width="4" stroke-miterlimit="10" stroke-linecap="round"/>
<path d="M38.8845 76.4603L41.6635 72.1813L37.1815 67.8803C37.4245 67.2113 37.6225 66.5173 37.7695 65.7983C37.9225 65.0593 38.0155 64.3223 38.0565 63.5913L43.9595 61.4153L42.9005 56.4243L36.6885 56.5513C36.0675 55.2233 35.2535 53.9923 34.2735 52.9023L36.9095 47.1873L32.6315 44.4073L28.3305 48.8893C27.6615 48.6483 26.9655 48.4493 26.2485 48.3013C25.5095 48.1483 24.7725 48.0553 24.0405 48.0163L21.8645 42.1133L16.8735 43.1723L17.0005 49.3843C15.6735 50.0043 14.4425 50.8183 13.3495 51.7983L7.63647 49.1633L4.85748 53.4393L9.33948 57.7403C9.09648 58.4103 8.89946 59.1053 8.75146 59.8223C8.59846 60.5613 8.50452 61.2993 8.46552 62.0313L2.5625 64.2073L3.62048 69.1983L9.83148 69.0703C10.4525 70.3983 11.2665 71.6293 12.2475 72.7203L9.61047 78.4343L13.8885 81.2143L18.1905 76.7313C18.8605 76.9743 19.5545 77.1723 20.2715 77.3203C21.0115 77.4713 21.7495 77.5663 22.4805 77.6063L24.6565 83.5093L29.6475 82.4503L29.5195 76.2373C30.8485 75.6173 32.0805 74.8023 33.1705 73.8233L38.8845 76.4603ZM21.6275 70.7353C17.2495 69.8353 14.4315 65.5563 15.3335 61.1793C16.2355 56.8023 20.5145 53.9843 24.8915 54.8843C29.2685 55.7863 32.0865 60.0653 31.1845 64.4423C30.2835 68.8193 26.0045 71.6373 21.6275 70.7353Z" stroke="white" stroke-width="4" stroke-miterlimit="10" stroke-linecap="round"/>
<path d="M59.0095 45.2574C70.9472 45.2574 80.6245 35.58 80.6245 23.6424C80.6245 11.7047 70.9472 2.02734 59.0095 2.02734C47.0719 2.02734 37.3945 11.7047 37.3945 23.6424C37.3945 35.58 47.0719 45.2574 59.0095 45.2574Z" stroke="white" stroke-width="4" stroke-miterlimit="10" stroke-linecap="round"/>
<path d="M77.5394 34.7812L94.9524 49.5582C96.3114 50.7112 96.4694 52.7522 95.3034 54.1002C94.1534 55.4302 92.1454 55.5862 90.8044 54.4492L73.4414 39.7272" stroke="white" stroke-width="4" stroke-miterlimit="10" stroke-linecap="round"/>
<path d="M59.0088 38.8496C67.4079 38.8496 74.2168 32.0408 74.2168 23.6416C74.2168 15.2425 67.4079 8.43359 59.0088 8.43359C50.6096 8.43359 43.8008 15.2425 43.8008 23.6416C43.8008 32.0408 50.6096 38.8496 59.0088 38.8496Z" stroke="white" stroke-width="4" stroke-miterlimit="10" stroke-linecap="round"/>
</svg>
