<svg width="114" height="80" viewBox="0 0 114 80" fill="none" xmlns="http://www.w3.org/2000/svg">
<path d="M18.8208 60.1417C22.9524 60.1417 26.3018 56.7923 26.3018 52.6606C26.3018 48.529 22.9524 45.1797 18.8208 45.1797C14.6892 45.1797 11.3398 48.529 11.3398 52.6606C11.3398 56.7923 14.6892 60.1417 18.8208 60.1417Z" stroke="white" stroke-width="4" stroke-miterlimit="10" stroke-linecap="round"/>
<path d="M2.40625 77.3338C2.40625 70.8598 6.15022 65.2548 11.6002 62.5898C13.7362 63.7678 16.2032 64.4398 18.8232 64.4398C21.4442 64.4398 23.8992 63.7678 26.0462 62.5898C31.4862 65.2658 35.2292 70.8588 35.2292 77.3338" stroke="white" stroke-width="4" stroke-miterlimit="10" stroke-linecap="round"/>
<path d="M56.9537 60.1417C61.0853 60.1417 64.4347 56.7923 64.4347 52.6606C64.4347 48.529 61.0853 45.1797 56.9537 45.1797C52.822 45.1797 49.4727 48.529 49.4727 52.6606C49.4727 56.7923 52.822 60.1417 56.9537 60.1417Z" stroke="white" stroke-width="4" stroke-miterlimit="10" stroke-linecap="round"/>
<path d="M40.543 77.3338C40.543 70.8598 44.2869 65.2548 49.7369 62.5898C51.8729 63.7678 54.34 64.4398 56.96 64.4398C59.581 64.4398 62.0359 63.7678 64.1829 62.5898C69.6229 65.2658 73.366 70.8588 73.366 77.3338" stroke="white" stroke-width="4" stroke-miterlimit="10" stroke-linecap="round"/>
<path d="M95.1998 60.1417C99.3314 60.1417 102.681 56.7923 102.681 52.6606C102.681 48.529 99.3314 45.1797 95.1998 45.1797C91.0681 45.1797 87.7188 48.529 87.7188 52.6606C87.7188 56.7923 91.0681 60.1417 95.1998 60.1417Z" stroke="white" stroke-width="4" stroke-miterlimit="10" stroke-linecap="round"/>
<path d="M78.7852 77.3338C78.7852 70.8598 82.5291 65.2548 87.9791 62.5898C90.1151 63.7678 92.5821 64.4398 95.2021 64.4398C97.8221 64.4398 100.278 63.7678 102.425 62.5898C107.864 65.2658 111.608 70.8588 111.608 77.3338" stroke="white" stroke-width="4" stroke-miterlimit="10" stroke-linecap="round"/>
<path d="M38.2584 17.9151C42.39 17.9151 45.7394 14.5657 45.7394 10.4341C45.7394 6.30244 42.39 2.95312 38.2584 2.95312C34.1267 2.95312 30.7773 6.30244 30.7773 10.4341C30.7773 14.5657 34.1267 17.9151 38.2584 17.9151Z" stroke="white" stroke-width="4" stroke-miterlimit="10" stroke-linecap="round"/>
<path d="M21.8477 35.1034C21.8477 28.6294 25.5916 23.0244 31.0416 20.3594C33.1776 21.5374 35.6446 22.2094 38.2646 22.2094C40.8856 22.2094 43.3407 21.5374 45.4877 20.3594C50.9277 23.0354 54.6707 28.6284 54.6707 35.1034" stroke="white" stroke-width="4" stroke-miterlimit="10" stroke-linecap="round"/>
<path d="M76.3951 17.9151C80.5267 17.9151 83.8761 14.5657 83.8761 10.4341C83.8761 6.30244 80.5267 2.95312 76.3951 2.95312C72.2634 2.95312 68.9141 6.30244 68.9141 10.4341C68.9141 14.5657 72.2634 17.9151 76.3951 17.9151Z" stroke="white" stroke-width="4" stroke-miterlimit="10" stroke-linecap="round"/>
<path d="M59.9844 35.1034C59.9844 28.6294 63.7283 23.0244 69.1783 20.3594C71.3143 21.5374 73.7814 22.2094 76.4014 22.2094C79.0224 22.2094 81.4773 21.5374 83.6243 20.3594C89.0643 23.0354 92.8074 28.6284 92.8074 35.1034" stroke="white" stroke-width="4" stroke-miterlimit="10" stroke-linecap="round"/>
</svg>
