<svg width="80" height="86" viewBox="0 0 80 86" fill="none" xmlns="http://www.w3.org/2000/svg">
<path d="M50.1072 60.8556C57.0192 57.2426 61.7392 50.0036 61.7392 41.6576C61.7392 29.7056 52.0492 20.0156 40.0972 20.0156C28.1382 20.0156 18.4492 29.7056 18.4492 41.6576C18.4492 49.9896 23.1552 57.2226 30.0602 60.8416" stroke="white" stroke-width="4" stroke-miterlimit="10" stroke-linecap="round"/>
<path d="M50.1066 60.8359H30.0586V66.8339H50.1066V60.8359Z" stroke="white" stroke-width="4" stroke-miterlimit="10" stroke-linecap="round"/>
<path d="M50.1066 66.8359H30.0586V72.8339H50.1066V66.8359Z" stroke="white" stroke-width="4" stroke-miterlimit="10" stroke-linecap="round"/>
<path d="M44.4776 78.83H35.6886C32.5796 78.83 30.0586 76.309 30.0586 73.2V72.832H50.1066V73.2C50.1066 76.309 47.5866 78.83 44.4776 78.83Z" stroke="white" stroke-width="4" stroke-miterlimit="10" stroke-linecap="round"/>
<path d="M40.0938 12.8383V2.23828" stroke="white" stroke-width="4" stroke-miterlimit="10" stroke-linecap="round"/>
<path d="M23.1568 18.3474L16.9258 9.77344" stroke="white" stroke-width="4" stroke-miterlimit="10" stroke-linecap="round"/>
<path d="M12.6804 32.7475L2.60938 29.4805" stroke="white" stroke-width="4" stroke-miterlimit="10" stroke-linecap="round"/>
<path d="M12.6804 50.5664L2.60938 53.8404" stroke="white" stroke-width="4" stroke-miterlimit="10" stroke-linecap="round"/>
<path d="M77.5798 53.8404L67.5078 50.5664" stroke="white" stroke-width="4" stroke-miterlimit="10" stroke-linecap="round"/>
<path d="M77.5798 29.4805L67.5078 32.7475" stroke="white" stroke-width="4" stroke-miterlimit="10" stroke-linecap="round"/>
<path d="M63.2662 9.77344L57.0352 18.3404" stroke="white" stroke-width="4" stroke-miterlimit="10" stroke-linecap="round"/>
<path d="M25.168 41.659C25.168 36.643 27.6419 32.202 31.4399 29.5" stroke="white" stroke-width="4" stroke-miterlimit="10" stroke-linecap="round"/>
<path d="M40.0938 48.7578V60.8358" stroke="white" stroke-width="4" stroke-miterlimit="10" stroke-linecap="round"/>
<path d="M36.3633 43.9023L40.0963 48.7563L44.2883 43.9023" stroke="white" stroke-width="4" stroke-miterlimit="10" stroke-linecap="round"/>
<path d="M35.7891 78.832C35.7891 81.202 37.7131 83.126 40.0831 83.126C42.4531 83.126 44.3771 81.202 44.3771 78.832" stroke="white" stroke-width="4" stroke-miterlimit="10" stroke-linecap="round"/>
</svg>
