<svg width="81" height="84" viewBox="0 0 81 84" fill="none" xmlns="http://www.w3.org/2000/svg">
<path d="M78.6854 72.2031H2.98438V81.3102H78.6854V72.2031Z" stroke="white" stroke-width="4" stroke-miterlimit="10"/>
<path d="M7.64063 43.8124L7.64062 65.9844H16.7477V43.8124H7.64063Z" stroke="white" stroke-width="4" stroke-miterlimit="10"/>
<path d="M26.8672 31.2153L26.8672 65.9883H35.9741V31.2153H26.8672Z" stroke="white" stroke-width="4" stroke-miterlimit="10"/>
<path d="M64.9219 21.8024V65.9844H74.0289V21.8024H64.9219Z" stroke="white" stroke-width="4" stroke-miterlimit="10"/>
<path d="M45.6953 38.0223V65.9844H54.8022V38.0223H45.6953Z" stroke="white" stroke-width="4" stroke-miterlimit="10"/>
<path d="M27.6101 18.5586L15.9961 26.1676" stroke="white" stroke-width="4" stroke-miterlimit="10"/>
<path d="M65.9811 9.72266L53.7461 19.9487" stroke="white" stroke-width="4" stroke-miterlimit="10"/>
<path d="M45.9673 21.3223L35.6953 17.6094" stroke="white" stroke-width="4" stroke-miterlimit="10"/>
<path d="M31.4241 20.6138C33.9387 20.6138 35.9771 18.5753 35.9771 16.0608C35.9771 13.5462 33.9387 11.5078 31.4241 11.5078C28.9096 11.5078 26.8711 13.5462 26.8711 16.0608C26.8711 18.5753 28.9096 20.6138 31.4241 20.6138Z" stroke="white" stroke-width="4" stroke-miterlimit="10"/>
<path d="M50.2484 27.4224C52.7629 27.4224 54.8013 25.3839 54.8013 22.8694C54.8013 20.3548 52.7629 18.3164 50.2484 18.3164C47.7338 18.3164 45.6953 20.3548 45.6953 22.8694C45.6953 25.3839 47.7338 27.4224 50.2484 27.4224Z" stroke="white" stroke-width="4" stroke-miterlimit="10"/>
<path d="M69.4788 11.356C71.9934 11.356 74.0318 9.31753 74.0318 6.80298C74.0318 4.28843 71.9934 2.25 69.4788 2.25C66.9643 2.25 64.9258 4.28843 64.9258 6.80298C64.9258 9.31753 66.9643 11.356 69.4788 11.356Z" stroke="white" stroke-width="4" stroke-miterlimit="10"/>
<path d="M12.1937 33.2115C14.7082 33.2115 16.7466 31.1731 16.7466 28.6586C16.7466 26.144 14.7082 24.1055 12.1937 24.1055C9.67911 24.1055 7.64062 26.144 7.64062 28.6586C7.64062 31.1731 9.67911 33.2115 12.1937 33.2115Z" stroke="white" stroke-width="4" stroke-miterlimit="10"/>
</svg>
