<svg width="159" height="64" viewBox="0 0 159 64" fill="none" xmlns="http://www.w3.org/2000/svg">
<path fill-rule="evenodd" clip-rule="evenodd" d="M90.0215 19.9102C88.1487 20.4296 86.2497 20.9559 84.0515 21.5476C82.9777 21.8489 82.7333 21.9174 81.734 20.7137C80.5356 19.2958 79.6566 18.3786 77.9781 17.5441C72.9438 14.9585 68.0689 15.7093 63.514 18.7956C58.0802 22.4653 55.2833 27.8867 55.3633 34.6427C55.4428 41.3156 59.8381 46.8207 66.1515 47.7378C71.5853 48.4886 76.1402 46.4869 79.7361 42.2333C80.4551 41.3161 81.0951 40.3142 81.894 39.1469H66.471C64.7925 39.1469 64.393 38.0629 64.9525 36.6445C65.9915 34.0589 67.9094 29.722 69.0279 27.5534C69.2679 27.0527 69.8274 26.2187 71.0258 26.2187H96.7417C97.897 22.3984 99.7712 18.7887 102.271 15.373C108.105 7.3655 115.138 3.19509 124.647 1.44393C132.798 -0.0576342 140.469 0.77635 147.422 5.69754C153.735 10.2017 157.65 16.2902 158.689 24.2977C160.048 35.5575 156.932 44.7327 149.5 52.5729C144.225 58.1611 137.753 61.6645 130.321 63.2492C128.903 63.5229 127.486 63.6529 126.09 63.7809C125.362 63.8479 124.64 63.9138 123.928 64C116.656 63.8331 110.023 61.6645 104.429 56.6601C100.495 53.1105 97.7857 48.7486 96.4386 43.6708C95.504 45.6411 94.3865 47.5276 93.0817 49.3226C87.3279 57.2464 79.8161 62.1676 70.3068 63.5023C62.4751 64.5863 55.2033 63.0016 48.8102 57.9972C42.8967 53.3261 39.5404 47.1539 38.6614 39.4807C37.6225 30.3891 40.1797 22.2152 45.4539 15.0422C51.1279 7.28525 58.6397 2.36407 67.8294 0.61241C75.3412 -0.805459 82.533 0.112218 89.0064 4.69961C93.2412 7.61855 96.2781 11.6226 98.2761 16.46C98.7556 17.2108 98.4356 17.6278 97.4766 17.8779C94.6762 18.6203 92.3697 19.2598 90.0215 19.9102ZM142.891 29.4109C142.907 29.691 142.924 29.9864 142.947 30.303C142.547 37.476 139.111 42.8142 132.798 46.2338C128.563 48.4857 124.167 48.7362 119.773 46.7345C114.019 44.0652 110.982 37.476 112.42 30.9701C114.179 23.1299 118.973 18.2088 126.405 16.4571C133.997 14.6222 141.269 19.2928 142.707 27.5504C142.82 28.1412 142.853 28.7315 142.891 29.4109Z" fill="#00ACD7"/>
<path d="M12.1463 18.9618C11.9865 19.2119 12.0664 19.3788 12.386 19.3788L36.1852 19.4625C36.425 19.4625 36.8245 19.2119 36.9844 18.9618L38.3429 16.7932C38.5027 16.5431 38.4228 16.293 38.1031 16.293H14.7035C14.3839 16.293 13.9843 16.4599 13.8245 16.71L12.1463 18.9618Z" fill="#00ACD7"/>
<path d="M0.0799123 26.6376C-0.0799123 26.8877 3.70203e-08 27.0546 0.319649 27.0546L32.9891 26.9714C33.3087 26.9714 33.6284 26.8045 33.7083 26.4707L34.3476 24.4689C34.4275 24.2188 34.2677 23.9688 33.948 23.9688H2.6371C2.31746 23.9688 1.91789 24.1352 1.75807 24.3857L0.0799123 26.6376Z" fill="#00ACD7"/>
<path d="M19.4198 34.2302C19.2599 34.4803 19.3398 34.7304 19.6595 34.7304L31.9513 34.8141C32.191 34.8141 32.5107 34.564 32.5107 34.2302L32.6705 32.2284C32.6705 31.8946 32.5107 31.6445 32.191 31.6445H21.3377C21.018 31.6445 20.6983 31.8946 20.5385 32.1447L19.4198 34.2302Z" fill="#00ACD7"/>
</svg>
