<svg width="66" height="64" viewBox="0 0 66 64" fill="none" xmlns="http://www.w3.org/2000/svg">
<path d="M62.7287 0H3.08379C1.38066 0 0 1.34263 0 2.99886V61.0011C0 62.6574 1.38066 64 3.08379 64H62.7287C64.4318 64 65.8125 62.6574 65.8125 61.0011V2.99886C65.8125 1.34263 64.4318 0 62.7287 0Z" fill="#3178C6"/>
<path fill-rule="evenodd" clip-rule="evenodd" d="M38.1848 49.7373V56.7499C39.495 57.3788 40.8913 57.8214 42.331 58.0642C43.9946 58.3628 45.6833 58.5098 47.375 58.503C49.0238 58.5107 50.6688 58.349 52.2827 58.0207C53.7318 57.736 55.1143 57.1936 56.3608 56.4207C57.518 55.6943 58.4717 54.7001 59.1366 53.527C60.3274 51.0981 60.4845 48.3103 59.5738 45.7693C59.1895 44.8191 58.6169 43.9516 57.8886 43.2162C57.1067 42.4341 56.2187 41.7597 55.249 41.2116C54.1326 40.5758 52.9727 40.0152 51.7774 39.5339C50.8372 39.1545 49.9911 38.7857 49.2389 38.4276C48.5709 38.1166 47.9315 37.7503 47.328 37.3327C46.8553 37.0105 46.4447 36.6097 46.1152 36.1487C45.8304 35.7302 45.6822 35.2379 45.6897 34.7362C45.6835 34.2744 45.8158 33.8208 46.0705 33.431C46.3472 33.0231 46.7162 32.6822 47.1494 32.4345C47.6788 32.1313 48.255 31.9129 48.8558 31.7876C49.5934 31.6283 50.3473 31.5516 51.1028 31.559C51.7382 31.5612 52.3728 31.6054 53.002 31.6916C53.6815 31.7809 54.3538 31.9161 55.014 32.0962C55.6855 32.2772 56.3423 32.5064 56.9789 32.7819C57.5967 33.0497 58.1876 33.3726 58.7441 33.7465V27.2025C57.5856 26.7762 56.3842 26.4698 55.1597 26.2882C53.681 26.0789 52.188 25.9804 50.6938 25.9933C49.0606 25.9848 47.432 26.1651 45.8425 26.5305C44.4058 26.8497 43.0397 27.4172 41.8092 28.2059C40.6661 28.9464 39.7222 29.9426 39.0568 31.111C38.3516 32.4086 38.0026 33.8611 38.0437 35.3282C37.9917 37.2683 38.6488 39.1634 39.8982 40.6767C41.4312 42.3546 43.3641 43.641 45.5276 44.423C46.5147 44.8192 47.4353 45.207 48.2893 45.5865C49.0598 45.9199 49.8004 46.3151 50.5035 46.7682C51.0705 47.1269 51.5685 47.5794 51.9748 48.1053C52.3321 48.5823 52.5217 49.1586 52.5154 49.7487C52.5187 50.1909 52.4019 50.6262 52.177 51.0105C51.927 51.4234 51.5757 51.7698 51.1545 52.0185C50.6275 52.3309 50.0509 52.5565 49.4481 52.6859C48.6629 52.8566 47.8598 52.9371 47.0553 52.9259C45.4766 52.9231 43.9104 52.6524 42.4273 52.1259C40.8779 51.5822 39.4411 50.7732 38.1848 49.7373ZM26.0706 32.279H35.4723V26.503H9.25781V32.279H18.6173V58.0025H26.0706V32.279Z" fill="white"/>
</svg>
