<svg width="62" height="64" viewBox="0 0 62 64" fill="none" xmlns="http://www.w3.org/2000/svg">
<path d="M33.796 0.682793C32.1034 -0.229642 29.8967 -0.225551 28.2026 0.682793C19.7182 5.17091 11.2335 9.66038 2.74746 14.1464C1.09618 14.9791 -0.0175559 16.6788 0.000209486 18.443V45.5607C-0.0117136 47.3594 1.15944 49.0755 2.85331 49.8967C5.29077 51.1397 7.65891 52.5088 10.1404 53.6691C13.0069 55.0192 16.5932 55.3178 19.4947 53.9098C21.85 52.7429 22.8961 50.1475 22.893 47.7623C22.9121 38.8128 22.8961 29.8631 22.9004 20.9134C22.9565 20.5157 22.6448 20.0905 22.1922 20.1001C21.1079 20.0837 20.0222 20.0905 18.9379 20.0974C18.5282 20.0604 18.1283 20.3865 18.1593 20.7813C18.1448 29.6732 18.1622 38.5678 18.1505 47.4611C18.1741 48.6912 17.3071 49.8734 16.0702 50.289C13.2136 51.2487 5.06011 46.1742 5.06011 46.1742C4.76088 46.0414 4.57088 45.7303 4.60021 45.4213C4.60021 36.4745 4.60166 27.5276 4.60021 18.5822C4.55907 18.2215 4.79098 17.8967 5.13651 17.7495C13.5931 13.2878 22.0453 8.81496 30.5019 4.35054C30.7957 4.16264 31.2051 4.16321 31.4982 4.35192C39.9547 8.81496 48.4084 13.2837 56.8664 17.7456C57.2132 17.8926 57.4352 18.2229 57.3999 18.5822C57.3985 27.5276 57.4027 36.4745 57.397 45.4201C57.4221 45.7367 57.2513 46.0435 56.943 46.1824C48.5654 50.6199 40.0923 54.9143 31.7905 59.4807C31.4283 59.6798 31.0179 59.9054 30.612 59.686C28.4289 58.5285 26.2723 57.326 24.0963 56.1573C23.8598 56.0158 23.5586 55.955 23.3118 56.1134C22.3362 56.6062 21.4186 57.0053 20.2983 57.4304C18.725 58.0275 18.9763 58.2716 20.3954 59.064C22.94 60.4444 25.4889 61.8192 28.0336 63.201C29.7088 64.203 31.9596 64.2743 33.6887 63.3484C42.1746 58.8659 50.6579 54.3781 59.1454 49.8956C60.8347 49.0698 62.0117 47.3605 61.9998 45.5605V18.443C62.0163 16.7146 60.9451 15.0452 59.3436 14.2002C50.8295 9.69023 42.3115 5.19004 33.796 0.682793Z" fill="#8CC84B"/>
<path d="M48.7818 22.7294C45.368 20.9544 41.3068 20.8599 37.5133 21.092C34.7726 21.3552 31.8903 22.0901 29.8936 23.9995C27.8457 25.9189 27.3999 29.0185 28.3726 31.5241C29.0697 33.2948 30.8244 34.4462 32.6389 35.0553C34.9762 35.8572 37.4311 36.1052 39.8868 36.3532C42.1266 36.5794 44.3672 36.8058 46.52 37.4526C47.3994 37.7358 48.4235 38.1691 48.6928 39.0991C48.9416 40.2003 48.6689 41.4805 47.7489 42.2456C44.8267 44.4935 36.6979 44.1491 33.8106 42.3798C32.6433 41.6261 32.1403 40.2918 31.9357 39.0202C31.913 38.624 31.5847 38.2605 31.1421 38.2907C30.0337 38.2779 28.9253 38.2807 27.8168 38.2893C27.4302 38.2577 27.0281 38.5251 27.0068 38.9088C26.779 44.7327 32.2825 47.2717 37.4458 47.8306C40.3957 48.1038 43.4103 48.0881 46.3151 47.4729C48.4987 46.9897 50.6882 46.0998 52.1914 44.4653C54.045 42.4787 54.4094 39.5209 53.5782 37.0464C52.9427 35.1999 51.1265 34.0155 49.2699 33.4062C46.7451 32.5648 43.7529 32.1125 41.4662 31.9009C38.1424 31.5932 34.1926 31.7189 33.2519 29.5962C32.8767 28.4847 33.1959 27.1045 34.2469 26.4209C37.0276 24.5877 42.687 24.8312 45.5667 26.2007C46.889 26.8442 47.6553 28.1659 47.9715 29.5002C48.0302 29.8922 48.3015 30.3012 48.7683 30.2841C49.8692 30.3055 50.97 30.2898 52.0706 30.2912C52.4487 30.3169 52.8628 30.1095 52.9366 29.7332C52.8899 26.9444 51.4246 24.0896 48.7818 22.7294Z" fill="#8CC84B"/>
</svg>
