<svg width="167" height="26" viewBox="0 0 167 26" fill="none" xmlns="http://www.w3.org/2000/svg">
<g clip-path="url(#clip0_2390_167)">
<path fill-rule="evenodd" clip-rule="evenodd" d="M165.047 0.919609V5.78334C162.471 4.83218 160.177 4.35105 158.169 4.35105C156.979 4.35105 156.033 4.56663 155.321 4.98309C154.608 5.40281 154.245 5.91987 154.245 6.53002C154.245 7.34122 155.049 8.06275 156.668 8.70899L161.344 10.9343C165.125 12.6969 167 15.0372 167 17.977C167 20.4216 166.005 22.3706 163.998 23.8137C162.004 25.2711 159.321 25.9925 155.981 25.9925C154.44 25.9925 153.056 25.928 151.826 25.7916C150.597 25.6622 149.183 25.3965 147.616 25.0162V19.9262C150.49 20.8774 153.107 21.3585 155.463 21.3585C158.275 21.3585 159.674 20.5615 159.674 18.9534C159.674 18.1531 159.101 17.5069 157.938 17.0007L152.744 14.8361C150.828 13.989 149.404 12.9624 148.471 11.7457C147.554 10.5181 147.088 9.11091 147.088 7.50274C147.088 5.25223 148.057 3.43942 149.973 2.06103C151.903 0.693415 154.465 0.0078125 157.651 0.0078125C158.686 0.0078125 159.879 0.0976366 161.201 0.262586C162.533 0.438642 163.814 0.653893 165.047 0.919609ZM17.9487 0.919609V5.78334C15.3718 4.83218 13.0816 4.35105 11.0738 4.35105C9.88089 4.35105 8.93767 4.56663 8.22558 4.98309C7.5135 5.40281 7.1501 5.91987 7.1501 6.53002C7.1501 7.34122 7.96506 8.06275 9.58363 8.70899L14.2598 10.9343C18.0256 12.6969 19.9051 15.0372 19.9051 17.977C19.9051 20.4216 18.9067 22.3706 16.9136 23.8137C14.9059 25.2711 12.2374 25.9925 8.88624 25.9925C7.34466 25.9925 5.95706 25.928 4.7276 25.7916C3.49798 25.6622 2.09952 25.3965 0.521207 25.0162V19.9262C3.4063 20.8774 6.02336 21.3585 8.3652 21.3585C11.1766 21.3585 12.5753 20.5615 12.5753 18.9534C12.5753 18.1531 12.0061 17.5069 10.8535 17.0007L5.6598 14.8361C3.72928 13.989 2.3051 12.9624 1.38744 11.7457C0.455075 10.5181 0 9.11091 0 7.50274C0 5.25223 0.961753 3.43942 2.8886 2.06103C4.80476 0.693415 7.37038 0.0078125 10.5564 0.0078125C11.6025 0.0078125 12.7807 0.0976366 14.1168 0.262586C15.4381 0.438642 16.719 0.653893 17.9487 0.919609ZM30.9239 0.463629V25.5366H23.3075V0.463466L30.9239 0.463629ZM55.6923 25.5366H36.8151V0.463466H55.4612V5.09774H44.1448V10.6578H53.9597V14.836H44.1448V20.6727H55.6922L55.6923 25.5366ZM59.9024 25.5366V0.463466H69.1998L75.546 15.8124L82.1859 0.463466H91.0172V25.5365H83.907V8.9997L76.5298 25.7661H72.1398L65.0448 8.9997V25.5366H59.9024ZM115.775 25.5366H96.8977V0.463466H115.544V5.09774H104.289V10.6578H114.104V14.836H104.289V20.6727H115.775V25.5366ZM142.268 25.5366H134.19L125.124 9.45551V25.5366H119.985V0.463466H128.299L137.13 16.2683V0.463629H142.268V25.5366Z" fill="#009999"/>
</g>
<defs>
<clipPath id="clip0_2390_167">
<rect width="167" height="26" fill="white"/>
</clipPath>
</defs>
</svg>
