<svg width="86" height="64" viewBox="0 0 86 64" fill="none" xmlns="http://www.w3.org/2000/svg">
<path d="M66.3379 13.5253L67.1442 12.3146L68.5524 13.1626L69.176 13.6053C70.681 14.7573 73.8469 17.7013 74.5295 22.5866C75.7282 22.3732 76.9376 22.2666 78.147 22.2666C81.0173 22.2666 82.9469 22.9279 84.0435 23.4772L84.6079 23.7812L84.9734 24.0212L86 24.8532L85.6452 25.9199C85.0938 27.3822 84.2323 28.7099 83.1189 29.8132C81.5602 31.4079 78.8189 33.2905 74.4704 33.5359L73.5137 33.5625H72.7181C70.7294 38.7732 68.0579 44.6452 63.5697 49.9145C60.9067 53.0457 57.7478 55.726 54.2171 57.8504C49.9842 60.3422 45.3488 62.0889 40.5159 63.0131C37.0544 63.6797 33.5391 64.0104 30.0184 63.9997C22.2245 63.9997 15.3444 62.4638 11.1142 59.7758C7.33548 57.3811 4.43293 53.4718 2.48177 48.1651C0.774245 43.3161 -0.0643912 38.2079 0.00385372 33.0719C-0.00499016 32.4134 0.224451 31.7736 0.650517 31.2686C1.07658 30.7636 1.67102 30.427 2.3259 30.3199L2.6914 30.2932H59.3449L59.8394 30.2559L60.6403 30.1705C62.0163 29.9892 64.1126 29.5839 65.5854 28.7306C63.8224 25.8346 63.3225 22.4479 64.1449 18.8426C64.4893 17.3387 65.0315 15.8863 65.7574 14.5226L66.3379 13.5253ZM15.5325 20.1813L15.7475 20.2186C15.8457 20.255 15.9341 20.3135 16.0059 20.3893C16.0777 20.4651 16.1309 20.5564 16.1614 20.6559L16.1936 20.8693V27.8826L16.1614 28.1012C16.1303 28.2013 16.0763 28.2929 16.0036 28.3688C15.9308 28.4447 15.8413 28.5028 15.7421 28.5386L15.5325 28.5706H7.94287C7.80141 28.5687 7.66423 28.5222 7.55117 28.4378C7.43811 28.3534 7.35504 28.2356 7.31398 28.1012L7.27636 27.8879V20.8639L7.31398 20.6506C7.34431 20.5495 7.39801 20.4569 7.47079 20.38C7.54358 20.3032 7.63345 20.2442 7.73324 20.2079L7.94287 20.1759L15.5325 20.1813ZM25.9978 20.1813L26.2074 20.2186C26.3066 20.2544 26.3961 20.3125 26.4689 20.3884C26.5416 20.4642 26.5956 20.5558 26.6267 20.6559L26.659 20.8693V27.8826L26.6213 28.1012C26.5903 28.2013 26.5363 28.2929 26.4635 28.3688C26.3908 28.4447 26.3013 28.5028 26.2021 28.5386L25.9924 28.5706H18.4028C18.2616 28.5679 18.1248 28.5211 18.0119 28.4368C17.899 28.3525 17.8157 28.2351 17.7739 28.1012L17.7363 27.8932V20.8693C17.7351 20.7265 17.7784 20.587 17.8602 20.4696C17.9419 20.3522 18.0582 20.2626 18.1932 20.2133L18.4028 20.1759L25.9978 20.1813ZM36.619 20.1813L36.8286 20.2186C36.9268 20.255 37.0153 20.3135 37.087 20.3893C37.1588 20.4651 37.212 20.5564 37.2425 20.6559L37.2801 20.8693V27.8826L37.2425 28.1012C37.2115 28.2013 37.1574 28.2929 37.0847 28.3688C37.0119 28.4447 36.9225 28.5028 36.8233 28.5386L36.6136 28.5706H29.024C28.8825 28.5687 28.7454 28.5222 28.6323 28.4378C28.5192 28.3534 28.4362 28.2356 28.3951 28.1012L28.3629 27.8879V20.8639L28.3951 20.6506C28.4254 20.5495 28.4791 20.4569 28.5519 20.38C28.6247 20.3032 28.7146 20.2442 28.8144 20.2079L29.024 20.1759L36.619 20.1813ZM47.1112 20.1813L47.3208 20.2186C47.42 20.2544 47.5095 20.3125 47.5823 20.3884C47.655 20.4642 47.709 20.5558 47.7401 20.6559L47.7777 20.8693V27.8826C47.7788 28.0253 47.7356 28.1648 47.6538 28.2822C47.572 28.3997 47.4558 28.4892 47.3208 28.5386L47.1058 28.5706H39.5216C39.3801 28.5687 39.2429 28.5222 39.1299 28.4378C39.0168 28.3534 38.9337 28.2356 38.8927 28.1012L38.8604 27.8879V20.8639L38.8927 20.6506C38.923 20.5495 38.9767 20.4569 39.0495 20.38C39.1223 20.3032 39.2121 20.2442 39.3119 20.2079L39.5269 20.1759H47.1166L47.1112 20.1813ZM57.7001 20.1813L57.9098 20.2186C58.009 20.2544 58.0984 20.3125 58.1712 20.3884C58.2439 20.4642 58.298 20.5558 58.329 20.6559L58.3613 20.8693V27.8826C58.3624 28.0253 58.3191 28.1648 58.2374 28.2822C58.1556 28.3997 58.0393 28.4892 57.9044 28.5386L57.6948 28.5706H50.1051C49.9637 28.5687 49.8265 28.5222 49.7134 28.4378C49.6004 28.3534 49.5173 28.2356 49.4762 28.1012L49.444 27.8879V20.8639L49.4762 20.6506C49.5066 20.5495 49.5603 20.4569 49.633 20.38C49.7058 20.3032 49.7957 20.2442 49.8955 20.2079L50.1105 20.1759H57.6948L57.7001 20.1813ZM25.9871 10.0906L26.2021 10.128C26.2997 10.1639 26.3877 10.2215 26.4595 10.2964C26.5312 10.3712 26.5847 10.4614 26.6159 10.56L26.6536 10.7786V17.7919C26.6547 17.9346 26.6115 18.0742 26.5297 18.1916C26.4479 18.309 26.3316 18.3985 26.1967 18.4479L25.9871 18.4853H18.4028C18.2602 18.4819 18.1224 18.4335 18.0093 18.3472C17.8963 18.2609 17.8138 18.1411 17.7739 18.0053L17.7363 17.7919V10.7786C17.7363 10.6368 17.78 10.4984 17.8617 10.3821C17.9434 10.2657 18.0591 10.177 18.1932 10.128L18.4028 10.0906H25.9871ZM36.6082 10.0906L36.8233 10.128C36.9209 10.1639 37.0089 10.2215 37.0807 10.2964C37.1524 10.3712 37.2059 10.4614 37.2371 10.56L37.2748 10.7786V17.7919C37.2759 17.9346 37.2326 18.0742 37.1509 18.1916C37.0691 18.309 36.9528 18.3985 36.8179 18.4479L36.6082 18.4853H29.024C28.8814 18.4819 28.7436 18.4335 28.6305 18.3472C28.5175 18.2609 28.435 18.1411 28.3951 18.0053L28.3629 17.7919V10.7786L28.3951 10.5653C28.4262 10.4652 28.4802 10.3736 28.5529 10.2977C28.6257 10.2218 28.7152 10.1637 28.8144 10.128L29.024 10.0906H36.6082ZM47.1058 10.0906C47.3961 10.0906 47.6433 10.288 47.7347 10.56L47.7723 10.7786V17.7919C47.7735 17.9346 47.7302 18.0742 47.6484 18.1916C47.5667 18.309 47.4504 18.3985 47.3154 18.4479L47.1004 18.4853H39.5216C39.379 18.4819 39.2411 18.4335 39.1281 18.3472C39.015 18.2609 38.9326 18.1411 38.8927 18.0053L38.8604 17.7919V10.7786L38.8927 10.5653C38.9237 10.4652 38.9777 10.3736 39.0505 10.2977C39.1232 10.2218 39.2127 10.1637 39.3119 10.128L39.5269 10.0906H47.1166H47.1058ZM47.1058 0C47.3961 0 47.6433 0.197333 47.7347 0.469332L47.7723 0.682664V7.7013C47.7735 7.84401 47.7302 7.98359 47.6484 8.10099C47.5667 8.2184 47.4504 8.30791 47.3154 8.3573L47.1004 8.3893H39.5216C39.3801 8.38742 39.2429 8.34093 39.1299 8.25655C39.0168 8.17218 38.9337 8.0543 38.8927 7.91997L38.8604 7.70664V0.682664L38.8927 0.469332C38.9237 0.369237 38.9777 0.277649 39.0505 0.201766C39.1232 0.125883 39.2127 0.0677731 39.3119 0.0320001L39.5216 0H47.1112H47.1058Z" fill="#2396ED"/>
</svg>
