<svg width="63" height="64" viewBox="0 0 63 64" fill="none" xmlns="http://www.w3.org/2000/svg">
<path d="M62.5917 38.3374C62.2145 37.2074 61.2264 36.4203 59.9486 36.2314C59.346 36.1425 58.656 36.1804 57.8394 36.3469C56.4161 36.6374 55.3602 36.748 54.5896 36.7693C57.4983 31.9116 59.8636 26.372 61.2252 21.1574C63.427 12.7256 62.2504 8.88434 60.8755 7.14688C57.2369 2.54799 51.9282 0.077425 45.5239 0.00183024C42.1074 -0.0394917 39.1082 0.627736 37.5436 1.10756C36.0868 0.853305 34.5205 0.711352 32.877 0.6851C29.7962 0.636486 27.0742 1.3008 24.7483 2.66612C23.4606 2.2354 21.394 1.62821 19.0074 1.24076C13.3943 0.329246 8.87029 1.0395 5.5612 3.35182C1.55422 6.1515 -0.303301 11.0158 0.0402391 17.8096C0.149346 19.9666 1.36918 26.5295 3.28986 32.7536C4.39371 36.3311 5.57079 39.3019 6.78841 41.5843C8.5152 44.8208 10.3629 46.7267 12.4372 47.4112C13.5997 47.7943 15.7121 48.0626 17.9338 46.2323C18.2154 46.5697 18.5911 46.9049 19.0897 47.2163C19.723 47.6112 20.4973 47.934 21.2706 48.1253C24.0575 48.8144 26.668 48.6421 28.8951 47.6761C28.9089 48.068 28.9194 48.4423 28.9283 48.7656C28.943 49.2899 28.9578 49.804 28.9772 50.2848C29.1091 53.5356 29.3328 56.0633 29.9953 57.8319C30.0316 57.9291 30.0805 58.0774 30.1321 58.2346C30.4627 59.2356 31.0153 60.9113 32.4214 62.2236C33.8774 63.5831 35.6386 64 37.2516 64C38.0606 64 38.8324 63.895 39.5094 63.7516C41.9226 63.2399 44.6633 62.4606 46.6459 59.6682C48.5204 57.0285 49.4316 53.0526 49.5964 46.788C49.6178 46.6108 49.6375 46.4416 49.6564 46.2804L49.6957 45.9494L50.1373 45.9878L50.2511 45.9953C52.7089 46.1062 55.7143 45.5906 57.56 44.7425C59.0185 44.0731 63.6921 41.6324 62.5917 38.3374Z" fill="black"/>
<path d="M58.3882 38.9787C51.08 40.4699 50.5775 38.0224 50.5775 38.0224C58.2936 26.6971 61.5194 12.3212 58.7359 8.80275C51.1417 -0.794875 37.996 3.74422 37.7766 3.86186L37.7061 3.8745C36.2621 3.57796 34.6464 3.40149 32.8301 3.37208C29.5235 3.3186 27.015 4.22963 25.1116 5.65742C25.1116 5.65742 1.66093 -3.89864 2.75175 17.6758C2.98373 22.2654 9.40237 52.4039 17.058 43.3007C19.8562 39.9719 22.5601 37.1574 22.5601 37.1574C23.9028 38.0397 25.5104 38.4899 27.1957 38.3282L27.3266 38.2184C27.2858 38.6316 27.3045 39.0358 27.379 39.5144C25.4067 41.694 25.9864 42.0766 22.0438 42.8795C18.0543 43.6928 20.3978 45.1405 21.928 45.5192C23.7831 45.9779 28.0747 46.6279 30.9743 42.6126L30.8588 43.0708C31.6314 43.6831 32.174 47.053 32.0831 50.1081C31.9922 53.163 31.9315 55.2605 32.5402 56.8988C33.1494 58.5371 33.7561 62.2232 38.9392 61.1248C43.2698 60.2067 45.5141 57.8278 45.8264 53.8594C46.0478 51.0384 46.5494 51.4555 46.5808 48.9331L46.9831 47.7392C47.4468 43.915 47.0568 42.6811 49.7248 43.255L50.3735 43.3114C52.337 43.3996 54.9074 42.9988 56.4159 42.3053C59.6641 40.8144 61.5907 38.3246 58.3877 38.9787H58.3882Z" fill="#336791"/>
<path d="M26.4855 19.73C25.827 19.6393 25.2306 19.7232 24.9288 19.9492C24.7592 20.0764 24.7067 20.2237 24.6924 20.325C24.6546 20.5936 24.8448 20.8907 24.9617 21.0438C25.2925 21.4774 25.7756 21.7754 26.2538 21.8411C26.3231 21.8508 26.3922 21.8552 26.4607 21.8552C27.2581 21.8552 27.9833 21.2409 28.0472 20.7876C28.1271 20.2198 27.2938 19.8411 26.4855 19.73ZM48.303 19.748C48.2401 19.3029 47.4395 19.176 46.6797 19.2806C45.9208 19.3851 45.1851 19.7239 45.2465 20.17C45.2957 20.5168 45.9289 21.1089 46.6784 21.1089C46.7418 21.1089 46.8057 21.1048 46.8701 21.0958C47.3704 21.0273 47.7376 20.713 47.912 20.5319C48.1774 20.2558 48.3313 19.948 48.303 19.748Z" fill="white"/>
<path d="M60.8203 38.8097C60.5416 37.9762 59.6447 37.7081 58.1545 38.0124C53.7301 38.9157 52.1455 38.29 51.6253 37.9111C55.0644 32.7288 57.8936 26.4644 59.4198 20.6198C60.1428 17.8512 60.5421 15.28 60.5748 13.1843C60.6109 10.8841 60.2148 9.19379 59.398 8.16123C56.1046 3.99865 51.271 1.76581 45.42 1.70455C41.3975 1.65983 37.999 2.67805 37.3402 2.96439C35.9527 2.62312 34.4402 2.41359 32.7936 2.38685C29.7739 2.33848 27.1637 3.05359 25.0027 4.51128C24.064 4.16564 21.6381 3.34187 18.6713 2.8691C13.5423 2.05239 9.46652 2.67124 6.55798 4.70939C3.08745 7.14155 1.48524 11.4891 1.79561 17.631C1.90005 19.6973 3.0904 26.0541 4.96881 32.1418C7.44141 40.1544 10.1293 44.6903 12.9572 45.6234C13.2882 45.7326 13.6698 45.8089 14.0908 45.8089C15.1224 45.8089 16.3872 45.349 17.7031 43.7841C19.3082 41.8796 20.9685 40.0212 22.682 38.2115C23.7937 38.8017 25.015 39.1313 26.2641 39.1643C26.2665 39.1967 26.2697 39.229 26.2727 39.2611C26.0577 39.5147 25.8471 39.772 25.6411 40.0328C24.7757 41.1196 24.5955 41.3459 21.8096 41.9132C21.0171 42.0751 18.9124 42.5041 18.8814 43.9635C18.848 45.558 21.3695 46.2277 21.6568 46.2987C22.6579 46.5466 23.6224 46.6689 24.5422 46.6689C26.7791 46.6689 28.7477 45.9416 30.321 44.5345C30.2725 50.2189 30.5121 55.8202 31.2022 57.5268C31.7674 58.924 33.1479 62.3384 37.5087 62.3381C38.1486 62.3381 38.8529 62.2645 39.6277 62.1002C44.179 61.1352 46.1555 59.1454 46.92 54.7587C47.3291 52.4143 48.0312 46.8162 48.3615 43.8133C49.0584 44.0284 49.9555 44.1269 50.9255 44.1266C52.9484 44.1266 55.2826 43.7015 56.7465 43.0294C58.3909 42.2739 61.3585 40.4203 60.8203 38.8097ZM49.9818 18.5182C49.9668 19.4047 49.8435 20.2095 49.7128 21.0495C49.5719 21.953 49.4265 22.8871 49.3899 24.0211C49.3537 25.1246 49.4931 26.2719 49.6277 27.3815C49.9 29.6226 50.1794 31.9298 49.0979 34.2064C48.9183 33.8916 48.7582 33.5661 48.6187 33.232C48.4843 32.9097 48.1924 32.3919 47.7881 31.6753C46.2157 28.8859 42.5333 22.3536 44.4184 19.6881C44.9799 18.8947 46.4049 18.079 49.9818 18.5182ZM45.6461 3.49963C50.8886 3.61411 55.0357 5.55406 57.9717 9.26525C60.2236 12.1118 57.7439 25.0643 50.5652 36.2385C50.493 36.1477 50.4204 36.0572 50.3475 35.967L50.2566 35.8547C52.1116 32.8243 51.7489 29.8261 51.426 27.1678C51.2933 26.0769 51.168 25.0466 51.2 24.0787C51.2329 23.0529 51.37 22.173 51.5027 21.3223C51.6656 20.2739 51.8315 19.1891 51.7858 17.9103C51.8199 17.7761 51.8337 17.6176 51.8158 17.4295C51.699 16.2032 50.2836 12.5331 47.3987 9.21129C45.8205 7.39434 43.5192 5.36106 40.377 3.98966C41.7285 3.71256 43.5767 3.45417 45.6461 3.49963ZM16.3105 42.6388C14.8607 44.3631 13.8596 44.0325 13.5303 43.9241C11.385 43.2163 8.89568 38.7312 6.701 31.6189C4.80195 25.4649 3.6922 19.2766 3.60423 17.5413C3.32704 12.0533 4.67196 8.22856 7.60187 6.17315C12.3701 2.82851 20.2096 4.83044 23.3597 5.84574C23.3145 5.88998 23.2673 5.9313 23.2226 5.97627C18.0533 11.14 18.1759 19.9625 18.1887 20.5019C18.1882 20.71 18.2059 21.0046 18.23 21.4098C18.3189 22.8937 18.4846 25.6555 18.0422 28.783C17.6314 31.6894 18.5371 34.5341 20.5269 36.5878C20.7311 36.7981 20.9457 36.9984 21.17 37.1877C20.2843 38.1259 18.3595 40.2008 16.3105 42.6388ZM21.8344 35.3484C20.2308 33.6931 19.5024 31.3907 19.8359 29.031C20.3028 25.7272 20.1305 22.8497 20.0379 21.3038C20.0248 21.0874 20.0133 20.8979 20.0067 20.7484C20.7618 20.086 24.2613 18.2314 26.757 18.797C27.8958 19.0549 28.5897 19.822 28.8782 21.1414C30.3713 27.9724 29.0758 30.8195 28.0349 33.1075C27.8203 33.5788 27.6176 34.0244 27.4446 34.4852L27.3104 34.8416C26.9708 35.7424 26.6548 36.58 26.459 37.3753C24.754 37.3705 23.0956 36.65 21.8344 35.3481V35.3484ZM22.0961 44.5607C21.5983 44.4377 21.1506 44.2241 20.8879 44.0469C21.1073 43.9448 21.4978 43.8058 22.175 43.6677C25.4524 43.0005 25.9586 42.5294 27.064 41.1412C27.3173 40.8228 27.6046 40.4621 28.0024 40.0226L28.0029 40.0221C28.5954 39.3658 28.8664 39.4772 29.3579 39.6789C29.7562 39.8418 30.1443 40.3357 30.3015 40.8792C30.376 41.1359 30.4595 41.623 30.186 42.0022C27.8771 45.2 24.5125 45.1589 22.0961 44.5607ZM39.2483 60.3486C35.2389 61.1984 33.8193 59.1748 32.8837 56.8615C32.28 55.3681 31.9831 48.6336 32.1937 41.1964C32.1964 41.0975 32.1822 41.0019 32.1546 40.912C32.13 40.7344 32.0926 40.5588 32.0426 40.3865C31.7295 39.3043 30.9665 38.3991 30.0511 38.0238C29.6874 37.8748 29.02 37.6014 28.2179 37.8044C28.389 37.1072 28.6856 36.3199 29.0072 35.4675L29.1422 35.1089C29.294 34.7047 29.4847 34.2859 29.6862 33.8426C30.7756 31.4488 32.2674 28.17 30.6483 20.763C30.0418 17.9885 28.0164 16.6337 24.9462 16.9485C23.1056 17.1368 21.4216 17.8714 20.5817 18.2926C20.4011 18.3831 20.2359 18.4706 20.0816 18.5556C20.316 15.7603 21.2017 10.5363 24.5147 7.231C26.6007 5.15032 29.3788 4.12262 32.7636 4.17804C39.4329 4.28596 43.7097 7.67144 46.1233 10.4928C48.2032 12.9237 49.3294 15.3726 49.7789 16.6935C46.3988 16.3534 44.0999 17.0134 42.9346 18.6614C40.3993 22.2462 44.3215 29.2038 46.2066 32.5477C46.5523 33.1605 46.8507 33.6902 46.9445 33.9152C47.5584 35.3868 48.3531 36.3693 48.9333 37.0863C49.1112 37.3061 49.2837 37.5192 49.4149 37.7054C48.3912 37.9973 46.5523 38.6719 46.7199 42.0435C46.5848 43.7353 45.6237 51.6559 45.1354 54.4544C44.4909 58.1515 43.1155 59.5285 39.2483 60.3489V60.3486ZM55.984 41.4047C54.9371 41.8853 53.1853 42.2457 51.5211 42.3233C49.683 42.4083 48.7473 42.1196 48.5271 41.9419C48.4239 39.8408 49.2144 39.6213 50.0511 39.3889C50.1826 39.3525 50.3109 39.3167 50.4347 39.274C50.5116 39.3359 50.5959 39.3974 50.6883 39.4577C52.1657 40.4222 54.8007 40.5263 58.5209 39.7667L58.5617 39.7586C58.0599 40.2227 57.2013 40.8454 55.984 41.4047Z" fill="white"/>
</svg>
