<svg width="59" height="64" viewBox="0 0 59 64" fill="none" xmlns="http://www.w3.org/2000/svg">
<path d="M58.9664 28.2286C58.8703 26.9896 58.6605 25.7623 58.3398 24.5623C57.4521 21.1921 55.8155 18.0689 53.5534 15.4286C53.0546 14.7803 52.4983 14.1789 51.8914 13.632C52.7905 10.0343 50.7788 6.92114 50.7788 6.92114C47.3094 6.71086 45.1614 7.95886 44.3304 8.58057C44.1896 8.512 44.0489 8.44343 43.9126 8.44343C43.3586 8.23314 42.7319 7.95886 42.1098 7.81714C41.4831 7.61143 40.861 7.47429 40.2343 7.26857C39.6122 7.12686 38.9174 6.98971 38.2226 6.848C38.0864 6.848 38.0137 6.848 37.8775 6.77943C36.3517 2.01143 32.0512 0 32.0512 0C27.2649 3.04457 26.2931 7.33257 26.2931 7.33257C26.2931 7.33257 26.2931 7.40114 26.2204 7.60686L25.3894 7.81714C25.0443 7.95429 24.6265 8.09143 24.2814 8.16457C23.9317 8.30171 23.5185 8.43886 23.1688 8.576C22.474 8.92343 21.7156 9.27086 21.0208 9.61829C20.3261 10.0297 19.6313 10.4457 19.0091 10.8617C18.9365 10.7931 18.8729 10.7931 18.8729 10.7931C12.2111 8.30171 6.31216 11.4149 6.31216 11.4149C5.75814 18.4731 8.94601 22.9714 9.6408 23.8034C9.50457 24.2149 9.36833 24.6994 9.22756 25.1154C8.74328 26.7486 8.37154 28.4135 8.11498 30.0983C8.11498 30.3726 8.04687 30.5829 8.04687 30.8571C1.80283 33.7646 0 39.9909 0 39.9909C5.13147 45.8743 11.1712 46.2857 11.1712 46.2857C11.9295 47.6709 12.8332 48.9143 13.805 50.1623C14.2228 50.6469 14.636 51.1314 15.1219 51.616C14.0115 54.8136 14.1101 58.3109 15.3989 61.44C21.1571 61.6457 24.9035 58.9486 25.6664 58.3269C26.2204 58.5326 26.8471 58.6743 27.4011 58.8114C29.1358 59.296 30.9432 59.5017 32.7415 59.6389H34.9666C37.6686 63.5154 42.3868 64 42.3868 64C45.7836 60.4709 45.9244 56.9417 45.9244 56.1829V56.1143V55.9771V55.84C46.6191 55.3509 47.3094 54.7977 47.9361 54.24C49.261 53.0162 50.4474 51.6487 51.4736 50.1623C51.5417 50.0251 51.6825 49.888 51.7506 49.7509C55.5652 49.9566 58.2717 47.3966 58.2717 47.3966C57.645 43.4514 55.3563 41.5131 54.8704 41.0971L54.8022 41.0286H54.7341C54.7341 41.0286 54.666 41.0286 54.666 40.96C54.666 40.7543 54.7341 40.4754 54.7341 40.2697C54.7341 39.8537 54.8022 39.4377 54.8022 38.9531V38.4V37.6411V37.2937V36.5989L54.7341 36.256C54.666 35.84 54.5979 35.3554 54.4571 34.9394C54.0695 33.2534 53.4131 31.6416 52.5135 30.1669C51.6183 28.723 50.52 27.4172 49.253 26.2903C48.0196 25.2236 46.642 24.3386 45.1614 23.6617C43.731 23.0156 42.2099 22.5962 40.6521 22.4183C39.8892 22.3497 39.1263 22.2811 38.3634 22.2811H38.0092H37.2554C36.8376 22.3497 36.4879 22.3497 36.0747 22.4183C34.5488 22.6926 33.1593 23.2457 31.8423 24.0091C30.5935 24.768 29.481 25.6686 28.5818 26.7749C27.6941 27.7988 26.9889 28.9696 26.4974 30.2354C26.0241 31.4277 25.7435 32.6886 25.6664 33.9703V35.7669C25.7345 36.3931 25.8753 37.0149 26.0161 37.568C26.3612 38.7474 26.8471 39.7851 27.5419 40.6126C28.164 41.5131 28.9951 42.2034 29.8306 42.8297C30.6616 43.3783 31.5653 43.7989 32.4645 44.0731C33.3682 44.3474 34.1992 44.4206 35.0302 44.4206H36.1382C36.279 44.4206 36.3517 44.4206 36.4198 44.352C36.4879 44.352 36.6287 44.2834 36.6968 44.2834C36.9057 44.2103 37.0419 44.2103 37.2508 44.1463L38.2953 43.7257C38.6179 43.584 38.9203 43.3996 39.1944 43.1771C39.2625 43.104 39.3306 43.04 39.4033 43.04C39.4735 42.9899 39.5319 42.9248 39.5743 42.8493C39.6167 42.7739 39.642 42.69 39.6485 42.6035C39.655 42.5171 39.6425 42.4303 39.6119 42.3493C39.5813 42.2683 39.5333 42.1951 39.4714 42.1349C39.2625 41.8606 38.9174 41.792 38.6404 41.9977C38.5723 42.0663 38.5042 42.0663 38.4315 42.1349C38.2226 42.272 37.9456 42.3451 37.6686 42.4091L36.8376 42.6194C36.7013 42.6194 36.5606 42.688 36.4198 42.688H35.1029C33.7083 42.5098 32.4012 41.9068 31.3564 40.96C30.8 40.4667 30.3302 39.8825 29.9669 39.232C29.5996 38.5374 29.3422 37.7893 29.2039 37.0149C29.1358 36.6034 29.1358 36.256 29.1358 35.84V35.3554V35.2183C29.1358 35.008 29.2039 34.8023 29.2039 34.5966C29.481 32.9326 30.3846 31.2731 31.7016 30.0251C32.0512 29.6823 32.3964 29.4034 32.746 29.1977C33.0911 28.9234 33.5044 28.7131 33.9222 28.5074C34.34 28.2971 34.7532 28.16 35.2391 28.0229C35.6885 27.8801 36.1574 27.8091 36.6287 27.8126H38.0864C38.5723 27.8811 39.1263 27.9497 39.6122 28.0229C40.584 28.2286 41.5513 28.5714 42.4549 29.1291C44.2578 30.0983 45.7836 31.6891 46.7554 33.5589C47.2413 34.5234 47.5864 35.4926 47.7272 36.5303C47.7953 36.8046 47.7953 37.0834 47.7953 37.2937V38.9531C47.7953 39.2274 47.7272 39.5063 47.7272 39.7851C47.7272 40.0594 47.6591 40.3337 47.5909 40.6126L47.3821 41.4446C47.2458 41.9977 47.0324 42.5509 46.8235 43.104C46.3922 44.182 45.8342 45.2042 45.1614 46.1486C43.0721 49.0083 39.9633 50.9417 36.4879 51.5429C35.9339 51.616 35.3072 51.68 34.7532 51.7531H33.8541C33.577 51.7531 33.2274 51.7531 32.9504 51.6846C31.7022 51.5955 30.4682 51.3639 29.2721 50.9943C28.097 50.6471 26.9592 50.1831 25.8753 49.6091C22.5981 47.857 19.916 45.1587 18.1736 41.8606C17.6336 40.7723 17.1928 39.637 16.8566 38.4686C16.5115 37.2937 16.3707 36.1189 16.2345 34.9394V33.5589V33.1429C16.2345 32.5211 16.3026 31.9634 16.3707 31.3417C16.4389 30.72 16.5796 30.0983 16.6477 29.5451C16.784 28.9189 16.9248 28.3657 17.0655 27.744C17.3979 26.5853 17.8154 25.453 18.3143 24.3566C19.2861 22.208 20.6031 20.2743 22.197 18.752C22.6148 18.336 23.0326 17.9886 23.4458 17.6411C23.8636 17.2983 24.2814 17.0194 24.7627 16.6766C25.2167 16.3839 25.6801 16.1064 26.1523 15.8446C26.3612 15.7074 26.6382 15.6389 26.8471 15.4971C26.9542 15.4334 27.0707 15.3871 27.1922 15.36C27.3008 15.2958 27.4188 15.2495 27.5419 15.2229C28.0278 15.0126 28.5818 14.8069 29.0677 14.6697C29.2039 14.6011 29.3402 14.6011 29.481 14.5326C29.6172 14.4594 29.758 14.4594 29.8987 14.3954C30.1757 14.3223 30.4528 14.2537 30.6616 14.1851C30.7979 14.1166 30.9387 14.1166 31.0794 14.1166C31.2157 14.1166 31.3519 14.0434 31.4927 14.0434C31.6289 14.0434 31.7697 13.9749 31.9105 13.9749L32.1193 13.9063H32.3282C32.4645 13.9063 32.6007 13.8377 32.7415 13.8377C32.8777 13.8377 33.0185 13.7691 33.2274 13.7691C33.3636 13.7691 33.577 13.7006 33.7133 13.7006H37.1827C38.2271 13.7691 39.1944 13.8377 40.1662 14.0434C42.1098 14.3909 43.9808 15.0126 45.6473 15.8446C47.3094 16.6766 48.8352 17.6411 50.084 18.752L50.2929 18.9577L50.5018 19.1634C50.638 19.3006 50.7788 19.4423 50.9877 19.5794L51.4055 19.9954L51.8187 20.4069C52.3773 20.9646 52.8632 21.5863 53.3445 22.208C54.2482 23.3874 55.0111 24.5623 55.5697 25.7371C55.6333 25.8057 55.6333 25.8743 55.7059 25.9474C55.774 26.016 55.774 26.0846 55.774 26.1531L55.9829 26.5646L56.1918 26.9851L56.3962 27.3966C56.6051 27.9543 56.814 28.4389 56.9547 28.9189C57.2272 29.6823 57.4406 30.3726 57.5769 30.9989C57.645 31.2046 57.8539 31.4103 58.1309 31.3417C58.1948 31.3436 58.2585 31.3324 58.3179 31.3087C58.3774 31.2851 58.4315 31.2496 58.477 31.2042C58.5224 31.1589 58.5582 31.1048 58.5823 31.0451C58.6063 30.9855 58.618 30.9215 58.6168 30.8571C59.0346 29.8194 59.0346 29.0606 58.9664 28.2286Z" fill="url(#paint0_linear_2389_1817)"/>
<defs>
<linearGradient id="paint0_linear_2389_1817" x1="29.5264" y1="78.3634" x2="29.5264" y2="19.9131" gradientUnits="userSpaceOnUse">
<stop stop-color="#FFF200"/>
<stop offset="1" stop-color="#F15A29"/>
</linearGradient>
</defs>
</svg>
