<svg width="71" height="64" viewBox="0 0 71 64" fill="none" xmlns="http://www.w3.org/2000/svg">
<path d="M57.6516 20.7436C56.9242 20.4867 56.1705 20.2437 55.3944 20.0139C55.522 19.4798 55.6391 18.9527 55.7431 18.4345C57.4518 9.92589 56.3346 3.07127 52.5198 0.814443C48.8619 -1.34956 42.8796 0.906761 36.8378 6.30083C36.2568 6.81951 35.6742 7.36868 35.0918 7.94422C34.7038 7.56343 34.3163 7.19544 33.9299 6.84346C27.5979 1.07577 21.2511 -1.35481 17.44 0.908553C13.7855 3.07883 12.7033 9.52282 14.2414 17.5865C14.3899 18.3654 14.5635 19.1608 14.7598 19.9695C13.8616 20.2311 12.9944 20.5099 12.1646 20.8066C4.74104 23.4618 0 27.6231 0 31.9394C0 36.3974 5.08951 40.8688 12.8218 43.58C13.432 43.794 14.0651 43.9963 14.7176 44.1883C14.5058 45.063 14.3216 45.9201 14.167 46.7561C12.7004 54.6798 13.8457 60.9716 17.4904 63.1281C21.2551 65.3553 27.5732 63.066 33.7255 57.549C34.2118 57.1129 34.6998 56.6505 35.1886 56.1657C35.8223 56.7917 36.455 57.3841 37.0843 57.9398C43.0435 63.2006 48.9291 65.3249 52.5705 63.1623C56.3314 60.9288 57.5536 54.1699 55.9668 45.9467C55.8456 45.3187 55.7046 44.6771 55.5462 44.0241C55.9899 43.8895 56.4255 43.7506 56.8502 43.6061C64.8886 40.8739 70.1187 36.4569 70.1187 31.9394C70.1187 27.6074 65.2247 23.4181 57.6516 20.7436ZM55.9081 40.6893C55.5247 40.8195 55.1313 40.9453 54.7304 41.0674C53.843 38.1853 52.6454 35.1207 51.1797 31.9544C52.5783 28.8635 53.7297 25.838 54.5923 22.9747C55.3096 23.1876 56.0057 23.4122 56.6766 23.6492C63.1652 25.9407 67.1232 29.3288 67.1232 31.9394C67.1232 34.7202 62.8487 38.33 55.9081 40.6893ZM53.0283 46.5435C53.73 50.1797 53.8302 53.4673 53.3654 56.0373C52.9478 58.3466 52.1079 59.8863 51.0695 60.5029C48.8597 61.8151 44.1342 60.1095 39.0378 55.6104C38.4536 55.0947 37.8651 54.544 37.2747 53.9611C39.2505 51.7444 41.2251 49.1673 43.1523 46.3052C46.542 45.9966 49.7445 45.4922 52.6487 44.8034C52.7918 45.3954 52.9188 45.9759 53.0283 46.5435ZM23.905 60.2762C21.7461 61.0584 20.0266 61.0808 18.9871 60.4659C16.7754 59.1572 15.8559 54.1055 17.1101 47.3292C17.2538 46.5531 17.4248 45.7559 17.6218 44.9411C20.4942 45.5927 23.6733 46.0616 27.0711 46.3442C29.0113 49.1448 31.0429 51.719 33.0903 53.973C32.643 54.416 32.1974 54.8378 31.7544 55.2352C29.0339 57.6748 26.3076 59.4056 23.905 60.2762ZM13.7905 40.6722C10.3715 39.4734 7.5479 37.9153 5.61247 36.215C3.87336 34.6871 2.99532 33.1702 2.99532 31.9394C2.99532 29.3201 6.80191 25.9791 13.1506 23.7084C13.921 23.4328 14.7274 23.1732 15.5642 22.9292C16.4416 25.8573 17.5926 28.9186 18.9817 32.0142C17.5747 35.1558 16.4073 38.2659 15.5213 41.2282C14.9247 41.0523 14.3467 40.8671 13.7905 40.6722ZM17.181 16.9964C15.8633 10.0876 16.7384 4.87587 18.9407 3.56807C21.2865 2.17487 26.4738 4.16128 31.941 9.14139C32.2904 9.4597 32.6413 9.79286 32.9931 10.1375C30.9558 12.3817 28.9428 14.9366 27.0198 17.7207C23.7221 18.0343 20.5654 18.538 17.663 19.2125C17.4806 18.4595 17.3189 17.7197 17.181 16.9964ZM47.427 24.6582C46.7332 23.4287 46.0209 22.2283 45.2948 21.0608C47.532 21.3509 49.6755 21.736 51.6884 22.2073C51.0841 24.1943 50.3309 26.2717 49.4442 28.4014C48.8082 27.1626 48.1355 25.9136 47.427 24.6582ZM35.0928 12.3337C36.4744 13.8693 37.8581 15.5837 39.219 17.4439C37.8476 17.3774 36.4592 17.3429 35.0593 17.3429C33.6727 17.3429 32.2945 17.3767 30.9316 17.442C32.2939 15.5991 33.6895 13.8869 35.0928 12.3337ZM22.6795 24.6794C21.9865 25.9123 21.3262 27.1546 20.7002 28.3991C19.8279 26.2768 19.0816 24.1899 18.472 22.1748C20.4726 21.7155 22.606 21.34 24.829 21.0554C24.0926 22.2337 23.3745 23.4432 22.6795 24.6794ZM24.893 43.0426C22.5963 42.7798 20.4308 42.4236 18.4307 41.977C19.05 39.9259 19.8128 37.7944 20.7035 35.6264C21.3312 36.8701 21.9941 38.1129 22.6914 39.3484C23.4017 40.6072 24.1377 41.8402 24.893 43.0426ZM35.1757 51.7618C33.7559 50.1903 32.3398 48.4521 30.9568 46.5823C32.2994 46.6363 33.6682 46.664 35.0593 46.664C36.4885 46.664 37.9014 46.631 39.292 46.5675C37.9266 48.4709 36.548 50.2118 35.1757 51.7618ZM49.4728 35.5159C50.41 37.7073 51.2001 39.8277 51.8274 41.8438C49.7943 42.3196 47.5993 42.7028 45.2865 42.9876C46.0144 41.8042 46.733 40.5832 47.439 39.3273C48.1533 38.0566 48.8315 36.784 49.4728 35.5159ZM44.8443 37.7921C43.7483 39.7418 42.623 41.603 41.4806 43.3598C39.3999 43.5124 37.2503 43.591 35.0593 43.591C32.8773 43.591 30.7548 43.5215 28.7109 43.3854C27.5224 41.6055 26.3727 39.7388 25.2836 37.8089C24.1973 35.8842 23.1979 33.9432 22.292 32.0132C23.1976 30.0786 24.1947 28.1355 25.2747 26.2142L25.2745 26.2146C26.3573 24.2883 27.497 22.4306 28.6744 20.6619C30.7597 20.5002 32.8981 20.4158 35.0592 20.4158C37.23 20.4158 39.3713 20.5008 41.456 20.664C42.6155 22.4198 43.7474 24.2714 44.8345 26.198C45.9339 28.1462 46.9439 30.0764 47.8573 31.9695C46.9466 33.8951 45.9389 35.8447 44.8443 37.7921ZM51.0236 3.47665C53.3716 4.86575 54.2847 10.468 52.8095 17.8143C52.7154 18.2831 52.6094 18.7605 52.4943 19.2444C49.5853 18.5558 46.4263 18.0434 43.119 17.7251C41.1923 14.9104 39.1957 12.3515 37.1916 10.1361C37.7304 9.60438 38.2685 9.09734 38.8043 8.61886C43.9809 3.99726 48.8192 2.17256 51.0236 3.47665ZM35.0593 25.516C38.5173 25.516 41.3207 28.3918 41.3207 31.9394C41.3207 35.4869 38.5173 38.3628 35.0593 38.3628C31.6013 38.3628 28.798 35.4869 28.798 31.9394C28.798 28.3918 31.6013 25.516 35.0593 25.516Z" fill="#00D8FF"/>
</svg>
