<svg width="54" height="64" viewBox="0 0 54 64" fill="none" xmlns="http://www.w3.org/2000/svg">
<path opacity="0.98" d="M27 0L0 16.0267V48.0069L27 64L54 48.0059L54 16.0168L27 0Z" fill="#8F0000"/>
<path fill-rule="evenodd" clip-rule="evenodd" d="M26.9024 60.9516L29.6411 59.4716L51 35.4845L50.6234 34.2332H40.1192L38.1993 27.6611L36.5109 30.1548L30.8675 23.6316L26.2069 22.3423L25.9982 25.7089L22.7288 26.0671L19.4594 26.1387L10.9728 26.3536L9.51594 19.3008L2.24027 28.0962L2.44415 34.6386L13.6543 34.6416L13.8476 40.7004L2.13879 41.9693L2 46.2508L26.9024 60.9516Z" fill="black" fill-opacity="0.19898"/>
<path opacity="0.98" d="M52 35.6842V46.2302C52 46.4044 51.9077 46.5653 51.7579 46.6524L27.2302 60.8864C27.0803 60.9734 26.8957 60.9734 26.7459 60.8864L2.25594 46.6515C2.10609 46.5644 1.99999 46.4034 2 46.2292V42.7811V40.608V35.6832V33.5106V17.7662C1.99998 17.592 2.10609 17.431 2.25594 17.3439L26.7459 3.11196C26.8162 3.0712 26.8956 3.04887 26.9767 3.04702C27.0655 3.04486 27.1532 3.06733 27.2302 3.11196L51.7579 17.3439C51.9077 17.431 52 17.592 52 17.7662V26.4136V28.4414V33.511V35.6842ZM26.988 4.09695L2.96877 18.0471V33.4912H12.5917C14.2946 33.4912 15.7532 34.9229 15.7532 36.6376V37.0589C21.5365 37.0158 23.2612 35.5088 25.4121 33.6151C27.2 32.0409 29.4396 30.3184 33.944 29.5988C33.1042 28.7507 32.599 27.7875 32.1491 26.9657C31.6654 26.0828 31.228 25.3834 30.5283 24.9C29.9834 24.5235 29.0532 24.2965 27.8488 24.2245V24.6204C27.8488 26.335 26.5263 27.7379 24.8234 27.7379H12.4941C10.7912 27.7379 9.26394 26.3351 9.26394 24.6204V21.5704C9.26394 19.8558 10.7851 18.4743 12.488 18.4743L24.8173 18.4741C26.5202 18.4741 27.8488 19.8556 27.8488 21.5702V22.1263C29.4416 22.2053 30.7972 22.5194 31.718 23.1557C32.8571 23.9429 33.4802 25.0122 33.9902 25.9432C34.5002 26.8743 34.9183 27.6754 35.5258 28.2365C36.0439 28.7148 36.7695 29.0431 37.9488 29.193C38.1014 27.6169 39.4625 26.4795 41.0648 26.4703H51.0076V18.0472L26.988 4.09695ZM24.8172 20.6195H12.4879C11.913 20.6195 11.4914 20.9912 11.4914 21.5702V24.6203C11.4914 25.1992 11.919 25.5926 12.494 25.5926H24.8233C25.3983 25.5926 25.866 25.1991 25.866 24.6203V21.5702C25.866 20.9913 25.3922 20.6195 24.8173 20.6195H24.8172ZM51.0069 28.4205H41.065C40.4901 28.4205 40.0628 28.9002 40.0628 29.4792V32.5295C40.0628 33.1084 40.49 33.4912 41.065 33.4912H51.0069V28.4205ZM37.8893 31.3696C30.9438 31.4796 29.0279 33.2413 26.7949 35.2076C24.652 37.0943 22.0152 39.075 15.7528 39.1584V39.6879C15.7528 41.4024 14.2943 42.7548 12.5913 42.7548H2.96838V45.9481L26.9876 59.9011L51.0069 45.9481V35.6361H41.0641C39.3611 35.6361 37.8896 34.2439 37.8896 32.5294L37.8893 31.3696ZM12.5906 35.6364H2.9679V40.6096H12.5906C13.1656 40.6096 13.6216 40.2131 13.6216 39.6342V36.6376C13.6216 36.0587 13.1656 35.6364 12.5906 35.6364Z" fill="white"/>
</svg>
