<svg width="64" height="64" viewBox="0 0 64 64" fill="none" xmlns="http://www.w3.org/2000/svg">
<path fill-rule="evenodd" clip-rule="evenodd" d="M25.2264 0C20.1952 0 16.1168 3.90792 16.1168 8.72858V14.7715H31.8833V16.45H9.1095C4.07846 16.45 0 20.358 0 25.1786V38.2715C0 43.0922 4.07846 47 9.1095 47H14.365V39.6144C14.365 34.7938 18.4435 30.8857 23.4746 30.8857H40.292C44.5491 30.8857 48 27.5791 48 23.5001V8.72858C48 3.90792 43.9217 0 38.8906 0H25.2264ZM23.1242 10.7429C24.8657 10.7429 26.2774 9.39012 26.2774 7.72145C26.2774 6.05276 24.8657 4.7 23.1242 4.7C21.3825 4.7 19.9708 6.05276 19.9708 7.72145C19.9708 9.39012 21.3825 10.7429 23.1242 10.7429Z" fill="url(#paint0_linear_2389_1762)"/>
<path fill-rule="evenodd" clip-rule="evenodd" d="M38.7737 64C43.8048 64 47.8833 60.0922 47.8833 55.2715V49.2286H32.1167V47.5501H54.8906C59.9217 47.5501 64 43.642 64 38.8214V25.7285C64 20.9079 59.9217 17 54.8906 17H49.6351V24.3856C49.6351 29.2065 45.5565 33.1143 40.5257 33.1143H23.708C19.4509 33.1143 16 36.421 16 40.4999V55.2715C16 60.0922 20.0785 64 25.1094 64H38.7737ZM40.876 53.2572C39.1343 53.2572 37.7226 54.6098 37.7226 56.2786C37.7226 57.9473 39.1343 59.2999 40.876 59.2999C42.6175 59.2999 44.0292 57.9473 44.0292 56.2786C44.0292 54.6098 42.6175 53.2572 40.876 53.2572Z" fill="url(#paint1_linear_2389_1762)"/>
<defs>
<linearGradient id="paint0_linear_2389_1762" x1="24.0001" y1="0" x2="24.0001" y2="47" gradientUnits="userSpaceOnUse">
<stop stop-color="#327EBD"/>
<stop offset="1" stop-color="#1565A7"/>
</linearGradient>
<linearGradient id="paint1_linear_2389_1762" x1="40.0001" y1="17" x2="40.0001" y2="64" gradientUnits="userSpaceOnUse">
<stop stop-color="#FFDA4B"/>
<stop offset="1" stop-color="#F9C600"/>
</linearGradient>
</defs>
</svg>
