<svg width="323" height="248" viewBox="0 0 323 248" fill="none" xmlns="http://www.w3.org/2000/svg">
<path d="M202.797 1L262.011 1L262.011 238.05L246.165 238.05C226.595 239.954 219.014 242.347 214.89 246.429L202.797 246.429L202.797 1Z" stroke="white" stroke-width="2"/>
<path d="M212.926 1L252.662 1L252.662 19.6993L212.926 19.6993L212.926 1Z" stroke="white" stroke-width="2"/>
<path d="M238.637 4.89453L242.532 4.89453L242.532 8.79023L238.637 8.79023L238.637 4.89453Z" fill="black" stroke="white" stroke-width="2"/>
<path d="M231.625 4.89453L235.521 4.89453L235.521 8.79023L231.625 8.79023L231.625 4.89453Z" fill="black" stroke="white" stroke-width="2"/>
<path d="M224.613 4.89453L229.288 4.89453L229.288 8.79023L224.613 8.79023L224.613 4.89453Z" fill="black" stroke="white" stroke-width="2"/>
<path d="M209.027 32.2216L212.367 32.2216L212.367 37.264L209.027 37.264L209.027 32.2216ZM252.436 32.2216L255.776 32.2216L255.776 37.264L252.436 37.264L252.436 32.2216ZM216.541 31.3828L248.262 31.3828L248.262 39.7835L216.541 39.7835L216.541 31.3828ZM209.027 41.4611L212.367 41.4611L212.367 46.5035L209.027 46.5035L209.027 41.4611ZM252.436 41.4611L255.776 41.4611L255.776 46.5035L252.436 46.5035L252.436 41.4611ZM216.541 40.6223L248.262 40.6223L248.262 49.0231L216.541 49.0231L216.541 40.6223ZM209.027 50.7039L212.367 50.7039L212.367 55.7462L209.027 55.7462L209.027 50.7039ZM252.436 50.7039L255.776 50.7039L255.776 55.7462L252.436 55.7462L252.436 50.7039ZM216.541 49.8651L248.262 49.8651L248.262 58.2658L216.541 58.2658L216.541 49.8651ZM209.027 59.9466L212.367 59.9466L212.367 64.989L209.027 64.989L209.027 59.9466ZM252.436 59.9466L255.776 59.9466L255.776 64.989L252.436 64.989L252.436 59.9466ZM216.541 59.1046L248.262 59.1046L248.262 67.5053L216.541 67.5053L216.541 59.1046ZM209.027 69.1861L212.367 69.1861L212.367 74.2285L209.027 74.2285L209.027 69.1861ZM252.436 69.1861L255.776 69.1861L255.776 74.2285L252.436 74.2285L252.436 69.1861ZM216.541 68.3473L248.262 68.3473L248.262 76.7481L216.541 76.7481L216.541 68.3473ZM209.027 78.4289L212.367 78.4289L212.367 83.4712L209.027 83.4712L209.027 78.4289ZM252.436 78.4289L255.776 78.4289L255.776 83.4712L252.436 83.4712L252.436 78.4289ZM216.541 77.5868L248.262 77.5868L248.262 85.9876L216.541 85.9876L216.541 77.5868ZM209.027 87.6684L212.367 87.6684L212.367 92.7107L209.027 92.7107L209.027 87.6684ZM252.436 87.6684L255.776 87.6684L255.776 92.7107L252.436 92.7107L252.436 87.6684ZM216.541 86.8296L248.262 86.8296L248.262 95.2303L216.541 95.2303L216.541 86.8296ZM209.027 96.9111L212.367 96.9111L212.367 101.953L209.027 101.953L209.027 96.9111ZM252.436 96.9111L255.776 96.9111L255.776 101.953L252.436 101.953L252.436 96.9111ZM216.541 96.0723L248.262 96.0723L248.262 104.473L216.541 104.473L216.541 96.0723ZM209.027 106.154L212.367 106.154L212.367 111.196L209.027 111.196L209.027 106.154ZM252.436 106.154L255.776 106.154L255.776 111.196L252.436 111.196L252.436 106.154ZM216.541 105.312L248.262 105.312L248.262 113.713L216.541 113.713L216.541 105.312ZM209.027 115.393L212.367 115.393L212.367 120.436L209.027 120.436L209.027 115.393ZM252.436 115.393L255.776 115.393L255.776 120.436L252.436 120.436L252.436 115.393ZM216.541 114.555L248.262 114.555L248.262 122.955L216.541 122.955L216.541 114.555ZM209.027 124.636L212.367 124.636L212.367 129.678L209.027 129.678L209.027 124.636ZM252.436 124.636L255.776 124.636L255.776 129.678L252.436 129.678L252.436 124.636ZM216.541 123.794L248.262 123.794L248.262 132.195L216.541 132.195L216.541 123.794ZM209.027 133.876L212.367 133.876L212.367 138.918L209.027 138.918L209.027 133.876ZM252.436 133.876L255.776 133.876L255.776 138.918L252.436 138.918L252.436 133.876ZM216.541 133.037L248.262 133.037L248.262 141.438L216.541 141.438L216.541 133.037ZM209.027 143.118L212.367 143.118L212.367 148.161L209.027 148.161L209.027 143.118ZM252.436 143.118L255.776 143.118L255.776 148.161L252.436 148.161L252.436 143.118ZM216.541 142.28L248.262 142.28L248.262 150.68L216.541 150.68L216.541 142.28ZM209.027 152.358L212.367 152.358L212.367 157.4L209.027 157.4L209.027 152.358ZM252.436 152.358L255.776 152.358L255.776 157.4L252.436 157.4L252.436 152.358ZM216.541 151.519L248.262 151.519L248.262 159.92L216.541 159.92L216.541 151.519ZM209.027 161.601L212.367 161.601L212.367 166.643L209.027 166.643L209.027 161.601ZM252.436 161.601L255.776 161.601L255.776 166.643L252.436 166.643L252.436 161.601ZM216.541 160.762L248.262 160.762L248.262 169.163L216.541 169.163L216.541 160.762ZM209.027 170.843L212.367 170.843L212.367 175.886L209.027 175.886L209.027 170.843ZM252.436 170.843L255.776 170.843L255.776 175.886L252.436 175.886L252.436 170.843ZM216.541 170.001L248.262 170.001L248.262 178.402L216.541 178.402L216.541 170.001ZM209.027 180.083L212.367 180.083L212.367 185.125L209.027 185.125L209.027 180.083ZM252.436 180.083L255.776 180.083L255.776 185.125L252.436 185.125L252.436 180.083ZM216.541 179.244L248.262 179.244L248.262 187.645L216.541 187.645L216.541 179.244ZM209.027 189.326L212.367 189.326L212.367 194.368L209.027 194.368L209.027 189.326ZM252.436 189.326L255.776 189.326L255.776 194.368L252.436 194.368L252.436 189.326ZM216.541 188.484L248.262 188.484L248.262 196.884L216.541 196.884L216.541 188.484ZM209.027 198.565L212.367 198.565L212.367 203.608L209.027 203.608L209.027 198.565ZM252.436 198.565L255.776 198.565L255.776 203.608L252.436 203.608L252.436 198.565ZM216.541 197.726L248.262 197.726L248.262 206.127L216.541 206.127L216.541 197.726ZM209.027 207.808L212.367 207.808L212.367 212.85L209.027 212.85L209.027 207.808ZM252.436 207.808L255.776 207.808L255.776 212.85L252.436 212.85L252.436 207.808ZM216.541 206.969L248.262 206.969L248.262 215.37L216.541 215.37L216.541 206.969ZM209.027 217.051L212.367 217.051L212.367 222.093L209.027 222.093L209.027 217.051ZM252.436 217.051L255.776 217.051L255.776 222.093L252.436 222.093L252.436 217.051ZM216.541 216.209L248.262 216.209L248.262 224.609L216.541 224.609L216.541 216.209Z" fill="#00E7F9" fill-opacity="0.2" stroke="white" stroke-width="2"/>
<path d="M262.008 1L322.002 1L322.002 238.05L305.946 238.05C286.117 239.954 278.436 242.347 274.257 246.429L262.008 246.429L262.008 1Z" stroke="white" stroke-width="2"/>
<path d="M270.582 1L311.876 1L311.876 19.6993L270.582 19.6993L270.582 1Z" stroke="white" stroke-width="2"/>
<path d="M290.84 4.89453L294.736 4.89453L294.736 8.79023L290.84 8.79023L290.84 4.89453Z" fill="black" stroke="white" stroke-width="2"/>
<path d="M283.828 4.89453L288.503 4.89453L288.503 8.79023L283.828 8.79023L283.828 4.89453Z" fill="black" stroke="white" stroke-width="2"/>
<path d="M297.074 4.89453L300.97 4.89453L300.97 8.79023L297.074 8.79023L297.074 4.89453Z" fill="black" stroke="white" stroke-width="2"/>
<path d="M106.184 1L202.797 1L202.797 246.429L106.184 246.429L106.184 1Z" stroke="white" stroke-width="2"/>
<path d="M113.199 4.11328L164.622 4.11328L164.622 22.0335L113.199 22.0335L113.199 4.11328Z" stroke="white" stroke-width="2"/>
<path d="M126.441 7.23438L131.895 7.23438L131.895 12.6884L126.441 12.6884L126.441 7.23438Z" fill="black" stroke="white" stroke-width="2"/>
<path d="M134.23 7.23438L139.684 7.23438L139.684 12.6884L134.23 12.6884L134.23 7.23438Z" fill="black" stroke="white" stroke-width="2"/>
<path d="M142.02 7.23438L147.474 7.23438L147.474 12.6884L142.02 12.6884L142.02 7.23438Z" fill="black" stroke="white" stroke-width="2"/>
<path d="M114.75 32.1641L195.001 32.1641L195.001 148.256L114.75 148.256L114.75 32.1641Z" stroke="white" stroke-width="2"/>
<path d="M185.808 51.6445L124.737 51.6445C123.098 51.6445 121.77 52.9432 121.77 54.5452L121.77 139.124C121.77 140.726 123.098 142.025 124.737 142.025L185.808 142.025C187.447 142.025 188.776 140.726 188.776 139.124L188.776 54.5452C188.776 52.9432 187.447 51.6445 185.808 51.6445Z" stroke="white" stroke-width="2"/>
<path d="M144.856 166.012C145.003 164.023 145.741 163.23 147.833 162.281L158.457 162.281C160.683 163.79 160.986 164.596 161.006 166.012L161.006 187.155L181.405 187.155C183.55 187.218 184.676 187.839 185.655 190.055L185.655 200.004C184.64 202.172 183.771 202.716 181.829 202.907L161.006 202.907L161.006 224.046C160.356 225.648 159.739 226.323 158.032 226.95L147.833 226.95C146.233 226.345 145.581 225.715 144.856 224.05L144.856 202.904L123.184 202.904C121.176 202.076 120.488 201.306 120.207 199.173L120.207 190.883C120.478 188.845 121.03 187.986 123.184 187.152L144.856 187.152L144.856 166.012Z" stroke="white" stroke-width="2"/>
<path d="M153.171 167.73L149.485 174.792L156.448 174.792L153.171 167.73ZM153.171 221.305L149.485 214.246L156.448 214.246L153.171 221.305ZM180.199 195.141L173.239 198.879L173.239 191.821L180.199 195.141ZM125.735 195.141L132.697 198.879L132.697 191.821L125.735 195.141ZM123.618 225.965L123.618 226.855L120.221 226.855L120.221 225.965L123.618 225.965ZM120.533 220.358L120.533 226.855L119.426 226.855L119.426 220.358L120.533 220.358ZM123.175 223.069L123.175 223.946L120.218 223.946L120.218 223.072L123.175 223.069ZM123.599 220.358L123.599 221.251L120.218 221.251L120.218 220.358L123.599 220.358ZM127.892 225.18C127.894 225.058 127.872 224.937 127.829 224.823C127.786 224.711 127.714 224.612 127.621 224.536C127.494 224.433 127.352 224.349 127.2 224.287C126.977 224.187 126.748 224.102 126.514 224.032C126.227 223.944 125.944 223.838 125.668 223.716C125.431 223.608 125.207 223.471 125.002 223.308C124.81 223.164 124.655 222.975 124.55 222.757C124.445 222.54 124.393 222.3 124.398 222.058C124.395 221.808 124.451 221.561 124.561 221.338C124.671 221.114 124.832 220.92 125.03 220.772C125.248 220.605 125.494 220.48 125.757 220.402C126.056 220.31 126.368 220.265 126.681 220.268C127.156 220.268 127.565 220.358 127.908 220.536C128.254 220.715 128.521 220.954 128.703 221.254C128.892 221.557 128.986 221.889 128.986 222.249L127.892 222.249C127.895 222.052 127.847 221.857 127.754 221.684C127.662 221.515 127.522 221.378 127.351 221.292C127.138 221.189 126.904 221.14 126.669 221.149C126.446 221.141 126.224 221.183 126.018 221.27C125.86 221.337 125.725 221.45 125.631 221.595C125.546 221.734 125.502 221.894 125.505 222.058C125.503 222.175 125.531 222.29 125.587 222.392C125.64 222.488 125.725 222.584 125.838 222.67C125.974 222.765 126.12 222.844 126.272 222.906C126.445 222.979 126.65 223.053 126.882 223.12C127.238 223.228 127.549 223.346 127.81 223.477C128.074 223.604 128.295 223.751 128.471 223.914C128.644 224.072 128.781 224.267 128.873 224.484C128.964 224.702 129.007 224.937 128.999 225.174C129.002 225.43 128.946 225.683 128.835 225.914C128.725 226.133 128.565 226.323 128.37 226.469C128.152 226.63 127.907 226.75 127.647 226.823C127.343 226.907 127.03 226.947 126.716 226.944C126.407 226.943 126.101 226.9 125.804 226.816C125.516 226.737 125.242 226.61 124.995 226.44C124.745 226.271 124.541 226.04 124.402 225.77C124.263 225.499 124.194 225.198 124.2 224.893L125.304 224.893C125.298 225.079 125.335 225.263 125.411 225.432C125.481 225.576 125.584 225.701 125.713 225.796C125.841 225.891 125.992 225.955 126.162 226.003C126.559 226.099 126.975 226.084 127.364 225.958C127.524 225.897 127.662 225.788 127.76 225.646C127.849 225.508 127.895 225.345 127.892 225.18ZM133.76 224.74L134.861 224.74C134.833 225.143 134.711 225.533 134.506 225.879C134.302 226.212 134.011 226.481 133.666 226.657C133.257 226.858 132.806 226.957 132.351 226.944C131.984 226.95 131.62 226.877 131.282 226.73C130.97 226.588 130.691 226.378 130.468 226.115C130.233 225.83 130.056 225.5 129.949 225.145C129.827 224.735 129.767 224.307 129.773 223.879L129.773 223.337C129.773 222.871 129.836 222.45 129.955 222.07C130.066 221.716 130.246 221.387 130.483 221.104C130.707 220.836 130.988 220.623 131.304 220.482C131.648 220.335 132.019 220.262 132.392 220.268C132.902 220.268 133.333 220.364 133.682 220.555C134.037 220.747 134.311 221.008 134.499 221.343C134.703 221.697 134.828 222.093 134.864 222.501L133.764 222.501C133.742 222.252 133.676 222.009 133.569 221.783C133.477 221.588 133.326 221.429 133.138 221.327C132.906 221.211 132.65 221.156 132.392 221.168C132.141 221.168 131.921 221.212 131.732 221.308C131.542 221.405 131.379 221.55 131.26 221.729C131.125 221.937 131.029 222.168 130.977 222.412C130.914 222.68 130.883 222.986 130.883 223.33L130.883 223.879C130.883 224.204 130.911 224.504 130.965 224.772C131.014 225.013 131.103 225.244 131.229 225.454C131.347 225.645 131.514 225.801 131.711 225.906C131.908 226.011 132.129 226.061 132.351 226.051C132.666 226.051 132.918 226 133.113 225.901C133.303 225.805 133.459 225.65 133.556 225.458C133.667 225.233 133.737 224.99 133.76 224.74Z" fill="black" stroke="white" stroke-width="2"/>
<path d="M114.75 215.262L114.75 232.403L137.345 232.403" stroke="white" stroke-width="2"/>
<path d="M180.931 223.669L180.931 224C180.931 224.458 180.867 224.869 180.74 225.235C180.625 225.575 180.438 225.89 180.19 226.161C179.958 226.415 179.667 226.617 179.339 226.751C178.991 226.887 178.617 226.955 178.239 226.95C177.872 226.963 177.506 226.899 177.168 226.763C176.831 226.627 176.53 226.422 176.289 226.164C176.037 225.891 175.846 225.575 175.726 225.232C175.589 224.835 175.522 224.42 175.528 224.003L175.528 223.669C175.528 223.211 175.592 222.8 175.726 222.44C175.843 222.099 176.031 221.783 176.279 221.511C176.513 221.258 176.805 221.058 177.133 220.924C177.479 220.785 177.853 220.715 178.23 220.719C178.632 220.719 178.997 220.787 179.329 220.924C179.659 221.056 179.951 221.257 180.183 221.511C180.432 221.783 180.619 222.099 180.733 222.44C180.864 222.8 180.931 223.211 180.931 223.669ZM179.809 224L179.809 223.66C179.809 223.321 179.774 223.023 179.7 222.767C179.645 222.532 179.541 222.31 179.393 222.112C179.267 221.94 179.095 221.802 178.895 221.71C178.687 221.617 178.46 221.57 178.23 221.573C178 221.57 177.774 221.616 177.568 221.71C177.369 221.803 177.199 221.94 177.072 222.109C176.926 222.308 176.821 222.53 176.762 222.764C176.687 223.057 176.651 223.357 176.656 223.657L176.656 224C176.656 224.339 176.688 224.64 176.762 224.902C176.822 225.138 176.928 225.362 177.075 225.563C177.216 225.742 177.382 225.875 177.577 225.968C177.769 226.057 177.993 226.099 178.239 226.099C178.469 226.104 178.696 226.059 178.904 225.968C179.102 225.873 179.271 225.734 179.397 225.563C179.54 225.362 179.643 225.138 179.7 224.902C179.776 224.608 179.813 224.303 179.809 224ZM183.176 220.802L183.176 226.867L182.054 226.867L182.054 220.802L183.176 220.802ZM187.09 220.802L184.452 223.72L182.949 225.206L182.751 224.167L183.825 222.934L185.721 220.802L187.09 220.802ZM185.881 226.867L183.739 223.994L184.513 223.279L187.214 226.867L185.881 226.867Z" fill="black" stroke="white" stroke-width="2"/>
<path d="M190.331 214.601L190.331 232.189L169.388 232.189M1 1L105.686 1L105.686 246.429L0.999995 246.429L1 1Z" stroke="white" stroke-width="2"/>
<path d="M8.79297 4.11328L60.2162 4.11328L60.2162 22.0335L8.79297 22.0335L8.79297 4.11328Z" stroke="white" stroke-width="2"/>
<path d="M37.6211 7.23438L42.2959 7.23438L42.2959 12.6884L37.6211 12.6884L37.6211 7.23438Z" fill="black" stroke="white" stroke-width="2"/>
<path d="M37.6211 7.23438L42.2959 7.23438L42.2959 12.6884L37.6211 12.6884L37.6211 7.23438Z" fill="black" stroke="white" stroke-width="2"/>
<path d="M23.5977 7.23438L28.2725 7.23438L28.2725 12.6884L23.5977 12.6884L23.5977 7.23438Z" fill="black" stroke="white" stroke-width="2"/>
<path d="M30.6055 7.23438L35.2803 7.23438L35.2803 12.6884L30.6055 12.6884L30.6055 7.23438Z" fill="black" stroke="white" stroke-width="2"/>
</svg>
