<svg width="349" height="148" viewBox="0 0 349 148" fill="none" xmlns="http://www.w3.org/2000/svg">
<g filter="url(#filter0_i_2606_232)">
<path d="M178.998 112.194C178.998 112.194 175.144 112.194 175.144 108.34V1.71288C175.144 1.71288 175.144 0 173.859 0H134.463C132.75 0 132.75 1.71288 132.75 1.71288V143.026C132.75 143.026 132.75 146.88 136.176 146.88L229.528 146.452C231.241 146.452 231.241 144.739 231.241 144.739V113.907C231.241 113.907 231.241 112.194 229.528 112.194H178.998Z" fill="url(#paint0_linear_2606_232)"/>
</g>
<g filter="url(#filter1_i_2606_232)">
<path d="M241.516 145.595V113.907C241.516 113.907 241.516 112.194 243.229 112.194H285.622C285.622 112.194 317.739 109.625 294.615 79.2209C271.491 48.8172 250.08 35.5423 250.08 19.2699V3.42577C250.08 3.42577 249.652 0 253.506 0H292.474C295.043 0 295.043 3.42577 295.043 3.42577C295.043 3.42577 294.615 9.42086 295.043 12.4184C295.471 15.416 301.162 21.3972 305.321 26.9779C317.362 43.1375 329.301 51.8147 339.15 65.946C348.999 80.0773 348.999 94.6368 348.999 94.6368C346.43 147.308 301.467 147.308 299.754 147.308H243.23C241.516 147.308 241.516 145.595 241.516 145.595Z" fill="url(#paint1_linear_2606_232)"/>
</g>
<g filter="url(#filter2_i_2606_232)">
<path d="M55.2405 56.5252C72.7975 56.5252 73.2258 33.4012 55.2405 33.4012H1.71288C1.71288 33.4012 0 33.4012 0 31.6883V1.71288C0 1.71288 0 0 1.71288 0H67.2307C125.469 0 113.907 46.6761 113.907 46.6761C108.768 72.3693 84.3595 75.7951 84.3595 75.7951C107.055 75.7951 106.199 101.917 106.199 101.917V143.454L106.199 144.739C106.199 144.739 106.199 146.452 104.486 146.452H65.0896C65.0896 146.452 63.3767 146.452 63.3767 144.739V109.625C63.3767 109.625 63.3767 91.6393 45.3914 91.6393H1.71288C1.71288 91.6393 0 91.6393 0 89.4982V58.238C0 58.238 0 56.5252 1.71288 56.5252H55.2405Z" fill="url(#paint2_linear_2606_232)"/>
</g>
<defs>
<filter id="filter0_i_2606_232" x="132.75" y="0" width="98.4922" height="150.879" filterUnits="userSpaceOnUse" color-interpolation-filters="sRGB">
<feFlood flood-opacity="0" result="BackgroundImageFix"/>
<feBlend mode="normal" in="SourceGraphic" in2="BackgroundImageFix" result="shape"/>
<feColorMatrix in="SourceAlpha" type="matrix" values="0 0 0 0 0 0 0 0 0 0 0 0 0 0 0 0 0 0 127 0" result="hardAlpha"/>
<feOffset dy="4"/>
<feGaussianBlur stdDeviation="2"/>
<feComposite in2="hardAlpha" operator="arithmetic" k2="-1" k3="1"/>
<feColorMatrix type="matrix" values="0 0 0 0 0 0 0 0 0 0 0 0 0 0 0 0 0 0 0.25 0"/>
<feBlend mode="normal" in2="shape" result="effect1_innerShadow_2606_232"/>
</filter>
<filter id="filter1_i_2606_232" x="241.516" y="0" width="107.484" height="151.309" filterUnits="userSpaceOnUse" color-interpolation-filters="sRGB">
<feFlood flood-opacity="0" result="BackgroundImageFix"/>
<feBlend mode="normal" in="SourceGraphic" in2="BackgroundImageFix" result="shape"/>
<feColorMatrix in="SourceAlpha" type="matrix" values="0 0 0 0 0 0 0 0 0 0 0 0 0 0 0 0 0 0 127 0" result="hardAlpha"/>
<feOffset dy="4"/>
<feGaussianBlur stdDeviation="2"/>
<feComposite in2="hardAlpha" operator="arithmetic" k2="-1" k3="1"/>
<feColorMatrix type="matrix" values="0 0 0 0 0 0 0 0 0 0 0 0 0 0 0 0 0 0 0.25 0"/>
<feBlend mode="normal" in2="shape" result="effect1_innerShadow_2606_232"/>
</filter>
<filter id="filter2_i_2606_232" x="0" y="0" width="114.84" height="150.453" filterUnits="userSpaceOnUse" color-interpolation-filters="sRGB">
<feFlood flood-opacity="0" result="BackgroundImageFix"/>
<feBlend mode="normal" in="SourceGraphic" in2="BackgroundImageFix" result="shape"/>
<feColorMatrix in="SourceAlpha" type="matrix" values="0 0 0 0 0 0 0 0 0 0 0 0 0 0 0 0 0 0 127 0" result="hardAlpha"/>
<feOffset dy="4"/>
<feGaussianBlur stdDeviation="2"/>
<feComposite in2="hardAlpha" operator="arithmetic" k2="-1" k3="1"/>
<feColorMatrix type="matrix" values="0 0 0 0 0 0 0 0 0 0 0 0 0 0 0 0 0 0 0.25 0"/>
<feBlend mode="normal" in2="shape" result="effect1_innerShadow_2606_232"/>
</filter>
<linearGradient id="paint0_linear_2606_232" x1="181.995" y1="0" x2="181.995" y2="146.88" gradientUnits="userSpaceOnUse">
<stop offset="1" stop-color="#00A650"/>
</linearGradient>
<linearGradient id="paint1_linear_2606_232" x1="295.257" y1="0" x2="295.257" y2="147.308" gradientUnits="userSpaceOnUse">
<stop offset="1" stop-color="#00A650"/>
</linearGradient>
<linearGradient id="paint2_linear_2606_232" x1="83.9313" y1="146.452" x2="82.2184" y2="1.28466" gradientUnits="userSpaceOnUse">
<stop offset="1" stop-color="#00A650"/>
</linearGradient>
</defs>
</svg>
