<svg width="173" height="133" viewBox="0 0 173 133" fill="none" xmlns="http://www.w3.org/2000/svg">
<path d="M170.017 28C171.688 28 173 26.46 173 24.5V3.5C173 1.54 171.688 0 170.017 0H2.98276C1.31241 0 0 1.54 0 3.5V24.5C0 26.46 1.31241 28 2.98276 28H5.96552V35H2.98276C1.31241 35 0 36.54 0 38.5V59.5C0 61.46 1.31241 63 2.98276 63H5.96552V70H2.98276C1.31241 70 0 71.54 0 73.5V94.5C0 96.46 1.31241 98 2.98276 98H5.96552V105H2.98276C1.31241 105 0 106.54 0 108.5V129.5C0 131.46 1.31241 133 2.98276 133H170.017C171.688 133 173 131.46 173 129.5V108.5C173 106.54 171.688 105 170.017 105H167.034V98H170.017C171.688 98 173 96.46 173 94.5V73.5C173 71.54 171.688 70 170.017 70H167.034V63H170.017C171.688 63 173 61.46 173 59.5V38.5C173 36.54 171.688 35 170.017 35H167.034V28H170.017ZM41.7577 105H11.9301V98H41.7577V105ZM41.7577 70H11.9301V63H41.7577V70ZM41.7577 35H11.9301V28H41.7577V35ZM125.275 105H47.7232V98H125.275V105ZM125.275 70H47.7232V63H125.275V70ZM125.275 35H47.7232V28H125.275V35ZM161.068 105H131.24V98H161.068V105ZM161.068 70H131.24V63H161.068V70ZM161.068 35H131.24V28H161.068V35Z" fill="#A27E36"/>
</svg>
