<svg width="33" height="26" viewBox="0 0 33 26" fill="none" xmlns="http://www.w3.org/2000/svg">
<path d="M5.35586 15.7224H3.30566V2.06711H5.35586V15.7224Z" fill="#808080" stroke="#808080" stroke-opacity="0.99" stroke-width="0.176557"/>
<path d="M3.20951 15.5486H1.8501V2.24108H3.20951V15.5486Z" fill="#15FF09" fill-opacity="0.85"/>
<path d="M1.85017 15.5413L0 13.4539V4.19185L1.85017 2.23375V15.5413Z" fill="#B3B3B3"/>
<path d="M15.5756 15.1687H5.11963V2.6204H15.5756V15.1687Z" fill="#15FF09" fill-opacity="0.85" stroke="#808080" stroke-opacity="0.99" stroke-width="0.181202"/>
<path d="M14.8408 15.801H5.83008V14.3063H14.8408V15.801Z" fill="#15FF09" fill-opacity="0.85" stroke="#808080" stroke-opacity="0.99" stroke-width="0.184172"/>
<path d="M5.62451 22.1434C5.91687 22.1948 15.1821 22.1434 15.1821 22.1434L14.8411 15.8014H5.83152L5.62451 22.1434Z" fill="#B3B3B3" stroke="#808080" stroke-opacity="0.99" stroke-width="0.195376"/>
<path d="M15.182 22.1432L15.1342 24.5137C8.73739 25.1966 5.49576 25.0962 0.319824 24.6097V21.7085H5.67016L5.62442 22.1433L15.182 22.1432Z" fill="#B3B3B3" stroke="#808080" stroke-opacity="0.99" stroke-width="0.195376"/>
<path d="M0.319824 21.7756L0.600017 16.0527H5.17211L5.67016 21.7756H0.319824Z" fill="#B3B3B3" stroke="#808080" stroke-opacity="0.99" stroke-width="0.195376"/>
<path d="M8.96399 16.5075C9.42924 16.5075 9.80639 16.8838 9.80639 17.3479C9.80639 17.812 9.42924 18.1882 8.96399 18.1882C8.49874 18.1882 8.12158 17.812 8.12158 17.3479C8.12158 16.8838 8.49874 16.5075 8.96399 16.5075Z" fill="#15FF09" fill-opacity="0.85" stroke="#808080" stroke-opacity="0.99" stroke-width="0.128956"/>
<path d="M8.36035 17.3428H9.47308" stroke="black" stroke-width="0.196239"/>
<path d="M11.8808 16.2088C12.5187 16.2088 13.0359 16.7247 13.0359 17.3611C13.0359 17.9975 12.5187 18.5134 11.8808 18.5134C11.2428 18.5134 10.7256 17.9975 10.7256 17.3611C10.7256 16.7247 11.2428 16.2088 11.8808 16.2088Z" fill="#15FF09" fill-opacity="0.85" stroke="#808080" stroke-opacity="0.99" stroke-width="0.176833"/>
<path d="M11.0527 17.354H12.5786" stroke="black" stroke-width="0.269096"/>
<path d="M7.53122 19.2343H13.3004V21.5061C13.3207 21.8249 13.1083 22.0172 12.7012 22.1038H8.17844C7.81034 21.9895 7.51434 21.8226 7.51416 21.4412L7.53122 19.2343Z" fill="#15FF09" fill-opacity="0.85"/>
<path d="M17.9051 14.0935H15.6562V11.5885H17.9051V14.0935Z" fill="#15FF09" fill-opacity="0.85" stroke="#808080" stroke-opacity="0.99" stroke-width="0.179247"/>
<path d="M17.9072 6.2356H15.7178V3.82112H17.9072V6.2356Z" fill="#15FF09" fill-opacity="0.85" stroke="#808080" stroke-opacity="0.99" stroke-width="0.179247"/>
<path d="M19.6738 14.6008H15.5366V3.07009H19.6738V14.6008Z" fill="#808080" stroke="#808080" stroke-opacity="0.99" stroke-width="0.173635"/>
<path d="M32.8934 13.2024H20.9053V4.71754H32.8934V13.2024Z" fill="#15FF09" fill-opacity="0.85" stroke="#808080" stroke-opacity="0.99" stroke-width="0.179247"/>
<path d="M27.503 14.8323H26.3252V13.2624H27.503V14.8323Z" stroke="#808080" stroke-opacity="0.99" stroke-width="0.179247"/>
<path d="M31.607 14.5955H27.4961V13.2427H31.607V14.5955Z" fill="#808080" stroke="#808080" stroke-opacity="0.99" stroke-width="0.165968"/>
<path d="M26.3248 14.615H22.2139V13.2623H26.3248V14.615Z" fill="#808080" stroke="#808080" stroke-opacity="0.99" stroke-width="0.165968"/>
<path d="M27.4112 3.13745H26.2334V4.70738H27.4112V3.13745Z" stroke="#808080" stroke-opacity="0.99" stroke-width="0.179247"/>
<path d="M31.5157 3.37427H27.4048V4.72702H31.5157V3.37427Z" fill="#808080" stroke="#808080" stroke-opacity="0.99" stroke-width="0.165968"/>
<path d="M26.234 3.35474H22.123V4.70749H26.234V3.35474Z" fill="#808080" stroke="#808080" stroke-opacity="0.99" stroke-width="0.165968"/>
<path d="M32.7117 1.7522H20.7451V0.999486H32.7117V1.7522Z" fill="#999999" stroke="#808080" stroke-opacity="0.99" stroke-width="0.179247"/>
<path d="M32.3927 2.6521H21.1899V1.74556H32.3927V2.6521Z" fill="#999999" stroke="#808080" stroke-opacity="0.99" stroke-width="0.179247"/>
<path d="M32.0107 3.34937H21.5576V2.62457H32.0107V3.34937Z" fill="#666666" stroke="#808080" stroke-opacity="0.99" stroke-width="0.179247"/>
<path d="M23.7882 3.35474H22.123V1.72499H23.7882V3.35474Z" stroke="#808080" stroke-opacity="0.99" stroke-width="0.179247"/>
<path d="M31.5158 3.37427H29.8506V1.74452H31.5158V3.37427Z" stroke="#808080" stroke-opacity="0.99" stroke-width="0.179247"/>
<path d="M22.2138 13.9514H19.6855V13.2623H22.2138V13.9514Z" fill="#808080" stroke="#808080" stroke-opacity="0.99" stroke-width="0.179247"/>
<path d="M22.123 4.70728H19.5947V4.01818H22.123V4.70728Z" fill="#808080" stroke="#808080" stroke-opacity="0.99" stroke-width="0.179247"/>
<path d="M20.9129 9.97192H19.6611V8.37079H20.9129V9.97192Z" fill="#15FF09" fill-opacity="0.85" stroke="#808080" stroke-opacity="0.99" stroke-width="0.175101"/>
<path d="M8.9967 19.6853C9.46195 19.6853 9.83911 20.0615 9.83911 20.5256C9.83911 20.9897 9.46195 21.366 8.9967 21.366C8.53145 21.366 8.1543 20.9897 8.1543 20.5256C8.1543 20.0615 8.53145 19.6853 8.9967 19.6853Z" fill="#15FF09" fill-opacity="0.85" stroke="#808080" stroke-opacity="0.99" stroke-width="0.128956"/>
<path d="M8.39307 20.5205H9.50579" stroke="black" stroke-width="0.196239"/>
<path d="M11.661 19.4754C12.299 19.4754 12.8162 19.9913 12.8162 20.6277C12.8162 21.2641 12.299 21.78 11.661 21.78C11.023 21.78 10.5059 21.2641 10.5059 20.6277C10.5059 19.9913 11.023 19.4754 11.661 19.4754Z" fill="#15FF09" fill-opacity="0.85" stroke="#808080" stroke-opacity="0.99" stroke-width="0.176833"/>
<path d="M10.833 20.6205H12.3589" stroke="black" stroke-width="0.269096"/>
</svg>
