<svg width="320" height="53" viewBox="0 0 320 53" fill="none" xmlns="http://www.w3.org/2000/svg">
<rect width="320" height="53" rx="4" fill="#17DC13"/>
<path d="M120.867 33V31.6328L122.078 31.3984V23.2344L120.867 23V21.625H122.078H126.281C127.151 21.625 127.901 21.7786 128.531 22.0859C129.161 22.388 129.646 22.8125 129.984 23.3594C130.323 23.901 130.492 24.5339 130.492 25.2578C130.492 25.9818 130.323 26.6172 129.984 27.1641C129.646 27.7057 129.161 28.1276 128.531 28.4297C127.901 28.7266 127.151 28.875 126.281 28.875H124.359V31.3984L125.578 31.6328V33H120.867ZM124.359 27.1172H126.281C126.917 27.1172 127.396 26.9453 127.719 26.6016C128.047 26.2526 128.211 25.8099 128.211 25.2734C128.211 24.7266 128.047 24.276 127.719 23.9219C127.396 23.5625 126.917 23.3828 126.281 23.3828H124.359V27.1172ZM134.016 33.1641C133.177 33.1641 132.51 32.9401 132.016 32.4922C131.521 32.0391 131.273 31.4245 131.273 30.6484C131.273 29.8516 131.596 29.2057 132.242 28.7109C132.888 28.2109 133.833 27.9609 135.078 27.9609H136.195V27.3359C136.195 26.9297 136.076 26.6016 135.836 26.3516C135.602 26.0964 135.247 25.9688 134.773 25.9688C134.529 25.9688 134.31 26 134.117 26.0625C133.924 26.1198 133.747 26.2031 133.586 26.3125L133.406 27.4297H131.766L131.734 25.2344C132.177 24.9844 132.656 24.7812 133.172 24.625C133.688 24.4688 134.263 24.3906 134.898 24.3906C136.003 24.3906 136.875 24.6484 137.516 25.1641C138.156 25.6745 138.477 26.4062 138.477 27.3594V30.8438C138.477 30.9583 138.477 31.0729 138.477 31.1875C138.482 31.2969 138.492 31.4036 138.508 31.5078L139.391 31.6328V33H136.562C136.505 32.8542 136.448 32.6979 136.391 32.5312C136.333 32.3646 136.292 32.1979 136.266 32.0312C135.995 32.375 135.674 32.651 135.305 32.8594C134.94 33.0625 134.51 33.1641 134.016 33.1641ZM134.625 31.4766C134.943 31.4766 135.245 31.4062 135.531 31.2656C135.818 31.1198 136.039 30.9297 136.195 30.6953V29.3594H135.07C134.57 29.3594 134.19 29.474 133.93 29.7031C133.674 29.9323 133.547 30.2083 133.547 30.5312C133.547 30.8333 133.641 31.0677 133.828 31.2344C134.021 31.3958 134.286 31.4766 134.625 31.4766ZM140.078 33V31.6328L141.18 31.3984V22.4219L139.961 22.1875V20.8125H143.461V31.3984L144.562 31.6328V33H140.078ZM149.203 33.1641C148.396 33.1641 147.69 32.987 147.086 32.6328C146.482 32.2734 146.013 31.7812 145.68 31.1562C145.352 30.5312 145.188 29.8177 145.188 29.0156V28.7031C145.188 27.8646 145.344 27.1224 145.656 26.4766C145.969 25.8255 146.409 25.3151 146.977 24.9453C147.549 24.5755 148.224 24.3906 149 24.3906C149.766 24.3906 150.409 24.5417 150.93 24.8438C151.451 25.1458 151.846 25.5807 152.117 26.1484C152.388 26.7161 152.523 27.4036 152.523 28.2109V29.4531H147.555L147.539 29.5C147.57 29.8698 147.661 30.2005 147.812 30.4922C147.969 30.7786 148.188 31.0052 148.469 31.1719C148.75 31.3333 149.091 31.4141 149.492 31.4141C149.909 31.4141 150.297 31.362 150.656 31.2578C151.021 31.1484 151.375 30.9896 151.719 30.7812L152.336 32.1875C151.987 32.4688 151.547 32.7031 151.016 32.8906C150.49 33.0729 149.885 33.1641 149.203 33.1641ZM147.57 27.9453H150.391V27.7422C150.391 27.3984 150.344 27.1042 150.25 26.8594C150.161 26.6094 150.016 26.4167 149.812 26.2812C149.615 26.1458 149.357 26.0781 149.039 26.0781C148.737 26.0781 148.482 26.1589 148.273 26.3203C148.065 26.4766 147.901 26.6927 147.781 26.9688C147.667 27.2448 147.589 27.5573 147.547 27.9062L147.57 27.9453ZM156.898 33.1641C156.112 33.1641 155.505 32.9479 155.078 32.5156C154.656 32.0833 154.445 31.3984 154.445 30.4609V26.1484H153.281V24.5469H154.445V22.4766H156.719V24.5469H158.273V26.1484H156.719V30.4531C156.719 30.7812 156.786 31.0156 156.922 31.1562C157.062 31.2969 157.253 31.3672 157.492 31.3672C157.622 31.3672 157.758 31.3594 157.898 31.3438C158.044 31.3229 158.169 31.3021 158.273 31.2812L158.469 32.9297C158.234 32.9974 157.979 33.0521 157.703 33.0938C157.432 33.1406 157.164 33.1641 156.898 33.1641ZM163.188 33.1641C162.38 33.1641 161.674 32.987 161.07 32.6328C160.466 32.2734 159.997 31.7812 159.664 31.1562C159.336 30.5312 159.172 29.8177 159.172 29.0156V28.7031C159.172 27.8646 159.328 27.1224 159.641 26.4766C159.953 25.8255 160.393 25.3151 160.961 24.9453C161.534 24.5755 162.208 24.3906 162.984 24.3906C163.75 24.3906 164.393 24.5417 164.914 24.8438C165.435 25.1458 165.831 25.5807 166.102 26.1484C166.372 26.7161 166.508 27.4036 166.508 28.2109V29.4531H161.539L161.523 29.5C161.555 29.8698 161.646 30.2005 161.797 30.4922C161.953 30.7786 162.172 31.0052 162.453 31.1719C162.734 31.3333 163.076 31.4141 163.477 31.4141C163.893 31.4141 164.281 31.362 164.641 31.2578C165.005 31.1484 165.359 30.9896 165.703 30.7812L166.32 32.1875C165.971 32.4688 165.531 32.7031 165 32.8906C164.474 33.0729 163.87 33.1641 163.188 33.1641ZM161.555 27.9453H164.375V27.7422C164.375 27.3984 164.328 27.1042 164.234 26.8594C164.146 26.6094 164 26.4167 163.797 26.2812C163.599 26.1458 163.341 26.0781 163.023 26.0781C162.721 26.0781 162.466 26.1589 162.258 26.3203C162.049 26.4766 161.885 26.6927 161.766 26.9688C161.651 27.2448 161.573 27.5573 161.531 27.9062L161.555 27.9453ZM171.43 33V31.6328L172.641 31.3984V23.2344L171.43 23V21.625H172.641H174.922H176.297V23L174.922 23.2344V31.25H178.133L178.242 29.5859H179.984V33H171.43ZM180.789 33V31.6328L181.891 31.3984V26.1562L180.672 25.9219V24.5469H184.172V31.3984L185.266 31.6328V33H180.789ZM181.812 22.7578V20.8125H184.172V22.7578H181.812ZM190.984 33.1641C190.458 33.1641 190.01 33.0625 189.641 32.8594C189.271 32.651 188.961 32.3516 188.711 31.9609L188.547 33H186.578V22.4219L185.367 22.1875V20.8125H188.852V25.4453C189.096 25.1068 189.396 24.8464 189.75 24.6641C190.109 24.4818 190.526 24.3906 191 24.3906C191.682 24.3906 192.26 24.5755 192.734 24.9453C193.214 25.3099 193.578 25.8255 193.828 26.4922C194.078 27.1589 194.203 27.9427 194.203 28.8438V29.0078C194.203 29.8464 194.078 30.5781 193.828 31.2031C193.578 31.8229 193.214 32.3047 192.734 32.6484C192.255 32.9922 191.672 33.1641 190.984 33.1641ZM190.289 31.3906C190.872 31.3906 191.292 31.1849 191.547 30.7734C191.802 30.3568 191.93 29.7682 191.93 29.0078V28.8438C191.93 28.2917 191.872 27.8177 191.758 27.4219C191.648 27.0208 191.474 26.7109 191.234 26.4922C191 26.2734 190.693 26.1641 190.312 26.1641C189.969 26.1641 189.674 26.2448 189.43 26.4062C189.185 26.5677 188.992 26.7865 188.852 27.0625V30.5938C189.008 30.8542 189.206 31.0521 189.445 31.1875C189.69 31.3229 189.971 31.3906 190.289 31.3906ZM199.422 33.1641C198.615 33.1641 197.909 32.987 197.305 32.6328C196.701 32.2734 196.232 31.7812 195.898 31.1562C195.57 30.5312 195.406 29.8177 195.406 29.0156V28.7031C195.406 27.8646 195.562 27.1224 195.875 26.4766C196.188 25.8255 196.628 25.3151 197.195 24.9453C197.768 24.5755 198.443 24.3906 199.219 24.3906C199.984 24.3906 200.628 24.5417 201.148 24.8438C201.669 25.1458 202.065 25.5807 202.336 26.1484C202.607 26.7161 202.742 27.4036 202.742 28.2109V29.4531H197.773L197.758 29.5C197.789 29.8698 197.88 30.2005 198.031 30.4922C198.188 30.7786 198.406 31.0052 198.688 31.1719C198.969 31.3333 199.31 31.4141 199.711 31.4141C200.128 31.4141 200.516 31.362 200.875 31.2578C201.24 31.1484 201.594 30.9896 201.938 30.7812L202.555 32.1875C202.206 32.4688 201.766 32.7031 201.234 32.8906C200.708 33.0729 200.104 33.1641 199.422 33.1641ZM197.789 27.9453H200.609V27.7422C200.609 27.3984 200.562 27.1042 200.469 26.8594C200.38 26.6094 200.234 26.4167 200.031 26.2812C199.833 26.1458 199.576 26.0781 199.258 26.0781C198.956 26.0781 198.701 26.1589 198.492 26.3203C198.284 26.4766 198.12 26.6927 198 26.9688C197.885 27.2448 197.807 27.5573 197.766 27.9062L197.789 27.9453ZM203.969 33V31.6328L205.062 31.3984V26.1562L203.852 25.9219V24.5469H207.188L207.273 25.5938L207.289 25.7812C207.497 25.3229 207.755 24.9766 208.062 24.7422C208.37 24.5078 208.737 24.3906 209.164 24.3906C209.299 24.3906 209.448 24.4036 209.609 24.4297C209.771 24.4505 209.914 24.4792 210.039 24.5156L209.797 26.6172L208.664 26.5547C208.341 26.5391 208.078 26.5938 207.875 26.7188C207.677 26.8438 207.5 27.0234 207.344 27.2578V31.3984L208.438 31.6328V33H203.969ZM213.391 33.1641C212.552 33.1641 211.885 32.9401 211.391 32.4922C210.896 32.0391 210.648 31.4245 210.648 30.6484C210.648 29.8516 210.971 29.2057 211.617 28.7109C212.263 28.2109 213.208 27.9609 214.453 27.9609H215.57V27.3359C215.57 26.9297 215.451 26.6016 215.211 26.3516C214.977 26.0964 214.622 25.9688 214.148 25.9688C213.904 25.9688 213.685 26 213.492 26.0625C213.299 26.1198 213.122 26.2031 212.961 26.3125L212.781 27.4297H211.141L211.109 25.2344C211.552 24.9844 212.031 24.7812 212.547 24.625C213.062 24.4688 213.638 24.3906 214.273 24.3906C215.378 24.3906 216.25 24.6484 216.891 25.1641C217.531 25.6745 217.852 26.4062 217.852 27.3594V30.8438C217.852 30.9583 217.852 31.0729 217.852 31.1875C217.857 31.2969 217.867 31.4036 217.883 31.5078L218.766 31.6328V33H215.938C215.88 32.8542 215.823 32.6979 215.766 32.5312C215.708 32.3646 215.667 32.1979 215.641 32.0312C215.37 32.375 215.049 32.651 214.68 32.8594C214.315 33.0625 213.885 33.1641 213.391 33.1641ZM214 31.4766C214.318 31.4766 214.62 31.4062 214.906 31.2656C215.193 31.1198 215.414 30.9297 215.57 30.6953V29.3594H214.445C213.945 29.3594 213.565 29.474 213.305 29.7031C213.049 29.9323 212.922 30.2083 212.922 30.5312C212.922 30.8333 213.016 31.0677 213.203 31.2344C213.396 31.3958 213.661 31.4766 214 31.4766ZM222.828 33.1641C222.156 33.1641 221.578 32.9922 221.094 32.6484C220.615 32.2995 220.247 31.8151 219.992 31.1953C219.737 30.5703 219.609 29.8411 219.609 29.0078V28.8438C219.609 27.9531 219.737 27.1745 219.992 26.5078C220.253 25.8411 220.622 25.3229 221.102 24.9531C221.581 24.5781 222.154 24.3906 222.82 24.3906C223.284 24.3906 223.69 24.4844 224.039 24.6719C224.388 24.8542 224.69 25.1146 224.945 25.4531V22.4219L223.727 22.1875V20.8125H224.945H227.227V31.3984L228.32 31.6328V33H225.25L225.078 31.9688C224.812 32.3594 224.495 32.6562 224.125 32.8594C223.76 33.0625 223.328 33.1641 222.828 33.1641ZM223.508 31.3906C223.826 31.3906 224.104 31.3229 224.344 31.1875C224.583 31.0521 224.784 30.8568 224.945 30.6016V27.0156C224.789 26.7448 224.591 26.5365 224.352 26.3906C224.112 26.2396 223.836 26.1641 223.523 26.1641C223.143 26.1641 222.831 26.2786 222.586 26.5078C222.346 26.7318 222.169 27.0443 222.055 27.4453C221.945 27.8464 221.891 28.3125 221.891 28.8438V29.0078C221.891 29.7474 222.016 30.3307 222.266 30.7578C222.516 31.1797 222.93 31.3906 223.508 31.3906ZM233.062 33.1641C232.229 33.1641 231.513 32.9818 230.914 32.6172C230.315 32.2526 229.857 31.7474 229.539 31.1016C229.221 30.4505 229.062 29.7031 229.062 28.8594V28.6953C229.062 27.8568 229.221 27.1146 229.539 26.4688C229.857 25.8177 230.312 25.3099 230.906 24.9453C231.505 24.5755 232.219 24.3906 233.047 24.3906C233.885 24.3906 234.602 24.5755 235.195 24.9453C235.789 25.3099 236.245 25.8151 236.562 26.4609C236.88 27.1068 237.039 27.8516 237.039 28.6953V28.8594C237.039 29.7031 236.88 30.4505 236.562 31.1016C236.245 31.7474 235.789 32.2526 235.195 32.6172C234.602 32.9818 233.891 33.1641 233.062 33.1641ZM233.062 31.4141C233.458 31.4141 233.781 31.3073 234.031 31.0938C234.281 30.8802 234.466 30.5833 234.586 30.2031C234.706 29.8177 234.766 29.3698 234.766 28.8594V28.6953C234.766 28.1953 234.706 27.7552 234.586 27.375C234.466 26.9896 234.279 26.6901 234.023 26.4766C233.773 26.2578 233.448 26.1484 233.047 26.1484C232.656 26.1484 232.333 26.2578 232.078 26.4766C231.823 26.6901 231.635 26.9896 231.516 27.375C231.401 27.7552 231.344 28.1953 231.344 28.6953V28.8594C231.344 29.3698 231.401 29.8177 231.516 30.2031C231.635 30.5885 231.823 30.888 232.078 31.1016C232.333 31.3099 232.661 31.4141 233.062 31.4141Z" fill="white"/>
<path d="M55.1897 15.5789C55.6434 15.5789 56 15.1621 56 14.6316V8.94737C56 8.41684 55.6434 8 55.1897 8H9.81034C9.35655 8 9 8.41684 9 8.94737V14.6316C9 15.1621 9.35655 15.5789 9.81034 15.5789H10.6207V17.4737H9.81034C9.35655 17.4737 9 17.8905 9 18.4211V24.1053C9 24.6358 9.35655 25.0526 9.81034 25.0526H10.6207V26.9474H9.81034C9.35655 26.9474 9 27.3642 9 27.8947V33.5789C9 34.1095 9.35655 34.5263 9.81034 34.5263H10.6207V36.4211H9.81034C9.35655 36.4211 9 36.8379 9 37.3684V43.0526C9 43.5832 9.35655 44 9.81034 44H55.1897C55.6434 44 56 43.5832 56 43.0526V37.3684C56 36.8379 55.6434 36.4211 55.1897 36.4211H54.3793V34.5263H55.1897C55.6434 34.5263 56 34.1095 56 33.5789V27.8947C56 27.3642 55.6434 26.9474 55.1897 26.9474H54.3793V25.0526H55.1897C55.6434 25.0526 56 24.6358 56 24.1053V18.4211C56 17.8905 55.6434 17.4737 55.1897 17.4737H54.3793V15.5789H55.1897ZM20.3446 36.4211H12.2411V34.5263H20.3446V36.4211ZM20.3446 26.9474H12.2411V25.0526H20.3446V26.9474ZM20.3446 17.4737H12.2411V15.5789H20.3446V17.4737ZM43.0342 36.4211H21.9653V34.5263H43.0342V36.4211ZM43.0342 26.9474H21.9653V25.0526H43.0342V26.9474ZM43.0342 17.4737H21.9653V15.5789H43.0342V17.4737ZM52.7584 36.4211H44.6549V34.5263H52.7584V36.4211ZM52.7584 26.9474H44.6549V25.0526H52.7584V26.9474ZM52.7584 17.4737H44.6549V15.5789H52.7584V17.4737Z" fill="white"/>
</svg>
