<svg width="320" height="53" viewBox="0 0 320 53" fill="none" xmlns="http://www.w3.org/2000/svg">
<rect width="320" height="53" rx="4" fill="#ADB600"/>
<path d="M110.695 33V31.6328L111.906 31.3984V23.2344L110.695 23V21.625H111.906H116.109C116.979 21.625 117.729 21.7786 118.359 22.0859C118.99 22.388 119.474 22.8125 119.812 23.3594C120.151 23.901 120.32 24.5339 120.32 25.2578C120.32 25.9818 120.151 26.6172 119.812 27.1641C119.474 27.7057 118.99 28.1276 118.359 28.4297C117.729 28.7266 116.979 28.875 116.109 28.875H114.188V31.3984L115.406 31.6328V33H110.695ZM114.188 27.1172H116.109C116.745 27.1172 117.224 26.9453 117.547 26.6016C117.875 26.2526 118.039 25.8099 118.039 25.2734C118.039 24.7266 117.875 24.276 117.547 23.9219C117.224 23.5625 116.745 23.3828 116.109 23.3828H114.188V27.1172ZM123.844 33.1641C123.005 33.1641 122.339 32.9401 121.844 32.4922C121.349 32.0391 121.102 31.4245 121.102 30.6484C121.102 29.8516 121.424 29.2057 122.07 28.7109C122.716 28.2109 123.661 27.9609 124.906 27.9609H126.023V27.3359C126.023 26.9297 125.904 26.6016 125.664 26.3516C125.43 26.0964 125.076 25.9688 124.602 25.9688C124.357 25.9688 124.138 26 123.945 26.0625C123.753 26.1198 123.576 26.2031 123.414 26.3125L123.234 27.4297H121.594L121.562 25.2344C122.005 24.9844 122.484 24.7812 123 24.625C123.516 24.4688 124.091 24.3906 124.727 24.3906C125.831 24.3906 126.703 24.6484 127.344 25.1641C127.984 25.6745 128.305 26.4062 128.305 27.3594V30.8438C128.305 30.9583 128.305 31.0729 128.305 31.1875C128.31 31.2969 128.32 31.4036 128.336 31.5078L129.219 31.6328V33H126.391C126.333 32.8542 126.276 32.6979 126.219 32.5312C126.161 32.3646 126.12 32.1979 126.094 32.0312C125.823 32.375 125.503 32.651 125.133 32.8594C124.768 33.0625 124.339 33.1641 123.844 33.1641ZM124.453 31.4766C124.771 31.4766 125.073 31.4062 125.359 31.2656C125.646 31.1198 125.867 30.9297 126.023 30.6953V29.3594H124.898C124.398 29.3594 124.018 29.474 123.758 29.7031C123.503 29.9323 123.375 30.2083 123.375 30.5312C123.375 30.8333 123.469 31.0677 123.656 31.2344C123.849 31.3958 124.115 31.4766 124.453 31.4766ZM129.906 33V31.6328L131.008 31.3984V22.4219L129.789 22.1875V20.8125H133.289V31.3984L134.391 31.6328V33H129.906ZM139.031 33.1641C138.224 33.1641 137.518 32.987 136.914 32.6328C136.31 32.2734 135.841 31.7812 135.508 31.1562C135.18 30.5312 135.016 29.8177 135.016 29.0156V28.7031C135.016 27.8646 135.172 27.1224 135.484 26.4766C135.797 25.8255 136.237 25.3151 136.805 24.9453C137.378 24.5755 138.052 24.3906 138.828 24.3906C139.594 24.3906 140.237 24.5417 140.758 24.8438C141.279 25.1458 141.674 25.5807 141.945 26.1484C142.216 26.7161 142.352 27.4036 142.352 28.2109V29.4531H137.383L137.367 29.5C137.398 29.8698 137.49 30.2005 137.641 30.4922C137.797 30.7786 138.016 31.0052 138.297 31.1719C138.578 31.3333 138.919 31.4141 139.32 31.4141C139.737 31.4141 140.125 31.362 140.484 31.2578C140.849 31.1484 141.203 30.9896 141.547 30.7812L142.164 32.1875C141.815 32.4688 141.375 32.7031 140.844 32.8906C140.318 33.0729 139.714 33.1641 139.031 33.1641ZM137.398 27.9453H140.219V27.7422C140.219 27.3984 140.172 27.1042 140.078 26.8594C139.99 26.6094 139.844 26.4167 139.641 26.2812C139.443 26.1458 139.185 26.0781 138.867 26.0781C138.565 26.0781 138.31 26.1589 138.102 26.3203C137.893 26.4766 137.729 26.6927 137.609 26.9688C137.495 27.2448 137.417 27.5573 137.375 27.9062L137.398 27.9453ZM146.727 33.1641C145.94 33.1641 145.333 32.9479 144.906 32.5156C144.484 32.0833 144.273 31.3984 144.273 30.4609V26.1484H143.109V24.5469H144.273V22.4766H146.547V24.5469H148.102V26.1484H146.547V30.4531C146.547 30.7812 146.615 31.0156 146.75 31.1562C146.891 31.2969 147.081 31.3672 147.32 31.3672C147.451 31.3672 147.586 31.3594 147.727 31.3438C147.872 31.3229 147.997 31.3021 148.102 31.2812L148.297 32.9297C148.062 32.9974 147.807 33.0521 147.531 33.0938C147.26 33.1406 146.992 33.1641 146.727 33.1641ZM153.016 33.1641C152.208 33.1641 151.503 32.987 150.898 32.6328C150.294 32.2734 149.826 31.7812 149.492 31.1562C149.164 30.5312 149 29.8177 149 29.0156V28.7031C149 27.8646 149.156 27.1224 149.469 26.4766C149.781 25.8255 150.221 25.3151 150.789 24.9453C151.362 24.5755 152.036 24.3906 152.812 24.3906C153.578 24.3906 154.221 24.5417 154.742 24.8438C155.263 25.1458 155.659 25.5807 155.93 26.1484C156.201 26.7161 156.336 27.4036 156.336 28.2109V29.4531H151.367L151.352 29.5C151.383 29.8698 151.474 30.2005 151.625 30.4922C151.781 30.7786 152 31.0052 152.281 31.1719C152.562 31.3333 152.904 31.4141 153.305 31.4141C153.721 31.4141 154.109 31.362 154.469 31.2578C154.833 31.1484 155.188 30.9896 155.531 30.7812L156.148 32.1875C155.799 32.4688 155.359 32.7031 154.828 32.8906C154.302 33.0729 153.698 33.1641 153.016 33.1641ZM151.383 27.9453H154.203V27.7422C154.203 27.3984 154.156 27.1042 154.062 26.8594C153.974 26.6094 153.828 26.4167 153.625 26.2812C153.427 26.1458 153.169 26.0781 152.852 26.0781C152.549 26.0781 152.294 26.1589 152.086 26.3203C151.878 26.4766 151.714 26.6927 151.594 26.9688C151.479 27.2448 151.401 27.5573 151.359 27.9062L151.383 27.9453ZM165.359 33.1641C164.552 33.1641 163.846 32.987 163.242 32.6328C162.638 32.2734 162.169 31.7812 161.836 31.1562C161.508 30.5312 161.344 29.8177 161.344 29.0156V28.7031C161.344 27.8646 161.5 27.1224 161.812 26.4766C162.125 25.8255 162.565 25.3151 163.133 24.9453C163.706 24.5755 164.38 24.3906 165.156 24.3906C165.922 24.3906 166.565 24.5417 167.086 24.8438C167.607 25.1458 168.003 25.5807 168.273 26.1484C168.544 26.7161 168.68 27.4036 168.68 28.2109V29.4531H163.711L163.695 29.5C163.727 29.8698 163.818 30.2005 163.969 30.4922C164.125 30.7786 164.344 31.0052 164.625 31.1719C164.906 31.3333 165.247 31.4141 165.648 31.4141C166.065 31.4141 166.453 31.362 166.812 31.2578C167.177 31.1484 167.531 30.9896 167.875 30.7812L168.492 32.1875C168.143 32.4688 167.703 32.7031 167.172 32.8906C166.646 33.0729 166.042 33.1641 165.359 33.1641ZM163.727 27.9453H166.547V27.7422C166.547 27.3984 166.5 27.1042 166.406 26.8594C166.318 26.6094 166.172 26.4167 165.969 26.2812C165.771 26.1458 165.513 26.0781 165.195 26.0781C164.893 26.0781 164.638 26.1589 164.43 26.3203C164.221 26.4766 164.057 26.6927 163.938 26.9688C163.823 27.2448 163.745 27.5573 163.703 27.9062L163.727 27.9453ZM169.648 33V31.6328L170.75 31.3984V26.1562L169.531 25.9219V24.5469H172.867L172.961 25.6641C173.232 25.2578 173.57 24.9453 173.977 24.7266C174.388 24.5026 174.862 24.3906 175.398 24.3906C175.94 24.3906 176.404 24.5104 176.789 24.75C177.18 24.9896 177.471 25.3516 177.664 25.8359C177.924 25.3828 178.263 25.0286 178.68 24.7734C179.096 24.5182 179.586 24.3906 180.148 24.3906C180.982 24.3906 181.638 24.6745 182.117 25.2422C182.602 25.8099 182.844 26.6745 182.844 27.8359V31.3984L183.945 31.6328V33H179.578V31.6328L180.562 31.3984V27.8281C180.562 27.2031 180.458 26.7708 180.25 26.5312C180.047 26.2865 179.75 26.1641 179.359 26.1641C179.005 26.1641 178.706 26.2656 178.461 26.4688C178.216 26.6667 178.039 26.9297 177.93 27.2578V31.3984L178.852 31.6328V33H174.734V31.6328L175.656 31.3984V27.8281C175.656 27.2188 175.552 26.7891 175.344 26.5391C175.141 26.2891 174.839 26.1641 174.438 26.1641C174.115 26.1641 173.836 26.2292 173.602 26.3594C173.367 26.4896 173.174 26.6771 173.023 26.9219V31.3984L174.008 31.6328V33H169.648ZM191.961 33.1641C191.174 33.1641 190.568 32.9479 190.141 32.5156C189.719 32.0833 189.508 31.3984 189.508 30.4609V26.1484H188.344V24.5469H189.508V22.4766H191.781V24.5469H193.336V26.1484H191.781V30.4531C191.781 30.7812 191.849 31.0156 191.984 31.1562C192.125 31.2969 192.315 31.3672 192.555 31.3672C192.685 31.3672 192.82 31.3594 192.961 31.3438C193.107 31.3229 193.232 31.3021 193.336 31.2812L193.531 32.9297C193.297 32.9974 193.042 33.0521 192.766 33.0938C192.495 33.1406 192.227 33.1641 191.961 33.1641ZM194.562 33V31.6328L195.656 31.3984V26.1562L194.445 25.9219V24.5469H197.781L197.867 25.5938L197.883 25.7812C198.091 25.3229 198.349 24.9766 198.656 24.7422C198.964 24.5078 199.331 24.3906 199.758 24.3906C199.893 24.3906 200.042 24.4036 200.203 24.4297C200.365 24.4505 200.508 24.4792 200.633 24.5156L200.391 26.6172L199.258 26.5547C198.935 26.5391 198.672 26.5938 198.469 26.7188C198.271 26.8438 198.094 27.0234 197.938 27.2578V31.3984L199.031 31.6328V33H194.562ZM203.984 33.1641C203.146 33.1641 202.479 32.9401 201.984 32.4922C201.49 32.0391 201.242 31.4245 201.242 30.6484C201.242 29.8516 201.565 29.2057 202.211 28.7109C202.857 28.2109 203.802 27.9609 205.047 27.9609H206.164V27.3359C206.164 26.9297 206.044 26.6016 205.805 26.3516C205.57 26.0964 205.216 25.9688 204.742 25.9688C204.497 25.9688 204.279 26 204.086 26.0625C203.893 26.1198 203.716 26.2031 203.555 26.3125L203.375 27.4297H201.734L201.703 25.2344C202.146 24.9844 202.625 24.7812 203.141 24.625C203.656 24.4688 204.232 24.3906 204.867 24.3906C205.971 24.3906 206.844 24.6484 207.484 25.1641C208.125 25.6745 208.445 26.4062 208.445 27.3594V30.8438C208.445 30.9583 208.445 31.0729 208.445 31.1875C208.451 31.2969 208.461 31.4036 208.477 31.5078L209.359 31.6328V33H206.531C206.474 32.8542 206.417 32.6979 206.359 32.5312C206.302 32.3646 206.26 32.1979 206.234 32.0312C205.964 32.375 205.643 32.651 205.273 32.8594C204.909 33.0625 204.479 33.1641 203.984 33.1641ZM204.594 31.4766C204.911 31.4766 205.214 31.4062 205.5 31.2656C205.786 31.1198 206.008 30.9297 206.164 30.6953V29.3594H205.039C204.539 29.3594 204.159 29.474 203.898 29.7031C203.643 29.9323 203.516 30.2083 203.516 30.5312C203.516 30.8333 203.609 31.0677 203.797 31.2344C203.99 31.3958 204.255 31.4766 204.594 31.4766ZM210.086 33V31.6328L211.18 31.3984V26.1562L209.969 25.9219V24.5469H213.305L213.406 25.7578C213.688 25.3255 214.034 24.9896 214.445 24.75C214.862 24.5104 215.336 24.3906 215.867 24.3906C216.706 24.3906 217.362 24.6589 217.836 25.1953C218.31 25.7318 218.547 26.5729 218.547 27.7188V31.3984L219.641 31.6328V33H215.281V31.6328L216.258 31.3984V27.7266C216.258 27.1589 216.146 26.7578 215.922 26.5234C215.698 26.2839 215.365 26.1641 214.922 26.1641C214.594 26.1641 214.307 26.2344 214.062 26.375C213.823 26.5104 213.622 26.7057 213.461 26.9609V31.3984L214.383 31.6328V33H210.086ZM224.016 33.1641C223.385 33.1641 222.797 33.1042 222.25 32.9844C221.708 32.8646 221.188 32.6927 220.688 32.4688L220.664 30.0781H222.25L222.555 31.2969C222.732 31.3854 222.924 31.4557 223.133 31.5078C223.346 31.5599 223.589 31.5859 223.859 31.5859C224.37 31.5859 224.729 31.5026 224.938 31.3359C225.146 31.1693 225.25 30.9609 225.25 30.7109C225.25 30.4766 225.138 30.2708 224.914 30.0938C224.695 29.9115 224.255 29.7526 223.594 29.6172C222.594 29.4089 221.857 29.0859 221.383 28.6484C220.909 28.2109 220.672 27.651 220.672 26.9688C220.672 26.5 220.789 26.0729 221.023 25.6875C221.263 25.3021 221.625 24.9922 222.109 24.7578C222.599 24.5234 223.224 24.4062 223.984 24.4062C224.62 24.4062 225.201 24.4688 225.727 24.5938C226.258 24.7135 226.703 24.8724 227.062 25.0703L227.086 27.3828H225.508L225.266 26.2734C225.125 26.1693 224.958 26.0911 224.766 26.0391C224.578 25.987 224.365 25.9609 224.125 25.9609C223.724 25.9609 223.417 26.0417 223.203 26.2031C222.99 26.3646 222.883 26.5729 222.883 26.8281C222.883 26.974 222.919 27.1094 222.992 27.2344C223.07 27.3594 223.221 27.4766 223.445 27.5859C223.669 27.6953 223.995 27.7995 224.422 27.8984C225.469 28.138 226.232 28.4583 226.711 28.8594C227.19 29.2552 227.43 29.8125 227.43 30.5312C227.43 31.3177 227.143 31.9531 226.57 32.4375C226.003 32.9219 225.151 33.1641 224.016 33.1641ZM228.398 33V31.6328L229.5 31.3984V26.1562L228.281 25.9219V24.5469H231.781V31.3984L232.875 31.6328V33H228.398ZM229.422 22.7578V20.8125H231.781V22.7578H229.422ZM236.961 33.1641C236.174 33.1641 235.568 32.9479 235.141 32.5156C234.719 32.0833 234.508 31.3984 234.508 30.4609V26.1484H233.344V24.5469H234.508V22.4766H236.781V24.5469H238.336V26.1484H236.781V30.4531C236.781 30.7812 236.849 31.0156 236.984 31.1562C237.125 31.2969 237.315 31.3672 237.555 31.3672C237.685 31.3672 237.82 31.3594 237.961 31.3438C238.107 31.3229 238.232 31.3021 238.336 31.2812L238.531 32.9297C238.297 32.9974 238.042 33.0521 237.766 33.0938C237.495 33.1406 237.227 33.1641 236.961 33.1641ZM243.234 33.1641C242.401 33.1641 241.685 32.9818 241.086 32.6172C240.487 32.2526 240.029 31.7474 239.711 31.1016C239.393 30.4505 239.234 29.7031 239.234 28.8594V28.6953C239.234 27.8568 239.393 27.1146 239.711 26.4688C240.029 25.8177 240.484 25.3099 241.078 24.9453C241.677 24.5755 242.391 24.3906 243.219 24.3906C244.057 24.3906 244.773 24.5755 245.367 24.9453C245.961 25.3099 246.417 25.8151 246.734 26.4609C247.052 27.1068 247.211 27.8516 247.211 28.6953V28.8594C247.211 29.7031 247.052 30.4505 246.734 31.1016C246.417 31.7474 245.961 32.2526 245.367 32.6172C244.773 32.9818 244.062 33.1641 243.234 33.1641ZM243.234 31.4141C243.63 31.4141 243.953 31.3073 244.203 31.0938C244.453 30.8802 244.638 30.5833 244.758 30.2031C244.878 29.8177 244.938 29.3698 244.938 28.8594V28.6953C244.938 28.1953 244.878 27.7552 244.758 27.375C244.638 26.9896 244.451 26.6901 244.195 26.4766C243.945 26.2578 243.62 26.1484 243.219 26.1484C242.828 26.1484 242.505 26.2578 242.25 26.4766C241.995 26.6901 241.807 26.9896 241.688 27.375C241.573 27.7552 241.516 28.1953 241.516 28.6953V28.8594C241.516 29.3698 241.573 29.8177 241.688 30.2031C241.807 30.5885 241.995 30.888 242.25 31.1016C242.505 31.3099 242.833 31.4141 243.234 31.4141Z" fill="white"/>
<path d="M55.1897 15.5789C55.6434 15.5789 56 15.1621 56 14.6316V8.94737C56 8.41684 55.6434 8 55.1897 8H9.81034C9.35655 8 9 8.41684 9 8.94737V14.6316C9 15.1621 9.35655 15.5789 9.81034 15.5789H10.6207V17.4737H9.81034C9.35655 17.4737 9 17.8905 9 18.4211V24.1053C9 24.6358 9.35655 25.0526 9.81034 25.0526H10.6207V26.9474H9.81034C9.35655 26.9474 9 27.3642 9 27.8947V33.579C9 34.1095 9.35655 34.5263 9.81034 34.5263H10.6207V36.4211H9.81034C9.35655 36.4211 9 36.8379 9 37.3684V43.0526C9 43.5832 9.35655 44 9.81034 44H55.1897C55.6434 44 56 43.5832 56 43.0526V37.3684C56 36.8379 55.6434 36.4211 55.1897 36.4211H54.3793V34.5263H55.1897C55.6434 34.5263 56 34.1095 56 33.579V27.8947C56 27.3642 55.6434 26.9474 55.1897 26.9474H54.3793V25.0526H55.1897C55.6434 25.0526 56 24.6358 56 24.1053V18.4211C56 17.8905 55.6434 17.4737 55.1897 17.4737H54.3793V15.5789H55.1897ZM20.3446 36.4211H12.2411V34.5263H20.3446V36.4211ZM20.3446 26.9474H12.2411V25.0526H20.3446V26.9474ZM20.3446 17.4737H12.2411V15.5789H20.3446V17.4737ZM43.0342 36.4211H21.9653V34.5263H43.0342V36.4211ZM43.0342 26.9474H21.9653V25.0526H43.0342V26.9474ZM43.0342 17.4737H21.9653V15.5789H43.0342V17.4737ZM52.7584 36.4211H44.6549V34.5263H52.7584V36.4211ZM52.7584 26.9474H44.6549V25.0526H52.7584V26.9474ZM52.7584 17.4737H44.6549V15.5789H52.7584V17.4737Z" fill="white"/>
</svg>
