<svg width="320" height="53" viewBox="0 0 320 53" fill="none" xmlns="http://www.w3.org/2000/svg">
<rect width="320" height="53" rx="4" fill="#0275B1"/>
<path d="M89.0547 33.1641C88.2161 33.1641 87.4531 33.0703 86.7656 32.8828C86.0781 32.6953 85.401 32.3698 84.7344 31.9062V29.1562H86.5L86.7422 30.7734C86.9766 30.9714 87.2995 31.1328 87.7109 31.2578C88.1224 31.3776 88.5703 31.4375 89.0547 31.4375C89.4661 31.4375 89.8125 31.3802 90.0938 31.2656C90.3802 31.151 90.5964 30.9896 90.7422 30.7812C90.8932 30.5677 90.9688 30.3177 90.9688 30.0312C90.9688 29.7604 90.901 29.5208 90.7656 29.3125C90.6354 29.099 90.4167 28.9062 90.1094 28.7344C89.8073 28.5573 89.3958 28.388 88.875 28.2266C87.974 27.9609 87.2266 27.6719 86.6328 27.3594C86.0443 27.0417 85.6016 26.6641 85.3047 26.2266C85.013 25.7839 84.8672 25.2526 84.8672 24.6328C84.8672 24.0182 85.0365 23.4766 85.375 23.0078C85.7188 22.5339 86.1927 22.1615 86.7969 21.8906C87.401 21.6198 88.099 21.4792 88.8906 21.4688C89.7656 21.4583 90.5391 21.5625 91.2109 21.7812C91.888 22 92.4714 22.3047 92.9609 22.6953V25.2578H91.25L90.9531 23.6953C90.7552 23.5703 90.487 23.4609 90.1484 23.3672C89.8151 23.2734 89.4349 23.2266 89.0078 23.2266C88.6432 23.2266 88.3203 23.2812 88.0391 23.3906C87.763 23.5 87.5443 23.6589 87.3828 23.8672C87.2214 24.0755 87.1406 24.3281 87.1406 24.625C87.1406 24.8802 87.2109 25.1042 87.3516 25.2969C87.4922 25.4844 87.7266 25.6641 88.0547 25.8359C88.388 26.0026 88.8464 26.1823 89.4297 26.375C90.6849 26.724 91.6354 27.1849 92.2812 27.7578C92.9323 28.3307 93.2578 29.0833 93.2578 30.0156C93.2578 30.6615 93.0833 31.2214 92.7344 31.6953C92.3854 32.1641 91.8958 32.526 91.2656 32.7812C90.6354 33.0365 89.8984 33.1641 89.0547 33.1641ZM98.2656 33.1641C97.4583 33.1641 96.7526 32.987 96.1484 32.6328C95.5443 32.2734 95.0755 31.7812 94.7422 31.1562C94.4141 30.5312 94.25 29.8177 94.25 29.0156V28.7031C94.25 27.8646 94.4062 27.1224 94.7188 26.4766C95.0312 25.8255 95.4714 25.3151 96.0391 24.9453C96.612 24.5755 97.2865 24.3906 98.0625 24.3906C98.8281 24.3906 99.4714 24.5417 99.9922 24.8438C100.513 25.1458 100.909 25.5807 101.18 26.1484C101.451 26.7161 101.586 27.4036 101.586 28.2109V29.4531H96.6172L96.6016 29.5C96.6328 29.8698 96.724 30.2005 96.875 30.4922C97.0312 30.7786 97.25 31.0052 97.5312 31.1719C97.8125 31.3333 98.1536 31.4141 98.5547 31.4141C98.9714 31.4141 99.3594 31.362 99.7188 31.2578C100.083 31.1484 100.438 30.9896 100.781 30.7812L101.398 32.1875C101.049 32.4688 100.609 32.7031 100.078 32.8906C99.5521 33.0729 98.9479 33.1641 98.2656 33.1641ZM96.6328 27.9453H99.4531V27.7422C99.4531 27.3984 99.4062 27.1042 99.3125 26.8594C99.224 26.6094 99.0781 26.4167 98.875 26.2812C98.6771 26.1458 98.4193 26.0781 98.1016 26.0781C97.7995 26.0781 97.5443 26.1589 97.3359 26.3203C97.1276 26.4766 96.9635 26.6927 96.8438 26.9688C96.7292 27.2448 96.651 27.5573 96.6094 27.9062L96.6328 27.9453ZM102.555 33V31.6328L103.648 31.3984V26.1562L102.438 25.9219V24.5469H105.773L105.875 25.7578C106.156 25.3255 106.503 24.9896 106.914 24.75C107.331 24.5104 107.805 24.3906 108.336 24.3906C109.174 24.3906 109.831 24.6589 110.305 25.1953C110.779 25.7318 111.016 26.5729 111.016 27.7188V31.3984L112.109 31.6328V33H107.75V31.6328L108.727 31.3984V27.7266C108.727 27.1589 108.615 26.7578 108.391 26.5234C108.167 26.2839 107.833 26.1641 107.391 26.1641C107.062 26.1641 106.776 26.2344 106.531 26.375C106.292 26.5104 106.091 26.7057 105.93 26.9609V31.3984L106.852 31.6328V33H102.555ZM116.484 33.1641C115.854 33.1641 115.266 33.1042 114.719 32.9844C114.177 32.8646 113.656 32.6927 113.156 32.4688L113.133 30.0781H114.719L115.023 31.2969C115.201 31.3854 115.393 31.4557 115.602 31.5078C115.815 31.5599 116.057 31.5859 116.328 31.5859C116.839 31.5859 117.198 31.5026 117.406 31.3359C117.615 31.1693 117.719 30.9609 117.719 30.7109C117.719 30.4766 117.607 30.2708 117.383 30.0938C117.164 29.9115 116.724 29.7526 116.062 29.6172C115.062 29.4089 114.326 29.0859 113.852 28.6484C113.378 28.2109 113.141 27.651 113.141 26.9688C113.141 26.5 113.258 26.0729 113.492 25.6875C113.732 25.3021 114.094 24.9922 114.578 24.7578C115.068 24.5234 115.693 24.4062 116.453 24.4062C117.089 24.4062 117.669 24.4688 118.195 24.5938C118.727 24.7135 119.172 24.8724 119.531 25.0703L119.555 27.3828H117.977L117.734 26.2734C117.594 26.1693 117.427 26.0911 117.234 26.0391C117.047 25.987 116.833 25.9609 116.594 25.9609C116.193 25.9609 115.885 26.0417 115.672 26.2031C115.458 26.3646 115.352 26.5729 115.352 26.8281C115.352 26.974 115.388 27.1094 115.461 27.2344C115.539 27.3594 115.69 27.4766 115.914 27.5859C116.138 27.6953 116.464 27.7995 116.891 27.8984C117.938 28.138 118.701 28.4583 119.18 28.8594C119.659 29.2552 119.898 29.8125 119.898 30.5312C119.898 31.3177 119.612 31.9531 119.039 32.4375C118.471 32.9219 117.62 33.1641 116.484 33.1641ZM124.969 33.1641C124.135 33.1641 123.419 32.9818 122.82 32.6172C122.221 32.2526 121.763 31.7474 121.445 31.1016C121.128 30.4505 120.969 29.7031 120.969 28.8594V28.6953C120.969 27.8568 121.128 27.1146 121.445 26.4688C121.763 25.8177 122.219 25.3099 122.812 24.9453C123.411 24.5755 124.125 24.3906 124.953 24.3906C125.792 24.3906 126.508 24.5755 127.102 24.9453C127.695 25.3099 128.151 25.8151 128.469 26.4609C128.786 27.1068 128.945 27.8516 128.945 28.6953V28.8594C128.945 29.7031 128.786 30.4505 128.469 31.1016C128.151 31.7474 127.695 32.2526 127.102 32.6172C126.508 32.9818 125.797 33.1641 124.969 33.1641ZM124.969 31.4141C125.365 31.4141 125.688 31.3073 125.938 31.0938C126.188 30.8802 126.372 30.5833 126.492 30.2031C126.612 29.8177 126.672 29.3698 126.672 28.8594V28.6953C126.672 28.1953 126.612 27.7552 126.492 27.375C126.372 26.9896 126.185 26.6901 125.93 26.4766C125.68 26.2578 125.354 26.1484 124.953 26.1484C124.562 26.1484 124.24 26.2578 123.984 26.4766C123.729 26.6901 123.542 26.9896 123.422 27.375C123.307 27.7552 123.25 28.1953 123.25 28.6953V28.8594C123.25 29.3698 123.307 29.8177 123.422 30.2031C123.542 30.5885 123.729 30.888 123.984 31.1016C124.24 31.3099 124.568 31.4141 124.969 31.4141ZM130.141 33V31.6328L131.234 31.3984V26.1562L130.023 25.9219V24.5469H133.359L133.445 25.5938L133.461 25.7812C133.669 25.3229 133.927 24.9766 134.234 24.7422C134.542 24.5078 134.909 24.3906 135.336 24.3906C135.471 24.3906 135.62 24.4036 135.781 24.4297C135.943 24.4505 136.086 24.4792 136.211 24.5156L135.969 26.6172L134.836 26.5547C134.513 26.5391 134.25 26.5938 134.047 26.7188C133.849 26.8438 133.672 27.0234 133.516 27.2578V31.3984L134.609 31.6328V33H130.141ZM141.609 33V31.6328L142.82 31.3984V23.6406H140.688V22.0312L145.102 21.625V31.3984L146.312 31.6328V33H141.609ZM154.219 33.1641C153.547 33.1641 152.969 32.9922 152.484 32.6484C152.005 32.2995 151.638 31.8151 151.383 31.1953C151.128 30.5703 151 29.8411 151 29.0078V28.8438C151 27.9531 151.128 27.1745 151.383 26.5078C151.643 25.8411 152.013 25.3229 152.492 24.9531C152.971 24.5781 153.544 24.3906 154.211 24.3906C154.674 24.3906 155.081 24.4844 155.43 24.6719C155.779 24.8542 156.081 25.1146 156.336 25.4531V22.4219L155.117 22.1875V20.8125H156.336H158.617V31.3984L159.711 31.6328V33H156.641L156.469 31.9688C156.203 32.3594 155.885 32.6562 155.516 32.8594C155.151 33.0625 154.719 33.1641 154.219 33.1641ZM154.898 31.3906C155.216 31.3906 155.495 31.3229 155.734 31.1875C155.974 31.0521 156.174 30.8568 156.336 30.6016V27.0156C156.18 26.7448 155.982 26.5365 155.742 26.3906C155.503 26.2396 155.227 26.1641 154.914 26.1641C154.534 26.1641 154.221 26.2786 153.977 26.5078C153.737 26.7318 153.56 27.0443 153.445 27.4453C153.336 27.8464 153.281 28.3125 153.281 28.8438V29.0078C153.281 29.7474 153.406 30.3307 153.656 30.7578C153.906 31.1797 154.32 31.3906 154.898 31.3906ZM164.469 33.1641C163.661 33.1641 162.956 32.987 162.352 32.6328C161.747 32.2734 161.279 31.7812 160.945 31.1562C160.617 30.5312 160.453 29.8177 160.453 29.0156V28.7031C160.453 27.8646 160.609 27.1224 160.922 26.4766C161.234 25.8255 161.674 25.3151 162.242 24.9453C162.815 24.5755 163.49 24.3906 164.266 24.3906C165.031 24.3906 165.674 24.5417 166.195 24.8438C166.716 25.1458 167.112 25.5807 167.383 26.1484C167.654 26.7161 167.789 27.4036 167.789 28.2109V29.4531H162.82L162.805 29.5C162.836 29.8698 162.927 30.2005 163.078 30.4922C163.234 30.7786 163.453 31.0052 163.734 31.1719C164.016 31.3333 164.357 31.4141 164.758 31.4141C165.174 31.4141 165.562 31.362 165.922 31.2578C166.286 31.1484 166.641 30.9896 166.984 30.7812L167.602 32.1875C167.253 32.4688 166.812 32.7031 166.281 32.8906C165.755 33.0729 165.151 33.1641 164.469 33.1641ZM162.836 27.9453H165.656V27.7422C165.656 27.3984 165.609 27.1042 165.516 26.8594C165.427 26.6094 165.281 26.4167 165.078 26.2812C164.88 26.1458 164.622 26.0781 164.305 26.0781C164.003 26.0781 163.747 26.1589 163.539 26.3203C163.331 26.4766 163.167 26.6927 163.047 26.9688C162.932 27.2448 162.854 27.5573 162.812 27.9062L162.836 27.9453ZM172.164 33.1641C171.378 33.1641 170.771 32.9479 170.344 32.5156C169.922 32.0833 169.711 31.3984 169.711 30.4609V26.1484H168.547V24.5469H169.711V22.4766H171.984V24.5469H173.539V26.1484H171.984V30.4531C171.984 30.7812 172.052 31.0156 172.188 31.1562C172.328 31.2969 172.518 31.3672 172.758 31.3672C172.888 31.3672 173.023 31.3594 173.164 31.3438C173.31 31.3229 173.435 31.3021 173.539 31.2812L173.734 32.9297C173.5 32.9974 173.245 33.0521 172.969 33.0938C172.698 33.1406 172.43 33.1641 172.164 33.1641ZM178.453 33.1641C177.646 33.1641 176.94 32.987 176.336 32.6328C175.732 32.2734 175.263 31.7812 174.93 31.1562C174.602 30.5312 174.438 29.8177 174.438 29.0156V28.7031C174.438 27.8646 174.594 27.1224 174.906 26.4766C175.219 25.8255 175.659 25.3151 176.227 24.9453C176.799 24.5755 177.474 24.3906 178.25 24.3906C179.016 24.3906 179.659 24.5417 180.18 24.8438C180.701 25.1458 181.096 25.5807 181.367 26.1484C181.638 26.7161 181.773 27.4036 181.773 28.2109V29.4531H176.805L176.789 29.5C176.82 29.8698 176.911 30.2005 177.062 30.4922C177.219 30.7786 177.438 31.0052 177.719 31.1719C178 31.3333 178.341 31.4141 178.742 31.4141C179.159 31.4141 179.547 31.362 179.906 31.2578C180.271 31.1484 180.625 30.9896 180.969 30.7812L181.586 32.1875C181.237 32.4688 180.797 32.7031 180.266 32.8906C179.74 33.0729 179.135 33.1641 178.453 33.1641ZM176.82 27.9453H179.641V27.7422C179.641 27.3984 179.594 27.1042 179.5 26.8594C179.411 26.6094 179.266 26.4167 179.062 26.2812C178.865 26.1458 178.607 26.0781 178.289 26.0781C177.987 26.0781 177.732 26.1589 177.523 26.3203C177.315 26.4766 177.151 26.6927 177.031 26.9688C176.917 27.2448 176.839 27.5573 176.797 27.9062L176.82 27.9453ZM186.805 33.1641C185.992 33.1641 185.289 32.9818 184.695 32.6172C184.107 32.2526 183.654 31.75 183.336 31.1094C183.018 30.4635 182.859 29.7266 182.859 28.8984V28.6641C182.859 27.8307 183.021 27.0938 183.344 26.4531C183.667 25.8125 184.122 25.3099 184.711 24.9453C185.299 24.5755 185.992 24.3906 186.789 24.3906C187.549 24.3906 188.203 24.5104 188.75 24.75C189.302 24.9844 189.75 25.2578 190.094 25.5703L190.078 27.9922H188.359L188.055 26.4844C187.93 26.3594 187.771 26.2578 187.578 26.1797C187.385 26.1016 187.19 26.0625 186.992 26.0625C186.576 26.0625 186.229 26.1667 185.953 26.375C185.682 26.5833 185.479 26.8802 185.344 27.2656C185.208 27.651 185.141 28.1172 185.141 28.6641V28.8984C185.141 29.4766 185.216 29.9531 185.367 30.3281C185.518 30.6979 185.719 30.9714 185.969 31.1484C186.224 31.3255 186.508 31.4141 186.82 31.4141C187.221 31.4141 187.542 31.3099 187.781 31.1016C188.026 30.888 188.193 30.5885 188.281 30.2031H190.234L190.258 30.25C190.169 30.849 189.992 31.3672 189.727 31.8047C189.466 32.2422 189.096 32.5781 188.617 32.8125C188.143 33.0469 187.539 33.1641 186.805 33.1641ZM194.602 33.1641C193.815 33.1641 193.208 32.9479 192.781 32.5156C192.359 32.0833 192.148 31.3984 192.148 30.4609V26.1484H190.984V24.5469H192.148V22.4766H194.422V24.5469H195.977V26.1484H194.422V30.4531C194.422 30.7812 194.49 31.0156 194.625 31.1562C194.766 31.2969 194.956 31.3672 195.195 31.3672C195.326 31.3672 195.461 31.3594 195.602 31.3438C195.747 31.3229 195.872 31.3021 195.977 31.2812L196.172 32.9297C195.938 32.9974 195.682 33.0521 195.406 33.0938C195.135 33.1406 194.867 33.1641 194.602 33.1641ZM199.859 33.1641C199.021 33.1641 198.354 32.9401 197.859 32.4922C197.365 32.0391 197.117 31.4245 197.117 30.6484C197.117 29.8516 197.44 29.2057 198.086 28.7109C198.732 28.2109 199.677 27.9609 200.922 27.9609H202.039V27.3359C202.039 26.9297 201.919 26.6016 201.68 26.3516C201.445 26.0964 201.091 25.9688 200.617 25.9688C200.372 25.9688 200.154 26 199.961 26.0625C199.768 26.1198 199.591 26.2031 199.43 26.3125L199.25 27.4297H197.609L197.578 25.2344C198.021 24.9844 198.5 24.7812 199.016 24.625C199.531 24.4688 200.107 24.3906 200.742 24.3906C201.846 24.3906 202.719 24.6484 203.359 25.1641C204 25.6745 204.32 26.4062 204.32 27.3594V30.8438C204.32 30.9583 204.32 31.0729 204.32 31.1875C204.326 31.2969 204.336 31.4036 204.352 31.5078L205.234 31.6328V33H202.406C202.349 32.8542 202.292 32.6979 202.234 32.5312C202.177 32.3646 202.135 32.1979 202.109 32.0312C201.839 32.375 201.518 32.651 201.148 32.8594C200.784 33.0625 200.354 33.1641 199.859 33.1641ZM200.469 31.4766C200.786 31.4766 201.089 31.4062 201.375 31.2656C201.661 31.1198 201.883 30.9297 202.039 30.6953V29.3594H200.914C200.414 29.3594 200.034 29.474 199.773 29.7031C199.518 29.9323 199.391 30.2083 199.391 30.5312C199.391 30.8333 199.484 31.0677 199.672 31.2344C199.865 31.3958 200.13 31.4766 200.469 31.4766ZM209.297 33.1641C208.625 33.1641 208.047 32.9922 207.562 32.6484C207.083 32.2995 206.716 31.8151 206.461 31.1953C206.206 30.5703 206.078 29.8411 206.078 29.0078V28.8438C206.078 27.9531 206.206 27.1745 206.461 26.5078C206.721 25.8411 207.091 25.3229 207.57 24.9531C208.049 24.5781 208.622 24.3906 209.289 24.3906C209.753 24.3906 210.159 24.4844 210.508 24.6719C210.857 24.8542 211.159 25.1146 211.414 25.4531V22.4219L210.195 22.1875V20.8125H211.414H213.695V31.3984L214.789 31.6328V33H211.719L211.547 31.9688C211.281 32.3594 210.964 32.6562 210.594 32.8594C210.229 33.0625 209.797 33.1641 209.297 33.1641ZM209.977 31.3906C210.294 31.3906 210.573 31.3229 210.812 31.1875C211.052 31.0521 211.253 30.8568 211.414 30.6016V27.0156C211.258 26.7448 211.06 26.5365 210.82 26.3906C210.581 26.2396 210.305 26.1641 209.992 26.1641C209.612 26.1641 209.299 26.2786 209.055 26.5078C208.815 26.7318 208.638 27.0443 208.523 27.4453C208.414 27.8464 208.359 28.3125 208.359 28.8438V29.0078C208.359 29.7474 208.484 30.3307 208.734 30.7578C208.984 31.1797 209.398 31.3906 209.977 31.3906ZM219.531 33.1641C218.698 33.1641 217.982 32.9818 217.383 32.6172C216.784 32.2526 216.326 31.7474 216.008 31.1016C215.69 30.4505 215.531 29.7031 215.531 28.8594V28.6953C215.531 27.8568 215.69 27.1146 216.008 26.4688C216.326 25.8177 216.781 25.3099 217.375 24.9453C217.974 24.5755 218.688 24.3906 219.516 24.3906C220.354 24.3906 221.07 24.5755 221.664 24.9453C222.258 25.3099 222.714 25.8151 223.031 26.4609C223.349 27.1068 223.508 27.8516 223.508 28.6953V28.8594C223.508 29.7031 223.349 30.4505 223.031 31.1016C222.714 31.7474 222.258 32.2526 221.664 32.6172C221.07 32.9818 220.359 33.1641 219.531 33.1641ZM219.531 31.4141C219.927 31.4141 220.25 31.3073 220.5 31.0938C220.75 30.8802 220.935 30.5833 221.055 30.2031C221.174 29.8177 221.234 29.3698 221.234 28.8594V28.6953C221.234 28.1953 221.174 27.7552 221.055 27.375C220.935 26.9896 220.747 26.6901 220.492 26.4766C220.242 26.2578 219.917 26.1484 219.516 26.1484C219.125 26.1484 218.802 26.2578 218.547 26.4766C218.292 26.6901 218.104 26.9896 217.984 27.375C217.87 27.7552 217.812 28.1953 217.812 28.6953V28.8594C217.812 29.3698 217.87 29.8177 217.984 30.2031C218.104 30.5885 218.292 30.888 218.547 31.1016C218.802 31.3099 219.13 31.4141 219.531 31.4141ZM228.398 36.25V34.875L229.5 34.6406V26.1562L228.281 25.9219V24.5469H231.594L231.703 25.5312C231.953 25.1667 232.255 24.8854 232.609 24.6875C232.964 24.4896 233.385 24.3906 233.875 24.3906C234.557 24.3906 235.141 24.5781 235.625 24.9531C236.109 25.3229 236.479 25.8411 236.734 26.5078C236.995 27.1745 237.125 27.9531 237.125 28.8438V29.0078C237.125 29.8411 236.995 30.5703 236.734 31.1953C236.479 31.8151 236.107 32.2995 235.617 32.6484C235.133 32.9922 234.547 33.1641 233.859 33.1641C233.406 33.1641 233.005 33.0833 232.656 32.9219C232.312 32.7552 232.018 32.513 231.773 32.1953V34.6406L232.875 34.875V36.25H228.398ZM233.18 31.4141C233.763 31.4141 234.185 31.1979 234.445 30.7656C234.711 30.3333 234.844 29.7474 234.844 29.0078V28.8438C234.844 28.3073 234.784 27.8411 234.664 27.4453C234.544 27.0443 234.359 26.7318 234.109 26.5078C233.865 26.2786 233.549 26.1641 233.164 26.1641C232.852 26.1641 232.576 26.2344 232.336 26.375C232.102 26.5156 231.914 26.7161 231.773 26.9766V30.6797C231.914 30.9193 232.102 31.1016 232.336 31.2266C232.576 31.3516 232.857 31.4141 233.18 31.4141ZM240.969 33.1641C240.13 33.1641 239.464 32.9401 238.969 32.4922C238.474 32.0391 238.227 31.4245 238.227 30.6484C238.227 29.8516 238.549 29.2057 239.195 28.7109C239.841 28.2109 240.786 27.9609 242.031 27.9609H243.148V27.3359C243.148 26.9297 243.029 26.6016 242.789 26.3516C242.555 26.0964 242.201 25.9688 241.727 25.9688C241.482 25.9688 241.263 26 241.07 26.0625C240.878 26.1198 240.701 26.2031 240.539 26.3125L240.359 27.4297H238.719L238.688 25.2344C239.13 24.9844 239.609 24.7812 240.125 24.625C240.641 24.4688 241.216 24.3906 241.852 24.3906C242.956 24.3906 243.828 24.6484 244.469 25.1641C245.109 25.6745 245.43 26.4062 245.43 27.3594V30.8438C245.43 30.9583 245.43 31.0729 245.43 31.1875C245.435 31.2969 245.445 31.4036 245.461 31.5078L246.344 31.6328V33H243.516C243.458 32.8542 243.401 32.6979 243.344 32.5312C243.286 32.3646 243.245 32.1979 243.219 32.0312C242.948 32.375 242.628 32.651 242.258 32.8594C241.893 33.0625 241.464 33.1641 240.969 33.1641ZM241.578 31.4766C241.896 31.4766 242.198 31.4062 242.484 31.2656C242.771 31.1198 242.992 30.9297 243.148 30.6953V29.3594H242.023C241.523 29.3594 241.143 29.474 240.883 29.7031C240.628 29.9323 240.5 30.2083 240.5 30.5312C240.5 30.8333 240.594 31.0677 240.781 31.2344C240.974 31.3958 241.24 31.4766 241.578 31.4766ZM247.031 33V31.6328L248.133 31.3984V22.4219L246.914 22.1875V20.8125H250.414V31.3984L251.516 31.6328V33H247.031ZM256.156 33.1641C255.349 33.1641 254.643 32.987 254.039 32.6328C253.435 32.2734 252.966 31.7812 252.633 31.1562C252.305 30.5312 252.141 29.8177 252.141 29.0156V28.7031C252.141 27.8646 252.297 27.1224 252.609 26.4766C252.922 25.8255 253.362 25.3151 253.93 24.9453C254.503 24.5755 255.177 24.3906 255.953 24.3906C256.719 24.3906 257.362 24.5417 257.883 24.8438C258.404 25.1458 258.799 25.5807 259.07 26.1484C259.341 26.7161 259.477 27.4036 259.477 28.2109V29.4531H254.508L254.492 29.5C254.523 29.8698 254.615 30.2005 254.766 30.4922C254.922 30.7786 255.141 31.0052 255.422 31.1719C255.703 31.3333 256.044 31.4141 256.445 31.4141C256.862 31.4141 257.25 31.362 257.609 31.2578C257.974 31.1484 258.328 30.9896 258.672 30.7812L259.289 32.1875C258.94 32.4688 258.5 32.7031 257.969 32.8906C257.443 33.0729 256.839 33.1641 256.156 33.1641ZM254.523 27.9453H257.344V27.7422C257.344 27.3984 257.297 27.1042 257.203 26.8594C257.115 26.6094 256.969 26.4167 256.766 26.2812C256.568 26.1458 256.31 26.0781 255.992 26.0781C255.69 26.0781 255.435 26.1589 255.227 26.3203C255.018 26.4766 254.854 26.6927 254.734 26.9688C254.62 27.2448 254.542 27.5573 254.5 27.9062L254.523 27.9453ZM263.852 33.1641C263.065 33.1641 262.458 32.9479 262.031 32.5156C261.609 32.0833 261.398 31.3984 261.398 30.4609V26.1484H260.234V24.5469H261.398V22.4766H263.672V24.5469H265.227V26.1484H263.672V30.4531C263.672 30.7812 263.74 31.0156 263.875 31.1562C264.016 31.2969 264.206 31.3672 264.445 31.3672C264.576 31.3672 264.711 31.3594 264.852 31.3438C264.997 31.3229 265.122 31.3021 265.227 31.2812L265.422 32.9297C265.188 32.9974 264.932 33.0521 264.656 33.0938C264.385 33.1406 264.117 33.1641 263.852 33.1641ZM270.141 33.1641C269.333 33.1641 268.628 32.987 268.023 32.6328C267.419 32.2734 266.951 31.7812 266.617 31.1562C266.289 30.5312 266.125 29.8177 266.125 29.0156V28.7031C266.125 27.8646 266.281 27.1224 266.594 26.4766C266.906 25.8255 267.346 25.3151 267.914 24.9453C268.487 24.5755 269.161 24.3906 269.938 24.3906C270.703 24.3906 271.346 24.5417 271.867 24.8438C272.388 25.1458 272.784 25.5807 273.055 26.1484C273.326 26.7161 273.461 27.4036 273.461 28.2109V29.4531H268.492L268.477 29.5C268.508 29.8698 268.599 30.2005 268.75 30.4922C268.906 30.7786 269.125 31.0052 269.406 31.1719C269.688 31.3333 270.029 31.4141 270.43 31.4141C270.846 31.4141 271.234 31.362 271.594 31.2578C271.958 31.1484 272.312 30.9896 272.656 30.7812L273.273 32.1875C272.924 32.4688 272.484 32.7031 271.953 32.8906C271.427 33.0729 270.823 33.1641 270.141 33.1641ZM268.508 27.9453H271.328V27.7422C271.328 27.3984 271.281 27.1042 271.188 26.8594C271.099 26.6094 270.953 26.4167 270.75 26.2812C270.552 26.1458 270.294 26.0781 269.977 26.0781C269.674 26.0781 269.419 26.1589 269.211 26.3203C269.003 26.4766 268.839 26.6927 268.719 26.9688C268.604 27.2448 268.526 27.5573 268.484 27.9062L268.508 27.9453Z" fill="white"/>
<path d="M52.8853 23.2539C52.5117 22.7565 51.8073 22.6552 51.3099 23.0288C50.8125 23.4002 50.7113 24.1068 51.0849 24.602C51.9828 25.8038 51.9828 27.4534 51.0849 28.6552C50.7113 29.1526 50.8125 29.857 51.3099 30.2283C51.8095 30.6019 52.5117 30.5006 52.8853 30.0033C54.3842 28.0048 54.3842 25.2546 52.8853 23.2539Z" fill="white"/>
<path d="M56.487 20.5527C56.1134 20.0553 55.409 19.9541 54.9139 20.3277C54.4165 20.699 54.3153 21.4057 54.6866 21.903C56.7886 24.7027 56.7886 28.5534 54.6866 31.3531C54.3153 31.8527 54.4165 32.5571 54.9139 32.9285C55.4113 33.3021 56.1134 33.2008 56.487 32.7034C59.1877 29.1048 59.1877 24.1536 56.487 20.5527Z" fill="white"/>
<path d="M60.0874 17.8526C59.7139 17.3553 59.0094 17.254 58.5121 17.6276C58.0147 18.0012 57.9134 18.7056 58.287 19.203C61.5886 23.6028 61.5886 29.6567 58.287 34.0566C57.9134 34.5539 58.0147 35.2584 58.5121 35.632C59.0094 36.0055 59.7139 35.9043 60.0874 35.4069C63.9899 30.2059 63.9899 23.0536 60.0874 17.8526Z" fill="white"/>
<path d="M63.6885 15.1517C63.3172 14.6521 62.6105 14.5531 62.1131 14.9244C61.6158 15.298 61.5145 16.0024 61.8881 16.4998C66.3892 22.502 66.3892 30.7525 61.8881 36.7547C61.5145 37.2521 61.6158 37.9565 62.1131 38.3301C62.6105 38.7015 63.3172 38.6024 63.6885 38.1028C68.7883 31.3062 68.7883 21.9529 63.6885 15.1517Z" fill="white"/>
<path d="M67.2897 12.451C66.9161 11.9536 66.2117 11.8524 65.7144 12.2237C65.2147 12.5973 65.1135 13.3017 65.487 13.7991C71.1877 21.4014 71.1877 31.853 65.487 39.4553C65.1135 39.9527 65.2147 40.6571 65.7144 41.0307C66.2117 41.402 66.9161 41.3008 67.2897 40.8034C73.5913 32.4044 73.5913 20.8545 67.2897 12.451Z" fill="white"/>
<path d="M42.7582 19.8776L31.5055 19.8776V25.5039H27.4612C26.5948 25.5039 25.7418 25.2744 24.9901 24.8423C22.2557 23.2624 18.8079 23.654 16.4966 25.8055C16.2918 25.9968 16.0735 26.1679 15.8394 26.3209C13.5574 27.8153 10.4966 27.1783 9 24.8963V28.0718C11.7794 30.023 15.5446 29.7642 18.0314 27.4529C19.6203 25.9743 21.9879 25.7065 23.8671 26.7913C24.9609 27.4214 26.2009 27.7545 27.4635 27.7545H31.5055L31.5055 33.3809L42.7582 33.3809C43.5774 33.3809 44.3313 33.8242 44.7274 34.5421C45.0875 35.1948 45.909 35.4333 46.5616 35.0688C46.9892 34.8325 47.2593 34.3778 47.2593 33.8895V19.3712C47.2593 18.6263 46.6539 18.0209 45.909 18.0209C45.4161 18.0209 44.9637 18.2864 44.7274 18.7185C44.3313 19.4342 43.5774 19.8776 42.7582 19.8776Z" fill="white"/>
</svg>
