<svg width="105" height="105" viewBox="0 0 105 105" fill="none" xmlns="http://www.w3.org/2000/svg">
<path d="M26.6797 50.9811L27.3772 48.9883L52.5744 66.1112L77.6274 48.9883L78.2719 50.9977L53.2984 67.95V104.999L51.7043 104.997V67.9571L26.6797 50.9811Z" fill="#D1050C"/>
<path d="M0 32.7659L0.494731 30.8086L25.87 47.9552L25.2274 49.9741L0 32.7659Z" fill="#C5C6C6"/>
<path d="M79.1797 47.9552L79.773 49.9741L105 32.6427L104.358 30.8086L79.1797 47.9552Z" fill="#C5C6C6"/>
<path d="M26.6797 50.9805V85.5034L27.8833 88.2617L51.7043 104.998V67.9564L26.6797 50.9805Z" fill="#E3000F"/>
<path d="M80.1211 16.1836H78.4644L54.9922 30.9392V32.3894L79.1771 47.946L104.357 30.7994L80.1211 16.1836Z" fill="#B1B2B3"/>
<path d="M78.2762 85.6115V50.9961L53.3047 67.9483V104.995L77.0536 88.41L78.2762 85.6115Z" fill="#A50B03"/>
<path d="M0 32.7617V66.825L1.30223 69.8107L24.092 85.8507L25.2274 85.0758V49.9699L0 32.7617Z" fill="#DADADA"/>
<path d="M79.7656 49.972V85.0874L80.7968 85.7912L103.693 69.8057L104.993 66.8224V32.6406L79.7656 49.972Z" fill="#9C9D9D"/>
<path d="M53.5329 33.2305H51.7815L27.3672 48.9908L52.5643 66.1113L77.6174 48.9908L53.5329 33.2305Z" fill="#C00808"/>
<path d="M53.7863 0H51.5097L28.4375 14.0282V15.2367L51.7562 30.042H53.138L76.7372 15.0637V13.8409L53.7863 0Z" fill="#B1B2B3"/>
<path d="M26.7089 16.1836H25.0522L0.484375 30.7994L25.8616 47.946L49.9233 32.3491V30.9748L26.7089 16.1836Z" fill="#B1B2B3"/>
</svg>
