<svg width="105" height="105" viewBox="0 0 105 105" fill="none" xmlns="http://www.w3.org/2000/svg">
<path d="M92.9585 99.9883C94.5283 100.902 96.0511 101.197 97.7385 101.197C98.8617 101.197 100.386 100.814 100.386 99.1926C100.386 97.925 99.5173 97.4811 97.5269 96.6262L96.473 96.1839C94.3637 95.329 92.8644 93.9118 92.8644 90.7881C92.8644 85.9808 96.8478 84.6836 99.7759 84.6836C101.299 84.6836 102.751 84.9187 104.25 85.3609L104.133 89.4005C102.845 88.7823 101.532 88.488 100.152 88.488C99.1203 88.488 97.4329 88.7231 97.4329 90.4033C97.4329 91.6726 98.2766 91.9372 99.6584 92.4979L100.994 93.0273C103.313 93.9726 105 95.181 105 98.6303C105 103.41 101.58 105.001 98.3236 105.001C96.4495 105.001 94.6458 104.764 92.8409 104.145L92.9585 99.9883ZM82.1992 104.678V97.924L76.437 85.0065H81.4495L84.7054 93.7365L87.8686 85.0065H92.6709L86.8134 97.924V104.678H82.1992ZM64.3183 99.9883C65.8881 100.902 67.4109 101.197 69.097 101.197C70.2215 101.197 71.7443 100.814 71.7443 99.1926C71.7443 97.925 70.8771 97.4811 68.8854 96.6262L67.8315 96.1839C65.7236 95.329 64.2242 93.9118 64.2242 90.7881C64.2242 85.9808 68.2076 84.6836 71.1357 84.6836C72.6572 84.6836 74.1108 84.9187 75.6102 85.3609L75.4926 89.4005C74.2036 88.7823 72.8923 88.488 71.5092 88.488C70.4801 88.488 68.7927 88.7231 68.7927 90.4033C68.7927 91.6726 69.6364 91.9372 71.0182 92.4979L72.3529 93.0273C74.6724 93.9726 76.3598 95.181 76.3598 98.6303C76.3598 103.41 72.9393 105.001 69.6834 105.001C67.808 105.001 66.0044 104.764 64.2007 104.145L64.3183 99.9883ZM49.847 104.678V85.0065H61.5607V88.8109H54.3685V92.8504H61.2799V96.6268H54.3685V100.873H61.7475V104.678H49.847ZM32.6306 104.678V85.0065H38.6971C43.6874 85.0065 47.6003 87.397 47.6003 94.5619C47.6003 101.021 44.1563 104.678 39.1189 104.678H32.6306ZM37.2461 100.873H38.2752C41.5795 100.873 42.7745 98.1607 42.7745 94.5619C42.7745 91.0238 41.4854 88.8109 38.3706 88.8109H37.2461V100.873ZM14.1014 94.8568C14.1014 88.4877 17.1941 84.7112 22.2314 84.7112C27.3602 84.7112 30.3823 88.3397 30.3823 94.8568C30.3823 101.315 27.2909 105.001 22.2314 105.001C19.6533 105.001 17.6616 104.146 16.2328 102.406C14.804 100.665 14.1014 98.1302 14.1014 94.8568ZM22.2314 101.198C24.9714 101.198 25.5565 97.5991 25.5565 94.8568C25.5565 92.1145 24.9714 88.5156 22.2314 88.5156C19.5841 88.5156 18.9272 92.2016 18.9272 94.8568C18.9272 96.1836 19.1152 97.7471 19.5841 99.0147C20.0752 100.284 20.9188 101.198 22.2314 101.198ZM13.072 104.206C11.9475 104.765 10.6585 105.002 9.15914 105.002C3.81751 105.002 0 101.61 0 94.8561C0 88.487 4.12312 84.7122 9.15914 84.7122C10.5657 84.7122 11.9005 84.8602 13.025 85.3008L12.8852 89.4307C11.924 88.9884 10.8935 88.7533 9.76906 88.7533C6.84095 88.7533 4.82576 91.1405 4.82576 94.8561C4.82576 98.7197 6.67639 100.961 9.76906 100.961C10.8935 100.961 11.9005 100.725 12.9309 100.165L13.072 104.206Z" fill="white"/>
<path d="M34.7109 35.3709L35.1916 33.9883L52.5525 45.8684L69.8142 33.9883L70.2583 35.3825L53.0514 47.1442V72.8493L51.9531 72.8477V47.1491L34.7109 35.3709Z" fill="#D1050C"/>
<path d="M16.3281 22.733L16.669 21.375L34.1527 33.2715L33.71 34.6723L16.3281 22.733Z" fill="#C5C6C6"/>
<path d="M70.8828 33.2715L71.2916 34.6723L88.6735 22.6475L88.2307 21.375L70.8828 33.2715Z" fill="#C5C6C6"/>
<path d="M34.7109 35.3711V59.3236L35.5403 61.2374L51.9531 72.8495V47.1493L34.7109 35.3711Z" fill="#E3000F"/>
<path d="M71.5327 11.2305H70.3912L54.2188 21.4681V22.4743L70.8823 33.2677L88.2315 21.3711L71.5327 11.2305Z" fill="#B1B2B3"/>
<path d="M70.2602 59.3995V35.3828L53.0547 47.1445V72.848L69.4179 61.3411L70.2602 59.3995Z" fill="#A50B03"/>
<path d="M16.3281 22.7305V46.3641L17.2254 48.4356L32.9277 59.5644L33.71 59.0267V34.6698L16.3281 22.7305Z" fill="#DADADA"/>
<path d="M71.2891 34.6732V59.0368L71.9995 59.5251L87.775 48.4341L88.6709 46.3642V22.6484L71.2891 34.6732Z" fill="#9C9D9D"/>
<path d="M53.2159 23.0547H52.0091L35.1875 33.9894L52.5485 45.8679L69.8102 33.9894L53.2159 23.0547Z" fill="#C00808"/>
<path d="M53.3873 0H51.8188L35.9219 9.73294V10.5714L51.9886 20.8436H52.9407L69.2007 10.4514V9.60305L53.3873 0Z" fill="#B1B2B3"/>
<path d="M34.7329 11.2305H33.5914L16.6641 21.3711L34.1491 33.2677L50.7278 22.4464V21.4928L34.7329 11.2305Z" fill="#B1B2B3"/>
</svg>
