<svg width="70" height="100" viewBox="0 0 70 100" fill="none" xmlns="http://www.w3.org/2000/svg">
<g clip-path="url(#clip0_2953_1036)">
<path d="M17.3772 99.9974C26.9651 99.9974 34.7466 92.5307 34.7466 83.3307V66.6641H17.3772C7.78931 66.6641 0.0078125 74.1307 0.0078125 83.3307C0.0078125 92.5307 7.78931 99.9974 17.3772 99.9974Z" fill="#0ACF83"/>
<path d="M0.0078125 50.0026C0.0078125 40.8026 7.78931 33.3359 17.3772 33.3359H34.7466V66.6693H17.3772C7.78931 66.6693 0.0078125 59.2026 0.0078125 50.0026Z" fill="#A259FF"/>
<path d="M0.0078125 16.6667C0.0078125 7.46667 7.78931 0 17.3772 0H34.7466V33.3333H17.3772C7.78931 33.3333 0.0078125 25.8667 0.0078125 16.6667Z" fill="#F24E1E"/>
<path d="M34.7422 0H52.1116C61.6995 0 69.481 7.46667 69.481 16.6667C69.481 25.8667 61.6995 33.3333 52.1116 33.3333H34.7422V0Z" fill="#FF7262"/>
<path d="M69.481 50.0026C69.481 59.2026 61.6995 66.6693 52.1116 66.6693C42.5237 66.6693 34.7422 59.2026 34.7422 50.0026C34.7422 40.8026 42.5237 33.3359 52.1116 33.3359C61.6995 33.3359 69.481 40.8026 69.481 50.0026Z" fill="#1ABCFE"/>
</g>
<defs>
<clipPath id="clip0_2953_1036">
<rect width="69.4915" height="100" fill="white"/>
</clipPath>
</defs>
</svg>
