<svg width="110" height="110" viewBox="0 0 110 110" fill="none" xmlns="http://www.w3.org/2000/svg">
<path fill-rule="evenodd" clip-rule="evenodd" d="M55 0C24.6125 0 0 24.6125 0 55C0 79.3375 15.7438 99.8937 37.6063 107.181C40.3563 107.662 41.3875 106.012 41.3875 104.569C41.3875 103.262 41.3188 98.9312 41.3188 94.325C27.5 96.8687 23.925 90.9562 22.825 87.8625C22.2063 86.2812 19.525 81.4 17.1875 80.0937C15.2625 79.0625 12.5125 76.5187 17.1188 76.45C21.45 76.3812 24.5438 80.4375 25.575 82.0875C30.525 90.4062 38.4313 88.0687 41.5938 86.625C42.075 83.05 43.5188 80.6437 45.1 79.2687C32.8625 77.8937 20.075 73.15 20.075 52.1125C20.075 46.1312 22.2063 41.1812 25.7125 37.3312C25.1625 35.9562 23.2375 30.3187 26.2625 22.7562C26.2625 22.7562 30.8687 21.3125 41.3875 28.3937C45.7875 27.1562 50.4625 26.5375 55.1375 26.5375C59.8125 26.5375 64.4875 27.1562 68.8875 28.3937C79.4063 21.2437 84.0125 22.7562 84.0125 22.7562C87.0375 30.3187 85.1125 35.9562 84.5625 37.3312C88.0688 41.1812 90.2 46.0625 90.2 52.1125C90.2 73.2187 77.3438 77.8937 65.1063 79.2687C67.1 80.9875 68.8188 84.2875 68.8188 89.4437C68.8188 96.8 68.75 102.712 68.75 104.569C68.75 106.012 69.7813 107.731 72.5313 107.181C83.4496 103.495 92.9371 96.4777 99.6585 87.1171C106.38 77.7565 109.997 66.5238 110 55C110 24.6125 85.3875 0 55 0Z" fill="white"/>
</svg>
