<svg width="107" height="56" viewBox="0 0 107 56" fill="none" xmlns="http://www.w3.org/2000/svg">
<path fill-rule="evenodd" clip-rule="evenodd" d="M60.5552 17.4459C59.2954 17.8994 58.0179 18.3589 56.5392 18.8756C55.8168 19.1386 55.6524 19.1984 54.9802 18.1474C54.174 16.9095 53.5827 16.1087 52.4536 15.3801C49.0669 13.1226 45.7875 13.7781 42.7234 16.4728C39.068 19.6768 37.1865 24.4101 37.2403 30.3088C37.2938 36.1348 40.2506 40.9412 44.4976 41.742C48.1531 42.3975 51.2172 40.6498 53.6362 36.936C54.1198 36.1352 54.5504 35.2605 55.0878 34.2414H44.7126C43.5835 34.2414 43.3147 33.2949 43.6911 32.0565C44.39 29.799 45.6802 26.0126 46.4326 24.1191C46.5941 23.682 46.9705 22.9538 47.7767 22.9538H65.076C65.8532 19.6183 67.114 16.4668 68.7959 13.4845C72.7204 6.49326 77.4511 2.85211 83.8481 1.32318C89.3315 0.01218 94.4921 0.740325 99.169 5.03697C103.416 8.96955 106.05 14.2853 106.749 21.2766C107.663 31.1074 105.566 39.1183 100.567 45.9634C97.0187 50.8425 92.6644 53.9012 87.665 55.2849C86.7113 55.5239 85.7577 55.6373 84.8191 55.7491C84.3294 55.8075 83.8438 55.8651 83.3644 55.9404C78.4723 55.7946 74.0107 53.9012 70.2473 49.5319C67.601 46.4328 65.7783 42.6245 64.8721 38.1911C64.2434 39.9113 63.4917 41.5585 62.6139 43.1256C58.7432 50.0439 53.69 54.3405 47.293 55.5058C42.0245 56.4523 37.1327 55.0687 32.832 50.6994C28.854 46.6211 26.5961 41.2322 26.0048 34.5328C25.306 26.595 27.0262 19.4584 30.5742 13.1957C34.3911 6.42319 39.4444 2.12655 45.6264 0.59719C50.6797 -0.64074 55.5177 0.160476 59.8724 4.16569C62.7212 6.71419 64.7642 10.2101 66.1082 14.4336C66.4308 15.0891 66.2155 15.4532 65.5704 15.6716C63.6865 16.3198 62.1349 16.8781 60.5552 17.4459ZM96.1213 25.7409C96.132 25.9855 96.143 26.2434 96.1587 26.5198C95.89 32.7825 93.5782 37.4432 89.3315 40.4289C86.4824 42.3949 83.5255 42.6137 80.5691 40.866C76.6984 38.5354 74.6554 32.7825 75.6231 27.1022C76.806 20.2571 80.0312 15.9604 85.0307 14.431C90.1378 12.829 95.0299 16.9069 95.9976 24.1166C96.0735 24.6324 96.0959 25.1477 96.1213 25.7409Z" fill="#00ACD7"/>
<path d="M8.17096 16.6153C8.06343 16.8337 8.11718 16.9794 8.3322 16.9794L24.3422 17.0524C24.5034 17.0524 24.7722 16.8337 24.8797 16.6153L25.7936 14.7219C25.9011 14.5035 25.8474 14.2852 25.6323 14.2852H9.8912C9.67617 14.2852 9.40737 14.4309 9.29987 14.6492L8.17096 16.6153Z" fill="#00ACD7"/>
<path d="M0.0537578 23.3184C-0.0537578 23.5368 2.49039e-08 23.6825 0.215031 23.6825L22.1921 23.6099C22.4071 23.6099 22.6221 23.4641 22.6759 23.1727L23.106 21.425C23.1597 21.2066 23.0522 20.9883 22.8372 20.9883H1.77401C1.55898 20.9883 1.29019 21.1336 1.18267 21.3524L0.0537578 23.3184Z" fill="#00ACD7"/>
<path d="M13.0616 29.945C12.9541 30.1634 13.0078 30.3817 13.2229 30.3817L21.4917 30.4548C21.6529 30.4548 21.868 30.2364 21.868 29.945L21.9755 28.1973C21.9755 27.9059 21.868 27.6875 21.6529 27.6875H14.3518C14.1367 27.6875 13.9217 27.9059 13.8142 28.1242L13.0616 29.945Z" fill="#00ACD7"/>
</svg>
