<svg width="106" height="106" viewBox="0 0 106 106" fill="none" xmlns="http://www.w3.org/2000/svg">
<path d="M0.5 0.5H105.5V105.5H0.5V0.5Z" fill="#F5DE19"/>
<path d="M71.0372 82.531C71.9318 84.3482 73.3218 85.8757 75.0468 86.9372C76.7719 87.9988 78.7618 88.5513 80.7872 88.531C84.8747 88.531 87.4884 86.4873 87.4884 83.656C87.4884 80.281 84.8034 79.0735 80.3034 77.1048L77.8359 76.0473C70.7109 73.0135 65.9859 69.2148 65.9859 61.1823C65.9859 53.7835 71.6109 48.1473 80.4347 48.1473C83.2911 47.941 86.145 48.5803 88.6404 49.9854C91.1359 51.3905 93.1624 53.4992 94.4672 56.0485L86.7534 60.9798C86.251 59.7157 85.3762 58.6343 84.245 57.8788C83.1139 57.1234 81.7798 56.7296 80.4197 56.7498C79.8263 56.6904 79.227 56.7552 78.6601 56.9402C78.0931 57.1252 77.5709 57.4263 77.1268 57.8242C76.6826 58.2222 76.3262 58.7083 76.0803 59.2516C75.8344 59.7949 75.7043 60.3834 75.6984 60.9798C75.6984 63.9385 77.5322 65.1385 81.7659 66.9798L84.2334 68.0373C92.6184 71.6335 97.3584 75.2973 97.3584 83.536C97.3584 92.4198 90.3797 97.2873 81.0084 97.2873C77.3571 97.5199 73.7164 96.6909 70.5258 94.9003C67.3351 93.1097 64.7308 90.4339 63.0272 87.196L71.0372 82.531ZM36.1809 83.386C37.7297 86.1348 39.1397 88.4598 42.5297 88.4598C45.7697 88.4598 47.8172 87.1923 47.8172 82.261V48.7098H57.6834V82.3923C57.6834 92.6073 51.6834 97.2573 42.9497 97.2573C39.8625 97.426 36.7965 96.6566 34.1548 95.0503C31.513 93.444 29.4191 91.0759 28.1484 88.2573L36.1809 83.386Z" fill="black"/>
</svg>
