<svg width="88" height="107" viewBox="0 0 88 107" fill="none" xmlns="http://www.w3.org/2000/svg">
<path opacity="0.98" d="M44 0L-3.09944e-06 26.7112V80.0115L44 106.667L88 80.0099L88 26.6947L44 0Z" fill="#8F0000"/>
<path fill-rule="evenodd" clip-rule="evenodd" d="M43.8392 101.586L48.3023 99.1193L83.1094 59.1409L82.4956 57.0553H65.3778L62.2489 46.1019L59.4975 50.258L50.3008 39.386L42.7057 37.2371L42.3656 42.8482L37.0378 43.4451L31.7099 43.5645L17.8799 43.9226L15.5057 32.168L3.64908 46.827L3.98133 57.731L22.2498 57.736L22.5647 67.8339L3.48369 69.9488L3.25752 77.0847L43.8392 101.586Z" fill="black" fill-opacity="0.19898"/>
<path opacity="0.98" d="M84.7344 59.4737V77.0503C84.7344 77.3406 84.584 77.6089 84.3398 77.7541L44.3687 101.477C44.1245 101.622 43.8237 101.622 43.5795 101.477L3.66999 77.7524C3.42579 77.6073 3.25288 77.339 3.25289 77.0487V71.3018V67.68V59.4721V55.8509V29.6103C3.25287 29.32 3.42579 29.0517 3.66999 28.9065L43.5795 5.1866C43.6941 5.11867 43.8234 5.08145 43.9556 5.07836C44.1003 5.07477 44.2432 5.11221 44.3687 5.1866L84.3398 28.9065C84.584 29.0517 84.7344 29.32 84.7344 29.6103V44.0226V47.4023V55.8517V59.4737ZM43.9741 6.82824L4.83163 30.0785V55.8186H20.5134C23.2886 55.8186 25.6655 58.2049 25.6655 61.0627V61.7648C35.0902 61.693 37.9007 59.1814 41.406 56.0252C44.3196 53.4015 47.9693 50.5307 55.3098 49.3313C53.9412 47.9179 53.118 46.3124 52.3847 44.9429C51.5965 43.4713 50.8837 42.3057 49.7435 41.5C48.8555 40.8725 47.3396 40.4942 45.3769 40.3741V41.0341C45.3769 43.8917 43.2217 46.2299 40.4466 46.2299H20.3545C17.5793 46.2299 15.0904 43.8918 15.0904 41.0341V35.9506C15.0904 33.093 17.5694 30.7905 20.3445 30.7905L40.4366 30.7902C43.2118 30.7902 45.3769 33.0926 45.3769 35.9503V36.8771C47.9725 37.0089 50.1817 37.5324 51.6822 38.5929C53.5386 39.9049 54.5539 41.6869 55.3851 43.2387C56.2162 44.7905 56.8976 46.1257 57.8875 47.0609C58.7318 47.8581 59.9143 48.4052 61.8362 48.655C62.0848 46.0281 64.3029 44.1325 66.914 44.1172H83.1171V30.0786L43.9741 6.82824ZM40.4365 34.3658H20.3444C19.4074 34.3658 18.7204 34.9854 18.7204 35.9503V41.0337C18.7204 41.9986 19.4173 42.6544 20.3543 42.6543H40.4464C41.3834 42.6543 42.1456 41.9986 42.1456 41.0337V35.9503C42.1456 34.9854 41.3736 34.3658 40.4366 34.3658H40.4365ZM83.116 47.3675H66.9144C65.9774 47.3675 65.2812 48.1671 65.2812 49.132V54.2158C65.2812 55.1806 65.9774 55.8186 66.9144 55.8186H83.116V47.3675ZM61.7391 52.2826C50.4206 52.4661 47.2984 55.4022 43.6594 58.6793C40.1672 61.8239 35.8702 65.125 25.6649 65.264V66.1464C25.6649 69.004 23.2881 71.258 20.5128 71.258H4.831V76.5801L43.9735 99.8352L83.116 76.5801V59.3935H66.9129C64.1377 59.3935 61.7396 57.0732 61.7396 54.2156L61.7391 52.2826ZM20.5117 59.394H4.83022V67.6826H20.5117C21.4487 67.6826 22.1918 67.0218 22.1918 66.0569V61.0627C22.1918 60.0978 21.4488 59.394 20.5117 59.394Z" fill="white"/>
</svg>
