<svg width="81" height="81" viewBox="0 0 81 81" fill="none" xmlns="http://www.w3.org/2000/svg">
<path d="M80.3974 48.2875C79.9128 46.8642 78.6436 45.8729 77.0023 45.635C76.2284 45.523 75.342 45.5707 74.2932 45.7804C72.465 46.1463 71.1086 46.2856 70.1188 46.3125C73.855 40.194 76.8931 33.2167 78.6421 26.6487C81.4702 16.0284 79.9589 11.1902 78.1929 9.00179C73.5192 3.2093 66.7004 0.0975201 58.4741 0.00230527C54.0858 -0.0497414 50.2334 0.790659 48.2237 1.39501C46.3525 1.07477 44.3406 0.895978 42.2296 0.862913C38.2724 0.801681 34.7761 1.63841 31.7885 3.35809C30.1346 2.81558 27.48 2.0508 24.4145 1.56279C17.2046 0.414699 11.3936 1.30929 7.14321 4.22176C1.99636 7.74808 -0.389581 13.8749 0.051686 22.432C0.191831 25.1488 1.75868 33.4151 4.22573 41.2545C5.6436 45.7605 7.15552 49.5024 8.71953 52.3772C10.9375 56.4537 13.3109 58.8543 15.9752 59.7164C17.4685 60.1989 20.1817 60.5369 23.0355 58.2315C23.3972 58.6565 23.8798 59.0787 24.5202 59.4709C25.3336 59.9684 26.3282 60.3749 27.3216 60.6159C30.9013 61.4838 34.2543 61.2668 37.115 60.0501C37.1327 60.5436 37.1462 61.0151 37.1576 61.4223C37.1765 62.0827 37.1955 62.7302 37.2204 63.3358C37.3899 67.4303 37.6771 70.614 38.5281 72.8416C38.5748 72.9641 38.6376 73.1509 38.7039 73.3489C39.1285 74.6097 39.8383 76.7204 41.6444 78.3733C43.5146 80.0856 45.7768 80.6107 47.8487 80.6107C48.8878 80.6107 49.8792 80.4784 50.7488 80.2978C53.8484 79.6533 57.3688 78.6718 59.9154 75.1547C62.3231 71.8298 63.4935 66.822 63.7053 58.9314C63.7327 58.7082 63.758 58.4951 63.7823 58.2921L63.8328 57.8752L64.4 57.9235L64.5461 57.933C67.7032 58.0726 71.5635 57.4233 73.9343 56.3551C75.8076 55.5119 81.8108 52.4378 80.3974 48.2875Z" fill="black"/>
<path d="M75.0109 49.0892C65.6237 50.9675 64.9782 47.8848 64.9782 47.8848C74.8894 33.62 79.0328 15.5129 75.4576 11.0813C65.703 -1.00729 48.8177 4.70988 48.5358 4.85806L48.4452 4.87398C46.5905 4.50047 44.5152 4.2782 42.1823 4.24116C37.935 4.1738 34.7129 5.32128 32.268 7.11965C32.268 7.11965 2.14627 -4.91661 3.54741 22.2573C3.84537 28.0381 12.0899 65.9988 21.9234 54.533C25.5177 50.3401 28.9907 46.7951 28.9907 46.7951C30.7153 47.9065 32.7803 48.4735 34.9449 48.2699L35.1132 48.1315C35.0608 48.652 35.0848 49.1611 35.1804 49.7639C32.6471 52.5093 33.3917 52.9912 28.3275 54.0024C23.2031 55.0268 26.2133 56.8503 28.1788 57.3273C30.5616 57.905 36.074 58.7236 39.7986 53.6662L39.6502 54.2433C40.6426 55.0145 41.3395 59.2591 41.2227 63.1072C41.1059 66.955 41.028 69.5968 41.8098 71.6603C42.5923 73.7238 43.3716 78.3667 50.0291 76.9831C55.5917 75.8268 58.4744 72.8304 58.8756 67.8321C59.16 64.2789 59.8042 64.8042 59.8446 61.6272L60.3614 60.1234C60.957 55.3066 60.456 53.7526 63.883 54.4754L64.7163 54.5464C67.2382 54.6576 70.5399 54.1527 72.4776 53.2792C76.6497 51.4013 79.1244 48.2653 75.0103 49.0892H75.0109Z" fill="#336791"/>
<path d="M34.0127 24.8478C33.1667 24.7336 32.4007 24.8392 32.0131 25.1239C31.7953 25.2841 31.7277 25.4696 31.7094 25.5972C31.6608 25.9356 31.9051 26.3097 32.0554 26.5026C32.4802 27.0487 33.1008 27.4241 33.715 27.5068C33.804 27.519 33.8927 27.5245 33.9808 27.5245C35.005 27.5245 35.9365 26.7508 36.0186 26.1799C36.1211 25.4647 35.0508 24.9877 34.0127 24.8478ZM62.0366 24.8704C61.9558 24.3099 60.9274 24.15 59.9515 24.2817C58.9768 24.4133 58.0317 24.8401 58.1106 25.4019C58.1738 25.8388 58.9872 26.5846 59.9499 26.5846C60.0313 26.5846 60.1134 26.5794 60.1961 26.5681C60.8387 26.4817 61.3103 26.0859 61.5344 25.8578C61.8753 25.51 62.0729 25.1224 62.0366 24.8704Z" fill="white"/>
<path d="M78.1298 48.8818C77.7718 47.832 76.6197 47.4943 74.7057 47.8776C69.0225 49.0153 66.9873 48.2272 66.3191 47.7499C70.7365 41.2227 74.3705 33.3324 76.3309 25.9709C77.2595 22.4837 77.7725 19.2452 77.8144 16.6055C77.8608 13.7083 77.352 11.5793 76.3028 10.2788C72.0726 5.03584 65.8639 2.22348 58.3485 2.14633C53.1817 2.09 48.8164 3.37249 47.9702 3.73314C46.1881 3.3033 44.2453 3.03939 42.1302 3.00571C38.2516 2.94479 34.8988 3.8455 32.1231 5.68153C30.9173 5.24617 27.8013 4.2086 23.9906 3.61313C17.4025 2.58444 12.1673 3.36392 8.43131 5.93104C3.9735 8.99445 1.91552 14.4704 2.31417 22.2063C2.44832 24.809 3.97729 32.8156 6.39006 40.4833C9.56605 50.5755 13.0185 56.2887 16.6509 57.464C17.0761 57.6015 17.5663 57.6976 18.107 57.6976C19.4321 57.6976 21.0567 57.1184 22.7469 55.1473C24.8086 52.7484 26.9412 50.4078 29.1422 48.1284C30.5701 48.8717 32.1389 49.2869 33.7433 49.3285C33.7464 49.3692 33.7505 49.4099 33.7543 49.4503C33.4781 49.7698 33.2077 50.0938 32.9431 50.4224C31.8314 51.7912 31.6001 52.0762 28.0216 52.7908C27.0037 52.9947 24.3002 53.5351 24.2604 55.3733C24.2175 57.3816 27.4563 58.2251 27.8253 58.3145C29.1112 58.6268 30.3501 58.7808 31.5316 58.7808C34.4048 58.7808 36.9335 57.8648 38.9542 56.0924C38.892 63.2522 39.1998 70.3073 40.0861 72.4568C40.8121 74.2166 42.5853 78.5172 48.1867 78.5169C49.0086 78.5169 49.9133 78.4241 50.9085 78.2172C56.7545 77.0017 59.2932 74.4955 60.2752 68.9703C60.8007 66.0174 61.7025 58.9663 62.1267 55.184C63.0219 55.455 64.1743 55.579 65.4201 55.5787C68.0185 55.5787 71.0168 55.0432 72.8971 54.1967C75.0093 53.2452 78.821 50.9104 78.1298 48.8818ZM64.2081 23.3238C64.1888 24.4404 64.0304 25.4541 63.8624 26.5121C63.6816 27.6501 63.4947 28.8267 63.4477 30.2549C63.4013 31.6449 63.5803 33.0899 63.7532 34.4875C64.103 37.3103 64.4618 40.2163 63.0727 43.0838C62.8419 42.6872 62.6364 42.2773 62.4572 41.8564C62.2845 41.4505 61.9096 40.7983 61.3903 39.8958C59.3705 36.3823 54.6406 28.1547 57.0619 24.7974C57.7832 23.7981 59.6136 22.7706 64.2081 23.3238ZM58.6389 4.4073C65.3728 4.5515 70.6996 6.99494 74.4708 11.6693C77.3634 15.2547 74.1782 31.5689 64.9574 45.6433C64.8647 45.5289 64.7714 45.4149 64.6777 45.3013L64.561 45.1599C66.9437 41.343 66.4778 37.5665 66.0631 34.2184C65.8926 32.8444 65.7317 31.5466 65.7727 30.3275C65.815 29.0355 65.9911 27.9272 66.1616 26.8556C66.3708 25.5352 66.5839 24.1688 66.5252 22.5581C66.5691 22.3891 66.5867 22.1895 66.5637 21.9525C66.4138 20.408 64.5957 15.7853 60.89 11.6014C58.863 9.31285 55.907 6.75185 51.8709 5.02451C53.6069 4.67549 55.9809 4.35005 58.6389 4.4073ZM20.9582 53.7047C19.0959 55.8766 17.81 55.4602 17.387 55.3237C14.6315 54.4321 11.434 48.7829 8.61502 39.8248C6.17574 32.0735 4.7503 24.279 4.6373 22.0934C4.28125 15.181 6.00876 10.3636 9.77216 7.77472C15.8969 3.562 25.9665 6.08351 30.0127 7.36233C29.9546 7.41805 29.894 7.47009 29.8366 7.52673C23.1967 14.0307 23.3542 25.143 23.3706 25.8224C23.37 26.0844 23.3927 26.4555 23.4237 26.9659C23.5379 28.835 23.7507 32.3135 23.1825 36.2528C22.6548 39.9136 23.8182 43.4965 26.374 46.0832C26.6363 46.3482 26.9119 46.6004 27.2 46.8388C26.0624 48.0206 23.59 50.6339 20.9582 53.7047ZM28.0535 44.5221C25.9936 42.4372 25.0581 39.5373 25.4864 36.5651C26.0861 32.4038 25.8648 28.7795 25.7458 26.8324C25.7291 26.5599 25.7143 26.3211 25.7058 26.1328C26.6757 25.2985 31.1708 22.9626 34.3764 23.675C35.8391 23.9998 36.7305 24.966 37.1011 26.6279C39.0189 35.2318 37.3548 38.8178 36.0178 41.6997C35.7422 42.2933 35.4818 42.8545 35.2596 43.435L35.0873 43.8838C34.651 45.0184 34.2451 46.0734 33.9936 47.0752C31.8036 47.069 29.6734 46.1616 28.0535 44.5218V44.5221ZM28.3897 56.1255C27.7502 55.9706 27.1751 55.7015 26.8377 55.4783C27.1195 55.3497 27.6211 55.1746 28.491 55.0007C32.7007 54.1603 33.3509 53.5669 34.7707 51.8185C35.0961 51.4174 35.4651 50.9631 35.9761 50.4095L35.9767 50.4089C36.7378 49.5823 37.0859 49.7225 37.7172 49.9766C38.2288 50.1817 38.7272 50.8039 38.9293 51.4884C39.0249 51.8117 39.1322 52.4253 38.7809 52.9029C35.8151 56.9307 31.4934 56.8789 28.3897 56.1255ZM50.4211 76.011C45.2711 77.0813 43.4477 74.5326 42.246 71.6189C41.4705 69.7378 41.0892 61.2554 41.3597 51.888C41.3632 51.7634 41.3449 51.643 41.3095 51.5298C41.2779 51.3061 41.2298 51.0849 41.1656 50.8678C40.7635 49.5048 39.7834 48.3647 38.6076 47.892C38.1405 47.7043 37.2832 47.3599 36.2529 47.6155C36.4726 46.7375 36.8536 45.7458 37.2668 44.6721L37.4401 44.2206C37.6351 43.7114 37.8801 43.1839 38.1389 42.6255C39.5381 39.6105 41.4544 35.4807 39.3746 26.1512C38.5956 22.6567 35.9941 20.9502 32.0505 21.3467C29.6863 21.5839 27.5232 22.5091 26.4444 23.0397C26.2124 23.1536 26.0003 23.2638 25.802 23.371C26.1032 19.8502 27.2407 13.2702 31.4962 9.10712C34.1757 6.48641 37.744 5.19198 42.0917 5.26178C50.6582 5.39772 56.1516 9.66187 59.2519 13.2154C61.9234 16.2773 63.37 19.3618 63.9473 21.0255C59.6057 20.5972 56.6529 21.4284 55.1561 23.5041C51.8996 28.0194 56.9376 36.7828 59.3589 40.9946C59.803 41.7664 60.1862 42.4335 60.3067 42.717C61.0952 44.5705 62.116 45.808 62.8612 46.7112C63.0897 46.9879 63.3113 47.2564 63.4799 47.4909C62.1649 47.8586 59.803 48.7082 60.0182 52.9549C59.8446 55.0858 58.6102 65.0622 57.983 68.587C57.155 73.2436 55.3884 74.978 50.4211 76.0113V76.011ZM71.9176 52.1503C70.573 52.7556 68.3228 53.2096 66.1852 53.3073C63.8242 53.4145 62.6223 53.0507 62.3395 52.8269C62.2069 50.1805 63.2223 49.9041 64.2971 49.6114C64.4659 49.5655 64.6307 49.5204 64.7898 49.4666C64.8886 49.5446 64.9969 49.6221 65.1155 49.698C67.0132 50.9129 70.3978 51.0439 75.1763 50.0871L75.2287 50.077C74.5842 50.6615 73.4813 51.4459 71.9176 52.1503Z" fill="white"/>
</svg>
