<svg width="81" height="81" viewBox="0 0 81 81" fill="none" xmlns="http://www.w3.org/2000/svg">
<path fill-rule="evenodd" clip-rule="evenodd" d="M31.7736 0C25.4367 0 20.2998 4.92218 20.2998 10.994V18.6053H40.1583V20.7195H11.4738C5.13699 20.7195 0 25.6417 0 31.7135V48.2046C0 54.2764 5.13699 59.1985 11.4738 59.1985H18.0933V49.896C18.0933 43.8242 23.2303 38.9018 29.5672 38.9018H50.7495C56.1115 38.9018 60.458 34.737 60.458 29.5994V10.994C60.458 4.92218 55.3212 0 48.9843 0H31.7736ZM29.1259 13.5311C31.3194 13.5311 33.0975 11.8273 33.0975 9.72549C33.0975 7.6237 31.3194 5.91985 29.1259 5.91985C26.9322 5.91985 25.1541 7.6237 25.1541 9.72549C25.1541 11.8273 26.9322 13.5311 29.1259 13.5311Z" fill="url(#paint0_linear_2846_1062)"/>
<path fill-rule="evenodd" clip-rule="evenodd" d="M48.8406 80.6125C55.1775 80.6125 60.3146 75.6904 60.3146 69.6187V62.0073H40.4559V59.8932H69.1406C75.4775 59.8932 80.6143 54.9708 80.6143 48.8991V32.408C80.6143 26.3362 75.4775 21.4141 69.1406 21.4141H62.521V30.7166C62.521 36.7886 57.384 41.7107 51.0473 41.7107H29.8648C24.5028 41.7107 20.1562 45.8756 20.1562 51.0132V69.6187C20.1562 75.6904 25.2933 80.6125 31.63 80.6125H48.8406ZM51.4886 67.0816C49.2949 67.0816 47.5168 68.7852 47.5168 70.8871C47.5168 72.9889 49.2949 74.6926 51.4886 74.6926C53.6821 74.6926 55.4602 72.9889 55.4602 70.8871C55.4602 68.7852 53.6821 67.0816 51.4886 67.0816Z" fill="url(#paint1_linear_2846_1062)"/>
<defs>
<linearGradient id="paint0_linear_2846_1062" x1="30.2292" y1="0" x2="30.2292" y2="59.1985" gradientUnits="userSpaceOnUse">
<stop stop-color="#327EBD"/>
<stop offset="1" stop-color="#1565A7"/>
</linearGradient>
<linearGradient id="paint1_linear_2846_1062" x1="50.3854" y1="21.4141" x2="50.3854" y2="80.6125" gradientUnits="userSpaceOnUse">
<stop stop-color="#FFDA4B"/>
<stop offset="1" stop-color="#F9C600"/>
</linearGradient>
</defs>
</svg>
