<svg width="113" height="101" viewBox="0 0 113 101" fill="none" xmlns="http://www.w3.org/2000/svg">
<path d="M92.9086 32.7027C91.7062 32.2886 90.4935 31.905 89.2717 31.5522C89.477 30.7106 89.6659 29.8791 89.8336 29.0622C92.5869 15.6483 90.787 4.84172 84.6391 1.28369C78.7446 -2.12728 69.1047 1.42943 59.3689 9.93336C58.4094 10.773 57.4712 11.6368 56.5552 12.5239C55.942 11.934 55.3179 11.3555 54.6834 10.7888C44.4798 1.6961 34.2524 -2.13614 28.1111 1.43209C22.2219 4.85368 20.4781 15.0126 22.9568 27.7253C23.2034 28.9844 23.4819 30.2369 23.7919 31.4818C22.3442 31.8947 20.9473 32.3341 19.6104 32.8019C7.64748 36.9881 0.0078125 43.5482 0.0078125 50.3528C0.0078125 57.3808 8.20934 64.4299 20.6692 68.7043C21.6794 69.0494 22.6979 69.3692 23.7239 69.6633C23.3907 71.0041 23.0949 72.354 22.8368 73.7113C20.4737 86.2034 22.319 96.1222 28.1924 99.5221C34.2585 103.033 44.4401 99.4247 54.3537 90.7267C55.1575 90.0196 55.9437 89.2924 56.7115 88.5459C57.7035 89.5065 58.7219 90.4392 59.7657 91.3429C69.3691 99.6364 78.8532 102.985 84.7208 99.5762C90.7812 96.0549 92.7511 85.3994 90.1938 72.4355C89.9923 71.4199 89.7664 70.4093 89.5163 69.4046C90.2313 69.192 90.9331 68.9732 91.6172 68.7455C104.57 64.4384 112.998 57.4747 112.998 50.3528C112.998 43.5234 105.112 36.919 92.9086 32.7027V32.7027ZM90.0993 64.1473C89.4814 64.3524 88.8476 64.5504 88.2014 64.7431C86.7714 60.1995 84.8417 55.3683 82.4799 50.3763C84.7336 45.5035 86.5891 40.7339 87.979 36.2199C89.1349 36.5557 90.2564 36.9097 91.3378 37.2831C101.794 40.8961 108.172 46.2371 108.172 50.3528C108.172 54.7366 101.284 60.4276 90.0993 64.1473V64.1473ZM85.4588 73.3764C86.5895 79.1086 86.7506 84.2915 86.0016 88.3435C85.329 91.9843 83.9757 94.4114 82.3021 95.3838C78.7415 97.4525 71.1266 94.7636 62.914 87.6706C61.9432 86.8304 60.9958 85.9633 60.0729 85.0703C63.257 81.5756 66.4388 77.513 69.5443 73.0008C75.0067 72.5144 80.1672 71.7188 84.847 70.633C85.0724 71.5425 85.2764 72.4572 85.4588 73.3764V73.3764ZM38.5288 95.0263C35.0499 96.2591 32.279 96.2946 30.604 95.3253C27.0399 93.2623 25.5583 85.298 27.5793 74.615C27.8195 73.3526 28.0946 72.0972 28.4042 70.8501C33.0324 71.8778 38.1554 72.6167 43.6306 73.0623C46.7572 77.4776 50.0309 81.5357 53.3301 85.0893C52.629 85.7702 51.9112 86.4337 51.1776 87.0792C46.7934 90.9252 42.4005 93.6539 38.5288 95.0263V95.0263ZM22.2308 64.1203C16.7212 62.2301 12.1711 59.7738 9.05236 57.0933C6.24966 54.6848 4.83507 52.2931 4.83507 50.3528C4.83507 46.2234 10.9688 40.9563 21.1993 37.3766C22.4409 36.9424 23.7403 36.5327 25.0886 36.1482C26.5028 40.7641 28.3574 45.5903 30.5956 50.4707C28.3283 55.4232 26.4472 60.3266 25.0193 64.997C24.0828 64.7277 23.153 64.4354 22.2308 64.1203V64.1203ZM27.6941 26.7946C25.5706 15.903 26.9808 7.687 30.5299 5.62491C34.3097 3.42861 42.6684 6.56005 51.4786 14.4115C52.0531 14.9246 52.6183 15.4482 53.1739 15.9818C49.891 19.5199 46.6473 23.548 43.5485 27.9371C38.2344 28.4314 33.1476 29.2252 28.4709 30.2888C28.1827 29.131 27.9237 27.966 27.6941 26.795V26.7946ZM76.4332 38.8738C75.3285 36.9588 74.1829 35.0679 72.9971 33.2023C76.6022 33.6599 80.0564 34.2673 83.3 35.0097C82.3263 38.1425 81.1126 41.4175 79.6839 44.7753C78.6396 42.7866 77.5558 40.8191 76.4332 38.8738V38.8738ZM56.5574 19.4442C58.7837 21.8651 61.0135 24.5677 63.2067 27.5003C58.7576 27.2894 54.3012 27.2885 49.8521 27.4976C52.0475 24.5921 54.2963 21.893 56.5574 19.4442ZM36.5541 38.9071C35.4455 40.8366 34.382 42.7919 33.3643 44.7713C31.959 41.4254 30.7563 38.1354 29.7742 34.9583C32.998 34.2345 36.4358 33.6427 40.018 33.1935C38.819 35.0704 37.664 36.9753 36.5541 38.9066V38.9071ZM40.1208 67.8569C36.4199 67.4422 32.9305 66.881 29.7076 66.1766C30.7051 62.9429 31.9343 59.5828 33.3701 56.1652C34.3918 58.1461 35.4597 60.1025 36.5731 62.033C37.718 64.0175 38.9035 65.9613 40.1208 67.8569ZM56.6907 81.6026C54.4027 79.1255 52.1208 76.3847 49.8923 73.4371C52.0559 73.5222 54.2614 73.5656 56.5031 73.5656C58.8062 73.5656 61.0828 73.5137 63.3236 73.4136C61.1234 76.4144 58.902 79.1591 56.6907 81.6026ZM79.7293 55.9907C81.2397 59.4459 82.5126 62.7883 83.5233 65.9667C80.2475 66.7171 76.7104 67.3213 72.9834 67.77C74.1777 65.8699 75.3342 63.9461 76.4522 61.9998C77.5888 60.0214 78.6815 58.0179 79.7293 55.9907V55.9907ZM72.2711 59.5793C70.5595 62.5634 68.7517 65.4908 66.8506 68.357C63.4069 68.6018 59.9555 68.7234 56.5031 68.7216C52.9867 68.7216 49.5666 68.6117 46.2731 68.3973C44.3223 65.5378 42.48 62.6052 40.7502 59.6059H40.7506C39.0289 56.6224 37.4208 53.5744 35.9296 50.4685C37.417 47.3618 39.0203 44.3124 40.7361 41.3266L40.7356 41.3271C42.4508 38.3406 44.2784 35.4206 46.2144 32.5733C49.5745 32.3181 53.0203 32.1853 56.5027 32.1853H56.5031C60.0014 32.1853 63.4516 32.3195 66.8109 32.5764C68.7273 35.4194 70.5432 38.3294 72.2552 41.3009C73.9767 44.2801 75.6012 47.3146 77.1261 50.3998C75.6169 53.5165 73.9975 56.5783 72.2711 59.5793V59.5793ZM82.2284 5.4805C86.0118 7.67061 87.4833 16.5023 85.1061 28.0841C84.9543 28.823 84.7839 29.5756 84.5985 30.3389C79.9103 29.2527 74.82 28.4452 69.4904 27.9433C66.3858 23.5059 63.1687 19.4717 59.9392 15.9792C60.7856 15.1603 61.6521 14.3627 62.538 13.5871C70.8799 6.30135 78.6762 3.42462 82.2284 5.4805V5.4805ZM56.5031 40.2263C62.0754 40.2263 66.5928 44.7602 66.5928 50.3528C66.5928 55.9455 62.0754 60.4794 56.5031 60.4794C50.9308 60.4794 46.4134 55.9455 46.4134 50.3528C46.4134 44.7602 50.9308 40.2263 56.5031 40.2263V40.2263Z" fill="#00D8FF"/>
</svg>
