<svg width="105" height="105" viewBox="0 0 105 105" fill="none" xmlns="http://www.w3.org/2000/svg">
<path d="M100.08 0H4.92C2.20276 0 0 2.20276 0 4.92V100.08C0 102.797 2.20276 105 4.92 105H100.08C102.797 105 105 102.797 105 100.08V4.92C105 2.20276 102.797 0 100.08 0Z" fill="#3178C6"/>
<path fill-rule="evenodd" clip-rule="evenodd" d="M60.9247 81.6014V93.1064C63.0151 94.1381 65.2428 94.8643 67.5397 95.2626C70.1939 95.7526 72.8881 95.9937 75.5872 95.9826C78.2178 95.9951 80.8423 95.7299 83.4172 95.1914C85.729 94.7242 87.9347 93.8343 89.9234 92.5664C91.7697 91.3746 93.2914 89.7434 94.3522 87.8189C96.252 83.8339 96.5027 79.2602 95.0497 75.0914C94.4365 73.5325 93.523 72.1092 92.3609 70.9026C91.1136 69.6196 89.6967 68.5131 88.1497 67.6139C86.3686 66.5707 84.518 65.6511 82.6109 64.8614C81.1109 64.2389 79.7609 63.6339 78.5609 63.0464C77.4951 62.5361 76.4751 61.9351 75.5122 61.2501C74.758 60.7214 74.103 60.0638 73.5772 59.3076C73.1229 58.621 72.8864 57.8133 72.8984 56.9901C72.8884 56.2325 73.0995 55.4884 73.5059 54.8489C73.9473 54.1796 74.5361 53.6203 75.2272 53.2139C76.072 52.7165 76.9912 52.3582 77.9497 52.1526C79.1265 51.8912 80.3293 51.7654 81.5347 51.7776C82.5485 51.7811 83.5608 51.8538 84.5647 51.9951C85.6488 52.1417 86.7214 52.3635 87.7747 52.6589C88.8461 52.9558 89.894 53.3319 90.9097 53.7839C91.8953 54.2232 92.8381 54.753 93.7259 55.3664V44.6301C91.8776 43.9308 89.9608 43.4281 88.0072 43.1301C85.6481 42.7869 83.2661 42.6251 80.8822 42.6464C78.2764 42.6323 75.6782 42.9282 73.1422 43.5276C70.85 44.0514 68.6704 44.9824 66.7072 46.2764C64.8835 47.4913 63.3776 49.1257 62.3159 51.0426C61.1908 53.1714 60.6341 55.5545 60.6997 57.9614C60.6166 61.1443 61.665 64.2536 63.6584 66.7364C66.1041 69.4892 69.1881 71.5997 72.6397 72.8826C74.2147 73.5326 75.6834 74.1689 77.0459 74.7914C78.2753 75.3384 79.4568 75.9869 80.5784 76.7301C81.4831 77.3186 82.2776 78.0611 82.9259 78.9239C83.496 79.7064 83.7985 80.652 83.7884 81.6201C83.7936 82.3456 83.6073 83.0596 83.2484 83.6901C82.8496 84.3677 82.2892 84.9358 81.6172 85.3439C80.7763 85.8565 79.8564 86.2265 78.8947 86.4389C77.642 86.719 76.3607 86.8511 75.0772 86.8326C72.5583 86.828 70.0596 86.3839 67.6934 85.5201C65.2215 84.6281 62.9291 83.3009 60.9247 81.6014ZM41.5972 52.9589H56.5972V43.4826H14.7734V52.9589H29.7059V95.1614H41.5972V52.9589Z" fill="white"/>
</svg>
