<svg width="99" height="97" viewBox="0 0 99 97" fill="none" xmlns="http://www.w3.org/2000/svg">
<path d="M94.6292 10.4477L74.6284 0.818401C73.4989 0.2738 72.2279 0.0940815 70.9917 0.304158C69.7555 0.514235 68.6152 1.1037 67.729 1.99084L2.25638 61.6811C1.46201 62.4019 0.986496 63.4087 0.934455 64.4801C0.882414 65.5515 1.2581 66.5997 1.97888 67.3941C2.0656 67.4878 2.15232 67.578 2.24598 67.6612L7.59132 72.5175C8.2898 73.1532 9.18887 73.5242 10.1324 73.566C11.0759 73.6078 12.0043 73.3178 12.7563 72.7464L91.6183 12.9452C92.214 12.4931 92.924 12.2164 93.6684 12.146C94.4129 12.0756 95.1622 12.2145 95.832 12.5468C96.5018 12.8792 97.0655 13.392 97.4597 14.0274C97.8539 14.6628 98.0629 15.3956 98.0633 16.1433V15.9109C98.0632 14.7694 97.7409 13.651 97.1334 12.6845C96.5258 11.718 95.6578 10.9427 94.6292 10.4477V10.4477Z" fill="#0065A9"/>
<path d="M94.6292 86.5524L74.6284 96.1851C73.4985 96.7282 72.228 96.907 70.9921 96.697C69.7562 96.487 68.6161 95.8985 67.729 95.0127L2.25638 35.3189C1.46201 34.5981 0.986496 33.5913 0.934455 32.5199C0.882414 31.4485 1.2581 30.4003 1.97888 29.6059C2.0656 29.5123 2.15232 29.4221 2.24598 29.3388L7.59132 24.4826C8.29051 23.8442 9.19164 23.4716 10.1375 23.4297C11.0834 23.3879 12.0139 23.6795 12.7667 24.2536L91.6183 84.0549C92.214 84.5069 92.924 84.7837 93.6684 84.854C94.4129 84.9244 95.1622 84.7856 95.832 84.4532C96.5018 84.1208 97.0655 83.6081 97.4597 82.9727C97.8539 82.3373 98.0629 81.6044 98.0633 80.8567V81.1065C98.0595 82.245 97.7355 83.3595 97.1282 84.3225C96.5209 85.2856 95.6549 86.0583 94.6292 86.5524V86.5524Z" fill="#007ACC"/>
<path d="M74.6242 96.1856C73.4943 96.7287 72.2237 96.9076 70.9879 96.6976C69.752 96.4875 68.6118 95.899 67.7248 95.0132C68.2229 95.5048 68.8551 95.8385 69.542 95.9724C70.229 96.1063 70.9402 96.0345 71.5865 95.766C72.2328 95.4975 72.7855 95.0442 73.1753 94.4629C73.5651 93.8816 73.7747 93.1982 73.7778 92.4984V4.50311C73.7784 3.79995 73.5702 3.11244 73.1798 2.52767C72.7893 1.9429 72.234 1.48718 71.5843 1.21824C70.9347 0.949304 70.2198 0.879244 69.5302 1.01694C68.8407 1.15464 68.2075 1.49389 67.7109 1.99173C68.5973 1.10491 69.7373 0.515412 70.9733 0.304752C72.2093 0.0940916 73.4802 0.272682 74.6103 0.815825L94.6076 10.4312C95.6395 10.9238 96.5111 11.6981 97.1218 12.6647C97.7325 13.6314 98.0574 14.7511 98.059 15.8945V81.107C98.0593 82.2495 97.7368 83.3689 97.1286 84.3361C96.5204 85.3033 95.6513 86.0789 94.6215 86.5737L74.6242 96.1856Z" fill="#1F9CF0"/>
</svg>
